<svg id="Objects" xmlns="http://www.w3.org/2000/svg" viewBox="0 0 29.7 67.2"><style>.st0{fill:#ffd3ad}.st1{fill:#6e4315}.st2{fill:#ffab00}.st3{fill:#af6617}.st4{fill:#454c53}.st5{fill:#433934}</style><path class="st0" d="M21.6 10c0 5.1-4.7 9.3-9.1 9.3-4.4 0-9.1-4.2-9.1-9.3C3.4 4.9 7.5.7 12.5.7c5.1 0 9.1 4.1 9.1 9.3z"/><path class="st0" d="M9.5 18.5h6v2.8h-6z"/><path class="st0" d="M12.6 20.6C5.7 20.6 2.1 24 2.1 30.7L0 46.1v2c0 .9.7 1.7 1.6 1.7.9 0 1.6-.7 1.6-1.7V47H4l1.1-9 .5-7.9c0-4.5 2.4-4.7 6.9-4.7l.1.2c4.5 0 6.9-.1 6.9 4.4L21 47h.5v1.1c0 .9 1 1.7 1.9 1.7.9 0 1.9-.7 1.9-1.7v-.7l-.3-1.2-2.4-15.4c.1-6.8-3.3-10.2-10-10.2z"/><path class="st1" d="M6.2 39.3L6 65.7h4s1-20.2 2.4-20.2 2.4 20.2 2.4 20.2h3.9l.1-26.4H6.2z"/><path class="st2" d="M12.6 22.3c-2 0-2.7-1.6-2.8-1.6-4.1.7-6.7 3.2-7.4 7.2-.2.9-2.4 17.3-2.4 17.3h4.3l1.8-13.6.1 10.9 12.6.2.3-10.8 1.8 13.3H25s-2.3-17.4-2.7-18.6c-1-3.2-3.4-5.3-6.9-5.9 0 0-.8 1.6-2.8 1.6z"/><path class="st3" d="M6.2 66s-1.7.4-2.6.6c-.9.2-1.4 1.4.3 1.5h6.3v-2.2l-4 .1z"/><path class="st4" d="M2.9 67.6c.2.2.5.3 1.1.4h6.2v-.4H2.9z"/><path class="st3" d="M18.7 65.7s1.9.6 2.8.8c.9.2 1.2 1.4-.4 1.4h-5.9v-2.3h3.5z"/><path class="st4" d="M22.2 67.6c-.2.2-.5.4-1.1.4H15v-.4h7.2z"/><path class="st5" d="M21.5 9.2s-3.8-2.8-4.2-6c0 0-4 2-7.1 3.2-3.1 1.2-6.7 4.5-6.7 4.5s-1.3-5.2 3-8.5c4.4-3.3 8.9-2.5 11.1-1 2.1 1.4 4 5 3.9 7.8z"/></svg>