<svg id="Objects" xmlns="http://www.w3.org/2000/svg" viewBox="0 0 24.3 70"><style>.st0{fill:#ffd3ad}.st1{fill:#89b9bb}.st2{fill:#a29500}.st3{fill:#af6617}.st4{fill:#454c53}</style><path class="st0" d="M21.2 11c0 5.3-4.8 9.5-9.3 9.5-4.5 0-9.3-4.3-9.3-9.5 0-5.3 4.2-9.5 9.3-9.5 5.2-.1 9.3 4.2 9.3 9.5z"/><path class="st0" d="M9.4 18.8h5.5v2.7H9.4z"/><path class="st0" d="M11.9 20.3c-6.5 0-9.9 3.6-9.9 10L0 45.2v1.9c0 .9.7 1.6 1.6 1.6s1.6-.7 1.6-1.6v-1h.7l1-8.6.4-7.5c0-4.3 2.3-4.5 6.6-4.5l.1.2c4.3 0 6.6-.1 6.6 4.2l1.5 16.2h.4v1c0 .9 1.1 1.6 2 1.6.9 0 2-.7 2-1.6v-.7l-.3-1.1-2.4-15c-.2-6.4-3.5-10-9.9-10z"/><path class="st1" d="M5.9 38.7l-.2 25.5h3.8s1-19.2 2.3-19.2c1.3 0 2.3 19.2 2.3 19.2h3.7l.1-25.4h-12z"/><path class="st2" d="M11.9 22.7c-1.9 0-2.6-1.5-2.6-1.5-3.9.6-6.3 2.9-7.1 6.7-.1.8-2.2 16.3-2.2 16.3h4.1l1.7-12.8.1 10.4 12 .2.3-10.3 1.7 12.6h3.9s-2.2-16.4-2.5-17.5c-1-3-3.2-5-6.6-5.6-.1-.1-.9 1.5-2.8 1.5z"/><path class="st3" d="M5.8 64.1s-1.6.4-2.5.5c-.8.2-1.3 1.3.3 1.4h6v-2.1l-3.8.2z"/><path class="st4" d="M2.8 65.6c.2.2.5.3 1.1.4h5.9v-.4h-7z"/><path class="st3" d="M17.7 64.2l2.7.6c.9.2 1 1.1-.6 1.1-1.4 0-1.2.1-5.8-.1v-1.6h3.7z"/><path class="st4" d="M21.1 65.6c-.2.2-.5.4-1.1.4h-5.8v-.4h6.9z"/><path class="st3" d="M2.8 13.7h1s0-3.7 1.4-4.9c1.4-1.2 3.1-2.9 3.1-2.9s3.5 3.3 6.9 3.9c3.4.6 5.2 2.9 5.3 4.6l.7-.2S23.7 3.1 12.5.9l.3-.9s-4.4.8-6 2.6l-2.6.7.3.7s-3.3 5-1.7 9.7z"/></svg>