<svg id="Objects" xmlns="http://www.w3.org/2000/svg" viewBox="0 0 22.8 59"><style>.st0{fill:#6e4315}.st1{fill:#ffd3ad}.st2{fill:#ffab00}.st3{fill:none;stroke:#fff;stroke-width:2.6551;stroke-linecap:round;stroke-miterlimit:10;stroke-dasharray:0,2.2126}.st4{fill:#af6617}</style><path class="st0" d="M7.8 2S6.5-.6 3.6.1C.8.8-.2 5.1.8 9.7c1 4.5-.4 5.7-.4 5.7s3.8.7 5.4-1.5C7.4 11.7 7.6 2.3 7.6 2.3m7.8-.3S16.7-.6 19.6.1c2.8.7 3.8 5 2.8 9.6-1 4.5.4 5.7.4 5.7s-3.8.7-5.4-1.5c-1.6-2.2-1.8-11.6-1.8-11.6"/><path class="st1" d="M19.5 27c0-4.5-1.5-7.1-5.8-7.8v-3.9H9.3v3.9C5 20 3.2 22.5 3.2 27L.4 39.6l2.9.7 2.8-13.8c0-3.5 4.8-1.6 4.8-1.6 3.5 0 5.3-1.9 5.3 1.6l2.9 13.8 3-.7L19.5 27z"/><path class="st1" d="M11.4 39.9l4-.1-1.2 15.5s2.3 2.2.8 2.5c-2.6.4-3.4-2.4-3.4-2.4s.1-9.9-.2-15.5z"/><path class="st2" d="M14 55.1s3 3 .9 3.8c-1.6.6-3.6-.8-3.6-3.5 0 0 2.4 2.6 3 2.2.6-.4-.3-2.5-.3-2.5z"/><path class="st1" d="M10.9 39.9l-4-.1 1.2 15.5s-2.3 2.2-.8 2.5c2.6.4 3.4-2.4 3.4-2.4s-.1-9.9.2-15.5z"/><path class="st2" d="M7.9 55.1s-3 3-.9 3.8c1.6.6 3.6-.8 3.6-3.5 0 0-2.4 2.6-3 2.2-.6-.4.3-2.5.3-2.5zM18.1 43c-.6-2.4-.9-14.2-6.8-14.2S4.9 40.6 4.3 43h13.8z"/><path class="st1" d="M19.9 9.5c0 4.9-4.5 9-8.7 9s-8.7-4-8.7-9c0-4.9 3.9-9 8.7-9s8.7 4.1 8.7 9zM2.6 41c-.2.7-.9 1.1-1.6.9-.7-.2-1.1-.9-1-1.6l.4-1.7c.2-.6.9-1.1 1.6-.9.7.2 1.1.9.9 1.6L2.6 41zm17.2 0c.2.7.9 1.1 1.6.9.7-.2 1.1-.9.9-1.6l-.4-1.7c-.2-.7-.9-1.1-1.6-.9-.7.2-1.1.9-.9 1.6l.4 1.7z"/><path class="st2" d="M19 23.5c-.8-3.3-4.3-4-4.3-4l-3.5 4.9-3.5-4.9s-3.5.7-4.3 4c-.5 2.2-.9 5.1-.9 5.1l3.6.1v7l5-2 5 2v-7l3.6-.1c.1 0-.2-2.9-.7-5.1z"/><path class="st3" d="M22 37.5l-3.5.7"/><path class="st4" d="M11.6 5c-.1-.1-.3-.2-.5.2C10 7 6.6 12 2.7 11.6c0 0-.8-2.3 0-4.9.9-3 3.6-6.3 9-6.2 5.8.1 7.8 4.2 8.1 7.6.2 2.7-.4 3.8-.4 3.8s-5.6-1.2-7.8-6.9z"/></svg>