<svg id="Objects" xmlns="http://www.w3.org/2000/svg" viewBox="0 0 29.8 80"><style>.st0{fill:#ffd3ad}.st1{fill:#433934}.st2{fill:#89b9bb}.st3{fill:#af6617}.st4{fill:#454c53}</style><path class="st0" d="M25.1 12.5c0 6-5.5 10.8-10.5 10.8-5.1 0-10.5-4.8-10.5-10.8 0-6 4.7-10.8 10.5-10.8s10.5 4.8 10.5 10.8z"/><path class="st0" d="M11.5 22.5h7v3.1h-7z"/><path class="st0" d="M14.6 24.8h-.1c-7.9 0-12 4-12 11.9L.2 54.5v2.4c0 1.1.9 1.9 1.9 1.9 1.1 0 1.9-.9 1.9-1.9v-1h.5l1.3-10.6.6-9.3c0-5.3 2.8-5.5 8.1-5.5l.1.2c5.3 0 8.1 0 8.1 5.3l1.8 19.9h.7v1c0 1.1 1.3 1.9 2.3 1.9 1.1 0 2.3-.9 2.3-1.9V56l-.4-1.4-2.9-18c-.1-7.8-4-11.8-11.9-11.8z"/><path class="st1" d="M7.3 46.6L7 77.3h4.6s1.2-23.5 2.8-23.5c1.6 0 2.8 23.5 2.8 23.5h4.5l.1-30.7H7.3z"/><path class="st2" d="M14.6 29.2S11.5 25 11.4 25c-4.8.8-7.8 3.7-8.6 8.4-.3 1-2.8 20.2-2.8 20.2h5l2.1-15.9.1 12.7 14.7.2.4-12.5 2 15.5h4.8S26.5 33.4 26 32c-1.2-3.7-3.9-6.2-8.1-6.9l-3.3 4.1z"/><path class="st3" d="M7.1 77.4s-1.9.6-3 .9c-1.1.2-1.6 1.6.3 1.7 1.9.1 7.3 0 7.3 0v-2.6H7.1z"/><path class="st4" d="M3.4 79.5c.2.2.6.4 1.3.5 1.9.1 7.2 0 7.2 0v-.5H3.4z"/><path class="st4" d="M6 79.2l-.1-.5c0-.1-.2-.6-.2-.5 0-.1-.1-.2-.2-.3-.5.2-1.1.4-1.5.4-1.1.2-1.2 1.5.7 1.6h1.4c0-.2 0-.4-.1-.7z"/><path class="st3" d="M21.7 77.3s2.2.7 3.3.9c1.1.2 1.5 1.6-.5 1.6-1.9.1-7.2 0-7.2 0v-2.6h4.4z"/><path class="st4" d="M25.8 79.5c-.2.2-.6.4-1.3.5-1.9.1-7.1 0-7.1 0v-.5h8.4z"/><path class="st4" d="M23.2 79.2l.1-.5c0-.1.2-.6.2-.5 0-.1.1-.2.2-.3.6.2 1.2.3 1.6.4 1.1.2 1.2 1.5-.7 1.6h-1.4c-.1-.2-.1-.4 0-.7z"/><path class="st3" d="M22.6 17c-.6 1.7-3.1 3.6-3.8 2.7-.6-1-1.7-3.4-4.4-3.4s-3.8 2.4-4.4 3.4c-.6 1-3.1-1-3.8-2.7-.6-1.7-2.3-3.4-2.3-3.4s.4 6.3 3.8 7.9c3.4 1.6 4 2.6 6.6 2.6 2.7 0 3.2-1 6.6-2.6 3.4-1.6 3.8-7.9 3.8-7.9s-1.4 1.7-2.1 3.4zm-8 2.6c-1.6 0-2.3-1.2 0-1.2 3.1 0 1.6 1.2 0 1.2z"/><path class="st3" d="M4.1 11.6s4.4-3.3 4.9-7c0 0 4.6 2.3 8.2 3.8 3.6 1.5 5 .4 5 .4l2.8 4.9s1.6-6.1-3.5-9.9c-5.1-3.9-8.4-2.5-8.4-2.5l.1-1.3S9.7.7 8.6 2.4c0 0-2.1.8-3 2.1l.6.4c0-.1-2.3 3.5-2.1 6.7z"/></svg>