<svg id="Objects" xmlns="http://www.w3.org/2000/svg" viewBox="0 0 30.3 78"><style>.st0{fill:#6e4315}.st1{fill:#ffd3ad}.st2{fill:#433934}.st3{fill:none;stroke:#fff;stroke-width:3.6021;stroke-linecap:round;stroke-miterlimit:10;stroke-dasharray:0,3.0017}.st4{fill:#89b9bb}.st5{fill:#af6617}</style><path class="st0" d="M6.2 25.4l.1-11.3 9.5-.5 9.4 3.3-.9 8.5z"/><path class="st1" d="M26.3 34.6c0-6.1-2.2-9.6-8-10.5v-2.2h-5.8v2.2c-6 .9-8.3 4.4-8.3 10.5l-3.7 17 4 1 3.9-18.7c0-4.7 6.5-2.2 6.5-2.2 4.8 0 7.2-2.6 7.2 2.2L26 52.6l4-1-3.7-17z"/><path class="st1" d="M15.4 52l5.5-.1-1.7 21s3.1 3 1 3.4c-3.5.5-4.6-3.2-4.6-3.2s.2-13.4-.2-21.1z"/><path class="st2" d="M19 72.7s4.1 4 1.3 5.1c-2.2.9-4.9-1.1-4.8-4.7 0 0 3.2 3.5 4 3 .7-.5-.5-3.4-.5-3.4z"/><path class="st1" d="M14.7 52l-5.5-.1 1.7 21s-3.1 3-1 3.4c3.5.5 4.6-3.2 4.6-3.2s-.2-13.4.2-21.1z"/><path class="st2" d="M10.8 72.7s-4.1 4-1.3 5.1c2.2.9 4.9-1.1 4.8-4.7 0 0-3.2 3.5-4 3-.8-.5.5-3.4.5-3.4zm16-16.4C26 53 23.2 37.1 15.3 37.1S4.6 53 3.9 56.3h22.9z"/><path class="st1" d="M25.3 12.9c0 5.8-5.3 10.5-10.2 10.5-4.9 0-10.2-4.7-10.2-10.5S9.5 2.4 15.1 2.4s10.2 4.7 10.2 10.5zM3.5 53.5c-.2.9-1.2 1.5-2.1 1.3-.9-.2-1.5-1.2-1.3-2.1l.6-2.3c.2-.9 1.2-1.5 2.1-1.3.9.2 1.5 1.2 1.3 2.1l-.6 2.3zm23.3 0c.2.9 1.2 1.5 2.1 1.3.9-.2 1.5-1.2 1.3-2.1l-.6-2.3c-.2-.9-1.2-1.5-2.1-1.3-.9.2-1.5 1.2-1.3 2.1l.6 2.3z"/><path class="st4" d="M25.8 29.9c-1.1-4.4-5.8-5.4-5.8-5.4l-4.8 6.6-4.8-6.6s-4.7 1-5.8 5.4c-.7 3-1.2 6.9-1.2 6.9l4.9.2v5l6.8 1.8L22 42v-5l4.9-.2s-.4-3.9-1.1-6.9z"/><path class="st3" d="M29.9 48.8l-4.9 1"/><path class="st5" d="M23.7 26.1s.4-8-.2-13.7c-.3-3.1-2.2-5.6-2.2-5.6S19 8.9 12.5 9.7c-2.6.3-5.5.5-5.5.5s-.2 14.2.2 15.9H5.3C1.8 12 5.8.2 13.3 0c4.6-.1 6.4 1.9 6.4 1.9s3.4-.9 5.5 4.9c2.1 5.9.4 19.3.4 19.3h-1.9z"/></svg>