<?xml version="1.0" encoding="utf-8"?>
<!-- Generator: Adobe Illustrator 22.1.0, SVG Export Plug-In . SVG Version: 6.00 Build 0)  -->
<svg version="1.1" id="Layer_1" xmlns="http://www.w3.org/2000/svg" xmlns:xlink="http://www.w3.org/1999/xlink" x="0px" y="0px"
	 viewBox="0 0 61.2 84" style="enable-background:new 0 0 61.2 84;" xml:space="preserve">
<style type="text/css">
	.st0{fill:#1BA7A5;}
	.st1{fill:#AFA3B5;}
	.st2{fill:#99909E;}
	.st3{fill:#88818C;}
	.st4{fill-rule:evenodd;clip-rule:evenodd;fill:#F4F4F4;}
	.st5{fill:#FFFFFF;}
	.st6{font-family:'Arial-BoldMT';}
	.st7{font-size:7.2027px;}
</style>
<g>
	<g>
		<g>
			<g>
				<path class="st0" d="M23.4,5.5C23.4,5.5,23.4,5.5,23.4,5.5C23.4,5.5,23.4,5.5,23.4,5.5z M11.3,3.6c0-0.1-0.1-0.2-0.1-0.3
					C11.3,3.5,11.3,3.5,11.3,3.6z"/>
			</g>
			<g>
				<path class="st0" d="M49.6,2.5c0,0,0,0.1,0,0.1C49.6,2.6,49.6,2.6,49.6,2.5z M37.6,4.5c-0.1-0.1-0.1-0.2-0.2-0.3
					C37.5,4.3,37.5,4.4,37.6,4.5z"/>
			</g>
			<path d="M13.2,77.3h-1.8v-4.6c0-0.7-0.6-1.2-1.2-1.2H8.6c-0.7,0-1.2,0.5-1.2,1.2v10c0,0.7,0.6,1.3,1.2,1.3h1.7
				c0.7,0,1.2-0.6,1.2-1.3v-4.4h1.8c0.3,0,0.5-0.3,0.5-0.6v0C13.8,77.4,13.5,77.3,13.2,77.3z"/>
			<path d="M48,77.3h1.8v-4.6c0-0.7,0.6-1.2,1.2-1.2h1.7c0.7,0,1.2,0.5,1.2,1.2v10c0,0.7-0.6,1.3-1.2,1.3H51c-0.7,0-1.2-0.6-1.2-1.3
				v-4.4H48c-0.3,0-0.6-0.3-0.6-0.6v0C47.5,77.4,47.7,77.3,48,77.3z"/>
			<g>
				<path class="st1" d="M30.6,0H1.2C0.5,0,0,0.6,0,1.3v4.2c0,0.7,0.5,1.2,1.2,1.2h1.1h28.3V0z"/>
				<path class="st2" d="M61.2,5.4V1.3c0-0.7-0.5-1.3-1.1-1.3H30.6v6.6H59h1.1C60.7,6.6,61.2,6.1,61.2,5.4z"/>
			</g>
			<g>
				<path class="st2" d="M30.6,9.1V6.6H2.3l0.1,1.8C8.4,8.4,19.3,8.4,30.6,9.1z"/>
				<path class="st1" d="M2.3,8.4l2.4,59c0,2.3,1.6,4.2,3.7,4.2h3.9v7.9c0,1.5,1.9,2.8,4.2,2.8h14.1V9C19.3,8.3,8.4,8.3,2.3,8.4z"/>
				<path class="st3" d="M58.7,13.1L59,6.6H30.6v2.5C40.6,9.7,50.7,10.9,58.7,13.1z"/>
				<path class="st2" d="M30.6,9v73.3h14.2c2.3,0,4.2-1.2,4.2-2.8v-7.9h3.9c2,0,3.6-1.9,3.6-4.2L58.7,13C50.7,10.9,40.6,9.7,30.6,9z
					"/>
			</g>
			<path id="XMLID_15_" class="st4" d="M22,36.6c-0.9,0-1.7-0.2-2.4-0.6c-0.7-0.4-1.1-0.8-1.3-1.3c-0.1-0.2-0.2-0.4-0.2-0.6
				c0-0.2-0.1-0.4-0.1-0.7c0-0.4,0-0.8,0.2-1.2c0.1-0.4,0.2-0.7,0.4-0.9c0.2-0.3,0.3-0.5,0.4-0.6c0.1-0.1,0.2-0.2,0.3-0.3l-1.9-1.1
				l6.2-0.2l2.9,5.4l-1.8-1c-0.1,0.1-0.1,0.1-0.3,0.3c-0.1,0.1-0.2,0.3-0.4,0.4c-0.1,0.2-0.3,0.3-0.4,0.5c-0.1,0.2-0.2,0.3-0.3,0.4
				c-0.1,0.2-0.2,0.4-0.2,0.6c0,0.3,0.1,0.5,0.3,0.7c0.2,0.1,0.4,0.2,0.5,0.3L22,36.6z M39.9,37.5c0.6,0,1.2-0.2,1.7-0.4
				c0.5-0.2,0.9-0.5,1.3-0.8c0.4-0.3,0.6-0.6,0.8-0.8c0.2-0.2,0.3-0.4,0.4-0.5c-0.1,0.4-0.3,0.7-0.4,1.1c-0.2,0.3-0.4,0.7-0.7,1.2
				c-0.2,0.3-0.3,0.5-0.4,0.7c-0.1,0.3-0.3,0.6-0.4,0.9c-0.4,0.8-0.7,1.5-0.9,2c-0.2,0.5-0.5,0.9-0.8,1.4c-0.3,0.4-0.6,0.8-0.9,1.1
				c-0.3,0.3-0.6,0.4-1,0.4c-0.2,0-1.3,0-3.2,0l0,2.2l-3.3-5.3l3.3-5.2l0,2.1C38.2,37.5,39.8,37.5,39.9,37.5z M27.8,19.3
				c0.6,0,1.8,0,3.5,0c1.7,0,3,0,3.8,0.1c0.8,0.1,1.3,0.3,1.5,0.7c0,0.1,0.1,0.2,0.3,0.5c0.2,0.3,0.3,0.6,0.5,0.9
				c0.2,0.3,0.4,0.6,0.5,0.8c0.1,0.2,0.2,0.4,0.3,0.5l1.9-1.1l-2.6,5.8L31,27l1.8-1.1l-2.3-3.8c-0.3-0.6-0.7-1.1-1.2-1.5
				c-0.4-0.4-0.9-0.6-1.3-0.8c-0.4-0.2-0.8-0.3-1.1-0.3c-0.3,0-0.5-0.1-0.7-0.1C26.7,19.4,27.2,19.3,27.8,19.3z M19.4,36.6
				c-0.7-0.3-1.1-0.7-1.4-1.2c0.1,0.1,0.2,0.3,0.3,0.6c0.2,0.3,0.4,0.6,0.6,1.1c0.3,0.5,0.5,0.9,0.8,1.5c0.3,0.5,0.5,0.9,0.6,1.1
				c0.1,0.1,0.1,0.2,0.1,0.3c0.2,0.5,0.4,0.9,0.6,1.2c0.2,0.4,0.4,0.7,0.7,1.1c0.2,0.4,0.5,0.7,0.8,1c0.3,0.2,0.5,0.4,0.7,0.4l7-0.1
				L30.2,37c-4.1,0-6.9,0.1-8.5,0.1C20.9,37.1,20.1,36.9,19.4,36.6z M39.2,36.4c-0.3-0.5-1-1.5-2-3.1c-1-1.6-1.6-2.5-1.8-2.8
				l5.5-3.3c0.1,0.1,0.2,0.3,0.4,0.7c0.2,0.4,0.4,0.8,0.7,1.4c0.6,1.1,1,1.9,1.3,2.5c0.3,0.5,0.5,0.9,0.6,1.1
				c0.1,0.2,0.1,0.4,0.1,0.6c0,0.3-0.1,0.7-0.2,1.1c-0.1,0.1-0.2,0.3-0.4,0.5c-0.2,0.2-0.4,0.5-0.8,0.8c-0.3,0.3-0.8,0.6-1.3,0.9
				c-0.5,0.3-1.1,0.4-1.6,0.4C39.7,37.1,39.5,36.9,39.2,36.4z M26.4,29.2l-5.4-3c0.1-0.1,0.3-0.5,0.7-1.2c0.1-0.1,0.3-0.5,0.7-1.1
				c0.4-0.6,0.7-1.1,1-1.6c0.3-0.5,0.5-0.8,0.7-1.1c0.2-0.3,0.3-0.5,0.4-0.6c0.1-0.2,0.3-0.4,0.5-0.5c0.2-0.1,0.6-0.2,1-0.3
				c0.2,0,0.4,0,0.7,0.1c0.3,0,0.7,0.1,1.1,0.3c0.4,0.2,0.9,0.4,1.3,0.8c0.4,0.4,0.8,0.8,1.1,1.4l0.1,0.1c0.1,0.1,0.2,0.3,0.2,0.4
				L26.4,29.2z"/>
		</g>
	</g>
	<text transform="matrix(1 0 0 1 10.4346 60.4103)" class="st5 st6 st7">Batteries</text>
</g>
</svg>
