<?xml version="1.0" encoding="utf-8"?>
<!-- Generator: Adobe Illustrator 22.1.0, SVG Export Plug-In . SVG Version: 6.00 Build 0)  -->
<svg version="1.1" id="Layer_1" xmlns="http://www.w3.org/2000/svg" xmlns:xlink="http://www.w3.org/1999/xlink" x="0px" y="0px"
	 viewBox="0 0 64 101.4" style="enable-background:new 0 0 64 101.4;" xml:space="preserve">
<style type="text/css">
	.st0{fill:#25BFE8;}
	.st1{fill:#C2C3C4;}
	.st2{fill:#8D8F91;}
	.st3{fill:#EA4924;}
	.st4{fill:#DD3E24;}
	.st5{fill:#314C60;}
	.st6{fill:#456277;}
	.st7{fill:#478970;}
	.st8{fill:#3D7A61;}
	.st9{fill:#9FA2A5;}
	.st10{fill:#53809B;}
	.st11{fill:#E29A0A;}
	.st12{fill:#F4AA08;}
	.st13{fill:#E5C028;}
	.st14{fill:#D3B226;}
	.st15{fill:#1BA7A5;}
	.st16{fill:#AFA3B5;}
	.st17{fill:#99909E;}
	.st18{fill:#88818C;}
	.st19{fill-rule:evenodd;clip-rule:evenodd;fill:#F4F4F4;}
	.st20{fill:#FFFFFF;}
	.st21{font-family:'Arial-BoldMT';}
	.st22{font-size:7.2027px;}
</style>
<g>
	<g>
		<path class="st0" d="M22.4,3.9c0.1,0.3,0,0.7-0.3,0.8L21.1,5c-0.3,0.1-0.6-0.1-0.7-0.4l0,0c-0.1-0.3,0-0.7,0.3-0.8l0.9-0.3
			C21.9,3.4,22.3,3.6,22.4,3.9L22.4,3.9z"/>
		<path class="st0" d="M32.3,0.4c0.1,0.3,0,0.7-0.3,0.8L31,1.5c-0.3,0.1-0.6-0.1-0.7-0.4l0,0c-0.1-0.3,0-0.7,0.3-0.8l0.9-0.3
			C31.8-0.1,32.2,0.1,32.3,0.4L32.3,0.4z"/>
		<rect x="21.9" y="3.3" transform="matrix(0.9434 -0.3315 0.3315 0.9434 -2.4417 9.1731)" class="st1" width="7.6" height="16.9"/>
		<rect x="29" y="0.8" transform="matrix(0.9434 -0.3315 0.3315 0.9434 -1.201 11.4074)" class="st2" width="7.6" height="16.9"/>
		<rect x="23.3" y="4.5" transform="matrix(0.9434 -0.3315 0.3315 0.9434 -2.293 9.3859)" class="st3" width="6.1" height="13.9"/>
		<rect x="29.1" y="2.5" transform="matrix(0.9434 -0.3315 0.3315 0.9434 -1.303 11.1687)" class="st4" width="6" height="13.9"/>
		<polygon class="st0" points="23.7,6.3 23.1,6.6 22.8,5.9 22.5,6 22.7,6.7 22.1,6.9 22.2,7.3 22.8,7 23.1,7.7 23.4,7.6 23.2,6.9 
			23.8,6.7 		"/>
		<rect x="30.9" y="3.5" transform="matrix(0.9434 -0.3315 0.3315 0.9434 0.5723 10.7487)" class="st0" width="1.7" height="0.4"/>
	</g>
	<g>
		<g>
			<polygon class="st5" points="25.2,11.7 26.7,12.2 27,11.2 15.6,7.4 15.2,8.4 			"/>
			<polygon class="st6" points="15.6,7.4 4.2,3.7 3.8,4.7 5.3,5.2 15.2,8.4 			"/>
			<polygon class="st6" points="2.1,15.1 0.6,14.6 0,16.4 11.4,20.1 12,18.3 			"/>
			<polygon class="st5" points="11.4,20.1 22.9,23.8 23.5,22 21.9,21.5 12,18.3 			"/>
			
				<rect x="3.5" y="6.6" transform="matrix(0.3085 -0.9512 0.9512 0.3085 -5.1899 16.403)" class="st7" width="10.4" height="10.4"/>
			
				<rect x="13.4" y="9.8" transform="matrix(0.3085 -0.9512 0.9512 0.3085 -1.3985 28.0378)" class="st8" width="10.4" height="10.4"/>
		</g>
		<rect x="7.5" y="3.7" transform="matrix(0.3085 -0.9512 0.9512 0.3085 1.5241 10.7765)" class="st9" width="1.3" height="1.3"/>
		<rect x="22.4" y="8.5" transform="matrix(0.3085 -0.9512 0.9512 0.3085 7.2256 28.2731)" class="st2" width="1.3" height="1.3"/>
		<polygon class="st3" points="8.1,7.9 7.3,7.6 7.6,6.8 7.2,6.7 7,7.5 6.2,7.2 6,7.6 6.8,7.9 6.6,8.7 6.9,8.8 7.2,8 8,8.3 		"/>
		<rect x="21.8" y="11.5" transform="matrix(0.3085 -0.9512 0.9512 0.3085 3.2489 29.5363)" class="st3" width="0.4" height="2.1"/>
	</g>
	<g>
		<g>
			<polygon class="st10" points="36.3,12.9 35.7,13.3 35,12.3 45,5.5 45.6,6.4 			"/>
			<polygon class="st6" points="45,5.5 54.9,-1.6 55.6,-0.6 54.9,-0.1 45.6,6.4 			"/>
			<polygon class="st6" points="61.4,9.2 62.8,8.2 64,9.9 53.3,17.4 52.1,15.7 			"/>
			<polygon class="st10" points="53.3,17.4 42.5,24.9 41.3,23.2 42.8,22.2 52.1,15.7 			"/>
			
				<rect x="47.8" y="2.1" transform="matrix(0.8196 -0.5729 0.5729 0.8196 5.185 32.0462)" class="st11" width="11.3" height="11.3"/>
			
				<rect x="38.5" y="8.6" transform="matrix(0.8196 -0.5729 0.5729 0.8196 -0.2047 27.8999)" class="st12" width="11.4" height="11.3"/>
		</g>
		<rect x="50.9" y="-0.8" transform="matrix(0.8196 -0.5729 0.5729 0.8196 9.3787 29.5746)" class="st9" width="1.4" height="1.4"/>
		<rect x="37" y="8.9" transform="matrix(0.8196 -0.5729 0.5729 0.8196 1.2735 23.3394)" class="st1" width="1.4" height="1.4"/>
		<polygon class="st3" points="52.8,3.5 53.6,3 53.1,2.3 53.4,2.1 53.9,2.8 54.7,2.2 54.9,2.6 54.2,3.2 54.7,3.9 54.4,4.1 53.9,3.4 
			53.1,3.9 		"/>
		
			<rect x="38.8" y="12.6" transform="matrix(0.8196 -0.5729 0.5729 0.8196 -0.1266 25.1874)" class="st3" width="2.2" height="0.4"/>
	</g>
	<g>
		<path class="st2" d="M19.5,13.5c0.1,0.1,0.2,0.2,0.1,0.4l-0.5,0.9c-0.1,0.1-0.2,0.2-0.4,0.1l-0.6-0.3c-0.1-0.1-0.2-0.2-0.1-0.4
			l0.5-0.9c0.1-0.1,0.2-0.2,0.4-0.1L19.5,13.5z"/>
		<g>
			<path class="st13" d="M18.4,15c-0.2,0.3-0.1,0.7,0.3,0.9l7.3,3.5c0.3,0.2,0.7,0,0.9-0.3l0.5-1L18.8,14L18.4,15z"/>
			<path class="st14" d="M19.3,13l-0.5,1l8.5,4.1l0.5-1c0.2-0.3,0-0.8-0.3-0.9l-7.3-3.5C19.9,12.5,19.5,12.7,19.3,13z"/>
		</g>
	</g>
	<g>
		<path class="st2" d="M45.6,13.2c-0.1,0.1-0.3,0.1-0.4,0l-0.6-0.8c-0.1-0.1-0.1-0.3,0-0.4l0.5-0.4c0.1-0.1,0.3-0.1,0.4,0l0.6,0.8
			c0.1,0.1,0.1,0.3,0,0.4L45.6,13.2z"/>
		<g>
			<path class="st3" d="M44.7,11.5c-0.2-0.3-0.6-0.4-0.9-0.1l-6.4,4.9c-0.3,0.2-0.3,0.6-0.1,0.9L38,18l7.4-5.7L44.7,11.5z"/>
			<path class="st4" d="M46,13.2l-0.7-0.9L38,18l0.7,0.9c0.2,0.3,0.7,0.4,0.9,0.1l6.4-4.9C46.3,14,46.3,13.5,46,13.2z"/>
		</g>
	</g>
	<g>
		<g>
			<path class="st15" d="M22.9,21.8C22.9,21.8,22.9,21.9,22.9,21.8C22.9,21.9,22.9,21.8,22.9,21.8z M11.2,20c0-0.1-0.1-0.2-0.1-0.3
				C11.1,19.8,11.1,19.9,11.2,20z"/>
		</g>
		<g>
			<path class="st15" d="M48.5,18.9c0,0,0,0.1,0,0.1C48.5,19,48.5,19,48.5,18.9z M36.7,20.8c-0.1-0.1-0.1-0.2-0.2-0.2
				C36.6,20.7,36.7,20.8,36.7,20.8z"/>
		</g>
	</g>
</g>
<g>
	<g>
		<g>
			<g>
				<path class="st15" d="M24.8,22.9C24.8,22.9,24.7,22.9,24.8,22.9C24.7,22.9,24.8,22.9,24.8,22.9z M12.7,21.1
					c0-0.1-0.1-0.2-0.1-0.3C12.7,20.9,12.7,21,12.7,21.1z"/>
			</g>
			<g>
				<path class="st15" d="M51,19.9c0,0,0,0.1,0,0.1C51,20,51,20,51,19.9z M39,21.9c-0.1-0.1-0.1-0.2-0.2-0.3
					C38.9,21.7,38.9,21.8,39,21.9z"/>
			</g>
			<path d="M14.6,94.7h-1.8v-4.6c0-0.7-0.6-1.2-1.2-1.2H10c-0.7,0-1.2,0.5-1.2,1.2v10c0,0.7,0.6,1.3,1.2,1.3h1.7
				c0.7,0,1.2-0.6,1.2-1.3v-4.4h1.8c0.3,0,0.5-0.3,0.5-0.6v0C15.1,94.8,14.9,94.7,14.6,94.7z"/>
			<path d="M49.4,94.7h1.8v-4.6c0-0.7,0.6-1.2,1.2-1.2h1.7c0.7,0,1.2,0.5,1.2,1.2v10c0,0.7-0.6,1.3-1.2,1.3h-1.7
				c-0.7,0-1.2-0.6-1.2-1.3v-4.4h-1.8c-0.3,0-0.6-0.3-0.6-0.6v0C48.9,94.8,49.1,94.7,49.4,94.7z"/>
			<g>
				<path class="st16" d="M32,17.4H2.6c-0.7,0-1.2,0.6-1.2,1.3v4.2c0,0.7,0.5,1.2,1.2,1.2h1.1H32V17.4z"/>
				<path class="st17" d="M62.6,22.8v-4.2c0-0.7-0.5-1.3-1.1-1.3H32V24h28.4h1.1C62.1,24,62.6,23.5,62.6,22.8z"/>
			</g>
			<g>
				<path class="st17" d="M32,26.5V24H3.7l0.1,1.8C9.8,25.8,20.7,25.8,32,26.5z"/>
				<path class="st16" d="M3.7,25.8l2.4,59c0,2.3,1.6,4.2,3.7,4.2h3.9V97c0,1.5,1.9,2.8,4.2,2.8H32V26.4
					C20.7,25.7,9.8,25.7,3.7,25.8z"/>
				<path class="st18" d="M60.1,30.5l0.3-6.5H32v2.5C41.9,27.1,52.1,28.3,60.1,30.5z"/>
				<path class="st17" d="M32,26.4v73.3h14.2c2.3,0,4.2-1.2,4.2-2.8v-7.9h3.9c2,0,3.6-1.9,3.6-4.2l2.1-54.4
					C52.1,28.3,41.9,27.1,32,26.4z"/>
			</g>
			<path id="XMLID_15_" class="st19" d="M23.3,54.1c-0.9,0-1.7-0.2-2.4-0.6c-0.7-0.4-1.1-0.8-1.3-1.3c-0.1-0.2-0.2-0.4-0.2-0.6
				c0-0.2-0.1-0.4-0.1-0.7c0-0.4,0-0.8,0.2-1.2c0.1-0.4,0.2-0.7,0.4-0.9c0.2-0.3,0.3-0.5,0.4-0.6c0.1-0.1,0.2-0.2,0.3-0.3l-1.9-1.1
				l6.2-0.2l2.9,5.4l-1.8-1c-0.1,0.1-0.1,0.1-0.3,0.3c-0.1,0.1-0.2,0.3-0.4,0.4c-0.1,0.2-0.3,0.3-0.4,0.5c-0.1,0.2-0.2,0.3-0.3,0.4
				c-0.1,0.2-0.2,0.4-0.2,0.6c0,0.3,0.1,0.5,0.3,0.7c0.2,0.1,0.4,0.2,0.5,0.3L23.3,54.1z M41.3,54.9c0.6,0,1.2-0.2,1.7-0.4
				c0.5-0.2,0.9-0.5,1.3-0.8c0.4-0.3,0.6-0.6,0.8-0.8c0.2-0.2,0.3-0.4,0.4-0.5c-0.1,0.4-0.3,0.7-0.4,1.1c-0.2,0.3-0.4,0.7-0.7,1.2
				c-0.2,0.3-0.3,0.5-0.4,0.7c-0.1,0.3-0.3,0.6-0.4,0.9c-0.4,0.8-0.7,1.5-0.9,2c-0.2,0.5-0.5,0.9-0.8,1.4c-0.3,0.4-0.6,0.8-0.9,1.1
				c-0.3,0.3-0.6,0.4-1,0.4c-0.2,0-1.3,0-3.2,0l0,2.2L33.3,58l3.3-5.2l0,2.1C39.6,54.9,41.2,54.9,41.3,54.9z M29.1,36.7
				c0.6,0,1.8,0,3.5,0c1.7,0,3,0,3.8,0.1c0.8,0.1,1.3,0.3,1.5,0.7c0,0.1,0.1,0.2,0.3,0.5c0.2,0.3,0.3,0.6,0.5,0.9
				c0.2,0.3,0.4,0.6,0.5,0.8c0.1,0.2,0.2,0.4,0.3,0.5l1.9-1.1l-2.6,5.8l-6.4-0.5l1.8-1.1l-2.3-3.8c-0.3-0.6-0.7-1.1-1.2-1.5
				c-0.4-0.4-0.9-0.6-1.3-0.8c-0.4-0.2-0.8-0.3-1.1-0.3c-0.3,0-0.5-0.1-0.7-0.1C28,36.8,28.5,36.7,29.1,36.7z M20.8,54.1
				c-0.7-0.3-1.1-0.7-1.4-1.2c0.1,0.1,0.2,0.3,0.3,0.6c0.2,0.3,0.4,0.6,0.6,1.1c0.3,0.5,0.5,0.9,0.8,1.5c0.3,0.5,0.5,0.9,0.6,1.1
				c0.1,0.1,0.1,0.2,0.1,0.3c0.2,0.5,0.4,0.9,0.6,1.2c0.2,0.4,0.4,0.7,0.7,1.1c0.2,0.4,0.5,0.7,0.8,1c0.3,0.2,0.5,0.4,0.7,0.4l7-0.1
				l-0.1-6.7c-4.1,0-6.9,0.1-8.5,0.1C22.3,54.5,21.5,54.4,20.8,54.1z M40.6,53.8c-0.3-0.5-1-1.5-2-3.1c-1-1.6-1.6-2.5-1.8-2.8
				l5.5-3.3c0.1,0.1,0.2,0.3,0.4,0.7c0.2,0.4,0.4,0.8,0.7,1.4c0.6,1.1,1,1.9,1.3,2.5c0.3,0.5,0.5,0.9,0.6,1.1
				c0.1,0.2,0.1,0.4,0.1,0.6c0,0.3-0.1,0.7-0.2,1.1c-0.1,0.1-0.2,0.3-0.4,0.5c-0.2,0.2-0.4,0.5-0.8,0.8c-0.3,0.3-0.8,0.6-1.3,0.9
				c-0.5,0.3-1.1,0.4-1.6,0.4C41,54.6,40.9,54.3,40.6,53.8z M27.8,46.6l-5.4-3c0.1-0.1,0.3-0.5,0.7-1.2c0.1-0.1,0.3-0.5,0.7-1.1
				c0.4-0.6,0.7-1.1,1-1.6c0.3-0.5,0.5-0.8,0.7-1.1c0.2-0.3,0.3-0.5,0.4-0.6c0.1-0.2,0.3-0.4,0.5-0.5c0.2-0.1,0.6-0.2,1-0.3
				c0.2,0,0.4,0,0.7,0.1c0.3,0,0.7,0.1,1.1,0.3c0.4,0.2,0.9,0.4,1.3,0.8c0.4,0.4,0.8,0.8,1.1,1.4l0.1,0.1c0.1,0.1,0.2,0.3,0.2,0.4
				L27.8,46.6z"/>
		</g>
	</g>
	<text transform="matrix(1 0 0 1 11.8249 77.8254)" class="st20 st21 st22">Batteries</text>
</g>
</svg>
