<?xml version="1.0" encoding="UTF-8"?>
<svg width="62px" height="85px" viewBox="0 0 62 85" version="1.1" xmlns="http://www.w3.org/2000/svg" xmlns:xlink="http://www.w3.org/1999/xlink">
    <!-- Generator: Sketch 50.2 (55047) - http://www.bohemiancoding.com/sketch -->
    <title>glass2</title>
    <desc>Created with Sketch.</desc>
    <defs></defs>
    <g id="Page-1" stroke="none" stroke-width="1" fill="none" fill-rule="evenodd">
        <g id="glass2">
            <g id="Group">
                <g>
                    <path d="M13.5,77.7 L11.7,77.7 L11.7,73.1 C11.7,72.4 11.1,71.9 10.5,71.9 L8.8,71.9 C8.1,71.9 7.6,72.4 7.6,73.1 L7.6,83.1 C7.6,83.8 8.2,84.4 8.8,84.4 L10.5,84.4 C11.2,84.4 11.7,83.8 11.7,83.1 L11.7,78.7 L13.5,78.7 C13.8,78.7 14,78.4 14,78.1 C14,77.9 13.8,77.7 13.5,77.7 Z" id="Shape" fill="#000000" fill-rule="nonzero"></path>
                    <path d="M48.3,77.7 L50.1,77.7 L50.1,73.1 C50.1,72.4 50.7,71.9 51.3,71.9 L53,71.9 C53.7,71.9 54.2,72.4 54.2,73.1 L54.2,83.1 C54.2,83.8 53.6,84.4 53,84.4 L51.3,84.4 C50.6,84.4 50.1,83.8 50.1,83.1 L50.1,78.7 L48.3,78.7 C48,78.7 47.7,78.4 47.7,78.1 C47.7,77.9 48,77.7 48.3,77.7 Z" id="Shape" fill="#000000" fill-rule="nonzero"></path>
                    <g fill-rule="nonzero" id="Shape">
                        <path d="M30.9,0.5 L1.5,0.5 C0.8,0.5 0.3,1.1 0.3,1.8 L0.3,6 C0.3,6.7 0.8,7.2 1.5,7.2 L2.6,7.2 L30.9,7.2 L30.9,0.5 Z" fill="#2E6B11"></path>
                        <path d="M61.5,5.9 L61.5,1.7 C61.5,1 61,0.4 60.4,0.4 L30.9,0.4 L30.9,7 L59.3,7 L60.4,7 C61,7.1 61.5,6.6 61.5,5.9 Z" fill="#2A5B10"></path>
                    </g>
                    <g transform="translate(2.000000, 7.000000)" fill-rule="nonzero" id="Shape">
                        <path d="M28.9,2.6 L28.9,0.1 L0.6,0.1 L0.6,2 C6.7,1.9 17.6,1.8 28.9,2.6 Z" fill="#2A5B10"></path>
                        <path d="M0.6,1.9 L3,60.9 C3,63.2 4.6,65.1 6.7,65.1 L10.6,65.1 L10.6,73 C10.6,74.5 12.5,75.8 14.8,75.8 L28.9,75.8 L28.9,2.5 C17.6,1.8 6.7,1.8 0.6,1.9 Z" fill="#2E6B11"></path>
                        <path d="M57,6.6 L57.3,0.1 L28.9,0.1 L28.9,2.6 C38.8,3.2 49,4.4 57,6.6 Z" fill="#264F0E"></path>
                        <path d="M28.9,2.5 L28.9,75.8 L43,75.8 C45.3,75.8 47.2,74.6 47.2,73 L47.2,65.1 L51.1,65.1 C53.1,65.1 54.7,63.2 54.7,60.9 L57,6.5 C49,4.3 38.8,3.1 28.9,2.5 Z" fill="#2A5B10"></path>
                    </g>
                    <path d="M22.2,37.1 C21.3,37.1 20.5,36.9 19.8,36.5 C19.1,36.1 18.7,35.7 18.5,35.2 C18.4,35 18.3,34.8 18.3,34.6 C18.3,34.4 18.2,34.2 18.2,33.9 C18.2,33.5 18.2,33.1 18.4,32.7 C18.5,32.3 18.6,32 18.8,31.8 C19,31.5 19.1,31.3 19.2,31.2 C19.3,31.1 19.4,31 19.5,30.9 L17.6,29.8 L23.8,29.6 L26.7,35 L24.9,34 C24.8,34.1 24.8,34.1 24.6,34.3 C24.5,34.4 24.4,34.6 24.2,34.7 C24.1,34.9 23.9,35 23.8,35.2 C23.7,35.4 23.6,35.5 23.5,35.6 C23.4,35.8 23.3,36 23.3,36.2 C23.3,36.5 23.4,36.7 23.6,36.9 C23.8,37 24,37.1 24.1,37.2 L22.2,37.1 Z M40.1,37.9 C40.7,37.9 41.3,37.7 41.8,37.5 C42.3,37.3 42.7,37 43.1,36.7 C43.5,36.4 43.7,36.1 43.9,35.9 C44.1,35.7 44.2,35.5 44.3,35.4 C44.2,35.8 44,36.1 43.9,36.5 C43.7,36.8 43.5,37.2 43.2,37.7 C43,38 42.9,38.2 42.8,38.4 C42.7,38.7 42.5,39 42.4,39.3 C42,40.1 41.7,40.8 41.5,41.3 C41.3,41.8 41,42.2 40.7,42.7 C40.4,43.1 40.1,43.5 39.8,43.8 C39.5,44.1 39.2,44.2 38.8,44.2 C38.6,44.2 37.5,44.2 35.6,44.2 L35.6,46.4 L32.3,41.1 L35.6,35.9 L35.6,38 C38.5,37.9 40.1,37.9 40.1,37.9 Z M28,19.8 C28.6,19.8 29.8,19.8 31.5,19.8 C33.2,19.8 34.5,19.8 35.3,19.9 C36.1,20 36.6,20.2 36.8,20.6 C36.8,20.7 36.9,20.8 37.1,21.1 C37.3,21.4 37.4,21.7 37.6,22 C37.8,22.3 38,22.6 38.1,22.8 C38.2,23 38.3,23.2 38.4,23.3 L40.3,22.2 L37.7,28 L31.3,27.5 L33.1,26.4 L30.8,22.6 C30.5,22 30.1,21.5 29.6,21.1 C29.2,20.7 28.7,20.5 28.3,20.3 C27.9,20.1 27.5,20 27.2,20 C26.9,20 26.7,19.9 26.5,19.9 C26.9,19.8 27.4,19.8 28,19.8 Z M19.7,37.1 C19,36.8 18.6,36.4 18.3,35.9 C18.4,36 18.5,36.2 18.6,36.5 C18.8,36.8 19,37.1 19.2,37.6 C19.5,38.1 19.7,38.5 20,39.1 C20.3,39.6 20.5,40 20.6,40.2 C20.7,40.3 20.7,40.4 20.7,40.5 C20.9,41 21.1,41.4 21.3,41.7 C21.5,42.1 21.7,42.4 22,42.8 C22.2,43.2 22.5,43.5 22.8,43.8 C23.1,44 23.3,44.2 23.5,44.2 L30.5,44.1 L30.4,37.4 C26.3,37.4 23.5,37.5 21.9,37.5 C21.1,37.5 20.4,37.4 19.7,37.1 Z M39.4,36.9 C39.1,36.4 38.4,35.4 37.4,33.8 C36.4,32.2 35.8,31.3 35.6,31 L41.1,27.7 C41.2,27.8 41.3,28 41.5,28.4 C41.7,28.8 41.9,29.2 42.2,29.8 C42.8,30.9 43.2,31.7 43.5,32.3 C43.8,32.8 44,33.2 44.1,33.4 C44.2,33.6 44.2,33.8 44.2,34 C44.2,34.3 44.1,34.7 44,35.1 C43.9,35.2 43.8,35.4 43.6,35.6 C43.4,35.8 43.2,36.1 42.8,36.4 C42.5,36.7 42,37 41.5,37.3 C41,37.6 40.4,37.7 39.9,37.7 C39.9,37.6 39.8,37.4 39.4,36.9 Z M26.6,29.6 L21.2,26.6 C21.3,26.5 21.5,26.1 21.9,25.4 C22,25.3 22.2,24.9 22.6,24.3 C23,23.7 23.3,23.2 23.6,22.7 C23.9,22.2 24.1,21.9 24.3,21.6 C24.5,21.3 24.6,21.1 24.7,21 C24.8,20.8 25,20.6 25.2,20.5 C25.4,20.4 25.8,20.3 26.2,20.2 C26.4,20.2 26.6,20.2 26.9,20.3 C27.2,20.3 27.6,20.4 28,20.6 C28.4,20.8 28.9,21 29.3,21.4 C29.7,21.8 30.1,22.2 30.4,22.8 L30.5,22.9 C30.6,23 30.7,23.2 30.7,23.3 L26.6,29.6 Z" id="XMLID_125_" fill="#F4F4F4"></path>
                </g>
                <text id="GLASS" fill="#FFFFFF" font-family="Helvetica" font-size="7.2167" font-weight="normal">
                    <tspan x="18.4824" y="60.8393">GLASS</tspan>
                </text>
            </g>
        </g>
    </g>
</svg>