<?xml version="1.0" encoding="utf-8"?>
<!-- Generator: Adobe Illustrator 22.1.0, SVG Export Plug-In . SVG Version: 6.00 Build 0)  -->
<svg version="1.1" id="Layer_1" xmlns="http://www.w3.org/2000/svg" xmlns:xlink="http://www.w3.org/1999/xlink" x="0px" y="0px"
	 viewBox="0 0 63.7 107.5" style="enable-background:new 0 0 63.7 107.5;" xml:space="preserve">
<style type="text/css">
	.st0{fill:#B4CBD1;}
	.st1{fill:#1BA7A5;}
	.st2{fill:#D6EEF2;}
	.st3{fill:#BFD5DD;}
	.st4{fill:#E5E3E3;}
	.st5{fill:#2E6B11;}
	.st6{fill:#2A5B10;}
	.st7{fill:#264F0E;}
	.st8{fill-rule:evenodd;clip-rule:evenodd;fill:#F4F4F4;}
	.st9{fill:#FFFFFF;}
	.st10{font-family:'Arial-BoldMT';}
	.st11{font-size:7.2167px;}
</style>
<g>
	<g>
		<g>
			<rect x="19" y="5.8" transform="matrix(0.1663 -0.9861 0.9861 0.1663 6.6282 28.2317)" class="st0" width="1.9" height="8.7"/>
			<path class="st1" d="M24.1,10.2l-0.2,1.3l-8-1.4l0.2-1.3L24.1,10.2 M24.5,10l-8.6-1.4l-0.3,1.9l8.6,1.4L24.5,10L24.5,10z"/>
		</g>
		<g>
			<path class="st0" d="M25.1,9.4c-0.1,0.4-0.4,0.7-0.8,0.6l-8.4-1.4c-0.4-0.1-0.6-0.4-0.5-0.8L25.1,9.4z"/>
			<path class="st1" d="M24.3,10.2l-8.4-1.4c-0.4-0.1-0.7-0.5-0.6-1l0-0.1l9.9,1.7l0,0.1C25.1,9.9,24.7,10.3,24.3,10.2z M15.5,8
				c0,0.2,0.2,0.5,0.4,0.5l8.4,1.4c0.2,0,0.5-0.1,0.6-0.3L15.5,8z"/>
		</g>
		<path class="st0" d="M23.8,23.4c-0.2,1.4-1.5,2.7-2.8,2.4l-7.1-1.2c-1.3-0.2-2.1-1.8-1.9-3.2l1.6-8.7c0.2-1.4,1.5-2.4,2.8-2.2
			l6.9,1.2c1.3,0.2,2.1,1.5,1.9,2.9L23.8,23.4z"/>
		<path class="st1" d="M19.9,10.6C19.9,10.6,19.9,10.6,19.9,10.6l-4.5-1.4c-0.1,0-0.1-0.1-0.1-0.2c0-0.1,0.1-0.1,0.2-0.1l4.5,1.4
			c0.1,0,0.1,0.1,0.1,0.2C20.1,10.6,20,10.6,19.9,10.6z"/>
		<ellipse transform="matrix(0.3512 -0.9363 0.9363 0.3512 -2.6379 24.2236)" class="st2" cx="16.2" cy="14" rx="2.8" ry="1.4"/>
		<path class="st2" d="M15.2,20.5c-0.1,0.5-0.5,0.9-0.9,0.9l0,0c-0.4-0.1-0.6-0.6-0.5-1.1l0.3-1.5c0.1-0.5,0.5-0.9,0.9-0.9l0,0
			c0.4,0.1,0.6,0.6,0.5,1.1L15.2,20.5z"/>
		<path class="st1" d="M24.5,11.4C24.5,11.4,24.5,11.4,24.5,11.4L20,10c-0.1,0-0.1-0.1-0.1-0.2c0-0.1,0.1-0.1,0.2-0.1l4.5,1.4
			c0.1,0,0.1,0.1,0.1,0.2C24.6,11.3,24.6,11.4,24.5,11.4z"/>
		<path class="st1" d="M24.1,23.5l1.4-8.8c0.1-0.4,0.1-0.8,0-1.1c-0.1-0.4-0.2-0.7-0.4-1c-0.2-0.3-0.4-0.6-0.7-0.7
			c-0.3-0.2-0.6-0.3-1-0.4l-6.9-1.2c-0.3-0.1-0.7,0-1,0.1c-0.3,0.1-0.6,0.2-0.9,0.5c-0.3,0.2-0.5,0.5-0.7,0.8
			c-0.2,0.3-0.3,0.7-0.4,1.1l-1.6,8.7l0,0l0,0c-0.1,0.8,0,1.6,0.4,2.3c0.2,0.3,0.4,0.6,0.7,0.8c0.3,0.2,0.6,0.4,1,0.4l7.1,1.2
			c0.4,0.1,0.7,0,1.1-0.1c0.3-0.1,0.6-0.3,0.9-0.6C23.5,25,23.9,24.2,24.1,23.5L24.1,23.5L24.1,23.5z M13.6,12.7
			c0.2-1.4,1.5-2.4,2.8-2.2l6.9,1.2c1.3,0.2,2.1,1.5,1.9,2.9l-1.3,8.2c0,0-0.1,0.2-0.2,0.4l-0.1,0c0,0,0,0,0,0l0.1,0
			c-0.2,0.3-0.4,0.8-0.6,1.1c-0.5,0.7-1.2,1.1-2,1.1l-3.6-0.6L14,24.2c-0.8-0.3-1.3-0.8-1.5-1.7c-0.1-0.4-0.2-0.9-0.2-1.2l0.1,0
			c0,0,0,0,0,0l-0.1,0c0-0.2,0-0.4,0-0.4L13.6,12.7z M23.3,24.7C23.3,24.7,23.3,24.7,23.3,24.7C23.3,24.7,23.3,24.7,23.3,24.7z
			 M12.2,23c0-0.1-0.1-0.2-0.1-0.3C12.1,22.8,12.2,22.9,12.2,23z"/>
	</g>
	<g>
		<g>
			<rect x="35.6" y="8.2" transform="matrix(0.9898 -0.1427 0.1427 0.9898 -0.8997 5.7938)" class="st0" width="8.7" height="1.9"/>
			<path class="st1" d="M43.9,7.9l0.2,1.3L36,10.4l-0.2-1.3L43.9,7.9 M44.1,7.6l-8.6,1.2l0.3,1.9l8.6-1.2L44.1,7.6L44.1,7.6z"/>
		</g>
		<g>
			<path class="st0" d="M44.5,6.9c0.1,0.4-0.2,0.8-0.5,0.8l-8.4,1.2c-0.4,0.1-0.7-0.2-0.7-0.6L44.5,6.9z"/>
			<path class="st1" d="M44,7.9l-8.4,1.2c-0.4,0.1-0.8-0.3-0.9-0.8l0-0.1l9.9-1.4l0,0.1C44.7,7.4,44.4,7.8,44,7.9z M35,8.4
				c0.1,0.2,0.3,0.4,0.5,0.3L44,7.6c0.2,0,0.4-0.2,0.4-0.5L35,8.4z"/>
		</g>
		<path class="st0" d="M47.6,20.6c0.2,1.4-0.6,3-1.9,3.2l-7.1,1c-1.3,0.2-2.5-1.1-2.7-2.5l-1.2-8.8c-0.2-1.4,0.7-2.7,2-2.9l6.9-1
			c1.3-0.2,2.5,0.8,2.7,2.2L47.6,20.6z"/>
		<path class="st1" d="M40,9.6C40,9.6,40,9.6,40,9.6l-4.7,0c-0.1,0-0.1-0.1-0.1-0.1c0-0.1,0.1-0.2,0.1-0.2l4.7,0
			c0.1,0,0.1,0.1,0.1,0.1C40.1,9.5,40.1,9.6,40,9.6z"/>
		
			<ellipse transform="matrix(4.865989e-02 -0.9988 0.9988 4.865989e-02 21.6655 50.7113)" class="st2" cx="37.5" cy="14" rx="2.8" ry="1.4"/>
		<path class="st2" d="M38.5,20.4c0.1,0.5-0.2,1-0.6,1.1l0,0c-0.4,0.1-0.8-0.3-0.9-0.9l-0.2-1.5c-0.1-0.5,0.2-1,0.6-1.1l0,0
			c0.4-0.1,0.8,0.3,0.9,0.9L38.5,20.4z"/>
		<path class="st1" d="M44.6,8.9C44.6,8.9,44.6,8.9,44.6,8.9l-4.7,0c-0.1,0-0.1-0.1-0.1-0.1c0-0.1,0.1-0.2,0.1-0.2l4.7,0
			c0.1,0,0.1,0.1,0.1,0.1C44.7,8.8,44.6,8.9,44.6,8.9z"/>
		<path class="st1" d="M47.9,20.6l-1.4-8.8c-0.1-0.4-0.2-0.8-0.4-1.1c-0.2-0.3-0.4-0.6-0.7-0.8c-0.3-0.2-0.6-0.4-0.9-0.5
			c-0.3-0.1-0.7-0.1-1-0.1l-6.9,1c-0.4,0.1-0.7,0.2-1,0.4c-0.3,0.2-0.5,0.4-0.7,0.7c-0.2,0.3-0.3,0.6-0.4,1c-0.1,0.4-0.1,0.8,0,1.1
			l1.2,8.8l0,0l0,0c0.1,0.8,0.5,1.5,1.1,2c0.3,0.3,0.6,0.5,0.9,0.6c0.4,0.1,0.7,0.2,1.1,0.1l7.1-1c0.4-0.1,0.7-0.2,1-0.4
			c0.3-0.2,0.5-0.5,0.7-0.8C47.8,22.2,48,21.3,47.9,20.6L47.9,20.6L47.9,20.6z M34.7,13.5c-0.2-1.4,0.7-2.7,2-2.9l6.9-1
			c1.3-0.2,2.5,0.8,2.7,2.2l1.3,8.2c0,0,0,0.2-0.1,0.4l-0.1,0c0,0,0,0,0,0l0.1,0c-0.1,0.3-0.1,0.9-0.3,1.2c-0.2,0.8-0.8,1.4-1.6,1.6
			L42,23.8l-3.6,0.5c-0.8,0-1.5-0.4-2-1.1c-0.2-0.3-0.4-0.8-0.6-1.1l0.1,0c0,0,0,0,0,0l-0.1,0c-0.1-0.2-0.2-0.4-0.2-0.4L34.7,13.5z
			 M47.5,21.9C47.5,22,47.5,22,47.5,21.9C47.5,22,47.5,22,47.5,21.9z M36.4,23.7c-0.1-0.1-0.1-0.2-0.2-0.2
			C36.3,23.6,36.3,23.6,36.4,23.7z"/>
	</g>
	<g>
		<g>
			<path class="st3" d="M55.8,17.6l5.7-2.8c0.3,0.5,0.6,0.3,1.2,0l0.2-0.1c0.9-0.4,0.9-0.8,0.5-1.6l-0.3-0.7l0,0l-0.3-0.7
				c-0.4-0.9-0.8-1.2-1.7-0.7l-0.5,0.2c-0.6,0.3-0.6,0.3-0.4,0.9l-5.7,2.8c-1.3-1.3-3.3-1.6-5.1-0.8l-12.5,6
				c-2.3,1.1-0.8,2.7,0.2,4.9l0,0c1.1,2.3,1.4,4.3,3.7,3.2l12.5-6C55,21.2,56,19.4,55.8,17.6z"/>
			<path class="st1" d="M61.8,10.7c0.4,0,0.7,0.3,1,0.9l0.3,0.7l0,0l0.3,0.7c0.4,0.9,0.4,1.2-0.5,1.6l-0.2,0.1
				c-0.4,0.2-0.6,0.3-0.8,0.3c-0.1,0-0.3-0.1-0.4-0.3l-5.7,2.8c0.2,1.8-0.8,3.6-2.6,4.5l-12.5,6c-0.4,0.2-0.8,0.3-1.1,0.3
				c-1.3,0-1.7-1.7-2.6-3.5l0,0c-1.1-2.3-2.5-3.8-0.2-4.9l12.5-6c0.6-0.3,1.3-0.5,2-0.5c1.2,0,2.3,0.4,3.1,1.3l5.7-2.8
				c-0.2-0.6-0.2-0.6,0.4-0.9l0.5-0.2C61.3,10.7,61.6,10.7,61.8,10.7 M61.8,10.4L61.8,10.4c-0.2,0-0.5,0.1-0.8,0.2l-0.5,0.2l0,0l0,0
				c-0.3,0.2-0.5,0.3-0.6,0.5c-0.1,0.2-0.1,0.3,0,0.6l-5.3,2.6c-0.4-0.4-0.9-0.6-1.4-0.9c-0.6-0.2-1.2-0.3-1.8-0.3
				c-0.7,0-1.4,0.2-2.1,0.5l-12.5,6c-0.7,0.3-1.1,0.7-1.3,1.2c-0.3,0.9,0.2,1.8,0.8,3c0.2,0.3,0.4,0.7,0.5,1.1l0,0l0,0l0,0
				c0.2,0.4,0.3,0.7,0.5,1.1c0.3,0.7,0.6,1.3,0.9,1.8c0.4,0.6,0.9,0.8,1.5,0.8c0.4,0,0.8-0.1,1.2-0.3l12.5-6c0.9-0.4,1.6-1.1,2.1-2
				c0.2-0.4,0.4-0.9,0.5-1.3c0.1-0.4,0.1-0.8,0.1-1.2l5.3-2.6c0.1,0.1,0.3,0.2,0.5,0.2c0.2,0,0.5-0.1,0.7-0.3c0.1,0,0.1-0.1,0.2-0.1
				l0,0l0,0l0.2-0.1c0.4-0.2,0.8-0.4,0.9-0.8c0.1-0.3,0-0.7-0.3-1.2l-0.3-0.7l0,0l0,0L63,11.5c-0.2-0.4-0.3-0.6-0.5-0.8
				C62.3,10.5,62,10.4,61.8,10.4L61.8,10.4L61.8,10.4z"/>
		</g>
		
			<rect x="55.3" y="15.3" transform="matrix(0.9031 -0.4295 0.4295 0.9031 -1.0261 26.6034)" class="st4" width="6.3" height="0.5"/>
		<path class="st4" d="M40.4,26.4l12.4-5.9l0,0c0,0,1.2-0.5,1.6-1.3c0.4-0.7,0.4-1.9,0.4-1.9l0.4,0.4c0,0,0.1,0.9-0.4,1.8
			c-0.5,0.9-1.7,1.4-1.8,1.5l-12.4,5.9L40.4,26.4z"/>
	</g>
	<g>
		<g>
			<path class="st3" d="M6.9,10.3L4.4,4.5c0.5-0.3,0.3-0.6,0-1.2L4.4,3.1C4,2.1,3.7,2.1,2.8,2.5L2,2.8l0,0L1.3,3.1
				C0.4,3.5,0.1,3.8,0.4,4.7l0.2,0.5c0.3,0.7,0.3,0.6,0.9,0.5l2.4,5.9c-1.3,1.2-1.8,3.2-1.1,5l5.3,12.8c1,2.3,2.6,1,4.9,0l0,0
				c2.3-1,4.4-1.2,3.4-3.5l-5.3-12.8C10.5,11.3,8.7,10.3,6.9,10.3z"/>
			<path class="st1" d="M3.6,2.3c0.4,0,0.6,0.2,0.8,0.8l0.1,0.2c0.3,0.7,0.5,0.9,0,1.2l2.4,5.9c0.1,0,0.1,0,0.2,0
				c1.8,0,3.4,1.1,4.2,2.8l5.3,12.8c1,2.3-1.1,2.5-3.4,3.5l0,0c-1.4,0.6-2.5,1.3-3.4,1.3c-0.6,0-1.1-0.3-1.5-1.3L2.9,16.6
				c-0.7-1.8-0.3-3.8,1.1-5L1.5,5.7C1.3,5.7,1.2,5.8,1.1,5.8c-0.2,0-0.3-0.1-0.4-0.5L0.4,4.7C0.1,3.8,0.4,3.5,1.3,3.1L2,2.8l0,0
				l0.7-0.3C3.1,2.3,3.4,2.3,3.6,2.3 M3.6,2L3.6,2C3.3,2,3.1,2,2.6,2.2L1.9,2.5l0,0l0,0L1.2,2.8C0.7,3,0.3,3.2,0.1,3.6
				C-0.1,4,0,4.5,0.2,4.8l0.2,0.5l0,0l0,0c0.2,0.4,0.3,0.7,0.7,0.7c0.1,0,0.2,0,0.3,0l2.3,5.5c-0.3,0.3-0.5,0.6-0.7,1
				c-0.2,0.4-0.4,0.9-0.5,1.3c-0.2,1-0.1,2,0.3,2.9l5.3,12.8c0.2,0.5,0.5,0.9,0.8,1.1C9,30.8,9.3,31,9.7,31c0.7,0,1.5-0.4,2.4-0.8
				c0.3-0.2,0.7-0.3,1.1-0.5l0,0c0.4-0.2,0.8-0.3,1.1-0.4c0.6-0.2,1.1-0.4,1.6-0.7c0.5-0.3,0.9-0.6,1-1c0.2-0.5,0.2-1.1-0.1-1.8
				L11.5,13c-0.4-0.9-1-1.7-1.8-2.2C8.9,10.3,8,10,7.1,10L4.8,4.6C4.9,4.5,5,4.3,5,4.1c0-0.2-0.1-0.4-0.2-0.7c0-0.1-0.1-0.1-0.1-0.2
				l0,0l0,0L4.6,2.9C4.4,2.4,4.1,2,3.6,2L3.6,2L3.6,2z"/>
		</g>
		<rect x="4.8" y="4.5" transform="matrix(0.9251 -0.3797 0.3797 0.9251 -2.521 2.473)" class="st4" width="0.5" height="6.3"/>
		<path class="st4" d="M14.8,26.2L9.6,13.5l0,0c0,0-0.5-1.2-1.2-1.7c-0.7-0.5-1.9-0.5-1.9-0.5l0.4-0.4c0,0,0.9-0.1,1.8,0.5
			c0.8,0.6,1.3,1.8,1.4,1.9L15.2,26L14.8,26.2z"/>
	</g>
	<g>
		<g>
			<path class="st3" d="M34.6,9.6L37,3.7c0.6,0.1,0.6-0.2,0.9-0.9L38,2.7c0.4-0.9,0.2-1.2-0.7-1.5l-0.7-0.3l0,0l-0.7-0.3
				c-0.9-0.4-1.4-0.3-1.7,0.6l-0.2,0.5c-0.3,0.7-0.2,0.6,0.3,0.9l-2.4,5.9c-1.8-0.1-3.6,1-4.3,2.8L22,23.9c-1,2.3,1.1,2.5,3.4,3.5
				l0,0c2.3,1,3.9,2.3,4.9,0l5.3-12.8C36.4,12.8,35.9,10.8,34.6,9.6z"/>
			<path class="st1" d="M34.9,0.3c0.2,0,0.5,0.1,0.9,0.2l0.7,0.3l0,0l0.7,0.3c0.9,0.4,1.1,0.6,0.7,1.5l-0.1,0.2
				c-0.2,0.6-0.3,0.9-0.7,0.9c-0.1,0-0.1,0-0.2,0l-2.4,5.9c1.3,1.2,1.8,3.2,1.1,5l-5.3,12.8c-0.4,1-0.9,1.3-1.5,1.3
				c-0.9,0-2-0.7-3.4-1.2l0,0c-2.3-1-4.4-1.2-3.4-3.5l5.3-12.8c0.7-1.7,2.4-2.8,4.2-2.8c0.1,0,0.1,0,0.2,0l2.4-5.9
				c-0.5-0.3-0.6-0.3-0.3-0.9l0.2-0.5C34.3,0.5,34.6,0.3,34.9,0.3 M34.9,0L34.9,0c-0.3,0-0.5,0.1-0.7,0.3c-0.2,0.2-0.3,0.4-0.5,0.7
				l-0.2,0.5l0,0l0,0c-0.1,0.3-0.2,0.6-0.2,0.8c0,0.2,0.2,0.3,0.4,0.4l-2.3,5.5c-0.9,0-1.8,0.3-2.6,0.8c-0.8,0.5-1.4,1.3-1.8,2.2
				l-5.3,12.8c-0.3,0.7-0.3,1.3-0.1,1.8c0.4,0.8,1.4,1.2,2.6,1.7c0.4,0.1,0.7,0.3,1.1,0.4l0,0c0.4,0.2,0.7,0.3,1.1,0.5
				c0.9,0.4,1.7,0.8,2.4,0.8c0.4,0,0.7-0.1,1-0.4c0.3-0.2,0.6-0.6,0.8-1.1L36,14.7c0.4-0.9,0.5-1.9,0.3-2.9
				c-0.1-0.5-0.3-0.9-0.5-1.3c-0.2-0.4-0.5-0.7-0.7-1L37.2,4c0,0,0,0,0,0c0.2,0,0.4-0.1,0.6-0.3C38,3.6,38,3.4,38.1,3.2
				c0-0.1,0.1-0.1,0.1-0.2l0,0l0,0l0.1-0.2c0.2-0.4,0.3-0.8,0.1-1.2c-0.2-0.3-0.5-0.5-1-0.7l-0.7-0.3l-0.7-0.3
				C35.5,0.1,35.2,0,34.9,0L34.9,0z"/>
		</g>
		<rect x="32.1" y="6.1" transform="matrix(0.3878 -0.9217 0.9217 0.3878 15.6989 36.3521)" class="st4" width="6.3" height="0.5"/>
		<path class="st4" d="M29,26.4l5.3-12.7l0,0c0,0,0.5-1.2,0.4-2c-0.2-0.8-1-1.7-1-1.7l0.6,0c0,0,0.7,0.6,0.9,1.6
			c0.2,1-0.4,2.2-0.4,2.3l-5.3,12.7L29,26.4z"/>
	</g>
</g>
<g>
	<g>
		<path d="M14.5,100.7h-1.8v-4.6c0-0.7-0.6-1.2-1.2-1.2H9.8c-0.7,0-1.2,0.5-1.2,1.2v10c0,0.7,0.6,1.3,1.2,1.3h1.7
			c0.7,0,1.2-0.6,1.2-1.3v-4.4h1.8c0.3,0,0.5-0.3,0.5-0.6v0C15,100.9,14.8,100.7,14.5,100.7z"/>
		<path d="M49.3,100.7h1.8v-4.6c0-0.7,0.6-1.2,1.2-1.2H54c0.7,0,1.2,0.5,1.2,1.2v10c0,0.7-0.6,1.3-1.2,1.3h-1.7
			c-0.7,0-1.2-0.6-1.2-1.3v-4.4h-1.8c-0.3,0-0.6-0.3-0.6-0.6v0C48.7,100.9,49,100.7,49.3,100.7z"/>
		<g>
			<path class="st5" d="M31.9,23.5H2.5c-0.7,0-1.2,0.6-1.2,1.3v4.2c0,0.7,0.5,1.2,1.2,1.2h1.1h28.3V23.5z"/>
			<path class="st6" d="M62.5,28.9v-4.2c0-0.7-0.5-1.3-1.1-1.3H31.9v6.6h28.4h1.1C62,30.1,62.5,29.6,62.5,28.9z"/>
		</g>
		<g>
			<path class="st6" d="M31.9,32.6v-2.5H3.6L3.6,32C9.7,31.9,20.6,31.8,31.9,32.6z"/>
			<path class="st5" d="M3.6,31.9l2.4,59c0,2.3,1.6,4.2,3.7,4.2h3.9v7.9c0,1.5,1.9,2.8,4.2,2.8h14.1V32.5
				C20.6,31.8,9.7,31.8,3.6,31.9z"/>
			<path class="st7" d="M60,36.6l0.3-6.5H31.9v2.5C41.8,33.2,52,34.4,60,36.6z"/>
			<path class="st6" d="M31.9,32.5v73.3H46c2.3,0,4.2-1.2,4.2-2.8v-7.9h3.9c2,0,3.6-1.9,3.6-4.2L60,36.5
				C52,34.3,41.8,33.1,31.9,32.5z"/>
		</g>
		<path id="XMLID_125_" class="st8" d="M23.2,60.1c-0.9,0-1.7-0.2-2.4-0.6c-0.7-0.4-1.1-0.8-1.3-1.3c-0.1-0.2-0.2-0.4-0.2-0.6
			c0-0.2-0.1-0.4-0.1-0.7c0-0.4,0-0.8,0.2-1.2c0.1-0.4,0.2-0.7,0.4-0.9c0.2-0.3,0.3-0.5,0.4-0.6c0.1-0.1,0.2-0.2,0.3-0.3l-1.9-1.1
			l6.2-0.2l2.9,5.4l-1.8-1c-0.1,0.1-0.1,0.1-0.3,0.3c-0.1,0.1-0.2,0.3-0.4,0.4c-0.1,0.2-0.3,0.3-0.4,0.5c-0.1,0.2-0.2,0.3-0.3,0.4
			c-0.1,0.2-0.2,0.4-0.2,0.6c0,0.3,0.1,0.5,0.3,0.7c0.2,0.1,0.4,0.2,0.5,0.3L23.2,60.1z M41.1,60.9c0.6,0,1.2-0.2,1.7-0.4
			c0.5-0.2,0.9-0.5,1.3-0.8c0.4-0.3,0.6-0.6,0.8-0.8c0.2-0.2,0.3-0.4,0.4-0.5c-0.1,0.4-0.3,0.7-0.4,1.1c-0.2,0.3-0.4,0.7-0.7,1.2
			c-0.2,0.3-0.3,0.5-0.4,0.7c-0.1,0.3-0.3,0.6-0.4,0.9c-0.4,0.8-0.7,1.5-0.9,2c-0.2,0.5-0.5,0.9-0.8,1.4c-0.3,0.4-0.6,0.8-0.9,1.1
			c-0.3,0.3-0.6,0.4-1,0.4c-0.2,0-1.3,0-3.2,0l0,2.2l-3.3-5.3l3.3-5.2l0,2.1C39.5,60.9,41.1,60.9,41.1,60.9z M29,42.8
			c0.6,0,1.8,0,3.5,0c1.7,0,3,0,3.8,0.1c0.8,0.1,1.3,0.3,1.5,0.7c0,0.1,0.1,0.2,0.3,0.5c0.2,0.3,0.3,0.6,0.5,0.9
			c0.2,0.3,0.4,0.6,0.5,0.8c0.1,0.2,0.2,0.4,0.3,0.5l1.9-1.1l-2.6,5.8l-6.4-0.5l1.8-1.1l-2.3-3.8c-0.3-0.6-0.7-1.1-1.2-1.5
			c-0.4-0.4-0.9-0.6-1.3-0.8c-0.4-0.2-0.8-0.3-1.1-0.3c-0.3,0-0.5-0.1-0.7-0.1C27.9,42.8,28.4,42.8,29,42.8z M20.7,60.1
			c-0.7-0.3-1.1-0.7-1.4-1.2c0.1,0.1,0.2,0.3,0.3,0.6c0.2,0.3,0.4,0.6,0.6,1.1c0.3,0.5,0.5,0.9,0.8,1.5c0.3,0.5,0.5,0.9,0.6,1.1
			c0.1,0.1,0.1,0.2,0.1,0.3c0.2,0.5,0.4,0.9,0.6,1.2c0.2,0.4,0.4,0.7,0.7,1.1c0.2,0.4,0.5,0.7,0.8,1c0.3,0.2,0.5,0.4,0.7,0.4l7-0.1
			l-0.1-6.7c-4.1,0-6.9,0.1-8.5,0.1C22.1,60.5,21.4,60.4,20.7,60.1z M40.4,59.9c-0.3-0.5-1-1.5-2-3.1c-1-1.6-1.6-2.5-1.8-2.8
			l5.5-3.3c0.1,0.1,0.2,0.3,0.4,0.7c0.2,0.4,0.4,0.8,0.7,1.4c0.6,1.1,1,1.9,1.3,2.5c0.3,0.5,0.5,0.9,0.6,1.1
			c0.1,0.2,0.1,0.4,0.1,0.6c0,0.3-0.1,0.7-0.2,1.1c-0.1,0.1-0.2,0.3-0.4,0.5c-0.2,0.2-0.4,0.5-0.8,0.8c-0.3,0.3-0.8,0.6-1.3,0.9
			c-0.5,0.3-1.1,0.4-1.6,0.4C40.9,60.6,40.8,60.4,40.4,59.9z M27.6,52.6l-5.4-3c0.1-0.1,0.3-0.5,0.7-1.2c0.1-0.1,0.3-0.5,0.7-1.1
			c0.4-0.6,0.7-1.1,1-1.6c0.3-0.5,0.5-0.8,0.7-1.1c0.2-0.3,0.3-0.5,0.4-0.6c0.1-0.2,0.3-0.4,0.5-0.5c0.2-0.1,0.6-0.2,1-0.3
			c0.2,0,0.4,0,0.7,0.1c0.3,0,0.7,0.1,1.1,0.3c0.4,0.2,0.9,0.4,1.3,0.8c0.4,0.4,0.8,0.8,1.1,1.4l0.1,0.1c0.1,0.1,0.2,0.3,0.2,0.4
			L27.6,52.6z"/>
	</g>
	<text transform="matrix(1 0 0 1 19.4824 83.8393)" class="st9 st10 st11">GLASS</text>
</g>
</svg>
