<?xml version="1.0" encoding="utf-8"?>
<!-- Generator: Adobe Illustrator 22.1.0, SVG Export Plug-In . SVG Version: 6.00 Build 0)  -->
<svg version="1.1" id="Layer_1" xmlns="http://www.w3.org/2000/svg" xmlns:xlink="http://www.w3.org/1999/xlink" x="0px" y="0px"
	 viewBox="0 0 61.3 111.1" style="enable-background:new 0 0 61.3 111.1;" xml:space="preserve">
<style type="text/css">
	.st0{fill:#9B943D;}
	.st1{fill:#557489;}
	.st2{fill:#877F36;}
	.st3{fill:#3C525E;}
	.st4{fill:#6786A0;}
	.st5{fill-rule:evenodd;clip-rule:evenodd;fill:#C4110C;}
	.st6{fill-rule:evenodd;clip-rule:evenodd;fill:#7183B5;}
	.st7{fill-rule:evenodd;clip-rule:evenodd;fill:#5C6F9B;}
	.st8{fill-rule:evenodd;clip-rule:evenodd;fill:#444343;}
	.st9{fill:#B7B3B3;}
	.st10{fill:#4F8DC6;}
	.st11{fill:#4385B5;}
	.st12{fill:#3C7AA0;}
	.st13{fill-rule:evenodd;clip-rule:evenodd;fill:#F4F4F4;}
	.st14{fill:#FFFFFF;}
	.st15{font-family:'Arial-BoldMT';}
	.st16{font-size:7.1934px;}
</style>
<g>
	<g>
		<path class="st0" d="M32.4,17.4l-14-5.3L13,26.3c0,0,0,0,0,0c0,0,0,0,0,0c-0.4,1,2.5,2.9,6.3,4.4c3.9,1.5,7.3,1.9,7.7,0.9
			c0,0,0,0,0,0l0,0L32.4,17.4z"/>
		<ellipse transform="matrix(0.3534 -0.9355 0.9355 0.3534 2.5266 33.3148)" class="st1" cx="25.4" cy="14.8" rx="1.9" ry="7.5"/>
		<path class="st2" d="M22.7,21.8c-1.9-0.7-3.6-1.6-4.8-2.4c-0.9-0.6-1.9-1.5-1.6-2.2c0-0.1,0.1-0.1,0.2-0.1c0.1,0,0.1,0.1,0.1,0.2
			c-0.1,0.4,0.4,1.1,1.5,1.9c1.2,0.8,2.9,1.7,4.7,2.4c1.9,0.7,3.7,1.2,5.1,1.4c1.3,0.2,2.2,0,2.4-0.4c0-0.1,0.1-0.1,0.2-0.1
			c0.1,0,0.1,0.1,0.1,0.2c-0.3,0.7-1.6,0.7-2.7,0.5C26.4,23,24.6,22.5,22.7,21.8z"/>
		<path class="st2" d="M22.3,22.9c-1.9-0.7-3.6-1.6-4.8-2.4c-0.9-0.6-1.9-1.5-1.6-2.2c0-0.1,0.1-0.1,0.2-0.1c0.1,0,0.1,0.1,0.1,0.2
			c-0.1,0.4,0.4,1.1,1.5,1.9c1.2,0.8,2.9,1.7,4.7,2.4s3.7,1.2,5.1,1.4c1.3,0.2,2.2,0,2.4-0.4c0-0.1,0.1-0.1,0.2-0.1
			c0.1,0,0.1,0.1,0.1,0.2c-0.3,0.7-1.6,0.7-2.7,0.5C26,24.1,24.2,23.6,22.3,22.9z"/>
		<path class="st2" d="M21.9,23.9c-1.9-0.7-3.6-1.6-4.8-2.4c-0.9-0.6-1.9-1.5-1.6-2.2c0-0.1,0.1-0.1,0.2-0.1c0.1,0,0.1,0.1,0.1,0.2
			c-0.1,0.4,0.4,1.1,1.5,1.9c1.2,0.8,2.9,1.7,4.7,2.4c1.9,0.7,3.7,1.2,5.1,1.4c1.3,0.2,2.2,0,2.4-0.4c0-0.1,0.1-0.1,0.2-0.1
			c0.1,0,0.1,0.1,0.1,0.2c-0.3,0.7-1.6,0.7-2.7,0.5C25.6,25.1,23.8,24.6,21.9,23.9z"/>
		<path class="st2" d="M21.5,25.1c-1.9-0.7-3.6-1.6-4.8-2.4c-0.9-0.6-1.9-1.5-1.6-2.2c0-0.1,0.1-0.1,0.2-0.1c0.1,0,0.1,0.1,0.1,0.2
			c-0.1,0.4,0.4,1.1,1.5,1.9c1.2,0.8,2.9,1.7,4.7,2.4c1.9,0.7,3.7,1.2,5.1,1.4c1.3,0.2,2.2,0,2.4-0.4c0-0.1,0.1-0.1,0.2-0.1
			c0.1,0,0.1,0.1,0.1,0.2c-0.3,0.7-1.6,0.7-2.7,0.5C25.2,26.3,23.4,25.8,21.5,25.1z"/>
		<path class="st2" d="M21.1,26.1c-1.9-0.7-3.6-1.6-4.8-2.4c-0.9-0.6-1.9-1.5-1.6-2.2c0-0.1,0.1-0.1,0.2-0.1c0.1,0,0.1,0.1,0.1,0.2
			c-0.1,0.4,0.4,1.1,1.5,1.9c1.2,0.8,2.9,1.7,4.7,2.4c1.9,0.7,3.7,1.2,5.1,1.4c1.3,0.2,2.2,0,2.4-0.4c0-0.1,0.1-0.1,0.2-0.1
			c0.1,0,0.1,0.1,0.1,0.2c-0.3,0.7-1.6,0.7-2.7,0.5C24.8,27.3,23,26.8,21.1,26.1z"/>
		<path class="st2" d="M20.7,27.2c-1.9-0.7-3.6-1.6-4.8-2.4c-0.9-0.6-1.9-1.5-1.6-2.2c0-0.1,0.1-0.1,0.2-0.1c0.1,0,0.1,0.1,0.1,0.2
			c-0.1,0.4,0.4,1.1,1.5,1.9c1.2,0.8,2.9,1.7,4.7,2.4c1.9,0.7,3.7,1.2,5.1,1.4c1.3,0.2,2.2,0,2.4-0.4c0-0.1,0.1-0.1,0.2-0.1
			c0.1,0,0.1,0.1,0.1,0.2c-0.3,0.7-1.6,0.7-2.7,0.5C24.4,28.4,22.6,27.9,20.7,27.2z"/>
		<ellipse transform="matrix(0.3534 -0.9355 0.9355 0.3534 2.2692 33.3788)" class="st3" cx="25.3" cy="15" rx="1.6" ry="6.5"/>
		<path class="st4" d="M33.4,8.8c0,0-0.3-0.4-0.2-0.9c0.1-0.4,0.5-0.6,0.5-0.6S33.4,7,33.4,6.5c0-0.5,0.4-0.7,0.4-0.7
			S33.4,5.4,33.3,5c-0.1-0.4,0.2-0.8,0.2-0.8s-0.5-0.1-0.6-0.5c-0.1-0.3,0.1-0.6,0.1-0.6s-0.6-0.3-0.8-0.6c-0.2-0.2,0.1-0.7,0-0.6
			c-0.1,0.1-0.5,0-0.8-0.3c0,0,0,0,0,0c0,0,0,0,0,0C31.1,1.4,31.2,1,31.2,1s-0.5,0.1-0.8-0.1c-0.3-0.2-0.3-0.6-0.3-0.6
			c-0.3,0.3-0.8,0.1-0.8,0.1l-0.4-0.4c-0.7,0.6-1-0.1-1-0.1s-0.2,0.2-0.4,0.4c-0.2,0-0.5,0.1-0.7,0.1c-0.2-0.1-0.3-0.3-0.3-0.3
			c0,0.2-0.2,0.3-0.4,0.5c-0.2,0.1-0.5,0.2-0.7,0.3C25,1,24.8,0.8,24.8,0.8c0,0.3-0.5,0.8-0.8,1.1c-0.1,0-0.1,0.1-0.1,0.1
			C23.5,2.3,23.1,2,23.1,2s0.1,0.5-0.1,1c0,0,0,0,0,0c-0.1,0.1-0.1,0.2-0.2,0.3c-0.4,0.4-0.9,0.5-0.9,0.5s0.4,0.5,0.2,1
			c-0.2,0.5-0.7,0.8-0.7,0.8s0.3,0.4,0.3,0.8c0,0.5-0.4,1.1-0.4,1.1s0.4,0.3,0.5,0.7c0,0,0,0,0,0c0,0,0,0,0,0c0.1,0.5-0.3,1-0.3,1
			s0.5,0.1,0.7,0.5c0.2,0.5-0.1,0.8-0.1,0.8c0.2,0,0.6,0.2,0.9,0.5c0,0,0,0,0,0.1c0,0,0,0,0,0c0.3,0.3,0.3,0.7,0.3,0.7
			s0.3-0.1,0.7,0.2c0,0,0,0,0.1,0c0,0,0,0,0,0c0.4,0.3,0.3,0.5,0.3,0.5l2.8,1c0.1-0.2,0.8-0.4,0.8-0.4c0,0,0,0,0.1-0.1
			c0.1,0,0.1,0,0.2,0c0.2,0,0.5,0.2,0.5,0.2s0-0.3,0.5-0.5c0,0,0.1,0,0.1,0c0,0,0,0,0,0c0.6-0.2,0.8,0,0.8,0s0-0.4,0.4-0.7
			c0,0,0,0,0.1,0c0,0,0,0,0,0c0.5-0.3,0.8-0.2,0.8-0.2s0.1-0.5,0.5-0.9c0,0,0,0,0.1-0.1c0,0,0,0,0,0c0.4-0.4,0.8-0.5,0.8-0.5
			s-0.1-0.6,0.2-1C33,8.9,33.4,8.8,33.4,8.8z"/>
		<path class="st1" d="M25.4,12.1c-1.3-0.5-2.3-1.5-2.9-2.9c-0.5-1.4-0.5-3,0-4.4c0.6-1.5,1.6-2.7,2.9-3.3c1.3-0.7,2.8-0.8,4.1-0.3
			c1.3,0.5,2.3,1.5,2.9,2.9c0.5,1.4,0.5,3,0,4.4c-0.6,1.5-1.6,2.7-2.9,3.3C28.2,12.5,26.8,12.6,25.4,12.1z M29.4,1.6
			c-2.5-0.9-5.4,0.5-6.4,3.3c-1,2.8,0.1,5.8,2.6,6.7c2.5,0.9,5.4-0.5,6.4-3.3C33.1,5.6,31.9,2.6,29.4,1.6z"/>
	</g>
	<g>
		<path class="st0" d="M56.9,16.1l-10.6,4l4.1,10.8c0,0,0,0,0,0c0,0,0,0,0,0c0.3,0.7,2.9,0.4,5.8-0.7c2.9-1.1,5.1-2.6,4.8-3.3
			c0,0,0,0,0,0l0,0L56.9,16.1z"/>
		<ellipse transform="matrix(0.9355 -0.3533 0.3533 0.9355 -3.0749 19.4037)" class="st1" cx="51.6" cy="18.1" rx="5.7" ry="1.4"/>
		<path class="st2" d="M53.6,23.4c-1.4,0.5-2.8,0.9-3.9,1c-0.8,0.1-1.8,0.1-2-0.4c0-0.1,0-0.1,0.1-0.1c0.1,0,0.1,0,0.1,0.1
			c0.1,0.3,0.8,0.4,1.8,0.3c1.1-0.1,2.5-0.5,3.9-1c1.4-0.5,2.7-1.2,3.6-1.8c0.8-0.6,1.3-1.1,1.2-1.4c0-0.1,0-0.1,0.1-0.1
			c0.1,0,0.1,0,0.1,0.1c0.2,0.5-0.6,1.2-1.2,1.6C56.3,22.3,55.1,22.9,53.6,23.4z"/>
		<path class="st2" d="M53.9,24.2c-1.4,0.5-2.8,0.9-3.9,1c-0.8,0.1-1.8,0.1-2-0.4c0-0.1,0-0.1,0.1-0.1c0.1,0,0.1,0,0.1,0.1
			c0.1,0.3,0.8,0.4,1.8,0.3c1.1-0.1,2.5-0.5,3.9-1c1.4-0.5,2.7-1.2,3.6-1.8c0.8-0.6,1.3-1.1,1.2-1.4c0-0.1,0-0.1,0.1-0.1
			s0.1,0,0.1,0.1c0.2,0.5-0.6,1.2-1.2,1.6C56.6,23,55.4,23.7,53.9,24.2z"/>
		<path class="st2" d="M54.2,25c-1.4,0.5-2.8,0.9-3.9,1c-0.8,0.1-1.8,0.1-2-0.4c0-0.1,0-0.1,0.1-0.1c0.1,0,0.1,0,0.1,0.1
			c0.1,0.3,0.8,0.4,1.8,0.3c1.1-0.1,2.5-0.5,3.9-1s2.7-1.2,3.6-1.8c0.8-0.6,1.3-1.1,1.2-1.4c0-0.1,0-0.1,0.1-0.1
			c0.1,0,0.1,0,0.1,0.1c0.2,0.5-0.6,1.2-1.2,1.6C56.9,23.9,55.7,24.5,54.2,25z"/>
		<path class="st2" d="M54.6,25.9c-1.4,0.5-2.8,0.9-3.9,1c-0.8,0.1-1.8,0.1-2-0.4c0-0.1,0-0.1,0.1-0.1c0.1,0,0.1,0,0.1,0.1
			c0.1,0.3,0.8,0.4,1.8,0.3c1.1-0.1,2.5-0.5,3.9-1c1.4-0.5,2.7-1.2,3.6-1.8c0.8-0.6,1.3-1.1,1.2-1.4c0-0.1,0-0.1,0.1-0.1
			c0.1,0,0.1,0,0.1,0.1c0.2,0.5-0.6,1.2-1.2,1.6C57.3,24.7,56,25.4,54.6,25.9z"/>
		<path class="st2" d="M54.9,26.7c-1.4,0.5-2.8,0.9-3.9,1c-0.8,0.1-1.8,0.1-2-0.4c0-0.1,0-0.1,0.1-0.1c0.1,0,0.1,0,0.1,0.1
			c0.1,0.3,0.8,0.4,1.8,0.3c1.1-0.1,2.5-0.5,3.9-1c1.4-0.5,2.7-1.2,3.6-1.8c0.8-0.6,1.3-1.1,1.2-1.4c0-0.1,0-0.1,0.1-0.1
			c0.1,0,0.1,0,0.1,0.1c0.2,0.5-0.6,1.2-1.2,1.6C57.6,25.5,56.3,26.1,54.9,26.7z"/>
		<path class="st2" d="M55.2,27.5c-1.4,0.5-2.8,0.9-3.9,1c-0.8,0.1-1.8,0.1-2-0.4c0-0.1,0-0.1,0.1-0.1c0.1,0,0.1,0,0.1,0.1
			c0.1,0.3,0.8,0.4,1.8,0.3c1.1-0.1,2.5-0.5,3.9-1c1.4-0.5,2.7-1.2,3.6-1.8c0.8-0.6,1.3-1.1,1.2-1.4c0-0.1,0-0.1,0.1-0.1
			C60,24,60,24,60,24c0.2,0.5-0.6,1.2-1.2,1.6C57.9,26.3,56.6,27,55.2,27.5z"/>
		<path class="st3" d="M56.3,16.5c0.2,0.6-1.6,1.9-4.2,2.9c-2.6,1-4.8,1.2-5.1,0.6c-0.2-0.6,1.6-1.9,4.2-2.9
			C53.8,16.2,56.1,15.9,56.3,16.5z"/>
	</g>
	<g>
		<path class="st5" d="M12.2,28.4c-1.9,1.8-3.4,3.2-6.7-0.2l-3.7-4c-2.2-2.4-0.9-4.1,1-5.8l0,0c1.9-1.8,3.7-3,5.9-0.6l3.7,4
			C15.6,25.2,14.1,26.6,12.2,28.4L12.2,28.4z"/>
		<ellipse transform="matrix(0.7309 -0.6825 0.6825 0.7309 -12.1059 7.5543)" class="st6" cx="3.5" cy="19.1" rx="4.1" ry="1.8"/>
		<ellipse transform="matrix(0.7309 -0.6825 0.6825 0.7309 -12.1081 7.5283)" class="st7" cx="3.5" cy="19.1" rx="3.5" ry="1.5"/>
		<path class="st8" d="M4.8,18.5c-0.2,0.2-0.5,0.2-0.7-0.1l0,0c-0.2-0.2-0.2-0.6,0-0.8l1.1-1.1c0.2-0.2,0.5-0.1,0.7,0.1l0,0
			c0.2,0.2,0.2,0.6,0,0.7L4.8,18.5z"/>
		<path class="st9" d="M11.9,22.2c0,0,0,0,0,0.1c0,0,0,0.1,0,0.2c0,0.1,0,0.1,0,0.2c0,0.1,0,0.2-0.1,0.3c0,0,0,0.1,0,0.1
			c0,0.1,0,0.1-0.1,0.2c-0.1,0.2-0.2,0.4-0.4,0.7c-0.2,0.2-0.4,0.5-0.7,0.7c-0.3,0.2-0.7,0.3-1,0.4c-0.4,0.1-0.8,0.1-1.2,0.1
			c-0.4,0-0.8-0.1-1.1-0.2c-0.1-0.1-0.3-0.1-0.4-0.2c-0.1,0-0.1,0-0.2-0.1c-0.1,0-0.1,0-0.2,0c-0.2-0.1-0.5-0.1-0.7-0.1
			c-0.1,0-0.2,0-0.3,0c0,0,0,0-0.1,0c0,0,0,0-0.1,0c0,0,0,0-0.1,0c0,0,0,0-0.1,0c-0.2,0.1-0.3,0.1-0.5,0.3c-0.2,0.1-0.3,0.3-0.4,0.4
			c-0.1,0.1-0.2,0.3-0.3,0.4c0,0,0,0.1-0.1,0.1c0,0,0,0.1-0.1,0.1c0,0-0.1,0.1-0.1,0.1c0,0.1-0.1,0.1-0.1,0.1s0,0,0-0.1
			c0,0,0-0.1,0-0.2c0-0.1,0-0.1,0-0.2c0-0.2,0-0.4,0-0.6c0-0.2,0.1-0.5,0.2-0.8c0.1-0.3,0.3-0.6,0.6-0.8c0.3-0.2,0.7-0.4,1.1-0.5
			c0.4-0.1,0.8-0.1,1.2,0c0,0,0.1,0,0.1,0c0,0,0.1,0,0.1,0c0.1,0,0.2,0,0.3,0.1l0,0l0,0l0.1,0c0,0,0.1,0,0.1,0L7.9,23
			c0.3,0.1,0.5,0.2,0.8,0.2c0.2,0.1,0.5,0.1,0.7,0.1c0.2,0,0.4,0,0.6-0.1c0.2,0,0.4-0.1,0.6-0.2c0.2-0.1,0.4-0.2,0.5-0.3
			c0.2-0.1,0.3-0.2,0.4-0.3c0,0,0.1,0,0.1-0.1c0,0,0,0,0.1-0.1C11.7,22.3,11.8,22.3,11.9,22.2C11.9,22.2,11.9,22.2,11.9,22.2z"/>
	</g>
	<g>
		<path class="st5" d="M30.8,26.5c-1.1-2.7-2-4.9,2.9-6.9l5.7-2.4c3.4-1.4,4.6,0.6,5.8,3.4l0,0c1.1,2.7,1.7,5-1.7,6.4l-5.7,2.4
			C32.8,31.4,31.9,29.2,30.8,26.5L30.8,26.5z"/>
		<ellipse transform="matrix(0.9237 -0.3831 0.3831 0.9237 -4.7093 18.4457)" class="st6" cx="44" cy="21" rx="2" ry="4.6"/>
		<ellipse transform="matrix(0.9237 -0.3831 0.3831 0.9237 -4.6952 18.4525)" class="st7" cx="44" cy="21" rx="1.7" ry="3.9"/>
		<path class="st8" d="M44.1,22.6c-0.1-0.3,0-0.6,0.4-0.8l0,0c0.3-0.1,0.7,0,0.8,0.3l0.7,1.6c0.1,0.3-0.1,0.6-0.4,0.8l0,0
			c-0.3,0.1-0.7,0-0.8-0.3L44.1,22.6z"/>
		<path class="st9" d="M37.4,28.7c0,0-0.1,0-0.1,0c0,0-0.1,0-0.2-0.1c-0.1,0-0.1-0.1-0.2-0.1c-0.1,0-0.2-0.1-0.3-0.2
			c0,0-0.1-0.1-0.1-0.1c0,0-0.1-0.1-0.1-0.1c-0.2-0.2-0.4-0.4-0.6-0.7c-0.2-0.3-0.3-0.6-0.4-1c-0.1-0.4-0.1-0.8,0-1.3
			c0.1-0.4,0.2-0.9,0.4-1.3c0.2-0.4,0.4-0.8,0.7-1.1c0.1-0.1,0.2-0.3,0.3-0.4c0-0.1,0.1-0.1,0.1-0.2c0-0.1,0.1-0.1,0.1-0.2
			c0.2-0.2,0.3-0.4,0.4-0.7c0-0.1,0.1-0.2,0.1-0.3c0,0,0-0.1,0-0.1c0,0,0-0.1,0-0.1c0,0,0-0.1,0-0.1c0,0,0-0.1,0-0.1
			c0-0.2,0-0.4-0.1-0.6c-0.1-0.2-0.1-0.4-0.2-0.6c-0.1-0.2-0.2-0.4-0.3-0.5c0,0,0-0.1-0.1-0.1c0,0,0-0.1-0.1-0.1
			c0-0.1-0.1-0.1-0.1-0.1c-0.1-0.1-0.1-0.1-0.1-0.1s0.1,0,0.1,0c0,0,0.1,0,0.2,0c0.1,0,0.1,0,0.2,0.1c0.2,0,0.4,0.1,0.6,0.2
			c0.2,0.1,0.5,0.3,0.7,0.5c0.2,0.2,0.5,0.6,0.6,1c0.1,0.4,0.2,0.9,0.1,1.3c-0.1,0.5-0.2,0.9-0.4,1.3c0,0-0.1,0.1-0.1,0.1
			c0,0-0.1,0.1-0.1,0.1c-0.1,0.1-0.1,0.2-0.2,0.3l0,0l0,0l0,0.1c0,0-0.1,0.1-0.1,0.1l-0.2,0.2c-0.2,0.2-0.4,0.5-0.5,0.7
			c-0.2,0.2-0.3,0.5-0.4,0.7c-0.1,0.2-0.2,0.5-0.2,0.7c0,0.2,0,0.5,0,0.7c0,0.2,0.1,0.5,0.1,0.7c0,0.2,0.1,0.4,0.2,0.5
			c0,0,0,0.1,0,0.1c0,0,0,0.1,0,0.1c0,0.1,0,0.1,0.1,0.2C37.4,28.6,37.4,28.7,37.4,28.7z"/>
	</g>
</g>
<g>
	<g>
		<g>
			<path d="M13.2,104.4h-1.8v-4.6c0-0.7-0.5-1.2-1.2-1.2H8.6c-0.7,0-1.3,0.5-1.3,1.2v10c0,0.7,0.6,1.2,1.3,1.2h1.7
				c0.7,0,1.2-0.6,1.2-1.2v-4.4h1.8c0.3,0,0.6-0.3,0.6-0.6v0C13.8,104.6,13.5,104.4,13.2,104.4z"/>
			<path d="M48.1,104.4h1.8v-4.6c0-0.7,0.6-1.2,1.2-1.2h1.7c0.7,0,1.3,0.5,1.3,1.2v10c0,0.7-0.6,1.2-1.3,1.2h-1.7
				c-0.7,0-1.2-0.6-1.2-1.2v-4.4h-1.8c-0.3,0-0.6-0.3-0.6-0.6v0C47.5,104.6,47.8,104.4,48.1,104.4z"/>
			<g>
				<path class="st10" d="M30.7,27.1H1.2c-0.7,0-1.2,0.5-1.2,1.2v4.2c0,0.7,0.5,1.3,1.2,1.3h1.1h28.4V27.1z"/>
				<path class="st11" d="M61.3,32.5v-4.2c0-0.7-0.5-1.2-1.2-1.2H30.7v6.6h28.4h1.1C60.8,33.7,61.3,33.2,61.3,32.5z"/>
			</g>
			<g>
				<path class="st11" d="M30.7,36.1v-2.4H2.3l0.1,1.8C8.5,35.5,19.3,35.4,30.7,36.1z"/>
				<path class="st10" d="M2.4,35.5l2.3,59.1c0,2.3,1.6,4.2,3.7,4.2h4v8c0,1.5,1.9,2.7,4.2,2.7h14.2V36.1
					C19.3,35.3,8.5,35.4,2.4,35.5z"/>
				<path class="st12" d="M58.8,40.2l0.3-6.4H30.7v2.4C40.5,36.8,50.8,38,58.8,40.2z"/>
				<path class="st11" d="M30.7,36.1v73.4h14.2c2.3,0,4.2-1.2,4.2-2.7v-8H53c2,0,3.7-1.9,3.7-4.2l2.2-54.5
					C50.8,37.9,40.5,36.7,30.7,36.1z"/>
			</g>
			<path id="XMLID_2_" class="st13" d="M22,63.8c-0.9,0-1.7-0.2-2.4-0.6c-0.7-0.4-1.1-0.8-1.3-1.3c-0.1-0.2-0.2-0.4-0.2-0.6
				c0-0.2-0.1-0.4-0.1-0.7c0-0.4,0-0.8,0.2-1.2c0.1-0.4,0.2-0.7,0.4-1c0.2-0.3,0.3-0.5,0.4-0.6c0.1-0.1,0.2-0.2,0.3-0.3l-1.9-1.1
				l6.2-0.2l2.9,5.4l-1.8-1c-0.1,0.1-0.1,0.1-0.3,0.3c-0.1,0.1-0.2,0.3-0.4,0.4c-0.1,0.2-0.3,0.3-0.4,0.5c-0.1,0.2-0.2,0.3-0.3,0.4
				c-0.1,0.2-0.2,0.4-0.2,0.6c0,0.3,0.1,0.5,0.3,0.7c0.2,0.1,0.4,0.3,0.5,0.3L22,63.8z M39.9,64.6c0.6,0,1.2-0.2,1.7-0.4
				c0.5-0.2,0.9-0.5,1.3-0.8c0.4-0.3,0.6-0.6,0.8-0.8c0.2-0.2,0.3-0.4,0.4-0.5c-0.1,0.4-0.3,0.7-0.4,1.1c-0.2,0.3-0.4,0.8-0.7,1.2
				c-0.2,0.3-0.3,0.5-0.4,0.7c-0.1,0.3-0.3,0.6-0.4,0.9c-0.4,0.8-0.7,1.5-0.9,2c-0.2,0.5-0.5,1-0.8,1.4c-0.3,0.4-0.6,0.8-0.9,1.1
				c-0.3,0.3-0.6,0.4-1,0.4c-0.2,0-1.3,0-3.2,0l0,2.2L32,67.8l3.3-5.2l0,2.1C38.3,64.6,39.9,64.6,39.9,64.6z M27.8,46.4
				c0.6,0,1.8,0,3.5,0c1.7,0,3,0,3.8,0.1c0.8,0.1,1.3,0.3,1.5,0.7c0,0.1,0.1,0.2,0.3,0.5c0.2,0.3,0.3,0.6,0.5,0.9
				c0.2,0.3,0.4,0.6,0.5,0.8c0.1,0.2,0.2,0.4,0.3,0.5l1.9-1.1l-2.6,5.8l-6.4-0.5l1.8-1.1l-2.3-3.8c-0.3-0.6-0.7-1.1-1.2-1.5
				c-0.4-0.4-0.9-0.6-1.3-0.8c-0.4-0.2-0.8-0.3-1.1-0.3c-0.3,0-0.5-0.1-0.7-0.1C26.7,46.5,27.2,46.4,27.8,46.4z M19.4,63.8
				c-0.7-0.3-1.1-0.7-1.4-1.2c0.1,0.1,0.2,0.3,0.3,0.6c0.2,0.3,0.4,0.6,0.6,1.1c0.3,0.5,0.5,0.9,0.8,1.5c0.3,0.5,0.5,0.9,0.6,1.1
				c0.1,0.1,0.1,0.2,0.1,0.3c0.2,0.5,0.4,0.9,0.6,1.2c0.2,0.4,0.4,0.7,0.7,1.1c0.2,0.4,0.5,0.7,0.8,1c0.3,0.2,0.5,0.4,0.7,0.4l7-0.1
				l-0.1-6.7c-4.1,0-6.9,0.1-8.5,0.1C20.9,64.2,20.1,64.1,19.4,63.8z M39.2,63.5c-0.3-0.5-1-1.5-2-3.1c-1-1.6-1.6-2.5-1.8-2.8
				l5.5-3.3c0.1,0.1,0.2,0.3,0.4,0.7c0.2,0.4,0.4,0.8,0.7,1.4c0.6,1.1,1,1.9,1.3,2.5c0.3,0.5,0.5,0.9,0.6,1.1
				c0.1,0.2,0.1,0.4,0.1,0.6c0,0.3-0.1,0.7-0.2,1.1c-0.1,0.1-0.2,0.3-0.4,0.5c-0.2,0.2-0.4,0.5-0.8,0.8c-0.3,0.3-0.8,0.6-1.3,0.9
				c-0.5,0.3-1.1,0.4-1.7,0.4C39.7,64.3,39.5,64,39.2,63.5z M26.4,56.3l-5.4-3c0.1-0.1,0.3-0.5,0.7-1.2c0.1-0.1,0.3-0.5,0.7-1.1
				c0.4-0.6,0.7-1.1,1-1.6c0.3-0.5,0.5-0.8,0.7-1.1c0.2-0.3,0.3-0.5,0.4-0.6c0.1-0.2,0.3-0.4,0.5-0.5c0.2-0.1,0.6-0.2,1.1-0.3
				c0.2,0,0.4,0,0.7,0.1c0.3,0,0.7,0.1,1.1,0.3c0.4,0.2,0.9,0.4,1.3,0.8c0.4,0.4,0.8,0.8,1.1,1.4l0.1,0.1c0.1,0.1,0.2,0.3,0.2,0.4
				L26.4,56.3z"/>
		</g>
	</g>
	<text transform="matrix(1 0 0 1 18.2153 87.565)" class="st14 st15 st16">Metal</text>
</g>
</svg>
