<?xml version="1.0" encoding="utf-8"?>
<!-- Generator: Adobe Illustrator 22.1.0, SVG Export Plug-In . SVG Version: 6.00 Build 0)  -->
<svg version="1.1" id="Layer_1" xmlns="http://www.w3.org/2000/svg" xmlns:xlink="http://www.w3.org/1999/xlink" x="0px" y="0px"
	 viewBox="0 0 63.8 103.7" style="enable-background:new 0 0 63.8 103.7;" xml:space="preserve">
<style type="text/css">
	.st0{fill:#85B23F;}
	.st1{fill:#75B531;}
	.st2{fill:#5F6B89;}
	.st3{fill:#DCE0E2;}
	.st4{fill:#7D8CAA;}
	.st5{fill:#070707;}
	.st6{fill:#8FB4BC;}
	.st7{fill:#AFA3B5;}
	.st8{fill:none;}
	.st9{fill:#EAE4C7;}
	.st10{fill:#E5DCB5;}
	.st11{fill:#514610;}
	.st12{fill:#D33218;}
	.st13{fill:#BFD5DD;}
	.st14{fill:#1BA7A5;}
	.st15{fill:#E8C73D;}
	.st16{fill:#D3B537;}
	.st17{fill:#BFA32E;}
	.st18{fill:#776415;}
	.st19{fill:#F4AA08;}
	.st20{fill:#E29A0A;}
	.st21{fill:#CE890D;}
	.st22{fill-rule:evenodd;clip-rule:evenodd;fill:#F4F4F4;}
	.st23{fill:#FFFFFF;}
	.st24{font-family:'Arial-BoldMT';}
	.st25{font-size:7.165px;}
</style>
<g>
	<g>
		<path class="st0" d="M41.4,18.6l-0.2-0.1c0,0,0.6-1.6,2-3.6c0.8-1.2,1.7-2.3,2.7-3.2c1.2-1.2,2.6-2.2,4.1-3l0.1,0.2
			c-3.3,1.8-5.4,4.4-6.7,6.2C42,17,41.4,18.6,41.4,18.6z"/>
		<path class="st1" d="M49.8,8.8c0,0,0.3-0.5-0.5-0.9c0,0-0.2-0.3,0.2-0.2c0,0-0.2-0.1-0.1-0.4c0,0,0.2-0.2,0.3,0c0,0,0-0.1-0.1-0.4
			c0,0-0.1-0.3,0.1-0.5c0,0,0.4,0.1,0.5,0.4c0,0,0.2-0.1,0.2-0.2c0-0.2,0.5,0.3,0.4,0.7c-0.1,0.4-0.2,0.3-0.2,0.3S51,7.7,51.1,7
			c0,0,0.3-0.7,0.7-0.6c0,0-0.1,0.1,0.1,0.4c0,0,0.2-0.4,0.7-0.5c0,0-0.1,0.2-0.1,0.3c0,0,0.6-0.5,0.9-0.3c0,0-0.2,0.6-0.5,0.7
			c-0.3,0.1,0.4,0.1,0.4,0.1s-0.1,0.3-0.4,0.4c-0.3,0.1,0.1,0.2,0.1,0.3c0,0.1-0.8,0.4-1,0.3c-0.2-0.1-0.7,0.1-0.7,0.1s0.9,0,1,0.2
			l-0.6,0.1c0,0,0.5,0,0.6,0.1c0.1,0.1,0.2,0.2,0.2,0.2s-0.3,0.1-0.4,0c0,0,0.2,0.3,0.2,0.4c0,0.2,0,0.5,0,0.5s-0.6-0.2-0.7-0.4
			c-0.1-0.2,0,0.1-0.1,0.3c0,0-0.5-0.3-0.5-0.5c0,0-0.1,0.3-0.2,0.3c0,0-0.1-0.6-0.4-0.7C50.2,8.8,50,9,50,9L49.8,8.8z"/>
		<path class="st1" d="M48.1,14.5c0,0,0.6,0,0.6-0.9c0,0,0.2-0.3,0.3,0c0,0,0-0.3,0.3-0.3c0,0,0.3,0,0.1,0.3c0,0,0.1-0.1,0.3-0.4
			c0,0,0.2-0.2,0.5-0.2c0,0,0.1,0.4-0.1,0.6c0,0,0.2,0.2,0.3,0c0.1-0.1,0,0.6-0.4,0.8c-0.4,0.2-0.4,0-0.4,0s0.1,0.4,0.7,0.1
			c0,0,0.7-0.2,0.9,0.2c0,0-0.2,0-0.3,0.3c0,0,0.5-0.1,0.8,0.3c0,0-0.2,0-0.3,0.1c0,0,0.7,0.2,0.7,0.6c0,0-0.6,0.2-0.9,0.1
			c-0.2-0.2,0.1,0.4,0.1,0.4s-0.3,0.1-0.5-0.1c-0.2-0.2-0.1,0.2-0.2,0.3c-0.1,0.1-0.7-0.4-0.7-0.7c0-0.3-0.4-0.5-0.4-0.5
			s0.5,0.7,0.4,1l-0.4-0.4c0,0,0.2,0.4,0.2,0.6c-0.1,0.2-0.1,0.3-0.1,0.3s-0.2-0.2-0.2-0.4c0,0-0.1,0.3-0.3,0.5
			c-0.1,0.1-0.4,0.3-0.4,0.3s-0.2-0.6,0-0.8c0.1-0.2-0.1,0.1-0.3,0.1c0,0,0-0.6,0.2-0.7c0,0-0.3,0.1-0.4,0c0,0,0.4-0.4,0.3-0.8
			c-0.1-0.3-0.3-0.5-0.3-0.5L48.1,14.5z"/>
		<path class="st1" d="M41.6,13.3c0,0-0.2-0.5,0.7-0.8c0,0,0.2-0.2-0.1-0.2c0,0,0.3-0.1,0.2-0.4c0,0-0.1-0.2-0.3,0
			c0,0,0.1-0.1,0.3-0.4c0,0,0.2-0.3,0-0.5c0,0-0.4,0.1-0.6,0.3c0,0-0.2-0.1-0.1-0.3c0.1-0.2-0.6,0.2-0.6,0.7c0,0.4,0.1,0.3,0.1,0.3
			s-0.4,0.1-0.3-0.6c0,0-0.1-0.7-0.4-0.8c0,0,0.1,0.2-0.2,0.3c0,0-0.1-0.4-0.5-0.6c0,0,0,0.2,0,0.4c0,0-0.5-0.6-0.8-0.5
			c0,0,0,0.6,0.2,0.8c0.2,0.2-0.4,0-0.4,0s0,0.3,0.3,0.4c0.2,0.1-0.1,0.2-0.2,0.3c-0.1,0.1,0.6,0.5,0.9,0.4c0.3-0.1,0.6,0.2,0.6,0.2
			s-0.8-0.2-1.1,0l0.5,0.2c0,0-0.5-0.1-0.6,0c-0.1,0.1-0.3,0.2-0.3,0.2s0.3,0.1,0.4,0.1c0,0-0.3,0.2-0.4,0.4
			c-0.1,0.2-0.2,0.5-0.2,0.5s0.7-0.1,0.8-0.2c0.1-0.2,0,0.1,0,0.3c0,0,0.6-0.2,0.6-0.4c0,0,0,0.3,0.1,0.4c0,0,0.3-0.5,0.6-0.6
			s0.6,0.1,0.6,0.1L41.6,13.3z"/>
		<path class="st1" d="M47.7,8.4c0,0-0.2-0.4-0.8,0c0,0-0.2,0-0.1-0.2c0,0-0.2,0.1-0.3-0.1c0,0-0.1-0.2,0.1-0.2c0,0-0.1,0-0.3,0
			c0,0-0.2,0-0.3-0.2c0,0,0.2-0.2,0.4-0.2c0,0,0-0.2-0.1-0.2c-0.1,0,0.4-0.2,0.6,0c0.2,0.2,0.1,0.2,0.1,0.2s0.2-0.2-0.2-0.5
			c0,0-0.3-0.4-0.2-0.6c0,0,0,0.1,0.3,0.1c0,0-0.2-0.3-0.1-0.6c0,0,0.1,0.1,0.2,0.2c0,0-0.1-0.6,0.1-0.7c0,0,0.3,0.3,0.3,0.5
			c0,0.2,0.2-0.2,0.2-0.2S48,5.8,47.9,6c0,0.2,0.2,0,0.2,0c0.1,0,0,0.6-0.2,0.8c-0.2,0.1-0.2,0.5-0.2,0.5s0.3-0.6,0.5-0.6L48.2,7
			c0,0,0.2-0.3,0.3-0.4c0.1,0,0.2-0.1,0.2-0.1s-0.1,0.2-0.2,0.3c0,0,0.3-0.1,0.4,0S49.3,7,49.3,7S49,7.4,48.8,7.3
			c-0.2,0,0.1,0,0.2,0.1c0,0-0.4,0.2-0.5,0.2c0,0,0.2,0.1,0.2,0.2c0,0-0.4-0.1-0.6,0.1c-0.2,0.2-0.2,0.4-0.2,0.4L47.7,8.4z"/>
		<path class="st1" d="M44.9,10.7c0,0,0.3-0.2,0.5,0.2c0,0,0.1,0.1,0.1-0.1c0,0,0,0.1,0.2,0c0,0,0.1-0.1,0-0.2c0,0,0.1,0,0.2,0.1
			c0,0,0.1,0,0.2-0.1c0,0,0-0.2-0.2-0.2c0,0,0.1-0.1,0.1-0.1c0.1,0-0.1-0.2-0.4-0.2c-0.2,0.1-0.2,0.1-0.2,0.1s-0.1-0.2,0.3-0.3
			c0,0,0.3-0.2,0.4-0.3c0,0-0.1,0.1-0.2,0c0,0,0.2-0.1,0.3-0.3c0,0-0.1,0.1-0.2,0c0,0,0.3-0.3,0.2-0.4c0,0-0.3,0.1-0.4,0.2
			C45.9,9.3,46,9,46,9S45.8,9,45.8,9.2c-0.1,0.1-0.1,0-0.1-0.1s-0.3,0.4-0.2,0.5c0.1,0.1-0.1,0.3-0.1,0.3s0.1-0.4,0-0.5l-0.1,0.3
			c0,0,0-0.2,0-0.3c-0.1,0-0.1-0.1-0.1-0.1s0,0.1,0,0.2c0,0-0.1-0.1-0.2-0.1c-0.1,0-0.3,0-0.3,0s0,0.3,0.1,0.3c0.1,0-0.1,0-0.2,0
			c0,0,0.1,0.2,0.2,0.2c0,0-0.1,0-0.2,0.1c0,0,0.3,0.1,0.3,0.2C44.9,10.5,44.8,10.6,44.9,10.7L44.9,10.7z"/>
		<path class="st1" d="M46.7,14.2c0,0,0.1-0.3,0.5-0.2c0,0,0.1-0.1,0-0.1c0,0,0.1,0,0.2-0.1c0,0,0-0.1-0.1-0.1c0,0,0.1,0,0.2-0.1
			c0,0,0.1-0.1,0.1-0.2c0,0-0.2-0.1-0.3,0c0,0-0.1-0.1,0-0.2c0.1-0.1-0.3,0-0.4,0.2c-0.1,0.2,0,0.2,0,0.2s-0.2-0.1,0-0.4
			c0,0,0.1-0.4,0-0.5c0,0,0,0.1-0.1,0.1c0,0,0.1-0.2-0.1-0.4c0,0,0,0.1-0.1,0.2c0,0,0-0.4-0.2-0.4c0,0-0.1,0.3-0.1,0.5
			c0.1,0.1-0.2-0.1-0.2-0.1s-0.1,0.2,0,0.3s-0.1,0-0.1,0.1c0,0,0.1,0.4,0.2,0.5c0.1,0,0.2,0.3,0.2,0.3s-0.3-0.3-0.4-0.3l0.1,0.2
			c0,0-0.2-0.2-0.2-0.2c-0.1,0-0.1,0-0.1,0s0.1,0.1,0.2,0.2c0,0-0.2,0-0.2,0.1c-0.1,0.1-0.2,0.2-0.2,0.2s0.3,0.1,0.4,0.1
			s0,0.1-0.1,0.2c0,0,0.3,0,0.3,0c0,0-0.1,0.1-0.1,0.2c0,0,0.2-0.2,0.4-0.1c0.1,0.1,0.2,0.2,0.2,0.2L46.7,14.2z"/>
		<path class="st1" d="M44.2,13.6c0,0-0.2-0.2,0.1-0.5c0,0,0-0.1-0.1-0.1c0,0,0.1-0.1,0-0.2c0,0-0.1-0.1-0.1,0c0,0,0-0.1,0-0.2
			c0,0,0-0.1-0.1-0.2c0,0-0.2,0.1-0.2,0.2c0,0-0.1,0-0.1-0.1c0-0.1-0.2,0.2-0.1,0.4c0.1,0.2,0.1,0.1,0.1,0.1s-0.2,0.1-0.3-0.2
			c0,0-0.2-0.3-0.4-0.3c0,0,0.1,0.1,0,0.2c0,0-0.1-0.2-0.4-0.2c0,0,0.1,0.1,0.1,0.2c0,0-0.4-0.2-0.5-0.1c0,0,0.2,0.3,0.3,0.3
			c0.2,0-0.2,0.1-0.2,0.1s0.1,0.1,0.2,0.1c0.1,0,0,0.1,0,0.2c0,0.1,0.4,0.1,0.5,0c0.1-0.1,0.3,0,0.3,0s-0.4,0.1-0.5,0.2l0.3,0
			c0,0-0.2,0-0.3,0.1c0,0.1-0.1,0.1-0.1,0.1s0.2,0,0.2,0c0,0-0.1,0.2-0.1,0.2c0,0.1,0,0.3,0,0.3s0.3-0.1,0.3-0.2
			c0-0.1,0,0.1,0.1,0.2c0,0,0.2-0.2,0.2-0.3c0,0,0.1,0.1,0.1,0.2c0,0,0-0.3,0.1-0.4C44,13.7,44.2,13.7,44.2,13.6L44.2,13.6z"/>
		<path class="st1" d="M44.1,9.2c0,0-0.2-0.4,0.6-0.7c0,0,0.2-0.2-0.1-0.2c0,0,0.2-0.1,0.2-0.3c0,0-0.1-0.2-0.3,0c0,0,0-0.1,0.2-0.3
			c0,0,0.1-0.2,0-0.4c0,0-0.4,0.1-0.5,0.3c0,0-0.2-0.1-0.1-0.2c0.1-0.1-0.5,0.2-0.5,0.6c0,0.4,0.1,0.3,0.1,0.3s-0.4,0.1-0.3-0.5
			c0,0-0.1-0.6-0.4-0.6c0,0,0.1,0.1-0.1,0.3c0,0-0.1-0.4-0.5-0.5c0,0,0.1,0.1,0,0.3c0,0-0.4-0.5-0.7-0.4c0,0,0,0.5,0.2,0.7
			c0.2,0.1-0.4,0-0.4,0s0,0.3,0.3,0.4c0.2,0.1-0.1,0.2-0.2,0.2c-0.1,0.1,0.6,0.4,0.8,0.4c0.2-0.1,0.5,0.2,0.5,0.2s-0.7-0.1-0.9,0
			l0.5,0.2c0,0-0.4-0.1-0.5,0c-0.1,0.1-0.2,0.2-0.2,0.2s0.2,0.1,0.4,0.1c0,0-0.3,0.2-0.3,0.3c-0.1,0.1-0.1,0.4-0.1,0.4
			s0.6-0.1,0.7-0.2c0.1-0.2,0,0.1,0,0.3c0,0,0.5-0.2,0.5-0.4c0,0,0,0.2,0.1,0.3c0,0,0.2-0.5,0.5-0.5c0.3,0,0.5,0.1,0.5,0.1L44.1,9.2
			z"/>
		<path class="st1" d="M49.9,11.4c0,0,0.3,0.2-0.1,0.8c0,0,0,0.2,0.2,0.1c0,0-0.1,0.1,0,0.3c0,0,0.2,0.1,0.2-0.1c0,0,0,0.1,0,0.3
			c0,0,0,0.2,0.2,0.3c0,0,0.2-0.2,0.2-0.4c0,0,0.2,0,0.2,0.1c0,0.1,0.3-0.4,0.1-0.6S50.7,12,50.7,12s0.2-0.2,0.5,0.2
			c0,0,0.4,0.4,0.6,0.2c0,0-0.1-0.1,0-0.3c0,0,0.2,0.2,0.6,0.1c0,0-0.1-0.1-0.1-0.2c0,0,0.6,0.1,0.7-0.1c0,0-0.3-0.4-0.5-0.4
			c-0.2,0,0.3-0.2,0.3-0.2s-0.2-0.2-0.4-0.1c-0.2,0,0-0.2,0-0.2c0-0.1-0.7,0-0.8,0.1c-0.1,0.2-0.5,0.1-0.5,0.1s0.6-0.3,0.7-0.5
			L51.3,11c0,0,0.3-0.2,0.4-0.3c0-0.1,0.1-0.2,0.1-0.2s-0.2,0-0.3,0.1c0,0,0.1-0.3,0.1-0.4c0-0.1-0.1-0.4-0.1-0.4s-0.4,0.3-0.4,0.5
			c0,0.2,0-0.1-0.1-0.2c0,0-0.3,0.4-0.2,0.5c0,0-0.1-0.2-0.2-0.2c0,0,0.1,0.4-0.1,0.6c-0.2,0.2-0.4,0.2-0.4,0.2L49.9,11.4z"/>
		<path class="st1" d="M47.8,10.3C47.8,10.3,47.8,10.3,47.8,10.3c-0.1-0.1-0.1-0.2-0.1-0.2c0.4-0.6-0.2-1.7-0.2-1.7
			c0-0.1,0-0.1,0-0.2c0,0,0.1,0,0.1,0C47.8,8.3,48.4,9.5,47.8,10.3C47.9,10.2,47.9,10.3,47.8,10.3z"/>
		<path class="st1" d="M50,11.5C50,11.5,50,11.5,50,11.5c0,0-0.6-0.2-1.4-0.2c-1-0.1-1.7,0-2.2,0.3c0,0-0.1,0-0.1-0.1
			c0-0.1,0-0.1,0-0.2c0.5-0.3,1.3-0.4,2.3-0.3c0.8,0.1,1.4,0.2,1.4,0.2C50,11.3,50.1,11.4,50,11.5C50.1,11.5,50,11.5,50,11.5z"/>
		<path class="st1" d="M44.9,13c0.1,0,0.1-0.1,0.1-0.2c0.4-0.9,0.2-1.8-0.4-2.8C44.3,9.5,44,9.3,44,9c0-0.2-0.3-0.2-0.4-0.1
			c-0.1,0.1,0.1,0.2,0.2,0.3L44,9.4c0,0,0.2,0.3,0.6,1c0.4,0.8,0.6,1.2,0.2,2.6C44.8,13.1,44.8,13,44.9,13z"/>
		<path class="st1" d="M48.2,14.7C48.2,14.7,48.2,14.7,48.2,14.7c0,0-0.7-0.2-1.7-0.3c-0.9,0-2.1,0-3.2,0.7c0,0-0.1,0-0.1-0.1
			c0-0.1,0-0.1,0-0.2c0.5-0.3,1.1-0.5,1.7-0.6c0.5-0.1,1-0.1,1.6-0.1c1,0,1.6,0.2,1.7,0.3C48.3,14.5,48.3,14.5,48.2,14.7
			C48.3,14.7,48.3,14.7,48.2,14.7z"/>
		<path class="st1" d="M42.1,17.2C42.1,17.2,42.1,17.2,42.1,17.2C42,17.1,42,17.1,42,17c0.2-2.2-0.3-3.4-0.7-4.1
			c-0.5-0.7-1-0.9-1-0.9c0,0-0.1-0.1-0.1-0.1c0-0.1,0.1-0.1,0.1-0.1c0,0,0.6,0.2,1.1,1c0.3,0.4,0.5,1,0.6,1.6
			c0.2,0.8,0.2,1.7,0.1,2.7C42.2,17.1,42.1,17.1,42.1,17.2z"/>
	</g>
	<g>
		<path class="st2" d="M37.5,8.9c-1.3,1.2-2.4,3.5-2.4,4.4c0,0.1,0,0.2,0,0.3l1.1,0l0.1,1.3c0,0,1.9,3.2,10.6,3.4
			c-0.8-0.6,1.3-1.1,1.3-1.1c-0.3-4.2-3.2-7.6-7.1-10C40,7.6,38.3,8.2,37.5,8.9z"/>
		<ellipse transform="matrix(0.2428 -0.9701 0.9701 0.2428 19.3415 52.2643)" class="st3" cx="43.2" cy="13.7" rx="0.9" ry="1.1"/>
		<path class="st4" d="M47.3,18.4c-0.1-0.1-0.2-0.1-0.3-0.2c-8.7-0.2-10.6-3.4-10.6-3.4l-0.1-1.3l-1.1,0c0.1,1.1,0.9,4,3.4,6.4
			c1.1,0.1,1.8,0.2,1.8,0.2c3.1,0.7,5.9-0.5,5.9-0.5C48.2,18.8,47.3,18.4,47.3,18.4z"/>
		<path class="st5" d="M43.7,14c-0.1,0.2-0.3,0.4-0.6,0.3s-0.4-0.3-0.4-0.5c0.1-0.2,0.3-0.4,0.6-0.3C43.6,13.6,43.8,13.8,43.7,14z"
			/>
		<path class="st6" d="M41,9.2C41,9.2,41,9.2,41,9.2C41,9.2,40.9,9.2,41,9.2c-0.1,0-0.1,0-0.1,0c-0.1,0-0.2,0.1-0.3,0.1
			c-0.1,0.1-0.3,0.1-0.5,0.2c-0.1,0-0.2,0.1-0.3,0.2c-0.1,0.1-0.2,0.1-0.3,0.2c-0.2,0.1-0.5,0.3-0.7,0.5c0,0-0.1,0-0.1,0.1
			c0,0-0.1,0-0.1,0.1c0,0-0.1,0-0.1,0.1c0,0,0,0,0,0c0,0,0,0,0,0c0,0-0.1,0-0.1,0.1c0,0-0.1,0.1-0.1,0.1c0,0,0,0,0,0c0,0,0,0,0,0
			c0,0-0.1,0.1-0.1,0.1c-0.2,0.2-0.5,0.5-0.7,0.7c-0.2,0.3-0.4,0.5-0.5,0.9l-0.1,0.1l0,0.1l0,0.1c0,0,0,0.1,0,0.1c0,0,0,0.1,0,0.1
			l0,0.1l0,0.1c0,0,0,0.1,0,0.1c0,0,0,0.1,0,0.1l0,0.1c0,0,0,0,0,0.1c-0.1,0.3-0.1,0.7-0.1,1c0,0.3,0.1,0.6,0.2,0.9
			c0,0.1,0,0.1,0.1,0.2c0,0.1,0,0.1,0.1,0.2c0,0,0,0,0,0.1c0,0,0,0,0,0c0,0,0,0.1,0,0.1c0,0,0,0.1,0,0.1c0,0,0,0.1,0,0.1
			c0,0.1,0.1,0.1,0.1,0.2c0,0.1,0.1,0.1,0.1,0.2c0,0,0,0.1,0,0.1c0,0,0,0.1,0,0.1c0,0.1,0.1,0.1,0.1,0.2c0.1,0.2,0.2,0.4,0.3,0.5
			c0.1,0.1,0.2,0.2,0.2,0.3c0,0.1,0.1,0.1,0.1,0.1s0,0-0.1-0.1c-0.1-0.1-0.1-0.2-0.2-0.3c-0.1-0.1-0.2-0.3-0.4-0.5
			c0,0-0.1-0.1-0.1-0.1c0,0,0,0-0.1-0.1c0,0,0-0.1-0.1-0.1c0-0.1-0.1-0.1-0.1-0.2c0-0.1-0.1-0.1-0.1-0.2c0,0,0-0.1-0.1-0.1
			c0,0,0-0.1-0.1-0.1c0,0,0-0.1-0.1-0.1c0,0,0,0,0,0c0,0,0,0,0-0.1c0-0.1-0.1-0.1-0.1-0.2c0-0.1-0.1-0.1-0.1-0.2
			c-0.1-0.3-0.2-0.6-0.3-1c-0.1-0.4-0.1-0.7-0.1-1.1c0,0,0,0,0-0.1c0,0,0,0,0-0.1c0,0,0-0.1,0-0.1c0,0,0-0.1,0-0.1l0-0.1l0-0.1
			c0,0,0-0.1,0-0.1c0,0,0-0.1,0-0.1l0-0.1l0-0.1c0,0,0-0.1,0-0.1c0.1-0.4,0.3-0.7,0.5-1.1c0.2-0.3,0.4-0.6,0.7-0.9
			c0,0,0.1-0.1,0.1-0.1c0,0,0,0,0-0.1c0,0,0,0,0,0c0,0,0.1-0.1,0.1-0.1c0,0,0.1-0.1,0.1-0.1c0,0,0,0,0,0c0,0,0,0,0,0
			c0,0,0.1-0.1,0.1-0.1c0,0,0.1-0.1,0.1-0.1c0,0,0.1-0.1,0.1-0.1c0.2-0.2,0.5-0.4,0.7-0.6c0.1-0.1,0.2-0.2,0.3-0.2
			c0.1-0.1,0.2-0.1,0.3-0.2c0.2-0.1,0.4-0.2,0.5-0.3C40.1,8.1,40.2,8,40.3,8c0,0,0,0,0.1,0c0,0,0,0,0,0c0,0,0,0,0,0l0,0
			c0.3-0.2,0.8,0,1,0.3C41.6,8.6,41.4,9,41,9.2C41,9.2,41,9.2,41,9.2z"/>
		<path class="st6" d="M38.2,11.6C38.2,11.6,38.2,11.6,38.2,11.6C38.2,11.6,38.2,11.7,38.2,11.6c-0.1,0.1-0.1,0.1-0.2,0.2
			c0,0-0.1,0.1-0.1,0.1c0,0-0.1,0.1-0.1,0.2c0,0.1-0.1,0.1-0.1,0.2c-0.1,0.1-0.2,0.3-0.2,0.5c0,0,0,0,0,0.1c0,0,0,0.1,0,0.1
			c0,0.1,0,0.1,0,0.2c0,0.1,0,0.1,0,0.2c0,0.1,0,0.1,0,0.2c0,0,0,0.1,0,0.1c0,0,0,0.1,0,0.1c0,0.1,0,0.1,0,0.2c0,0.1,0,0.1,0,0.2
			c0,0,0,0.1,0,0.1c0,0,0,0,0,0c0,0,0,0,0,0c0,0.1,0,0.3,0,0.4c0,0,0,0.1,0,0.1c0,0,0,0,0,0l0,0c0,0,0,0.1,0,0.1c0,0,0,0.1,0,0.1
			c0,0,0,0.1,0,0.1c0,0,0,0.1,0,0.1c0,0,0,0.1,0,0.1l0,0c0,0,0,0,0,0c0,0,0,0.1,0,0.1c0,0,0,0,0,0l0,0l0,0.1l0,0.1
			c0.1,0.3,0.2,0.5,0.3,0.8c0,0.1,0.1,0.1,0.1,0.2c0,0,0,0.1,0,0.1c0,0,0,0.1,0.1,0.1c0,0,0,0.1,0.1,0.1c0,0,0,0.1,0.1,0.1
			c0,0,0,0.1,0.1,0.1c0,0,0,0,0,0c0,0,0,0,0,0c0,0.1,0.1,0.1,0.1,0.2c0,0.1,0.1,0.1,0.1,0.2c0,0.1,0.1,0.1,0.1,0.2
			c0,0,0,0.1,0.1,0.1c0,0,0,0,0,0c0,0,0,0,0,0c0,0,0.1,0.1,0.1,0.1c0,0,0.1,0.1,0.1,0.1c0,0,0.1,0.1,0.1,0.1c0,0,0.1,0.1,0.1,0.1
			c0,0,0.1,0.1,0.1,0.1c0,0,0.1,0.1,0.1,0.1c0,0,0.1,0.1,0.1,0.1c0,0,0.1,0.1,0.1,0.1c0.1,0.1,0.2,0.2,0.3,0.3
			c0.1,0.1,0.1,0.2,0.2,0.2c0,0.1,0.1,0.1,0.1,0.1s0,0-0.1-0.1c0,0-0.1,0-0.1-0.1c0,0-0.1-0.1-0.1-0.1c-0.1-0.1-0.2-0.2-0.3-0.3
			c0,0-0.1-0.1-0.1-0.1c0,0-0.1-0.1-0.1-0.1c0,0-0.1-0.1-0.1-0.1c0,0-0.1-0.1-0.1-0.1c0,0-0.1-0.1-0.1-0.1c0,0-0.1-0.1-0.1-0.1
			c-0.1-0.1-0.2-0.2-0.2-0.3c0,0,0,0,0,0c0,0,0,0,0,0c0,0,0,0-0.1-0.1c0-0.1-0.1-0.1-0.1-0.2c0-0.1-0.1-0.1-0.1-0.2
			c0-0.1-0.1-0.1-0.1-0.2c0,0,0,0,0,0c0,0,0,0,0,0c0,0,0-0.1-0.1-0.1c0,0,0-0.1-0.1-0.1c0,0,0-0.1-0.1-0.1c0,0,0-0.1-0.1-0.1
			c0,0,0-0.1-0.1-0.1c0-0.1-0.1-0.1-0.1-0.2c-0.1-0.3-0.3-0.5-0.4-0.8c-0.1-0.3-0.2-0.6-0.2-0.8c0,0,0-0.1,0-0.1l0,0l0,0l0-0.1
			c0,0,0,0,0-0.1c0,0,0,0,0-0.1c0,0,0-0.1,0-0.1c0,0,0-0.1,0-0.1c0,0,0-0.1,0-0.1c0,0,0-0.1,0-0.1c0,0,0-0.1,0-0.1c0,0,0,0,0-0.1
			c0,0,0,0,0-0.1c0,0,0-0.1,0-0.1c0-0.1,0-0.1,0-0.2c0-0.1,0-0.1,0-0.2c0-0.1,0-0.1,0-0.2c0-0.1,0-0.1,0-0.2c0-0.1,0-0.1,0.1-0.2
			c0-0.1,0.1-0.2,0.1-0.3c0.1-0.2,0.2-0.4,0.3-0.5c0.1-0.1,0.1-0.1,0.1-0.2c0-0.1,0.1-0.1,0.1-0.2C38,11.8,38.1,11.7,38.2,11.6
			C38.2,11.6,38.2,11.6,38.2,11.6z"/>
		<path class="st6" d="M46.6,16.9C46.6,16.9,46.6,16.9,46.6,16.9c-0.1,0.1-0.2,0.2-0.3,0.3c0,0-0.1,0.1-0.1,0.1
			c-0.1,0-0.1,0.1-0.2,0.2c0,0,0,0.1-0.1,0.1c0,0,0,0.1-0.1,0.1c0,0.1-0.1,0.1-0.1,0.2c0,0.1,0,0.1,0,0.2c0,0,0,0,0,0c0,0,0,0,0,0
			l0,0l0,0c0,0,0,0,0,0c0,0,0,0,0,0c0,0.1,0.1,0.1,0.1,0.1c0,0,0.1,0.1,0.1,0.1c0,0,0,0,0,0c0,0,0,0,0,0c0,0,0,0,0,0c0,0,0,0,0,0
			c0,0,0.1,0.1,0.1,0.1c0,0,0.1,0,0.1,0.1c0,0,0,0,0,0s0,0,0,0c0,0,0,0-0.1,0c0,0-0.1,0-0.1,0c0,0-0.1,0-0.1,0c0,0-0.1,0-0.1,0
			c-0.1,0-0.1-0.1-0.2-0.1c-0.1,0-0.1-0.1-0.2-0.1c0,0,0,0,0,0c0,0,0,0,0-0.1c0,0-0.1-0.1-0.1-0.1c0-0.1,0-0.1,0-0.2
			c0-0.1,0-0.1,0-0.2c0-0.1,0.1-0.2,0.1-0.3c0,0,0.1-0.1,0.1-0.1c0,0,0.1-0.1,0.1-0.1c0.1-0.1,0.1-0.1,0.2-0.1
			c0.1,0,0.1-0.1,0.2-0.1c0.1-0.1,0.2-0.1,0.3-0.1C46.6,16.9,46.6,16.9,46.6,16.9z"/>
		<path class="st2" d="M14.2,7.9c0-0.1,0-0.2,0.1-0.3c0.3-1,0.3-1.3,0.7-1.9C14.8,5.1,14,4,14,4c-1.5-2.8-4.1-4.1-4.1-4.1
			C7.8-0.9,8.6,1.6,8.6,1.6s0.8,2.1,0.9,3.6c0.1,1.6-0.8,2.4-0.8,2.4S8.4,8.3,6.4,9.9c-2,1.5-0.3,2.5-0.3,2.5
			c1.9,0.8,6.4-1.5,6.4-1.5c0.8-0.4,1.4-0.7,1.7-1.1c0,0,0-0.1,0.1-0.1C14.1,9.3,14,9,14.2,7.9z"/>
		<path class="st6" d="M14.8,5.6C14.8,5.6,14.8,5.5,14.8,5.6c-0.1-0.1-0.1-0.2-0.2-0.3c0,0-0.1-0.1-0.1-0.1c0-0.1-0.1-0.1-0.1-0.2
			c-0.1-0.1-0.2-0.3-0.3-0.4C14,4.5,14,4.4,13.9,4.4c0,0-0.1-0.1-0.1-0.1c0,0-0.1-0.1-0.1-0.1C13.7,4,13.6,4,13.6,3.9
			c-0.1-0.1-0.1-0.2-0.2-0.3c-0.1-0.2-0.3-0.4-0.4-0.5c0,0-0.1-0.1-0.1-0.1c0,0-0.1-0.1-0.1-0.1c0,0,0,0-0.1-0.1l-0.1-0.1
			c0,0-0.1-0.1-0.1-0.1c0,0-0.1-0.1-0.1-0.1c0,0-0.1-0.1-0.1-0.1C12.1,2.2,12.1,2.1,12,2c0,0-0.1-0.1-0.1-0.1c0,0,0,0-0.1-0.1
			c0,0,0,0-0.1-0.1c0,0-0.1-0.1-0.1-0.1c0,0,0,0-0.1-0.1c0,0,0,0-0.1-0.1c-0.1-0.1-0.2-0.2-0.2-0.2c-0.1-0.1-0.2-0.1-0.2-0.2
			c-0.2-0.1-0.3-0.3-0.4-0.4c-0.1-0.1-0.1-0.1-0.2-0.2c-0.1-0.1-0.1-0.1-0.2-0.1c0,0-0.1,0-0.1-0.1c0,0-0.1,0-0.1-0.1
			c-0.1,0-0.1-0.1-0.1-0.1C9.8,0.1,9.7,0.1,9.7,0c0,0-0.1,0-0.1,0s0,0,0.1,0c0,0,0.1,0,0.1,0c0,0,0.1,0,0.1,0.1c0,0,0.1,0.1,0.2,0.1
			c0,0,0.1,0,0.1,0.1c0,0,0.1,0,0.1,0.1c0.1,0,0.1,0.1,0.2,0.1c0.1,0,0.1,0.1,0.2,0.2c0.1,0.1,0.3,0.2,0.5,0.4
			c0.1,0.1,0.2,0.1,0.2,0.2c0.1,0.1,0.2,0.1,0.3,0.2c0.2,0.2,0.3,0.3,0.5,0.5c0,0,0,0,0.1,0.1c0,0,0,0,0.1,0.1c0,0,0.1,0.1,0.1,0.1
			c0,0,0.1,0.1,0.1,0.1l0.1,0.1c0,0,0,0,0.1,0.1c0.2,0.2,0.3,0.4,0.5,0.5c0,0,0.1,0.1,0.1,0.1c0,0,0.1,0.1,0.1,0.1c0,0,0,0,0.1,0.1
			c0,0,0,0,0.1,0.1c0,0,0.1,0.1,0.1,0.1c0,0,0.1,0.1,0.1,0.1c0,0,0.1,0.1,0.1,0.1c0.1,0.1,0.1,0.2,0.2,0.3c0.1,0.2,0.2,0.3,0.3,0.5
			c0,0,0,0.1,0.1,0.1c0,0,0,0.1,0.1,0.1c0,0.1,0.1,0.1,0.1,0.2c0.1,0.1,0.1,0.2,0.2,0.3C14.7,5.4,14.7,5.4,14.8,5.6
			C14.7,5.5,14.8,5.5,14.8,5.6C14.8,5.6,14.8,5.6,14.8,5.6z"/>
		<path class="st6" d="M14.6,5.8C14.6,5.8,14.6,5.8,14.6,5.8c-0.1-0.1-0.1-0.2-0.2-0.3c-0.1-0.1-0.1-0.2-0.2-0.3
			C14,5.1,13.9,5,13.8,4.8c-0.1-0.1-0.1-0.1-0.2-0.2c0,0-0.1-0.1-0.1-0.1c0,0-0.1-0.1-0.1-0.1C13.3,4.2,13.1,4,13,3.9
			c0,0-0.1-0.1-0.1-0.1c0,0-0.1-0.1-0.1-0.1c-0.1-0.1-0.2-0.2-0.2-0.3c0,0-0.1-0.1-0.1-0.1c0,0-0.1-0.1-0.1-0.1
			C12.2,3,12.1,2.9,12,2.8l-0.1-0.1l-0.1-0.1c0,0-0.1-0.1-0.1-0.1c-0.1-0.1-0.2-0.2-0.3-0.3c-0.1-0.1-0.2-0.2-0.3-0.3
			c0,0-0.1-0.1-0.1-0.1c0,0-0.1-0.1-0.1-0.1c0,0-0.1-0.1-0.1-0.1c0,0-0.1-0.1-0.1-0.1c0,0-0.1-0.1-0.1-0.1c0,0-0.1-0.1-0.1-0.1
			c0,0-0.1-0.1-0.1-0.1c0,0-0.1-0.1-0.1-0.1C10.1,1,10.1,1,10,0.9C9.9,0.8,9.8,0.8,9.8,0.7c0,0-0.1-0.1-0.1-0.1c0,0-0.1,0-0.1-0.1
			c0,0-0.1,0-0.1-0.1c0,0-0.1,0-0.1-0.1c-0.1,0-0.1-0.1-0.2-0.1c0,0,0,0,0,0c0,0,0,0,0,0c0,0,0,0-0.1,0c0,0-0.1,0-0.1-0.1
			c-0.1,0-0.1,0-0.1,0s0,0,0.1,0c0,0,0.1,0,0.1,0.1c0,0,0,0,0.1,0c0,0,0,0,0,0c0,0,0,0,0,0c0,0,0.1,0.1,0.2,0.1c0,0,0.1,0,0.1,0.1
			c0,0,0.1,0,0.1,0.1c0,0,0.1,0,0.1,0.1c0,0,0.1,0,0.1,0.1c0.1,0,0.1,0.1,0.2,0.2c0.1,0.1,0.2,0.1,0.2,0.2c0,0,0.1,0.1,0.1,0.1
			c0,0,0.1,0.1,0.1,0.1c0,0,0,0,0.1,0.1c0,0,0,0,0.1,0.1c0,0,0.1,0.1,0.1,0.1c0,0,0,0,0.1,0.1c0,0,0,0,0.1,0.1c0,0,0.1,0.1,0.1,0.1
			c0,0,0.1,0.1,0.1,0.1c0,0,0.1,0.1,0.1,0.1c0.1,0.1,0.2,0.2,0.3,0.3c0,0,0.1,0.1,0.1,0.1c0,0,0.1,0.1,0.1,0.1c0,0,0.1,0.1,0.1,0.1
			l0.1,0.1l0.1,0.1c0.1,0.1,0.2,0.2,0.3,0.3c0,0,0.1,0.1,0.1,0.1c0,0,0.1,0.1,0.1,0.1c0.2,0.2,0.3,0.4,0.5,0.5
			c0.1,0.2,0.3,0.4,0.4,0.5c0.1,0.2,0.3,0.3,0.4,0.5c0,0,0.1,0.1,0.1,0.1C14,4.9,14,5,14.1,5c0,0.1,0.1,0.1,0.1,0.2
			c0.1,0.1,0.2,0.2,0.2,0.3C14.5,5.6,14.5,5.7,14.6,5.8C14.6,5.8,14.6,5.8,14.6,5.8z"/>
		<path class="st6" d="M14.3,6.1C14.3,6.1,14.2,6.1,14.3,6.1c-0.1-0.1-0.1-0.2-0.2-0.2c-0.1-0.1-0.2-0.2-0.2-0.3
			c-0.1-0.1-0.2-0.2-0.3-0.4c0,0-0.1-0.1-0.1-0.1c0,0-0.1-0.1-0.1-0.1c-0.1-0.1-0.1-0.1-0.2-0.2C13,4.8,13,4.7,12.9,4.6
			c-0.1-0.1-0.1-0.2-0.2-0.2c-0.2-0.2-0.3-0.3-0.5-0.5c-0.1-0.1-0.2-0.2-0.2-0.2c-0.1-0.1-0.2-0.2-0.3-0.2c0,0-0.1-0.1-0.1-0.1
			c0,0-0.1-0.1-0.1-0.1c-0.1-0.1-0.2-0.2-0.3-0.2c-0.1-0.1-0.2-0.2-0.3-0.2c0,0-0.1-0.1-0.1-0.1c0,0-0.1-0.1-0.1-0.1
			c0,0-0.1-0.1-0.1-0.1c0,0-0.1-0.1-0.1-0.1c0,0-0.1-0.1-0.1-0.1c0,0-0.1-0.1-0.1-0.1C10.1,2,10.1,2,10,2c0,0-0.1-0.1-0.1-0.1
			c0,0-0.1-0.1-0.1-0.1c0,0,0,0-0.1,0c0,0,0,0-0.1,0C9.6,1.7,9.6,1.6,9.5,1.6c-0.1,0-0.1-0.1-0.2-0.1c-0.1,0-0.1-0.1-0.2-0.1
			C9.1,1.3,9,1.3,9,1.2C8.9,1.2,8.8,1.1,8.8,1.1c0,0-0.1,0-0.1,0s0,0,0.1,0c0,0,0.1,0,0.1,0c0,0,0.1,0,0.1,0.1c0,0,0.1,0.1,0.2,0.1
			c0.1,0,0.1,0.1,0.2,0.1c0.1,0,0.1,0.1,0.2,0.1c0.1,0,0.1,0.1,0.2,0.1c0,0,0,0,0.1,0c0,0,0,0,0.1,0c0,0,0.1,0.1,0.1,0.1
			c0,0,0.1,0.1,0.1,0.1c0,0,0.1,0.1,0.1,0.1c0,0,0.1,0.1,0.1,0.1c0,0,0.1,0.1,0.1,0.1c0,0,0.1,0.1,0.1,0.1c0,0,0.1,0.1,0.1,0.1
			c0,0,0.1,0.1,0.1,0.1c0,0,0.1,0.1,0.1,0.1c0,0,0.1,0.1,0.1,0.1c0,0,0.1,0.1,0.1,0.1c0,0,0,0,0.1,0.1c0,0,0,0,0.1,0.1
			c0,0,0.1,0.1,0.1,0.1c0,0,0.1,0.1,0.1,0.1c0,0,0.1,0.1,0.1,0.1c0.1,0.1,0.2,0.2,0.3,0.2c0,0,0.1,0.1,0.1,0.1c0,0,0,0,0.1,0.1
			c0,0,0,0,0.1,0.1c0,0,0.1,0.1,0.1,0.1c0,0,0.1,0.1,0.1,0.1c0,0,0.1,0.1,0.1,0.1c0,0,0.1,0.1,0.1,0.1c0,0,0.1,0.1,0.1,0.1
			c0,0,0.1,0.1,0.1,0.1c0,0,0.1,0.1,0.1,0.1c0,0,0.1,0.1,0.1,0.1c0.1,0.2,0.3,0.3,0.4,0.4c0,0,0.1,0.1,0.1,0.1c0,0,0.1,0.1,0.1,0.1
			c0,0.1,0.1,0.1,0.1,0.2c0.1,0.1,0.2,0.2,0.2,0.3C14.1,5.9,14.2,6,14.3,6.1C14.2,6.1,14.2,6.1,14.3,6.1C14.3,6.1,14.3,6.1,14.3,6.1
			z"/>
		<path class="st6" d="M14.2,6.5C14.2,6.5,14.2,6.4,14.2,6.5C14.1,6.4,14,6.3,14,6.3c-0.1-0.1-0.1-0.1-0.2-0.2c0,0-0.1-0.1-0.1-0.1
			c0,0-0.1-0.1-0.2-0.2c-0.1-0.1-0.2-0.2-0.4-0.3C13,5.3,12.8,5.1,12.7,5c0,0-0.1-0.1-0.1-0.1c0,0-0.1-0.1-0.1-0.1
			c-0.1-0.1-0.1-0.1-0.2-0.2c0,0-0.1-0.1-0.1-0.1c0,0-0.1-0.1-0.1-0.1c-0.1-0.1-0.2-0.1-0.2-0.2c0,0-0.1-0.1-0.1-0.1
			c0,0-0.1-0.1-0.1-0.1c-0.1-0.1-0.2-0.1-0.2-0.2c-0.1-0.1-0.2-0.1-0.2-0.2c-0.1-0.1-0.2-0.1-0.2-0.2c-0.1-0.1-0.2-0.1-0.2-0.2
			c-0.1-0.1-0.1-0.1-0.2-0.2C10.3,3.1,10.3,3,10.2,3c0,0-0.1,0-0.1-0.1c0,0-0.1,0-0.1-0.1c0,0-0.1,0-0.1-0.1c0,0-0.1,0-0.1-0.1
			c-0.1,0-0.1-0.1-0.2-0.1c-0.1,0-0.1-0.1-0.1-0.1c0,0-0.1-0.1-0.1-0.1c-0.1,0-0.1-0.1-0.2-0.1c0,0-0.1,0-0.1,0s0,0,0.1,0
			c0,0,0.1,0.1,0.2,0.1c0.1,0,0.2,0.1,0.3,0.2c0.1,0,0.1,0.1,0.2,0.1c0,0,0.1,0,0.1,0.1c0,0,0.1,0,0.1,0.1c0,0,0.1,0,0.1,0.1
			c0,0,0.1,0,0.1,0.1c0.1,0,0.1,0.1,0.2,0.1c0.1,0.1,0.2,0.1,0.2,0.2c0.1,0.1,0.2,0.1,0.2,0.2c0.1,0.1,0.2,0.1,0.2,0.2
			c0.1,0.1,0.2,0.1,0.2,0.2c0.1,0.1,0.2,0.1,0.2,0.2c0,0,0.1,0.1,0.1,0.1c0,0,0.1,0.1,0.1,0.1c0.1,0.1,0.2,0.1,0.2,0.2
			c0,0,0.1,0.1,0.1,0.1c0,0,0.1,0.1,0.1,0.1c0.1,0.1,0.1,0.1,0.2,0.2c0.1,0.1,0.1,0.1,0.2,0.2C13,5,13.1,5.2,13.2,5.3
			c0.1,0.1,0.2,0.3,0.3,0.4c0.1,0.1,0.2,0.2,0.3,0.3C13.9,6.1,14,6.2,14,6.2C14.1,6.3,14.1,6.4,14.2,6.5C14.2,6.4,14.2,6.5,14.2,6.5
			z"/>
		<path class="st6" d="M13.9,9.7C13.9,9.7,13.9,9.7,13.9,9.7C13.9,9.7,13.9,9.7,13.9,9.7c-0.1,0.1-0.2,0.1-0.3,0.2
			c-0.1,0.1-0.2,0.1-0.3,0.2c-0.1,0-0.1,0.1-0.2,0.1c0,0-0.1,0-0.1,0.1c0,0-0.1,0-0.1,0.1c-0.2,0.1-0.3,0.2-0.5,0.3
			c-0.1,0-0.2,0.1-0.3,0.1c0,0-0.1,0-0.1,0.1c0,0-0.1,0-0.2,0.1c-0.1,0-0.1,0-0.2,0.1c0,0-0.1,0-0.1,0c0,0-0.1,0-0.1,0
			c-0.1,0-0.1,0-0.2,0.1c-0.1,0-0.1,0-0.2,0.1c-0.1,0-0.1,0-0.2,0.1c-0.1,0-0.1,0-0.2,0.1c0,0-0.1,0-0.1,0c0,0-0.1,0-0.1,0
			c-0.1,0-0.1,0-0.2,0.1c-0.1,0-0.1,0-0.2,0.1c-0.1,0-0.1,0-0.2,0.1c-0.1,0-0.1,0-0.2,0.1c-0.1,0-0.1,0-0.2,0.1
			c-0.2,0.1-0.5,0.1-0.7,0.2c-0.1,0-0.1,0-0.2,0c0,0-0.1,0-0.1,0c0,0-0.1,0-0.1,0c-0.1,0-0.1,0-0.2,0c0,0-0.1,0-0.1,0
			c0,0-0.1,0-0.1,0c-0.1,0-0.1,0-0.2,0c0,0-0.1,0-0.1,0c0,0-0.1,0-0.1,0c0,0-0.1,0-0.1,0c0,0-0.1,0-0.1,0c-0.1,0-0.2,0-0.3,0
			c-0.1,0-0.2,0-0.2,0c0,0-0.1,0-0.1,0c0,0-0.1,0-0.1,0c-0.1,0-0.1,0-0.2,0c0,0-0.1,0-0.1,0c0,0,0,0-0.1,0c0,0-0.1,0-0.1,0
			c-0.1,0-0.1,0-0.1,0s0,0,0.1,0c0.1,0,0.1,0,0.2,0c0.1,0,0.1,0,0.2,0c0,0,0.1,0,0.1,0c0,0,0.1,0,0.1,0c0.1,0,0.2,0,0.2,0
			c0.1,0,0.2,0,0.3,0c0.2,0,0.4-0.1,0.6-0.1c0.1,0,0.2-0.1,0.3-0.1c0.1,0,0.2-0.1,0.3-0.1c0,0,0.1,0,0.1,0c0,0,0.1,0,0.1,0
			c0.1,0,0.1,0,0.2,0c0.1,0,0.1,0,0.2-0.1c0.1,0,0.1,0,0.2-0.1c0.1,0,0.2-0.1,0.3-0.1c0.1,0,0.1,0,0.2-0.1c0.1,0,0.1,0,0.2-0.1
			c0.1,0,0.1,0,0.2-0.1c0,0,0.1,0,0.1,0c0,0,0.1,0,0.1,0c0.1,0,0.1,0,0.2-0.1c0.1,0,0.1,0,0.2-0.1c0.2-0.1,0.4-0.2,0.6-0.3
			c0.1,0,0.2-0.1,0.3-0.1c0.1,0,0.2-0.1,0.3-0.1c0,0,0.1,0,0.1-0.1c0,0,0.1,0,0.1-0.1c0.1,0,0.2-0.1,0.3-0.1
			c0.2-0.1,0.3-0.1,0.4-0.2c0.1,0,0.1-0.1,0.2-0.1c0.1,0,0.1-0.1,0.2-0.1C13.7,9.8,13.8,9.8,13.9,9.7C13.9,9.7,13.9,9.7,13.9,9.7z"
			/>
		<path class="st6" d="M13.8,9.4C13.8,9.4,13.8,9.5,13.8,9.4c-0.1,0.1-0.2,0.1-0.3,0.2c-0.1,0.1-0.2,0.1-0.3,0.2
			c-0.1,0-0.1,0.1-0.2,0.1c0,0-0.1,0-0.1,0.1c0,0-0.1,0-0.1,0.1c-0.2,0.1-0.3,0.2-0.5,0.3c-0.2,0.1-0.4,0.2-0.6,0.3
			c-0.1,0-0.2,0.1-0.3,0.1c-0.1,0-0.2,0.1-0.3,0.1c-0.1,0-0.1,0-0.2,0.1c-0.1,0-0.1,0-0.2,0.1c-0.1,0-0.2,0.1-0.4,0.1l-0.1,0l-0.1,0
			c-0.1,0-0.1,0-0.2,0.1c-0.1,0-0.1,0-0.2,0.1c-0.1,0-0.1,0-0.2,0.1c-0.1,0-0.2,0.1-0.4,0.1c-0.1,0-0.1,0-0.2,0c-0.1,0-0.1,0-0.2,0
			c-0.1,0-0.1,0-0.2,0c0,0-0.1,0-0.1,0c0,0-0.1,0-0.1,0c-0.1,0-0.1,0-0.2,0c0,0-0.1,0-0.1,0c0,0-0.1,0-0.1,0c-0.1,0-0.1,0-0.2,0
			c-0.1,0-0.1,0-0.2,0c-0.1,0-0.2,0-0.3,0c-0.1,0-0.2,0-0.3,0c0,0-0.1,0-0.1,0c0,0-0.1,0-0.1,0c0,0-0.1,0-0.1,0c0,0-0.1,0-0.1,0
			c-0.1,0-0.1,0-0.2,0c0,0,0,0,0,0c0,0,0,0,0,0c0,0,0,0-0.1,0c0,0-0.1,0-0.1,0c-0.1,0-0.1,0-0.1,0s0,0,0.1,0c0,0,0.1,0,0.1,0
			c0,0,0,0,0.1,0c0,0,0,0,0,0c0,0,0,0,0,0c0.1,0,0.1,0,0.2,0c0,0,0.1,0,0.1,0c0,0,0.1,0,0.1,0c0,0,0.1,0,0.1,0c0,0,0.1,0,0.1,0
			c0.1,0,0.2,0,0.3,0c0.1,0,0.2,0,0.3-0.1c0.1,0,0.1,0,0.2,0c0.1,0,0.1,0,0.2,0c0,0,0.1,0,0.1,0c0,0,0.1,0,0.1,0c0.1,0,0.1,0,0.2,0
			c0.1,0,0.1,0,0.2,0c0.1,0,0.1,0,0.2,0c0.1,0,0.1,0,0.2,0c0.1,0,0.1,0,0.2,0c0.1,0,0.1,0,0.2,0c0.1,0,0.1,0,0.2,0
			c0.1,0,0.2-0.1,0.4-0.1c0.1,0,0.1,0,0.2-0.1l0.1,0l0.1,0c0.1,0,0.2-0.1,0.4-0.1c0.1,0,0.1,0,0.2-0.1c0.1,0,0.1,0,0.2-0.1
			c0.1,0,0.2-0.1,0.3-0.1c0.1,0,0.1,0,0.2-0.1c0.1,0,0.1,0,0.2-0.1c0.2-0.1,0.4-0.2,0.6-0.2c0,0,0.1,0,0.1-0.1c0,0,0.1,0,0.1-0.1
			c0.1,0,0.2-0.1,0.3-0.1c0.2-0.1,0.3-0.1,0.5-0.2c0.1-0.1,0.3-0.1,0.4-0.2C13.6,9.5,13.7,9.5,13.8,9.4C13.8,9.5,13.8,9.4,13.8,9.4z
			"/>
		<path class="st6" d="M13.5,9.1C13.5,9.1,13.5,9.2,13.5,9.1C13.5,9.2,13.5,9.2,13.5,9.1c-0.1,0.1-0.2,0.1-0.3,0.1
			c-0.1,0-0.2,0.1-0.3,0.1c-0.1,0-0.1,0.1-0.2,0.1c-0.1,0-0.1,0.1-0.2,0.1c-0.2,0.1-0.3,0.1-0.5,0.2c-0.2,0.1-0.4,0.1-0.6,0.2
			c-0.1,0-0.1,0-0.2,0.1c-0.1,0-0.1,0-0.2,0c-0.1,0-0.2,0.1-0.3,0.1c-0.1,0-0.1,0-0.2,0c-0.1,0-0.1,0-0.2,0c-0.1,0-0.1,0-0.2,0
			c-0.1,0-0.1,0-0.2,0c-0.1,0-0.2,0.1-0.3,0.1c-0.1,0-0.1,0-0.2,0c-0.1,0-0.1,0-0.2,0c-0.1,0-0.1,0-0.2,0c-0.1,0-0.1,0-0.2,0
			c-0.1,0-0.1,0-0.2,0c-0.1,0-0.1,0-0.2,0c-0.1,0-0.2,0-0.3,0c-0.1,0-0.1,0-0.2,0c-0.1,0-0.1,0-0.2,0c0,0-0.1,0-0.1,0
			c0,0-0.1,0-0.1,0c0,0-0.1,0-0.1,0c0,0,0,0-0.1,0c0,0,0,0-0.1,0c0,0-0.1,0-0.1,0c0,0-0.1,0-0.1,0c-0.1,0-0.2,0-0.2,0c0,0,0,0-0.1,0
			c0,0,0,0-0.1,0c0,0-0.1,0-0.1,0c-0.1,0-0.1,0-0.2,0c-0.1,0-0.2,0-0.2,0c-0.1,0-0.1,0-0.1,0s0,0,0.1,0c0.1,0,0.1,0,0.2,0
			c0.1,0,0.1,0,0.2,0c0.1,0,0.1,0,0.2,0c0.1,0,0.1,0,0.2,0c0.1,0,0.2,0,0.2,0c0,0,0.1,0,0.1,0c0,0,0.1,0,0.1,0c0,0,0.1,0,0.1,0
			c0,0,0.1,0,0.1,0c0,0,0.1,0,0.1,0c0,0,0.1,0,0.2,0c0.1,0,0.1,0,0.2,0c0.1,0,0.1,0,0.2,0c0.1,0,0.1,0,0.2,0c0.1,0,0.1,0,0.2,0
			c0.1,0,0.1,0,0.2,0c0.1,0,0.1,0,0.2,0c0.1,0,0.1,0,0.2,0c0.1,0,0.1,0,0.2,0c0.1,0,0.2-0.1,0.3-0.1c0.1,0,0.1,0,0.2,0
			c0.1,0,0.1,0,0.2,0c0.1,0,0.2-0.1,0.3-0.1c0.2-0.1,0.4-0.1,0.6-0.2c0.2-0.1,0.4-0.1,0.6-0.2c0.1,0,0.2-0.1,0.3-0.1
			c0,0,0.1,0,0.1,0c0,0,0.1,0,0.1,0c0.2-0.1,0.3-0.1,0.4-0.1c0.1,0,0.2-0.1,0.3-0.1C13.3,9.2,13.4,9.2,13.5,9.1
			C13.5,9.2,13.5,9.1,13.5,9.1z"/>
		<path class="st6" d="M13.6,8.8C13.6,8.8,13.6,8.8,13.6,8.8c-0.1,0-0.2,0.1-0.2,0.1c-0.1,0-0.2,0.1-0.3,0.1c-0.1,0-0.2,0.1-0.4,0.1
			c-0.1,0-0.3,0.1-0.5,0.2c-0.1,0-0.2,0.1-0.3,0.1c0,0-0.1,0-0.1,0c0,0-0.1,0-0.1,0c-0.1,0-0.2,0-0.3,0.1c0,0-0.1,0-0.1,0
			c0,0-0.1,0-0.1,0c-0.1,0-0.2,0-0.3,0.1c-0.1,0-0.2,0-0.3,0.1c-0.1,0-0.2,0-0.3,0.1c0,0-0.1,0-0.1,0c0,0-0.1,0-0.1,0
			c-0.2,0-0.4,0.1-0.6,0.1c0,0-0.1,0-0.1,0c0,0-0.1,0-0.1,0c-0.1,0-0.2,0-0.3,0c-0.1,0-0.2,0-0.3,0c-0.1,0-0.2,0-0.2,0
			c-0.1,0-0.1,0-0.2,0c-0.1,0-0.1,0-0.2,0c-0.1,0-0.2,0-0.3,0c-0.1,0-0.2,0-0.2,0c0,0-0.1,0-0.1,0s0,0,0.1,0c0,0,0.1,0,0.2,0
			c0,0,0.1,0,0.1,0c0.1,0,0.1,0,0.2,0c0.1,0,0.1,0,0.2,0c0,0,0.1,0,0.1,0c0,0,0.1,0,0.1,0c0.1,0,0.2,0,0.2,0c0.1,0,0.2,0,0.2,0
			c0.1,0,0.2,0,0.3,0c0.1,0,0.2,0,0.3,0c0,0,0,0,0.1,0c0,0,0,0,0.1,0c0,0,0.1,0,0.1,0c0,0,0.1,0,0.1,0c0,0,0.1,0,0.1,0
			c0.1,0,0.2,0,0.3-0.1c0.1,0,0.2,0,0.3-0.1c0.2,0,0.4-0.1,0.6-0.1c0.2,0,0.4-0.1,0.6-0.1c0.1,0,0.2,0,0.3-0.1c0.1,0,0.2,0,0.3-0.1
			c0,0,0.1,0,0.1,0c0,0,0.1,0,0.1,0c0.1,0,0.2,0,0.2-0.1c0.1,0,0.1,0,0.2-0.1c0,0,0.1,0,0.1,0c0,0,0.1,0,0.1,0
			c0.1,0,0.2-0.1,0.3-0.1C13.4,8.8,13.5,8.8,13.6,8.8C13.6,8.8,13.6,8.8,13.6,8.8z"/>
		<path class="st6" d="M14.1,6.9C14.1,6.9,14.1,6.8,14.1,6.9c-0.1-0.1-0.1-0.1-0.2-0.2c-0.1-0.1-0.1-0.1-0.2-0.2
			c-0.1-0.1-0.2-0.2-0.3-0.3c0,0-0.1,0-0.1-0.1c0,0-0.1,0-0.1-0.1C13.2,6,13.1,6,13,5.9c-0.1-0.1-0.3-0.2-0.4-0.3
			c-0.1-0.1-0.1-0.1-0.2-0.2c0,0-0.1-0.1-0.1-0.1c0,0-0.1-0.1-0.1-0.1c-0.1-0.1-0.1-0.1-0.2-0.2C12,5,11.9,5,11.9,5
			c0,0-0.1-0.1-0.1-0.1c-0.1-0.1-0.1-0.1-0.2-0.2c0,0-0.1-0.1-0.1-0.1c0,0-0.1-0.1-0.1-0.1c0,0-0.1-0.1-0.1-0.1c0,0-0.1-0.1-0.1-0.1
			c0,0-0.1-0.1-0.1-0.1c0,0-0.1-0.1-0.1-0.1c0,0-0.1-0.1-0.1-0.1c0,0-0.1-0.1-0.1-0.1c-0.1,0-0.1-0.1-0.2-0.1
			c-0.1,0-0.1-0.1-0.2-0.1c-0.1,0-0.1-0.1-0.2-0.1C10,3.6,10,3.6,9.9,3.5c-0.1,0-0.1-0.1-0.2-0.1c0,0-0.1-0.1-0.1-0.1
			c0,0-0.1-0.1-0.1-0.1c-0.1,0-0.1-0.1-0.2-0.1c0,0-0.1,0-0.1,0s0,0,0.1,0c0,0,0.1,0,0.2,0.1c0.1,0,0.2,0.1,0.3,0.1
			c0.1,0,0.1,0.1,0.2,0.1c0,0,0.1,0,0.1,0c0,0,0.1,0,0.1,0.1c0.1,0,0.1,0.1,0.2,0.1c0.1,0,0.1,0.1,0.2,0.1c0.1,0,0.1,0.1,0.2,0.1
			c0,0,0.1,0,0.1,0.1c0,0,0.1,0,0.1,0.1c0,0,0.1,0,0.1,0.1c0,0,0.1,0.1,0.1,0.1c0,0,0.1,0.1,0.1,0.1c0,0,0.1,0.1,0.1,0.1
			c0,0,0.1,0.1,0.1,0.1c0,0,0.1,0.1,0.1,0.1c0.1,0.1,0.2,0.1,0.2,0.2c0,0,0.1,0.1,0.1,0.1c0,0,0.1,0.1,0.1,0.1c0,0,0.1,0.1,0.1,0.1
			c0,0,0.1,0.1,0.1,0.1c0.1,0.1,0.1,0.1,0.2,0.2c0,0,0.1,0.1,0.1,0.1c0,0,0.1,0.1,0.1,0.1c0.1,0.1,0.3,0.2,0.4,0.3
			c0.1,0.1,0.2,0.2,0.3,0.3c0,0.1,0.1,0.1,0.1,0.1c0,0,0.1,0.1,0.1,0.1c0.1,0.1,0.1,0.2,0.2,0.2C14,6.7,14,6.8,14.1,6.9
			C14.1,6.8,14.1,6.9,14.1,6.9z"/>
		<path class="st6" d="M14,7.3C14,7.3,13.9,7.3,14,7.3c-0.1-0.1-0.1-0.1-0.2-0.1c0,0-0.1,0-0.1-0.1c0,0-0.1-0.1-0.1-0.1
			c0,0,0,0-0.1,0c0,0,0,0-0.1-0.1c0,0-0.1-0.1-0.1-0.1c-0.1-0.1-0.2-0.2-0.3-0.2c0,0-0.1,0-0.1-0.1c0,0,0,0,0,0c0,0,0,0,0,0
			c-0.1,0-0.1-0.1-0.2-0.1c-0.1-0.1-0.2-0.2-0.4-0.3c-0.1,0-0.1-0.1-0.2-0.1c0,0-0.1,0-0.1-0.1l0,0l-0.1,0c-0.1,0-0.1-0.1-0.2-0.1
			c-0.1,0-0.1-0.1-0.2-0.1c-0.1-0.1-0.3-0.2-0.4-0.3C11,5.1,10.9,5,10.8,5c-0.1-0.1-0.2-0.1-0.3-0.2c-0.1,0-0.1-0.1-0.1-0.1
			c0,0-0.1-0.1-0.1-0.1C10.1,4.5,10,4.5,9.9,4.4c-0.1,0-0.1-0.1-0.1-0.1c0,0,0,0,0,0s0,0,0.1,0c0,0,0.1,0,0.2,0.1
			c0.1,0,0.1,0.1,0.2,0.1c0,0,0,0,0.1,0c0,0,0,0,0.1,0c0,0,0.1,0.1,0.2,0.1c0.1,0.1,0.2,0.1,0.3,0.2c0.1,0.1,0.3,0.1,0.4,0.2
			c0,0,0,0,0,0c0,0,0,0,0,0c0,0,0.1,0,0.1,0.1c0.1,0,0.1,0.1,0.2,0.1c0.1,0,0.1,0.1,0.2,0.1c0.1,0,0.1,0.1,0.2,0.1l0.1,0l0,0
			c0,0,0.1,0,0.1,0.1c0.1,0,0.1,0.1,0.2,0.1c0.1,0,0.1,0.1,0.2,0.1c0.1,0,0.1,0.1,0.2,0.1c0.1,0,0.1,0.1,0.2,0.1c0,0,0,0,0,0
			c0,0,0,0,0,0c0,0,0.1,0,0.1,0.1c0,0,0.1,0,0.1,0.1c0,0,0,0,0,0c0,0,0,0,0,0c0,0,0.1,0.1,0.1,0.1c0,0,0,0,0.1,0.1c0,0,0,0,0.1,0.1
			c0,0,0,0,0.1,0.1c0,0,0,0,0.1,0.1c0,0,0.1,0.1,0.1,0.1c0,0,0.1,0.1,0.1,0.1C13.8,7.2,13.9,7.2,14,7.3C13.9,7.2,13.9,7.2,14,7.3
			C14,7.3,14,7.3,14,7.3z"/>
		<path class="st6" d="M13.7,7.5C13.7,7.5,13.7,7.5,13.7,7.5c-0.1,0-0.1-0.1-0.2-0.1c-0.1,0-0.1-0.1-0.2-0.1c-0.1,0-0.2-0.1-0.3-0.1
			c-0.2-0.1-0.4-0.2-0.7-0.3c-0.1,0-0.1-0.1-0.2-0.1c-0.1,0-0.1-0.1-0.2-0.1c-0.1-0.1-0.3-0.1-0.4-0.2c-0.1-0.1-0.3-0.1-0.4-0.2
			c-0.1,0-0.1-0.1-0.2-0.1C11,6.1,11,6.1,10.9,6c-0.1-0.1-0.2-0.1-0.3-0.2c-0.1-0.1-0.2-0.1-0.3-0.2c-0.1-0.1-0.2-0.1-0.3-0.2
			c-0.1,0-0.1-0.1-0.2-0.1c-0.1,0-0.1-0.1-0.1-0.1c0,0,0,0,0,0s0,0,0,0c0,0,0.1,0,0.1,0.1c0.1,0,0.1,0.1,0.2,0.1
			c0.1,0,0.2,0.1,0.3,0.1c0.1,0,0.2,0.1,0.3,0.2c0.1,0.1,0.2,0.1,0.3,0.2c0.1,0,0.1,0.1,0.2,0.1c0.1,0,0.1,0.1,0.2,0.1
			c0.1,0.1,0.3,0.1,0.4,0.2c0.1,0.1,0.3,0.1,0.4,0.2c0.1,0,0.1,0.1,0.2,0.1c0.1,0,0.1,0.1,0.2,0.1c0.2,0.1,0.5,0.3,0.6,0.4
			c0.1,0.1,0.2,0.1,0.3,0.2c0.1,0,0.1,0.1,0.2,0.1C13.6,7.4,13.7,7.4,13.7,7.5C13.7,7.5,13.7,7.5,13.7,7.5z"/>
		<path class="st6" d="M13.6,7.9C13.6,7.9,13.6,7.9,13.6,7.9c-0.1,0-0.1,0-0.1,0c0,0-0.1,0-0.1,0c0,0-0.1,0-0.1,0c0,0-0.1,0-0.1,0
			c0,0,0,0-0.1,0c0,0,0,0-0.1,0c0,0,0,0-0.1,0c0,0-0.1,0-0.1,0c-0.1,0-0.1,0-0.2,0c0,0-0.1,0-0.1,0c0,0-0.1,0-0.1,0c0,0-0.1,0-0.1,0
			c0,0,0,0,0,0c0,0,0,0,0,0c-0.1,0-0.1,0-0.2,0c-0.1,0-0.1,0-0.2,0c-0.1,0-0.1,0-0.2,0c-0.1,0-0.1,0-0.2,0c0,0-0.1,0-0.1,0l-0.1,0
			l-0.1,0c-0.1,0-0.1,0-0.2,0c-0.1,0-0.1,0-0.2,0c-0.1,0-0.1,0-0.2,0c0,0-0.1,0-0.1,0c0,0,0,0,0,0c0,0,0,0,0,0
			c-0.1,0-0.3-0.1-0.4-0.1c-0.1,0-0.2-0.1-0.3-0.1c-0.1,0-0.1,0-0.1,0c0,0,0,0-0.1,0c0,0,0,0-0.1,0c-0.1,0-0.2-0.1-0.2-0.1
			c-0.1,0-0.1,0-0.1,0c0,0,0,0,0,0s0,0,0.1,0c0,0,0.1,0,0.1,0c0.1,0,0.1,0,0.2,0c0,0,0.1,0,0.1,0c0,0,0.1,0,0.1,0
			c0.1,0,0.2,0,0.3,0.1c0.1,0,0.2,0,0.4,0.1c0.1,0,0.3,0,0.4,0.1c0,0,0.1,0,0.1,0c0,0,0.1,0,0.1,0c0.1,0,0.1,0,0.2,0l0.1,0l0.1,0
			c0,0,0.1,0,0.1,0c0.1,0,0.1,0,0.2,0c0.1,0,0.3,0,0.4,0c0.1,0,0.1,0,0.2,0c0,0,0,0,0,0c0,0,0,0,0,0c0,0,0.1,0,0.1,0
			c0.1,0,0.2,0,0.3,0c0.1,0,0.1,0,0.2,0c0,0,0,0,0.1,0c0,0,0,0,0.1,0c0,0,0.1,0,0.1,0c0,0,0.1,0,0.1,0c0,0,0.1,0,0.1,0
			C13.5,7.9,13.6,7.9,13.6,7.9C13.6,7.9,13.6,7.9,13.6,7.9z"/>
		<path class="st6" d="M13.6,8.2C13.6,8.2,13.5,8.2,13.6,8.2c-0.1,0-0.1,0.1-0.2,0.1c-0.1,0-0.1,0-0.2,0.1c-0.1,0-0.2,0.1-0.3,0.1
			c-0.1,0-0.1,0-0.2,0c0,0-0.1,0-0.1,0c0,0-0.1,0-0.1,0c0,0-0.1,0-0.1,0c0,0-0.1,0-0.1,0c-0.1,0-0.1,0-0.2,0c-0.1,0-0.3,0-0.4,0
			c0,0-0.1,0-0.1,0c0,0-0.1,0-0.1,0c0,0-0.1,0-0.1,0c0,0-0.1,0-0.1,0l-0.1,0c0,0,0,0-0.1,0c0,0-0.1,0-0.1,0c0,0-0.1,0-0.1,0
			c0,0-0.1,0-0.1,0c-0.1,0-0.2,0-0.2,0c-0.1,0-0.1,0-0.2,0c-0.1,0-0.3,0-0.4-0.1c0,0-0.1,0-0.1,0c0,0-0.1,0-0.1,0
			c-0.1,0-0.1,0-0.2,0c-0.1,0-0.1,0-0.2,0c0,0-0.1,0-0.1,0c0,0,0,0-0.1,0c0,0-0.1,0-0.1,0c0,0,0,0-0.1,0c0,0,0,0-0.1,0
			c-0.1,0-0.1,0-0.1-0.1c0,0-0.1,0-0.1,0s0,0,0.1,0c0,0,0.1,0,0.2,0c0,0,0,0,0.1,0c0,0,0,0,0.1,0c0,0,0.1,0,0.1,0c0,0,0,0,0.1,0
			c0,0,0,0,0.1,0c0.1,0,0.1,0,0.2,0c0.1,0,0.1,0,0.2,0c0,0,0.1,0,0.1,0c0,0,0.1,0,0.1,0c0.1,0,0.3,0,0.4,0c0,0,0.1,0,0.1,0
			c0,0,0.1,0,0.1,0c0,0,0.1,0,0.1,0c0,0,0.1,0,0.1,0c0,0,0.1,0,0.1,0c0,0,0.1,0,0.1,0c0,0,0.1,0,0.1,0c0,0,0,0,0.1,0l0.1,0
			c0,0,0.1,0,0.1,0c0,0,0.1,0,0.1,0c0,0,0.1,0,0.1,0c0,0,0.1,0,0.1,0c0,0,0,0,0.1,0c0,0,0,0,0.1,0c0,0,0.1,0,0.1,0c0,0,0.1,0,0.1,0
			c0,0,0.1,0,0.1,0c0.1,0,0.1,0,0.2,0c0,0,0.1,0,0.1,0c0,0,0.1,0,0.1,0c0.1,0,0.2,0,0.4,0c0.1,0,0.2,0,0.3,0c0.1,0,0.2,0,0.2,0
			C13.4,8.2,13.5,8.2,13.6,8.2C13.5,8.2,13.6,8.2,13.6,8.2z"/>
		<path class="st6" d="M13.5,8.4C13.5,8.4,13.5,8.4,13.5,8.4c-0.1,0-0.1,0.1-0.2,0.1c-0.1,0-0.2,0.1-0.2,0.1c-0.1,0-0.2,0.1-0.3,0.1
			c-0.1,0-0.3,0.1-0.4,0.1c-0.1,0-0.3,0.1-0.5,0.1c0,0-0.1,0-0.1,0c0,0-0.1,0-0.1,0c-0.1,0-0.2,0-0.3,0c0,0-0.1,0-0.1,0
			c0,0-0.1,0-0.1,0c0,0-0.1,0-0.1,0l-0.1,0l-0.1,0c-0.1,0-0.2,0-0.3,0c0,0-0.1,0-0.1,0c0,0-0.1,0-0.1,0c0,0-0.1,0-0.1,0
			c0,0-0.1,0-0.1,0c0,0-0.1,0-0.1,0c0,0-0.1,0-0.1,0c0,0-0.1,0-0.1,0c0,0-0.1,0-0.1,0c-0.1,0-0.2,0-0.2,0c0,0-0.1,0-0.1,0
			c0,0-0.1,0-0.1,0c-0.1,0-0.1,0-0.2,0c0,0-0.1,0-0.1,0c0,0-0.1,0-0.1,0c-0.1,0-0.1,0-0.2,0c-0.1,0-0.1,0-0.1,0c0,0-0.1,0-0.1,0
			C8.2,9,8.1,9,8.1,9C8,9,8,9,8,9s0,0,0.1,0c0,0,0.1,0,0.2,0c0,0,0.1,0,0.1,0c0,0,0.1,0,0.1,0c0.1,0,0.1,0,0.2,0c0.1,0,0.1,0,0.2,0
			C9,9,9,9,9.1,9c0,0,0.1,0,0.1,0c0,0,0.1,0,0.1,0c0,0,0,0,0.1,0c0,0,0,0,0.1,0c0,0,0.1,0,0.1,0c0,0,0.1,0,0.1,0c0,0,0.1,0,0.1,0
			c0,0,0.1,0,0.1,0C10,9,10,9,10,9c0,0,0.1,0,0.1,0c0,0,0.1,0,0.1,0c0,0,0.1,0,0.1,0c0,0,0.1,0,0.1,0c0.1,0,0.2,0,0.3,0l0.1,0l0.1,0
			c0,0,0.1,0,0.1,0c0.1,0,0.2,0,0.3,0c0.2,0,0.3-0.1,0.5-0.1c0.1,0,0.2,0,0.2,0c0.1,0,0.2,0,0.2,0c0.1,0,0.1,0,0.2,0
			c0.1,0,0.1,0,0.2,0c0.1,0,0.2-0.1,0.3-0.1c0.1,0,0.2-0.1,0.3-0.1C13.3,8.5,13.4,8.4,13.5,8.4C13.5,8.4,13.5,8.4,13.5,8.4z"/>
		<path class="st6" d="M13.7,7.7C13.7,7.7,13.7,7.7,13.7,7.7c-0.1,0-0.1,0-0.2,0c-0.1,0-0.3-0.1-0.5-0.1c0,0-0.1,0-0.1,0
			c-0.1,0-0.1,0-0.2,0c-0.1,0-0.2-0.1-0.3-0.1c-0.1,0-0.1,0-0.2-0.1c-0.1,0-0.1,0-0.2-0.1c-0.1,0-0.2-0.1-0.4-0.1
			c-0.1,0-0.2-0.1-0.4-0.1c-0.1,0-0.1,0-0.2-0.1c-0.1,0-0.1,0-0.2-0.1c-0.1,0-0.2-0.1-0.3-0.1c-0.1,0-0.2-0.1-0.3-0.1
			C10.1,6.6,10,6.6,9.9,6.5c-0.1,0-0.1,0-0.1-0.1c0,0,0,0,0,0s0,0,0,0c0,0,0.1,0,0.1,0c0.1,0,0.3,0.1,0.5,0.1c0.1,0,0.2,0.1,0.3,0.1
			c0.1,0,0.2,0.1,0.3,0.1c0.1,0,0.1,0,0.2,0.1c0.1,0,0.1,0,0.2,0.1c0.1,0,0.2,0.1,0.4,0.1c0.1,0,0.2,0.1,0.4,0.1
			c0.1,0,0.1,0,0.2,0.1c0.1,0,0.1,0,0.2,0.1c0.1,0,0.2,0.1,0.3,0.1c0.1,0,0.2,0.1,0.3,0.1c0.2,0.1,0.3,0.1,0.4,0.2
			C13.6,7.6,13.6,7.7,13.7,7.7C13.7,7.7,13.7,7.7,13.7,7.7z"/>
		<path class="st7" d="M34.4,12.9l0.8,0.2l0.2-0.6l-0.7-0.2c-0.1-0.2-0.3-0.3-0.5-0.4c0-0.1,0-0.1,0-0.2c0-0.1,0-0.2,0.1-0.4
			c0-0.1,0-0.2,0.1-0.4c0.1-0.5,0.1-0.9,0.1-1.4c0-0.4,0-0.9,0-1.3c0-0.1,0-0.2,0-0.3c0-0.1,0-0.2,0-0.3c0-0.1,0-0.2,0-0.3
			c0-0.1,0-0.2,0-0.3c-0.1-0.4-0.1-0.7-0.2-1C34,5.9,34,5.6,33.9,5.4c0-0.1-0.1-0.2-0.1-0.3c0-0.1-0.1-0.1-0.1-0.2
			c0-0.1,0-0.1-0.1-0.1c0,0,0,0,0,0s0,0,0,0c0,0,0,0.1,0,0.1c0,0,0,0.1,0,0.1c0,0,0,0.1,0,0.1c0,0,0,0.1,0,0.1c0,0,0,0.1,0,0.1
			c0,0.2,0,0.5,0.1,0.7c0,0.3,0,0.6,0,1c0,0.1,0,0.2,0,0.3c0,0.1,0,0.2,0,0.3c0,0.1,0,0.2,0,0.3c0,0.1,0,0.2,0,0.3
			c0,0.4-0.1,0.8-0.1,1.2c0,0.4-0.1,0.9-0.2,1.3c0,0.2-0.1,0.4-0.1,0.7c0,0.1,0,0.1,0,0.2c-0.3,0-0.5,0-0.7,0.1l-0.3-0.1
			c-0.1-0.1-0.3-0.3-0.5-0.4c0,0,0-0.1,0-0.1c0-0.1,0-0.2,0.1-0.3c0-0.1,0-0.2,0.1-0.3c0.1-0.4,0.1-0.9,0.1-1.3c0-0.4,0-0.8,0-1.2
			c0-0.1,0-0.2,0-0.3c0-0.1,0-0.2,0-0.3c0-0.1,0-0.2,0-0.3c0-0.1,0-0.2,0-0.3c0-0.3-0.1-0.6-0.2-0.9c-0.1-0.3-0.1-0.5-0.2-0.7
			c0-0.1-0.1-0.2-0.1-0.3c0-0.1-0.1-0.1-0.1-0.2c0,0,0-0.1,0-0.1c0,0,0,0,0,0s0,0,0,0c0,0,0,0.1,0,0.1c0,0,0,0.1,0,0.1
			c0,0,0,0.1,0,0.1c0,0,0,0.1,0,0.1c0,0,0,0.1,0,0.1c0,0.2,0,0.4,0.1,0.7c0,0.3,0,0.6,0,0.9c0,0.1,0,0.2,0,0.3c0,0.1,0,0.2,0,0.3
			c0,0.1,0,0.2,0,0.3c0,0.1,0,0.2,0,0.3c0,0,0,0.1,0,0.1c0,0,0,0.1,0,0.1c0,0.1,0,0.2,0,0.3c0,0.1,0,0.2,0,0.3c0,0.1,0,0.2,0,0.3
			c0,0.4-0.1,0.8-0.2,1.2c0,0.2-0.1,0.5-0.1,0.7c-0.2,0-0.5,0-0.6,0.1l-0.4-0.1c-0.1-0.2-0.3-0.3-0.6-0.4c0-0.1,0-0.2,0-0.2
			c0-0.1,0-0.2,0.1-0.3c0.1-0.4,0.1-0.8,0.1-1.2c0-0.4,0-0.8,0-1.2c0-0.1,0-0.2,0-0.3c0-0.1,0-0.2,0-0.3c0-0.1,0-0.2,0-0.3
			c0-0.1,0-0.2,0-0.2c0-0.3-0.1-0.6-0.2-0.9c-0.1-0.3-0.1-0.5-0.2-0.7c0-0.1-0.1-0.2-0.1-0.2c0-0.1-0.1-0.1-0.1-0.2c0,0,0-0.1,0-0.1
			c0,0,0,0,0,0s0,0,0,0c0,0,0,0.1,0,0.1c0,0,0,0.1,0,0.1c0,0,0,0.1,0,0.1c0,0,0,0.1,0,0.1c0,0,0,0.1,0,0.1c0,0.2,0,0.4,0.1,0.7
			c0,0.3,0,0.5,0,0.9c0,0.1,0,0.2,0,0.2c0,0.1,0,0.2,0,0.2c0,0.1,0,0.2,0,0.3c0,0.1,0,0.2,0,0.3c0,0,0,0.1,0,0.1c0,0,0,0.1,0,0.1
			c0,0.1,0,0.2,0,0.3c0,0.1,0,0.2,0,0.3c0,0.1,0,0.2,0,0.3c0,0.4-0.1,0.8-0.2,1.2c0,0.2-0.1,0.4-0.1,0.5c-0.2,0-0.4,0-0.5,0.1
			L28,10.6c-0.1-0.2-0.4-0.3-0.6-0.4c0-0.1,0-0.2,0.1-0.3c0-0.1,0-0.2,0-0.3c0.1-0.4,0.1-0.8,0.1-1.2c0-0.4,0-0.7,0-1.1
			c0-0.3-0.1-0.7-0.1-1c0-0.3-0.1-0.6-0.2-0.8c-0.1-0.2-0.1-0.5-0.2-0.6c0-0.1-0.1-0.2-0.1-0.2c0-0.1,0-0.1-0.1-0.2c0,0,0-0.1,0-0.1
			c0,0,0,0,0,0s0,0,0,0c0,0,0,0.1,0,0.1c0,0,0,0,0,0.1c0,0,0,0.1,0,0.1c0,0,0,0.1,0,0.1c0,0,0,0.1,0,0.1c0,0.2,0,0.4,0,0.6
			c0,0.2,0,0.5,0,0.8c0,0.3,0,0.6,0,0.9c0,0.3,0,0.7-0.1,1c0,0.4-0.1,0.7-0.2,1.1c0,0.2-0.1,0.4-0.1,0.6c-0.2,0-0.3,0-0.5,0.1
			l-0.4-0.1c-0.1-0.2-0.3-0.3-0.5-0.4c0-0.2,0.1-0.4,0.1-0.5c0.1-0.4,0.1-0.8,0.1-1.1c0-0.4,0-0.7,0-1.1c0-0.3-0.1-0.7-0.1-0.9
			c0-0.3-0.1-0.6-0.2-0.8c-0.1-0.2-0.1-0.4-0.2-0.6c0-0.1-0.1-0.2-0.1-0.2c0-0.1,0-0.1-0.1-0.2c0,0,0-0.1,0-0.1c0,0,0,0,0,0s0,0,0,0
			c0,0,0,0.1,0,0.1c0,0,0,0,0,0.1c0,0,0,0.1,0,0.1c0,0,0,0.1,0,0.1c0,0,0,0.1,0,0.1c0,0.2,0,0.4,0,0.6c0,0.2,0,0.5,0,0.8
			c0,0.3,0,0.6,0,0.9c0,0.3,0,0.7-0.1,1c0,0.3-0.1,0.7-0.2,1.1c0,0.2-0.1,0.3-0.1,0.5c-0.3,0-0.5,0-0.7,0.1l-0.4-0.1
			c-0.1-0.2-0.4-0.4-0.7-0.5c0-0.2,0.1-0.3,0.1-0.5C23,8.2,23,7.9,23.1,7.5c0-0.3,0-0.7,0-1C23,6.2,23,5.9,23,5.6
			c0-0.3-0.1-0.5-0.2-0.7c-0.1-0.2-0.1-0.4-0.2-0.6c0-0.1-0.1-0.1-0.1-0.2c0-0.1,0-0.1-0.1-0.1c0,0,0-0.1,0-0.1c0,0,0,0,0,0s0,0,0,0
			c0,0,0,0.1,0,0.1c0,0,0,0,0,0.1c0,0,0,0.1,0,0.1c0,0,0,0.1,0,0.1c0,0,0,0.1,0,0.1c0,0.2,0,0.3,0,0.6c0,0.2,0,0.5,0,0.7
			c0,0.3,0,0.6,0,0.9c0,0.3,0,0.6-0.1,0.9c0,0.3-0.1,0.7-0.2,1c0,0.2-0.1,0.3-0.1,0.5c-0.2,0-0.3,0-0.4,0.1L21.4,9
			c-0.1-0.2-0.4-0.4-0.8-0.5c0-0.1,0-0.1,0-0.2c0-0.3,0.1-0.7,0.1-1c0-0.6,0-1.2-0.1-1.7c0-0.3-0.1-0.5-0.1-0.7
			c-0.1-0.2-0.1-0.4-0.2-0.5c0-0.1-0.1-0.1-0.1-0.2c0-0.1,0-0.1-0.1-0.1c0,0,0-0.1,0-0.1c0,0,0,0,0,0s0,0,0,0c0,0,0,0.1,0,0.1
			c0,0,0,0.1,0,0.1c0,0,0,0.1,0,0.1c0,0,0,0.1,0,0.1c0,0.1,0,0.3,0,0.5c0,0.2,0,0.4,0,0.7c0,0.2,0,0.5,0,0.8c0,0.3,0,0.6-0.1,0.9
			c0,0.3-0.1,0.6-0.1,0.9c0,0.1,0,0.2-0.1,0.3c-0.1,0-0.2,0-0.3,0.1l-0.3-0.1c-0.1-0.3-0.5-0.4-0.9-0.5c0,0,0,0,0,0
			c0-0.1,0-0.1,0-0.2c0,0,0-0.1,0-0.1c0,0,0-0.1,0-0.1c0-0.1,0-0.1,0-0.2c0-0.1,0-0.3,0-0.4c0,0,0-0.1,0-0.1c0,0,0-0.1,0-0.1
			c0-0.1,0-0.1,0-0.2c0-0.1,0-0.1,0-0.2c0-0.1,0-0.1,0-0.2c0-0.1,0-0.1,0-0.2c0-0.1,0-0.1,0-0.2c0-0.1,0-0.1,0-0.2
			c0-0.1,0-0.1,0-0.2c0-0.1,0-0.1,0-0.2c0-0.1,0-0.1,0-0.2c0-0.1,0-0.1,0-0.1c0,0,0-0.1,0-0.1c0,0,0-0.1,0-0.1c0,0,0-0.1,0-0.1
			c0-0.1-0.1-0.1-0.1-0.2c0-0.1,0-0.1-0.1-0.2c0,0,0-0.1-0.1-0.1C18,3.9,18,3.9,18,3.9s0,0,0,0.1c0,0,0,0,0,0.1c0,0,0,0,0,0.1
			c0,0,0,0.1,0,0.1c0,0,0,0.1,0,0.1c0,0.1,0,0.1,0,0.2c0,0,0,0.1,0,0.1c0,0,0,0.1,0,0.1c0,0,0,0.1,0,0.1c0,0,0,0.1,0,0.1
			c0,0,0,0.1,0,0.2c0,0.1,0,0.1,0,0.2c0,0.1,0,0.1,0,0.2c0,0.1,0,0.1,0,0.2c0,0.1,0,0.1,0,0.2c0,0.1,0,0.1,0,0.2c0,0.1,0,0.1,0,0.2
			c0,0,0,0.1,0,0.1c0,0,0,0.1,0,0.1c0,0.1,0,0.1,0,0.2c0,0,0,0.1,0,0.1c0,0,0,0.1,0,0.1c0,0.1,0,0.3-0.1,0.4c0,0.1,0,0.1,0,0.2
			c0,0,0,0.1,0,0.1c0,0,0,0.1,0,0.1c0,0.1,0,0.2-0.1,0.3c-0.1,0-0.2,0.1-0.3,0.1l-0.3-0.1c-0.1-0.2-0.3-0.3-0.5-0.4
			c0-0.1,0-0.1,0-0.2c0,0,0-0.1,0-0.1c0,0,0-0.1,0-0.1c0-0.1,0-0.1,0-0.2c0-0.1,0-0.3,0-0.4c0,0,0-0.1,0-0.1c0,0,0-0.1,0-0.1
			c0-0.1,0-0.1,0-0.2c0-0.1,0-0.1,0-0.2c0-0.1,0-0.1,0-0.2c0-0.1,0-0.1,0-0.2c0-0.1,0-0.1,0-0.2c0-0.1,0-0.1,0-0.2
			c0-0.1,0-0.1,0-0.1c0,0,0-0.1,0-0.1c0,0,0-0.1,0-0.1c0,0,0-0.1,0-0.1c0,0,0-0.1,0-0.1c0-0.1,0-0.2-0.1-0.2c0-0.1,0-0.1-0.1-0.2
			c0-0.1,0-0.1-0.1-0.1c0,0,0-0.1-0.1-0.1c0-0.1,0-0.1,0-0.1s0,0,0,0.1c0,0,0,0,0,0.1c0,0,0,0,0,0.1c0,0,0,0,0,0.1c0,0,0,0.1,0,0.1
			c0,0.1,0,0.1,0,0.2c0,0,0,0.1,0,0.1c0,0,0,0.1,0,0.1c0,0,0,0.1,0,0.1c0,0,0,0.1,0,0.1c0,0,0,0.1,0,0.1c0,0,0,0.1,0,0.1
			c0,0,0,0.1,0,0.1c0,0,0,0.1,0,0.1c0,0.1,0,0.1,0,0.2c0,0.1,0,0.1,0,0.2c0,0.1,0,0.1,0,0.2c0,0.1,0,0.1,0,0.2c0,0.1,0,0.1,0,0.2
			c0,0,0,0.1,0,0.1c0,0,0,0.1,0,0.1c0,0.1,0,0.2-0.1,0.3c0,0.1,0,0.1,0,0.2c0,0,0,0.1,0,0.1c0,0,0,0.1,0,0.1c0,0,0,0.1,0,0.1
			c-0.3,0-0.5,0-0.7,0.1l-0.9-0.2l-0.2,0.6l0.9,0.2c0.1,0.1,0.3,0.3,0.5,0.4c0,0.1,0,0.1-0.1,0.2c0,0.1,0,0.1-0.1,0.2
			c0,0.1,0,0.1-0.1,0.2c0,0.1,0,0.1-0.1,0.2c0,0.1,0,0.1-0.1,0.2c0,0.1,0,0.1-0.1,0.2c0,0,0,0,0,0c0,0,0,0,0,0c0,0,0,0.1,0,0.1
			c0,0.1-0.1,0.2-0.1,0.3c0,0.1-0.1,0.2-0.1,0.3c0,0.1-0.1,0.2-0.1,0.3c0,0,0,0.1-0.1,0.1c0,0,0,0.1-0.1,0.1c0,0,0,0.1-0.1,0.1
			c0,0,0,0,0,0.1c0,0,0,0,0,0.1c0,0,0,0.1-0.1,0.1c0,0,0,0.1-0.1,0.1c0,0,0,0.1,0,0.1c0,0,0,0.1,0,0.1c-0.1,0.2-0.2,0.3-0.2,0.3
			s0,0,0.1-0.1c0,0,0.1,0,0.1-0.1c0,0,0,0,0.1,0c0,0,0,0,0.1-0.1c0,0,0,0,0.1-0.1c0,0,0,0,0.1-0.1c0,0,0.1,0,0.1-0.1
			c0,0,0.1-0.1,0.1-0.1c0,0,0.1-0.1,0.1-0.1c0,0,0.1-0.1,0.1-0.1c0.1-0.1,0.1-0.1,0.2-0.2c0.1-0.1,0.1-0.2,0.2-0.2
			c0.1-0.1,0.1-0.2,0.2-0.3c0.1-0.1,0.1-0.2,0.2-0.3C15.9,9.8,16,9.7,16,9.6c0,0,0-0.1,0-0.1c0,0,0-0.1,0-0.1c0-0.1,0-0.1,0.1-0.2
			c0-0.1,0-0.1,0.1-0.2c0-0.1,0-0.1,0.1-0.2c0-0.1,0-0.1,0.1-0.2l0,0l0,0c0.2,0,0.4,0,0.5-0.1l0.3,0.1c0.1,0.1,0.1,0.1,0.2,0.2
			c0,0.1-0.1,0.3-0.1,0.4c0,0.1,0,0.1-0.1,0.2c0,0.1,0,0.1-0.1,0.2c0,0.1,0,0.1-0.1,0.2c0,0.1,0,0.1-0.1,0.2c0,0.1,0,0.1-0.1,0.2
			c0,0,0,0,0,0c0,0,0,0,0,0c0,0,0,0.1,0,0.1c0,0.1-0.1,0.2-0.1,0.3c0,0.1-0.1,0.2-0.1,0.3c0,0.1-0.1,0.2-0.1,0.3c0,0,0,0.1-0.1,0.1
			c0,0,0,0,0,0c0,0,0,0,0,0c0,0,0,0,0,0.1c0,0,0,0.1-0.1,0.1c0,0,0,0,0,0.1c0,0,0,0,0,0.1c0,0,0,0.1-0.1,0.1c0,0,0,0.1-0.1,0.1
			c0,0,0,0.1-0.1,0.1c0,0,0,0.1-0.1,0.1c-0.1,0.1-0.1,0.2-0.2,0.2c0,0.1-0.1,0.1-0.1,0.1s0,0,0.1-0.1c0,0,0.1,0,0.1-0.1
			c0,0,0,0,0.1-0.1c0,0,0,0,0.1-0.1c0,0,0.1,0,0.1-0.1c0,0,0.1-0.1,0.1-0.1c0,0,0.1-0.1,0.1-0.1c0,0,0.1-0.1,0.1-0.1
			c0,0,0.1-0.1,0.1-0.1c0,0,0.1-0.1,0.1-0.1c0.1-0.1,0.1-0.2,0.2-0.2c0.1-0.1,0.1-0.2,0.2-0.3c0.1-0.1,0.1-0.2,0.2-0.3
			c0.1-0.1,0.1-0.2,0.2-0.3c0.1-0.1,0.1-0.2,0.2-0.4c0,0,0-0.1,0-0.1c0,0,0-0.1,0-0.1c0-0.1,0.1-0.1,0.1-0.2c0-0.1,0.1-0.1,0.1-0.2
			C18,9.5,18,9.5,18,9.4c0-0.1,0-0.1,0.1-0.2l0-0.1l0,0c0.4,0.1,0.7,0.1,1,0l0.3,0.1c0.1,0.1,0.2,0.2,0.3,0.2l0,0c0,0,0,0.1,0,0.1
			c0,0.2-0.1,0.3-0.1,0.5c-0.1,0.3-0.2,0.6-0.3,0.9c-0.1,0.3-0.2,0.6-0.3,0.8c-0.1,0.3-0.2,0.5-0.3,0.7c-0.1,0.1-0.1,0.2-0.2,0.3
			c0,0-0.1,0.1-0.1,0.1c0,0-0.1,0.1-0.1,0.1c-0.1,0.2-0.2,0.3-0.3,0.4c0,0.1-0.1,0.1-0.1,0.2c0,0,0,0,0,0.1c0,0,0,0,0,0.1
			c0,0,0,0.1-0.1,0.1c0,0,0,0,0,0s0,0,0,0c0,0,0,0,0.1-0.1c0,0,0.1-0.1,0.1-0.1c0,0,0.1-0.1,0.2-0.1c0.1-0.1,0.2-0.2,0.4-0.4
			c0.1-0.1,0.1-0.2,0.2-0.2c0.1-0.1,0.2-0.2,0.2-0.3c0.2-0.2,0.3-0.4,0.5-0.7c0.2-0.2,0.3-0.5,0.4-0.8c0.1-0.3,0.3-0.6,0.4-0.9
			c0,0,0-0.1,0-0.1c0,0,0-0.1,0-0.1c0-0.1,0.1-0.2,0.1-0.2c0,0,0-0.1,0-0.1c0.3,0.1,0.7,0,0.9-0.1l0.4,0.1c0.1,0.1,0.2,0.2,0.3,0.3
			c0,0,0,0,0,0c0,0.2-0.1,0.3-0.1,0.5c-0.1,0.3-0.2,0.7-0.3,1c-0.1,0.3-0.2,0.6-0.4,0.9c-0.1,0.3-0.2,0.5-0.4,0.8
			c-0.1,0.1-0.1,0.2-0.2,0.3c0,0.1-0.1,0.1-0.1,0.2c0,0-0.1,0.1-0.1,0.1c-0.1,0.2-0.2,0.3-0.3,0.5c0,0.1-0.1,0.1-0.1,0.2
			c0,0,0,0,0,0.1c0,0,0,0,0,0.1c0,0,0,0.1-0.1,0.1c0,0,0,0,0,0s0,0,0,0c0,0,0,0,0.1-0.1c0,0,0.1-0.1,0.1-0.1c0.1,0,0.1-0.1,0.2-0.1
			c0.1-0.1,0.3-0.2,0.4-0.4c0.1-0.1,0.2-0.2,0.2-0.3c0.1-0.1,0.2-0.2,0.3-0.3c0.2-0.2,0.3-0.5,0.5-0.7c0.2-0.3,0.3-0.6,0.5-0.9
			c0.1-0.3,0.3-0.6,0.4-1c0,0,0-0.1,0-0.1c0,0,0-0.1,0-0.1c0-0.1,0-0.1,0.1-0.2c0.3,0.1,0.6,0,0.8-0.1l0.4,0.1
			c0.1,0.2,0.3,0.3,0.5,0.4c0,0,0,0,0,0c0,0.1,0,0.2-0.1,0.3c0,0.1-0.1,0.2-0.1,0.3c-0.1,0.4-0.2,0.7-0.4,1
			c-0.1,0.3-0.3,0.6-0.4,0.9c-0.1,0.3-0.3,0.6-0.4,0.8c-0.1,0.1-0.1,0.2-0.2,0.4c0,0.1-0.1,0.1-0.1,0.2c0,0.1-0.1,0.1-0.1,0.2
			c-0.1,0.2-0.2,0.4-0.3,0.5c0,0.1-0.1,0.1-0.1,0.2c0,0,0,0.1-0.1,0.1c0,0,0,0,0,0.1c0,0,0,0.1-0.1,0.1c0,0,0,0,0,0s0,0,0,0
			c0,0,0,0,0.1-0.1c0,0,0.1-0.1,0.1-0.1c0.1,0,0.1-0.1,0.2-0.2c0.1-0.1,0.3-0.3,0.4-0.4c0.1-0.1,0.2-0.2,0.3-0.3
			c0.1-0.1,0.2-0.2,0.3-0.3c0.2-0.2,0.4-0.5,0.5-0.8c0.2-0.3,0.3-0.6,0.5-0.9c0.2-0.3,0.3-0.7,0.4-1c0,0,0-0.1,0-0.1
			c0,0,0-0.1,0-0.1c0-0.1,0.1-0.2,0.1-0.3c0,0,0,0,0-0.1c0.2,0,0.4,0,0.6-0.1l0.4,0.1c0.1,0.1,0.2,0.2,0.4,0.3c0,0,0,0,0,0.1
			c0,0.1-0.1,0.2-0.1,0.3c0,0.1-0.1,0.2-0.1,0.3c-0.1,0.4-0.2,0.7-0.4,1.1c-0.1,0.3-0.3,0.7-0.4,1c-0.1,0.3-0.3,0.6-0.4,0.8
			c-0.1,0.1-0.1,0.3-0.2,0.4c0,0.1-0.1,0.1-0.1,0.2c0,0.1-0.1,0.1-0.1,0.2c-0.1,0.2-0.2,0.4-0.3,0.5c0,0.1-0.1,0.1-0.1,0.2
			c0,0,0,0.1-0.1,0.1c0,0,0,0,0,0.1c0,0-0.1,0.1-0.1,0.1c0,0,0,0,0,0s0,0,0,0c0,0,0.1,0,0.1-0.1c0,0,0.1-0.1,0.1-0.1
			c0.1,0,0.1-0.1,0.2-0.2c0.1-0.1,0.3-0.3,0.5-0.5c0.1-0.1,0.2-0.2,0.3-0.3c0.1-0.1,0.2-0.2,0.3-0.3c0.2-0.2,0.4-0.5,0.6-0.8
			c0.2-0.3,0.4-0.6,0.5-1c0.2-0.3,0.3-0.7,0.4-1.1c0,0,0-0.1,0-0.1c0,0,0-0.1,0-0.1c0-0.1,0.1-0.2,0.1-0.3c0,0,0,0,0,0
			c0.3,0,0.6,0,0.8-0.1l0.3,0.1c0.1,0.1,0.2,0.3,0.4,0.4c0,0,0,0,0,0c0,0,0,0.1,0,0.1c0,0.1-0.1,0.2-0.1,0.3c0,0,0,0.1,0,0.1
			c0,0,0,0.1,0,0.1c-0.1,0.4-0.3,0.8-0.4,1.1c-0.1,0.4-0.3,0.7-0.4,1c0,0.1-0.1,0.2-0.1,0.2c0,0.1-0.1,0.2-0.1,0.2
			c-0.1,0.1-0.1,0.3-0.2,0.4c-0.1,0.1-0.1,0.3-0.2,0.4c0,0.1-0.1,0.1-0.1,0.2c0,0.1-0.1,0.1-0.1,0.2c-0.1,0.2-0.3,0.4-0.4,0.6
			c-0.1,0.1-0.1,0.1-0.1,0.2c0,0,0,0.1-0.1,0.1c0,0,0,0-0.1,0.1c0,0-0.1,0.1-0.1,0.1c0,0,0,0,0,0s0,0,0,0c0,0,0.1,0,0.1-0.1
			c0,0,0.1-0.1,0.1-0.1c0.1,0,0.1-0.1,0.2-0.2c0.1-0.1,0.3-0.3,0.5-0.5c0.1-0.1,0.2-0.2,0.3-0.3c0.1-0.1,0.2-0.2,0.3-0.4
			c0-0.1,0.1-0.1,0.1-0.2c0-0.1,0.1-0.1,0.1-0.2c0-0.1,0.1-0.1,0.1-0.2c0-0.1,0.1-0.2,0.1-0.2c0.2-0.3,0.4-0.7,0.5-1
			c0.2-0.4,0.3-0.7,0.5-1.1c0,0,0-0.1,0.1-0.1c0-0.1,0-0.1,0-0.2c0-0.1,0.1-0.2,0.1-0.3c0,0,0-0.1,0-0.2c0.3,0,0.6,0,0.7-0.1
			l0.3,0.1c0.1,0.2,0.3,0.3,0.6,0.4c0,0,0,0.1,0,0.1c0,0.1-0.1,0.2-0.1,0.3c0,0.1,0,0.1,0,0.2c0,0.1,0,0.1,0,0.2
			c-0.1,0.4-0.3,0.8-0.4,1.2c-0.1,0.4-0.3,0.7-0.5,1.1c0,0.1-0.1,0.2-0.1,0.3c0,0.1-0.1,0.2-0.1,0.2c-0.1,0.2-0.2,0.3-0.2,0.5
			c-0.1,0.1-0.2,0.3-0.2,0.4c0,0.1-0.1,0.1-0.1,0.2c0,0.1-0.1,0.1-0.1,0.2c-0.1,0.2-0.3,0.4-0.4,0.6c-0.1,0.1-0.1,0.1-0.2,0.2
			c0,0,0,0.1-0.1,0.1c0,0,0,0-0.1,0.1c0,0-0.1,0.1-0.1,0.1c0,0,0,0,0,0s0,0,0,0c0,0,0.1,0,0.1-0.1c0,0,0.1-0.1,0.2-0.1
			c0.1,0,0.1-0.1,0.2-0.2c0.1-0.1,0.3-0.3,0.5-0.5c0.1-0.1,0.2-0.2,0.3-0.3c0.1-0.1,0.2-0.2,0.3-0.4c0.1-0.1,0.1-0.1,0.2-0.2
			c0.1-0.1,0.1-0.1,0.2-0.2c0.1-0.1,0.1-0.2,0.2-0.2c0-0.1,0.1-0.2,0.2-0.2c0.2-0.3,0.4-0.7,0.6-1.1c0.2-0.4,0.3-0.8,0.5-1.2
			c0-0.1,0-0.1,0.1-0.2c0-0.1,0-0.1,0.1-0.2c0-0.1,0.1-0.2,0.1-0.3c0,0,0-0.1,0-0.1c0.2,0,0.5,0,0.6-0.1l0.3,0.1
			c0.1,0.1,0.3,0.3,0.5,0.4c0,0,0,0,0,0c0,0.1-0.1,0.2-0.1,0.3c0,0.1,0,0.1,0,0.2c0,0.1,0,0.1-0.1,0.2c0,0.1-0.1,0.2-0.1,0.3
			c0,0.1-0.1,0.2-0.1,0.3c0,0.1-0.1,0.2-0.1,0.3c0,0.1-0.1,0.2-0.1,0.3c-0.2,0.4-0.3,0.8-0.5,1.1c0,0.1-0.1,0.2-0.1,0.3
			c0,0.1-0.1,0.2-0.1,0.3c-0.1,0.2-0.2,0.3-0.3,0.5c-0.1,0.2-0.2,0.3-0.2,0.4c0,0.1-0.1,0.1-0.1,0.2c0,0.1-0.1,0.1-0.1,0.2
			c-0.2,0.2-0.3,0.4-0.4,0.6c-0.1,0.1-0.1,0.2-0.2,0.2c0,0,0,0.1-0.1,0.1c0,0,0,0.1-0.1,0.1c0,0-0.1,0.1-0.1,0.1c0,0,0,0,0,0
			s0,0,0,0c0,0,0.1,0,0.1-0.1c0,0,0.1-0.1,0.2-0.1c0.1-0.1,0.1-0.1,0.2-0.2c0.2-0.1,0.3-0.3,0.5-0.5c0.1-0.1,0.2-0.2,0.3-0.4
			c0.1-0.1,0.2-0.3,0.3-0.4c0.1-0.1,0.1-0.1,0.2-0.2c0.1-0.1,0.1-0.2,0.2-0.2c0.1-0.1,0.1-0.2,0.2-0.2c0.1-0.1,0.1-0.2,0.2-0.3
			c0.2-0.4,0.4-0.7,0.6-1.1c0.2-0.4,0.4-0.8,0.5-1.3c0-0.1,0-0.1,0.1-0.2c0-0.1,0-0.1,0.1-0.2c0-0.1,0-0.1,0.1-0.2
			c0-0.1,0-0.1,0.1-0.2c0,0,0,0,0-0.1C34,13,34.2,13,34.4,12.9z"/>
	</g>
	<g>
		<g>
			<path class="st8" d="M16.1,21c0,0,0.1,0,0.2,0C16.2,20.8,16.1,21,16.1,21z"/>
			<path class="st9" d="M3.3,16.5c-1.2,0.6-1.4,1.7-1.4,1.7c-0.9,0.5-1.4,1.7-1.8,2.6c0.7-1,1.3-1.7,2.3-2.1c2-0.8,3.3-0.2,3.6,0
				c0.3,0.2,0.8,1.4,1.4,2c0.6,0.5,2.2,0.6,3,1.2c0.8,0.6,1.8,2.2,1,4c-0.3,0.7-1.2,1.5-1.8,1.8c0.6-0.2,2-0.7,2.5-1.7
				c0,0,1.6-0.6,1.5-1.9c0,0,1.1-0.9,0.9-1.6c0,0,0,0,0.1,0L4.6,15C3.8,15.4,3.3,16.5,3.3,16.5z"/>
			<path class="st10" d="M16.8,18.7c-1.5,1.2-3.4,0.7-4.1,0.1c-0.8-0.6-1.2-2.2-1.9-2.6c-0.7-0.5-2-0.6-2.3-0.9
				c-0.3-0.2-1.3-1.3-1-3.5c0.1-1,0.7-2,1.5-2.9c-1.6,0.9-1.8,1.6-1.8,1.6c-1.5,0.7-1.4,2-1.4,2c-1,0.8-0.8,2.3-0.8,2.3
				c-0.1,0-0.3,0.1-0.4,0.2l10,7.7c0.3,0,1.4-0.1,1.6-1c0.1-0.4,0.1-0.6,0.1-0.7c-0.1,0-0.2,0-0.2,0s0.1-0.2,0.2,0
				c0.3-0.1,0.9-0.3,1-1c0-0.9,0.9-0.8,0.7-1.5c0,0,0.3-1.4,0.2-2.1C17.9,17.3,17.5,18.2,16.8,18.7z"/>
		</g>
		<g>
			<path class="st11" d="M5,14.8c0,0-0.1,0-0.3,0c-0.2,0-0.4-0.1-0.7-0.2c-0.1-0.1-0.3-0.1-0.5-0.2c-0.2-0.1-0.3-0.2-0.5-0.3
				c-0.2-0.1-0.3-0.2-0.5-0.4c-0.1-0.1-0.3-0.3-0.4-0.5c0,0-0.1-0.1-0.1-0.1L2,13.1c-0.1-0.1-0.1-0.2-0.2-0.3
				c-0.1-0.1-0.1-0.2-0.1-0.3c0-0.1-0.1-0.2-0.1-0.3c0-0.1-0.1-0.2-0.1-0.3c0-0.1,0-0.2-0.1-0.3c0-0.1,0-0.2-0.1-0.3
				c0-0.1,0-0.2,0-0.3c0-0.2,0-0.3,0-0.5c0-0.1,0-0.3,0-0.4c0-0.2,0-0.3,0-0.3l0-0.5l1.1,0L2.3,10c0,0,0,0.1,0,0.3
				c0,0.1,0,0.2,0,0.3c0,0.1,0,0.2,0,0.4c0,0.1,0,0.1,0,0.2c0,0.1,0,0.2,0,0.2c0,0.1,0,0.2,0,0.2c0,0.1,0,0.2,0,0.3
				c0,0.1,0,0.2,0.1,0.3c0,0.1,0,0.2,0.1,0.3c0,0.1,0.1,0.2,0.1,0.3l0.1,0.1c0,0,0,0.1,0.1,0.1c0.1,0.2,0.2,0.3,0.3,0.5
				c0.1,0.1,0.2,0.3,0.4,0.4c0.1,0.1,0.3,0.2,0.4,0.3c0.1,0.1,0.3,0.2,0.4,0.3c0.3,0.1,0.5,0.2,0.6,0.3C4.9,14.8,5,14.8,5,14.8z"/>
			<g>
				<path class="st12" d="M1.9,18.2c0,0,0.2-1.1,1.4-1.7c0,0,0.7-1.5,1.7-1.7c0,0-0.1-1.4,0.9-2.2c0,0,0-1.2,1.5-1.9
					c0,0,0.1-0.9,1.6-1.7c0,0,0,0,0-0.1c-1.9,0.2-3.4,0.8-4.7,2.3c-0.7,0.8-1.1,1.6-1.4,2.6c-0.8,0.5-1.5,1.2-2,1.9
					C-0.3,17.4-0.4,19.1,0,21C0,21,0,20.9,0.1,20.9C0.5,19.9,1,18.7,1.9,18.2z"/>
				<path class="st13" d="M16.1,21c0,0,0.1,0,0.2,0C16.2,20.8,16.1,21,16.1,21z"/>
				<path class="st12" d="M17,19.8c0.1,0.7-1,0.6-1.4,0.7c0,0.1,0.3,0.5,0.2,0.9c-0.1,1.1-1.7,1-1.7,1c0.5,1.4-1,2-1,2
					c-0.1,1.3-1.3,1.6-1.3,1.6c-0.5,1-1.5,1.6-2.2,1.9c0,0-0.1,0-0.1,0c2-0.2,3.7-1.1,4.8-2.6c0.4-0.6,0.7-1.2,0.9-1.9
					c0.6-0.3,1.1-0.7,1.5-1.3c1.3-1.5,1.7-3.6,1.3-5.7c0,0,0,0.1,0,0.1c0.1,0.9-0.5,1.9-0.5,1.9C18,19.1,16.9,19.2,17,19.8z"/>
			</g>
			<path class="st11" d="M8.6,19.2c0.5,0.4,0.8,0.8,0.6,1c-0.1,0.2-0.6,0-1.1-0.4c-0.5-0.4-0.8-0.8-0.6-1
				C7.7,18.6,8.2,18.8,8.6,19.2z"/>
			<path class="st11" d="M10,17.3c0.5,0.4,0.8,0.8,0.6,1c-0.1,0.2-0.6,0-1.1-0.3s-0.8-0.8-0.6-1C9.1,16.8,9.5,17,10,17.3z"/>
		</g>
	</g>
	<g>
		<g>
			<path class="st8" d="M51.4,18.4c0,0-0.1,0-0.2,0.1C51.2,18.4,51.4,18.4,51.4,18.4z"/>
			<path class="st9" d="M58.3,6.8c1.3-0.3,2.1,0.4,2.1,0.4c1-0.2,2.2,0.4,3.1,0.8c-1.2-0.3-2.1-0.4-3.1-0.1c-2.1,0.6-2.6,2-2.7,2.3
				c-0.1,0.4,0.3,1.6,0.2,2.5c-0.1,0.8-1.3,1.9-1.6,2.8c-0.3,1,0.1,2.8,1.8,3.7c0.7,0.3,1.8,0.4,2.5,0.2c-0.6,0.2-2,0.7-3,0.3
				c0,0-1.6,0.6-2.3-0.5c0,0-1.4,0-1.7-0.7c0,0,0,0,0,0l2.8-12.3C57.3,6.3,58.3,6.8,58.3,6.8z"/>
			<path class="st10" d="M49.4,17.2c2-0.1,3-1.6,3.2-2.6c0.2-1-0.5-2.4-0.2-3.2c0.2-0.8,1.1-1.8,1.2-2.2c0.1-0.4,0.1-1.8-1.5-3.3
				c-0.8-0.7-1.8-1-3-1.3c1.8-0.4,2.4,0.1,2.4,0.1c1.6-0.4,2.4,0.6,2.4,0.6C55.1,5.2,56,6.5,56,6.5c0.1-0.1,0.3-0.1,0.4-0.1
				l-2.8,12.3c-0.2,0.2-1.1,0.8-1.9,0.2c-0.3-0.2-0.4-0.4-0.5-0.5c0.1-0.1,0.2-0.1,0.2-0.1s-0.2,0-0.2,0.1c-0.3,0.1-0.9,0.4-1.4-0.1
				c-0.6-0.7-1.2,0-1.5-0.7c0,0-1.1-0.8-1.5-1.5C47.6,16.7,48.6,17.2,49.4,17.2z"/>
		</g>
		<g>
			<path class="st11" d="M56,6.5c0,0,0.1-0.1,0.2-0.2c0.1-0.1,0.3-0.3,0.4-0.6c0.1-0.1,0.2-0.3,0.2-0.4C56.9,5.2,56.9,5,57,4.8
				c0.1-0.2,0.1-0.4,0.1-0.6c0-0.2,0-0.4,0-0.6c0-0.1,0-0.1,0-0.2l0-0.2c0-0.1,0-0.2-0.1-0.3c0-0.1-0.1-0.2-0.1-0.3
				c0-0.1-0.1-0.2-0.1-0.3c0-0.1-0.1-0.2-0.1-0.3c0-0.1-0.1-0.2-0.1-0.3c0-0.1-0.1-0.2-0.1-0.2c0-0.1-0.1-0.2-0.1-0.2
				c-0.1-0.1-0.2-0.3-0.3-0.4c-0.1-0.1-0.2-0.2-0.2-0.3c-0.1-0.1-0.2-0.2-0.2-0.2l-0.4-0.4l-0.9,0.7l0.4,0.4c0,0,0.1,0.1,0.2,0.2
				c0.1,0.1,0.1,0.1,0.2,0.2c0.1,0.1,0.2,0.2,0.3,0.3C55.7,1.9,55.7,2,55.8,2c0,0.1,0.1,0.1,0.1,0.2c0,0.1,0.1,0.1,0.1,0.2
				c0,0.1,0.1,0.1,0.1,0.2c0,0.1,0.1,0.2,0.1,0.2c0,0.1,0.1,0.2,0.1,0.3c0,0.1,0.1,0.2,0.1,0.3l0,0.1c0,0,0,0.1,0,0.1
				c0,0.2,0.1,0.4,0.1,0.6c0,0.2,0,0.4,0,0.5c0,0.2,0,0.3-0.1,0.5c0,0.2-0.1,0.3-0.1,0.4c-0.1,0.3-0.2,0.5-0.3,0.6
				C56,6.5,56,6.5,56,6.5z"/>
			<g>
				<path class="st12" d="M60.5,7.2c0,0-0.8-0.7-2.1-0.4c0,0-1.5-0.7-2.4-0.2c0,0-0.8-1.2-2.1-1.1c0,0-0.7-0.9-2.4-0.5
					c0,0-0.6-0.6-2.4-0.3c0,0-0.1,0-0.1,0c1.6-1,3.2-1.6,5.1-1.2c1,0.2,1.9,0.5,2.7,1.1c0.9-0.1,1.9-0.1,2.8,0.2
					c2,0.5,3.1,1.8,4.1,3.5c-0.1,0-0.1,0-0.2-0.1C62.7,7.6,61.5,7,60.5,7.2z"/>
				<path class="st13" d="M51.4,18.4c0,0-0.1,0-0.2,0.1C51.2,18.4,51.4,18.4,51.4,18.4z"/>
				<path class="st12" d="M50,18.1c0.4,0.6,1.2-0.1,1.5-0.4c0,0.1,0.1,0.5,0.4,0.8c0.8,0.8,1.9-0.3,1.9-0.3c0.5,1.4,2,0.9,2,0.9
					c0.9,0.9,2,0.4,2,0.4c1,0.5,2.2,0.2,2.8,0c0,0,0.1,0,0.1,0c-1.7,1.1-3.5,1.5-5.3,1.1c-0.7-0.2-1.3-0.5-1.9-0.9
					c-0.7,0.1-1.3,0.1-2,0c-2-0.3-3.6-1.6-4.7-3.5c0,0,0.1,0,0.1,0c0.5,0.8,1.6,1.1,1.6,1.1C48.8,18.2,49.6,17.6,50,18.1z"/>
			</g>
			<path class="st11" d="M55.9,12.2c-0.1,0.6-0.1,1.1,0.1,1.1c0.2,0,0.5-0.4,0.6-1c0.1-0.6,0.1-1.1-0.1-1.1
				C56.3,11.2,56.1,11.6,55.9,12.2z"/>
			<path class="st11" d="M53.7,11.7c-0.1,0.6-0.1,1.1,0.2,1.1c0.2,0,0.5-0.4,0.6-1c0.1-0.6,0.1-1.1-0.2-1.1
				C54.1,10.7,53.8,11.1,53.7,11.7z"/>
		</g>
	</g>
	<g>
		<g>
			<path class="st14" d="M24.8,24.8C24.8,24.8,24.8,24.9,24.8,24.8C24.8,24.9,24.8,24.8,24.8,24.8z M13,23c0-0.1-0.1-0.2-0.1-0.3
				C13,22.8,13,22.9,13,23z"/>
		</g>
		<g>
			<path class="st14" d="M50.3,21.9c0,0,0,0.1,0,0.1C50.3,22,50.3,22,50.3,21.9z M38.6,23.8c-0.1-0.1-0.1-0.2-0.2-0.2
				C38.5,23.6,38.6,23.7,38.6,23.8z"/>
		</g>
	</g>
	<g>
		<g>
			<path class="st9" d="M25.8,13.3c0-0.2,0-0.3,0-0.3S25.8,13.1,25.8,13.3z"/>
			<path class="st15" d="M21.7,0.3c-0.4,0-0.4,0-0.4,0s-2.2,1.3-3,3.6c-0.8,2.3-0.7,5.9-1.5,7.5c-0.9,1.6-0.4,3.9-3.6,2.8
				c-3.1-1-3.9-1.4-5.1-1.2c-1.3,0.2-2.7,1.4-3,1.9c0,0,2.6-0.4,4.5,0.9c1.9,1.3,3.9,3.9,6.8,2.5c1.9-0.9,2.8-2.6,3.2-3.8
				c0.1-1.6-0.2-4,0-7C19.9,5.6,20.9,2.5,21.7,0.3z"/>
			<path class="st16" d="M22.6,0.4C22.6,0.4,22.6,0.4,22.6,0.4c-0.5-0.1-0.8-0.1-0.9-0.1c-0.8,2.2-1.8,5.2-2,7.2
				c-0.2,2.1-0.1,4.5-0.1,7c0.1-0.3-0.4,4.3,1.8,5.1c2.5,0.9,3-0.9,4-0.4c1.1,0.6,0.2,2.2,0.9,2.7c2.2,1.5,2,0.2,2,0.2
				s-1-0.2-0.9-3.2c0-2.3-2.6-1.5-2.6-1.5s-2.5,0.1-1.2-3.2c-0.5-1.8-1.2-5.1-1-7.3C22.8,4.6,22.7,1.8,22.6,0.4z"/>
			<path class="st17" d="M32.4,15c-2.5-0.2-2.5,0.8-4.4-1.2c-1.8-2-2.8-3.5-3.3-5.1C24.2,7.1,23.8,3,23.8,3s0-2.4-1.2-2.6
				c0.1,1.4,0.1,4.2-0.1,6.5c-0.2,2.2,0.5,5.5,1,7.3c0,0,0-0.1,0-0.1c0,0,2,3.4,6.2,3.8s3.5-1.6,6.5,0.3
				C36.2,18.1,34.9,15.2,32.4,15z"/>
		</g>
		<polygon class="st18" points="22.5,0.2 21.5,0.1 21.3,0.3 22.6,0.4 		"/>
	</g>
</g>
<g>
	<g>
		<g>
			<g>
				<path class="st14" d="M24.6,25.2C24.5,25.2,24.5,25.3,24.6,25.2C24.5,25.3,24.5,25.2,24.6,25.2z M12.5,23.4
					c0-0.1-0.1-0.2-0.1-0.3C12.4,23.2,12.5,23.3,12.5,23.4z"/>
			</g>
			<g>
				<path class="st14" d="M50.8,22.3c0,0,0,0.1,0,0.1C50.8,22.3,50.8,22.3,50.8,22.3z M38.8,24.2c-0.1-0.1-0.1-0.2-0.2-0.3
					C38.6,24,38.7,24.1,38.8,24.2z"/>
			</g>
			<path d="M14.4,97h-1.8v-4.6c0-0.7-0.6-1.2-1.2-1.2H9.7c-0.7,0-1.2,0.5-1.2,1.2v10c0,0.7,0.6,1.3,1.2,1.3h1.7
				c0.7,0,1.2-0.6,1.2-1.3v-4.4h1.8c0.3,0,0.5-0.3,0.5-0.6v0C14.9,97.2,14.7,97,14.4,97z"/>
			<path d="M49.2,97H51v-4.6c0-0.7,0.6-1.2,1.2-1.2h1.7c0.7,0,1.2,0.5,1.2,1.2v10c0,0.7-0.6,1.3-1.2,1.3h-1.7
				c-0.7,0-1.2-0.6-1.2-1.3v-4.4h-1.8c-0.3,0-0.6-0.3-0.6-0.6v0C48.6,97.2,48.9,97,49.2,97z"/>
			<g>
				<path class="st19" d="M31.8,19.7H2.4c-0.7,0-1.2,0.6-1.2,1.3v4.2c0,0.7,0.5,1.2,1.2,1.2h1.1h28.3V19.7z"/>
				<path class="st20" d="M62.4,25.2V21c0-0.7-0.5-1.3-1.1-1.3H31.8v6.6h28.4h1.1C61.9,26.4,62.4,25.8,62.4,25.2z"/>
			</g>
			<g>
				<path class="st20" d="M31.8,28.8v-2.5H3.5l0.1,1.8C9.6,28.1,20.5,28.1,31.8,28.8z"/>
				<path class="st19" d="M3.5,28.2l2.4,59c0,2.3,1.6,4.2,3.7,4.2h3.9v7.9c0,1.5,1.9,2.8,4.2,2.8h14.1V28.8
					C20.5,28,9.6,28.1,3.5,28.2z"/>
				<path class="st21" d="M59.9,32.8l0.3-6.5H31.8v2.5C41.7,29.5,51.9,30.7,59.9,32.8z"/>
				<path class="st20" d="M31.8,28.8v73.3h14.2c2.3,0,4.2-1.2,4.2-2.8v-7.9h3.9c2,0,3.6-1.9,3.6-4.2l2.1-54.4
					C51.9,30.6,41.7,29.4,31.8,28.8z"/>
			</g>
			<path id="XMLID_4_" class="st22" d="M23.1,56.4c-0.9,0-1.7-0.2-2.4-0.6c-0.7-0.4-1.1-0.8-1.3-1.3c-0.1-0.2-0.2-0.4-0.2-0.6
				c0-0.2-0.1-0.4-0.1-0.7c0-0.4,0-0.8,0.2-1.2c0.1-0.4,0.2-0.7,0.4-0.9c0.2-0.3,0.3-0.5,0.4-0.6c0.1-0.1,0.2-0.2,0.3-0.3l-1.9-1.1
				l6.2-0.2l2.9,5.4l-1.8-1c-0.1,0.1-0.1,0.1-0.3,0.3c-0.1,0.1-0.2,0.3-0.4,0.4c-0.1,0.2-0.3,0.3-0.4,0.5c-0.1,0.2-0.2,0.3-0.3,0.4
				c-0.1,0.2-0.2,0.4-0.2,0.6c0,0.3,0.1,0.5,0.3,0.7c0.2,0.1,0.4,0.2,0.5,0.3L23.1,56.4z M41,57.3c0.6,0,1.2-0.2,1.7-0.4
				c0.5-0.2,0.9-0.5,1.3-0.8c0.4-0.3,0.6-0.6,0.8-0.8c0.2-0.2,0.3-0.4,0.4-0.5c-0.1,0.4-0.3,0.7-0.4,1.1c-0.2,0.3-0.4,0.7-0.7,1.2
				c-0.2,0.3-0.3,0.5-0.4,0.7c-0.1,0.3-0.3,0.6-0.4,0.9c-0.4,0.8-0.7,1.5-0.9,2c-0.2,0.5-0.5,0.9-0.8,1.4c-0.3,0.4-0.6,0.8-0.9,1.1
				c-0.3,0.3-0.6,0.4-1,0.4c-0.2,0-1.3,0-3.2,0l0,2.2l-3.3-5.3l3.3-5.2l0,2.1C39.4,57.3,41,57.3,41,57.3z M28.9,39.1
				c0.6,0,1.8,0,3.5,0c1.7,0,3,0,3.8,0.1c0.8,0.1,1.3,0.3,1.5,0.7c0,0.1,0.1,0.2,0.3,0.5c0.2,0.3,0.3,0.6,0.5,0.9
				c0.2,0.3,0.4,0.6,0.5,0.8c0.1,0.2,0.2,0.4,0.3,0.5l1.9-1.1l-2.6,5.8l-6.4-0.5l1.8-1.1l-2.3-3.8c-0.3-0.6-0.7-1.1-1.2-1.5
				c-0.4-0.4-0.9-0.6-1.3-0.8c-0.4-0.2-0.8-0.3-1.1-0.3c-0.3,0-0.5-0.1-0.7-0.1C27.8,39.2,28.3,39.1,28.9,39.1z M20.6,56.4
				c-0.7-0.3-1.1-0.7-1.4-1.2c0.1,0.1,0.2,0.3,0.3,0.6c0.2,0.3,0.4,0.6,0.6,1.1c0.3,0.5,0.5,0.9,0.8,1.5c0.3,0.5,0.5,0.9,0.6,1.1
				c0.1,0.1,0.1,0.2,0.1,0.3c0.2,0.5,0.4,0.9,0.6,1.2c0.2,0.4,0.4,0.7,0.7,1.1c0.2,0.4,0.5,0.7,0.8,1c0.3,0.2,0.5,0.4,0.7,0.4l7-0.1
				l-0.1-6.7c-4.1,0-6.9,0.1-8.5,0.1C22,56.9,21.3,56.7,20.6,56.4z M40.3,56.2c-0.3-0.5-1-1.5-2-3.1c-1-1.6-1.6-2.5-1.8-2.8l5.5-3.3
				c0.1,0.1,0.2,0.3,0.4,0.7c0.2,0.4,0.4,0.8,0.7,1.4c0.6,1.1,1,1.9,1.3,2.5c0.3,0.5,0.5,0.9,0.6,1.1c0.1,0.2,0.1,0.4,0.1,0.6
				c0,0.3-0.1,0.7-0.2,1.1c-0.1,0.1-0.2,0.3-0.4,0.5c-0.2,0.2-0.4,0.5-0.8,0.8c-0.3,0.3-0.8,0.6-1.3,0.9c-0.5,0.3-1.1,0.4-1.6,0.4
				C40.8,56.9,40.7,56.7,40.3,56.2z M27.6,49l-5.4-3c0.1-0.1,0.3-0.5,0.7-1.2c0.1-0.1,0.3-0.5,0.7-1.1c0.4-0.6,0.7-1.1,1-1.6
				c0.3-0.5,0.5-0.8,0.7-1.1c0.2-0.3,0.3-0.5,0.4-0.6c0.1-0.2,0.3-0.4,0.5-0.5c0.2-0.1,0.6-0.2,1-0.3c0.2,0,0.4,0,0.7,0.1
				c0.3,0,0.7,0.1,1.1,0.3c0.4,0.2,0.9,0.4,1.3,0.8c0.4,0.4,0.8,0.8,1.1,1.4l0.1,0.1c0.1,0.1,0.2,0.3,0.2,0.4L27.6,49z"/>
		</g>
	</g>
	<text transform="matrix(1 0 0 1 14.8306 80.2787)" class="st23 st24 st25">Organic</text>
</g>
</svg>
