<?xml version="1.0" encoding="utf-8"?>
<!-- Generator: Adobe Illustrator 22.1.0, SVG Export Plug-In . SVG Version: 6.00 Build 0)  -->
<svg version="1.1" id="Layer_1" xmlns="http://www.w3.org/2000/svg" xmlns:xlink="http://www.w3.org/1999/xlink" x="0px" y="0px"
	 viewBox="0 0 59.1 84" style="enable-background:new 0 0 59.1 84;" xml:space="preserve">
<style type="text/css">
	.st0{fill:#E5BC0E;}
	.st1{fill:#D3AD0F;}
	.st2{fill:#C19F10;}
	.st3{fill-rule:evenodd;clip-rule:evenodd;fill:#F4F4F4;}
	.st4{fill:#FFFFFF;}
	.st5{font-family:'Arial-BoldMT';}
	.st6{font-size:7.2495px;}
</style>
<g>
	<g>
		<g>
			<path d="M13.3,77.2h-1.8v-4.5c0-0.7-0.5-1.1-1.2-1.1H8.6c-0.7,0-1.2,0.5-1.2,1.1v10c0,0.7,0.5,1.2,1.2,1.2h1.7
				c0.7,0,1.2-0.6,1.2-1.2v-4.5h1.8c0.3,0,0.6-0.2,0.6-0.5v0C13.9,77.5,13.6,77.2,13.3,77.2z"/>
			<path d="M48.1,77.2h1.8v-4.5c0-0.7,0.5-1.1,1.2-1.1h1.7c0.7,0,1.2,0.5,1.2,1.1v10c0,0.7-0.5,1.2-1.2,1.2h-1.7
				c-0.7,0-1.2-0.6-1.2-1.2v-4.5h-1.8c-0.3,0-0.5-0.2-0.5-0.5v0C47.6,77.5,47.8,77.2,48.1,77.2z"/>
			<g>
				<path class="st0" d="M30.7,0H1.2C0.6,0,0,0.6,0,1.2v4.2c0,0.7,0.6,1.2,1.2,1.2h1.1h28.4V0z"/>
				<path class="st1" d="M61.3,5.4V1.2c0-0.7-0.5-1.2-1.2-1.2H30.7v6.6h28.3h1.1C60.8,6.6,61.3,6.1,61.3,5.4z"/>
			</g>
			<g>
				<path class="st1" d="M30.7,9.1V6.6H2.3l0.1,1.9C8.5,8.4,19.3,8.4,30.7,9.1z"/>
				<path class="st0" d="M2.4,8.4l2.3,59c0,2.3,1.6,4.2,3.6,4.2h3.9v8c0,1.5,1.9,2.7,4.3,2.7h14.2V9C19.3,8.3,8.5,8.3,2.4,8.4z"/>
				<path class="st2" d="M58.8,13.1l0.2-6.5H30.7v2.5C40.5,9.7,50.8,10.9,58.8,13.1z"/>
				<path class="st1" d="M30.7,9v73.3h14.1c2.3,0,4.3-1.2,4.3-2.7v-8H53c2,0,3.7-1.9,3.7-4.2L58.8,13C50.8,10.8,40.5,9.6,30.7,9z"/>
			</g>
			<path id="XMLID_3_" class="st3" d="M22,36.6c-0.9,0-1.7-0.2-2.4-0.6c-0.7-0.4-1.1-0.8-1.3-1.3c-0.1-0.2-0.2-0.4-0.2-0.6
				c0-0.2-0.1-0.4-0.1-0.7c0-0.4,0-0.8,0.2-1.2c0.1-0.4,0.2-0.7,0.4-0.9c0.2-0.3,0.3-0.5,0.4-0.6c0.1-0.1,0.2-0.2,0.3-0.3l-1.9-1.1
				l6.2-0.2l2.9,5.4l-1.8-1c-0.1,0.1-0.1,0.1-0.3,0.3c-0.1,0.1-0.2,0.3-0.4,0.4c-0.1,0.2-0.3,0.3-0.4,0.5c-0.1,0.2-0.2,0.3-0.3,0.4
				c-0.1,0.2-0.2,0.4-0.2,0.6c0,0.3,0.1,0.5,0.3,0.7c0.2,0.1,0.4,0.2,0.5,0.3L22,36.6z M39.9,37.4c0.6,0,1.2-0.2,1.7-0.4
				c0.5-0.2,0.9-0.5,1.3-0.8c0.4-0.3,0.6-0.6,0.8-0.8c0.2-0.2,0.3-0.4,0.4-0.5c-0.1,0.4-0.3,0.7-0.4,1.1c-0.2,0.3-0.4,0.8-0.7,1.2
				c-0.2,0.3-0.3,0.5-0.4,0.7c-0.1,0.3-0.3,0.6-0.4,0.9c-0.4,0.8-0.7,1.5-0.9,2c-0.2,0.5-0.5,1-0.8,1.4c-0.3,0.4-0.6,0.8-0.9,1.1
				c-0.3,0.3-0.6,0.4-1,0.4c-0.2,0-1.3,0-3.2,0l0,2.2L32,40.6l3.3-5.2l0,2.1C38.3,37.4,39.9,37.4,39.9,37.4z M27.8,19.2
				c0.6,0,1.8,0,3.5,0c1.7,0,3,0,3.8,0.1c0.8,0.1,1.3,0.3,1.5,0.7c0,0.1,0.1,0.2,0.3,0.5c0.2,0.3,0.3,0.6,0.5,0.9
				c0.2,0.3,0.4,0.6,0.5,0.8c0.1,0.2,0.2,0.4,0.3,0.5l1.9-1.1l-2.6,5.8l-6.4-0.5l1.8-1.1L30.6,22c-0.3-0.6-0.7-1.1-1.2-1.5
				c-0.4-0.4-0.9-0.6-1.3-0.8c-0.4-0.2-0.8-0.3-1.1-0.3c-0.3,0-0.5-0.1-0.7-0.1C26.7,19.3,27.2,19.3,27.8,19.2z M19.5,36.6
				c-0.7-0.3-1.1-0.7-1.4-1.2c0.1,0.1,0.2,0.3,0.3,0.6c0.2,0.3,0.4,0.6,0.6,1.1c0.3,0.5,0.5,0.9,0.8,1.5c0.3,0.5,0.5,0.9,0.6,1.1
				c0.1,0.1,0.1,0.2,0.1,0.3c0.2,0.5,0.4,0.9,0.6,1.2c0.2,0.4,0.4,0.7,0.7,1.1c0.2,0.4,0.5,0.7,0.8,1c0.3,0.2,0.5,0.4,0.7,0.4l7-0.1
				L30.3,37c-4.1,0-6.9,0.1-8.5,0.1C20.9,37,20.1,36.9,19.5,36.6z M39.2,36.4c-0.3-0.5-1-1.5-2-3.1c-1-1.6-1.6-2.5-1.8-2.8l5.5-3.3
				c0.1,0.1,0.2,0.3,0.4,0.7c0.2,0.4,0.4,0.8,0.7,1.4c0.6,1.1,1,1.9,1.3,2.5c0.3,0.5,0.5,0.9,0.6,1.1c0.1,0.2,0.1,0.4,0.1,0.6
				c0,0.3-0.1,0.7-0.2,1.1c-0.1,0.1-0.2,0.3-0.4,0.5c-0.2,0.2-0.4,0.5-0.8,0.8c-0.3,0.3-0.8,0.6-1.3,0.9c-0.5,0.3-1.1,0.4-1.7,0.4
				C39.7,37.1,39.6,36.9,39.2,36.4z M26.4,29.1l-5.4-3c0.1-0.1,0.3-0.5,0.7-1.2c0.1-0.1,0.3-0.5,0.7-1.1c0.4-0.6,0.7-1.1,1-1.6
				c0.3-0.5,0.5-0.8,0.7-1.1c0.2-0.3,0.3-0.5,0.4-0.6c0.1-0.2,0.3-0.4,0.5-0.5c0.2-0.1,0.6-0.2,1.1-0.3c0.2,0,0.4,0,0.7,0.1
				c0.3,0,0.7,0.1,1.1,0.3c0.4,0.2,0.9,0.4,1.3,0.8c0.4,0.4,0.8,0.8,1.1,1.4l0.1,0.1c0.1,0.1,0.2,0.3,0.2,0.4L26.4,29.1z"/>
		</g>
	</g>
	<text transform="matrix(1 0 0 1 18.1538 60.2574)" class="st4 st5 st6">Paper</text>
</g>
</svg>
