<?xml version="1.0" encoding="utf-8"?>
<!-- Generator: Adobe Illustrator 22.1.0, SVG Export Plug-In . SVG Version: 6.00 Build 0)  -->
<svg version="1.1" id="Layer_1" xmlns="http://www.w3.org/2000/svg" xmlns:xlink="http://www.w3.org/1999/xlink" x="0px" y="0px"
	 viewBox="0 0 64 109" style="enable-background:new 0 0 64 109;" xml:space="preserve">
<style type="text/css">
	.st0{fill:#685918;}
	.st1{fill:#635311;}
	.st2{fill:#897619;}
	.st3{fill:#776415;}
	.st4{fill:#BCBBBB;}
	.st5{fill:#CCCCCC;}
	.st6{fill:#E0DFDE;}
	.st7{fill:#EFEFED;}
	.st8{fill:#4385B5;}
	.st9{fill:#0E3049;}
	.st10{fill:#E54833;}
	.st11{fill:#AFAEAE;}
	.st12{fill:#E5BC0E;}
	.st13{fill:#D3AD0F;}
	.st14{fill:#C19F10;}
	.st15{fill-rule:evenodd;clip-rule:evenodd;fill:#F4F4F4;}
	.st16{fill:#FFFFFF;}
	.st17{font-family:'Arial-BoldMT';}
	.st18{font-size:7.2495px;}
</style>
<g>
	<g>
		<polygon class="st0" points="24.2,18 16.5,20.9 20.9,8 28.7,5.1 		"/>
		<rect x="28.7" y="5.1" transform="matrix(0.324 -0.9461 0.9461 0.324 10.0949 43.4806)" class="st1" width="13.6" height="19.1"/>
		<rect x="20.9" y="7.9" transform="matrix(0.324 -0.9461 0.9461 0.324 2.1669 38.1144)" class="st2" width="13.7" height="19.2"/>
		<polygon class="st3" points="42.3,24.2 34.6,27.1 39,14.2 46.7,11.3 		"/>
		<polygon class="st3" points="52.8,6.2 34.7,0 28.6,5.1 46.7,11.3 		"/>
		<polygon class="st2" points="18.3,3.2 26,0.3 28.6,5.1 20.9,8 		"/>
		<polygon class="st2" points="39,14.2 46.7,11.3 53.2,12 45.5,14.9 		"/>
		<polygon class="st3" points="31.6,14.6 13.5,8.4 20.9,8 39,14.2 		"/>
	</g>
	<g>
		<g>
			<path class="st4" d="M30.9,18.6l-9.5,14.9c-0.3,0.7-0.1,1.2,0.3,1.6L0.6,21.6c-0.6-0.4-0.8-1.1-0.5-1.7L9.7,5L30.9,18.6z"/>
		</g>
		<g>
			<path class="st5" d="M32.1,18.2l-9.7,15.2c-0.3,0.8-0.2,1.2,0.3,1.6L1.6,21.6C1,21.2,0.8,20.5,1,19.8l9.7-15.2L32.1,18.2z"/>
		</g>
		<g>
			<path class="st6" d="M33.1,18l-9.7,15.2c-0.3,0.8-1.3,0.5-0.8,1L2.5,21.3c-0.6-0.4-0.8-1.2-0.4-1.7l9.7-15.2L33.1,18z"/>
		</g>
		<g>
			<path class="st7" d="M12.7,4.7L2.2,21.1c-0.6,0.6-1.1,0.7-1.7,0.5L21.7,35c0.6,0.4,1.4,0.2,1.8-0.4l10.4-16.4L12.7,4.7z"/>
		</g>
		
			<rect x="18.9" y="4.4" transform="matrix(0.5376 -0.8432 0.8432 0.5376 -2.9217 24.8568)" class="st8" width="4.6" height="21.4"/>
		<g>
			<path class="st9" d="M15.4,9.8l0.5,0.3c0.3,0.2,0.5,0.3,0.6,0.4c0.1,0.1,0.1,0.2,0.2,0.3c0,0.1,0,0.2,0,0.3
				c0,0.1-0.1,0.2-0.3,0.5l-0.5,0.8c-0.1,0.2-0.2,0.3-0.3,0.4c-0.1,0.1-0.1,0.1-0.2,0.1c-0.1,0-0.2,0-0.2,0c-0.1,0-0.2-0.1-0.3-0.2
				l-0.8-0.5L15.4,9.8z M15.8,10.6l-1,1.6c0.1,0.1,0.2,0.1,0.2,0.1c0,0,0.1-0.1,0.2-0.3l0.6-0.9c0.1-0.1,0.1-0.2,0.1-0.2
				c0,0,0-0.1,0-0.1C15.9,10.7,15.8,10.6,15.8,10.6z"/>
			<path class="st9" d="M18.1,11.5L17,14.1l-0.6-0.4l0.2-0.4l-0.2-0.1L16,13.5l-0.6-0.4l1.8-2.2L18.1,11.5z M16.8,12.8
				c0.1-0.3,0.3-0.6,0.5-1.1c-0.4,0.4-0.6,0.7-0.8,0.9L16.8,12.8z"/>
			<path class="st9" d="M19.2,12.2l-1.5,2.4l-0.6-0.4l1.5-2.4L19.2,12.2z"/>
			<path class="st9" d="M20.1,12.8l-1.2,1.9l0.4,0.2l-0.3,0.5l-1-0.6l1.5-2.4L20.1,12.8z"/>
			<path class="st9" d="M21.7,13.8L20.3,15l-0.5,0.9l-0.6-0.4l0.5-0.9l0.5-1.8l0.6,0.4c-0.2,0.5-0.4,0.9-0.4,1
				c0.2-0.2,0.5-0.5,0.8-0.8L21.7,13.8z"/>
			<path class="st9" d="M23.7,15.1l-1.5,2.4l-0.5-0.3l0.4-1.3l-0.7,1.1l-0.5-0.3l1.5-2.4l0.5,0.3l-0.3,1.3l0.7-1.1L23.7,15.1z"/>
			<path class="st9" d="M24,15.2l1,0.7l-0.3,0.5l-0.4-0.3L24,16.6l0.4,0.2l-0.3,0.5L23.7,17l-0.3,0.5l0.5,0.3l-0.3,0.5l-1.1-0.7
				L24,15.2z"/>
			<path class="st9" d="M27.5,17.5l-1.8,2.2L25,19.2c0.2-0.4,0.4-0.9,0.6-1.4c-0.2,0.2-0.5,0.6-1,1.1l-0.8-0.5l1.2-2.5l0.6,0.4
				l-0.5,0.9l-0.4,0.8c0.3-0.4,0.7-0.9,1.2-1.5l0.6,0.4c0,0.1-0.2,0.3-0.4,0.8l-0.5,0.9c0.4-0.6,0.8-1.1,1.2-1.6L27.5,17.5z"/>
			<path class="st9" d="M28.5,19.1l-0.6-0.4l0.1-0.2c0.1-0.1,0.1-0.1,0.1-0.2c0,0,0-0.1-0.1-0.1c0,0-0.1,0-0.1,0
				c0,0-0.1,0.1-0.1,0.1c-0.1,0.1-0.1,0.1-0.1,0.2c0,0.1,0,0.1,0.1,0.3c0.2,0.3,0.3,0.6,0.3,0.7c0,0.1-0.1,0.3-0.2,0.6
				c-0.1,0.2-0.2,0.3-0.3,0.3c-0.1,0.1-0.2,0.1-0.4,0.1c-0.1,0-0.3-0.1-0.4-0.2c-0.2-0.1-0.3-0.2-0.4-0.4c-0.1-0.1-0.1-0.3-0.1-0.4
				c0-0.1,0.1-0.3,0.2-0.4l0.1-0.2l0.6,0.4L27,19.8c-0.1,0.1-0.1,0.2-0.1,0.2c0,0,0,0.1,0.1,0.1c0,0,0.1,0,0.1,0
				c0,0,0.1-0.1,0.1-0.1c0.1-0.1,0.1-0.2,0.1-0.3c0-0.1-0.1-0.2-0.2-0.4c-0.1-0.2-0.1-0.3-0.2-0.4c0-0.1,0-0.2,0-0.3
				c0-0.1,0.1-0.2,0.1-0.3c0.1-0.2,0.2-0.3,0.3-0.4c0.1-0.1,0.2-0.1,0.4-0.1c0.1,0,0.3,0.1,0.4,0.2c0.2,0.1,0.3,0.2,0.4,0.3
				c0.1,0.1,0.1,0.2,0.1,0.3C28.7,18.7,28.7,18.9,28.5,19.1L28.5,19.1z"/>
		</g>
		<rect x="8.3" y="14" transform="matrix(0.5376 -0.8432 0.8432 0.5376 -10.4417 18.7087)" class="st10" width="7.1" height="9.7"/>
		
			<rect x="22.9" y="16.9" transform="matrix(0.5376 -0.8432 0.8432 0.5376 -7.9883 29.7759)" class="st11" width="0.5" height="10.5"/>
		
			<rect x="22.4" y="17.8" transform="matrix(0.5376 -0.8432 0.8432 0.5376 -8.962 29.7116)" class="st11" width="0.5" height="10.5"/>
		
			<rect x="21.9" y="18.6" transform="matrix(0.5376 -0.8432 0.8432 0.5376 -9.8678 29.6518)" class="st11" width="0.5" height="10.5"/>
		
			<rect x="21.3" y="19.5" transform="matrix(0.5376 -0.8432 0.8432 0.5376 -10.932 29.5816)" class="st11" width="0.5" height="10.5"/>
		
			<rect x="20.7" y="20.4" transform="matrix(0.5376 -0.8432 0.8432 0.5376 -11.9284 29.5158)" class="st11" width="0.5" height="10.5"/>
		
			<rect x="20.1" y="21.3" transform="matrix(0.5376 -0.8432 0.8432 0.5376 -12.9474 29.4485)" class="st11" width="0.5" height="10.5"/>
		
			<rect x="19.6" y="22.1" transform="matrix(0.5376 -0.8432 0.8432 0.5376 -13.8758 29.3873)" class="st11" width="0.5" height="10.5"/>
		<rect x="19" y="23" transform="matrix(0.5376 -0.8432 0.8432 0.5376 -14.9288 29.3177)" class="st11" width="0.5" height="10.5"/>
		
			<rect x="13.9" y="15.5" transform="matrix(0.5376 -0.8432 0.8432 0.5376 -15.5911 24.0204)" class="st11" width="0.5" height="21.4"/>
		
			<rect x="13.3" y="16.4" transform="matrix(0.5376 -0.8432 0.8432 0.5376 -16.5875 23.9547)" class="st11" width="0.5" height="21.4"/>
		
			<rect x="12.7" y="17.3" transform="matrix(0.5376 -0.8432 0.8432 0.5376 -17.6517 23.8844)" class="st11" width="0.5" height="21.4"/>
	</g>
	<g>
		<g>
			<path class="st4" d="M54.6,31.1l-13.3-6c-0.6-0.1-1,0-1.3,0.5l8.6-19c0.2-0.5,0.8-0.8,1.3-0.6l13.3,6L54.6,31.1z"/>
		</g>
		<g>
			<path class="st5" d="M55,32.1l-13.6-6.2c-0.7-0.2-1,0-1.3,0.5l8.6-19c0.2-0.5,0.8-0.8,1.4-0.7l13.6,6.2L55,32.1z"/>
		</g>
		<g>
			<path class="st6" d="M55.4,32.8l-13.6-6.2c-0.7-0.1-0.6-1-0.9-0.5l8.1-18c0.2-0.5,0.9-0.8,1.4-0.6L64,13.7L55.4,32.8z"/>
		</g>
		<g>
			<path class="st7" d="M63.9,14.5L49.2,7.9c-0.6-0.4-0.7-0.8-0.6-1.3l-8.6,19c-0.2,0.5,0,1.2,0.5,1.4l14.7,6.6L63.9,14.5z"/>
		</g>
		
			<rect x="47.5" y="20.8" transform="matrix(0.4111 -0.9116 0.9116 0.4111 12.4492 64.7516)" class="st8" width="17.7" height="3.8"/>
		<g>
			<path class="st9" d="M60,17.3l-0.2,0.4c-0.1,0.3-0.2,0.4-0.3,0.5c-0.1,0.1-0.1,0.1-0.2,0.2c-0.1,0-0.2,0-0.2,0
				c-0.1,0-0.2-0.1-0.4-0.2L57.9,18c-0.2-0.1-0.3-0.2-0.4-0.2c-0.1,0-0.1-0.1-0.1-0.2c0-0.1,0-0.1,0-0.2c0-0.1,0.1-0.2,0.1-0.3
				l0.3-0.7L60,17.3z M59.4,17.7L58,17.1c0,0.1,0,0.1,0,0.2c0,0,0.1,0.1,0.2,0.1l0.8,0.4c0.1,0,0.2,0.1,0.2,0.1c0,0,0.1,0,0.1,0
				C59.3,17.8,59.4,17.8,59.4,17.7z"/>
			<path class="st9" d="M58.9,19.8l-2.3-0.6l0.3-0.6l0.4,0.1l0.1-0.2L57,18.3l0.3-0.6l2,1.2L58.9,19.8z M57.7,18.9
				c0.3,0.1,0.6,0.2,0.9,0.3c-0.4-0.2-0.7-0.4-0.8-0.5L57.7,18.9z"/>
			<path class="st9" d="M58.5,20.7l-2.1-1l0.2-0.6l2.1,1L58.5,20.7z"/>
			<path class="st9" d="M58.1,21.5l-1.7-0.8l-0.2,0.3l-0.4-0.2l0.4-0.9l2.1,1L58.1,21.5z"/>
			<path class="st9" d="M57.5,23l-1.2-1l-0.8-0.3l0.2-0.5l0.8,0.3l1.5,0.2l-0.2,0.5c-0.5-0.1-0.7-0.2-0.9-0.2
				c0.2,0.1,0.5,0.3,0.8,0.5L57.5,23z"/>
			<path class="st9" d="M56.6,24.8l-2.1-1l0.2-0.5l1.1,0.1l-1-0.4l0.2-0.5l2.1,1L57,24l-1.1-0.1l1,0.4L56.6,24.8z"/>
			<path class="st9" d="M56.5,25l-0.4,0.9l-0.4-0.2l0.2-0.4l-0.4-0.2l-0.2,0.3l-0.4-0.2l0.2-0.3l-0.5-0.2l-0.2,0.4L54,25l0.4-1
				L56.5,25z"/>
			<path class="st9" d="M55.1,28.2l-2-1.2l0.3-0.7c0.4,0.1,0.8,0.2,1.2,0.3c-0.2-0.1-0.5-0.3-1-0.7l0.3-0.7l2.2,0.7l-0.2,0.5
				l-0.8-0.3L54.3,26c0.4,0.2,0.8,0.5,1.4,0.8l-0.3,0.6c-0.1,0-0.3-0.1-0.7-0.3l-0.8-0.3c0.5,0.3,1,0.5,1.4,0.8L55.1,28.2z"/>
			<path class="st9" d="M53.9,29.2l0.2-0.5l0.2,0.1c0.1,0,0.1,0,0.1,0c0,0,0,0,0.1-0.1c0,0,0-0.1,0-0.1c0,0-0.1-0.1-0.1-0.1
				c-0.1,0-0.1,0-0.2,0c0,0-0.1,0-0.2,0.1c-0.3,0.2-0.4,0.3-0.6,0.3c-0.1,0-0.3,0-0.5-0.1c-0.2-0.1-0.3-0.1-0.3-0.2
				c-0.1-0.1-0.1-0.2-0.1-0.3c0-0.1,0-0.3,0.1-0.4c0.1-0.1,0.2-0.3,0.3-0.3c0.1-0.1,0.2-0.1,0.3-0.1c0.1,0,0.2,0,0.4,0.1l0.1,0.1
				l-0.2,0.5l-0.3-0.1c-0.1,0-0.1-0.1-0.2,0c0,0-0.1,0-0.1,0.1c0,0,0,0.1,0,0.1c0,0,0.1,0.1,0.1,0.1c0.1,0.1,0.2,0.1,0.3,0.1
				c0.1,0,0.2-0.1,0.3-0.2c0.2-0.1,0.3-0.2,0.3-0.2c0.1,0,0.1,0,0.2,0c0.1,0,0.2,0,0.3,0.1c0.2,0.1,0.3,0.1,0.3,0.2
				c0.1,0.1,0.1,0.2,0.1,0.3c0,0.1,0,0.2-0.1,0.4c-0.1,0.1-0.1,0.3-0.2,0.3c-0.1,0.1-0.2,0.1-0.3,0.1C54.3,29.4,54.1,29.3,53.9,29.2
				L53.9,29.2z"/>
		</g>
		<rect x="48.1" y="12.6" transform="matrix(0.4111 -0.9116 0.9116 0.4111 16.5614 56.645)" class="st10" width="8" height="5.9"/>
		<rect x="46.4" y="25" transform="matrix(0.4111 -0.9116 0.9116 0.4111 6.9369 61.1065)" class="st11" width="8.7" height="0.4"/>
		
			<rect x="45.6" y="24.6" transform="matrix(0.4111 -0.9116 0.9116 0.4111 6.8004 60.2035)" class="st11" width="8.7" height="0.4"/>
		
			<rect x="44.9" y="24.3" transform="matrix(0.4111 -0.9116 0.9116 0.4111 6.6735 59.3636)" class="st11" width="8.7" height="0.4"/>
		
			<rect x="44.1" y="23.9" transform="matrix(0.4111 -0.9116 0.9116 0.4111 6.5243 58.3766)" class="st11" width="8.7" height="0.4"/>
		
			<rect x="43.3" y="23.6" transform="matrix(0.4111 -0.9116 0.9116 0.4111 6.3847 57.4527)" class="st11" width="8.7" height="0.4"/>
		
			<rect x="42.5" y="23.2" transform="matrix(0.4111 -0.9116 0.9116 0.4111 6.2419 56.5077)" class="st11" width="8.7" height="0.4"/>
		
			<rect x="41.8" y="22.9" transform="matrix(0.4111 -0.9116 0.9116 0.4111 6.1118 55.6468)" class="st11" width="8.7" height="0.4"/>
		
			<rect x="40.9" y="22.5" transform="matrix(0.4111 -0.9116 0.9116 0.4111 5.9643 54.6704)" class="st11" width="8.7" height="0.4"/>
		
			<rect x="37.5" y="18" transform="matrix(0.4111 -0.9116 0.9116 0.4111 10.6737 53.0029)" class="st11" width="17.7" height="0.4"/>
		
			<rect x="36.7" y="17.7" transform="matrix(0.4111 -0.9116 0.9116 0.4111 10.5341 52.079)" class="st11" width="17.7" height="0.4"/>
		
			<rect x="35.9" y="17.3" transform="matrix(0.4111 -0.9116 0.9116 0.4111 10.3849 51.0921)" class="st11" width="17.7" height="0.4"/>
	</g>
</g>
<g>
	<g>
		<g>
			<path d="M15.7,102.2h-1.8v-4.5c0-0.7-0.5-1.1-1.2-1.1h-1.7c-0.7,0-1.2,0.5-1.2,1.1v10c0,0.7,0.5,1.2,1.2,1.2h1.7
				c0.7,0,1.2-0.6,1.2-1.2v-4.5h1.8c0.3,0,0.6-0.2,0.6-0.5v0C16.3,102.5,16.1,102.2,15.7,102.2z"/>
			<path d="M50.6,102.2h1.8v-4.5c0-0.7,0.5-1.1,1.2-1.1h1.7c0.7,0,1.2,0.5,1.2,1.1v10c0,0.7-0.5,1.2-1.2,1.2h-1.7
				c-0.7,0-1.2-0.6-1.2-1.2v-4.5h-1.8c-0.3,0-0.5-0.2-0.5-0.5v0C50,102.5,50.3,102.2,50.6,102.2z"/>
			<g>
				<path class="st12" d="M33.2,25H3.7c-0.7,0-1.2,0.6-1.2,1.2v4.2c0,0.7,0.6,1.2,1.2,1.2h1.1h28.4V25z"/>
				<path class="st13" d="M63.8,30.4v-4.2c0-0.7-0.5-1.2-1.2-1.2H33.2v6.6h28.3h1.1C63.3,31.6,63.8,31.1,63.8,30.4z"/>
			</g>
			<g>
				<path class="st13" d="M33.2,34.1v-2.5H4.8l0.1,1.9C11,33.4,21.7,33.4,33.2,34.1z"/>
				<path class="st12" d="M4.9,33.4l2.3,59c0,2.3,1.6,4.2,3.6,4.2h3.9v8c0,1.5,1.9,2.7,4.3,2.7h14.2V34C21.7,33.3,11,33.3,4.9,33.4z
					"/>
				<path class="st14" d="M61.3,38.1l0.2-6.5H33.2v2.5C42.9,34.7,53.3,35.9,61.3,38.1z"/>
				<path class="st13" d="M33.2,34v73.3h14.1c2.3,0,4.3-1.2,4.3-2.7v-8h3.9c2,0,3.7-1.9,3.7-4.2L61.3,38
					C53.3,35.8,42.9,34.6,33.2,34z"/>
			</g>
			<path id="XMLID_3_" class="st15" d="M24.5,61.6c-0.9,0-1.7-0.2-2.4-0.6c-0.7-0.4-1.1-0.8-1.3-1.3c-0.1-0.2-0.2-0.4-0.2-0.6
				c0-0.2-0.1-0.4-0.1-0.7c0-0.4,0-0.8,0.2-1.2c0.1-0.4,0.2-0.7,0.4-0.9c0.2-0.3,0.3-0.5,0.4-0.6c0.1-0.1,0.2-0.2,0.3-0.3l-1.9-1.1
				L26,54l2.9,5.4l-1.8-1c-0.1,0.1-0.1,0.1-0.3,0.3c-0.1,0.1-0.2,0.3-0.4,0.4c-0.1,0.2-0.3,0.3-0.4,0.5c-0.1,0.2-0.2,0.3-0.3,0.4
				c-0.1,0.2-0.2,0.4-0.2,0.6c0,0.3,0.1,0.5,0.3,0.7c0.2,0.1,0.4,0.2,0.5,0.3L24.5,61.6z M42.4,62.4c0.6,0,1.2-0.2,1.7-0.4
				c0.5-0.2,0.9-0.5,1.3-0.8c0.4-0.3,0.6-0.6,0.8-0.8c0.2-0.2,0.3-0.4,0.4-0.5c-0.1,0.4-0.3,0.7-0.4,1.1c-0.2,0.3-0.4,0.8-0.7,1.2
				c-0.2,0.3-0.3,0.5-0.4,0.7c-0.1,0.3-0.3,0.6-0.4,0.9c-0.4,0.8-0.7,1.5-0.9,2c-0.2,0.5-0.5,1-0.8,1.4c-0.3,0.4-0.6,0.8-0.9,1.1
				c-0.3,0.3-0.6,0.4-1,0.4c-0.2,0-1.3,0-3.2,0l0,2.2l-3.3-5.3l3.3-5.2l0,2.1C40.8,62.4,42.3,62.4,42.4,62.4z M30.3,44.2
				c0.6,0,1.8,0,3.5,0c1.7,0,3,0,3.8,0.1c0.8,0.1,1.3,0.3,1.5,0.7c0,0.1,0.1,0.2,0.3,0.5c0.2,0.3,0.3,0.6,0.5,0.9
				c0.2,0.3,0.4,0.6,0.5,0.8c0.1,0.2,0.2,0.4,0.3,0.5l1.9-1.1L40,52.4l-6.4-0.5l1.8-1.1L33,47c-0.3-0.6-0.7-1.1-1.2-1.5
				c-0.4-0.4-0.9-0.6-1.3-0.8c-0.4-0.2-0.8-0.3-1.1-0.3c-0.3,0-0.5-0.1-0.7-0.1C29.2,44.3,29.7,44.3,30.3,44.2z M21.9,61.6
				c-0.7-0.3-1.1-0.7-1.4-1.2c0.1,0.1,0.2,0.3,0.3,0.6c0.2,0.3,0.4,0.6,0.6,1.1c0.3,0.5,0.5,0.9,0.8,1.5c0.3,0.5,0.5,0.9,0.6,1.1
				c0.1,0.1,0.1,0.2,0.1,0.3c0.2,0.5,0.4,0.9,0.6,1.2c0.2,0.4,0.4,0.7,0.7,1.1c0.2,0.4,0.5,0.7,0.8,1c0.3,0.2,0.5,0.4,0.7,0.4l7-0.1
				L32.8,62c-4.1,0-6.9,0.1-8.5,0.1C23.4,62,22.6,61.9,21.9,61.6z M41.7,61.4c-0.3-0.5-1-1.5-2-3.1c-1-1.6-1.6-2.5-1.8-2.8l5.5-3.3
				c0.1,0.1,0.2,0.3,0.4,0.7c0.2,0.4,0.4,0.8,0.7,1.4c0.6,1.1,1,1.9,1.3,2.5c0.3,0.5,0.5,0.9,0.6,1.1c0.1,0.2,0.1,0.4,0.1,0.6
				c0,0.3-0.1,0.7-0.2,1.1c-0.1,0.1-0.2,0.3-0.4,0.5c-0.2,0.2-0.4,0.5-0.8,0.8c-0.3,0.3-0.8,0.6-1.3,0.9c-0.5,0.3-1.1,0.4-1.7,0.4
				C42.2,62.1,42,61.9,41.7,61.4z M28.9,54.1l-5.4-3c0.1-0.1,0.3-0.5,0.7-1.2c0.1-0.1,0.3-0.5,0.7-1.1c0.4-0.6,0.7-1.1,1-1.6
				c0.3-0.5,0.5-0.8,0.7-1.1c0.2-0.3,0.3-0.5,0.4-0.6c0.1-0.2,0.3-0.4,0.5-0.5c0.2-0.1,0.6-0.2,1.1-0.3c0.2,0,0.4,0,0.7,0.1
				c0.3,0,0.7,0.1,1.1,0.3c0.4,0.2,0.9,0.4,1.3,0.8c0.4,0.4,0.8,0.8,1.1,1.4l0.1,0.1c0.1,0.1,0.2,0.3,0.2,0.4L28.9,54.1z"/>
		</g>
	</g>
	<text transform="matrix(1 0 0 1 20.6191 85.2576)" class="st16 st17 st18">Paper</text>
</g>
</svg>
