<?xml version="1.0" encoding="utf-8"?>
<!-- Generator: Adobe Illustrator 22.1.0, SVG Export Plug-In . SVG Version: 6.00 Build 0)  -->
<svg version="1.1" id="Layer_1" xmlns="http://www.w3.org/2000/svg" xmlns:xlink="http://www.w3.org/1999/xlink" x="0px" y="0px"
	 viewBox="0 0 64 104.8" style="enable-background:new 0 0 64 104.8;" xml:space="preserve">
<style type="text/css">
	.st0{fill:#334B63;}
	.st1{fill:#9AB3C1;}
	.st2{fill:#FFFFFF;}
	.st3{fill:#8AA0AA;}
	.st4{fill:#E0D251;}
	.st5{fill:#BFB147;}
	.st6{fill:#E23513;}
	.st7{fill:#D3260F;}
	.st8{fill:#BF1C10;}
	.st9{fill-rule:evenodd;clip-rule:evenodd;fill:#F4F4F4;}
	.st10{font-family:'Arial-BoldMT';}
	.st11{font-size:7.212px;}
</style>
<g>
	<g>
		<g>
			<g>
				<path class="st0" d="M4.3,1.5C4.2,1.2,3.9,1.1,3.7,1.1l-3.3,1C0.1,2.2-0.1,2.5,0,2.7L0.4,4l4.2-1.3L4.3,1.5z"/>
			</g>
			<path class="st1" d="M10.8,17.2l-1.2-3.9c0.4-1.2,0-2.5-0.4-3.8C8.5,7,6.7,5.4,4.8,5.1L4.2,2.9l-3.2,1L1.6,6
				c-1.4,1.3-2,3.7-1.3,6.1c0.4,1.4,0.8,2.7,1.7,3.5l1.2,3.9c-0.7,1.5-0.4,3.3,0.2,5.3c0.4,1.5,1.2,2.7,2.2,3.6c0.2,0,0.5,0,0.8,0
				c1.4-0.4,0.9-1.7,0.8-1.9c0.1,0.2,1.1,2.3,2.8,1.8c1.8-0.5,1.4-2.8,1.4-3c0,0.2,0.3,1.7,1.7,1.2c0.3-0.1,0.5-0.2,0.7-0.4
				c0.3-1.3,0.3-2.8-0.2-4.2C13,19.7,12.3,18.1,10.8,17.2z"/>
		</g>
		<path class="st2" d="M8.4,13c-0.1,0-0.1,0-0.2-0.1c-0.1-0.1-0.1-0.2,0-0.3c0.4-0.4,0.1-1.9-0.6-3.8c-0.5-1.3-2.2-2-2.3-2
			c-0.1,0-0.2-0.2-0.1-0.3c0-0.1,0.2-0.2,0.3-0.1c0.1,0,1.9,0.8,2.5,2.3c0.2,0.5,0.6,1.4,0.7,2.4c0.2,1,0.1,1.6-0.2,1.9
			C8.5,13,8.5,13,8.4,13z"/>
	</g>
	<g>
		<g>
			<g>
				<path class="st0" d="M19.1,4.4c0-0.3-0.1-0.5-0.4-0.5l-3.4-0.5c-0.3,0-0.5,0.1-0.5,0.4L14.6,5l4.4,0.7L19.1,4.4z"/>
			</g>
			<path class="st1" d="M18.3,21.4l0.6-4.1c0.8-0.9,1.1-2.2,1.3-3.6c0.4-2.4-0.6-4.7-2.1-5.8l0.3-2.3l-3.3-0.5l-0.3,2.2
				c-1.8,0.6-3.4,2.5-3.8,4.9c-0.2,1.4-0.5,2.8,0.1,3.9l-0.6,4c-1.3,1.1-1.8,2.9-2.1,4.9c-0.2,1.5-0.1,3,0.4,4.2
				c0.2,0.1,0.4,0.3,0.7,0.3c1.4,0.3,1.5-1.2,1.5-1.4c0,0.3,0,2.5,1.8,2.8c1.8,0.3,2.5-1.9,2.6-2.1c-0.1,0.2-0.4,1.6,1,1.8
				c0.3,0,0.6,0,0.8-0.1c0.8-1,1.4-2.4,1.7-3.9C19.2,24.6,19.2,22.8,18.3,21.4z"/>
		</g>
		<path class="st2" d="M19,16c-0.1,0-0.1-0.1-0.1-0.1c-0.1-0.1,0-0.3,0.1-0.3c0.5-0.3,0.7-1.8,0.5-3.8c-0.1-1.4-1.6-2.6-1.6-2.6
			c-0.1-0.1-0.1-0.2,0-0.3c0.1-0.1,0.2-0.1,0.3,0c0.1,0.1,1.6,1.3,1.8,2.9c0,0.5,0.1,1.5,0,2.5c-0.1,1-0.3,1.5-0.8,1.8
			C19.1,16,19,16,19,16z"/>
	</g>
	<g>
		<g>
			<g>
				<path class="st0" d="M49.1,0.9c0-0.3-0.1-0.5-0.4-0.5l-3.4-0.5c-0.3,0-0.5,0.1-0.5,0.4l-0.2,1.3l4.4,0.7L49.1,0.9z"/>
			</g>
			<path class="st3" d="M48.3,17.9l0.6-4.1c0.8-0.9,1.1-2.2,1.3-3.6c0.4-2.4-0.6-4.7-2.1-5.8l0.3-2.3l-3.3-0.5l-0.3,2.2
				c-1.8,0.6-3.4,2.5-3.8,4.9c-0.2,1.4-0.5,2.8,0.1,3.9l-0.6,4c-1.3,1.1-1.8,2.9-2.1,4.9c-0.2,1.5-0.1,3,0.4,4.2
				c0.2,0.1,0.4,0.3,0.7,0.3c1.4,0.3,1.5-1.2,1.5-1.4c0,0.3,0,2.5,1.8,2.8c1.8,0.3,2.5-1.9,2.6-2.1c-0.1,0.2-0.4,1.6,1,1.8
				c0.3,0,0.6,0,0.8-0.1c0.8-1,1.4-2.4,1.7-3.9C49.2,21.2,49.2,19.3,48.3,17.9z"/>
		</g>
		<path class="st2" d="M48.5,12.4c-0.1,0-0.1-0.1-0.1-0.1c-0.1-0.1,0-0.3,0.1-0.3c0.5-0.3,0.7-1.8,0.5-3.8c-0.1-1.4-1.6-2.6-1.6-2.6
			c-0.1-0.1-0.1-0.2,0-0.3c0.1-0.1,0.2-0.1,0.3,0c0.1,0.1,1.6,1.3,1.8,2.9c0,0.5,0.1,1.5,0,2.5c-0.1,1-0.3,1.5-0.8,1.8
			C48.7,12.4,48.6,12.4,48.5,12.4z"/>
	</g>
	<g>
		<g>
			<g>
				<path class="st0" d="M63.8,7.9c0.2-0.2,0.2-0.5,0-0.7l-2.4-2.5c-0.2-0.2-0.5-0.2-0.7,0l-1,0.9l3,3.2L63.8,7.9z"/>
			</g>
			<path class="st1" d="M52.7,20.8l3-2.8c1.2-0.2,2.2-1.1,3.3-2.1c1.8-1.7,2.5-4.1,1.9-5.9l1.7-1.6l-2.3-2.5l-1.7,1.6
				c-1.8-0.7-4.2-0.1-6,1.6c-1.1,1-2.1,1.9-2.3,3.1l-3,2.8c-1.7,0.1-3.2,1.2-4.7,2.6c-1.1,1.1-1.9,2.3-2.3,3.6
				c0.1,0.2,0.2,0.5,0.4,0.7c1,1.1,1.9,0,2.1-0.2c-0.2,0.2-1.6,2-0.3,3.3c1.3,1.3,3.1,0,3.4-0.1c-0.2,0.1-1.3,1-0.3,2.1
				c0.2,0.2,0.4,0.3,0.7,0.4c1.3-0.3,2.6-1,3.7-2C51.4,23.9,52.5,22.4,52.7,20.8z"/>
		</g>
		<path class="st2" d="M56.9,15.9c0,0-0.1-0.1,0-0.2c0-0.1,0.1-0.2,0.3-0.2c0.5,0.1,1.6-1.1,2.5-2.8c0.7-1.2,0.2-3,0.2-3
			c0-0.1,0-0.3,0.2-0.3c0.1,0,0.3,0,0.3,0.2c0,0.1,0.6,2-0.2,3.4c-0.3,0.5-0.8,1.3-1.4,2.1c-0.6,0.7-1.2,1.1-1.6,1
			C57,16,56.9,16,56.9,15.9z"/>
	</g>
	<g>
		<path class="st4" d="M40.1,14.8c0.9-1.4,2.3-3.6,2.7-4.2c0.3-0.4,0.4-0.9,0.2-1.4c-0.1-0.6-0.5-1.1-1.2-1.7
			C41.5,7.2,41.2,7,41,6.9L36.5,4c-1.4-0.9-2.8-0.5-3-0.5l-0.1,0l-1.3,0.6l-1.7-3.9l-3.6,1.6L28.2,5c-0.9-0.5-2.1-0.2-2.6,0.7
			l-7.3,11.5c-0.6,0.9-0.3,2.2,0.6,2.8L30,27c0.9,0.6,2.2,0.3,2.7-0.6L40.1,14.8C40.1,14.9,40.1,14.8,40.1,14.8z M34.1,5.7
			c0.2,0,0.7-0.1,1.1,0.2l4.6,2.9l0,0c0,0,0.2,0.1,0.5,0.3c0.2,0.1,0.3,0.3,0.4,0.4c-0.3,0.5-0.9,1.5-1.5,2.4l-5.2-3.3L33,6.2
			L34.1,5.7z"/>
		<g>
			<path class="st0" d="M31.1,0.2C31,0,30.8-0.1,30.6,0l-4,1.7c-0.2,0.1-0.3,0.3-0.2,0.6l0.4,0.9l4.8-2.1L31.1,0.2z"/>
		</g>
		<path class="st5" d="M36.9,13.7l-6.2,9.8l-9-5.7L27.9,8L36.9,13.7 M37.5,13.2l-9.3-5.9c-0.2-0.2-0.5-0.1-0.7,0.2L21,17.6
			c-0.2,0.2-0.1,0.6,0.2,0.7l9.3,5.9c0.2,0.2,0.6,0.1,0.7-0.2l6.4-10.1C37.8,13.7,37.7,13.4,37.5,13.2L37.5,13.2z"/>
		<g>
			<path class="st5" d="M29.2,11.3c0.4,0.3,0.7,0.7,0.8,1.2c0.1,0.5-0.1,1.1-0.5,1.7c-0.5,0.8-1.1,1.3-1.9,1.7
				c-0.8,0.4-1.4,0.6-1.8,0.6l1.6,1l-0.8,1.3l-3.1-1.9l0.8-1.3c0.2,0.1,0.8,0,1.8-0.4c1-0.4,1.7-0.7,2-0.9c0.3-0.2,0.5-0.6,0.6-0.9
				c0.1-0.4-0.1-0.7-0.4-0.9c-0.4-0.2-0.8-0.2-1.2,0l0-1.3c0.4-0.2,0.7-0.3,1-0.3C28.4,10.9,28.8,11,29.2,11.3z"/>
			<path class="st5" d="M28.5,18.8c0.1-0.8,0.4-1.7,1-2.6c0.6-0.9,1.2-1.6,1.9-2.1c0.7-0.4,1.3-0.5,1.8-0.2c0.5,0.3,0.7,0.9,0.6,1.7
				c-0.1,0.8-0.4,1.7-1,2.6c-0.6,0.9-1.2,1.6-1.9,2.1c-0.7,0.4-1.3,0.5-1.8,0.2C28.6,20.1,28.4,19.6,28.5,18.8z M29.9,19.2
				c0.2,0.1,0.5,0,0.9-0.3c0.4-0.3,0.8-0.7,1.2-1.3c0.4-0.6,0.6-1.1,0.7-1.6c0.1-0.5,0-0.8-0.2-0.9c-0.2-0.1-0.5,0-0.9,0.3
				c-0.4,0.3-0.8,0.7-1.2,1.3c-0.4,0.6-0.6,1.1-0.7,1.6C29.7,18.8,29.7,19.1,29.9,19.2z"/>
		</g>
	</g>
</g>
<g>
	<g>
		<path d="M14.6,98h-1.8v-4.5c0-0.7-0.5-1.3-1.2-1.3H9.9c-0.7,0-1.2,0.6-1.2,1.3v10c0,0.7,0.6,1.2,1.2,1.2h1.7
			c0.7,0,1.2-0.6,1.2-1.2v-4.5h1.8c0.3,0,0.5-0.2,0.5-0.5v0C15.1,98.3,14.9,98,14.6,98z"/>
		<path d="M49.4,98h1.8v-4.5c0-0.7,0.6-1.3,1.2-1.3h1.7c0.7,0,1.2,0.6,1.2,1.3v10c0,0.7-0.5,1.2-1.2,1.2h-1.7
			c-0.7,0-1.2-0.6-1.2-1.2v-4.5h-1.8c-0.3,0-0.5-0.2-0.5-0.5v0C48.9,98.3,49.1,98,49.4,98z"/>
		<g>
			<path class="st6" d="M32,20.8H2.5c-0.7,0-1.2,0.5-1.2,1.2v4.2c0,0.7,0.5,1.2,1.2,1.2h1.1H32V20.8z"/>
			<path class="st7" d="M62.7,26.2V22c0-0.7-0.5-1.2-1.2-1.2H32v6.6h28.4h1.1C62.1,27.4,62.7,26.9,62.7,26.2z"/>
		</g>
		<g>
			<path class="st7" d="M32,29.9v-2.5H3.6l0.1,1.9C9.8,29.2,20.7,29.2,32,29.9z"/>
			<path class="st6" d="M3.7,29.2l2.3,59c0,2.3,1.6,4.2,3.6,4.2h3.9v8c0,1.5,1.9,2.8,4.2,2.8H32V29.8C20.7,29.1,9.8,29.1,3.7,29.2z"
				/>
			<path class="st8" d="M60.1,33.9l0.2-6.5H32v2.5C41.8,30.5,52.1,31.7,60.1,33.9z"/>
			<path class="st7" d="M32,29.8v73.4h14.1c2.3,0,4.2-1.2,4.2-2.8v-8h3.9c2,0,3.7-1.9,3.7-4.2l2.2-54.4C52.1,31.6,41.8,30.4,32,29.8
				z"/>
		</g>
		<path id="XMLID_1_" class="st9" d="M23.3,57.5c-0.9,0-1.7-0.2-2.4-0.6c-0.7-0.4-1.1-0.8-1.3-1.3c-0.1-0.2-0.2-0.4-0.2-0.6
			c0-0.2-0.1-0.4-0.1-0.7c0-0.4,0-0.8,0.2-1.2c0.1-0.4,0.2-0.7,0.4-1c0.2-0.3,0.3-0.5,0.4-0.6c0.1-0.1,0.2-0.2,0.3-0.3l-1.9-1.1
			l6.2-0.2l2.9,5.4l-1.8-1c-0.1,0.1-0.1,0.1-0.3,0.3c-0.1,0.1-0.2,0.3-0.4,0.4c-0.1,0.2-0.3,0.3-0.4,0.5c-0.1,0.2-0.2,0.3-0.3,0.4
			c-0.1,0.2-0.2,0.4-0.2,0.6c0,0.3,0.1,0.5,0.3,0.7c0.2,0.1,0.4,0.2,0.5,0.3L23.3,57.5z M41.2,58.3c0.6,0,1.2-0.2,1.7-0.4
			c0.5-0.2,0.9-0.5,1.3-0.8c0.4-0.3,0.6-0.6,0.8-0.8c0.2-0.2,0.3-0.4,0.4-0.5c-0.1,0.4-0.3,0.7-0.4,1.1c-0.2,0.3-0.4,0.8-0.7,1.2
			c-0.2,0.3-0.3,0.5-0.4,0.7c-0.1,0.3-0.3,0.6-0.4,0.9c-0.4,0.8-0.7,1.5-0.9,2c-0.2,0.5-0.5,1-0.8,1.4c-0.3,0.4-0.6,0.8-0.9,1.1
			c-0.3,0.3-0.6,0.4-1,0.4c-0.2,0-1.3,0-3.2,0l0,2.2l-3.3-5.3l3.3-5.2l0,2.1C39.6,58.3,41.2,58.3,41.2,58.3z M29.1,40.1
			c0.6,0,1.8,0,3.5,0c1.7,0,3,0,3.8,0.1c0.8,0.1,1.3,0.3,1.5,0.7c0,0.1,0.1,0.2,0.3,0.5c0.2,0.3,0.3,0.6,0.5,0.9
			c0.2,0.3,0.4,0.6,0.5,0.8c0.1,0.2,0.2,0.4,0.3,0.5l1.9-1.1l-2.6,5.8l-6.4-0.5l1.8-1.1l-2.3-3.8c-0.3-0.6-0.7-1.1-1.2-1.5
			c-0.4-0.4-0.9-0.6-1.3-0.8c-0.4-0.2-0.8-0.3-1.1-0.3c-0.3,0-0.5-0.1-0.7-0.1C28,40.2,28.5,40.1,29.1,40.1z M20.7,57.5
			c-0.7-0.3-1.1-0.7-1.4-1.2c0.1,0.1,0.2,0.3,0.3,0.6c0.2,0.3,0.4,0.6,0.6,1.1c0.3,0.5,0.5,0.9,0.8,1.5c0.3,0.5,0.5,0.9,0.6,1.1
			c0.1,0.1,0.1,0.2,0.1,0.3c0.2,0.5,0.4,0.9,0.6,1.2c0.2,0.4,0.4,0.7,0.7,1.1c0.2,0.4,0.5,0.7,0.8,1c0.3,0.2,0.5,0.4,0.7,0.4l7-0.1
			l-0.1-6.7c-4.1,0-6.9,0.1-8.5,0.1C22.2,57.9,21.4,57.8,20.7,57.5z M40.5,57.2c-0.3-0.5-1-1.5-2-3.1c-1-1.6-1.6-2.5-1.8-2.8
			l5.5-3.3c0.1,0.1,0.2,0.3,0.4,0.7c0.2,0.4,0.4,0.8,0.7,1.4c0.6,1.1,1,1.9,1.3,2.5c0.3,0.5,0.5,0.9,0.6,1.1
			c0.1,0.2,0.1,0.4,0.1,0.6c0,0.3-0.1,0.7-0.2,1.1c-0.1,0.1-0.2,0.3-0.4,0.5c-0.2,0.2-0.4,0.5-0.8,0.8c-0.3,0.3-0.8,0.6-1.3,0.9
			c-0.5,0.3-1.1,0.4-1.7,0.4C41,58,40.8,57.7,40.5,57.2z M27.7,50l-5.4-3c0.1-0.1,0.3-0.5,0.7-1.2c0.1-0.1,0.3-0.5,0.7-1.1
			c0.4-0.6,0.7-1.1,1-1.6c0.3-0.5,0.5-0.8,0.7-1.1c0.2-0.3,0.3-0.5,0.4-0.6c0.1-0.2,0.3-0.4,0.5-0.5c0.2-0.1,0.6-0.2,1.1-0.3
			c0.2,0,0.4,0,0.7,0.1c0.3,0,0.7,0.1,1.1,0.3c0.4,0.2,0.9,0.4,1.3,0.8c0.4,0.4,0.8,0.8,1.1,1.4l0.1,0.1c0.1,0.1,0.2,0.3,0.2,0.4
			L27.7,50z"/>
	</g>
	<text transform="matrix(1 0 0 1 16.5078 81.2138)" class="st2 st10 st11">Plastic</text>
</g>
</svg>
