<svg id="objects" xmlns="http://www.w3.org/2000/svg" xmlns:xlink="http://www.w3.org/1999/xlink" viewBox="0 0 80 80"><style>.st0{fill:#43a047}.st1{opacity:.54}.st2{clip-path:url(#SVGID_2_)}.st3{opacity:.5;fill:#43a047}.st4{fill:#f9a825}.st5{fill:#4dd0e1}.st6{fill:#26c6da}.st7{fill:#fdd835}.st8{fill:#ef5350}.st9{fill:#e53935}</style><circle class="st0" cx="40" cy="40" r="40"/><g class="st1"><defs><circle id="SVGID_1_" class="st1" cx="40" cy="40" r="40"/></defs><clipPath id="SVGID_2_"><use xlink:href="#SVGID_1_" overflow="visible"/></clipPath><g class="st2"><path class="st3" d="M81.3 74.8l4.5-2.3 4.5 2.3-4.5 7.9-4.5-7.9zm10.8 39.5v-1.6h-1l2.5-23.5h-3.9v-2.5L96.9 63l-5 8.8-.6-3.4 5.6-5.4-7.7-1.1-3.4-7-3.4 7-7.8 1.1 5.6 5.4-.6 3.4-5-8.8 7.3 23.8v2.5H78l2.5 23.5h-1v1.6h-1.3l-.5 2.4h16.2l-.5-2.4h-1.3z"/><path class="st3" d="M81.1 74.6l4.5-2.3 4.5 2.3-4.5 7.9-4.5-7.9zm10.7 39.5v-1.6h-1L93.3 89h-3.9v-2.5l7.3-23.8-5 8.8-.6-3.4 5.6-5.4-7.7-1.1-3.4-7-3.4 7-7.7 1.1 5.6 5.4-.6 3.4-5-8.8 7.3 23.8V89h-3.9l2.5 23.5h-1v1.6H78l-.5 2.4h16.2l-.5-2.4h-1.4z"/><path class="st3" d="M80.9 74.3l4.5-2.3 4.5 2.3-4.5 7.9-4.5-7.9zm10.7 39.6v-1.6h-1l2.5-23.5h-3.9v-2.5l7.3-23.8-5 8.8-.6-3.3 5.6-5.4-7.7-1.1-3.4-7-3.4 7-7.7 1.1 5.6 5.4-.6 3.4-5-8.8 7.3 23.8v2.5h-3.9l2.5 23.5h-1v1.6h-1.3l-.5 2.4h16.2l-.5-2.4h-1.5z"/><path class="st3" d="M80.6 74.1l4.5-2.3 4.5 2.3-4.5 7.9-4.5-7.9zm10.8 39.5V112h-1l2.5-23.5H89V86l7.3-23.8-5 8.8-.6-3.4 5.6-5.4-7.7-1.1-3.4-7-3.4 7-7.7 1.1 5.6 5.4-.6 3.4-5-8.8L81.4 86v2.5h-3.9L80 112h-1v1.6h-1.3L77 116h16.2l-.5-2.4h-1.3z"/><path class="st3" d="M80.4 73.9l4.5-2.3 4.5 2.3-4.5 7.9-4.5-7.9zm10.7 39.5v-1.6h-1l2.5-23.5h-3.9v-2.5L96 62.1l-5 8.8-.6-3.4 5.6-5.4-7.7-1.1-3.4-7-3.4 7-7.7 1.1 5.6 5.4-.6 3.4-5-8.8L81 85.9v2.5h-3.9l2.5 23.5h-1v1.6h-1.3l-.5 2.4H93l-.5-2.4h-1.4z"/><path class="st3" d="M80.2 73.7l4.5-2.3 4.5 2.3-4.5 7.9-4.5-7.9zm10.7 39.5v-1.6h-1l2.5-23.5h-3.9v-2.5l7.3-23.8-5 8.8-.6-3.4 5.6-5.4-7.7-1.1-3.4-7-3.4 7-7.7 1.1 5.6 5.4-.6 3.4-5-8.8 7.3 23.8v2.5H77l2.5 23.5h-1v1.6h-1.3l-.5 2.4h16.2l-.5-2.4h-1.5z"/><path class="st3" d="M80 73.4l4.5-2.3 4.5 2.3-4.5 7.9-4.5-7.9zM90.7 113v-1.6h-1l2.5-23.5h-3.9v-2.5l7.3-23.8-5 8.8L90 67l5.6-5.4-7.7-1.1-3.4-7-3.4 7-7.7 1.1L79 67l-.6 3.4-5-8.8 7.3 23.8v2.5h-3.9l2.5 23.5h-1v1.6H77l-.5 2.4h16.2L92 113h-1.3z"/><path class="st3" d="M79.7 73.2l4.5-2.3 4.5 2.3-4.5 7.9-4.5-7.9zm10.8 39.5v-1.6h-1L92 87.6h-3.9v-2.5l7.3-23.8-5 8.8-.6-3.4 5.6-5.4-7.7-1.1-3.4-7-3.4 7-7.9 1.2 5.6 5.4-.6 3.4-5-8.8 7.3 23.8v2.5h-3.9l2.5 23.5h-1v1.6h-1.3l-.5 2.4h16.2l-.5-2.4h-1.3z"/><path class="st3" d="M79.5 73l4.5-2.3 4.5 2.3-4.5 7.8-4.5-7.8zm10.7 39.5v-1.6h-1l2.5-23.5h-3.9V85l7.3-23.8-5 8.8-.6-3.4 5.6-5.4-7.7-1.2-3.4-7-3.4 7-7.7 1.1 5.6 5.4-.7 3.5-5-8.8L80.1 85v2.5h-3.9l2.5 23.5h-1v1.6h-1.3l-.5 2.4H92l-.5-2.4h-1.3z"/><path class="st3" d="M79.3 72.8l4.5-2.3 4.5 2.3-4.5 7.9-4.5-7.9zM90 112.3v-1.6h-1l2.5-23.5h-3.9v-2.5l7.3-23.8-5 8.8-.6-3.4 5.6-5.4-7.7-1.1-3.4-7-3.4 7-7.7 1.1 5.6 5.4-.6 3.4-5-8.8L80 84.7v2.5h-4l2.5 23.5h-1v1.6h-1.3l-.5 2.4h16.2l-.5-2.4H90z"/><path class="st3" d="M79 72.5l4.5-2.3 4.5 2.3-4.5 7.9-4.5-7.9zM89.8 112v-1.6h-1L91.3 87h-3.9v-2.5l7.3-23.8-5 8.8-.6-3.4 5.6-5.4-7.7-1.1-3.4-7-3.4 7-7.7 1.1 5.6 5.4-.6 3.4-5-8.8 7.3 23.8V87h-3.9l2.5 23.5h-1v1.6h-1.3l-.5 2.4h16.2l-.5-2.4h-1.5z"/><path class="st3" d="M78.8 72.3l4.5-2.3 4.5 2.3-4.5 7.9-4.5-7.9zm10.7 39.5v-1.6h-1L91 86.8h-3.9v-2.5l7.3-23.8-5 8.8-.6-3.4 5.6-5.4-7.7-1.1-3.4-7-3.4 7-7.7 1.1 5.6 5.4-.6 3.4-5-8.8 7.3 23.8v2.5h-3.9l2.5 23.5h-1v1.6h-1.3l-.5 2.4h16.2l-.5-2.4h-1.5z"/><path class="st3" d="M78.6 72.1l4.5-2.3 4.5 2.3-4.6 7.8-4.4-7.8zm10.7 39.5V110h-1l2.5-23.5h-3.9V84l7.3-23.8-5 8.8-.6-3.4 5.6-5.4-7.7-1.1-3.4-7-3.4 7-7.7 1.1 5.6 5.4L77 69l-5-8.8L79.3 84v2.5h-3.9l2.5 23.5h-1v1.6h-1.3l-.5 2.4h16.2l-.5-2.4h-1.5z"/><path class="st3" d="M78.4 71.8l4.5-2.3 4.5 2.3-4.5 7.9-4.5-7.9zm10.7 39.6v-1.6h-1l2.5-23.5h-3.9v-2.5L94 60l-5 8.8-.6-3.4L94 60l-7.7-1.1-3.4-7-3.4 7-7.8 1.1 5.6 5.4-.6 3.4-5-8.8L79 83.8v2.5h-3.9l2.5 23.5h-1v1.6h-1.3l-.5 2.4H91l-.5-2.4h-1.4z"/><path class="st3" d="M78.1 71.6l4.5-2.3 4.5 2.3-4.5 7.9-4.5-7.9zm10.8 39.5v-1.6h-1L90.4 86h-3.9v-2.5l7.3-23.8-5 8.8-.6-3.4 5.6-5.4-7.8-1-3.4-7-3.4 7-7.7 1.1 5.6 5.4-.6 3.4-5-8.8 7.3 23.8v2.5h-3.9l2.5 23.5h-1v1.6H75l-.5 2.4h16.2l-.5-2.4h-1.3z"/><path class="st3" d="M77.9 71.4l4.5-2.3 4.5 2.3-4.5 7.9-4.5-7.9zm10.7 39.5v-1.6h-1l2.5-23.5h-3.9v-2.5l7.3-23.8-5 8.8-.6-3.3 5.6-5.4-7.7-1.1-3.4-7-3.4 7-7.7 1.1 5.6 5.4-.6 3.4-5-8.8 7.3 23.8v2.5h-3.9l2.5 23.5h-1v1.6h-1.3l-.5 2.4h16.2l-.5-2.4h-1.5z"/><path class="st3" d="M77.7 71.2l4.5-2.3 4.5 2.3-4.6 7.8-4.4-7.8zm10.7 39.5v-1.6h-1l2.5-23.5H86v-2.5l7.3-23.8-5 8.8-.6-3.4 5.6-5.4-7.7-1.1-3.4-7-3.4 7-7.8 1.1 5.6 5.4-.6 3.4-5-8.8 7.3 23.8v2.5h-3.9l2.5 23.5h-1v1.6h-1.3L74 113h16.2l-.5-2.4h-1.3z"/><path class="st3" d="M77.5 70.9l4.5-2.3 4.5 2.3-4.5 7.9-4.5-7.9zm10.7 39.5v-1.6h-1l2.5-23.5h-3.9v-2.5L93.1 59l-5 8.8-.6-3.4 5.6-5.4-7.7-1-3.4-7-3.4 7-7.7 1.1 5.6 5.4-.6 3.4-5-8.8L78 82.9v2.5h-3.9l2.5 23.5h-1v1.6h-1.3l-.5 2.4H90l-.5-2.4h-1.3z"/><path class="st3" d="M77.2 70.7l4.5-2.3 4.5 2.3-4.5 7.9-4.5-7.9zM88 110.2v-1.6h-1l2.5-23.5h-3.9v-2.5l7.3-23.8-5 8.8-.6-3.4 5.6-5.4-7.7-1.1-3.4-7-3.4 7-7.7 1.1 5.6 5.4-.6 3.4-5-8.8L78 82.6v2.5h-3.9l2.5 23.5h-1v1.6h-1.3l-.5 2.4H90l-.5-2.4H88z"/><path class="st3" d="M77 70.5l4.5-2.3 4.5 2.3-4.5 7.9-4.5-7.9zM87.7 110v-1.6h-1L89.2 85h-3.9v-2.5l7.3-23.8-5 8.8-.6-3.4 5.6-5.4-7.7-1.1-3.4-7-3.4 7-7.7 1.1 5.6 5.4-.6 3.4-5-8.8 7.3 23.8V85h-3.9l2.5 23.5h-1v1.6H74l-.5 2.4h16.2L89 110h-1.3z"/><path class="st3" d="M76.8 70.2l4.5-2.3 4.5 2.3-4.5 7.9-4.5-7.9zm10.7 39.6v-1.6h-1L89 84.7h-3.9v-2.5l7.3-23.8-5 8.8-.6-3.4 5.6-5.4-7.7-1.1-3.4-7-3.4 7-7.7 1.1 5.6 5.4-.6 3.4-5-8.8 7.3 23.8v2.5h-3.9l2.5 23.5h-1v1.6h-1.3l-.5 2.4h16.2l-.5-2.4h-1.5z"/><path class="st3" d="M76.5 70l4.5-2.3 4.5 2.3-4.5 7.9-4.5-7.9zm10.8 39.5V108h-1l2.5-23.5h-3.9V82l7.3-23.8-5 8.8-.6-3.4 5.6-5.4-7.7-1.1-3.4-7-3.4 7-7.7 1.1 5.6 5.4-.8 3.4-5-8.8L77.1 82v2.5h-3.9l2.5 23.5h-1v1.6h-1.3l-.5 2.4h16.2l-.5-2.4h-1.3z"/><path class="st3" d="M76.3 69.8l4.5-2.3 4.5 2.3-4.5 7.9-4.5-7.9zM87 109.3v-1.6h-1l2.5-23.5h-3.9v-2.5L91.9 58l-5 8.8-.6-3.4 5.6-5.4-7.7-1.1-3.4-7-3.4 7-7.8 1.1 5.6 5.4-.6 3.4-5-8.8 7.3 23.8v2.5H73l2.5 23.5h-1v1.6h-1.3l-.5 2.4h16.2l-.5-2.4H87z"/><path class="st3" d="M76.1 69.6l4.5-2.3 4.5 2.3-4.5 7.9-4.5-7.9zm10.7 39.5v-1.6h-1L88.3 84h-3.9v-2.5l7.3-23.8-5 8.8-.6-3.4 5.6-5.4-7.7-1.1-3.4-7-3.4 7-7.7 1.1 5.6 5.4-.6 3.4-5-8.8 7.3 23.8V84h-3.9l2.5 23.5h-1v1.6H73l-.5 2.4h16.2l-.5-2.4h-1.4z"/><path class="st3" d="M75.9 69.3l4.5-2.3 4.5 2.3-4.5 7.9-4.5-7.9zm10.7 39.6v-1.6h-1l2.5-23.5h-3.9v-2.5l7.3-23.8-5 8.8-.6-3.4 5.6-5.4-7.7-1.1-3.4-7-3.4 7-7.7 1.1 5.6 5.4-.6 3.4-5-8.8 7.3 23.8v2.5h-3.9l2.5 23.5h-1v1.6h-1.3l-.5 2.4h16.2l-.5-2.4h-1.5z"/><path class="st3" d="M75.6 69.1l4.5-2.3 4.5 2.3-4.5 7.9-4.5-7.9zm10.8 39.5V107h-1l2.5-23.5H84V81l7.3-23.8-5 8.8-.6-3.4 5.6-5.4-7.7-1.1-3.4-7-3.4 7-7.7 1.1 5.6 5.4-.6 3.4-5-8.8L76.4 81v2.5h-3.9L75 107h-1v1.6h-1.3L72 111h16.2l-.5-2.4h-1.3z"/><path class="st3" d="M75.4 68.9l4.5-2.3 4.5 2.3-4.5 7.9-4.5-7.9zm10.7 39.5v-1.6h-1l2.5-23.5h-3.9v-2.5L91 57.1l-5 8.8-.6-3.4 5.6-5.4-7.7-1.1-3.4-7-3.4 7-7.7 1.1 5.6 5.4-.6 3.4-5-8.8L76 80.9v2.5h-3.9l2.5 23.5h-1v1.6h-1.3l-.5 2.4H88l-.5-2.4h-1.4z"/><path class="st3" d="M75.2 68.7l4.5-2.3 4.5 2.3-4.5 7.9-4.5-7.9zm10.7 39.5v-1.6h-1l2.5-23.5h-3.9v-2.5l7.3-23.8-5 8.8-.6-3.4 5.6-5.4-7.7-1.1-3.4-7-3.4 7-7.7 1.1 5.6 5.4-.6 3.4-5-8.8 7.3 23.8v2.5H72l2.5 23.5h-1v1.6h-1.3l-.5 2.4h16.2l-.5-2.4h-1.5z"/><path class="st3" d="M74.9 68.4l4.5-2.3 4.5 2.3-4.5 7.9-4.5-7.9zm10.8 39.5v-1.6h-1l2.5-23.5h-3.9v-2.5l7.3-23.8-5 8.8L85 62l5.6-5.4-7.7-1.1-3.4-7-3.4 7-7.7 1.1L74 62l-.6 3.4-5-8.8 7.3 23.8v2.5h-3.9l2.5 23.5h-1v1.6H72l-.5 2.4h16.2l-.5-2.4h-1.5z"/><path class="st3" d="M74.7 68.2l4.5-2.3 4.5 2.3-4.5 7.9-4.5-7.9zm10.7 39.5v-1.6h-1l2.5-23.5H83v-2.5l7.3-23.8-5 8.8-.6-3.4 5.6-5.4-7.7-1.1-3.4-7-3.4 7-7.8 1.2 5.6 5.4-.6 3.4-5-8.8 7.3 23.8v2.5h-3.9l2.5 23.5h-1v1.6h-1.3l-.5 2.4h16.2l-.5-2.4h-1.4z"/><path class="st3" d="M74.5 68l4.5-2.3 4.5 2.3-4.5 7.9-4.5-7.9zm10.7 39.5v-1.6h-1l2.5-23.5h-3.9V80l7.3-23.8-5 8.8-.6-3.4 5.6-5.4-7.7-1.2-3.4-7-3.4 7-7.7 1.1 5.6 5.4-.7 3.5-5-8.8L75.1 80v2.5h-3.9l2.5 23.5h-1v1.6h-1.3l-.5 2.4H87l-.5-2.4h-1.3z"/><path class="st3" d="M74.3 67.7l4.5-2.3 4.5 2.3-4.5 7.9-4.5-7.9zM85 107.3v-1.6h-1l2.5-23.5h-3.9v-2.5l7.3-23.8-5 8.8-.6-3.4 5.6-5.4-7.7-1.1-3.4-7-3.4 7-7.7 1.1 5.6 5.4-.6 3.4-5-8.8L75 79.7v2.5h-4l2.5 23.5h-1v1.6h-1.3l-.5 2.4h16.2l-.5-2.4H85z"/><path class="st3" d="M74 67.5l4.5-2.3 4.5 2.3-4.5 7.9-4.5-7.9zM84.8 107v-1.6h-1L86.2 82h-3.9v-2.5l7.3-23.8-5 8.8-.6-3.4 5.6-5.4-7.7-1.1-3.4-7-3.4 7-7.7 1.1 5.6 5.4-.6 3.4-5-8.8 7.3 23.8V82h-3.9l2.5 23.5h-1v1.6H71l-.5 2.4h16.2l-.5-2.4h-1.4z"/><path class="st3" d="M73.8 67.3l4.5-2.3 4.5 2.3-4.5 7.9-4.5-7.9zm10.7 39.5v-1.6h-1L86 81.8h-3.9v-2.5l7.3-23.8-5 8.8-.6-3.4 5.6-5.4-7.7-1.1-3.4-7-3.4 7-7.7 1.1 5.6 5.4-.6 3.4-5-8.8 7.3 23.8v2.5h-3.9l2.5 23.5h-1v1.6h-1.3l-.5 2.4h16.2l-.5-2.4h-1.5z"/><path class="st3" d="M73.6 67.1l4.5-2.3 4.5 2.3-4.6 7.8-4.4-7.8zm10.7 39.5V105h-1l2.5-23.5h-3.9V79l7.3-23.8-5 8.8-.6-3.4 5.6-5.4-7.7-1.1-3.4-7-3.4 7-7.7 1.1 5.6 5.4-.7 3.4-5-8.8L74.2 79v2.5h-3.9l2.5 23.5h-1v1.6h-1.3L70 109h16.2l-.5-2.4h-1.4z"/><path class="st3" d="M73.4 66.8l4.5-2.3 4.5 2.3-4.5 7.9-4.5-7.9zm10.7 39.5v-1.6h-1l2.5-23.5h-3.9v-2.5L89 55l-5 8.8-.6-3.4L89 55l-7.7-1.1-3.4-7-3.4 7-7.8 1.1 5.6 5.4-.6 3.4-5-8.8L74 78.8v2.5h-4l2.5 23.5h-1v1.6h-1.3l-.5 2.4h16.2l-.5-2.4h-1.3z"/><path class="st3" d="M73.1 66.6l4.5-2.3 4.5 2.3-4.5 7.9-4.5-7.9zm10.8 39.5v-1.6h-1L85.4 81h-3.9v-2.5l7.3-23.8-5 8.8-.6-3.4 5.6-5.4-7.8-1-3.4-7-3.4 7-7.7 1.1 5.6 5.4-.6 3.4-5-8.8 7.3 23.8v2.5h-3.9l2.5 23.5h-1v1.6H70l-.5 2.4h16.2l-.5-2.4h-1.3z"/><path class="st3" d="M72.9 66.4l4.5-2.3 4.5 2.3-4.5 7.9-4.5-7.9zm10.7 39.5v-1.6h-1l2.5-23.5h-3.9v-2.5l7.3-23.8-5 8.8-.6-3.3 5.6-5.4-7.7-1.1-3.4-7-3.4 7-7.7 1.1 5.6 5.4-.6 3.4-5-8.8 7.3 23.8v2.5h-3.9l2.5 23.5h-1v1.6h-1.3l-.5 2.4h16.2l-.5-2.4h-1.5z"/><path class="st3" d="M72.7 66.1l4.5-2.3 4.5 2.3-4.6 7.9-4.4-7.9zm10.7 39.6v-1.6h-1l2.5-23.5H81v-2.5l7.3-23.8-5 8.8-.6-3.4 5.6-5.4-7.7-1.1-3.4-7-3.4 7-7.8 1.1 5.6 5.4-.6 3.4-5-8.8 7.3 23.8v2.5h-3.9l2.5 23.5h-1v1.6h-1.3L69 108h16.2l-.5-2.4h-1.3z"/><path class="st3" d="M72.4 65.9l4.5-2.3 4.5 2.3-4.5 7.9-4.5-7.9zm10.8 39.5v-1.6h-1l2.5-23.5h-3.9v-2.5L88 54.1l-5 8.8-.6-3.4 5.6-5.4-7.7-1.1-3.4-7-3.4 7-7.7 1.1 5.6 5.4-.6 3.4-5-8.8L73 77.9v2.5h-3.9l2.5 23.5h-1v1.6h-1.3l-.5 2.4H85l-.5-2.4h-1.3z"/><path class="st3" d="M72.2 65.7l4.5-2.3 4.5 2.3-4.5 7.9-4.5-7.9zm10.7 39.5v-1.6h-1l2.5-23.5h-3.9v-2.5l7.3-23.8-5 8.8-.6-3.4 5.6-5.4-7.7-1.1-3.4-7-3.4 7-7.7 1.1 5.6 5.4-.6 3.4-5-8.8 7.3 23.8v2.5H69l2.5 23.5h-1v1.6h-1.3l-.5 2.4h16.2l-.5-2.4h-1.5z"/><path class="st3" d="M72 65.5l4.5-2.3 4.5 2.3-4.5 7.9-4.5-7.9zM82.7 105v-1.6h-1L84.2 80h-3.9v-2.5l7.3-23.8-5 8.8-.6-3.4 5.6-5.4-7.7-1.1-3.4-7-3.4 7-7.7 1.1 5.6 5.4-.6 3.4-5-8.8 7.3 23.8V80h-3.9l2.5 23.5h-1v1.6H69l-.5 2.4h16.2L84 105h-1.3z"/><path class="st3" d="M71.8 65.2l4.5-2.3 4.5 2.3-4.5 7.9-4.5-7.9zm10.7 39.6v-1.6h-1L84 79.7h-3.9v-2.5l7.3-23.8-5 8.8-.6-3.4 5.6-5.4-7.7-1.1-3.4-7-3.4 7-7.7 1.1 5.6 5.4-.6 3.4-5-8.8 7.3 23.8v2.5h-3.9l2.5 23.5h-1v1.6h-1.3l-.5 2.4h16.2l-.5-2.4h-1.5z"/><path class="st3" d="M71.5 65l4.5-2.3 4.5 2.3-4.5 7.9-4.5-7.9zm10.8 39.5V103h-1l2.5-23.5h-3.9V77l7.3-23.8-5 8.8-.6-3.4 5.6-5.4-7.7-1.1-3.4-7-3.4 7-7.7 1.1 5.6 5.4-.8 3.4-5-8.8L72.1 77v2.5h-3.9l2.5 23.5h-1v1.6h-1.3l-.5 2.4h16.2l-.5-2.4h-1.3z"/><path class="st3" d="M71.3 64.8l4.5-2.3 4.5 2.3-4.5 7.9-4.5-7.9zM82 104.3v-1.6h-1l2.5-23.5h-3.9v-2.5L86.9 53l-5 8.8-.6-3.4 5.6-5.4-7.7-1.1-3.4-7-3.4 7-7.8 1.1 5.6 5.4-.6 3.4-5-8.8 7.3 23.8v2.5H68l2.5 23.5h-1v1.6h-1.3l-.5 2.4h16.2l-.5-2.4H82z"/><path class="st3" d="M71.1 64.6l4.5-2.3 4.5 2.3-4.5 7.9-4.5-7.9zm10.7 39.5v-1.6h-1L83.3 79h-3.9v-2.5l7.3-23.8-5 8.8-.6-3.4 5.6-5.4-7.7-1.1-3.4-7-3.4 7-7.7 1.1 5.6 5.4-.6 3.4-5-8.8 7.3 23.8V79h-3.9l2.5 23.5h-1v1.6H68l-.5 2.4h16.2l-.5-2.4h-1.4z"/><path class="st3" d="M70.8 64.3l4.5-2.3 4.5 2.3-4.5 7.9-4.5-7.9zm10.8 39.5v-1.6h-1l2.5-23.5h-3.9v-2.5l7.3-23.8-5 8.8-.6-3.4 5.6-5.4-7.7-1.1-3.4-7-3.4 7-7.7 1.1 5.6 5.4-.6 3.4-5-8.8 7.3 23.8v2.5h-3.9l2.5 23.5h-1v1.6h-1.3l-.5 2.4h16.2l-.5-2.4h-1.5z"/><path class="st3" d="M70.6 64.1l4.5-2.3 4.5 2.3-4.5 7.9-4.5-7.9zm10.7 39.5V102h-1l2.5-23.5H79V76l7.3-23.8-5 8.8-.6-3.4 5.6-5.4-7.7-1.1-3.4-7-3.4 7-7.7 1.1 5.6 5.4-.6 3.4-5-8.8L71.4 76v2.5h-3.9L70 102h-1v1.6h-1.3L67 106h16.2l-.5-2.4h-1.4z"/><path class="st3" d="M70.4 63.9l4.5-2.3 4.5 2.3-4.5 7.9-4.5-7.9zm10.7 39.5v-1.6h-1l2.5-23.5h-3.9v-2.5L86 52l-5 8.8-.6-3.4L86 52l-7.7-1.1-3.4-7-3.4 7-7.8 1.1 5.6 5.4-.6 3.4-5-8.8L71 75.9v2.5h-3.9l2.5 23.5h-1v1.6h-1.3l-.5 2.4H83l-.5-2.4h-1.4z"/><path class="st3" d="M70.2 63.6l4.5-2.3 4.5 2.3-4.5 7.9-4.5-7.9zm10.7 39.6v-1.6h-1l2.5-23.5h-3.9v-2.5l7.3-23.8-5 8.8-.6-3.4 5.6-5.4-7.7-1.1-3.4-7-3.4 7-7.7 1.1 5.6 5.4-.6 3.4-5-8.8 7.3 23.8v2.5H67l2.5 23.5h-1v1.6H67l-.5 2.4h16.2l-.5-2.4h-1.3z"/><path class="st3" d="M69.9 63.4l4.5-2.3 4.5 2.3-4.5 7.9-4.5-7.9zm10.8 39.5v-1.6h-1l2.5-23.5h-3.9v-2.5l7.3-23.8-5 8.8L80 57l5.6-5.4-7.7-1.1-3.4-7-3.4 7-7.7 1.1L69 57l-.6 3.4-5-8.8 7.3 23.8v2.5h-3.9l2.5 23.5h-1v1.6H67l-.5 2.4h16.2l-.5-2.4h-1.5z"/><path class="st3" d="M69.7 63.2l4.5-2.3 4.5 2.3-4.5 7.8-4.5-7.8zm10.7 39.5v-1.6h-1l2.5-23.5H78v-2.5l7.3-23.8-5 8.8-.6-3.4 5.6-5.4-7.7-1.1-3.4-7-3.4 7-7.8 1.2 5.6 5.4-.6 3.4-5-8.8 7.3 23.8v2.5h-3.9l2.5 23.5h-1v1.6h-1.3l-.5 2.4h16.2l-.5-2.4h-1.4z"/><path class="st3" d="M69.5 63l4.5-2.3 4.5 2.3-4.5 7.9-4.5-7.9zm10.7 39.5v-1.6h-1l2.5-23.5h-3.9V75l7.3-23.8-5 8.8-.6-3.4 5.6-5.4-7.7-1.2-3.4-7-3.4 7-7.7 1.1 5.6 5.4-.6 3.4-5-8.8L70.1 75v2.5h-3.9l2.5 23.5h-1v1.6h-1.3l-.5 2.4H82l-.5-2.4h-1.3z"/><path class="st3" d="M69.3 62.7l4.5-2.3 4.5 2.3-4.5 7.9-4.5-7.9zM80 102.2v-1.6h-1l2.5-23.5h-3.9v-2.5l7.3-23.8-5 8.8-.6-3.4 5.6-5.4-7.7-1.1-3.4-7-3.4 7-7.7 1.1 5.6 5.4-.6 3.4-5-8.8L70 74.6v2.5h-3.9l2.5 23.5h-1v1.6h-1.3l-.5 2.4H82l-.5-2.4H80z"/><path class="st3" d="M69 62.5l4.5-2.3 4.5 2.3-4.5 7.9-4.5-7.9zM79.8 102v-1.6h-1L81.2 77h-3.9v-2.5l7.3-23.8-5 8.8-.6-3.4 5.6-5.4-7.7-1.1-3.4-7-3.4 7-7.7 1.1 5.6 5.4-.6 3.4-5-8.8 7.3 23.8V77h-3.9l2.5 23.5h-1v1.6H66l-.5 2.4h16.2L81 102h-1.2z"/><path class="st3" d="M68.8 62.3l4.5-2.3 4.5 2.3-4.5 7.9-4.5-7.9zm10.7 39.5v-1.6h-1L81 76.8h-3.9v-2.5l7.3-23.8-5 8.8-.6-3.4 5.6-5.4-7.7-1.1-3.4-7-3.4 7-7.7 1.1 5.6 5.4-.6 3.4-5-8.8 7.3 23.8v2.5h-3.9l2.5 23.5h-1v1.6h-1.3l-.5 2.4h16.2l-.5-2.4h-1.5z"/><path class="st3" d="M68.6 62l4.5-2.3 4.5 2.3-4.6 7.9-4.4-7.9zm10.7 39.6V100h-1l2.5-23.5h-3.9V74l7.3-23.8-5 8.8-.6-3.4 5.6-5.4-7.7-1.1-3.4-7-3.4 7-7.7 1.1 5.6 5.4-.7 3.4-5-8.8L69.2 74v2.5h-3.9l2.5 23.5h-1v1.6h-1.3L65 104h16.2l-.5-2.4h-1.4z"/><path class="st3" d="M68.3 61.8l4.5-2.3 4.5 2.3-4.5 7.9-4.5-7.9zm10.8 39.5v-1.6h-1l2.5-23.5h-3.9v-2.5L83.9 50l-5 8.8-.6-3.4 5.6-5.4-7.7-1.1-3.4-7-3.4 7-7.8 1.1 5.6 5.4-.6 3.4-5-8.8 7.3 23.8v2.5H65l2.5 23.5h-1v1.6h-1.3l-.5 2.4h16.2l-.5-2.4h-1.3z"/><path class="st3" d="M68.1 61.6l4.5-2.3 4.5 2.3-4.5 7.9-4.5-7.9zm10.7 39.5v-1.6h-1L80.3 76h-3.9v-2.5l7.3-23.8-5 8.8-.6-3.4 5.6-5.4-7.7-1.1-3.4-7-3.4 7-7.7 1.1 5.6 5.4-.6 3.4-5-8.8 7.3 23.8V76h-3.9l2.5 23.5h-1v1.6H65l-.5 2.4h16.2l-.5-2.4h-1.4z"/><path class="st3" d="M67.9 61.4l4.5-2.3 4.5 2.3-4.5 7.9-4.5-7.9zm10.7 39.5v-1.6h-1l2.5-23.5h-3.9v-2.5l7.3-23.8-5 8.8-.6-3.3 5.6-5.4-7.7-1.1-3.4-7-3.4 7-7.7 1.1 5.6 5.4-.6 3.4-5-8.8 7.3 23.8v2.5h-3.9l2.5 23.5h-1v1.6h-1.3l-.5 2.4h16.2l-.5-2.4h-1.5z"/><path class="st3" d="M67.7 61.1l4.5-2.3 4.5 2.3-4.6 7.9-4.4-7.9zm10.7 39.6v-1.6h-1l2.5-23.5H76v-2.5l7.3-23.8-5 8.8-.6-3.4 5.6-5.4-7.7-1.1-3.4-7-3.4 7-7.8 1.1 5.6 5.4-.6 3.4-5-8.8 7.3 23.8v2.5h-3.9l2.5 23.5h-1v1.6h-1.3L64 103h16.2l-.5-2.4h-1.3z"/><path class="st3" d="M67.4 60.9l4.5-2.3 4.5 2.3-4.5 7.9-4.5-7.9zm10.8 39.5v-1.6h-1l2.5-23.5h-3.9v-2.5L83 49.1l-5 8.8-.6-3.4 5.6-5.4-7.7-1.1-3.4-7-3.4 7-7.7 1.1 5.6 5.4-.6 3.4-5-8.8L68 72.9v2.5h-3.9l2.5 23.5h-1v1.6h-1.3l-.5 2.4H80l-.5-2.4h-1.3z"/><path class="st3" d="M67.2 60.7l4.5-2.3 4.5 2.3-4.5 7.9-4.5-7.9zm10.7 39.5v-1.6h-1l2.5-23.5h-3.9v-2.5l7.3-23.8-5 8.8-.6-3.4 5.6-5.4-7.7-1.1-3.4-7-3.4 7-7.7 1.1 5.6 5.4-.6 3.4-5-8.8 7.3 23.8v2.5H64l2.5 23.5h-1v1.6h-1.3l-.5 2.4h16.2l-.5-2.4h-1.5z"/><path class="st3" d="M67 60.5l4.5-2.3 4.5 2.3-4.5 7.9-4.5-7.9zM77.7 100v-1.6h-1l2.5-23.5h-3.9v-2.5l7.3-23.8-5 8.8-.6-3.3 5.6-5.4-7.7-1.1-3.4-7-3.4 7-7.7 1.1 5.6 5.4-.6 3.4-5-8.8 7.3 23.8V75h-3.9l2.5 23.5h-1v1.6H64l-.5 2.4h16.2L79 100h-1.3z"/><path class="st3" d="M66.7 60.2l4.5-2.3 4.5 2.3-4.5 7.9-4.5-7.9zm10.8 39.5v-1.6h-1L79 74.7h-3.9v-2.5l7.3-23.8-5 8.8-.6-3.4 5.6-5.4-7.7-1.1-3.4-7-3.4 7-7.9 1.1 5.6 5.4-.6 3.4-5-8.8 7.3 23.8v2.5h-3.9L66 98.2h-1v1.6h-1.3l-.5 2.4h16.2l-.5-2.4h-1.4z"/><path class="st3" d="M66.5 60l4.5-2.3 4.5 2.3-4.5 7.9-4.5-7.9zm10.7 39.5v-1.6h-1l2.5-23.5h-3.9V72l7.3-23.8-5 8.8-.6-3.4 5.6-5.4-7.7-1.1-3.4-7-3.4 7-7.7 1.1 5.6 5.4-.7 3.4-5-8.8L67.1 72v2.5h-3.9L65.7 98h-1v1.6h-1.3l-.5 2.4h16.2l-.5-2.4h-1.4z"/><path class="st3" d="M66.3 59.8l4.5-2.3 4.5 2.3-4.5 7.9-4.5-7.9zM77 99.3v-1.6h-1l2.5-23.5h-3.9v-2.5l7.3-23.8-5 8.8-.6-3.4 5.6-5.4-7.7-1.1-3.4-7-3.4 7-7.7 1.1 5.6 5.4-.6 3.4-5-8.8L67 71.7v2.5h-4l2.5 23.5h-1v1.6h-1.3l-.5 2.4h16.2l-.5-2.4H77z"/><path class="st3" d="M66.1 59.5l4.5-2.3 4.5 2.3-4.5 7.9-4.5-7.9zm10.7 39.6v-1.6h-1L78.3 74h-3.9v-2.5l7.3-23.8-5 8.8-.6-3.4 5.6-5.4-7.7-1.1-3.4-7-3.4 7-7.7 1.1 5.6 5.4-.6 3.4-5-8.8 7.3 23.8V74h-3.9l2.5 23.5h-1v1.6h-1.3l-.5 2.4h16.2l-.5-2.4h-1.5z"/><path class="st3" d="M65.8 59.3l4.5-2.3 4.5 2.3-4.5 7.9-4.5-7.9zm10.8 39.5v-1.6h-1L78 73.8h-3.9v-2.5l7.3-23.8-5 8.8-.6-3.4 5.6-5.4-7.7-1.1-3.4-7-3.4 7-7.7 1.1 5.6 5.4-.6 3.4-5-8.8 7.3 23.8v2.5h-3.9L65 97.3h-1v1.6h-1.3l-.5 2.4h16.2l-.5-2.4h-1.3z"/><path class="st3" d="M65.6 59.1l4.5-2.3 4.5 2.3-4.5 7.9-4.5-7.9zm10.7 39.5V97h-1l2.5-23.5h-3.9V71l7.3-23.8-5 8.8-.6-3.4 5.6-5.4-7.7-1.1-3.4-7-3.4 7-7.7 1.1 5.6 5.4L64 56l-5-8.8L66.3 71v2.5h-3.9L64.8 97h-1v1.6h-1.3L62 101h16.2l-.5-2.4h-1.4z"/><path class="st3" d="M65.4 58.9l4.5-2.3 4.5 2.3-4.5 7.9-4.5-7.9zm10.7 39.5v-1.6h-1l2.5-23.5h-3.9v-2.5L81 47l-5 8.8-.6-3.4L81 47l-7.7-1.1-3.4-7-3.4 7-7.8 1.1 5.6 5.4-.6 3.4-5-8.8L66 70.9v2.5h-3.9l2.5 23.5h-1v1.6h-1.3l-.5 2.4H78l-.5-2.4h-1.4z"/><path class="st3" d="M65.2 58.6l4.5-2.3 4.5 2.3-4.5 7.9-4.5-7.9zm10.7 39.5v-1.6h-1L77.4 73h-3.9v-2.5l7.3-23.8-5 8.8-.6-3.4 5.6-5.4-7.7-1.1-3.4-7-3.4 7-7.7 1.1 5.6 5.4-.6 3.4-5-8.8 7.3 23.8V73H62l2.5 23.5h-1v1.6H62l-.5 2.4h16.2l-.5-2.4h-1.3z"/><path class="st3" d="M64.9 58.4l4.5-2.3 4.5 2.3-4.5 7.9-4.5-7.9zm10.8 39.5v-1.6h-1l2.5-23.5h-3.9v-2.5l7.3-23.8-5 8.8L75 52l5.6-5.4-7.7-1.1-3.4-7-3.4 7-7.7 1.1L64 52l-.6 3.4-5-8.8 7.3 23.8v2.5h-3.9l2.5 23.5h-1V98H62l-.5 2.4h16.2l-.5-2.4h-1.5z"/><path class="st3" d="M64.7 58.2l4.5-2.3 4.5 2.3-4.5 7.8-4.5-7.8zm10.7 39.5v-1.6h-1l2.5-23.5H73v-2.5l7.3-23.8-5 8.8-.6-3.4 5.6-5.4-7.7-1.1-3.4-7-3.4 7-7.8 1.1 5.6 5.4-.6 3.5-5-8.8 7.3 23.8v2.5h-3.9l2.5 23.5h-1v1.6h-1.3l-.5 2.4h16.2l-.5-2.4h-1.4z"/><path class="st3" d="M64.5 57.9l4.5-2.3 4.5 2.3-4.5 7.9-4.5-7.9zm10.7 39.6v-1.6h-1l2.5-23.5h-3.9V70l7.3-23.8-5 8.8-.6-3.4 5.6-5.4-7.7-1.2-3.4-7-3.4 7-7.7 1.1 5.6 5.4-.6 3.4-5-8.8L65 70v2.5h-3.9L63.6 96h-1v1.6h-1.3l-.5 2.4H77l-.5-2.4h-1.3z"/><path class="st3" d="M64.2 57.7l4.5-2.3 4.5 2.3-4.5 7.9-4.5-7.9zM75 97.2v-1.6h-1l2.5-23.5h-3.9v-2.5l7.3-23.8-5 8.8-.6-3.4 5.6-5.4-7.7-1.1-3.4-7-3.4 7-7.7 1.1 5.6 5.4-.6 3.4-5-8.8L65 69.6v2.5h-3.9l2.5 23.5h-1v1.6h-1.3l-.5 2.4H77l-.5-2.4H75z"/><path class="st3" d="M64 57.5l4.5-2.3 4.5 2.3-4.5 7.9-4.5-7.9zM74.7 97v-1.6h-1L76.2 72h-3.9v-2.5l7.3-23.8-5 8.8-.6-3.4 5.6-5.4-7.7-1.1-3.4-7-3.4 7-7.7 1.1 5.6 5.4-.6 3.4-5-8.8 7.3 23.8V72h-3.9l2.5 23.5h-1V97H61l-.5 2.4h16.2L76 97h-1.3z"/><path class="st3" d="M63.8 57.3l4.5-2.3 4.5 2.3-4.5 7.9-4.5-7.9zm10.7 39.5v-1.6h-1L76 71.8h-3.9v-2.5l7.3-23.8-5 8.8-.6-3.4 5.6-5.4-7.7-1.1-3.4-7-3.4 7-7.7 1.1 5.6 5.4-.6 3.4-5-8.8 7.3 23.8v2.5h-3.9L63 95.2h-1v1.6h-1.3l-.5 2.4h16.2l-.5-2.4h-1.4z"/><path class="st3" d="M63.6 57l4.5-2.3 4.5 2.3-4.6 7.9-4.4-7.9zm10.7 39.6V95h-1l2.5-23.5h-3.9V69l7.3-23.8-5 8.8-.6-3.4 5.6-5.4-7.7-1.1-3.4-7-3.4 7-7.7 1.1 5.6 5.4-.7 3.4-5-8.8L64.2 69v2.5h-3.9L62.8 95h-1v1.6h-1.3L60 99h16.2l-.5-2.4h-1.4z"/><path class="st3" d="M63.3 56.8l4.5-2.3 4.5 2.3-4.5 7.9-4.5-7.9zm10.8 39.5v-1.6h-1l2.5-23.5h-3.9v-2.5L78.9 45l-5 8.8-.6-3.4 5.6-5.4-7.7-1.1-3.4-7-3.4 7-7.8 1.1 5.6 5.4-.6 3.4-5-8.8 7.3 23.8v2.5H60l2.5 23.5h-1v1.6h-1.3l-.5 2.4h16.2l-.5-2.4h-1.3z"/><path class="st3" d="M63.1 56.6l4.5-2.3 4.5 2.3-4.5 7.9-4.5-7.9zm10.7 39.5v-1.6h-1L75.3 71h-3.9v-2.5l7.3-23.8-5 8.8-.6-3.4 5.6-5.4-7.7-1.1-3.4-7-3.4 7-7.7 1.1 5.6 5.4-.6 3.4-5-8.8 7.3 23.8V71h-3.9l2.5 23.5h-1v1.6H60l-.5 2.4h16.2l-.5-2.4h-1.4z"/><path class="st3" d="M62.9 56.4l4.5-2.3 4.5 2.3-4.5 7.9-4.5-7.9zm10.7 39.5v-1.6h-1l2.5-23.5h-3.9v-2.5l7.3-23.8-5 8.8-.6-3.3 5.6-5.4-7.7-1.1-3.4-7-3.4 7-7.7 1.1 5.6 5.4-.6 3.4-5-8.8 7.3 23.8v2.5h-3.9l2.5 23.5h-1V96h-1.3l-.5 2.4h16.2l-.5-2.4h-1.5z"/><path class="st3" d="M62.6 56.1l4.5-2.3 4.5 2.3-4.5 7.9-4.5-7.9zm10.8 39.5V94h-1l2.5-23.5H71V68l7.3-23.8-5 8.8-.6-3.4 5.6-5.4-7.7-1.1-3.4-7-3.4 7-7.7 1.1 5.6 5.4-.6 3.4-5-8.8L63.4 68v2.5h-3.9L62 94h-1v1.6h-1.3L59 98h16.2l-.5-2.4h-1.3z"/><path class="st3" d="M62.4 55.9l4.5-2.3 4.5 2.3-4.5 7.9-4.5-7.9zm10.7 39.5v-1.6h-1l2.5-23.5h-3.9v-2.5L78 44.1l-5 8.8-.6-3.4 5.6-5.4-7.7-1.1-3.4-7-3.4 7-7.7 1.1 5.6 5.4-.6 3.4-5-8.8L63 67.9v2.5h-3.9l2.5 23.5h-1v1.6h-1.3l-.5 2.4H75l-.5-2.4h-1.4z"/><path class="st3" d="M62.2 55.7l4.5-2.3 4.5 2.3-4.5 7.9-4.5-7.9zm10.7 39.5v-1.6h-1l2.5-23.5h-3.9v-2.5l7.3-23.8-5 8.8-.6-3.4 5.6-5.4-7.7-1.1-3.4-7-3.4 7-7.7 1.1 5.6 5.4-.6 3.4-5-8.8 7.3 23.8v2.5H59l2.5 23.5h-1v1.6h-1.3l-.5 2.4h16.2l-.5-2.4h-1.5z"/><path class="st3" d="M62 55.4l4.5-2.3 4.5 2.3-4.5 7.9-4.5-7.9zM72.7 95v-1.6h-1l2.5-23.5h-3.9v-2.5l7.3-23.8-5 8.8-.6-3.3 5.6-5.4-7.7-1.1-3.4-7-3.4 7-7.7 1.1 5.6 5.4-.6 3.4-5-8.8 7.3 23.8V70h-3.9l2.5 23.5h-1V95H59l-.5 2.4h16.2L74 95h-1.3z"/><path class="st3" d="M61.7 55.2l4.5-2.3 4.5 2.3-4.5 7.9-4.5-7.9zm10.8 39.5v-1.6h-1L74 69.6h-3.9v-2.5l7.3-23.8-5 8.8-.6-3.4 5.6-5.4-7.7-1.1-3.4-7-3.4 7-7.9 1.2 5.6 5.4-.6 3.4-5-8.8 7.3 23.8v2.5h-3.9l2.5 23.5h-1v1.6h-1.3l-.5 2.4h16.2l-.5-2.4h-1.3z"/><path class="st3" d="M61.5 55l4.5-2.3 4.5 2.3-4.5 7.8-4.5-7.8zm10.7 39.5v-1.6h-1l2.5-23.5h-3.9V67l7.3-23.8-5 8.8-.6-3.4 5.6-5.4-7.7-1.2-3.4-7-3.4 7-7.7 1.1 5.6 5.4-.7 3.5-5-8.8L62.1 67v2.5h-3.9L60.7 93h-1v1.6h-1.3l-.5 2.4h16.2l-.5-2.4h-1.4z"/><path class="st3" d="M61.3 54.8l4.5-2.3 4.5 2.3-4.5 7.9-4.5-7.9zM72 94.3v-1.6h-1l2.5-23.5h-3.9v-2.5l7.3-23.8-5 8.8-.6-3.4 5.6-5.4-7.7-1.1-3.4-7-3.4 7-7.7 1.1 5.6 5.4-.6 3.4-5-8.8L62 66.7v2.5h-4l2.5 23.5h-1v1.6h-1.3l-.5 2.4h16.2l-.5-2.4H72z"/><path class="st3" d="M61.1 54.5l4.5-2.3 4.5 2.3-4.5 7.9-4.5-7.9zm10.7 39.6v-1.6h-1L73.3 69h-3.9v-2.5l7.3-23.8-5 8.8-.6-3.4 5.6-5.4-7.7-1.1-3.4-7-3.4 7-7.7 1.1 5.6 5.4-.6 3.4-5-8.8 7.3 23.8V69h-3.9l2.5 23.5h-1v1.6h-1.3l-.5 2.4h16.2l-.5-2.4h-1.5z"/><path class="st3" d="M60.8 54.3l4.5-2.3 4.5 2.3-4.5 7.9-4.5-7.9zm10.8 39.5v-1.6h-1L73 68.8h-3.9v-2.5l7.3-23.8-5 8.8-.6-3.4 5.6-5.4-7.7-1.1-3.4-7-3.4 7-7.7 1.1 5.6 5.4-.6 3.4-5-8.8 7.3 23.8v2.5h-3.9L60 92.2h-1v1.6h-1.3l-.5 2.4h16.2l-.5-2.4h-1.3z"/><path class="st3" d="M60.6 54.1l4.5-2.3 4.5 2.3-4.5 7.9-4.5-7.9zm10.7 39.5V92h-1l2.5-23.5h-3.9V66l7.3-23.8-5 8.8-.6-3.4 5.6-5.4-7.7-1.1-3.4-7-3.4 7-7.7 1.1 5.6 5.4L59 51l-5-8.8L61.3 66v2.5h-3.9L59.8 92h-1v1.6h-1.3L57 96h16.2l-.5-2.4h-1.4z"/><path class="st3" d="M60.4 53.8l4.5-2.3 4.5 2.3-4.5 7.9-4.5-7.9zm10.7 39.6v-1.6h-1l2.5-23.5h-3.9v-2.5L76 42l-5 8.8-.6-3.4L76 42l-7.7-1.1-3.4-7-3.4 7-7.8 1.1 5.6 5.4-.6 3.4-5-8.8L61 65.8v2.5h-3.9l2.5 23.5h-1v1.6h-1.3l-.5 2.4H73l-.5-2.4h-1.4z"/><path class="st3" d="M60.1 53.6l4.5-2.3 4.5 2.3-4.5 7.9-4.5-7.9zm10.8 39.5v-1.6h-1L72.4 68h-3.9v-2.5l7.3-23.8-5 8.8-.6-3.4 5.6-5.4-7.8-1-3.4-7-3.4 7-7.7 1.1 5.6 5.4-.6 3.4-5-8.8 7.3 23.8v2.5h-3.9l2.5 23.5h-1v1.6H57l-.5 2.4h16.2l-.5-2.4h-1.3z"/><path class="st3" d="M59.9 53.4l4.5-2.3 4.5 2.3-4.5 7.9-4.5-7.9zm10.7 39.5v-1.6h-1l2.5-23.5h-3.9v-2.5l7.3-23.8-5 8.8-.6-3.3 5.6-5.4-7.7-1.1-3.4-7-3.4 7-7.7 1.1 5.6 5.4-.6 3.4-5-8.8 7.3 23.8v2.5h-3.9l2.5 23.5h-1V93h-1.3l-.5 2.4h16.2l-.5-2.4h-1.5z"/><path class="st3" d="M59.7 53.2l4.5-2.3 4.5 2.3-4.6 7.8-4.4-7.8zm10.7 39.5v-1.6h-1l2.5-23.5H68v-2.5l7.3-23.8-5 8.8-.6-3.4 5.6-5.4-7.7-1.1-3.4-7-3.4 7-7.8 1.1 5.6 5.4-.6 3.5-5-8.8 7.3 23.8v2.5h-3.9l2.5 23.5h-1v1.6h-1.3l-.5 2.2h16.2l-.5-2.4h-1.4z"/><path class="st3" d="M59.5 52.9l4.5-2.3 4.5 2.3-4.5 7.9-4.5-7.9zm10.7 39.6v-1.6h-1l2.5-23.5h-3.9V65l7.3-23.8-5 8.8-.6-3.4 5.6-5.4-7.7-1.2-3.4-7-3.4 7-7.7 1.1 5.6 5.4-.6 3.4-5-8.8L60 65v2.5h-3.9L58.6 91h-1v1.6h-1.3l-.5 2.4H72l-.5-2.4h-1.3z"/><path class="st3" d="M59.2 52.7l4.5-2.3 4.5 2.3-4.5 7.9-4.5-7.9zM70 92.2v-1.6h-1l2.5-23.5h-3.9v-2.5l7.3-23.8-5 8.8-.6-3.4 5.6-5.4-7.7-1.1-3.4-7-3.4 7-7.7 1.1 5.6 5.4-.6 3.4-5-8.8L60 64.6v2.5h-3.9l2.5 23.5h-1v1.6h-1.3l-.5 2.4H72l-.5-2.4H70z"/><path class="st3" d="M59 52.5l4.5-2.3 4.5 2.3-4.5 7.9-4.5-7.9zM69.7 92v-1.6h-1L71.2 67h-3.9v-2.5l7.3-23.8-5 8.8-.6-3.4 5.6-5.4-7.7-1.1-3.4-7-3.4 7-7.7 1.1 5.6 5.4-.6 3.4-5-8.8 7.3 23.8V67h-3.9l2.5 23.5h-1V92H56l-.5 2.4h16.2L71 92h-1.3z"/><path class="st3" d="M58.8 52.3l4.5-2.3 4.5 2.3-4.5 7.9-4.5-7.9zm10.7 39.5v-1.6h-1L71 66.7h-3.9v-2.5l7.3-23.8-5 8.8-.6-3.4 5.6-5.4-7.7-1.1-3.4-7-3.4 7-7.7 1.1 5.6 5.4-.6 3.4-5-8.8 7.3 23.8v2.5h-3.9L58 90.2h-1v1.6h-1.3l-.5 2.4h16.2l-.5-2.4h-1.4z"/><path class="st3" d="M58.6 52l4.5-2.3 4.5 2.3-4.6 7.9-4.4-7.9zm10.7 39.5V90h-1l2.5-23.5h-3.9V64l7.3-23.8-5 8.8-.6-3.4 5.6-5.4-7.7-1.1-3.4-7-3.4 7-7.7 1.1 5.6 5.4-.8 3.4-5-8.8L59.1 64v2.5h-3.9L57.8 90h-1v1.6h-1.3L55 94h16.2l-.5-2.4h-1.4z"/><path class="st3" d="M58.3 51.8l4.5-2.3 4.5 2.3-4.5 7.9-4.5-7.9zm10.8 39.5v-1.6h-1l2.5-23.5h-3.9v-2.5L73.9 40l-5 8.8-.6-3.4 5.6-5.4-7.7-1.1-3.4-7-3.4 7-7.8 1.1 5.6 5.4-.6 3.4-5-8.8 7.3 23.8v2.5H55l2.5 23.5h-1v1.6h-1.3l-.5 2.4h16.2l-.5-2.4h-1.3z"/><path class="st3" d="M58.1 51.6l4.5-2.3 4.5 2.3-4.5 7.9-4.5-7.9zm10.7 39.5v-1.6h-1L70.3 66h-3.9v-2.5l7.3-23.8-5 8.8-.6-3.4 5.6-5.4-7.7-1.1-3.4-7-3.4 7-7.7 1.1 5.6 5.4-.6 3.4-5-8.8 7.3 23.8V66h-3.9l2.5 23.5h-1v1.6H55l-.5 2.4h16.2l-.5-2.4h-1.4z"/><path class="st3" d="M57.9 51.3l4.5-2.3 4.5 2.3-4.5 7.9-4.5-7.9zm10.7 39.6v-1.6h-1l2.5-23.5h-3.9v-2.5l7.3-23.8-5 8.8-.6-3.3 5.6-5.4-7.7-1.1-3.4-7-3.4 7-7.7 1.1 5.6 5.4-.6 3.4-5-8.8 7.3 23.8v2.5h-3.9l2.5 23.5h-1V91h-1.3l-.5 2.4h16.2l-.5-2.4h-1.5z"/><path class="st3" d="M57.6 51.1l4.5-2.3 4.5 2.3-4.5 7.9-4.5-7.9zm10.8 39.5V89h-1l2.5-23.5H66V63l7.3-23.8-5 8.8-.6-3.4 5.6-5.4-7.7-1.1-3.4-7-3.4 7-7.7 1.1 5.6 5.4-.6 3.4-5-8.8L58.4 63v2.5h-3.9L57 89h-1v1.6h-1.3L54 93h16.2l-.5-2.4h-1.3z"/><path class="st3" d="M57.4 50.9l4.5-2.3 4.5 2.3-4.5 7.9-4.5-7.9zm10.7 39.5v-1.6h-1l2.5-23.5h-3.9v-2.5L73 39.1l-5 8.8-.6-3.4 5.6-5.4-7.7-1.1-3.4-7-3.4 7-7.7 1.1 5.6 5.4-.6 3.4-5-8.8L58 62.9v2.5h-3.9l2.5 23.5h-1v1.6h-1.3l-.5 2.4H70l-.5-2.4h-1.4z"/><path class="st3" d="M57.2 50.7l4.5-2.3 4.5 2.3-4.5 7.9-4.5-7.9zm10.7 39.5v-1.6h-1l2.5-23.5h-3.9v-2.5l7.3-23.8-5 8.8-.6-3.4 5.6-5.4-7.7-1.1-3.4-7-3.4 7-7.7 1.1 5.6 5.4-.6 3.4-5-8.8 7.3 23.8v2.5H54l2.5 23.5h-1v1.6h-1.3l-.5 2.4h16.2l-.5-2.4h-1.5z"/><path class="st3" d="M57 50.4l4.5-2.3 4.5 2.3-4.5 7.9-4.5-7.9zM67.7 90v-1.6h-1l2.5-23.5h-3.9v-2.5l7.3-23.8-5 8.8L67 44l5.6-5.4-7.7-1.1-3.4-7-3.4 7-7.7 1.1L56 44l-.6 3.4-5-8.8 7.3 23.8v2.5h-3.9l2.5 23.5h-1V90H54l-.5 2.4h16.2L69 90h-1.3z"/><path class="st3" d="M56.7 50.2l4.5-2.3 4.5 2.3-4.5 7.9-4.5-7.9zm10.8 39.5v-1.6h-1L69 64.6h-3.9v-2.5l7.3-23.8-5 8.8-.6-3.4 5.6-5.4-7.7-1.1-3.4-7-3.4 7-7.9 1.2 5.6 5.4-.6 3.4-5-8.8 7.3 23.8v2.5h-3.9l2.5 23.5h-1v1.6h-1.3l-.5 2.4h16.2l-.5-2.4h-1.3z"/><path class="st3" d="M56.5 50l4.5-2.3 4.5 2.3-4.5 7.8-4.5-7.8zm10.7 39.5v-1.6h-1l2.5-23.5h-3.9V62l7.3-23.8-5 8.8-.6-3.4 5.6-5.4-7.7-1.2-3.4-7-3.4 7-7.7 1.1 5.6 5.4-.7 3.5-5-8.8L57.1 62v2.5h-3.9L55.7 88h-1v1.6h-1.3l-.5 2.4H69l-.5-2.4h-1.3z"/><path class="st3" d="M56.3 49.7l4.5-2.3 4.5 2.3-4.5 7.9-4.5-7.9zM67 89.3v-1.6h-1l2.5-23.5h-3.9v-2.5l7.3-23.8-5 8.8-.6-3.4 5.6-5.4-7.7-1.1-3.4-7-3.4 7-7.7 1.1 5.6 5.4-.6 3.4-5-8.8L57 61.7v2.5h-4l2.5 23.5h-1v1.6h-1.3l-.5 2.4h16.2l-.5-2.4H67z"/><path class="st3" d="M56 49.5l4.5-2.3 4.5 2.3-4.5 7.9-4.5-7.9zM66.8 89v-1.6h-1L68.3 64h-3.9v-2.5l7.3-23.8-5 8.8-.6-3.4 5.6-5.4-7.7-1.1-3.4-7-3.4 7-7.7 1.1 5.6 5.4-.6 3.4-5-8.8 7.3 23.8V64h-3.9l2.5 23.5h-1V89h-1.3l-.5 2.4h16.2l-.7-2.4h-1.3z"/><path class="st3" d="M55.8 49.3l4.5-2.3 4.5 2.3-4.5 7.9-4.5-7.9zm10.7 39.5v-1.6h-1L68 63.8h-3.9v-2.5l7.3-23.8-5 8.8-.6-3.4 5.6-5.4-7.7-1.1-3.4-7-3.4 7-7.7 1.1 5.6 5.4-.6 3.4-5-8.8 7.3 23.8v2.5h-3.9L55 87.2h-1v1.6h-1.3l-.5 2.4h16.2l-.5-2.4h-1.4z"/><path class="st3" d="M55.6 49.1l4.5-2.3 4.5 2.3-4.6 7.8-4.4-7.8zm10.7 39.5V87h-1l2.5-23.5h-3.9V61l7.3-23.8-5 8.8-.6-3.4 5.6-5.4-7.7-1.1-3.4-7-3.4 7-7.7 1.1 5.6 5.4L54 46l-5-8.8L56.3 61v2.5h-3.9L54.8 87h-1v1.6h-1.3l-.5 2.3h16.2l-.5-2.4h-1.4z"/><path class="st3" d="M55.4 48.8l4.5-2.3 4.5 2.3-4.5 7.9-4.5-7.9zm10.7 39.6v-1.6h-1l2.5-23.5h-3.9v-2.5L71 37l-5 8.8-.6-3.4L71 37l-7.7-1.1-3.4-7-3.4 7-7.8 1.1 5.6 5.4-.6 3.4-5-8.8L56 60.8v2.5h-3.9l2.5 23.5h-1v1.6h-1.3l-.5 2.4H68l-.5-2.4h-1.4z"/><path class="st3" d="M55.1 48.6l4.5-2.3 4.5 2.3-4.5 7.9-4.5-7.9zm10.8 39.5v-1.6h-1L67.4 63h-3.9v-2.5l7.3-23.8-5 8.8-.6-3.4 5.6-5.4-7.8-1-3.4-7-3.4 7-7.7 1.1 5.6 5.4-.6 3.4-5-8.8 7.3 23.8v2.5h-3.9l2.5 23.5h-1v1.6H52l-.5 2.4h16.2l-.5-2.4h-1.3z"/><path class="st3" d="M54.9 48.4l4.5-2.3 4.5 2.3-4.5 7.9-4.5-7.9zm10.7 39.5v-1.6h-1l2.5-23.5h-3.9v-2.5l7.3-23.8-5 8.8-.6-3.3 5.6-5.4-7.7-1.1-3.4-7-3.4 7-7.7 1.1 5.6 5.4-.6 3.4-5-8.8 7.3 23.8v2.5h-3.9l2.5 23.5h-1V88h-1.3l-.5 2.4h16.2l-.5-2.4h-1.5z"/><path class="st3" d="M54.7 48.2l4.5-2.3 4.5 2.3-4.6 7.8-4.4-7.8zm10.7 39.5v-1.6h-1l2.5-23.5H63v-2.5l7.3-23.8-5 8.8-.6-3.4 5.6-5.4-7.7-1.1-3.4-7-3.4 7-7.8 1.1 5.6 5.4-.6 3.4-5-8.8 7.3 23.8v2.5h-3.9l2.5 23.5h-1v1.6h-1.3L51 90h16.2l-.5-2.4h-1.3z"/><path class="st3" d="M54.5 47.9l4.5-2.3 4.5 2.3-4.5 7.9-4.5-7.9zm10.7 39.5v-1.6h-1l2.5-23.5h-3.9v-2.5L70.1 36l-5 8.8-.6-3.4 5.6-5.4-7.8-1-3.4-7-3.4 7-7.7 1.1 5.6 5.4-.6 3.4-5-8.8L55 59.9v2.5h-3.9l2.5 23.5h-1v1.6h-1.3l-.5 2.4H67l-.5-2.4h-1.3z"/><path class="st3" d="M54.2 47.7l4.5-2.3 4.5 2.3-4.5 7.9-4.5-7.9zM65 87.2v-1.6h-1l2.5-23.5h-3.9v-2.5l7.3-23.8-5 8.8-.6-3.4 5.6-5.4-7.7-1.1-3.4-7-3.4 7-7.7 1.1 5.6 5.4-.6 3.4-5-8.8L55 59.6v2.5h-3.9l2.5 23.5h-1v1.6h-1.3l-.5 2.4H67l-.5-2.4H65z"/><path class="st3" d="M54 47.5l4.5-2.3 4.5 2.3-4.5 7.9-4.5-7.9zM64.7 87v-1.6h-1L66.2 62h-3.9v-2.5l7.3-23.8-5 8.8-.6-3.4 5.6-5.4-7.7-1.1-3.4-7-3.4 7-7.7 1.1 5.6 5.4-.6 3.4-5-8.8 7.3 23.8V62h-3.9l2.5 23.5h-1V87H51l-.5 2.4h16.2L66 87h-1.3z"/><path class="st3" d="M53.8 47.2l4.5-2.3 4.5 2.3-4.5 7.9-4.5-7.9zm10.7 39.6v-1.6h-1L66 61.7h-3.9v-2.5l7.3-23.8-5 8.8-.6-3.4 5.6-5.4-7.7-1.1-3.4-7-3.4 7-7.7 1.1 5.6 5.4-.6 3.4-5-8.8 7.3 23.8v2.5h-3.9L53 85.2h-1v1.6h-1.3l-.5 2.4h16.2l-.5-2.4h-1.4z"/><path class="st3" d="M53.5 47l4.5-2.3 4.5 2.3-4.5 7.9-4.5-7.9zm10.8 39.5V85h-1l2.5-23.5h-3.9V59l7.3-23.8-5 8.8-.6-3.4 5.6-5.4-7.7-1.1-3.4-7-3.4 7-7.7 1.1 5.6 5.4-.8 3.4-5-8.8L54.1 59v2.5h-3.9L52.8 85h-1v1.6h-1.3L50 89h16.2l-.5-2.4h-1.4z"/><path class="st3" d="M53.3 46.8l4.5-2.3 4.5 2.3-4.5 7.9-4.5-7.9zM64 86.3v-1.6h-1l2.5-23.5h-3.9v-2.5L68.9 35l-5 8.8-.6-3.4 5.6-5.4-7.7-1.1-3.4-7-3.4 7-7.8 1.1 5.6 5.4-.6 3.4-5-8.8 7.3 23.8v2.5H50l2.5 23.5h-1v1.6h-1.3l-.5 2.4h16.2l-.5-2.4H64z"/><path class="st3" d="M53.1 46.6l4.5-2.3 4.5 2.3-4.5 7.9-4.5-7.9zm10.7 39.5v-1.6h-1L65.3 61h-3.9v-2.5l7.3-23.8-5 8.8-.6-3.4 5.6-5.4-7.7-1.1-3.4-7-3.4 7-7.7 1.1 5.6 5.4-.6 3.4-5-8.8 7.3 23.8V61h-3.9l2.5 23.5h-1v1.6H50l-.5 2.4h16.2l-.5-2.4h-1.4z"/><path class="st3" d="M52.9 46.3l4.5-2.3 4.5 2.3-4.5 7.9-4.5-7.9zm10.7 39.6v-1.6h-1l2.5-23.5h-3.9v-2.5l7.3-23.8-5 8.8-.6-3.4 5.6-5.4-7.7-1.1-3.4-7-3.4 7-7.7 1.1 5.6 5.4-.6 3.4-5-8.8 7.3 23.8v2.5h-3.9l2.5 23.5h-1v1.6h-1.3l-.5 2.4h16.2l-.5-2.4h-1.5z"/><path class="st3" d="M52.6 46.1l4.5-2.3 4.5 2.3-4.5 7.9-4.5-7.9zm10.8 39.5V84h-1l2.5-23.5H61V58l7.3-23.8-5 8.8-.6-3.4 5.6-5.4-7.7-1.1-3.4-7-3.4 7-7.7 1.1 5.6 5.4-.6 3.4-5-8.8L53.4 58v2.5h-3.9L52 84h-1v1.6h-1.3L49 88h16.2l-.5-2.4h-1.3z"/><path class="st3" d="M52.4 45.9l4.5-2.3 4.5 2.3-4.5 7.9-4.5-7.9zm10.7 39.5v-1.6h-1l2.5-23.5h-3.9v-2.5L68 34.1l-5 8.8-.6-3.4 5.6-5.4-7.7-1.1-3.4-7-3.4 7-7.7 1.1 5.6 5.4-.6 3.4-5-8.8L53 57.9v2.5h-3.9l2.5 23.5h-1v1.6h-1.3l-.5 2.4H65l-.5-2.4h-1.4z"/><path class="st3" d="M52.2 45.7l4.5-2.3 4.5 2.3-4.5 7.9-4.5-7.9zm10.7 39.5v-1.6h-1l2.5-23.5h-3.9v-2.5l7.3-23.8-5 8.8-.6-3.4 5.6-5.4-7.7-1.1-3.4-7-3.4 7-7.7 1.1 5.6 5.4-.6 3.4-5-8.8 7.3 23.8v2.5H49l2.5 23.5h-1v1.6h-1.3l-.5 2.4h16.2l-.5-2.4h-1.5z"/><path class="st3" d="M51.9 45.4l4.5-2.3 4.5 2.3-4.5 7.9-4.5-7.9zm10.8 39.5v-1.6h-1l2.5-23.5h-3.9v-2.5l7.3-23.8-5 8.8L62 39l5.6-5.4-7.7-1.1-3.4-7-3.4 7-7.7 1.1L51 39l-.6 3.4-5-8.8 7.3 23.8v2.5h-3.9l2.5 23.5h-1V85H49l-.5 2.4h16.2l-.7-2.5h-1.3z"/><path class="st3" d="M51.7 45.2l4.5-2.3 4.5 2.3-4.5 7.9-4.5-7.9zm10.7 39.5v-1.6h-1l2.5-23.5H60v-2.5l7.3-23.8-5 8.8-.6-3.4 5.6-5.4-7.7-1.1-3.4-7-3.4 7-7.8 1.2 5.6 5.4-.6 3.4-5-8.8 7.3 23.8v2.5h-3.9l2.5 23.5h-1v1.6h-1.3l-.5 2.4h16.2l-.5-2.4h-1.4z"/><path class="st3" d="M51.5 45l4.5-2.3 4.5 2.3-4.5 7.9-4.5-7.9zm10.7 39.5v-1.6h-1l2.5-23.5h-3.9V57l7.3-23.8-5 8.8-.6-3.4 5.6-5.4-7.7-1.2-3.4-7-3.4 7-7.7 1.1 5.6 5.4-.7 3.5-5-8.8L52.1 57v2.5h-3.9L50.7 83h-1v1.6h-1.3l-.5 2.4H64l-.5-2.4h-1.3z"/><path class="st3" d="M51.3 44.7l4.5-2.3 4.5 2.3-4.5 7.9-4.5-7.9zM62 84.3v-1.6h-1l2.5-23.5h-3.9v-2.5l7.3-23.8-5 8.8-.6-3.4 5.6-5.4-7.7-1.1-3.4-7-3.4 7-7.7 1.1 5.6 5.4-.6 3.4-5-8.8L52 56.7v2.5h-4l2.5 23.5h-1v1.6h-1.3l-.5 2.4h16.2l-.5-2.4H62z"/><path class="st3" d="M51 44.5l4.5-2.3 4.5 2.3-4.5 7.9-4.5-7.9zM61.8 84v-1.6h-1L63.2 59h-3.9v-2.5l7.3-23.8-5 8.8-.6-3.4 5.6-5.4-7.7-1.1-3.4-7-3.4 7-7.7 1.1 5.6 5.4-.6 3.4-5-8.8 7.3 23.8V59h-3.9l2.5 23.5h-1V84H48l-.5 2.4h16.2l-.6-2.4h-1.3z"/><path class="st3" d="M50.8 44.3l4.5-2.3 4.5 2.3-4.5 7.9-4.5-7.9zm10.7 39.5v-1.6h-1L63 58.8h-3.9v-2.5l7.3-23.8-5 8.8-.6-3.4 5.6-5.4-7.7-1.1-3.4-7-3.4 7-7.7 1.1 5.6 5.4-.6 3.4-5-8.8 7.3 23.8v2.5h-3.9L50 82.2h-1v1.6h-1.3l-.5 2.4h16.2l-.5-2.4h-1.4z"/><path class="st3" d="M50.6 44.1l4.5-2.3 4.5 2.3-4.6 7.8-4.4-7.8zm10.7 39.5V82h-1l2.5-23.5h-3.9V56l7.3-23.8-5 8.8-.6-3.4 5.6-5.4-7.7-1.1-3.4-7-3.4 7-7.7 1.1 5.6 5.4-.7 3.4-5-8.8L51.2 56v2.5h-3.9L49.8 82h-1v1.6h-1.3L47 86h16.2l-.5-2.4h-1.4z"/><path class="st3" d="M50.4 43.8l4.5-2.3 4.5 2.3-4.5 7.9-4.5-7.9zm10.7 39.5v-1.6h-1l2.5-23.5h-3.9v-2.5L66 32l-5 8.8-.6-3.4L66 32l-7.7-1.1-3.4-7-3.4 7-7.8 1.1 5.6 5.4-.6 3.4-5-8.8L51 55.8v2.5h-4l2.5 23.5h-1v1.6h-1.3l-.5 2.4h16.2l-.5-2.4h-1.3z"/><path class="st3" d="M50.1 43.6l4.5-2.3 4.5 2.3-4.5 7.9-4.5-7.9zm10.8 39.5v-1.6h-1L62.4 58h-3.9v-2.5l7.3-23.8-5 8.8-.6-3.4 5.6-5.4-7.8-1-3.4-7-3.4 7-7.7 1.1 5.6 5.4-.6 3.4-5-8.8 7.3 23.8v2.5h-3.9l2.5 23.5h-1v1.6H47l-.5 2.4h16.2l-.5-2.4h-1.3z"/><path class="st3" d="M49.9 43.4l4.5-2.3 4.5 2.3-4.5 7.9-4.5-7.9zm10.7 39.5v-1.6h-1l2.5-23.5h-3.9v-2.5l7.3-23.8-5 8.8-.6-3.3 5.6-5.4-7.7-1.1-3.4-7-3.4 7-7.7 1.1 5.6 5.4-.6 3.4-5-8.8 7.3 23.8v2.5h-3.9l2.5 23.5h-1V83h-1.3l-.5 2.4h16.2l-.5-2.4h-1.5z"/><path class="st3" d="M49.7 43.1l4.5-2.3 4.5 2.3-4.6 7.9-4.4-7.9zm10.7 39.6v-1.6h-1l2.5-23.5H58v-2.5l7.3-23.8-5 8.8-.6-3.4 5.6-5.4-7.7-1.1-3.4-7-3.4 7-7.8 1.1 5.6 5.4-.6 3.4-5-8.8 7.3 23.8v2.5h-3.9l2.5 23.5h-1v1.6h-1.3L46 85h16.2l-.5-2.4h-1.3z"/><path class="st3" d="M49.4 42.9l4.5-2.3 4.5 2.3-4.5 7.9-4.5-7.9zm10.8 39.5v-1.6h-1l2.5-23.5h-3.9v-2.5L65 31.1l-5 8.8-.6-3.4 5.6-5.4-7.7-1.1-3.4-7-3.4 7-7.7 1.1 5.6 5.4-.6 3.4-5-8.8L50 54.9v2.5h-3.9l2.5 23.5h-1v1.6h-1.3l-.5 2.4H62l-.5-2.4h-1.3z"/><path class="st3" d="M49.2 42.7l4.5-2.3 4.5 2.3-4.5 7.9-4.5-7.9zm10.7 39.5v-1.6h-1l2.5-23.5h-3.9v-2.5l7.3-23.8-5 8.8-.6-3.4 5.6-5.4-7.7-1.1-3.4-7-3.4 7-7.7 1.1 5.6 5.4-.6 3.4-5-8.8 7.3 23.8v2.5H46l2.5 23.5h-1v1.6h-1.3l-.5 2.4h16.2l-.5-2.4h-1.5z"/><path class="st3" d="M49 42.5l4.5-2.3 4.5 2.3-4.5 7.9-4.5-7.9zM59.7 82v-1.6h-1L61.2 57h-3.9v-2.5l7.3-23.8-5 8.8-.6-3.4 5.6-5.4-7.7-1.1-3.4-7-3.4 7-7.7 1.1 5.6 5.4-.6 3.4-5-8.8 7.3 23.8V57h-3.9l2.5 23.5h-1V82H46l-.5 2.4h16.2L61 82h-1.3z"/><path class="st3" d="M48.8 42.2l4.5-2.3 4.5 2.3-4.5 7.9-4.5-7.9zm10.7 39.6v-1.6h-1L61 56.7h-3.9v-2.5l7.3-23.8-5 8.8-.6-3.4 5.6-5.4-7.7-1.1-3.4-7-3.4 7-7.7 1.1 5.6 5.4-.6 3.4-5-8.8 7.3 23.8v2.5h-3.9L48 80.2h-1v1.6h-1.3l-.5 2.4h16.2l-.5-2.4h-1.4z"/><path class="st3" d="M48.5 42l4.5-2.3 4.5 2.3-4.5 7.9-4.5-7.9zm10.8 39.5V80h-1l2.5-23.5h-3.9V54l7.3-23.8-5 8.8-.6-3.4 5.6-5.4-7.7-1.1-3.4-7-3.4 7-7.7 1.1 5.6 5.4-.8 3.4-5-8.8L49.1 54v2.5h-3.9L47.7 80h-1v1.6h-1.3l-.5 2.4h16.2l-.5-2.4h-1.3z"/><path class="st3" d="M48.3 41.8l4.5-2.3 4.5 2.3-4.5 7.9-4.5-7.9zM59 81.3v-1.6h-1l2.5-23.5h-3.9v-2.5L63.9 30l-5 8.8-.6-3.4 5.6-5.4-7.7-1.1-3.4-7-3.4 7-7.8 1.1 5.6 5.4-.6 3.4-5-8.8 7.3 23.8v2.5H45l2.5 23.5h-1v1.6h-1.3l-.5 2.4h16.2l-.5-2.4H59z"/><path class="st3" d="M48.1 41.6l4.5-2.3 4.5 2.3-4.5 7.9-4.5-7.9zm10.7 39.5v-1.6h-1L60.3 56h-3.9v-2.5l7.3-23.8-5 8.8-.6-3.4 5.6-5.4-7.7-1.1-3.4-7-3.4 7-7.7 1.1 5.6 5.4-.6 3.4-5-8.8 7.3 23.8V56h-3.9l2.5 23.5h-1v1.6H45l-.5 2.4h16.2l-.5-2.4h-1.4z"/><path class="st3" d="M47.8 41.3l4.5-2.3 4.5 2.3-4.5 7.9-4.5-7.9zm10.8 39.5v-1.6h-1l2.5-23.5h-3.9v-2.5l7.3-23.8-5 8.8-.6-3.4 5.6-5.4-7.7-1.1-3.4-7-3.4 7-7.7 1.1 5.6 5.4-.6 3.4-5-8.8 7.3 23.8v2.5h-3.9l2.5 23.5h-1v1.6h-1.3l-.5 2.4h16.2l-.5-2.4h-1.5z"/><path class="st3" d="M47.6 41.1l4.5-2.3 4.5 2.3-4.5 7.9-4.5-7.9zm10.7 39.5V79h-1l2.5-23.5h-3.9V53l7.3-23.8-5 8.8-.6-3.4 5.6-5.4-7.7-1.1-3.4-7-3.4 7-7.7 1.1 5.6 5.4L46 38l-5-8.8L48.3 53v2.5h-3.9L46.8 79h-1v1.6h-1.3L44 83h16.2l-.5-2.4h-1.4z"/><path class="st3" d="M47.4 40.9l4.5-2.3 4.5 2.3-4.5 7.9-4.5-7.9zm10.7 39.5v-1.6h-1l2.5-23.5h-3.9v-2.5L63 29l-5 8.8-.6-3.4L63 29l-7.7-1.1-3.4-7-3.4 7-7.8 1.1 5.6 5.4-.6 3.4-5-8.8L48 52.9v2.5h-3.9l2.5 23.5h-1v1.6h-1.3l-.5 2.4H60l-.5-2.4h-1.4z"/><path class="st3" d="M47.2 40.6l4.5-2.3 4.5 2.3-4.5 7.9-4.5-7.9zm10.7 39.6v-1.6h-1l2.5-23.5h-3.9v-2.5l7.3-23.8-5 8.8-.6-3.4 5.6-5.4-7.7-1.1-3.4-7-3.4 7-7.7 1.1 5.6 5.4-.6 3.4-5-8.8 7.3 23.8v2.5H44l2.5 23.5h-1v1.6H44l-.5 2.4h16.2l-.5-2.4h-1.3z"/><path class="st3" d="M46.9 40.4l4.5-2.3 4.5 2.3-4.5 7.9-4.5-7.9zm10.8 39.5v-1.6h-1l2.5-23.5h-3.9v-2.5l7.3-23.8-5 8.8L57 34l5.6-5.4-7.7-1.1-3.4-7-3.4 7-7.7 1.1L46 34l-.6 3.4-5-8.8 7.3 23.8v2.5h-3.9l2.5 23.5h-1V80H44l-.5 2.4h16.2l-.7-2.5h-1.3z"/><path class="st3" d="M46.7 40.2l4.5-2.3 4.5 2.3-4.5 7.8-4.5-7.8zm10.7 39.5v-1.6h-1l2.5-23.5H55v-2.5l7.3-23.8-5 8.8-.6-3.4 5.6-5.4-7.7-1.1-3.4-7-3.4 7-7.8 1.2 5.6 5.4-.6 3.4-5-8.8 7.3 23.8v2.5h-3.9l2.5 23.5h-1v1.6h-1.3l-.5 2.4h16.2l-.5-2.4h-1.4z"/><path class="st3" d="M46.5 40l4.5-2.3 4.5 2.3-4.5 7.9-4.5-7.9zm10.7 39.5v-1.6h-1l2.5-23.5h-3.9V52l7.3-23.8-5 8.8-.6-3.4 5.6-5.4-7.7-1.2-3.4-7-3.4 7-7.7 1.1 5.6 5.4-.6 3.4-5-8.8L47.1 52v2.5h-3.9L45.7 78h-1v1.6h-1.3l-.5 2.4H59l-.5-2.4h-1.3z"/><path class="st3" d="M46.3 39.7l4.5-2.3 4.5 2.3-4.5 7.9-4.5-7.9zM57 79.2v-1.6h-1l2.5-23.5h-3.9v-2.5l7.3-23.8-5 8.8-.6-3.4 5.6-5.4-7.7-1.1-3.4-7-3.4 7-7.7 1.1 5.6 5.4-.6 3.4-5-8.8L47 51.6v2.5h-3.9l2.5 23.5h-1v1.6h-1.3l-.5 2.4H59l-.5-2.4H57z"/><path class="st3" d="M46 39.5l4.5-2.3 4.5 2.3-4.5 7.9-4.5-7.9zM56.8 79v-1.6h-1L58.2 54h-3.9v-2.5l7.3-23.8-5 8.8-.6-3.4 5.6-5.4-7.7-1.1-3.4-7-3.4 7-7.7 1.1 5.6 5.4-.6 3.4-5-8.8 7.3 23.8V54h-3.9l2.5 23.5h-1V79H43l-.5 2.4h16.2L58 79h-1.2z"/><path class="st3" d="M45.8 39.3l4.5-2.3 4.5 2.3-4.5 7.9-4.5-7.9zm10.7 39.5v-1.6h-1L58 53.8h-3.9v-2.5l7.3-23.8-5 8.8-.6-3.4 5.6-5.4-7.7-1.1-3.4-7-3.4 7-7.7 1.1 5.6 5.4-.6 3.4-5-8.8 7.3 23.8v2.5h-3.9L45 77.2h-1v1.6h-1.3l-.5 2.4h16.2l-.5-2.4h-1.4z"/><path class="st3" d="M45.6 39l4.5-2.3 4.5 2.3-4.6 7.9-4.4-7.9zm10.7 39.6V77h-1l2.5-23.5h-3.9V51l7.3-23.8-5 8.8-.6-3.4 5.6-5.4-7.7-1.1-3.4-7-3.4 7-7.7 1.1 5.6 5.4-.7 3.4-5-8.8L46.2 51v2.5h-3.9L44.8 77h-1v1.6h-1.3L42 81h16.2l-.5-2.4h-1.4z"/><path class="st3" d="M45.3 38.8l4.5-2.3 4.5 2.3-4.5 7.9-4.5-7.9zm10.8 39.5v-1.6h-1l2.5-23.5h-3.9v-2.5L60.9 27l-5 8.8-.6-3.4 5.6-5.4-7.7-1.1-3.4-7-3.4 7-7.8 1.1 5.6 5.4-.6 3.4-5-8.8 7.3 23.8v2.5H42l2.5 23.5h-1v1.6h-1.3l-.5 2.4h16.2l-.5-2.4h-1.3z"/><path class="st3" d="M45.1 38.6l4.5-2.3 4.5 2.3-4.5 7.9-4.5-7.9zm10.7 39.5v-1.6h-1L57.3 53h-3.9v-2.5l7.3-23.8-5 8.8-.6-3.4 5.6-5.4-7.7-1.1-3.4-7-3.4 7-7.7 1.1 5.6 5.4-.6 3.4-5-8.8 7.3 23.8V53h-3.9l2.5 23.5h-1v1.6H42l-.5 2.4h16.2l-.5-2.4h-1.4z"/><path class="st3" d="M44.9 38.4l4.5-2.3 4.5 2.3-4.5 7.9-4.5-7.9zm10.7 39.5v-1.6h-1l2.5-23.5h-3.9v-2.5l7.3-23.8-5 8.8-.6-3.3 5.6-5.4-7.7-1.1-3.4-7-3.4 7-7.7 1.1 5.6 5.4-.6 3.4-5-8.8 7.3 23.8v2.5h-3.9l2.5 23.5h-1V78h-1.3l-.5 2.4h16.2l-.5-2.4h-1.5z"/><path class="st3" d="M44.7 38.1l4.5-2.3 4.5 2.3-4.6 7.9-4.4-7.9zm10.7 39.6v-1.6h-1l2.5-23.5H53v-2.5l7.3-23.8-5 8.8-.6-3.4 5.6-5.4-7.7-1.1-3.4-7-3.4 7-7.8 1.1 5.6 5.4-.6 3.4-5-8.8 7.3 23.8v2.5h-3.9l2.5 23.5h-1v1.6h-1.3L41 80h16.2l-.5-2.4h-1.3z"/><path class="st3" d="M44.4 37.9l4.5-2.3 4.5 2.3-4.5 7.9-4.5-7.9zm10.8 39.5v-1.6h-1l2.5-23.5h-3.9v-2.5L60 26.1l-5 8.8-.6-3.4 5.6-5.4-7.7-1.1-3.4-7-3.4 7-7.7 1.1 5.6 5.4-.6 3.4-5-8.8L45 49.9v2.5h-3.9l2.5 23.5h-1v1.6h-1.3l-.5 2.4H57l-.5-2.4h-1.3z"/><path class="st3" d="M44.2 37.7l4.5-2.3 4.5 2.3-4.5 7.9-4.5-7.9zm10.7 39.5v-1.6h-1l2.5-23.5h-3.9v-2.5l7.3-23.8-5 8.8-.6-3.4 5.6-5.4-7.7-1.1-3.4-7-3.4 7-7.7 1.1 5.6 5.4-.6 3.4-5-8.8 7.3 23.8v2.5H41l2.5 23.5h-1v1.6h-1.3l-.5 2.4h16.2l-.5-2.4h-1.5z"/><path class="st3" d="M44 37.5l4.5-2.3 4.5 2.3-4.5 7.9-4.5-7.9zM54.7 77v-1.6h-1l2.5-23.5h-3.9v-2.5l7.3-23.8-5 8.8-.6-3.3 5.6-5.4-7.7-1.1-3.4-7-3.4 7-7.7 1.1 5.6 5.4-.6 3.4-5-8.8 7.3 23.8V52h-3.9l2.5 23.5h-1V77H41l-.5 2.4h16.2L56 77h-1.3z"/><path class="st3" d="M43.7 37.2l4.5-2.3 4.5 2.3-4.5 7.9-4.5-7.9zm10.8 39.5v-1.6h-1L56 51.7h-3.9v-2.5l7.3-23.8-5 8.8-.6-3.4 5.6-5.4-7.7-1.1-3.4-7-3.4 7-7.9 1.1 5.6 5.4-.6 3.4-5-8.8 7.3 23.8v2.5h-3.9L43 75.2h-1v1.6h-1.3l-.5 2.4h16.2l-.5-2.4h-1.4z"/><path class="st3" d="M43.5 37l4.5-2.3 4.5 2.3-4.5 7.9-4.5-7.9zm10.7 39.5v-1.6h-1l2.5-23.5h-3.9V49l7.3-23.8-5 8.8-.6-3.4 5.6-5.4-7.7-1.2-3.4-7-3.4 7-7.7 1.1 5.6 5.4-.7 3.5-5-8.8L44.1 49v2.5h-3.9L42.7 75h-1v1.6h-1.3l-.5 2.4h16.2l-.5-2.4h-1.4z"/><path class="st3" d="M43.3 36.8l4.5-2.3 4.5 2.3-4.5 7.9-4.5-7.9zM54 76.3v-1.6h-1l2.5-23.5h-3.9v-2.5l7.3-23.8-5 8.8-.6-3.4 5.6-5.4-7.7-1.1-3.4-7-3.4 7-7.7 1.1 5.6 5.4-.6 3.4-5-8.8L44 48.7v2.5h-4l2.5 23.5h-1v1.6h-1.3l-.5 2.4h16.2l-.5-2.4H54z"/><path class="st3" d="M43.1 36.5l4.5-2.3 4.5 2.3-4.5 7.9-4.5-7.9zm10.7 39.6v-1.6h-1L55.3 51h-3.9v-2.5l7.3-23.8-5 8.8-.6-3.4 5.6-5.4-7.7-1.1-3.4-7-3.4 7-7.7 1.1 5.6 5.4-.6 3.4-5-8.8 7.3 23.8V51h-3.9l2.5 23.5h-1v1.6h-1.3l-.5 2.4h16.2l-.5-2.4h-1.5z"/><path class="st3" d="M42.8 36.3l4.5-2.3 4.5 2.3-4.5 7.9-4.5-7.9zm10.8 39.5v-1.6h-1L55 50.8h-3.9v-2.5l7.3-23.8-5 8.8-.6-3.4 5.6-5.4-7.7-1.1-3.4-7-3.4 7-7.7 1.1 5.6 5.4-.6 3.4-5-8.8 7.3 23.8v2.5h-3.9L42 74.3h-1v1.6h-1.3l-.5 2.4h16.2l-.5-2.4h-1.3z"/><path class="st3" d="M42.6 36.1l4.5-2.3 4.5 2.3-4.5 7.9-4.5-7.9zm10.7 39.5V74h-1l2.5-23.5h-3.9V48l7.3-23.8-5 8.8-.6-3.4 5.6-5.4-7.7-1.1-3.4-7-3.4 7-7.7 1.1 5.6 5.4L41 33l-5-8.8L43.3 48v2.5h-3.9L41.8 74h-1v1.6h-1.3L39 78h16.2l-.5-2.4h-1.4z"/><path class="st3" d="M42.4 35.9l4.5-2.3 4.5 2.3-4.5 7.9-4.5-7.9zm10.7 39.5v-1.6h-1l2.5-23.5h-3.9v-2.5L58 24l-5 8.8-.6-3.4L58 24l-7.7-1.1-3.4-7-3.4 7-7.8 1.1 5.6 5.4-.6 3.4-5-8.8L43 47.9v2.5h-3.9l2.5 23.5h-1v1.6h-1.3l-.5 2.4H55l-.5-2.4h-1.4z"/><path class="st3" d="M42.2 35.6l4.5-2.3 4.5 2.3-4.5 7.9-4.5-7.9zm10.7 39.5v-1.6h-1L54.4 50h-3.9v-2.5l7.3-23.8-5 8.8-.6-3.4 5.6-5.4-7.7-1.1-3.4-7-3.4 7-7.7 1.1 5.6 5.4-.6 3.4-5-8.8 7.3 23.8V50H39l2.5 23.5h-1v1.6H39l-.5 2.4h16.2l-.5-2.4h-1.3z"/><path class="st3" d="M41.9 35.4l4.5-2.3 4.5 2.3-4.5 7.9-4.5-7.9zm10.8 39.5v-1.6h-1l2.5-23.5h-3.9v-2.5l7.3-23.8-5 8.8L52 29l5.6-5.4-7.7-1.1-3.4-7-3.4 7-7.7 1.1L41 29l-.6 3.4-5-8.8 7.3 23.8v2.5h-3.9l2.5 23.5h-1V75H39l-.5 2.4h16.2l-.5-2.4h-1.5z"/><path class="st3" d="M41.7 35.2l4.5-2.3 4.5 2.3-4.6 7.8-4.4-7.8zm10.7 39.5v-1.6h-1l2.5-23.5H50v-2.5l7.3-23.8-5 8.8-.6-3.4 5.6-5.4-7.7-1.1-3.4-7-3.4 7-7.8 1.1 5.6 5.4-.6 3.5-5-8.8 7.3 23.8v2.5h-3.9l2.5 23.5h-1v1.6h-1.3l-.5 2.4h16.2l-.5-2.4h-1.4z"/><path class="st3" d="M41.5 34.9l4.5-2.3 4.5 2.3-4.5 7.9-4.5-7.9zm10.7 39.6v-1.6h-1l2.5-23.5h-3.9V47l7.3-23.8-5 8.8-.6-3.4 5.6-5.4-7.7-1.2-3.4-7-3.4 7-7.7 1.1 5.6 5.4-.6 3.4-5-8.8L42 47v2.5h-3.9L40.6 73h-1v1.6h-1.3l-.5 2.4H54l-.5-2.4h-1.3z"/><path class="st3" d="M41.2 34.7l4.5-2.3 4.5 2.3-4.5 7.9-4.5-7.9zM52 74.2v-1.6h-1l2.5-23.5h-3.9v-2.5l7.3-23.8-5 8.8-.6-3.4 5.6-5.4-7.7-1.1-3.4-7-3.4 7-7.7 1.1 5.6 5.4-.6 3.4-5-8.8L42 46.6v2.5h-3.9l2.5 23.5h-1v1.6h-1.3l-.5 2.4H54l-.5-2.4H52z"/><path class="st3" d="M41 34.5l4.5-2.3 4.5 2.3-4.5 7.9-4.5-7.9zM51.7 74v-1.6h-1L53.2 49h-3.9v-2.5l7.3-23.8-5 8.8-.6-3.4 5.6-5.4-7.7-1.1-3.4-7-3.4 7-7.7 1.1 5.6 5.4-.6 3.4-5-8.8 7.3 23.8V49h-3.9l2.5 23.5h-1V74H38l-.5 2.4h16.2L53 74h-1.3z"/><path class="st3" d="M40.8 34.3l4.5-2.3 4.5 2.3-4.5 7.9-4.5-7.9zm10.7 39.5v-1.6h-1L53 48.8h-3.9v-2.5l7.3-23.8-5 8.8-.6-3.4 5.6-5.4-7.7-1.1-3.4-7-3.4 7-7.7 1.1 5.6 5.4-.6 3.4-5-8.8 7.3 23.8v2.5h-3.9L40 72.2h-1v1.6h-1.3l-.5 2.4h16.2l-.5-2.4h-1.4z"/><path class="st3" d="M40.6 34l4.5-2.3 4.5 2.3-4.6 7.9-4.4-7.9zm10.7 39.6V72h-1l2.5-23.5h-3.9V46l7.3-23.8-5 8.8-.6-3.4 5.6-5.4-7.7-1.1-3.4-7-3.4 7-7.7 1.1 5.6 5.4-.7 3.4-5-8.8L41.2 46v2.5h-3.9L39.8 72h-1v1.6h-1.3L37 76h16.2l-.5-2.4h-1.4z"/><path class="st3" d="M40.3 33.8l4.5-2.3 4.5 2.3-4.5 7.9-4.5-7.9zm10.8 39.5v-1.6h-1l2.5-23.5h-3.9v-2.5L55.9 22l-5 8.8-.6-3.4 5.6-5.4-7.7-1.1-3.4-7-3.4 7-7.8 1.1 5.6 5.4-.6 3.4-5-8.8 7.3 23.8v2.5H37l2.5 23.5h-1v1.6h-1.3l-.5 2.4h16.2l-.5-2.4h-1.3z"/><path class="st3" d="M40.1 33.6l4.5-2.3 4.5 2.3-4.5 7.9-4.5-7.9zm10.7 39.5v-1.6h-1L52.3 48h-3.9v-2.5l7.3-23.8-5 8.8-.6-3.4 5.6-5.4-7.7-1.1-3.4-7-3.4 7-7.7 1.1 5.6 5.4-.6 3.4-5-8.8 7.3 23.8V48h-3.9l2.5 23.5h-1v1.6H37l-.5 2.4h16.2l-.5-2.4h-1.4z"/><path class="st3" d="M39.9 33.4l4.5-2.3 4.5 2.3-4.5 7.9-4.5-7.9zm10.7 39.5v-1.6h-1l2.5-23.5h-3.9v-2.5l7.3-23.8-5 8.8-.6-3.3 5.6-5.4-7.7-1.1-3.4-7-3.4 7-7.7 1.1 5.6 5.4-.6 3.4-5-8.8 7.3 23.8v2.5h-3.9l2.5 23.5h-1V73h-1.3l-.5 2.4h16.2l-.5-2.4h-1.5z"/><path class="st3" d="M39.6 33.1l4.5-2.3 4.5 2.3-4.5 7.9-4.5-7.9zm10.8 39.5V71h-1l2.5-23.5H48V45l7.3-23.8-5 8.8-.6-3.4 5.6-5.4-7.7-1.1-3.4-7-3.4 7-7.7 1.1 5.6 5.4-.6 3.4-5-8.8L40.4 45v2.5h-3.9L39 71h-1v1.6h-1.3L36 75h16.2l-.5-2.4h-1.3z"/><path class="st3" d="M39.4 32.9l4.5-2.3 4.5 2.3-4.5 7.9-4.5-7.9zm10.7 39.5v-1.6h-1l2.5-23.5h-3.9v-2.5L55 21.1l-5 8.8-.6-3.4 5.6-5.4-7.7-1.1-3.4-7-3.4 7-7.7 1.1 5.6 5.4-.6 3.4-5-8.8L40 44.9v2.5h-3.9l2.5 23.5h-1v1.6h-1.3l-.5 2.4H52l-.5-2.4h-1.4z"/><path class="st3" d="M39.2 32.7l4.5-2.3 4.5 2.3-4.5 7.9-4.5-7.9zm10.7 39.5v-1.6h-1l2.5-23.5h-3.9v-2.5l7.3-23.8-5 8.8-.6-3.4 5.6-5.4-7.7-1.1-3.4-7-3.4 7-7.7 1.1 5.6 5.4-.6 3.4-5-8.8 7.3 23.8v2.5H36l2.5 23.5h-1v1.6h-1.3l-.5 2.4h16.2l-.5-2.4h-1.5z"/><path class="st3" d="M39 32.4l4.5-2.3 4.5 2.3-4.5 7.9-4.5-7.9zM49.7 72v-1.6h-1l2.5-23.5h-3.9v-2.5l7.3-23.8-5 8.8L49 26l5.6-5.4-7.7-1.1-3.4-7-3.4 7-7.7 1.1L38 26l-.6 3.4-5-8.8 7.3 23.8v2.5h-3.9l2.5 23.5h-1V72H36l-.5 2.4h16.2L51 72h-1.3z"/><path class="st3" d="M38.7 32.2l4.5-2.3 4.5 2.3-4.5 7.9-4.5-7.9zm10.8 39.5v-1.6h-1L51 46.6h-3.9v-2.5l7.3-23.8-5 8.8-.6-3.4 5.6-5.4-7.7-1.1-3.4-7-3.4 7-7.9 1.2 5.6 5.4-.6 3.4-5-8.8 7.3 23.8v2.5h-3.9l2.5 23.5h-1v1.6h-1.3l-.5 2.4h16.2l-.5-2.4h-1.3z"/><path class="st3" d="M38.5 32l4.5-2.3 4.5 2.3-4.5 7.8-4.5-7.8zm10.7 39.5v-1.6h-1l2.5-23.5h-3.9V44l7.3-23.8-5 8.8-.6-3.4 5.6-5.4-7.7-1.2-3.4-7-3.4 7-7.7 1.1 5.6 5.4-.7 3.5-5-8.8L39.1 44v2.5h-3.9L37.7 70h-1v1.6h-1.3l-.5 2.4H51l-.5-2.4h-1.3z"/><path class="st3" d="M38.3 31.8l4.5-2.3 4.5 2.3-4.5 7.9-4.5-7.9zM49 71.3v-1.6h-1l2.5-23.5h-3.9v-2.5l7.3-23.8-5 8.8-.6-3.4 5.6-5.4-7.7-1.1-3.4-7-3.4 7-7.7 1.1 5.6 5.4-.6 3.4-5-8.8L39 43.7v2.5h-4l2.5 23.5h-1v1.6h-1.3l-.5 2.4h16.2l-.5-2.4H49z"/><path class="st3" d="M38.1 31.5l4.5-2.3 4.5 2.3-4.5 7.9-4.5-7.9zM48.8 71v-1.6h-1L50.3 46h-3.9v-2.5l7.3-23.8-5 8.8-.6-3.4 5.6-5.4-7.7-1.1-3.4-7-3.4 7-7.7 1.1 5.6 5.4-.6 3.4-5-8.8 7.3 23.8V46h-3.9l2.5 23.5h-1V71h-1.3l-.5 2.4h16.2l-.7-2.4h-1.3z"/><path class="st3" d="M37.8 31.3l4.5-2.3 4.5 2.3-4.5 7.9-4.5-7.9zm10.8 39.5v-1.6h-1L50 45.8h-3.9v-2.5l7.3-23.8-5 8.8-.6-3.4 5.6-5.4-7.7-1.1-3.4-7-3.4 7-7.7 1.1 5.6 5.4-.6 3.4-5-8.8 7.3 23.8v2.5h-3.9L37 69.2h-1v1.6h-1.3l-.5 2.4h16.2l-.5-2.4h-1.3z"/><path class="st3" d="M37.6 31.1l4.5-2.3 4.5 2.3-4.6 7.8-4.4-7.8zm10.7 39.5V69h-1l2.5-23.5h-3.9V43l7.3-23.8-5 8.8-.6-3.4 5.6-5.4-7.7-1.1-3.4-7-3.4 7-7.7 1.1 5.6 5.4L36 28l-5-8.8L38.3 43v2.5h-3.9L36.8 69h-1v1.6h-1.3L34 73h16.2l-.5-2.4h-1.4z"/><path class="st3" d="M37.4 30.8l4.5-2.3 4.5 2.3-4.5 7.9-4.5-7.9zm10.7 39.6v-1.6h-1l2.5-23.5h-3.9v-2.5L53 19l-5 8.8-.6-3.4L53 19l-7.7-1.1-3.4-7-3.4 7-7.8 1.1 5.6 5.4-.6 3.4-5-8.8L38 42.8v2.5h-3.9l2.5 23.5h-1v1.6h-1.3l-.5 2.4H50l-.5-2.4h-1.4z"/><path class="st3" d="M37.1 30.6l4.5-2.3 4.5 2.3-4.5 7.9-4.5-7.9zm10.8 39.5v-1.6h-1L49.4 45h-3.9v-2.5l7.3-23.8-5 8.8-.6-3.4 5.6-5.4-7.8-1-3.4-7-3.4 7-7.7 1.1 5.6 5.4-.6 3.4-5-8.8 7.3 23.8v2.5h-3.9l2.5 23.5h-1v1.6H34l-.5 2.4h16.2l-.5-2.4h-1.3z"/><path class="st3" d="M36.9 30.4l4.5-2.3 4.5 2.3-4.5 7.9-4.5-7.9zm10.7 39.5v-1.6h-1l2.5-23.5h-3.9v-2.5l7.3-23.8-5 8.8-.6-3.3 5.6-5.4-7.7-1.1-3.4-7-3.4 7-7.7 1.1 5.6 5.4-.6 3.4-5-8.8 7.3 23.8v2.5h-3.9l2.5 23.5h-1V70h-1.3l-.5 2.4h16.2l-.5-2.4h-1.5z"/><path class="st3" d="M36.7 30.2l4.5-2.3 4.5 2.3-4.6 7.8-4.4-7.8zm10.7 39.5v-1.6h-1l2.5-23.5H45v-2.5l7.3-23.8-5 8.8-.6-3.4 5.6-5.4-7.7-1.1-3.4-7-3.4 7-7.8 1.1 5.6 5.4-.6 3.5-5-8.8 7.3 23.8v2.5h-3.9l2.5 23.5h-1v1.6h-1.3l-.5 2.2h16.2l-.5-2.4h-1.4z"/><path class="st3" d="M36.5 29.9l4.5-2.3 4.5 2.3-4.5 7.9-4.5-7.9zm10.7 39.6v-1.6h-1l2.5-23.5h-3.9V42l7.3-23.8-5 8.8-.6-3.4 5.6-5.4-7.7-1.2-3.4-7-3.4 7-7.7 1.1 5.6 5.4-.6 3.4-5-8.8L37 42v2.5h-3.9L35.6 68h-1v1.6h-1.3l-.5 2.4H49l-.5-2.4h-1.3z"/><path class="st3" d="M36.2 29.7l4.5-2.3 4.5 2.3-4.5 7.9-4.5-7.9zM47 69.2v-1.6h-1l2.5-23.5h-3.9v-2.5l7.3-23.8-5 8.8-.6-3.4 5.6-5.4-7.7-1.1-3.4-7-3.4 7-7.7 1.1 5.6 5.4-.6 3.4-5-8.8L37 41.6v2.5h-3.9l2.5 23.5h-1v1.6h-1.3l-.5 2.4H49l-.5-2.4H47z"/><path class="st3" d="M36 29.5l4.5-2.3 4.5 2.3-4.5 7.9-4.5-7.9zM46.7 69v-1.6h-1L48.2 44h-3.9v-2.5l7.3-23.8-5 8.8-.6-3.4 5.6-5.4-7.7-1.1-3.4-7-3.4 7-7.7 1.1 5.6 5.4-.6 3.4-5-8.8 7.3 23.8V44h-3.9l2.5 23.5h-1V69H33l-.5 2.4h16.2L48 69h-1.3z"/><path class="st3" d="M35.8 29.3l4.5-2.3 4.5 2.3-4.5 7.9-4.5-7.9zm10.7 39.5v-1.6h-1L48 43.7h-3.9v-2.5l7.3-23.8-5 8.8-.6-3.4 5.6-5.4-7.7-1.1-3.4-7-3.4 7-7.7 1.1 5.6 5.4-.6 3.4-5-8.8 7.3 23.8v2.5h-3.9L35 67.2h-1v1.6h-1.3l-.5 2.4h16.2l-.5-2.4h-1.4z"/><path class="st3" d="M35.5 29l4.5-2.3 4.5 2.3-4.5 7.9-4.5-7.9zm10.8 39.5V67h-1l2.5-23.5h-3.9V41l7.3-23.8-5 8.8-.6-3.4 5.6-5.4-7.7-1.1-3.4-7-3.4 7-7.7 1.1 5.6 5.4-.8 3.4-5-8.8L36.1 41v2.5h-3.9L34.8 67h-1v1.6h-1.3L32 71h16.2l-.5-2.4h-1.4z"/></g></g><path class="st4" d="M36.1 41h7.8v4.9h-7.8z"/><path class="st5" d="M45.2 67.7H34.8l-2.6-24.2h15.6z"/><path class="st6" d="M47.8 43.5l-2.6 24.2H40V43.5z"/><path class="st5" d="M32.2 43.5H40v24.2h-5.2z"/><path class="st4" d="M33.7 67h12.6v1.6H33.7z"/><path class="st6" d="M47.6 68.5H32.4l-.5 2.4h16.2z"/><path class="st7" d="M28.8 17.2L36.1 41h7.8l7.3-23.8L40 36.9z"/><path class="st8" d="M36.6 16.1l3.4-7v11.7z"/><path class="st9" d="M40 9.1l3.4 7-3.4 4.7z"/><path class="st8" d="M43.4 16.1l7.8 1.1L40 20.8zm-9 6.5l-5.6-5.4L40 20.8z"/><path class="st9" d="M28.8 17.2l7.8-1.1 3.4 4.7zm18.1 13.1L40 26.7v-5.9zM40 20.8l-6.9 9.5 1.3-7.7z"/><path class="st9" d="M51.2 17.2l-5.6 5.4-5.6-1.8z"/><path class="st8" d="M40 26.7l-6.9 3.6 6.9-9.5zm5.6-4.1l1.3 7.7-6.9-9.5z"/></svg>