<svg id="objects" xmlns="http://www.w3.org/2000/svg" xmlns:xlink="http://www.w3.org/1999/xlink" viewBox="0 0 80 80"><style>.st0{fill:#00838f}.st1{opacity:.56}.st2{clip-path:url(#SVGID_2_)}.st3{opacity:.5;fill:#00838f}.st4{fill:#e53935}.st5{fill:#fdd835}.st6{fill:#f9a825}.st7{opacity:.32}.st8{fill:#fff}</style><circle class="st0" cx="40" cy="40" r="40"/><g class="st1"><defs><circle id="SVGID_1_" class="st1" cx="40" cy="40" r="40"/></defs><clipPath id="SVGID_2_"><use xlink:href="#SVGID_1_" overflow="visible"/></clipPath><g class="st2"><path class="st3" d="M115.6 82.7l-8 1.4-5.7-5.8-1.2 8.1-7.3 3.6 4.2 2.1c-4.7 3.4-8.7 9-10.3 16.3H86l2.8-25.1 6.2 3.2-1.8-10.6 7.7-7.5-10.6-1.5-4.8-9.6-4.8 9.6-10.6 1.5 7.7 7.5L76 86.5l6.2-3.2 2.8 25.1h-1.3c-1.6-7.3-5.6-13-10.3-16.3l4.2-2.1-7.3-3.6-1.2-8.1-5.7 5.8-8-1.4 3.8 7.2-3.8 7.2 8-1.4 5.7 5.8.8-5.3c4.9 2.2 9.4 6.3 12.4 12.1h-3.4v2.8h-1.7v2.8h17v-2.8h-1.7v-2.8h-3.9c3-5.8 7.6-9.9 12.4-12.1l.8 5.3 5.7-5.8 8 1.4-3.8-7.2 3.9-7.2z"/><path class="st3" d="M115.4 82.5l-8 1.4-5.7-5.8-1.2 8.1-7.3 3.6 4.2 2.1c-4.7 3.4-8.7 9-10.3 16.3h-1.3L88.7 83l6.2 3.2L93 75.6l7.7-7.5-10.6-1.5-4.8-9.6-4.8 9.6-10.6 1.5 7.7 7.5-1.8 10.6L82 83l2.8 25.1h-1.3c-1.6-7.3-5.6-13-10.3-16.3l4.2-2.1-7.3-3.7-1.2-8-5.7 5.8-8-1.4 3.8 7.2-3.8 7.2 8-1.4 5.7 5.8.8-5.3c4.9 2.2 9.4 6.3 12.4 12.1h-3.4v2.8H77v2.8h17v-2.8h-1.7V108h-3.9c3-5.8 7.6-9.9 12.4-12.1l.8 5.3 5.7-5.8 8 1.4-3.8-7.2 3.9-7.1z"/><path class="st3" d="M115.1 82.2l-8 1.4-5.7-5.8-1.2 8.1-7.2 3.5 4.2 2.1c-4.7 3.4-8.7 9-10.3 16.3h-1.3l2.8-25.1 6.2 3.2-1.8-10.6 7.7-7.5-10.6-1.5-4.8-9.6-4.8 9.6-10.6 1.5 7.7 7.5L75.6 86l6.2-3.2 2.8 25.1h-1.3c-1.6-7.3-5.6-13-10.3-16.3l4.2-2.1-7.3-3.6-1.2-8.1-5.7 5.8-8-1.4 3.8 7.2-3.8 7.2 8-1.4 5.7 5.8.8-5.3c4.9 2.2 9.4 6.3 12.4 12.1h-3.4v2.8h-1.7v2.8h17v-2.8h-1.7v-2.8h-3.9c3-5.8 7.6-9.9 12.4-12.1l.8 5.3 5.7-5.8 8 1.4-3.8-7.2 3.8-7.2z"/><path class="st3" d="M114.9 82l-8 1.4-5.7-5.8-1.2 8.1-7.3 3.6 4.2 2.1c-4.7 3.4-8.7 9-10.3 16.3h-1.3l2.8-25.1 6.2 3.2-1.8-10.6 7.7-7.5-10.6-1.5-4.8-9.6-4.8 9.6-10.6 1.5 7.7 7.5-1.8 10.6 6.2-3.2 2.8 25.1H83c-1.6-7.3-5.6-13-10.3-16.3l4.2-2.1-7.3-3.6-1.2-8.1-5.7 5.8-8-1.4 3.8 7.2-3.8 7.2 8-1.4 5.7 5.8.8-5.3c4.9 2.2 9.4 6.3 12.4 12.1h-3.4v2.8h-1.7v2.8h17v-2.8h-1.7v-2.8H88c3-5.8 7.6-9.9 12.4-12.1l.8 5.3 5.7-5.8 8 1.4-3.8-7.2 3.8-7.2z"/><path class="st3" d="M114.7 81.8l-8 1.4-5.7-5.8-1.2 8.1-7.3 3.5 4.2 2.1c-4.7 3.4-8.7 9-10.3 16.3h-1.3L88 82.3l6.2 3.2L92.3 75l7.7-7.5L89.4 66l-4.8-9.6-4.8 9.6-10.6 1.5 7.7 7.5-1.8 10.6 6.2-3.2 2.8 25.1h-1.3c-1.6-7.3-5.6-13-10.3-16.3l4.2-2.1-7.3-3.6-1.2-8.1-5.7 5.8-8-1.4 3.8 7.2-3.8 7.2 8-1.4 5.7 5.8.8-5.3c4.9 2.2 9.4 6.3 12.4 12.1H78v2.8h-1.7v2.8h17v-2.8h-1.7v-2.8h-3.9c3-5.8 7.6-9.9 12.4-12.1l.8 5.3 5.7-5.8 8 1.4-3.8-7.2 3.9-7.2z"/><path class="st3" d="M114.5 81.6l-8 1.4-5.7-5.8-1.2 8.1-7.3 3.6 4.2 2.1c-4.7 3.4-8.7 9-10.3 16.3h-1.3l2.8-25.1 6.2 3.2-1.8-10.6 7.7-7.5-10.6-1.5-4.8-9.6-4.8 9.6L69 67.2l7.7 7.5-1.8 10.6 6.2-3.2 2.8 25.1h-1.3c-1.6-7.3-5.6-13-10.3-16.3l4.2-2.1-7.3-3.6-1.2-8.1-5.7 5.8-8-1.4 3.8 7.2-3.8 7.3 8-1.4 5.7 5.8.8-5.3c4.9 2.2 9.4 6.3 12.4 12.1h-3.4v2.8h-1.7v2.8h17V110h-1.7v-2.8h-3.9c3-5.8 7.6-9.9 12.4-12.1l.8 5.3 5.7-5.8 8 1.4-3.8-7.2 3.9-7.2z"/><path class="st3" d="M114.2 81.3l-8 1.4-5.7-5.8-1.2 8.1-7.3 3.6 4.2 2.1c-4.7 3.4-8.7 9-10.3 16.3h-1.3l2.8-25.1 6.2 3.2-1.8-10.6 7.7-7.5-10.6-1.5-4.8-9.6-4.8 9.6L68.8 67l7.7 7.5-1.8 10.6 6.2-3.2 2.8 25.1h-1.3c-1.6-7.3-5.6-13-10.3-16.3l4.2-2.1-7.3-3.7-1.2-8.1-5.7 5.8-8-1.4 3.8 7.2-3.8 7.2 8-1.4 5.7 5.8.8-5.3C73.4 97 78 101.2 81 107h-3.4v2.8h-1.7v2.8h17v-2.8h-1.7V107h-3.9c3-5.8 7.6-9.9 12.4-12.1l.8 5.3 5.7-5.8 8 1.4-3.8-7.2 3.8-7.3z"/><path class="st3" d="M114 81.1l-8 1.4-5.7-5.8-1.2 8.1-7.3 3.6 4.2 2.1c-4.7 3.4-8.7 9-10.3 16.3h-1.3l2.8-25.1 6.2 3.2-1.8-10.6 7.7-7.5-10.6-1.5-4.8-9.6-4.8 9.6-10.6 1.5 7.7 7.5-1.8 10.6 6.2-3.2 2.8 25.1h-1.3c-1.6-7.3-5.6-13-10.3-16.3l4.2-2.1-7.3-3.6-1.2-8.1-5.7 5.8-8-1.4 3.8 7.2-3.8 7.2 8-1.4 5.7 5.8.8-5.3c4.9 2.2 9.4 6.3 12.4 12.1h-3.4v2.8h-1.7v2.8h17.1v-2.8H91v-2.8h-3.9c3-5.8 7.6-9.9 12.4-12.1l.8 5.3 5.7-5.8 8 1.4-3.8-7.2 3.8-7.2z"/><path class="st3" d="M113.8 80.9l-8 1.4-5.7-5.8-1.2 8.1-7.3 3.6 4.2 2.1c-4.7 3.4-8.7 9-10.3 16.3h-1.3L87 81.5l6.2 3.2-1.8-10.6 7.7-7.5L88.5 65l-4.8-9.6L79 65l-10.6 1.5 7.7 7.5-1.8 10.6 6.2-3.2 2.8 25.1H82c-1.6-7.3-5.6-13-10.3-16.3l4.2-2.1-7.3-3.6-1.2-8.1-5.7 5.8-8-1.4 3.8 7.2-3.8 7.2 8-1.4 5.7 5.8.8-5.3c4.9 2.2 9.4 6.3 12.4 12.1h-3.4v2.8h-1.7v2.8h17v-2.8h-1.7v-2.8h-3.9c3-5.8 7.6-9.9 12.4-12.1l.8 5.3 5.7-5.8 8 1.4L110 88l3.8-7.1z"/><path class="st3" d="M113.6 80.6l-8 1.4-5.7-5.8-1.2 8.1-7.3 3.6 4.2 2.1c-4.7 3.4-8.7 9-10.3 16.3H84l2.8-25.1 6.2 3.2-1.8-10.6 7.7-7.5-10.6-1.5-4.8-9.6-4.8 9.6-10.6 1.5 7.7 7.5L74 84.4l6.2-3.2 2.8 25.1h-1.3C80 99 76 93.3 71.3 89.9l4.2-2.1-7.3-3.6-1.2-8.1-5.6 5.9-8-1.4 3.8 7.2-3.8 7.2 8-1.4 5.7 5.8.8-5.3c4.9 2.2 9.4 6.3 12.4 12.1h-3.4v2.8h-1.7v2.8h17V109h-1.7v-2.8h-3.9c3-5.8 7.6-9.9 12.4-12.1l.8 5.3 5.7-5.8 8 1.4-3.8-7.2 3.9-7.2z"/><path class="st3" d="M113.3 80.4l-8 1.4-5.7-5.8-1.1 8-7.3 3.6 4.2 2.1c-4.7 3.4-8.7 9-10.3 16.3h-1.3l2.8-25 6.2 3.2L91 73.6l7.7-7.5L88 64.6 83.2 55l-4.8 9.6-10.6 1.5 7.7 7.5-1.8 10.6 6.2-3.2 2.8 25.1h-1.3c-1.6-7.3-5.6-13-10.3-16.3l4.2-2.1-7.2-3.7-1.2-8-5.7 5.8-8-1.4 3.8 7.2-3.8 7.2 8-1.4 5.7 5.8.8-5.3c4.9 2.2 9.4 6.3 12.4 12.1h-3.4v2.8H75v2.8h17v-2.8h-1.7V106h-3.9c3-5.8 7.6-9.9 12.4-12.1l.8 5.3 5.7-5.8 8 1.4-3.8-7.2 3.8-7.2z"/><path class="st3" d="M113.1 80.2l-8 1.4-5.7-5.8-1.2 8.1-7.3 3.6 4.2 2.1c-4.7 3.4-8.7 9-10.3 16.3h-1.3l2.8-25.1 6.2 3.2-1.8-10.6 7.7-7.5-10.6-1.5-4.8-9.7-4.8 9.6-10.6 1.5 7.7 7.5L73.5 84l6.2-3.2 2.8 25.1h-1.3c-1.6-7.3-5.6-13-10.3-16.3l4.2-2.1-7.3-3.6-1.2-8.1-5.6 5.8-8-1.4 3.8 7.2-3.8 7.2 8-1.4 5.7 5.8.8-5.3c4.9 2.2 9.4 6.3 12.4 12.1h-3.4v2.8h-1.7v2.8h17v-2.8h-1.7v-2.8h-3.9c3-5.8 7.6-9.9 12.4-12.1l.8 5.3 5.7-5.8 8 1.4-3.8-7.2 3.8-7.2z"/><path class="st3" d="M112.9 80l-8 1.4-5.7-5.8-1.2 8-7.3 3.6 4.2 2.1c-4.7 3.4-8.7 9-10.3 16.3h-1.3l2.8-25.1 6.2 3.2-1.8-10.6 7.7-7.5-10.6-1.5-4.8-9.6-4.8 9.6-10.6 1.5 7.7 7.5-1.8 10.6 6.2-3.2 2.8 25.1H81c-1.6-7.3-5.6-13-10.3-16.3l4.2-2.1-7.3-3.6-1.2-8.1-5.7 5.8-8-1.4 3.8 7.2-3.8 7.2 8-1.4 5.7 5.8.8-5.3c4.9 2.2 9.4 6.3 12.4 12.1h-3.4v2.8h-1.7v2.8h17v-2.8h-1.7v-2.8h-3.9c3-5.8 7.6-9.9 12.4-12.1l.8 5.3 5.7-5.8 8 1.4-3.8-7.2 3.9-7.1z"/><path class="st3" d="M112.7 79.7l-8 1.4-5.7-5.8-1.2 8.1-7.3 3.6 4.2 2.1c-4.7 3.4-8.7 9-10.3 16.3h-1.3l2.8-25.1 6.2 3.2-1.8-10.6 7.7-7.5-10.6-1.5-4.8-9.6-4.8 9.6-10.6 1.5 7.7 7.5-1.8 10.6 6.2-3.2 2.8 25.1h-1.3c-1.6-7.3-5.6-13-10.3-16.3l4.2-2.1-7.3-3.6-1.2-8.1-5.7 5.8-8-1.4 3.8 7.2-3.8 7.2 8-1.4 5.7 5.8.8-5.3c4.9 2.2 9.4 6.3 12.4 12.1H76v2.8h-1.7v2.8h17v-2.8h-1.7v-2.8h-3.9c3-5.8 7.6-9.9 12.4-12.1l.8 5.3 5.7-5.8 8 1.4-3.8-7.2 3.9-7.2z"/><path class="st3" d="M112.4 79.5l-8 1.4-5.7-5.9-1.2 8.1-7.3 3.6 4.2 2.1c-4.7 3.4-8.7 9-10.3 16.3h-1.3L85.6 80l6.2 3.2L90 72.7l7.7-7.5-10.6-1.5-4.8-9.7-4.8 9.6L67 65.2l7.7 7.5-1.8 10.6 6.2-3.2 2.8 25.1h-1.3c-1.6-7.3-5.6-13-10.3-16.3l4.2-2.1-7.3-3.6L66 75l-5.7 5.8-8-1.4 3.8 7.2-3.8 7.2 8-1.4 5.7 5.8.8-5.3c4.9 2.2 9.4 6.3 12.4 12.1h-3.4v2.8h-1.7v2.8H91v-2.8h-1.7V105h-3.9c3-5.8 7.6-9.9 12.4-12.1l.8 5.3 5.7-5.8 8 1.4-3.8-7.2 3.9-7.1z"/><path class="st3" d="M112.2 79.3l-8 1.4-5.7-5.8-1.2 8.1-7.3 3.5 4.2 2.1c-4.7 3.4-8.7 9-10.3 16.3h-1.3l2.8-25.1 6.2 3.2-1.8-10.6 7.7-7.5-10.6-1.5-4.8-9.6-4.8 9.6L66.7 65l7.7 7.5-1.8 10.6 6.2-3.2 2.8 25.1h-1.3c-1.6-7.3-5.6-13-10.3-16.3l4.2-2.1-7.3-3.6-1.2-8.1-5.7 5.8-8-1.4 3.8 7.2-3.8 7.2 8-1.4 5.7 5.8.8-5.3c4.9 2.2 9.4 6.3 12.4 12.1h-3.4v2.8h-1.7v2.8h17v-2.8h-1.7v-2.8h-3.9c3-5.8 7.6-9.9 12.4-12.1l.8 5.3 5.7-5.8 8 1.4-3.8-7.2 3.9-7.2z"/><path class="st3" d="M112 79.1l-8 1.4-5.7-5.8-1.2 8.1-7.3 3.6 4.2 2.1c-4.7 3.4-8.7 9-10.3 16.3h-1.3l2.8-25.1 6.2 3.2-1.8-10.6 7.7-7.5-10.6-1.5-4.8-9.6-4.8 9.6-10.6 1.5 7.7 7.5-1.8 10.6 6.2-3.2 2.8 25.1h-1.3c-1.6-7.3-5.6-13-10.3-16.3l4.2-2.1-7.3-3.6-1.2-8.1-5.7 5.8-8-1.4 3.8 7.2-3.8 7.2 8-1.4 5.7 5.8.8-5.3c4.9 2.2 9.4 6.3 12.4 12.1h-3.4v2.8h-1.7v2.8h17v-2.8h-1.7v-2.8H85c3-5.8 7.6-9.9 12.4-12.1l.8 5.3 5.7-5.8 8 1.4-3.8-7.2 3.9-7.2z"/><path class="st3" d="M111.7 78.8l-8 1.4-5.7-5.8-1.2 8.1-7.2 3.5 4.2 2.1c-4.7 3.4-8.7 9-10.3 16.3h-1.3l2.8-25 6.2 3.2L89.4 72l7.7-7.5L86.4 63l-4.8-9.6-4.7 9.6-10.6 1.5L74 72l-1.8 10.6 6.2-3.2 2.8 25.1h-1.3c-1.6-7.3-5.6-13-10.3-16.3l4.2-2.1-7.3-3.6-1.2-8.1-5.7 5.8-8-1.4 3.8 7.2-3.8 7.2 8-1.4 5.7 5.8.8-5.3c4.9 2.2 9.4 6.3 12.4 12.1h-3.4v2.8h-1.7v2.8h17v-2.8h-1.7v-2.8h-3.9c3-5.8 7.6-9.9 12.4-12.1l.8 5.3 5.7-5.8 8 1.4L108 86l3.7-7.2z"/><path class="st3" d="M111.5 78.6l-8 1.4-5.7-5.8-1.2 8.1-7.3 3.6 4.2 2.1c-4.7 3.4-8.7 9-10.3 16.3H82l2.8-25.1 6.2 3.2-1.8-10.6 7.7-7.5-10.6-1.5-4.8-9.6-4.8 9.6L66 64.3l7.7 7.5-1.8 10.6 6.2-3.2 2.8 25.1h-1.3C78 97 74 91.3 69.3 88l4.2-2.1-7.3-3.6-1.2-8.1-5.6 5.8-8-1.4 3.8 7.2-3.8 7.2 8-1.4 5.7 5.8.8-5.3c4.9 2.2 9.4 6.3 12.4 12.1h-3.4v2.8h-1.7v2.8h17V107h-1.7v-2.8h-3.9c3-5.8 7.6-9.9 12.4-12.1l.8 5.3 5.7-5.8 8 1.4-3.8-7.2 3.8-7.2z"/><path class="st3" d="M111.3 78.4l-8 1.4-5.7-5.8-1.2 8-7.3 3.6 4.2 2.1c-4.7 3.4-8.7 9-10.3 16.3h-1.3l2.8-25.1 6.2 3.2-1.8-10.6 7.7-7.5L86 62.5l-4.8-9.6-4.8 9.6L65.8 64l7.7 7.5-1.8 10.6 6.2-3.2 2.8 25.1h-1.3c-1.6-7.3-5.6-13-10.3-16.3l4.2-2.1L66 82l-1.2-8.1-5.7 5.8-8-1.4 3.8 7.2-3.8 7.2 8-1.4 5.7 5.8.8-5.3C70.5 94 75 98.1 78 103.9h-3.4v2.8H73v2.8h17v-2.8h-1.7V104h-3.9c3-5.8 7.6-9.9 12.4-12.1l.8 5.3 5.7-5.8 8 1.4-3.8-7.2 3.8-7.2z"/><path class="st3" d="M111.1 78.2l-8 1.4-5.7-5.8-1.2 8.1-7.3 3.6 4.2 2.1c-4.7 3.4-8.7 9-10.3 16.3h-1.3l2.8-25.1 6.2 3.2-1.8-10.6 7.7-7.5-10.6-1.5-4.8-9.7-4.8 9.6-10.6 1.5 7.7 7.5-1.8 10.6 6.2-3.2 2.8 25.1h-1.3c-1.6-7.3-5.6-13-10.3-16.3l4.2-2.1-7.3-3.6-1.2-8.1-5.7 5.8-8-1.4 3.8 7.2-3.8 7.2 8-1.4 5.7 5.8.8-5.3c4.9 2.2 9.4 6.3 12.4 12.1h-3.4v2.8h-1.7v2.8h17v-2.8H88v-2.8h-3.9c3-5.8 7.6-9.9 12.4-12.1l.8 5.3 5.7-5.8 8 1.4-3.8-7.2 3.9-7.1z"/><path class="st3" d="M110.8 77.9l-8 1.4-5.7-5.8-1.1 8-7.3 3.6 4.2 2.1c-4.7 3.4-8.7 9-10.3 16.3h-1.3l2.8-25.1 6.2 3.2L88.5 71l7.7-7.5L85.6 62l-4.8-9.6-4.8 9.7-10.6 1.5 7.7 7.5-1.8 10.6 6.2-3.2 2.8 25.1H79c-1.6-7.3-5.6-13-10.3-16.3l4.2-2.1-7.3-3.6-1.2-8.1-5.7 5.8-8-1.4 3.8 7.2-3.8 7.2 8-1.4 5.7 5.8.8-5.3c4.9 2.2 9.4 6.3 12.4 12.1h-3.4v2.8h-1.7v2.8h17v-2.8h-1.7v-2.8h-3.9c3-5.8 7.6-9.9 12.4-12.1l.8 5.3 5.7-5.8 8 1.4-3.8-7.2 3.8-7.2z"/><path class="st3" d="M110.6 77.7l-8 1.4-5.7-5.8-1.2 8.1-7.3 3.6 4.2 2.1c-4.7 3.4-8.7 9-10.3 16.3H81l2.8-25.1 6.2 3.2-1.8-10.6 7.7-7.5-10.6-1.5-4.8-9.6-4.8 9.6-10.6 1.5 7.7 7.5L71 81.5l6.2-3.2 2.8 25.1h-1.3c-1.6-7.3-5.6-13-10.3-16.3l4.2-2.1-7.3-3.6-1.2-8.1-5.7 5.8-8-1.4 3.8 7.2-3.8 7.2 8-1.4 5.7 5.8.8-5.3c4.9 2.2 9.4 6.3 12.4 12.1H74v2.8h-1.7v2.8h17v-2.8h-1.7v-2.8h-3.9c3-5.8 7.6-9.9 12.4-12.1l.8 5.3 5.7-5.8 8 1.4-3.8-7.2 3.8-7.2z"/><path class="st3" d="M110.4 77.5l-8 1.4-5.7-5.9-1.2 8.1-7.3 3.6 4.2 2.1c-4.7 3.4-8.7 9-10.3 16.3h-1.3L83.7 78l6.2 3.2L88 70.7l7.7-7.5-10.6-1.5-4.8-9.7-4.8 9.6-10.6 1.5 7.7 7.5-1.8 10.6L77 78l2.8 25.1h-1.3c-1.6-7.3-5.6-13-10.3-16.3l4.2-2.1-7.3-3.6-1.2-8.1-5.7 5.8-8-1.4 3.8 7.2-3.8 7.2 8-1.4 5.7 5.8.8-5.3c4.9 2.2 9.4 6.3 12.4 12.1h-3.4v2.8H72v2.8h17v-2.8h-1.7V103h-3.9c3-5.8 7.6-9.9 12.4-12.1l.8 5.3 5.7-5.8 8 1.4-3.8-7.2 3.9-7.1z"/><path class="st3" d="M110.2 77.2l-8 1.4-5.7-5.8-1.2 8.1-7.3 3.5 4.2 2.1c-4.7 3.4-8.7 9-10.3 16.3h-1.3l2.8-25.1 6.2 3.2-1.8-10.6 7.7-7.5-10.6-1.5-4.8-9.6-4.8 9.6-10.6 1.5 7.7 7.5L70.6 81l6.2-3.2 2.8 25.1h-1.3c-1.6-7.3-5.6-13-10.3-16.3l4.2-2.1-7.3-3.6-1.2-8.1-5.7 5.8-8-1.4 3.8 7.2-3.8 7.3 8-1.4 5.7 5.8.8-5.3c4.9 2.2 9.4 6.3 12.4 12.1h-3.4v2.8h-1.7v2.8h17v-2.8h-1.7v-2.8h-3.9c3-5.8 7.6-9.9 12.4-12.1l.8 5.3 5.7-5.8 8 1.4-3.8-7.2 3.9-7.3z"/><path class="st3" d="M109.9 77l-8 1.4-5.7-5.8-1.2 8.1-7.3 3.6 4.2 2.1c-4.7 3.4-8.7 9-10.3 16.3h-1.3l2.8-25.1 6.2 3.2-1.8-10.6 7.7-7.5-10.6-1.5-4.8-9.6-4.8 9.6-10.6 1.5 7.7 7.5-1.8 10.6 6.2-3.2 2.8 25.1H78c-1.6-7.3-5.6-13-10.3-16.3l4.2-2.1-7.3-3.6-1.2-8.1-5.7 5.8-8-1.4 3.8 7.2-3.8 7.2 8-1.4 5.7 5.8.8-5.3c4.9 2.2 9.4 6.3 12.4 12.1h-3.4v2.8h-1.7v2.8h17v-2.8h-1.7v-2.8H83c3-5.8 7.6-9.9 12.4-12.1l.8 5.3 5.7-5.8 8 1.4-3.8-7.2 3.8-7.2z"/><path class="st3" d="M109.7 76.8l-8 1.4-5.7-5.9-1.2 8.1-7.3 3.6 4.2 2.1c-4.7 3.4-8.7 9-10.3 16.3h-1.3L83 77.3l6.2 3.2L87.3 70l7.7-7.5L84.4 61l-4.8-9.6-4.8 9.6-10.6 1.5 7.7 7.5-1.8 10.6 6.2-3.2 2.8 25.1h-1.3c-1.6-7.3-5.6-13-10.3-16.3l4.2-2.1-7.3-3.6-1.2-8.1-5.7 5.8-8-1.4 3.8 7.2-3.8 7.2 8-1.4 5.7 5.8.8-5.3c4.9 2.2 9.4 6.3 12.4 12.1H73v2.8h-1.7v2.8h17v-2.8h-1.7v-2.8h-3.9c3-5.8 7.6-9.9 12.4-12.1l.8 5.3 5.7-5.8 8 1.4-3.8-7.2 3.9-7.2z"/><path class="st3" d="M109.5 76.6l-8 1.4-5.7-5.8-1.2 8.1-7.3 3.6 4.2 2.1c-4.7 3.4-8.7 9-10.3 16.3h-1.3l2.8-25.1 6.2 3.2-1.8-10.6 7.7-7.5-10.6-1.5-4.8-9.6-4.8 9.6L64 62.3l7.7 7.5-1.8 10.6 6.2-3.2 2.8 25.1h-1.3C76 95 72 89.3 67.3 86l4.2-2.1-7.3-3.6-1.2-8.2-5.7 5.8-8-1.4 3.8 7.2-3.8 7.3 8-1.4 5.7 5.8.8-5.3c4.9 2.2 9.4 6.3 12.4 12.1h-3.4v2.8h-1.7v2.8h17V105h-1.7v-2.8h-3.9c3-5.8 7.6-9.9 12.4-12.1l.8 5.3 5.7-5.8 8 1.4-3.8-7.2 3.9-7.2z"/><path class="st3" d="M109.3 76.3l-8 1.4-5.7-5.8-1.2 8.1-7.3 3.6 4.2 2.1c-4.7 3.4-8.7 9-10.3 16.3h-1.3l2.8-25.1 6.2 3.2-1.8-10.6 7.7-7.5L84 60.5l-4.8-9.6-4.8 9.6L63.8 62l7.7 7.5-1.8 10.6 6.2-3.2 2.8 25.1h-1.3c-1.6-7.3-5.6-13-10.3-16.3l4.2-2.1-7.3-3.7-1.2-8.1-5.7 5.8-8-1.4 3.8 7.2-3.8 7.2 8-1.4 5.7 5.8.8-5.3C68.5 92.1 73 96.2 76 102h-3.4v2.8h-1.7v2.8h17v-2.8h-1.7V102h-3.9c3-5.8 7.6-9.9 12.4-12.1l.8 5.3 5.7-5.8 8 1.4-3.8-7.2 3.9-7.3z"/><path class="st3" d="M109 76.1l-8 1.4-5.7-5.8-1.2 8.1-7.3 3.6 4.2 2.1c-4.7 3.4-8.7 9-10.3 16.3h-1.3l2.8-25.1 6.2 3.2-1.8-10.6 7.7-7.5-10.6-1.5-4.7-9.7-4.8 9.6-10.6 1.5 7.7 7.5-1.8 10.6 6.2-3.2 2.8 25.1h-1.3c-1.6-7.3-5.6-13-10.3-16.3l4.2-2.1-7.3-3.6-1.2-8.1-5.7 5.8-8-1.4 3.8 7.2-3.8 7.2 8-1.4 5.7 5.8.8-5.3c4.9 2.2 9.4 6.3 12.4 12.1h-3.4v2.8h-1.7v2.8h17v-2.8H86v-2.8h-3.9c3-5.8 7.6-9.9 12.4-12.1l.8 5.3L101 89l8 1.4-3.8-7.2 3.8-7.1z"/><path class="st3" d="M108.8 75.9l-8 1.4-5.7-5.8-1.2 8.1-7.3 3.6 4.2 2.1c-4.7 3.4-8.7 9-10.3 16.3h-1.3L82 76.5l6.2 3.2-1.8-10.6 7.7-7.5L83.5 60l-4.8-9.6L74 60l-10.6 1.5 7.7 7.5-1.8 10.6 6.2-3.2 2.8 25.1H77c-1.6-7.3-5.6-13-10.3-16.3l4.2-2.1-7.3-3.6-1.2-8.1-5.7 5.8-8-1.4 3.8 7.2-3.8 7.2 8-1.4 5.7 5.8.8-5.3c4.9 2.2 9.4 6.3 12.4 12.1h-3.4v2.8h-1.7v2.8h17v-2.8h-1.7v-2.8h-3.9c3-5.8 7.6-9.9 12.4-12.1l.8 5.3 5.7-5.8 8 1.4L105 83l3.8-7.1z"/><path class="st3" d="M108.6 75.7l-8 1.4-5.7-5.8-1.2 8.1-7.3 3.6 4.2 2.1c-4.7 3.4-8.7 9-10.3 16.3H79l2.8-25.1 6.2 3.2-1.8-10.6 7.7-7.5-10.6-1.5-4.8-9.6-4.8 9.6-10.6 1.5 7.7 7.5L69 79.5l6.2-3.2 2.8 25.1h-1.3c-1.6-7.3-5.6-13-10.3-16.3l4.2-2.1-7.3-3.6-1.2-8.1-5.7 5.7-8-1.4 3.8 7.2-3.8 7.2 8-1.4 5.7 5.8.8-5.3c4.9 2.2 9.4 6.3 12.4 12.1h-3.4v2.8h-1.7v2.8h17V104h-1.7v-2.8h-3.9c3-5.8 7.6-9.9 12.4-12.1l.8 5.3 5.7-5.8 8 1.4-3.8-7.2 3.9-7.1z"/><path class="st3" d="M108.4 75.4l-8 1.4-5.7-5.8-1.2 8-7.3 3.6 4.2 2.1c-4.7 3.4-8.7 9-10.3 16.3h-1.3l2.8-25 6.2 3.2L86 68.6l7.7-7.5L83 59.6 78.2 50l-4.8 9.6-10.6 1.5 7.7 7.5-1.8 10.6 6.2-3.2 2.8 25.1h-1.3c-1.6-7.3-5.6-13-10.3-16.3l4.2-2.1-7.2-3.7-1.2-8-5.7 5.8-8-1.4 3.8 7.2-3.8 7.2 8-1.4 5.7 5.8.8-5.3c4.9 2.2 9.4 6.3 12.4 12.1h-3.4v2.8H70v2.8h17v-2.8h-1.7V101h-3.9c3-5.8 7.6-9.9 12.4-12.1l.8 5.3 5.7-5.8 8 1.4-3.8-7.2 3.9-7.2z"/><path class="st3" d="M108.1 75.2l-8 1.4-5.7-5.8-1.2 8.1-7.3 3.6 4.2 2.1c-4.7 3.4-8.7 9-10.3 16.3h-1.3l2.8-25.1 6.2 3.2-1.8-10.6 7.7-7.5-10.6-1.5-4.8-9.7-4.8 9.6-10.6 1.5 7.7 7.5L68.5 79l6.2-3.2 2.8 25.1h-1.3c-1.6-7.3-5.6-13-10.3-16.3l4.2-2.1-7.3-3.6-1.2-8.1-5.6 5.8-8-1.4 3.8 7.2-3.8 7.2 8-1.4 5.7 5.8.8-5.3c4.9 2.2 9.4 6.3 12.4 12.1h-3.4v2.8h-1.7v2.8h17v-2.8h-1.7v-2.8h-3.9c3-5.8 7.6-9.9 12.4-12.1l.8 5.3 5.7-5.8 8 1.4-3.8-7.2 3.8-7.2z"/><path class="st3" d="M107.9 75l-8 1.4-5.7-5.8-1.2 8-7.3 3.6 4.2 2.1c-4.7 3.4-8.7 9-10.3 16.3h-1.3l2.8-25.1 6.2 3.2-1.8-10.6 7.7-7.5-10.6-1.5-4.8-9.6-4.8 9.6-10.6 1.5 7.7 7.5-1.8 10.6 6.2-3.2 2.8 25.1H76c-1.6-7.3-5.6-13-10.3-16.3l4.2-2.1-7.3-3.6-1.2-8.1-5.7 5.8-8-1.4 3.8 7.2-3.8 7.2 8-1.4 5.7 5.8.8-5.3c4.9 2.2 9.4 6.3 12.4 12.1h-3.4v2.8h-1.7v2.8h17v-2.8h-1.7v-2.8H81c3-5.8 7.6-9.9 12.4-12.1l.8 5.3 5.7-5.8 8 1.4-3.8-7.2 3.8-7.1z"/><path class="st3" d="M107.7 74.8l-8 1.4-5.7-5.9-1.2 8.1-7.3 3.6 4.2 2.1c-4.7 3.4-8.7 9-10.3 16.3h-1.3L81 75.3l6.2 3.2-1.8-10.6 7.7-7.5-10.6-1.5-4.8-9.6-4.8 9.6-10.6 1.5 7.7 7.5-1.8 10.6 6.2-3.2 2.8 25.1h-1.3c-1.6-7.3-5.6-13-10.3-16.3l4.2-2.1-7.3-3.6-1.2-8.1-5.7 5.8-8-1.4 3.8 7.2-3.8 7.2 8-1.4 5.7 5.8.8-5.3c4.9 2.2 9.4 6.3 12.4 12.1H71v2.8h-1.7v2.8h17v-2.8h-1.7v-2.8h-3.9c3-5.8 7.6-9.9 12.4-12.1l.8 5.3 5.7-5.8 8 1.4-3.8-7.2 3.9-7.1z"/><path class="st3" d="M107.4 74.5l-8 1.4-5.7-5.8-1.2 8.1-7.3 3.6 4.2 2.1c-4.7 3.4-8.7 9-10.3 16.3h-1.3l2.8-25.1 6.2 3.2L85 67.7l7.7-7.5-10.6-1.5-4.7-9.7-4.8 9.6L62 60.2l7.7 7.5-1.8 10.6 6.2-3.2 2.8 25.1h-1.3c-1.6-7.3-5.6-13-10.3-16.3l4.2-2.1-7.3-3.6-1.2-8.1-5.7 5.8-8-1.4 3.8 7.2-3.8 7.2 8-1.4 5.7 5.8.8-5.3c4.9 2.2 9.4 6.3 12.4 12.1h-3.4v2.8h-1.7v2.8h17v-2.8h-1.7v-2.8h-3.9c3-5.8 7.6-9.9 12.4-12.1l.8 5.3 5.7-5.8 8 1.4-3.8-7.2 3.8-7.2z"/><path class="st3" d="M107.2 74.3l-8 1.4-5.7-5.8-1.2 8.1-7.3 3.5 4.2 2.1c-4.7 3.4-8.7 9-10.3 16.3h-1.3l2.8-25.1 6.2 3.2-1.8-10.6 7.7-7.5-10.6-1.5-4.8-9.6-4.8 9.6L61.7 60l7.7 7.5-1.8 10.6 6.2-3.2 2.8 25.1h-1.3c-1.6-7.3-5.6-13-10.3-16.3l4.2-2.1-7.3-3.6-1.2-8.1-5.7 5.8-8-1.4 3.8 7.2-3.8 7.2 8-1.4 5.7 5.8.8-5.3c4.9 2.2 9.4 6.3 12.4 12.1h-3.4v2.8h-1.7v2.8h17v-2.8h-1.7v-2.8h-3.9c3-5.8 7.6-9.9 12.4-12.1l.8 5.3 5.7-5.8 8 1.4-3.8-7.2 3.9-7.2z"/><path class="st3" d="M107 74.1l-8 1.4-5.7-5.8-1.2 8.1-7.3 3.6 4.2 2.1c-4.7 3.4-8.7 9-10.3 16.3h-1.3l2.8-25.1 6.2 3.2-1.8-10.6 7.7-7.5-10.6-1.5-4.8-9.6-4.8 9.6-10.6 1.5 7.7 7.5-1.8 10.6 6.2-3.2 2.8 25.1h-1.3c-1.6-7.3-5.6-13-10.3-16.3l4.2-2.1-7.3-3.6-1.2-8.1-5.7 5.8-8-1.4 3.8 7.2-3.8 7.2 8-1.4 5.7 5.8.8-5.3c4.9 2.2 9.4 6.3 12.4 12.1h-3.4v2.8h-1.7v2.8h17v-2.8h-1.7v-2.8H80c3-5.8 7.6-9.9 12.4-12.1l.8 5.3 5.7-5.8 8 1.4-3.8-7.2 3.9-7.2z"/><path class="st3" d="M106.8 73.9l-8 1.4-5.7-5.8-1.2 8.1-7.3 3.4 4.2 2.1c-4.7 3.4-8.7 9-10.3 16.3h-1.3l2.8-25 6.2 3.2L84.4 67l7.7-7.5L81.4 58l-4.8-9.6-4.7 9.6-10.6 1.5L69 67l-1.8 10.6 6.2-3.2 2.8 25.1h-1.3c-1.6-7.3-5.6-13-10.3-16.3l4.2-2.1-7.3-3.6-1.2-8.1-5.7 5.8-8-1.4 3.8 7.2-3.8 7.2 8-1.4 5.7 5.8.8-5.3c4.9 2.2 9.4 6.3 12.4 12.1h-3.4v2.8h-1.7v2.8h17v-2.8h-1.7v-2.8h-3.9c3-5.8 7.6-9.9 12.4-12.1l.8 5.3 5.7-5.8 8 1.4-3.8-7.2 3.9-7.1z"/><path class="st3" d="M106.5 73.6l-8 1.4-5.7-5.8-1.2 8.1-7.3 3.6 4.2 2.1c-4.7 3.4-8.7 9-10.3 16.3H77l2.8-25.1 6.2 3.2-1.8-10.6 7.7-7.5-10.6-1.5-4.8-9.6-4.8 9.6-10.6 1.5 7.7 7.5L67 77.4l6.2-3.2L76 99.3h-1.3c-1.6-7.3-5.6-13-10.3-16.3l4.2-2.1-7.3-3.6-1.2-8.1-5.7 5.8-8-1.4 3.8 7.2-3.8 7.2 8-1.4 5.7 5.8.8-5.3c4.9 2.2 9.4 6.3 12.4 12.1h-3.4v2.8h-1.7v2.8h17V102h-1.7v-2.8h-3.9c3-5.8 7.6-9.9 12.4-12.1l.8 5.3 5.7-5.8 8 1.4-3.8-7.2 3.8-7.2z"/><path class="st3" d="M106.3 73.4l-8 1.4-5.7-5.8-1.2 8-7.3 3.6 4.2 2.1c-4.7 3.4-8.7 9-10.3 16.3h-1.3l2.8-25.1 6.2 3.2-1.8-10.6 7.7-7.5L81 57.5l-4.8-9.6-4.8 9.6L60.8 59l7.7 7.5-1.8 10.6 6.2-3.2L75.7 99h-1.3c-1.6-7.3-5.6-13-10.3-16.3l4.2-2.1L61 77l-1.2-8.1-5.7 5.8-8-1.4 3.8 7.2-3.8 7.2 8-1.4 5.7 5.8.8-5.3C65.5 89 70 93.1 73 98.9h-3.4v2.8H68v2.8h17v-2.8h-1.7V99h-3.9c3-5.8 7.6-9.9 12.4-12.1l.8 5.3 5.7-5.8 8 1.4-3.8-7.2 3.8-7.2z"/><path class="st3" d="M106.1 73.2l-8 1.4-5.7-5.8-1.2 8.1-7.3 3.6 4.2 2.1c-4.7 3.4-8.7 9-10.3 16.3h-1.3l2.8-25.1 6.2 3.2-1.8-10.6 7.7-7.5-10.6-1.5-4.8-9.7-4.8 9.6-10.6 1.5 7.7 7.5L66.5 77l6.2-3.2 2.8 25.1h-1.3c-1.6-7.3-5.6-13-10.3-16.3l4.2-2.1-7.3-3.6-1.2-8.1-5.6 5.7-8-1.4 3.8 7.2-3.8 7.2 8-1.4 5.7 5.8.8-5.3c4.9 2.2 9.4 6.3 12.4 12.1h-3.4v2.8h-1.7v2.8h16.9v-2.8H83v-2.8h-3.9c3-5.8 7.6-9.9 12.4-12.1l.8 5.3 5.7-5.8 8 1.4-3.8-7.2 3.9-7.1z"/><path class="st3" d="M105.9 72.9l-8 1.4-5.7-5.8-1.2 8-7.3 3.6 4.2 2.1c-4.7 3.4-8.7 9-10.3 16.3h-1.3l2.8-25.1 6.2 3.2L83.5 66l7.7-7.5L80.6 57l-4.8-9.6-4.8 9.7-10.6 1.5 7.7 7.5-1.8 10.6 6.2-3.2 2.8 25.1H74c-1.6-7.3-5.6-13-10.3-16.3l4.2-2.1-7.3-3.6-1.2-8.1-5.7 5.8-8-1.4 3.8 7.2-3.8 7.2 8-1.4 5.7 5.8.8-5.3c4.9 2.2 9.4 6.3 12.4 12.1h-3.4v2.8h-1.7v2.8h17v-2.8h-1.7v-2.8h-3.9c3-5.8 7.6-9.9 12.4-12.1l.8 5.3 5.7-5.8 8 1.4-3.8-7.2 3.9-7.2z"/><path class="st3" d="M105.6 72.7l-8 1.4-5.7-5.8-1.2 8.1-7.3 3.6 4.2 2.1C83 85.4 79 91 77.4 98.3h-1.3l2.8-25.1 6.2 3.2-1.8-10.6 7.7-7.5-10.6-1.5-4.8-9.6-4.8 9.6-10.6 1.5 7.7 7.5L66 76.5l6.2-3.2 2.8 25h-1.3c-1.6-7.3-5.6-13-10.3-16.3l4.2-2.1-7.3-3.6-1.2-8.1-5.7 5.8-8-1.4 3.8 7.2-3.8 7.2 8-1.4 5.7 5.8.8-5.3c4.9 2.2 9.4 6.3 12.4 12.1H69v2.8h-1.7v2.8h17V101h-1.7v-2.8h-3.9c3-5.8 7.6-9.9 12.4-12.1l.8 5.3 5.7-5.8 8 1.4-3.8-7.2 3.8-7.1z"/><path class="st3" d="M105.4 72.5l-8 1.4-5.7-5.9-1.2 8.1-7.3 3.6 4.2 2.1c-4.7 3.4-8.7 9-10.3 16.3h-1.3L78.7 73l6.2 3.2L83 65.7l7.7-7.5-10.6-1.5-4.8-9.7-4.8 9.6-10.6 1.5 7.7 7.5-1.8 10.6L72 73l2.8 25.1h-1.3c-1.6-7.3-5.6-13-10.3-16.3l4.2-2.1-7.3-3.6-1.2-8.1-5.7 5.8-8-1.4 3.8 7.2-3.8 7.2 8-1.4 5.7 5.8.8-5.3c4.9 2.2 9.4 6.3 12.4 12.1h-3.4v2.8H67v2.8h17v-2.8h-1.7V98h-3.9c3-5.8 7.6-9.9 12.4-12.1l.8 5.3 5.7-5.8 8 1.4-3.8-7.2 3.9-7.1z"/><path class="st3" d="M105.2 72.3l-8 1.4-5.7-5.8-1.2 8.1-7.3 3.5 4.2 2.1c-4.7 3.4-8.7 9-10.3 16.3h-1.3l2.8-25.1 6.2 3.2-1.8-10.6 7.7-7.5-10.6-1.5-4.8-9.6-4.8 9.6L59.7 58l7.7 7.5-1.8 10.6 6.2-3.2L74.6 98h-1.3c-1.6-7.3-5.6-13-10.3-16.3l4.2-2.1-7.3-3.6-1.2-8.1-5.7 5.7-8-1.4 3.8 7.2-3.8 7.3 8-1.4 5.7 5.8.8-5.3c4.9 2.2 9.4 6.3 12.4 12.1h-3.4v2.8h-1.7v2.8h17v-2.8h-1.7v-2.8h-3.9c3-5.8 7.6-9.9 12.4-12.1l.8 5.3 5.7-5.8 8 1.4-3.8-7.2 3.9-7.2z"/><path class="st3" d="M105 72l-8 1.4-5.7-5.8-1.2 8.1-7.3 3.6 4.2 2.1c-4.7 3.4-8.7 9-10.3 16.3h-1.3l2.8-25.1 6.2 3.2-1.8-10.6 7.7-7.5-10.6-1.5-4.8-9.6-4.8 9.6-10.6 1.5 7.7 7.5-1.8 10.6 6.2-3.2 2.8 25.1h-1.3c-1.6-7.3-5.6-13-10.3-16.3l4.2-2.1-7.3-3.6-1.2-8.1-5.7 5.8-8-1.4 3.8 7.2-3.8 7.2 8-1.4 5.7 5.8.8-5.3c4.9 2.2 9.4 6.3 12.4 12.1h-3.4v2.8h-1.7v2.8h17v-2.8h-1.7v-2.8H78c3-5.8 7.6-9.9 12.4-12.1l.8 5.3 5.7-5.8 8 1.4-3.8-7.2L105 72z"/><path class="st3" d="M104.7 71.8l-8 1.4-5.7-5.9-1.2 8.1-7.2 3.6 4.2 2.1c-4.7 3.4-8.7 9-10.3 16.3h-1.3l2.8-25 6.2 3.2L82.3 65l7.7-7.5L79.4 56l-4.8-9.6-4.7 9.6-10.6 1.5L67 65l-1.8 10.6 6.2-3.2 2.8 25.1h-1.3c-1.6-7.3-5.6-13-10.3-16.3l4.2-2.1-7.3-3.6-1.2-8.1-5.7 5.8-8-1.4 3.8 7.2-3.8 7.2 8-1.4 5.7 5.8.8-5.3c4.9 2.2 9.4 6.3 12.4 12.1h-3.4v2.8h-1.7v2.8h17v-2.8h-1.7v-2.8h-3.9c3-5.8 7.6-9.9 12.4-12.1l.8 5.3 5.7-5.8 8 1.4-3.8-7.2 3.8-7.2z"/><path class="st3" d="M104.5 71.6l-8 1.4-5.7-5.8-1.2 8.1-7.3 3.6 4.2 2.1c-4.7 3.4-8.7 9-10.3 16.3H75l2.8-25.1 6.2 3.2-1.8-10.6 7.7-7.5-10.6-1.5-4.8-9.6-4.8 9.6L59 57.3l7.7 7.5-1.8 10.6 6.2-3.2 2.8 25.1h-1.3C71 90 67 84.3 62.3 81l4.2-2.1-7.3-3.6-1.2-8.2-5.6 5.9-8-1.4 3.8 7.2-3.8 7.2 8-1.4 5.7 5.8.8-5.3c4.9 2.2 9.4 6.3 12.4 12.1h-3.4v2.8h-1.7v2.8h17V100h-1.7v-2.8h-3.9c3-5.8 7.6-9.9 12.4-12.1l.8 5.3 5.7-5.8 8 1.4-3.8-7.2 3.8-7.2z"/><path class="st3" d="M104.3 71.4l-8 1.4-5.7-5.8-1.2 8.1-7.3 3.6 4.2 2.1C81.6 84 77.6 89.7 76 97h-1.3l2.8-25.1 6.2 3.2-1.8-10.6 7.7-7.5L79 55.5l-4.8-9.6-4.8 9.6L58.8 57l7.7 7.5-1.8 10.6 6.2-3.2L73.7 97h-1.3c-1.6-7.3-5.6-13-10.3-16.3l4.2-2.1-7.3-3.7-1.2-8.1-5.7 5.8-8-1.4 3.8 7.2-3.8 7.2 8-1.4 5.7 5.8.8-5.3C63.5 86.9 68 91 71 96.8h-3.4v2.8H66v2.8h17v-2.8h-1.7V97h-3.9c3-5.8 7.6-9.9 12.4-12.1l.8 5.3 5.7-5.8 8 1.4-3.8-7.2 3.8-7.2z"/><path class="st3" d="M104 71.1l-8 1.4-5.7-5.8-1.2 8.1-7.3 3.6 4.2 2.1c-4.7 3.4-8.7 9-10.3 16.3h-1.3l2.8-25.1 6.2 3.2-1.8-10.6 7.7-7.5-10.6-1.5-4.7-9.7-4.8 9.6-10.6 1.5 7.7 7.5-1.8 10.6 6.2-3.2 2.8 25.1h-1.3c-1.6-7.3-5.6-13-10.3-16.3l4.2-2.1-7.3-3.6-1.2-8.1-5.7 5.8-8-1.4 3.8 7.2-3.8 7.2 8-1.4 5.7 5.8.8-5.3c4.9 2.2 9.4 6.3 12.4 12.1h-3.4v2.8h-1.7v2.8h17v-2.8H81v-2.8h-3.9c3-5.8 7.6-9.9 12.4-12.1l.8 5.3L96 84l8 1.4-3.8-7.2 3.8-7.1z"/><path class="st3" d="M103.8 70.9l-8 1.4-5.7-5.8-1.2 8.1-7.3 3.6 4.2 2.1c-4.7 3.4-8.7 9-10.3 16.3h-1.3L77 71.5l6.2 3.2-1.8-10.6 7.7-7.5-10.6-1.5-4.8-9.6-4.7 9.6-10.6 1.5 7.7 7.5-1.8 10.6 6.2-3.2 2.8 25.1H72c-1.6-7.3-5.6-13-10.3-16.3l4.2-2.1-7.3-3.6-1.2-8.1-5.7 5.8-8-1.4 3.8 7.2-3.8 7.2 8-1.4 5.7 5.8.8-5.3c4.9 2.2 9.4 6.3 12.4 12.1h-3.4v2.8h-1.7v2.8h17v-2.8h-1.7v-2.8h-3.9c3-5.8 7.6-9.9 12.4-12.1l.8 5.3 5.7-5.8 8 1.4-3.8-7.2 3.8-7.2z"/><path class="st3" d="M103.6 70.7l-8 1.4-5.7-5.8-1.2 8.1-7.3 3.6 4.2 2.1c-4.7 3.4-8.7 9-10.3 16.3H74l2.8-25.1 6.2 3.2-1.8-10.6 7.7-7.5-10.6-1.5-4.8-9.6-4.8 9.6-10.6 1.5 7.7 7.5L64 74.5l6.2-3.2 2.8 25h-1.3c-1.6-7.3-5.6-13-10.3-16.3l4.2-2.1-7.3-3.6-1.2-8.1-5.6 5.8-8-1.4 3.8 7.2-3.8 7.2 8-1.4 5.7 5.8.8-5.3c4.9 2.2 9.4 6.3 12.4 12.1H67V99h-1.7v2.8h17V99h-1.7v-2.8h-3.9c3-5.8 7.6-9.9 12.4-12.1l.8 5.3 5.7-5.8 8 1.4-3.8-7.2 3.8-7.1z"/><path class="st3" d="M103.4 70.5l-8 1.4-5.7-5.9-1.2 8-7.3 3.6 4.2 2.1c-4.7 3.4-8.7 9-10.3 16.3h-1.3l2.8-25 6.2 3.2L81 63.6l7.7-7.5L78 54.6 73.3 45l-4.8 9.6-10.6 1.5 7.7 7.5-1.8 10.6L70 71l2.8 25.1h-1.3c-1.6-7.3-5.6-13-10.3-16.3l4.2-2.1-7.3-3.7-1.2-8-5.7 5.8-8-1.4 3.8 7.2-3.8 7.2 8-1.4 5.7 5.8.8-5.3c4.9 2.2 9.4 6.3 12.4 12.1h-3.4v2.8H65v2.8h17v-2.8h-1.7V96h-3.9c3-5.8 7.6-9.9 12.4-12.1l.8 5.3 5.7-5.8 8 1.4-3.8-7.2 3.9-7.1z"/><path class="st3" d="M103.1 70.2l-8 1.4-5.7-5.8-1.2 8.1-7.2 3.5 4.2 2.1c-4.7 3.4-8.7 9-10.3 16.3h-1.3l2.8-25.1 6.2 3.2-1.8-10.6 7.7-7.5-10.6-1.5-4.8-9.6-4.8 9.6-10.6 1.5 7.7 7.5L63.5 74l6.2-3.2 2.8 25.1h-1.3c-1.6-7.3-5.6-13-10.3-16.3l4.2-2.1-7.3-3.6-1.2-8.1-5.6 5.8-8-1.4 3.8 7.2-3.8 7.2 8-1.4 5.7 5.8.8-5.3c4.9 2.2 9.4 6.3 12.4 12.1h-3.4v2.8h-1.7v2.8h17v-2.8h-1.7v-2.8h-3.9c3-5.8 7.6-9.9 12.4-12.1l.8 5.3 5.7-5.8 8 1.4-3.8-7.2 3.8-7.2z"/><path class="st3" d="M102.9 70l-8 1.4-5.7-5.8-1.2 8-7.3 3.6 4.2 2.1c-4.7 3.4-8.7 9-10.3 16.3h-1.3l2.8-25.1 6.2 3.2-1.8-10.6 7.7-7.5-10.6-1.5-4.8-9.6-4.8 9.6-10.6 1.5 7.7 7.5-1.8 10.6 6.2-3.2 2.8 25.1H71c-1.6-7.3-5.6-13-10.3-16.3l4.2-2.1-7.3-3.6-1.2-8.1-5.7 5.8-8-1.4 3.8 7.2-3.8 7.2 8-1.4 5.7 5.8.8-5.3c4.9 2.2 9.4 6.3 12.4 12.1h-3.4v2.8h-1.7v2.8h17v-2.8h-1.7v-2.8H76c3-5.8 7.6-9.9 12.4-12.1l.8 5.3 5.7-5.8 8 1.4-3.8-7.2 3.8-7.1z"/><path class="st3" d="M102.7 69.8l-8 1.4-5.7-5.9-1.2 8.1-7.3 3.6 4.2 2.1c-4.7 3.4-8.7 9-10.3 16.3h-1.3L76 70.3l6.2 3.2L80.3 63l7.7-7.5L77.4 54l-4.8-9.6-4.8 9.6-10.6 1.5 7.7 7.5-1.8 10.6 6.2-3.2 2.8 25.1h-1.3c-1.6-7.3-5.6-13-10.3-16.3l4.2-2.1-7.3-3.6-1.2-8.1-5.7 5.8-8-1.4 3.8 7.2-3.8 7.2 8-1.4 5.7 5.8.8-5.3c4.9 2.2 9.4 6.3 12.4 12.1H66v2.8h-1.7v2.8h17v-2.8h-1.7v-2.8h-3.9c3-5.8 7.6-9.9 12.4-12.1l.8 5.3 5.7-5.8 8 1.4-3.7-7.2 3.8-7.2z"/><path class="st3" d="M102.5 69.5l-8 1.4-5.7-5.8-1.2 8.1-7.3 3.6 4.2 2.1c-4.7 3.4-8.7 9-10.3 16.3h-1.3l2.8-25.1 6.2 3.2-1.8-10.6 7.7-7.5-10.6-1.5-4.8-9.6-4.8 9.6L57 55.2l7.7 7.5-1.8 10.6 6.2-3.2 2.8 25.1h-1.3c-1.6-7.3-5.6-13-10.3-16.3l4.2-2.1-7.3-3.6-1.2-8.1-5.7 5.8-8-1.4 3.8 7.2-3.8 7.3 8-1.4 5.7 5.8.8-5.3c4.9 2.2 9.4 6.3 12.4 12.1h-3.4V98h-1.7v2.8h17V98h-1.7v-2.8h-3.9c3-5.8 7.6-9.9 12.4-12.1l.8 5.3 5.7-5.8 8 1.4-3.8-7.2 3.9-7.3z"/><path class="st3" d="M102.2 69.3l-8 1.4-5.7-5.8-1.2 8.1-7.3 3.6 4.2 2.1c-4.7 3.4-8.7 9-10.3 16.3h-1.3l2.8-25.1 6.2 3.2-1.8-10.6 7.7-7.5-10.6-1.5-4.8-9.6-4.8 9.6L56.8 55l7.7 7.5-1.8 10.6 6.2-3.2L71.7 95h-1.3c-1.6-7.3-5.6-13-10.3-16.3l4.2-2.1-7.3-3.7-1.2-8.1-5.7 5.8-8-1.4 3.8 7.2-3.8 7.2 8-1.4 5.7 5.8.8-5.3C61.4 85 66 89.2 69 94.9h-3.4v2.8h-1.7v2.8h17v-2.8h-1.7v-2.8h-3.9c3-5.8 7.6-9.9 12.4-12.1l.8 5.3 5.7-5.8 8 1.4-3.8-7.2 3.8-7.2z"/><path class="st3" d="M102 69.1l-8 1.4-5.7-5.8-1.2 8.1-7.3 3.6 4.2 2.1c-4.7 3.4-8.7 9-10.3 16.3h-1.3l2.8-25.1 6.2 3.2-1.8-10.6 7.7-7.5-10.6-1.5-4.8-9.6-4.8 9.6-10.6 1.5 7.7 7.5-1.8 10.6 6.2-3.2 2.8 25.1h-1.3c-1.6-7.3-5.6-13-10.3-16.3l4.2-2.1-7.3-3.6-1.2-8.1-5.7 5.8-8-1.4 3.8 7.2-3.8 7.2 8-1.4 5.7 5.8.8-5.3c4.9 2.2 9.4 6.3 12.4 12.1h-3.4v2.8h-1.7v2.8h17.1v-2.8H79v-2.8h-3.9c3-5.8 7.6-9.9 12.4-12.1l.8 5.3 5.7-5.8 8 1.4-3.8-7.2 3.8-7.2z"/><path class="st3" d="M101.8 68.9l-8 1.4-5.7-5.8-1.2 8.1-7.3 3.6 4.2 2.1c-4.7 3.4-8.7 9-10.3 16.3h-1.3L75 69.5l6.2 3.2-1.8-10.6 7.7-7.5L76.5 53l-4.8-9.6-4.8 9.6-10.6 1.5L64 62l-1.8 10.6 6.2-3.2 2.8 25.1h-1.3c-1.6-7.3-5.6-13-10.3-16.3l4.2-2.1-7.3-3.6-1.2-8.1-5.7 5.8-8-1.4 3.8 7.2-3.8 7.2 8-1.4 5.7 5.8.8-5.3c4.9 2.2 9.4 6.3 12.4 12.1h-3.4v2.8h-1.7v2.8h17v-2.8h-1.7v-2.8h-3.9c3-5.8 7.6-9.9 12.4-12.1l.8 5.3 5.7-5.8 8 1.4-3.7-7.1 3.8-7.2z"/><path class="st3" d="M101.6 68.6l-8 1.4-5.7-5.8-1.2 8.1-7.3 3.6 4.2 2.1c-4.7 3.4-8.7 9-10.3 16.3H72l2.8-25.1 6.2 3.2-1.8-10.6 7.7-7.5-10.6-1.5-4.8-9.6-4.8 9.6-10.6 1.5 7.7 7.5L62 72.4l6.2-3.2L71 94.3h-1.3C68 87 64 81.3 59.3 77.9l4.2-2.1-7.3-3.6-1.2-8.1-5.6 5.9-8-1.4 3.8 7.2-3.8 7.2 8-1.4 5.7 5.8.8-5.3c4.9 2.2 9.4 6.3 12.4 12.1h-3.4V97h-1.7v2.8h17V97h-1.7v-2.8h-3.9c3-5.8 7.6-9.9 12.4-12.1l.8 5.3 5.7-5.8 8 1.4-3.8-7.2 3.9-7.2z"/><path class="st3" d="M101.3 68.4l-8 1.4-5.7-5.8-1.1 8-7.3 3.6 4.2 2.1c-4.7 3.4-8.7 9-10.3 16.3h-1.3l2.8-25 6.2 3.2L79 61.6l7.7-7.5L76 52.6 71.2 43l-4.8 9.6-10.6 1.5 7.7 7.5-1.8 10.6 6.2-3.2 2.8 25h-1.3c-1.6-7.3-5.6-13-10.3-16.3l4.2-2.1L56 72l-1.1-8-5.7 5.8-8-1.4 3.8 7.2-3.8 7.2 8-1.4 5.7 5.8.8-5.3c4.9 2.2 9.4 6.3 12.4 12.1h-3.4v2.8H63v2.8h17v-2.8h-1.7V94h-3.9c3-5.8 7.6-9.9 12.4-12.1l.8 5.3 5.7-5.8 8 1.4-3.8-7.2 3.8-7.2z"/><path class="st3" d="M101.1 68.2l-8 1.4-5.7-5.8-1.2 8.1-7.3 3.6 4.2 2.1c-4.7 3.4-8.7 9-10.3 16.3h-1.3l2.8-25.1 6.2 3.2-1.8-10.6 7.7-7.5-10.6-1.5-4.8-9.7-4.8 9.6-10.6 1.5 7.7 7.5L61.5 72l6.2-3.2 2.8 25.1h-1.3c-1.6-7.3-5.6-13-10.3-16.3l4.2-2.1-7.3-3.6-1.2-8.1-5.6 5.8-8-1.4 3.8 7.2-3.8 7.2 8-1.4 5.7 5.8.8-5.3c4.9 2.2 9.4 6.3 12.4 12.1h-3.4v2.8h-1.7v2.8h17v-2.8h-1.7v-2.8h-3.9c3-5.8 7.6-9.9 12.4-12.1l.8 5.3 5.7-5.8 8 1.4-3.8-7.2 3.8-7.2z"/><path class="st3" d="M100.9 68l-8 1.4-5.7-5.8-1.2 8-7.3 3.6 4.2 2.1c-4.7 3.4-8.7 9-10.3 16.3h-1.3l2.8-25.1 6.2 3.2-1.8-10.6 7.7-7.5-10.6-1.5-4.8-9.6-4.8 9.6-10.6 1.5 7.7 7.5-1.8 10.6 6.2-3.2 2.8 25.1H69c-1.6-7.3-5.6-13-10.3-16.3l4.2-2.1-7.3-3.6-1.2-8.1-5.7 5.8-8-1.4 3.8 7.2-3.8 7.2 8-1.4 5.7 5.8.8-5.3c4.9 2.2 9.4 6.3 12.4 12.1h-3.4v2.8h-1.7v2.8h17v-2.8h-1.7v-2.8h-3.9c3-5.8 7.6-9.9 12.4-12.1l.8 5.3 5.7-5.8 8 1.4-3.8-7.2 3.9-7.1z"/><path class="st3" d="M100.7 67.7l-8 1.4-5.7-5.8-1.2 8.1-7.3 3.6 4.2 2.1c-4.7 3.4-8.7 9-10.3 16.3h-1.3l2.8-25.1 6.2 3.2-1.8-10.6 7.7-7.5-10.6-1.5-4.8-9.6-4.8 9.6-10.6 1.5 7.7 7.5-1.8 10.6 6.2-3.2L70 93.4h-1.3c-1.6-7.3-5.6-13-10.3-16.3l4.2-2.1-7.3-3.6-1.2-8.1-5.7 5.8-8-1.4 3.8 7.2-3.8 7.2 8-1.4 5.7 5.8.8-5.3c4.9 2.2 9.4 6.3 12.4 12.1H64v2.8h-1.7v2.8h17v-2.8h-1.7v-2.8h-3.9c3-5.8 7.6-9.9 12.4-12.1l.8 5.3 5.7-5.8 8 1.4-3.8-7.2 3.9-7.2z"/><path class="st3" d="M100.4 67.5l-8 1.4-5.7-5.9-1.2 8.1-7.3 3.6 4.2 2.1c-4.7 3.4-8.7 9-10.3 16.3h-1.3L73.6 68l6.2 3.2L78 60.7l7.7-7.5-10.6-1.5-4.8-9.7-4.8 9.6L55 53.2l7.7 7.5-1.8 10.6 6.2-3.2 2.8 25.1h-1.3c-1.6-7.3-5.6-13-10.3-16.3l4.2-2.1-7.3-3.6L54 63l-5.7 5.8-8-1.4 3.8 7.2-3.8 7.2 8-1.4 5.7 5.8.8-5.3c4.9 2.2 9.4 6.3 12.4 12.1h-3.4v2.8h-1.7v2.8H79v-2.8h-1.7V93h-3.9c3-5.8 7.6-9.9 12.4-12.1l.8 5.3 5.7-5.8 8 1.4-3.8-7.2 3.9-7.1z"/><path class="st3" d="M100.2 67.3l-8 1.4-5.7-5.8-1.2 8.1-7.3 3.5 4.2 2.1c-4.7 3.4-8.7 9-10.3 16.3h-1.3l2.8-25.1 6.2 3.2-1.8-10.6 7.7-7.5-10.6-1.5-4.8-9.6-4.8 9.6L54.7 53l7.7 7.5-1.8 10.6 6.2-3.2L69.6 93h-1.3c-1.6-7.3-5.6-13-10.3-16.3l4.2-2.1-7.3-3.6-1.2-8.1-5.7 5.8-8-1.4 3.8 7.2-3.8 7.2 8-1.4 5.7 5.8.8-5.3c4.9 2.2 9.4 6.3 12.4 12.1h-3.4v2.8h-1.7v2.8h17v-2.8h-1.7v-2.8h-3.9c3-5.8 7.6-9.9 12.4-12.1l.8 5.3 5.7-5.8 8 1.4-3.8-7.2 3.9-7.2z"/><path class="st3" d="M100 67.1l-8 1.4-5.7-5.8-1.2 8.1-7.3 3.6 4.2 2.1c-4.7 3.4-8.7 9-10.3 16.3h-1.3l2.8-25.1 6.2 3.2-1.8-10.6 7.7-7.5-10.6-1.5-4.8-9.6-4.8 9.6-10.6 1.5 7.7 7.5-1.8 10.6 6.2-3.2 2.8 25.1h-1.3c-1.6-7.3-5.6-13-10.3-16.3l4.2-2.1-7.3-3.6-1.2-8.1-5.7 5.8-8-1.4 3.8 7.2-3.8 7.2 8-1.4 5.7 5.8.8-5.3c4.9 2.2 9.4 6.3 12.4 12.1h-3.4v2.8h-1.7v2.8h17v-2.8h-1.7v-2.8H73c3-5.8 7.6-9.9 12.4-12.1l.8 5.3 5.7-5.8 8 1.4-3.8-7.2 3.9-7.2z"/><path class="st3" d="M99.7 66.8l-8 1.4-5.7-5.8-1.2 8.1-7.2 3.5 4.2 2.1c-4.7 3.4-8.7 9-10.3 16.3h-1.3l2.8-25 6.2 3.2L77.4 60l7.7-7.5L74.4 51l-4.8-9.6-4.7 9.6-10.6 1.5L62 60l-1.8 10.6 6.2-3.2 2.8 25.1h-1.3c-1.6-7.3-5.6-13-10.3-16.3l4.2-2.1-7.3-3.6-1.2-8.1-5.7 5.8-8-1.4 3.8 7.2-3.8 7.2 8-1.4 5.7 5.8.8-5.3c4.9 2.2 9.4 6.3 12.4 12.1h-3.4v2.8h-1.7V98h17v-2.8h-1.7v-2.8h-3.9c3-5.8 7.6-9.9 12.4-12.1l.8 5.3 5.7-5.8 8 1.4L96 74l3.7-7.2z"/><path class="st3" d="M99.5 66.6l-8 1.4-5.7-5.8-1.2 8.1-7.3 3.6 4.2 2.1c-4.7 3.4-8.7 9-10.3 16.3H70l2.8-25.1 6.2 3.2-1.8-10.6 7.7-7.5-10.6-1.5-4.8-9.6-4.8 9.6L54 52.3l7.7 7.5-1.8 10.6 6.2-3.2 2.8 25.1h-1.3C66 85 62 79.3 57.3 76l4.2-2.1-7.3-3.6-1.2-8.1-5.6 5.8-8-1.4 3.8 7.2-3.8 7.2 8-1.4 5.7 5.8.8-5.3c4.9 2.2 9.4 6.3 12.4 12.1h-3.4V95h-1.7v2.8h17V95h-1.7v-2.8h-3.9c3-5.8 7.6-9.9 12.4-12.1l.8 5.3 5.7-5.8 8 1.4-3.8-7.2 3.8-7.2z"/><path class="st3" d="M99.3 66.4l-8 1.4-5.7-5.8-1.2 8-7.3 3.6 4.2 2.1C76.7 79 72.6 84.7 71 92h-1.3l2.8-25.1 6.2 3.2-1.8-10.6 7.7-7.5L74 50.5l-4.8-9.6-4.8 9.6L53.8 52l7.7 7.5-1.8 10.6 6.2-3.2L68.7 92h-1.3c-1.6-7.3-5.6-13-10.3-16.3l4.2-2.1L54 70l-1.2-8.1-5.7 5.8-8-1.4 3.8 7.2-3.8 7.2 8-1.4 5.7 5.8.8-5.3C58.5 82 63 86.1 66 91.9h-3.4v2.8H61v2.8h17v-2.8h-1.7V92h-3.9c3-5.8 7.6-9.9 12.4-12.1l.8 5.3 5.7-5.8 8 1.4-3.8-7.2 3.8-7.2z"/><path class="st3" d="M99.1 66.2l-8 1.4-5.7-5.8-1.2 8.1-7.3 3.6 4.2 2.1c-4.7 3.4-8.7 9-10.3 16.3h-1.3l2.8-25.1 6.2 3.2-1.8-10.6 7.7-7.5-10.6-1.5-4.8-9.7-4.8 9.6-10.6 1.5 7.7 7.5-1.8 10.6 6.2-3.2 2.8 25.1h-1.3c-1.6-7.3-5.6-13-10.3-16.3l4.2-2.1-7.3-3.6-1.2-8.1-5.7 5.8-8-1.4 3.8 7.2-3.8 7.2 8-1.4 5.7 5.8.8-5.3c4.9 2.2 9.4 6.3 12.4 12.1h-3.4v2.8h-1.7v2.8h17v-2.8H76v-2.8h-3.9c3-5.8 7.6-9.9 12.4-12.1l.8 5.3 5.7-5.8 8 1.4-3.8-7.2 3.9-7.1z"/><path class="st3" d="M98.8 65.9l-8 1.4-5.7-5.8-1.1 8-7.3 3.6 4.2 2.1c-4.7 3.4-8.7 9-10.3 16.3h-1.3l2.8-25.1 6.2 3.2L76.5 59l7.7-7.5L73.6 50l-4.8-9.6-4.8 9.7-10.6 1.5 7.7 7.5-1.8 10.6 6.2-3.2 2.8 25.1H67c-1.6-7.3-5.6-13-10.3-16.3l4.2-2.1-7.3-3.6-1.2-8.1-5.7 5.8-8-1.4 3.8 7.2-3.8 7.2 8-1.4 5.7 5.8.8-5.3c4.9 2.2 9.4 6.3 12.4 12.1h-3.4v2.8h-1.7v2.8h17v-2.8h-1.7v-2.8h-3.9c3-5.8 7.6-9.9 12.4-12.1l.8 5.3 5.7-5.8 8 1.4-3.8-7.2 3.8-7.2z"/><path class="st3" d="M98.6 65.7l-8 1.4-5.7-5.8-1.2 8.1-7.3 3.6 4.2 2.1C76 78.4 72 84 70.3 91.3H69l2.8-25.1 6.2 3.2-1.8-10.6 7.7-7.5-10.6-1.5-4.8-9.6-4.8 9.6-10.6 1.5 7.7 7.5L59 69.5l6.2-3.2 2.8 25h-1.3c-1.6-7.3-5.6-13-10.3-16.3l4.2-2.1-7.3-3.6-1.2-8.1-5.7 5.8-8-1.4 3.8 7.2-3.8 7.2 8-1.4 5.7 5.8.8-5.3c4.9 2.2 9.4 6.3 12.4 12.1H62V94h-1.7v2.8h17V94h-1.7v-2.8h-3.9c3-5.8 7.6-9.9 12.4-12.1l.8 5.3 5.7-5.8 8 1.4-3.8-7.2 3.8-7.1z"/><path class="st3" d="M98.4 65.5l-8 1.4-5.7-5.9-1.2 8.1-7.3 3.6 4.2 2.1c-4.7 3.4-8.7 9-10.3 16.3h-1.3L71.7 66l6.2 3.2L76 58.7l7.7-7.5-10.6-1.5-4.8-9.7-4.8 9.6-10.6 1.5 7.7 7.5-1.8 10.6L65 66l2.8 25.1h-1.3c-1.6-7.3-5.6-13-10.3-16.3l4.2-2.1-7.3-3.6-1.2-8.1-5.7 5.8-8-1.4 3.8 7.2-3.8 7.2 8-1.4 5.7 5.8.8-5.3c4.9 2.2 9.4 6.3 12.4 12.1h-3.4v2.8H60v2.8h17v-2.8h-1.7V91h-3.9c3-5.8 7.6-9.9 12.4-12.1l.8 5.3 5.7-5.8 8 1.4-3.8-7.2 3.9-7.1z"/><path class="st3" d="M98.2 65.2l-8 1.4-5.7-5.8-1.2 8.1-7.3 3.5 4.2 2.1c-4.7 3.4-8.7 9-10.3 16.3h-1.3l2.8-25.1 6.2 3.2-1.8-10.6 7.7-7.5-10.6-1.5-4.8-9.6-4.8 9.6-10.6 1.5 7.7 7.5L58.6 69l6.2-3.2 2.8 25.1h-1.3c-1.6-7.3-5.6-13-10.3-16.3l4.2-2.1-7.3-3.6-1.2-8.1-5.7 5.8-8-1.4 3.8 7.2-3.8 7.3 8-1.4 5.7 5.8.8-5.3c4.9 2.2 9.4 6.3 12.4 12.1h-3.4v2.8h-1.7v2.8h17v-2.8h-1.7v-2.8h-3.9c3-5.8 7.6-9.9 12.4-12.1l.8 5.3 5.7-5.8 8 1.4-3.8-7.2 3.9-7.3z"/><path class="st3" d="M97.9 65l-8 1.4-5.7-5.8-1.2 8.1-7.3 3.6 4.2 2.1c-4.7 3.4-8.7 9-10.3 16.3h-1.3l2.8-25.1 6.2 3.2-1.8-10.6 7.7-7.5-10.6-1.5-4.8-9.6-4.8 9.6-10.6 1.5 7.7 7.5-1.8 10.6 6.2-3.2 2.8 25.1H66c-1.6-7.3-5.6-13-10.3-16.3l4.2-2.1-7.3-3.6-1.2-8.1-5.7 5.8-8-1.4 3.8 7.2-3.8 7.2 8-1.4 5.7 5.8.8-5.3c4.9 2.2 9.4 6.3 12.4 12.1h-3.4v2.8h-1.7v2.8h17v-2.8h-1.7v-2.8H71c3-5.8 7.6-9.9 12.4-12.1l.8 5.3 5.7-5.8 8 1.4-3.8-7.2 3.8-7.2z"/><path class="st3" d="M97.7 64.8l-8 1.4-5.7-5.9-1.2 8.1-7.3 3.6 4.2 2.1c-4.7 3.4-8.7 9-10.3 16.3h-1.3L71 65.3l6.2 3.2L75.3 58l7.7-7.5L72.4 49l-4.8-9.6-4.8 9.6-10.6 1.5 7.7 7.5-1.8 10.6 6.2-3.2 2.8 25.1h-1.3c-1.6-7.3-5.6-13-10.3-16.3l4.2-2.1-7.3-3.6-1.2-8.1-5.7 5.8-8-1.4 3.8 7.2-3.8 7.2 8-1.4 5.7 5.8.8-5.3c4.9 2.2 9.4 6.3 12.4 12.1H61v2.8h-1.7V96h17v-2.8h-1.7v-2.8h-3.9c3-5.8 7.6-9.9 12.4-12.1l.8 5.3 5.7-5.8 8 1.4-3.7-7.2 3.8-7.2z"/><path class="st3" d="M97.5 64.6l-8 1.4-5.7-5.8-1.2 8.1-7.3 3.6 4.2 2.1c-4.7 3.4-8.7 9-10.3 16.3h-1.3l2.8-25.1 6.2 3.2-1.8-10.6 7.7-7.5-10.6-1.5-4.8-9.6-4.8 9.6L52 50.3l7.7 7.5-1.8 10.6 6.2-3.2 2.8 25.1h-1.3C64 83 60 77.3 55.3 74l4.2-2.1-7.3-3.6-1.2-8.2-5.7 5.8-8-1.4 3.8 7.2-3.8 7.3 8-1.4 5.7 5.8.8-5.3c4.9 2.2 9.4 6.3 12.4 12.1h-3.4V93h-1.7v2.8h17V93h-1.7v-2.8h-3.9c3-5.8 7.6-9.9 12.4-12.1l.8 5.3 5.7-5.8 8 1.4-3.8-7.2 3.9-7.2z"/><path class="st3" d="M97.3 64.3l-8 1.4-5.7-5.8-1.2 8.1-7.3 3.6 4.2 2.1C74.6 77 70.6 82.7 69 90h-1.3l2.8-25.1 6.2 3.2-1.8-10.6 7.7-7.5L72 48.5l-4.8-9.6-4.8 9.6L51.8 50l7.7 7.5-1.8 10.6 6.2-3.2L66.6 90h-1.3c-1.6-7.3-5.6-13-10.3-16.3l4.2-2.1-7.2-3.7-1.2-8.1-5.7 5.8-8-1.4 3.8 7.2-3.8 7.2 8-1.4 5.7 5.8.8-5.3C56.5 80.1 61 84.2 64 90h-3.4v2.8h-1.7v2.8h17v-2.8h-1.7V90h-3.9c3-5.8 7.6-9.9 12.4-12.1l.8 5.3 5.7-5.8 8 1.4-3.8-7.2 3.9-7.3z"/><path class="st3" d="M97 64.1l-8 1.4-5.7-5.8-1.2 8.1-7.3 3.6 4.2 2.1c-4.7 3.4-8.7 9-10.3 16.3h-1.3l2.8-25.1 6.2 3.2-1.8-10.6 7.7-7.5-10.6-1.5-4.8-9.6-4.8 9.6-10.6 1.5 7.7 7.5-1.8 10.6 6.2-3.2 2.8 25.1h-1.3c-1.6-7.3-5.6-13-10.3-16.3l4.2-2.1-7.3-3.6-1.2-8.1-5.7 5.8-8-1.4 3.8 7.2-3.8 7.2 8-1.4 5.7 5.8.8-5.3c4.9 2.2 9.4 6.3 12.4 12.1h-3.4v2.8h-1.7v2.8h17.1v-2.8H74v-2.8h-3.9c3-5.8 7.6-9.9 12.4-12.1l.8 5.3 5.7-5.8 8 1.4-3.8-7.2 3.8-7.2z"/><path class="st3" d="M96.8 63.9l-8 1.4-5.7-5.8-1.2 8.1-7.3 3.6 4.2 2.1c-4.7 3.4-8.7 9-10.3 16.3h-1.3L70 64.5l6.2 3.2-1.8-10.6 7.7-7.5L71.5 48l-4.8-9.6L62 48l-10.6 1.5 7.7 7.5-1.8 10.6 6.2-3.2 2.8 25.1H65c-1.6-7.3-5.6-13-10.3-16.3l4.2-2.1-7.3-3.6-1.2-8.1-5.7 5.8-8-1.4 3.8 7.2-3.8 7.2 8-1.4 5.7 5.8.8-5.3c4.9 2.2 9.4 6.3 12.4 12.1h-3.4v2.8h-1.7V95h17v-2.8h-1.7v-2.8h-3.9c3-5.8 7.6-9.9 12.4-12.1l.8 5.3 5.7-5.8 8 1.4-3.8-7.1 3.8-7.2z"/><path class="st3" d="M96.6 63.7l-8 1.4-5.7-5.8-1.2 8.1-7.3 3.6 4.2 2.1c-4.7 3.4-8.7 9-10.3 16.3H67l2.8-25.1 6.2 3.2-1.8-10.6 7.7-7.5-10.6-1.5-4.8-9.6-4.8 9.6-10.6 1.5 7.7 7.5L57 67.4l6.2-3.2L66 89.3h-1.3c-1.6-7.3-5.6-13-10.3-16.3l4.2-2.1-7.3-3.6-1.2-8.1-5.7 5.8-8-1.4 3.8 7.2-3.8 7.2 8-1.4 5.7 5.8.8-5.3c4.9 2.2 9.4 6.3 12.4 12.1h-3.4V92h-1.7v2.8h17V92h-1.7v-2.8h-3.9c3-5.8 7.6-9.9 12.4-12.1l.8 5.3 5.7-5.8 8 1.4-3.8-7.2 3.9-7.1z"/><path class="st3" d="M96.3 63.4l-8 1.4-5.7-5.8-1.1 8-7.3 3.6 4.2 2.1c-4.7 3.4-8.7 9-10.3 16.3h-1.3l2.8-25 6.2 3.2L74 56.6l7.7-7.5L71 47.6 66.2 38l-4.8 9.6-10.6 1.5 7.7 7.5-1.8 10.6 6.2-3.2 2.8 25.1h-1.3c-1.6-7.3-5.6-13-10.3-16.3l4.2-2.1-7.2-3.7-1.2-8-5.7 5.8-8-1.4 3.8 7.2-3.8 7.2 8-1.4 5.7 5.8.8-5.3c4.9 2.2 9.4 6.3 12.4 12.1h-3.4v2.8H58v2.8h17v-2.8h-1.7V89h-3.9c3-5.8 7.6-9.9 12.4-12.1l.8 5.3 5.7-5.8 8 1.4-3.8-7.2 3.8-7.2z"/><path class="st3" d="M96.1 63.2l-8 1.4-5.7-5.8-1.2 8.1-7.3 3.6 4.2 2.1c-4.7 3.4-8.7 9-10.3 16.3h-1.3l2.8-25.1 6.2 3.2-1.8-10.6 7.7-7.5-10.6-1.5-4.8-9.7-4.8 9.6-10.6 1.5 7.7 7.5L56.5 67l6.2-3.2 2.8 25.1h-1.3c-1.6-7.3-5.6-13-10.3-16.3l4.2-2.1-7.3-3.6-1.2-8.1-5.6 5.8-8-1.4 3.8 7.2-3.8 7.2 8-1.4 5.7 5.8.8-5.3c4.9 2.2 9.4 6.3 12.4 12.1h-3.4v2.8h-1.7v2.8h17v-2.8h-1.7v-2.8h-3.9c3-5.8 7.6-9.9 12.4-12.1l.8 5.3 5.7-5.8 8 1.4-3.8-7.2 3.8-7.2z"/><path class="st3" d="M95.9 63l-8 1.4-5.7-5.8-1.2 8-7.3 3.6 4.2 2.1c-4.7 3.4-8.7 9-10.3 16.3h-1.3l2.8-25.1 6.2 3.2-1.8-10.6 7.7-7.5-10.6-1.5-4.8-9.6-4.8 9.6-10.6 1.5 7.7 7.5-1.8 10.6 6.2-3.2 2.8 25.1H64c-1.6-7.3-5.6-13-10.3-16.3l4.2-2.1-7.3-3.6-1.2-8.1-5.7 5.8-8-1.4 3.8 7.2-3.8 7.2 8-1.4 5.7 5.8.8-5.3c4.9 2.2 9.4 6.3 12.4 12.1h-3.4v2.8h-1.7v2.8h17v-2.8h-1.7v-2.8H69c3-5.8 7.6-9.9 12.4-12.1l.8 5.3 5.7-5.8 8 1.4-3.8-7.2 3.8-7.1z"/><path class="st3" d="M95.7 62.8l-8 1.4-5.7-5.9-1.2 8.1-7.3 3.6 4.2 2.1c-4.7 3.4-8.7 9-10.3 16.3h-1.3l2.8-25.1 6.2 3.2-1.8-10.6 7.7-7.5-10.6-1.5-4.8-9.6-4.8 9.6-10.6 1.5 7.7 7.5-1.8 10.6 6.2-3.2 2.8 25.1h-1.3c-1.6-7.3-5.6-13-10.3-16.3l4.2-2.1-7.3-3.6-1.2-8.1-5.7 5.8-8-1.4 3.8 7.2-3.8 7.2 8-1.4 5.7 5.8.8-5.3c4.9 2.2 9.4 6.3 12.4 12.1H59v2.8h-1.7v2.8h17v-2.8h-1.7v-2.8h-3.9c3-5.8 7.6-9.9 12.4-12.1l.8 5.3 5.7-5.8 8 1.4-3.7-7.1 3.8-7.2z"/><path class="st3" d="M95.4 62.5l-8 1.4-5.7-5.8-1.2 8.1-7.3 3.6 4.2 2.1c-4.7 3.4-8.7 9-10.3 16.3h-1.3l2.8-25.1 6.2 3.2L73 55.7l7.7-7.5-10.6-1.5-4.7-9.7-4.8 9.6L50 48.2l7.7 7.5-1.8 10.6 6.2-3.2 2.8 25.1h-1.3c-1.6-7.3-5.6-13-10.3-16.3l4.2-2.1-7.3-3.6-1.2-8.1-5.7 5.8-8-1.4 3.8 7.2-3.8 7.2 8-1.4 5.7 5.8.8-5.3c4.9 2.2 9.4 6.3 12.4 12.1h-3.4v2.8h-1.7v2.8h17v-2.8h-1.7v-2.8h-3.9c3-5.8 7.6-9.9 12.4-12.1l.8 5.3 5.7-5.8 8 1.4-3.8-7.2 3.8-7.2z"/><path class="st3" d="M95.2 62.3l-8 1.4-5.7-5.8-1.2 8.1-7.3 3.5 4.2 2.1c-4.7 3.4-8.7 9-10.3 16.3h-1.3l2.8-25.1 6.2 3.2-1.8-10.6 7.7-7.5-10.6-1.5-4.8-9.6-4.8 9.6L49.7 48l7.7 7.5-1.8 10.6 6.2-3.2L64.6 88h-1.3c-1.6-7.3-5.6-13-10.3-16.3l4.2-2.1-7.3-3.6-1.2-8.1-5.7 5.8-8-1.4 3.8 7.2-3.8 7.2 8-1.4 5.7 5.8.8-5.3c4.9 2.2 9.4 6.3 12.4 12.1h-3.4v2.8h-1.7v2.8h17v-2.8h-1.7v-2.8h-3.9c3-5.8 7.6-9.9 12.4-12.1l.8 5.3 5.7-5.8 8 1.4-3.8-7.2 3.9-7.2z"/><path class="st3" d="M95 62.1l-8 1.4-5.7-5.8-1.2 8.1-7.3 3.6 4.2 2.1c-4.7 3.4-8.7 9-10.3 16.3h-1.3l2.8-25.1 6.2 3.2-1.8-10.6 7.7-7.5-10.6-1.5-4.8-9.6-4.8 9.6-10.6 1.5 7.7 7.5-1.8 10.6 6.2-3.2 2.8 25.1h-1.3c-1.6-7.3-5.6-13-10.3-16.3l4.2-2.1-7.3-3.6-1.2-8.1-5.7 5.8-8-1.4 3.8 7.2-3.8 7.2 8-1.4 5.7 5.8.8-5.3c4.9 2.2 9.4 6.3 12.4 12.1h-3.4v2.8h-1.7v2.8h17v-2.8h-1.7v-2.8H68c3-5.8 7.6-9.9 12.4-12.1l.8 5.3 5.7-5.8 8 1.4-3.8-7.2 3.9-7.2z"/><path class="st3" d="M94.8 61.8l-8 1.4-5.7-5.8-1.2 8.1-7.3 3.5 4.2 2.1c-4.7 3.4-8.7 9-10.3 16.3h-1.3l2.8-25 6.2 3.2L72.4 55l7.7-7.5L69.4 46l-4.8-9.6-4.7 9.6-10.6 1.5L57 55l-1.8 10.6 6.2-3.2 2.8 25.1h-1.3c-1.6-7.3-5.6-13-10.3-16.3l4.2-2.1-7.3-3.6-1.2-8.1-5.7 5.8-8-1.4 3.8 7.2-3.8 7.2 8-1.4 5.7 5.8.8-5.3c4.9 2.2 9.4 6.3 12.4 12.1h-3.4v2.8h-1.7V93h17v-2.8h-1.7v-2.8h-3.9c3-5.8 7.6-9.9 12.4-12.1l.8 5.3 5.7-5.8 8 1.4L91 69l3.8-7.2z"/><path class="st3" d="M94.5 61.6l-8 1.4-5.7-5.8-1.2 8.1-7.3 3.6 4.2 2.1c-4.7 3.4-8.7 9-10.3 16.3H65l2.8-25.1 6.2 3.2-1.8-10.6 7.7-7.5-10.6-1.5-4.8-9.6-4.8 9.6-10.6 1.5 7.7 7.5L55 65.4l6.2-3.2L64 87.3h-1.3c-1.6-7.3-5.6-13-10.3-16.3l4.2-2.1-7.3-3.6-1.2-8.1-5.7 5.8-8-1.4 3.8 7.2-3.8 7.2 8-1.4 5.7 5.8.8-5.3c4.9 2.2 9.4 6.3 12.4 12.1h-3.4V90h-1.7v2.8h17V90h-1.7v-2.8h-3.9c3-5.8 7.6-9.9 12.4-12.1l.8 5.3 5.7-5.8 8 1.4-3.8-7.2 3.8-7.2z"/><path class="st3" d="M94.3 61.4l-8 1.4-5.7-5.8-1.2 8-7.3 3.6 4.2 2.1c-4.7 3.4-8.7 9-10.3 16.3h-1.3l2.8-25.1 6.2 3.2-1.8-10.6 7.7-7.5L69 45.5l-4.8-9.6-4.8 9.6L48.8 47l7.7 7.5-1.8 10.6 6.2-3.2L63.7 87h-1.3c-1.6-7.3-5.6-13-10.3-16.3l4.2-2.1L49 65l-1.2-8.1-5.7 5.8-8-1.4 3.8 7.2-3.8 7.2 8-1.4 5.7 5.8.8-5.3C53.5 77 58 81.1 61 86.9h-3.4v2.8H56v2.8h17v-2.8h-1.7V87h-3.9c3-5.8 7.6-9.9 12.4-12.1l.8 5.3 5.7-5.8 8 1.4-3.8-7.2 3.8-7.2z"/><path class="st3" d="M94.1 61.2l-8 1.4-5.7-5.8-1.2 8.1-7.3 3.6 4.2 2.1c-4.7 3.4-8.7 9-10.3 16.3h-1.3l2.8-25.1 6.2 3.2-1.8-10.6 7.7-7.5-10.6-1.5-4.8-9.7-4.8 9.6-10.6 1.5 7.7 7.5L54.5 65l6.2-3.2 2.8 25.1h-1.3c-1.6-7.3-5.6-13-10.3-16.3l4.2-2.1-7.3-3.6-1.2-8.1-5.7 5.8-8-1.4 3.8 7.2-3.8 7.2 8-1.4 5.7 5.8.8-5.3c4.9 2.2 9.4 6.3 12.4 12.1h-3.4v2.8h-1.7v2.8h17v-2.8H71v-2.8h-3.9c3-5.8 7.6-9.9 12.4-12.1l.8 5.3 5.7-5.8 8 1.4-3.8-7.2 3.9-7.2z"/><path class="st3" d="M93.9 60.9l-8 1.4-5.7-5.8-1.2 8-7.3 3.6 4.2 2.1c-4.7 3.4-8.7 9-10.3 16.3h-1.3l2.8-25.1 6.2 3.2L71.5 54l7.7-7.5L68.6 45l-4.8-9.6-4.8 9.7-10.6 1.5 7.7 7.5-1.8 10.6 6.2-3.2 2.8 25.1H62c-1.6-7.3-5.6-13-10.3-16.3l4.2-2.1-7.3-3.6-1.2-8.1-5.7 5.8-8-1.4 3.8 7.2-3.8 7.2 8-1.4 5.7 5.8.8-5.3c4.9 2.2 9.4 6.3 12.4 12.1h-3.4v2.8h-1.7v2.8h17v-2.8h-1.7v-2.8h-3.9c3-5.8 7.6-9.9 12.4-12.1l.8 5.3 5.7-5.8 8 1.4-3.8-7.2 3.9-7.2z"/><path class="st3" d="M93.6 60.7l-8 1.4-5.7-5.8-1.2 8.1-7.3 3.6 4.2 2.1C71 73.4 67 79 65.4 86.3h-1.3l2.8-25.1 6.2 3.2-1.8-10.6 7.7-7.5-10.6-1.5-4.8-9.6-4.8 9.6-10.6 1.5 7.7 7.5L54 64.5l6.2-3.2 2.8 25h-1.3c-1.6-7.3-5.6-13-10.3-16.3l4.2-2.1-7.3-3.6-1.2-8.1-5.7 5.8-8-1.4 3.8 7.2-3.8 7.2 8-1.4 5.7 5.8.8-5.3c4.9 2.2 9.4 6.3 12.4 12.1H57V89h-1.7v2.8h17V89h-1.7v-2.8h-3.9c3-5.8 7.6-9.9 12.4-12.1l.8 5.3 5.7-5.8 8 1.4-3.8-7.2 3.8-7.1z"/><path class="st3" d="M93.4 60.5l-8 1.4-5.7-5.9-1.2 8.1-7.3 3.6 4.2 2.1c-4.7 3.4-8.7 9-10.3 16.3h-1.3L66.7 61l6.2 3.2L71 53.7l7.7-7.5-10.6-1.5-4.8-9.7-4.8 9.6-10.6 1.5 7.7 7.5-1.8 10.6L60 61l2.8 25.1h-1.3c-1.6-7.3-5.6-13-10.3-16.3l4.2-2.1-7.3-3.6-1.2-8.1-5.7 5.8-8-1.4 3.8 7.2-3.8 7.2 8-1.4 5.7 5.8.8-5.3c4.9 2.2 9.4 6.3 12.4 12.1h-3.4v2.8H55v2.8h17v-2.8h-1.7V86h-3.9c3-5.8 7.6-9.9 12.4-12.1l.8 5.3 5.7-5.8 8 1.4-3.8-7.2 3.9-7.1z"/><path class="st3" d="M93.2 60.3l-8 1.4-5.7-5.8-1.2 8.1-7.3 3.4 4.2 2.1c-4.7 3.4-8.7 9-10.3 16.3h-1.3l2.8-25.1 6.2 3.2-1.8-10.6 7.7-7.5-10.6-1.5-4.8-9.6-4.8 9.6L47.7 46l7.7 7.5-1.8 10.6 6.2-3.2L62.6 86h-1.3c-1.6-7.3-5.6-13-10.3-16.3l4.2-2.1-7.3-3.6-1.2-8.1-5.7 5.7-8-1.4 3.8 7.2-3.8 7.3 8-1.4 5.7 5.8.8-5.3c4.9 2.2 9.4 6.3 12.4 12.1h-3.4v2.8h-1.7v2.8h17v-2.8h-1.7v-2.8h-3.9c3-5.8 7.6-9.9 12.4-12.1l.8 5.3 5.7-5.8 8 1.4-3.8-7.2 3.9-7.2z"/><path class="st3" d="M93 60l-8 1.4-5.7-5.8-1.2 8.1-7.3 3.6 4.2 2.1c-4.7 3.4-8.7 9-10.3 16.3h-1.3l2.8-25.1 6.2 3.2-1.8-10.6 7.7-7.5-10.6-1.5-4.8-9.6-4.8 9.6-10.6 1.5 7.7 7.5-1.8 10.6 6.2-3.2 2.8 25.1h-1.3c-1.6-7.3-5.6-13-10.3-16.3l4.2-2.1-7.3-3.6-1.2-8.1-5.7 5.8-8-1.4 3.8 7.2-3.8 7.2 8-1.4 5.7 5.8.8-5.3c4.9 2.2 9.4 6.3 12.4 12.1h-3.4v2.8h-1.7v2.8h17v-2.8h-1.7v-2.8H66c3-5.8 7.6-9.9 12.4-12.1l.8 5.3 5.7-5.8 8 1.4-3.8-7.2L93 60z"/><path class="st3" d="M92.7 59.8l-8 1.4-5.7-5.9-1.2 8.1-7.3 3.6 4.2 2.1c-4.7 3.4-8.7 9-10.3 16.3h-1.3l2.9-25 6.2 3.2L70.3 53l7.7-7.5L67.4 44l-4.8-9.6-4.7 9.6-10.6 1.5L55 53l-1.8 10.6 6.2-3.2 2.8 25.1h-1.3c-1.6-7.3-5.6-13-10.3-16.3l4.2-2.1-7.3-3.6-1.2-8.1-5.7 5.8-8-1.4 3.8 7.2-3.8 7.2 8-1.4 5.7 5.8.8-5.3c4.9 2.2 9.4 6.3 12.4 12.1h-3.4v2.8h-1.7V91h17v-2.8h-1.7v-2.8h-3.9c3-5.8 7.6-9.9 12.4-12.1l.8 5.3 5.7-5.8 8 1.4-3.8-7.2 3.8-7.2z"/><path class="st3" d="M92.5 59.6l-8 1.4-5.7-5.8-1.2 8.1-7.3 3.6 4.2 2.1c-4.7 3.4-8.7 9-10.3 16.3H63l2.8-25.1 6.2 3.2-1.8-10.6 7.7-7.5-10.6-1.5-4.8-9.6-4.8 9.6L47 45.3l7.7 7.5-1.8 10.6 6.2-3.2 2.8 25.1h-1.3C59 78 55 72.3 50.3 69l4.2-2.1-7.3-3.6-1.2-8.2-5.6 5.9-8-1.4 3.8 7.2-3.8 7.2 8-1.4 5.7 5.8.8-5.3c4.9 2.2 9.4 6.3 12.4 12.1h-3.4V88h-1.7v2.8h17V88h-1.7v-2.8h-3.9c3-5.8 7.6-9.9 12.4-12.1l.8 5.3 5.7-5.8 8 1.4-3.8-7.2 3.8-7.2z"/><path class="st3" d="M92.3 59.4l-8 1.4-5.7-5.8-1.2 8.1-7.3 3.6 4.2 2.1C69.6 72 65.6 77.7 64 85h-1.3l2.8-25.1 6.2 3.2-1.8-10.6 7.7-7.5L67 43.5l-4.8-9.6-4.8 9.6L46.8 45l7.7 7.5-1.8 10.6 6.2-3.2L61.7 85h-1.3c-1.6-7.3-5.6-13-10.3-16.3l4.2-2.1-7.3-3.7-1.2-8.1-5.7 5.8-8-1.4 3.8 7.2-3.8 7.2 8-1.4 5.7 5.8.8-5.3C51.5 75.1 56 79.2 59 85h-3.4v2.8h-1.7v2.8h17v-2.8h-1.7V85h-3.9c3-5.8 7.6-9.9 12.4-12.1l.8 5.3 5.7-5.8 8 1.4-3.8-7.2 3.9-7.2z"/><path class="st3" d="M92 59.1l-8 1.4-5.7-5.8-1.2 8.1-7.3 3.6 4.2 2.1c-4.7 3.4-8.7 9-10.3 16.3h-1.3l2.8-25.1 6.2 3.2-1.8-10.6 7.7-7.5-10.6-1.5-4.7-9.7-4.8 9.6-10.6 1.5 7.7 7.5-1.8 10.6 6.2-3.2 2.8 25.1h-1.3c-1.6-7.3-5.6-13-10.3-16.3l4.2-2.1-7.3-3.6-1.2-8.1-5.7 5.8-8-1.4 3.8 7.2-3.8 7.2 8-1.4 5.7 5.8.8-5.3c4.9 2.2 9.4 6.3 12.4 12.1h-3.4v2.8h-1.7v2.8h17v-2.8H69v-2.8h-3.9c3-5.8 7.6-9.9 12.4-12.1l.8 5.3L84 72l8 1.4-3.8-7.2 3.8-7.1z"/><path class="st3" d="M91.8 58.9l-8 1.4-5.7-5.8-1.2 8.1-7.3 3.6 4.2 2.1c-4.7 3.4-8.7 9-10.3 16.3h-1.3L65 59.5l6.2 3.2-1.8-10.6 7.7-7.5L66.5 43l-4.8-9.6L57 43l-10.6 1.5 7.7 7.5-1.8 10.6 6.2-3.2 2.8 25.1H60c-1.6-7.3-5.6-13-10.3-16.3l4.2-2.1-7.3-3.6-1.2-8.1-5.7 5.8-8-1.4 3.8 7.2-3.8 7.2 8-1.4 5.7 5.8.8-5.3c4.9 2.2 9.4 6.3 12.4 12.1h-3.4v2.8h-1.7V90h17v-2.8h-1.7v-2.8h-3.9c3-5.8 7.6-9.9 12.4-12.1l.8 5.3 5.7-5.8 8 1.4-3.8-7.1 3.8-7.2z"/><path class="st3" d="M91.6 58.7l-8 1.4-5.7-5.8-1.2 8.1-7.3 3.6 4.2 2.1c-4.7 3.4-8.7 9-10.3 16.3H62l2.8-25.1 6.2 3.2-1.8-10.6 7.7-7.5-10.6-1.5-4.8-9.6-4.8 9.6-10.6 1.5 7.7 7.5L52 62.5l6.2-3.2 2.8 25h-1.3c-1.6-7.3-5.6-13-10.3-16.3l4.2-2.1-7.3-3.6-1.2-8.1-5.6 5.8-8-1.4 3.8 7.2-3.8 7.2 8-1.4 5.7 5.8.8-5.3c4.9 2.2 9.4 6.3 12.4 12.1H55V87h-1.7v2.8h17V87h-1.7v-2.8h-3.9c3-5.8 7.6-9.9 12.4-12.1l.8 5.3 5.7-5.8 8 1.4-3.8-7.2 3.8-7.1z"/><path class="st3" d="M91.4 58.5l-8 1.4-5.7-5.9-1.2 8-7.3 3.6 4.2 2.1c-4.7 3.4-8.7 9-10.3 16.3h-1.3l2.8-25 6.2 3.2L69 51.6l7.7-7.5L66 42.6 61.3 33l-4.8 9.6-10.6 1.5 7.7 7.5-1.8 10.6L58 59l2.8 25.1h-1.3c-1.6-7.3-5.6-13-10.3-16.3l4.2-2.1-7.3-3.7-1.2-8-5.7 5.8-8-1.4 3.8 7.2-3.8 7.2 8-1.4 5.7 5.8.8-5.3c4.9 2.2 9.4 6.3 12.4 12.1h-3.4v2.8H53v2.8h17v-2.8h-1.7V84h-3.9c3-5.8 7.6-9.9 12.4-12.1l.8 5.3 5.7-5.8 8 1.4-3.8-7.2 3.9-7.1z"/><path class="st3" d="M91.1 58.2l-8 1.4-5.7-5.8-1.2 8.1-7.2 3.5 4.2 2.1c-4.7 3.4-8.7 9-10.3 16.3h-1.3l2.8-25.1 6.2 3.2-1.8-10.6 7.7-7.5-10.6-1.5-4.8-9.6-4.8 9.6-10.6 1.5 7.7 7.5L51.5 62l6.2-3.2 2.8 25.1h-1.3c-1.6-7.3-5.6-13-10.3-16.3l4.2-2.1-7.3-3.6-1.2-8.1-5.6 5.8-8-1.4 3.8 7.2-3.8 7.2 8-1.4 5.7 5.8.8-5.3c4.9 2.2 9.4 6.3 12.4 12.1h-3.4v2.8h-1.7v2.8h17v-2.8h-1.7v-2.8h-3.9c3-5.8 7.6-9.9 12.4-12.1l.8 5.3 5.7-5.8 8 1.4-3.8-7.2 3.8-7.2z"/><path class="st3" d="M90.9 58l-8 1.4-5.7-5.8-1.2 8-7.3 3.6 4.2 2.1c-4.7 3.4-8.7 9-10.3 16.3h-1.3l2.8-25.1 6.2 3.2-1.8-10.6 7.7-7.5-10.6-1.5-4.8-9.6-4.8 9.6-10.6 1.5 7.7 7.5-1.8 10.6 6.2-3.2 2.8 25.1H59c-1.6-7.3-5.6-13-10.3-16.3l4.2-2.1-7.3-3.6-1.2-8.1-5.7 5.8-8-1.4 3.8 7.2-3.8 7.2 8-1.4 5.7 5.8.8-5.3c4.9 2.2 9.4 6.3 12.4 12.1h-3.4v2.8h-1.7v2.8h17v-2.8h-1.7v-2.8H64c3-5.8 7.6-9.9 12.4-12.1l.8 5.3 5.7-5.8 8 1.4-3.8-7.2 3.8-7.1z"/><path class="st3" d="M90.7 57.8l-8 1.4-5.7-5.9-1.2 8.1-7.3 3.6 4.2 2.1c-4.7 3.4-8.7 9-10.3 16.3h-1.3L64 58.3l6.2 3.2L68.3 51l7.7-7.5L65.4 42l-4.8-9.6-4.8 9.6-10.6 1.5 7.7 7.5-1.8 10.6 6.2-3.2 2.8 25.1h-1.3c-1.6-7.3-5.6-13-10.3-16.3l4.2-2.1-7.3-3.6-1.2-8.1-5.7 5.8-8-1.4 3.8 7.2-3.8 7.2 8-1.4 5.7 5.8.8-5.3c4.9 2.2 9.4 6.3 12.4 12.1H54v2.8h-1.7V89h17v-2.8h-1.7v-2.8h-3.9c3-5.8 7.6-9.9 12.4-12.1l.8 5.3 5.7-5.8 8 1.4-3.7-7.2 3.8-7.2z"/><path class="st3" d="M90.5 57.5l-8 1.4-5.7-5.8-1.2 8.1-7.3 3.6 4.2 2.1c-4.7 3.4-8.7 9-10.3 16.3h-1.3l2.8-25.1 6.2 3.2-1.8-10.6 7.7-7.5-10.6-1.5-4.8-9.7-4.8 9.6L45 43.2l7.7 7.5-1.8 10.6 6.2-3.2 2.8 25.1h-1.3c-1.6-7.3-5.6-13-10.3-16.3l4.2-2.1-7.3-3.6-1.2-8.1-5.7 5.8-8-1.4 3.8 7.2-3.8 7.3 8-1.4 5.7 5.8.8-5.3c4.9 2.2 9.4 6.3 12.4 12.1h-3.4V86h-1.7v2.8h17V86h-1.7v-2.8h-3.9c3-5.8 7.6-9.9 12.4-12.1l.8 5.3 5.7-5.8 8 1.4-3.8-7.2 3.9-7.3z"/><path class="st3" d="M90.2 57.3l-8 1.4-5.7-5.8-1.2 8.1-7.3 3.6 4.2 2.1c-4.7 3.4-8.7 9-10.3 16.3h-1.3l2.8-25.1 6.2 3.2-1.8-10.6 7.7-7.5-10.6-1.5-4.8-9.6-4.8 9.6L44.8 43l7.7 7.5-1.8 10.6 6.2-3.2L59.7 83h-1.3c-1.6-7.3-5.6-13-10.3-16.3l4.2-2.1-7.3-3.7-1.2-8.1-5.7 5.8-8-1.4 3.8 7.2-3.8 7.2 8-1.4 5.7 5.8.8-5.3C49.4 73 54 77.2 57 82.9h-3.4v2.8h-1.7v2.8h17v-2.8h-1.7v-2.8h-3.9c3-5.8 7.6-9.9 12.4-12.1l.8 5.3 5.7-5.8 8 1.4-3.8-7.2 3.8-7.2z"/><path class="st3" d="M90 57.1l-8 1.4-5.7-5.8-1.2 8.1-7.3 3.6 4.2 2.1c-4.7 3.4-8.7 9-10.3 16.3h-1.3l2.8-25.1 6.2 3.2-1.8-10.6 7.7-7.5-10.6-1.5-4.8-9.6-4.8 9.6-10.6 1.5 7.7 7.5-1.8 10.6 6.2-3.2 2.8 25.1h-1.3c-1.6-7.3-5.6-13-10.3-16.3l4.2-2.1-7.3-3.6-1.2-8.1-5.7 5.8-8-1.4 3.8 7.2-3.8 7.2 8-1.4 5.7 5.8.8-5.3c4.9 2.2 9.4 6.3 12.4 12.1h-3.4v2.8h-1.7v2.8h17.1v-2.8H67v-2.8h-3.9c3-5.8 7.6-9.9 12.4-12.1l.8 5.3 5.7-5.8 8 1.4-3.8-7.2 3.8-7.2z"/><path class="st3" d="M89.8 56.9l-8 1.4-5.7-5.8-1.2 8.1-7.3 3.6 4.2 2.1c-4.7 3.4-8.7 9-10.3 16.3h-1.3L63 57.5l6.2 3.2-1.8-10.6 7.7-7.5L64.5 41l-4.8-9.6-4.8 9.6-10.6 1.5L52 50l-1.8 10.6 6.2-3.2 2.8 25.1h-1.3c-1.6-7.3-5.6-13-10.3-16.3l4.2-2.1-7.3-3.6-1.2-8.1-5.7 5.8-8-1.4 3.8 7.2-3.8 7.2 8-1.4 5.7 5.8.8-5.3c4.9 2.2 9.4 6.3 12.4 12.1h-3.4v2.8h-1.7V88h17v-2.8h-1.7v-2.8h-3.9c3-5.8 7.6-9.9 12.4-12.1l.8 5.3 5.7-5.8 8 1.4-3.7-7.1 3.8-7.2z"/><path class="st3" d="M89.6 56.6l-8 1.4-5.7-5.8-1.2 8.1-7.3 3.6 4.2 2.1c-4.7 3.4-8.7 9-10.3 16.3H60l2.8-25.1 6.2 3.2-1.8-10.6 7.7-7.5-10.6-1.5-4.8-9.6-4.8 9.6-10.6 1.5 7.7 7.5L50 60.4l6.2-3.2L59 82.3h-1.3C56 75 52 69.3 47.3 65.9l4.2-2.1-7.3-3.6-1.2-8.1-5.6 5.9-8-1.4 3.8 7.2-3.8 7.2 8-1.4 5.7 5.8.8-5.3c4.9 2.2 9.4 6.3 12.4 12.1h-3.4V85h-1.7v2.8h17V85h-1.7v-2.8h-3.9c3-5.8 7.6-9.9 12.4-12.1l.8 5.3 5.7-5.8 8 1.4-3.8-7.2 3.9-7.2z"/><path class="st3" d="M89.3 56.4l-8 1.4-5.7-5.8-1.1 8-7.3 3.6 4.2 2.1c-4.7 3.4-8.7 9-10.3 16.3h-1.3l2.8-25 6.2 3.2L67 49.6l7.7-7.5L64 40.6 59.2 31l-4.8 9.6-10.6 1.5 7.7 7.5-1.8 10.6 6.2-3.2 2.8 25h-1.3c-1.6-7.3-5.6-13-10.3-16.3l4.2-2.1L44 60l-1.2-8.1-5.7 5.8-8-1.4 3.8 7.2-3.8 7.2 8-1.4 5.7 5.8.8-5.3C48.5 72 53 76.1 56 81.9h-3.4v2.8H51v2.8h17v-2.8h-1.7V82h-3.9c3-5.8 7.6-9.9 12.4-12.1l.8 5.3 5.7-5.8 8 1.4-3.8-7.2 3.8-7.2z"/><path class="st3" d="M89.1 56.2l-8 1.4-5.7-5.8-1.2 8.1-7.3 3.6 4.2 2.1c-4.7 3.4-8.7 9-10.3 16.3h-1.3l2.8-25.1 6.2 3.2-1.8-10.6 7.7-7.5-10.6-1.5-4.8-9.7-4.8 9.6-10.6 1.5 7.7 7.5L49.5 60l6.2-3.2 2.8 25.1h-1.3c-1.6-7.3-5.6-13-10.3-16.3l4.2-2.1-7.3-3.6-1.2-8.1-5.6 5.8-8-1.4 3.8 7.2-3.8 7.2 8-1.4 5.7 5.8.8-5.3c4.9 2.2 9.4 6.3 12.4 12.1h-3.4v2.8h-1.7v2.8h17v-2.8h-1.7v-2.8h-3.9c3-5.8 7.6-9.9 12.4-12.1l.8 5.3 5.7-5.8 8 1.4-3.8-7.2 3.8-7.2z"/><path class="st3" d="M88.9 56l-8 1.4-5.7-5.8-1.2 8-7.3 3.6 4.2 2.1c-4.7 3.4-8.7 9-10.3 16.3h-1.3l2.8-25.1 6.2 3.2-1.8-10.6 7.7-7.5-10.6-1.5-4.8-9.6-4.8 9.6-10.6 1.5 7.7 7.5-1.8 10.6 6.2-3.2 2.8 25.1H57c-1.6-7.3-5.6-13-10.3-16.3l4.2-2.1-7.3-3.6-1.2-8.1-5.7 5.8-8-1.4 3.8 7.2-3.8 7.2 8-1.4 5.7 5.8.8-5.3c4.9 2.2 9.4 6.3 12.4 12.1h-3.4v2.8h-1.7v2.8h17v-2.8h-1.7v-2.8h-3.9c3-5.8 7.6-9.9 12.4-12.1l.8 5.3 5.7-5.8 8 1.4-3.8-7.2 3.9-7.1z"/><path class="st3" d="M88.6 55.7l-8 1.4-5.7-5.8-1.2 8.1-7.3 3.6 4.2 2.1c-4.7 3.4-8.7 9-10.3 16.3H59l2.8-25.1 6.2 3.2-1.8-10.6 7.7-7.5-10.6-1.5-4.8-9.6-4.8 9.6-10.6 1.5 7.7 7.5L49 59.5l6.2-3.2L58 81.4h-1.3c-1.6-7.3-5.6-13-10.3-16.3l4.2-2.1-7.3-3.6-1.2-8.1-5.7 5.8-8-1.4 3.8 7.2-3.8 7.2 8-1.4 5.7 5.8.8-5.3c4.9 2.2 9.4 6.3 12.4 12.1H52v2.8h-1.7v2.8h17v-2.8h-1.7v-2.8h-3.9c3-5.8 7.6-9.9 12.4-12.1l.8 5.3 5.7-5.8 8 1.4-3.8-7.2 3.8-7.2z"/><path class="st3" d="M88.4 55.5l-8 1.4-5.7-5.9-1.2 8.1-7.3 3.6 4.2 2.1c-4.7 3.4-8.7 9-10.3 16.3h-1.3L61.6 56l6.2 3.2L66 48.7l7.7-7.5-10.6-1.5-4.8-9.7-4.8 9.6-10.6 1.5 7.7 7.5-1.8 10.6L55 56l2.8 25.1h-1.3c-1.6-7.3-5.6-13-10.3-16.3l4.2-2.1-7.3-3.6L42 51l-5.7 5.8-8-1.4 3.8 7.2-3.8 7.2 8-1.4 5.7 5.8.8-5.3c4.9 2.2 9.4 6.3 12.4 12.1h-3.4v2.8h-1.7v2.8H67v-2.8h-1.7V81h-3.9c3-5.8 7.6-9.9 12.4-12.1l.8 5.3 5.7-5.8 8 1.4-3.8-7.2 3.9-7.1z"/><path class="st3" d="M88.2 55.3l-8 1.4-5.7-5.8-1.2 8.1-7.3 3.5 4.2 2.1c-4.7 3.4-8.7 9-10.3 16.3h-1.3l2.8-25.1 6.2 3.2-1.8-10.6 7.7-7.5-10.6-1.5-4.8-9.6-4.8 9.6L42.7 41l7.7 7.5-1.8 10.6 6.2-3.2L57.6 81h-1.3c-1.6-7.3-5.6-13-10.3-16.3l4.2-2.1-7.3-3.6-1.2-8.1-5.7 5.8-8-1.4 3.8 7.2-3.8 7.2 8-1.4 5.7 5.8.8-5.3c4.9 2.2 9.4 6.3 12.4 12.1h-3.4v2.8h-1.7v2.8h17v-2.8h-1.7v-2.8h-3.9c3-5.8 7.6-9.9 12.4-12.1l.8 5.3 5.7-5.8 8 1.4-3.8-7.2 3.9-7.2z"/><path class="st3" d="M88 55.1l-8 1.4-5.7-5.8-1.2 8.1-7.3 3.6 4.2 2.1c-4.7 3.4-8.7 9-10.3 16.3h-1.3l2.8-25.1 6.2 3.2-1.8-10.6 7.7-7.5-10.6-1.5-4.8-9.6-4.8 9.6-10.6 1.5 7.7 7.5-1.8 10.6 6.2-3.2 2.8 25.1h-1.3c-1.6-7.3-5.6-13-10.3-16.3l4.2-2.1-7.3-3.6-1.2-8.1-5.7 5.8-8-1.4 3.8 7.2-3.8 7.2 8-1.4 5.7 5.8.8-5.3c4.9 2.2 9.4 6.3 12.4 12.1h-3.4v2.8h-1.7v2.8h17v-2.8h-1.7v-2.8H61c3-5.8 7.6-9.9 12.4-12.1l.8 5.3 5.7-5.8 8 1.4-3.8-7.2 3.9-7.2z"/><path class="st3" d="M87.7 54.8l-8 1.4-5.7-5.8-1.2 8.1-7.2 3.5 4.2 2.1c-4.7 3.4-8.7 9-10.3 16.3h-1.3l2.8-25 6.2 3.2L65.4 48l7.7-7.5L62.4 39l-4.8-9.6-4.7 9.6-10.6 1.5L50 48l-1.8 10.6 6.2-3.2 2.8 25.1h-1.3c-1.6-7.3-5.6-13-10.3-16.3l4.2-2.1-7.3-3.6-1.2-8.1-5.7 5.8-8-1.4 3.8 7.2-3.8 7.2 8-1.4 5.7 5.8.8-5.3c4.9 2.2 9.4 6.3 12.4 12.1h-3.4v2.8h-1.7V86h17v-2.8h-1.7v-2.8h-3.9c3-5.8 7.6-9.9 12.4-12.1l.8 5.3 5.7-5.8 8 1.4L84 62l3.7-7.2z"/><path class="st3" d="M87.5 54.6l-8 1.4-5.7-5.8-1.2 8.1-7.3 3.6 4.2 2.1c-4.7 3.4-8.7 9-10.3 16.3H58l2.8-25.1 6.2 3.2-1.8-10.6 7.7-7.5-10.6-1.5-4.8-9.6-4.8 9.6L42 40.3l7.7 7.5-1.8 10.6 6.2-3.2 2.8 25.1h-1.3C54 73 50 67.3 45.3 64l4.2-2.1-7.3-3.6-1.2-8.1-5.6 5.8-8-1.4 3.8 7.2-3.8 7.2 8-1.4 5.7 5.8.8-5.3c4.9 2.2 9.4 6.3 12.4 12.1h-3.4V83h-1.7v2.8h17V83h-1.7v-2.8h-3.9c3-5.8 7.6-9.9 12.4-12.1l.8 5.3 5.7-5.8 8 1.4-3.8-7.2 3.8-7.2z"/><path class="st3" d="M87.3 54.4l-8 1.4-5.7-5.8-1.2 8-7.3 3.6 4.2 2.1C64.6 67 60.6 72.7 59 80h-1.3l2.8-25.1 6.2 3.2-1.8-10.6 7.7-7.5L62 38.5l-4.8-9.6-4.8 9.6L41.8 40l7.7 7.5-1.8 10.6 6.2-3.2L56.7 80h-1.3c-1.6-7.3-5.6-13-10.3-16.3l4.2-2.1L42 58l-1.2-8.1-5.7 5.8-8-1.4 3.8 7.2-3.8 7.2 8-1.4 5.7 5.8.8-5.3C46.5 70 51 74.1 54 79.9h-3.4v2.8H49v2.8h17v-2.8h-1.7V80h-3.9c3-5.8 7.6-9.9 12.4-12.1l.8 5.3 5.7-5.8 8 1.4-3.8-7.2 3.8-7.2z"/><path class="st3" d="M87.1 54.1l-8 1.4-5.7-5.8-1.2 8.1-7.3 3.6 4.2 2.1c-4.7 3.4-8.7 9-10.3 16.3h-1.3l2.8-25.1 6.2 3.2-1.8-10.6 7.7-7.5-10.6-1.5-4.8-9.6-4.8 9.6-10.6 1.5 7.7 7.5-1.8 10.6 6.2-3.2 2.8 25.1h-1.3c-1.6-7.3-5.6-13-10.3-16.3l4.2-2.1-7.3-3.6-1.2-8.1-5.7 5.8-8-1.4 3.8 7.2-3.8 7.2 8-1.4 5.7 5.8.8-5.3c4.9 2.2 9.4 6.3 12.4 12.1h-3.4v2.8h-1.7v2.8h17v-2.8H64v-2.8h-3.9c3-5.8 7.6-9.9 12.4-12.1l.8 5.3 5.7-5.8 8 1.4-3.8-7.2 3.9-7.2z"/><path class="st3" d="M86.8 53.9l-8 1.4-5.7-5.8-1.1 8-7.3 3.6 4.2 2.1c-4.7 3.4-8.7 9-10.3 16.3h-1.3l2.8-25.1 6.2 3.2L64.5 47l7.7-7.5L61.6 38l-4.8-9.6-4.8 9.7-10.6 1.5 7.7 7.5-1.8 10.6 6.2-3.2 2.8 25.1H55c-1.6-7.3-5.6-13-10.3-16.3l4.2-2.1-7.3-3.6-1.2-8.1-5.7 5.8-8-1.4 3.8 7.2-3.8 7.2 8-1.4 5.7 5.8.8-5.3c4.9 2.2 9.4 6.3 12.4 12.1h-3.4v2.8h-1.7v2.8h17v-2.8h-1.7v-2.8h-3.9c3-5.8 7.6-9.9 12.4-12.1l.8 5.3 5.7-5.8 8 1.4-3.8-7.2 3.8-7.2z"/><path class="st3" d="M86.6 53.7l-8 1.4-5.7-5.8-1.2 8.1-7.3 3.6 4.2 2.1C64 66.4 60 72 58.3 79.3H57l2.8-25.1 6.2 3.2-1.8-10.6 7.7-7.5-10.6-1.5-4.8-9.6-4.8 9.6-10.6 1.5 7.7 7.5L47 57.5l6.2-3.2 2.8 25h-1.3c-1.6-7.3-5.6-13-10.3-16.3l4.2-2.1-7.3-3.6-1.2-8.1-5.7 5.8-8-1.4 3.8 7.2-3.8 7.2 8-1.4 5.7 5.8.8-5.3c4.9 2.2 9.4 6.3 12.4 12.1h-3.4V82h-1.7v2.8h17V82h-1.7v-2.8h-3.9c3-5.8 7.6-9.9 12.4-12.1l.8 5.3 5.7-5.8 8 1.4-3.8-7.2 3.9-7.1z"/><path class="st3" d="M86.4 53.5l-8 1.4-5.7-5.9-1.2 8.1-7.3 3.6 4.2 2.1c-4.7 3.4-8.7 9-10.3 16.3h-1.3L59.7 54l6.2 3.2L64 46.7l7.7-7.5-10.6-1.5-4.8-9.7-4.8 9.6-10.6 1.5 7.7 7.5-1.8 10.6L53 54l2.8 25.1h-1.3c-1.6-7.3-5.6-13-10.3-16.3l4.2-2.1-7.3-3.6-1.2-8.1-5.7 5.8-8-1.4 3.8 7.2-3.8 7.2 8-1.4 5.7 5.8.8-5.3c4.9 2.2 9.4 6.3 12.4 12.1h-3.4v2.8H48v2.8h17v-2.8h-1.7V79h-3.9c3-5.8 7.6-9.9 12.4-12.1l.8 5.3 5.7-5.8 8 1.4-3.8-7.2 3.9-7.1z"/><path class="st3" d="M86.2 53.2l-8 1.4-5.7-5.8-1.2 8.1-7.3 3.5 4.2 2.1c-4.7 3.4-8.7 9-10.3 16.3h-1.3l2.8-25.1 6.2 3.2-1.8-10.6 7.7-7.5-10.6-1.5-4.8-9.6-4.8 9.6-10.6 1.5 7.7 7.5L46.6 57l6.2-3.2 2.8 25.1h-1.3c-1.6-7.3-5.6-13-10.3-16.3l4.2-2.1-7.3-3.6-1.2-8.1-5.7 5.8-8-1.4 3.8 7.2-3.8 7.3 8-1.4 5.7 5.8.8-5.3c4.9 2.2 9.4 6.3 12.4 12.1h-3.4v2.8h-1.7v2.8h17v-2.8h-1.7v-2.8h-3.9c3-5.8 7.6-9.9 12.4-12.1l.8 5.3 5.7-5.8 8 1.4-3.8-7.2 3.9-7.3z"/><path class="st3" d="M85.9 53l-8 1.4-5.7-5.8-1.2 8.1-7.3 3.6 4.2 2.1c-4.7 3.4-8.7 9-10.3 16.3h-1.3l2.8-25.1 6.2 3.2-1.8-10.6 7.7-7.5-10.6-1.5-4.8-9.6-4.8 9.6-10.6 1.5 7.7 7.5-1.8 10.6 6.2-3.2 2.8 25.1H54c-1.6-7.3-5.6-13-10.3-16.3l4.2-2.1-7.3-3.6-1.2-8.1-5.7 5.8-8-1.4 3.8 7.2-3.8 7.2 8-1.4 5.7 5.8.8-5.3c4.9 2.2 9.4 6.3 12.4 12.1h-3.4v2.8h-1.7v2.8h17v-2.8h-1.7v-2.8H59c3-5.8 7.6-9.9 12.4-12.1l.8 5.3 5.7-5.8 8 1.4-3.8-7.2 3.8-7.2z"/><path class="st3" d="M85.7 52.8l-8 1.4-5.7-5.9-1.2 8.1-7.3 3.6 4.2 2.1c-4.7 3.4-8.7 9-10.3 16.3h-1.3L59 53.3l6.2 3.2L63.3 46l7.7-7.5L60.4 37l-4.8-9.6-4.8 9.6-10.6 1.5 7.7 7.5-1.8 10.6 6.2-3.2 2.8 25.1h-1.3c-1.6-7.3-5.6-13-10.3-16.3l4.2-2.1-7.3-3.6-1.2-8.1-5.7 5.8-8-1.4 3.8 7.2-3.8 7.2 8-1.4 5.7 5.8.8-5.3c4.9 2.2 9.4 6.3 12.4 12.1H49v2.8h-1.7V84h17v-2.8h-1.7v-2.8h-3.9c3-5.8 7.6-9.9 12.4-12.1l.8 5.3 5.7-5.8 8 1.4-3.7-7.2 3.8-7.2z"/><path class="st3" d="M85.5 52.6l-8 1.4-5.7-5.8-1.2 8.1-7.3 3.6 4.2 2.1c-4.7 3.4-8.7 9-10.3 16.3h-1.3l2.8-25.1 6.2 3.2-1.8-10.6 7.7-7.5-10.6-1.5-4.8-9.6-4.8 9.6L40 38.3l7.7 7.5-1.8 10.6 6.2-3.2 2.8 25.1h-1.3C52 71 48 65.3 43.3 62l4.2-2.1-7.3-3.6-1.2-8.2-5.7 5.8-8-1.4 3.8 7.2-3.8 7.3 8-1.4 5.7 5.8.8-5.3c4.9 2.2 9.4 6.3 12.4 12.1h-3.4V81h-1.7v2.8h17V81h-1.7v-2.8h-3.9c3-5.8 7.6-9.9 12.4-12.1l.8 5.3 5.7-5.8 8 1.4-3.8-7.2 3.9-7.2z"/><path class="st3" d="M85.3 52.3l-8 1.4-5.7-5.8-1.2 8.1-7.3 3.6 4.2 2.1C62.6 65 58.6 70.7 57 78h-1.3l2.8-25.1 6.2 3.2-1.8-10.6 7.7-7.5L60 36.5l-4.8-9.6-4.8 9.6L39.8 38l7.7 7.5-1.8 10.6 6.2-3.2L54.6 78h-1.3c-1.6-7.3-5.6-13-10.3-16.3l4.2-2.1-7.2-3.7-1.2-8.1-5.7 5.8-8-1.4 3.8 7.2-3.8 7.2 8-1.4 5.7 5.8.8-5.3C44.5 68.1 49 72.2 52 78h-3.4v2.8h-1.7v2.8h17v-2.8h-1.7V78h-3.9c3-5.8 7.6-9.9 12.4-12.1l.8 5.3 5.7-5.8 8 1.4-3.8-7.2 3.9-7.3z"/><path class="st3" d="M85 52.1l-8 1.4-5.7-5.8-1.2 8.1-7.3 3.6 4.2 2.1c-4.7 3.4-8.7 9-10.3 16.3h-1.3l2.8-25.1 6.2 3.2-1.8-10.6 7.7-7.5-10.6-1.5-4.8-9.6-4.8 9.6-10.6 1.5 7.7 7.5-1.8 10.6 6.2-3.2 2.8 25.1h-1.3c-1.6-7.3-5.6-13-10.3-16.3l4.2-2.1-7.3-3.6-1.2-8.1-5.7 5.8-8-1.4 3.8 7.2-3.8 7.2 8-1.4 5.7 5.8.8-5.3c4.9 2.2 9.4 6.3 12.4 12.1h-3.4v2.8h-1.7v2.8h17.1v-2.8H62v-2.8h-3.9c3-5.8 7.6-9.9 12.4-12.1l.8 5.3 5.7-5.8 8 1.4-3.8-7.2 3.8-7.2z"/><path class="st3" d="M84.8 51.9l-8 1.4-5.7-5.8-1.2 8.1-7.3 3.6 4.2 2.1c-4.7 3.4-8.7 9-10.3 16.3h-1.3L58 52.5l6.2 3.2-1.8-10.6 7.7-7.5L59.5 36l-4.8-9.6L50 36l-10.6 1.5 7.7 7.5-1.8 10.6 6.2-3.2 2.8 25.1H53c-1.6-7.3-5.6-13-10.3-16.3l4.2-2.1-7.3-3.6-1.2-8.1-5.7 5.8-8-1.4 3.8 7.2-3.8 7.2 8-1.4 5.7 5.8.8-5.3c4.9 2.2 9.4 6.3 12.4 12.1h-3.4v2.8h-1.7V83h17v-2.8h-1.7v-2.8h-3.9c3-5.8 7.6-9.9 12.4-12.1l.8 5.3 5.7-5.8 8 1.4-3.8-7.1 3.8-7.2z"/><path class="st3" d="M84.6 51.7l-8 1.4-5.7-5.8-1.2 8.1-7.3 3.6 4.2 2.1c-4.7 3.4-8.7 9-10.3 16.3H55l2.8-25.1 6.2 3.2-1.8-10.6 7.7-7.5-10.6-1.5-4.8-9.6-4.8 9.6-10.6 1.5 7.7 7.5L45 55.4l6.2-3.2L54 77.3h-1.3c-1.6-7.3-5.6-13-10.3-16.3l4.2-2.1-7.3-3.6-1.2-8.1-5.7 5.8-8-1.4 3.8 7.2-3.8 7.2 8-1.4 5.7 5.8.8-5.3c4.9 2.2 9.4 6.3 12.4 12.1h-3.4V80h-1.7v2.8h17V80h-1.7v-2.8h-3.9c3-5.8 7.6-9.9 12.4-12.1l.8 5.3 5.7-5.8 8 1.4-3.8-7.2 3.9-7.1z"/><path class="st3" d="M84.3 51.4l-8 1.4-5.7-5.8-1.1 8-7.3 3.6 4.2 2.1c-4.7 3.4-8.7 9-10.3 16.3h-1.3l2.8-25 6.2 3.2L62 44.6l7.7-7.5L59 35.6 54.2 26l-4.8 9.6-10.6 1.5 7.7 7.5-1.8 10.6 6.2-3.2 2.8 25.1h-1.3c-1.6-7.3-5.6-13-10.3-16.3l4.2-2.1-7.2-3.7-1.2-8-5.7 5.8-8-1.4 3.8 7.2-3.8 7.2 8-1.4 5.7 5.8.8-5.3c4.9 2.2 9.4 6.3 12.4 12.1h-3.4v2.8H46v2.8h17v-2.8h-1.7V77h-3.9c3-5.8 7.6-9.9 12.4-12.1l.8 5.3 5.7-5.8 8 1.4-3.8-7.2 3.8-7.2z"/><path class="st3" d="M84.1 51.2l-8 1.4-5.7-5.8-1.2 8.1-7.3 3.6 4.2 2.1c-4.7 3.4-8.7 9-10.3 16.3h-1.3l2.8-25.1 6.2 3.2-1.8-10.6 7.7-7.5-10.6-1.5-4.8-9.7-4.8 9.6-10.6 1.5 7.7 7.5L44.5 55l6.2-3.2 2.8 25.1h-1.3c-1.6-7.3-5.6-13-10.3-16.3l4.2-2.1-7.3-3.6-1.2-8.1-5.6 5.8-8-1.4 3.8 7.2-3.8 7.2 8-1.4 5.7 5.8.8-5.3c4.9 2.2 9.4 6.3 12.4 12.1h-3.4v2.8h-1.7v2.8h17v-2.8h-1.7v-2.8h-3.9c3-5.8 7.6-9.9 12.4-12.1l.8 5.3 5.7-5.8 8 1.4-3.8-7.2 3.8-7.2z"/><path class="st3" d="M83.9 51l-8 1.4-5.7-5.8-1.2 8-7.3 3.6 4.2 2.1c-4.7 3.4-8.7 9-10.3 16.3h-1.3l2.8-25.1 6.2 3.2-1.8-10.6 7.7-7.5-10.6-1.5-4.8-9.6-4.8 9.6-10.6 1.5 7.7 7.5-1.8 10.6 6.2-3.2 2.8 25.1H52c-1.6-7.3-5.6-13-10.3-16.3l4.2-2.1-7.3-3.6-1.2-8.1-5.7 5.8-8-1.4 3.8 7.2-3.8 7.2 8-1.4 5.7 5.8.8-5.3c4.9 2.2 9.4 6.3 12.4 12.1h-3.4v2.8h-1.7v2.8h17v-2.8h-1.7v-2.8H57c3-5.8 7.6-9.9 12.4-12.1l.8 5.3 5.7-5.8 8 1.4-3.8-7.2 3.8-7.1z"/><path class="st3" d="M83.7 50.8l-8 1.4-5.7-5.9-1.2 8.1-7.3 3.6 4.2 2.1c-4.7 3.4-8.7 9-10.3 16.3h-1.3l2.8-25.1 6.2 3.2-1.8-10.6 7.7-7.5-10.6-1.5-4.8-9.6-4.8 9.6-10.6 1.5 7.7 7.5-1.8 10.6 6.2-3.2 2.8 25.1h-1.3c-1.6-7.3-5.6-13-10.3-16.3l4.2-2.1-7.3-3.6-1.2-8.1-5.7 5.8-8-1.4 3.8 7.2-3.8 7.2 8-1.4 5.7 5.8.8-5.3c4.9 2.2 9.4 6.3 12.4 12.1H47v2.8h-1.7v2.8h17v-2.8h-1.7v-2.8h-3.9c3-5.8 7.6-9.9 12.4-12.1l.8 5.3 5.7-5.8 8 1.4-3.7-7.1 3.8-7.2z"/><path class="st3" d="M83.4 50.5l-8 1.4-5.7-5.8-1.2 8.1-7.3 3.6 4.2 2.1c-4.7 3.4-8.7 9-10.3 16.3h-1.3l2.8-25.1 6.2 3.2L61 43.7l7.7-7.5-10.6-1.5-4.7-9.7-4.8 9.6L38 36.2l7.7 7.5-1.8 10.6 6.2-3.2 2.8 25.1h-1.3c-1.6-7.3-5.6-13-10.3-16.3l4.2-2.1-7.3-3.6-1.2-8.1-5.7 5.8-8-1.4 3.8 7.2-3.8 7.2 8-1.4 5.7 5.8.8-5.3c4.9 2.2 9.4 6.3 12.4 12.1h-3.4v2.8h-1.7v2.8h17v-2.8h-1.7v-2.8h-3.9c3-5.8 7.6-9.9 12.4-12.1l.8 5.3 5.7-5.8 8 1.4-3.8-7.2 3.8-7.2z"/><path class="st3" d="M83.2 50.3l-8 1.4-5.7-5.8-1.2 8.1-7.3 3.5 4.2 2.1c-4.7 3.4-8.7 9-10.3 16.3h-1.3l2.8-25.1 6.2 3.2-1.8-10.6 7.7-7.5-10.6-1.5-4.8-9.6-4.8 9.6L37.7 36l7.7 7.5-1.8 10.6 6.2-3.2L52.6 76h-1.3c-1.6-7.3-5.6-13-10.3-16.3l4.2-2.1-7.3-3.6-1.2-8.1-5.7 5.8-8-1.4 3.8 7.2-3.8 7.2 8-1.4 5.7 5.8.8-5.3c4.9 2.2 9.4 6.3 12.4 12.1h-3.4v2.8h-1.7v2.8h17v-2.8h-1.7v-2.8h-3.9c3-5.8 7.6-9.9 12.4-12.1l.8 5.3 5.7-5.8 8 1.4-3.8-7.2 3.9-7.2z"/><path class="st3" d="M83 50.1l-8 1.4-5.7-5.8-1.2 8.1-7.3 3.6 4.2 2.1c-4.7 3.4-8.7 9-10.3 16.3h-1.3l2.8-25.1 6.2 3.2-1.8-10.6 7.7-7.5-10.6-1.5-4.8-9.6-4.8 9.6-10.6 1.5 7.7 7.5-1.8 10.6 6.2-3.2 2.8 25.1h-1.3c-1.6-7.3-5.6-13-10.3-16.3l4.2-2.1-7.3-3.6-1.2-8.1-5.7 5.8-8-1.4 3.8 7.2-3.8 7.2 8-1.4 5.7 5.8.8-5.3c4.9 2.2 9.4 6.3 12.4 12.1h-3.4v2.8h-1.7v2.8h17v-2.8h-1.7v-2.8H56c3-5.8 7.6-9.9 12.4-12.1l.8 5.3 5.7-5.8 8 1.4-3.8-7.2 3.9-7.2z"/><path class="st3" d="M82.8 49.8l-8 1.4-5.7-5.8-1.2 8.1-7.3 3.5 4.2 2.1c-4.7 3.4-8.7 9-10.3 16.3h-1.3l2.8-25 6.2 3.2L60.4 43l7.7-7.5L57.4 34l-4.8-9.6-4.7 9.6-10.6 1.5L45 43l-1.8 10.6 6.2-3.2 2.8 25.1h-1.3c-1.6-7.3-5.6-13-10.3-16.3l4.2-2.1-7.3-3.6-1.2-8.1-5.7 5.8-8-1.4 3.8 7.2-3.8 7.2 8-1.4 5.7 5.8.8-5.3c4.9 2.2 9.4 6.3 12.4 12.1h-3.4v2.8h-1.7V81h17v-2.8h-1.7v-2.8h-3.9c3-5.8 7.6-9.9 12.4-12.1l.8 5.3 5.7-5.8 8 1.4L79 57l3.8-7.2z"/><path class="st3" d="M82.5 49.6l-8 1.4-5.7-5.8-1.2 8.1-7.3 3.6 4.2 2.1c-4.7 3.4-8.7 9-10.3 16.3H53l2.8-25.1 6.2 3.2-1.8-10.6 7.7-7.5-10.6-1.5-4.8-9.6-4.8 9.6-10.6 1.5 7.7 7.5L43 53.4l6.2-3.2L52 75.3h-1.3c-1.6-7.3-5.6-13-10.3-16.3l4.2-2.1-7.3-3.6-1.2-8.1-5.7 5.8-8-1.4 3.8 7.2-3.8 7.2 8-1.4 5.7 5.8.8-5.3c4.9 2.2 9.4 6.3 12.4 12.1h-3.4V78h-1.7v2.8h17V78h-1.7v-2.8h-3.9c3-5.8 7.6-9.9 12.4-12.1l.8 5.3 5.7-5.8 8 1.4-3.8-7.2 3.8-7.2z"/><path class="st3" d="M82.3 49.4l-8 1.4-5.7-5.8-1.2 8-7.3 3.6 4.2 2.1c-4.7 3.4-8.7 9-10.3 16.3h-1.3l2.8-25.1 6.2 3.2-1.8-10.6 7.7-7.5L57 33.5l-4.8-9.6-4.8 9.6L36.8 35l7.7 7.5-1.8 10.6 6.2-3.2L51.7 75h-1.3c-1.6-7.3-5.6-13-10.3-16.3l4.2-2.1L37 53l-1.2-8.1-5.7 5.8-8-1.4 3.8 7.2-3.8 7.2 8-1.4 5.7 5.8.8-5.3C41.5 65 46 69.1 49 74.9h-3.4v2.8H44v2.8h17v-2.8h-1.7V75h-3.9c3-5.8 7.6-9.9 12.4-12.1l.8 5.3 5.7-5.8 8 1.4-3.8-7.2 3.8-7.2z"/><path class="st3" d="M82.1 49.2l-8 1.4-5.7-5.8-1.2 8.1-7.3 3.6 4.2 2.1c-4.7 3.4-8.7 9-10.3 16.3h-1.3l2.8-25.1 6.2 3.2-1.8-10.6 7.7-7.5-10.6-1.5-4.8-9.7-4.8 9.6-10.6 1.5 7.7 7.5L42.5 53l6.2-3.2 2.8 25.1h-1.3c-1.6-7.3-5.6-13-10.3-16.3l4.2-2.1-7.3-3.6-1.2-8.1-5.7 5.8-8-1.4 3.8 7.2-3.8 7.2 8-1.4 5.7 5.8.8-5.3c4.9 2.2 9.4 6.3 12.4 12.1h-3.4v2.8h-1.7v2.8h17v-2.8H59v-2.8h-3.9c3-5.8 7.6-9.9 12.4-12.1l.8 5.3 5.7-5.8 8 1.4-3.8-7.2 3.9-7.2z"/><path class="st3" d="M81.9 48.9l-8 1.4-5.7-5.8-1.2 8-7.3 3.6 4.2 2.1c-4.7 3.4-8.7 9-10.3 16.3h-1.3l2.8-25.1 6.2 3.2L59.5 42l7.7-7.5L56.6 33l-4.8-9.6-4.8 9.7-10.6 1.5 7.7 7.5-1.8 10.6 6.2-3.2 2.8 25.1H50c-1.6-7.3-5.6-13-10.3-16.3l4.2-2.1-7.3-3.6-1.2-8.1-5.7 5.8-8-1.4 3.8 7.2-3.8 7.2 8-1.4 5.7 5.8.8-5.3c4.9 2.2 9.4 6.3 12.4 12.1h-3.4v2.8h-1.7v2.8h17v-2.8h-1.7v-2.8h-3.9c3-5.8 7.6-9.9 12.4-12.1l.8 5.3 5.7-5.8 8 1.4-3.8-7.2 3.9-7.2z"/><path class="st3" d="M81.6 48.7l-8 1.4-5.7-5.8-1.2 8.1-7.3 3.6 4.2 2.1C59 61.4 55 67 53.3 74.3H52l2.8-25.1 6.2 3.2-1.8-10.6 7.7-7.5-10.6-1.5-4.8-9.6-4.8 9.6-10.6 1.5 7.7 7.5L42 52.5l6.2-3.2 2.8 25h-1.3c-1.6-7.3-5.6-13-10.3-16.3l4.2-2.1-7.3-3.6-1.2-8.1-5.7 5.8-8-1.4 3.8 7.2-3.8 7.2 8-1.4 5.7 5.8.8-5.3c4.9 2.2 9.4 6.3 12.4 12.1H45V77h-1.7v2.8h17V77h-1.7v-2.8h-3.9c3-5.8 7.6-9.9 12.4-12.1l.8 5.3 5.7-5.8 8 1.4-3.8-7.2 3.8-7.1z"/><path class="st3" d="M81.4 48.5l-8 1.4-5.7-5.9-1.2 8.1-7.3 3.6 4.2 2.1c-4.7 3.4-8.7 9-10.3 16.3h-1.3L54.7 49l6.2 3.2L59 41.7l7.7-7.5-10.6-1.5-4.8-9.7-4.8 9.6-10.6 1.5 7.7 7.5-1.8 10.6L48 49l2.8 25.1h-1.3c-1.6-7.3-5.6-13-10.3-16.3l4.2-2.1-7.3-3.6-1.2-8.1-5.7 5.8-8-1.4 3.8 7.2-3.8 7.2 8-1.4 5.7 5.8.8-5.3c4.9 2.2 9.4 6.3 12.4 12.1h-3.4v2.8H43v2.8h17v-2.8h-1.7V74h-3.9c3-5.8 7.6-9.9 12.4-12.1l.8 5.3 5.7-5.8 8 1.4-3.8-7.2 3.9-7.1z"/><path class="st3" d="M81.2 48.3l-8 1.4-5.7-5.8-1.2 8.1-7.3 3.4 4.2 2.1c-4.7 3.4-8.7 9-10.3 16.3h-1.3l2.8-25.1 6.2 3.2-1.8-10.6 7.7-7.5-10.6-1.5-4.8-9.6-4.8 9.6L35.7 34l7.7 7.5L41.6 52l6.2-3.2 2.8 25.1h-1.3c-1.6-7.3-5.6-13-10.3-16.3l4.2-2.1-7.3-3.6-1.2-8.1-5.7 5.8-8-1.4 3.8 7.2-3.8 7.3 8-1.4 5.7 5.8.8-5.3c4.9 2.2 9.4 6.3 12.4 12.1h-3.4v2.8h-1.7v2.8h17v-2.8h-1.7v-2.8h-3.9c3-5.8 7.6-9.9 12.4-12.1l.8 5.3 5.7-5.8 8 1.4-3.8-7.2 3.9-7.2z"/><path class="st3" d="M80.9 48l-8 1.4-5.7-5.8-1.2 8.1-7.3 3.6 4.2 2.1c-4.7 3.4-8.7 9-10.3 16.3h-1.3l2.8-25.1 6.2 3.2-1.8-10.6 7.7-7.5-10.6-1.5-4.8-9.6-4.8 9.6-10.6 1.5 7.7 7.5-1.8 10.6 6.2-3.2 2.8 25.1H49c-1.6-7.3-5.6-13-10.3-16.3l4.2-2.1-7.3-3.6-1.2-8.1-5.7 5.8-8-1.4 3.8 7.2-3.8 7.2 8-1.4 5.7 5.8.8-5.3c4.9 2.2 9.4 6.3 12.4 12.1h-3.4v2.8h-1.7v2.8h17v-2.8h-1.7v-2.8H54c3-5.8 7.6-9.9 12.4-12.1l.8 5.3 5.7-5.8 8 1.4-3.8-7.2 3.8-7.2z"/><path class="st3" d="M80.7 47.8l-8 1.4-5.7-5.9-1.2 8.1-7.3 3.6 4.2 2.1c-4.7 3.4-8.7 9-10.3 16.3h-1.3l2.9-25 6.2 3.2L58.3 41l7.7-7.5L55.4 32l-4.8-9.6-4.7 9.6-10.6 1.5L43 41l-1.8 10.6 6.2-3.2 2.8 25.1h-1.3c-1.6-7.3-5.6-13-10.3-16.3l4.2-2.1-7.3-3.6-1.2-8.1-5.7 5.8-8-1.4 3.8 7.2-3.8 7.2 8-1.4 5.7 5.8.8-5.3c4.9 2.2 9.4 6.3 12.4 12.1h-3.4v2.8h-1.7V79h17v-2.8h-1.7v-2.8h-3.9c3-5.8 7.6-9.9 12.4-12.1l.8 5.3 5.7-5.8 8 1.4-3.8-7.2 3.8-7.2z"/><path class="st3" d="M80.5 47.6l-8 1.4-5.7-5.8-1.2 8.1-7.3 3.6 4.2 2.1c-4.7 3.4-8.7 9-10.3 16.3H51l2.8-25.1 6.2 3.2-1.8-10.6 7.7-7.5-10.6-1.5-4.8-9.6-4.8 9.6L35 33.3l7.7 7.5-1.8 10.6 6.2-3.2 2.8 25.1h-1.3C47 66 43 60.3 38.3 57l4.2-2.1-7.3-3.6-1.2-8.2-5.6 5.9-8-1.4 3.8 7.2-3.9 7.2 8-1.4 5.7 5.8.8-5.3c4.9 2.2 9.4 6.3 12.4 12.1h-3.4V76h-1.7v2.8h17V76h-1.7v-2.8h-3.9c3-5.8 7.6-9.9 12.4-12.1l.8 5.3 5.7-5.8 8 1.4-3.8-7.2 3.9-7.2z"/><path class="st3" d="M80.3 47.4l-8 1.4-5.7-5.8-1.2 8.1-7.3 3.6 4.2 2.1C57.6 60 53.6 65.7 52 73h-1.3l2.8-25.1 6.2 3.2-1.8-10.6 7.7-7.5L55 31.5l-4.8-9.6-4.8 9.6L34.8 33l7.7 7.5-1.8 10.6 6.2-3.2L49.7 73h-1.3c-1.6-7.3-5.6-13-10.3-16.3l4.2-2.1-7.3-3.7-1.2-8.1-5.7 5.8-8-1.4 3.8 7.2-3.8 7.2 8-1.4 5.7 5.8.8-5.3C39.5 63.1 44 67.2 47 73h-3.4v2.8h-1.7v2.8h17v-2.8h-1.7V73h-3.9c3-5.8 7.6-9.9 12.4-12.1l.8 5.3 5.7-5.8 8 1.4-3.8-7.2 3.9-7.2z"/><path class="st3" d="M80 47.1l-8 1.4-5.7-5.8-1.2 8.1-7.3 3.6 4.2 2.1c-4.7 3.4-8.7 9-10.3 16.3h-1.3l2.8-25.1 6.2 3.2-1.8-10.6 7.7-7.5-10.6-1.5-4.7-9.7-4.8 9.6-10.6 1.5 7.7 7.5-1.8 10.6 6.2-3.2 2.8 25.1h-1.3c-1.6-7.3-5.6-13-10.3-16.3l4.2-2.1-7.3-3.6-1.2-8.1-5.7 5.8-8-1.4 3.8 7.2-3.8 7.2 8-1.4 5.7 5.8.8-5.3c4.9 2.2 9.4 6.3 12.4 12.1h-3.4v2.8h-1.7v2.8h17v-2.8H57v-2.8h-3.9c3-5.8 7.6-9.9 12.4-12.1l.8 5.3L72 60l8 1.4-3.8-7.2 3.8-7.1z"/><path class="st3" d="M79.8 46.9l-8 1.4-5.7-5.8-1.2 8.1-7.3 3.6 4.2 2.1c-4.7 3.4-8.7 9-10.3 16.3h-1.3L53 47.5l6.2 3.2-1.8-10.6 7.7-7.5L54.5 31l-4.8-9.6L45 31l-10.6 1.5 7.7 7.5-1.8 10.6 6.2-3.2 2.8 25.1H48c-1.6-7.3-5.6-13-10.3-16.3l4.2-2.1-7.3-3.6-1.2-8.1-5.7 5.8-8-1.4 3.8 7.2-3.8 7.2 8-1.4 5.7 5.8.8-5.3c4.9 2.2 9.4 6.3 12.4 12.1h-3.4v2.8h-1.7V78h17v-2.8h-1.7v-2.8h-3.9c3-5.8 7.6-9.9 12.4-12.1l.8 5.3 5.7-5.8 8 1.4-3.8-7.1 3.8-7.2z"/><path class="st3" d="M79.6 46.7l-8 1.4-5.7-5.8-1.2 8.1-7.3 3.6 4.2 2.1c-4.7 3.4-8.7 9-10.3 16.3H50l2.8-25.1 6.2 3.2-1.8-10.6 7.7-7.5-10.6-1.5-4.8-9.6-4.8 9.6-10.6 1.5 7.7 7.5L40 50.5l6.2-3.2 2.8 25h-1.3c-1.6-7.3-5.6-13-10.3-16.3l4.2-2.1-7.3-3.6-1.2-8.1-5.6 5.8-8-1.4 3.8 7.2-3.8 7.2 8-1.4 5.7 5.8.8-5.3c4.9 2.2 9.4 6.3 12.4 12.1H43V75h-1.7v2.8h17V75h-1.7v-2.8h-3.9c3-5.8 7.6-9.9 12.4-12.1l.8 5.3 5.7-5.8 8 1.4-3.8-7.2 3.8-7.1z"/><path class="st3" d="M79.4 46.4l-8 1.4-5.7-5.8-1.2 8-7.3 3.6 4.2 2.1c-4.7 3.4-8.7 9-10.3 16.3h-1.3l2.8-25 6.2 3.2L57 39.6l7.7-7.5L54 30.6 49.3 21l-4.8 9.6-10.6 1.5 7.7 7.5-1.8 10.6L46 47l2.8 25.1h-1.3c-1.6-7.3-5.6-13-10.3-16.3l4.2-2.1-7.3-3.7-1.2-8-5.7 5.8-8-1.4 3.8 7.2-3.8 7.2 8-1.4 5.7 5.8.8-5.3c4.9 2.2 9.4 6.3 12.4 12.1h-3.4v2.8H41v2.8h17v-2.8h-1.7V72h-3.9c3-5.8 7.6-9.9 12.4-12.1l.8 5.3 5.7-5.8 8 1.4-3.8-7.2 3.9-7.2z"/><path class="st3" d="M79.1 46.2l-8 1.4-5.7-5.8-1.2 8.1-7.2 3.5 4.2 2.1c-4.7 3.4-8.7 9-10.3 16.3h-1.3l2.8-25.1 6.2 3.2-1.8-10.6 7.7-7.5-10.6-1.5-4.8-9.6-4.8 9.6-10.6 1.5 7.7 7.5L39.5 50l6.2-3.2 2.8 25.1h-1.3c-1.6-7.3-5.6-13-10.3-16.3l4.2-2.1-7.3-3.6-1.2-8.1-5.6 5.8-8-1.4 3.8 7.2-3.8 7.2 8-1.4 5.7 5.8.8-5.3c4.9 2.2 9.4 6.3 12.4 12.1h-3.4v2.8h-1.7v2.8h17v-2.8h-1.7v-2.8h-3.9c3-5.8 7.6-9.9 12.4-12.1l.8 5.3 5.7-5.8 8 1.4-3.8-7.2 3.8-7.2z"/><path class="st3" d="M78.9 46l-8 1.4-5.7-5.8-1.2 8-7.3 3.6 4.2 2.1c-4.7 3.4-8.7 9-10.3 16.3h-1.3l2.8-25.1 6.2 3.2-1.8-10.6 7.7-7.5-10.6-1.5-4.8-9.6-4.8 9.6-10.6 1.5 7.7 7.5-1.8 10.6 6.2-3.2 2.8 25.1H47c-1.6-7.3-5.6-13-10.3-16.3l4.2-2.1-7.3-3.6-1.2-8.1-5.7 5.8-8-1.4 3.8 7.2-3.8 7.2 8-1.4 5.7 5.8.8-5.3c4.9 2.2 9.4 6.3 12.4 12.1h-3.4v2.8h-1.7v2.8h17v-2.8h-1.7v-2.8H52c3-5.8 7.6-9.9 12.4-12.1l.8 5.3 5.7-5.8 8 1.4-3.8-7.2 3.8-7.1z"/><path class="st3" d="M78.7 45.8l-8 1.4-5.7-5.9-1.2 8.1-7.3 3.6 4.2 2.1c-4.7 3.4-8.7 9-10.3 16.3h-1.3L52 46.3l6.2 3.2L56.3 39l7.7-7.5L53.4 30l-4.8-9.6-4.8 9.6-10.6 1.5 7.7 7.5-1.8 10.6 6.2-3.2 2.8 25.1h-1.3c-1.6-7.3-5.6-13-10.3-16.3l4.2-2.1-7.3-3.6-1.2-8.1-5.7 5.8-8-1.4 3.8 7.2-3.8 7.2 8-1.4 5.7 5.8.8-5.3c4.9 2.2 9.4 6.3 12.4 12.1H42v2.8h-1.7V77h17v-2.8h-1.7v-2.8h-3.9c3-5.8 7.6-9.9 12.4-12.1l.8 5.3 5.7-5.8 8 1.4-3.7-7.2 3.8-7.2z"/><path class="st3" d="M78.5 45.5l-8 1.4-5.7-5.8-1.2 8.1-7.3 3.6 4.2 2.1c-4.7 3.4-8.7 9-10.3 16.3h-1.3l2.8-25.1 6.2 3.2-1.8-10.6 7.7-7.5-10.6-1.5-4.8-9.7-4.8 9.6L33 31.2l7.7 7.5-1.8 10.6 6.2-3.2 2.8 25.1h-1.3c-1.6-7.3-5.6-13-10.3-16.3l4.2-2.1-7.3-3.6-1.2-8.1-5.7 5.8-8-1.4 3.8 7.2-3.8 7.3 8-1.4 5.7 5.8.8-5.3c4.9 2.2 9.4 6.3 12.4 12.1h-3.4V74h-1.7v2.8h17V74h-1.7v-2.8h-3.9c3-5.8 7.6-9.9 12.4-12.1l.8 5.3 5.7-5.8 8 1.4-3.8-7.2 3.9-7.3z"/><path class="st3" d="M78.2 45.3l-8 1.4-5.7-5.8-1.2 8.1-7.3 3.6 4.2 2.1c-4.7 3.4-8.7 9-10.3 16.3h-1.3l2.8-25.1 6.2 3.2-1.8-10.6 7.7-7.5-10.6-1.5-4.8-9.6-4.8 9.6L32.8 31l7.7 7.5-1.8 10.6 6.2-3.2L47.7 71h-1.3c-1.6-7.3-5.6-13-10.3-16.3l4.2-2.1L33 49l-1.2-8.1-5.7 5.8-8-1.4 3.8 7.2-3.8 7.2 8-1.4 5.7 5.8.8-5.3C37.4 61 42 65.2 45 70.9h-3.4v2.8h-1.7v2.8h17v-2.8h-1.7v-2.8h-3.9c3-5.8 7.6-9.9 12.4-12.1l.8 5.3 5.7-5.8 8 1.4-3.8-7.2 3.8-7.2z"/><path class="st3" d="M78 45.1l-8 1.4-5.7-5.8-1.2 8.1-7.3 3.6 4.2 2.1c-4.7 3.4-8.7 9-10.3 16.3h-1.3l2.8-25.1 6.2 3.2-1.8-10.6 7.7-7.5-10.6-1.5-4.8-9.6-4.8 9.6-10.6 1.5 7.7 7.5-1.8 10.6 6.2-3.2 2.8 25.1h-1.3c-1.6-7.3-5.6-13-10.3-16.3l4.2-2.1-7.3-3.6-1.2-8.1-5.7 5.8-8-1.4 3.8 7.2-3.8 7.2 8-1.4 5.7 5.8.8-5.3c4.9 2.2 9.4 6.3 12.4 12.1h-3.4v2.8h-1.7v2.8h17.1v-2.8H55v-2.8h-3.9c3-5.8 7.6-9.9 12.4-12.1l.8 5.3 5.7-5.8 8 1.4-3.8-7.2 3.8-7.2z"/><path class="st3" d="M77.8 44.9l-8 1.4-5.7-5.8-1.2 8.1-7.3 3.4 4.2 2.1c-4.7 3.4-8.7 9-10.3 16.3h-1.3L51 45.3l6.2 3.2-1.8-10.6 7.7-7.5L52.5 29l-4.8-9.6-4.8 9.6-10.6 1.5L40 38l-1.8 10.6 6.2-3.2 2.8 25.1h-1.3c-1.6-7.3-5.6-13-10.3-16.3l4.2-2.1-7.3-3.6-1.2-8.1-5.7 5.8-8-1.4 3.8 7.2-3.8 7.2 8-1.4 5.7 5.8.8-5.3c4.9 2.2 9.4 6.3 12.4 12.1h-3.4v2.8h-1.7V76h17v-2.8h-1.7v-2.8h-3.9c3-5.8 7.6-9.9 12.4-12.1l.8 5.3 5.7-5.8 8 1.4-3.7-7.1 3.8-7.2z"/><path class="st3" d="M77.6 44.6l-8 1.4-5.7-5.8-1.2 8.1-7.3 3.6 4.2 2.1c-4.7 3.4-8.7 9-10.3 16.3H48l2.8-25.1 6.2 3.2-1.8-10.6 7.7-7.5-10.6-1.5-4.8-9.6-4.8 9.6-10.6 1.5 7.7 7.5L38 48.4l6.2-3.2L47 70.3h-1.3C44 63 40 57.3 35.3 53.9l4.2-2.1-7.3-3.6-1.2-8.1-5.6 5.9-8-1.4 3.8 7.2-3.8 7.2 8-1.4 5.7 5.8.8-5.3c4.9 2.2 9.4 6.3 12.4 12.1h-3.4V73h-1.7v2.8h17V73h-1.7v-2.8h-3.9c3-5.8 7.6-9.9 12.4-12.1l.8 5.3 5.7-5.8 8 1.4-3.8-7.2 3.9-7.2z"/><path class="st3" d="M77.3 44.4l-8 1.4-5.7-5.8-1.2 8-7.3 3.6 4.2 2.1c-4.7 3.4-8.7 9-10.3 16.3h-1.3l2.9-25 6.2 3.2L55 37.6l7.7-7.5L52 28.6 47.2 19l-4.8 9.6-10.6 1.5 7.7 7.5-1.8 10.6 6.2-3.2 2.8 25h-1.3c-1.6-7.3-5.6-13-10.3-16.3l4.2-2.1L32 48l-1.2-8.1-5.7 5.8-8-1.4 3.8 7.2-3.8 7.2 8-1.4 5.7 5.8.8-5.3C36.5 60 41 64.1 44 69.9h-3.4v2.8H39v2.8h17v-2.8h-1.7V70h-3.9c3-5.8 7.6-9.9 12.4-12.1l.8 5.3 5.7-5.8 8 1.4-3.8-7.2 3.8-7.2z"/><path class="st3" d="M77.1 44.2l-8 1.4-5.7-5.8-1.2 8.1-7.3 3.6 4.2 2.1c-4.7 3.4-8.7 9-10.3 16.3h-1.3l2.8-25.1 6.2 3.2-1.8-10.6 7.7-7.5-10.6-1.5-4.8-9.7-4.8 9.6-10.6 1.5 7.7 7.5L37.5 48l6.2-3.2 2.8 25.1h-1.3c-1.6-7.3-5.6-13-10.3-16.3l4.2-2.1-7.3-3.6-1.2-8.1-5.6 5.8-8-1.4 3.8 7.2-3.8 7.2 8-1.4 5.7 5.8.8-5.3c4.9 2.2 9.4 6.3 12.4 12.1h-3.4v2.8h-1.7v2.8h17v-2.8h-1.7v-2.8h-3.9c3-5.8 7.6-9.9 12.4-12.1l.8 5.3 5.7-5.8 8 1.4-3.8-7.2 3.8-7.2z"/><path class="st3" d="M76.9 44l-8 1.4-5.7-5.8-1.2 7.9-7.3 3.6 4.2 2.1c-4.7 3.4-8.7 9-10.3 16.3h-1.3l2.8-25.1 6.2 3.2L54.5 37l7.7-7.5L51.6 28l-4.8-9.6-4.8 9.7-10.6 1.5 7.7 7.5-1.8 10.6 6.2-3.2 2.8 25.1H45c-1.6-7.3-5.6-13-10.3-16.3l4.2-2.1-7.3-3.6-1.2-8.1-5.7 5.8-8-1.4 3.8 7.2-3.8 7.2 8-1.4 5.7 5.8.8-5.3c4.9 2.2 9.4 6.3 12.4 12.1h-3.4v2.8h-1.7v2.8h17v-2.8h-1.7v-2.8h-3.9c3-5.8 7.6-9.9 12.4-12.1l.8 5.3 5.7-5.8 8 1.4-3.8-7.2 3.9-7.1z"/><path class="st3" d="M76.6 43.7l-8 1.4-5.7-5.8-1.2 8.1-7.3 3.6 4.2 2.1c-4.7 3.4-8.7 9-10.3 16.3H47l2.8-25.1 6.2 3.2-1.8-10.6 7.7-7.5-10.6-1.5-4.8-9.6-4.8 9.6-10.6 1.5 7.7 7.5L37 47.5l6.2-3.2L46 69.4h-1.3c-1.6-7.3-5.6-13-10.3-16.3l4.2-2.1-7.3-3.6-1.2-8.1-5.7 5.8-8-1.4 3.8 7.2-3.8 7.2 8-1.4 5.7 5.8.8-5.3c4.9 2.2 9.4 6.3 12.4 12.1H40v2.8h-1.7v2.8h17v-2.8h-1.7v-2.8h-3.9c3-5.8 7.6-9.9 12.4-12.1l.8 5.3 5.7-5.8 8 1.4-3.8-7.2 3.8-7.2z"/><path class="st3" d="M76.4 43.5l-8 1.4-5.7-5.9-1.2 8.1-7.3 3.6 4.2 2.1c-4.7 3.4-8.7 9-10.3 16.3h-1.3L49.6 44l6.2 3.2L54 36.7l7.7-7.5-10.6-1.5-4.8-9.7-4.8 9.6-10.6 1.5 7.7 7.5-1.8 10.6L43 44l2.8 25.1h-1.3c-1.6-7.3-5.6-13-10.3-16.3l4.2-2.1-7.3-3.6L30 39l-5.7 5.8-8-1.4 3.8 7.2-3.8 7.2 8-1.4 5.7 5.8.8-5.3c4.9 2.2 9.4 6.3 12.4 12.1h-3.4v2.8h-1.7v2.8H55v-2.8h-1.7V69h-3.9c3-5.8 7.6-9.9 12.4-12.1l.8 5.3 5.7-5.8 8 1.4-3.8-7.2 3.9-7.1z"/><path class="st3" d="M76.2 43.3l-8 1.4-5.7-5.8-1.2 8.1-7.3 3.5 4.2 2.1c-4.7 3.4-8.7 9-10.3 16.3h-1.3l2.8-25.1 6.2 3.2-1.8-10.6 7.7-7.5-10.6-1.5-4.8-9.6-4.8 9.6L30.7 29l7.7 7.5-1.8 10.6 6.2-3.2L45.6 69h-1.3c-1.6-7.3-5.6-13-10.3-16.3l4.2-2.1-7.3-3.6-1.2-8.1-5.7 5.8-8-1.4 3.8 7.2-3.8 7.2 8-1.4 5.7 5.8.8-5.3c4.9 2.2 9.4 6.3 12.4 12.1h-3.4v2.8h-1.7v2.8h17v-2.8h-1.7v-2.8h-3.9c3-5.8 7.6-9.9 12.4-12.1l.8 5.3 5.7-5.8 8 1.4-3.8-7.2 3.9-7.2z"/><path class="st3" d="M76 43.1l-8 1.4-5.7-5.8-1.2 8.1-7.3 3.6 4.2 2.1c-4.7 3.4-8.7 9-10.3 16.3h-1.3l2.8-25.1 6.2 3.2-1.8-10.6 7.7-7.5-10.6-1.5-4.8-9.6-4.8 9.6-10.6 1.5 7.7 7.5-1.8 10.6 6.2-3.2 2.8 25.1h-1.3c-1.6-7.3-5.6-13-10.3-16.3l4.2-2.1-7.3-3.6-1.2-8.1-5.7 5.8-8-1.4 3.8 7.2-3.8 7.2 8-1.4 5.7 5.8.8-5.3c4.9 2.2 9.4 6.3 12.4 12.1h-3.4v2.8h-1.7v2.8h17v-2.8h-1.7v-2.8H49c3-5.8 7.6-9.9 12.4-12.1l.8 5.3 5.7-5.8 8 1.4-3.8-7.2 3.9-7.2z"/><path class="st3" d="M75.7 42.8l-8 1.4-5.7-5.8-1.2 8.1-7.2 3.5 4.2 2.1c-4.7 3.4-8.7 9-10.3 16.3h-1.3l2.8-25 6.2 3.2L53.4 36l7.7-7.5L50.4 27l-4.8-9.6-4.7 9.6-10.6 1.5L38 36l-1.8 10.6 6.2-3.2 2.8 25.1h-1.3c-1.6-7.3-5.6-13-10.3-16.3l4.2-2.1-7.3-3.6-1.2-8.1-5.7 5.8-8-1.4 3.8 7.2-3.8 7.2 8-1.4 5.7 5.8.8-5.3c4.9 2.2 9.4 6.3 12.4 12.1h-3.4v2.8h-1.7V74h17v-2.8h-1.7v-2.8h-3.9c3-5.8 7.6-9.9 12.4-12.1l.8 5.3 5.7-5.8 8 1.4-3.8-7.2 3.8-7.2z"/><path class="st3" d="M75.5 42.6l-8 1.4-5.7-5.8-1.2 8.1-7.3 3.6 4.2 2.1c-4.7 3.4-8.7 9-10.3 16.3H46l2.8-25.1 6.2 3.2-1.8-10.6 7.7-7.5-10.6-1.5-4.8-9.6-4.8 9.6L30 28.3l7.7 7.5-1.8 10.6 6.2-3.2 2.8 25.1h-1.3C42 61 38 55.3 33.3 52l4.2-2.1-7.3-3.6-1.2-8.1-5.6 5.8-8-1.4 3.8 7.2-3.8 7.2 8-1.4 5.7 5.8.8-5.3c4.9 2.2 9.4 6.3 12.4 12.1h-3.4V71h-1.7v2.8h17V71h-1.7v-2.8h-3.9c3-5.8 7.6-9.9 12.4-12.1l.8 5.3 5.7-5.8 8 1.4-3.8-7.2 3.8-7.2z"/><path class="st3" d="M75.3 42.4l-8 1.4-5.7-5.8-1.2 8-7.3 3.6 4.2 2.1C52.6 55 48.6 60.7 47 68h-1.3l2.8-25.1 6.2 3.2-1.8-10.6 7.7-7.5L50 26.5l-4.8-9.6-4.8 9.6L29.8 28l7.7 7.5-1.8 10.6 6.2-3.2L44.7 68h-1.3c-1.6-7.3-5.6-13-10.3-16.3l4.2-2.1L30 46l-1.2-8.1-5.7 5.8-8-1.4 3.8 7.2-3.8 7.2 8-1.4 5.7 5.8.8-5.3C34.5 58 39 62.1 42 67.9h-3.4v2.8H37v2.8h17v-2.8h-1.7V68h-3.9c3-5.8 7.6-9.9 12.4-12.1l.8 5.3 5.7-5.8 8 1.4-3.8-7.2 3.8-7.2z"/><path class="st3" d="M75.1 42.1l-8 1.4-5.7-5.8-1.2 8.1-7.3 3.6 4.2 2.1c-4.7 3.4-8.7 9-10.3 16.3h-1.3l2.8-25.1 6.2 3.2-1.8-10.6 7.7-7.5-10.6-1.5-4.8-9.6-4.8 9.6-10.6 1.5 7.7 7.5-1.8 10.6 6.2-3.2 2.8 25.1h-1.3c-1.6-7.3-5.6-13-10.3-16.3l4.2-2.1-7.3-3.6-1.2-8.1-5.7 5.8-8-1.4 3.8 7.2-3.8 7.2 8-1.4 5.7 5.8.8-5.3c4.9 2.2 9.4 6.3 12.4 12.1h-3.4v2.8h-1.7v2.8h17v-2.8H52v-2.8h-3.9c3-5.8 7.6-9.9 12.4-12.1l.8 5.3 5.7-5.8 8 1.4-3.8-7.2 3.9-7.2z"/><path class="st3" d="M74.8 41.9l-8 1.4-5.7-5.8-1.1 8-7.3 3.6 4.2 2.1c-4.7 3.4-8.7 9-10.3 16.3h-1.3l2.8-25.1 6.2 3.2L52.5 35l7.7-7.5L49.6 26l-4.8-9.6-4.8 9.7-10.6 1.5 7.7 7.5-1.8 10.6 6.2-3.2 2.8 25.1H43c-1.6-7.3-5.6-13-10.3-16.3l4.2-2.1-7.3-3.6-1.2-8.1-5.7 5.8-8-1.4 3.8 7.2-3.8 7.2 8-1.4 5.7 5.8.8-5.3c4.9 2.2 9.4 6.3 12.4 12.1h-3.4v2.8h-1.7v2.8h17v-2.8h-1.7v-2.8h-3.9c3-5.8 7.6-9.9 12.4-12.1l.8 5.3 5.7-5.8 8 1.4-3.8-7.2 3.8-7.2z"/><path class="st3" d="M74.6 41.7l-8 1.4-5.7-5.8-1.2 8.1-7.3 3.6 4.2 2.1C52 54.4 48 60 46.3 67.3H45l2.8-25.1 6.2 3.2-1.8-10.6 7.7-7.5-10.6-1.5-4.8-9.6-4.8 9.6-10.6 1.5 7.7 7.5L35 45.5l6.2-3.2 2.8 25h-1.3c-1.6-7.3-5.6-13-10.3-16.3l4.2-2.1-7.3-3.6-1.2-8.1-5.7 5.8-8-1.4 3.8 7.2-3.8 7.2 8-1.4 5.7 5.8.8-5.3c4.9 2.2 9.4 6.3 12.4 12.1h-3.4V70h-1.7v2.8h17V70h-1.7v-2.8h-3.9c3-5.8 7.6-9.9 12.4-12.1l.8 5.3 5.7-5.8 8 1.4-3.8-7.2 3.9-7.1z"/><path class="st3" d="M74.4 41.5l-8 1.4-5.7-5.9-1.2 8.1-7.3 3.6 4.2 2.1c-4.7 3.4-8.7 9-10.3 16.3h-1.3L47.7 42l6.2 3.2L52 34.7l7.7-7.5-10.6-1.5-4.8-9.7-4.8 9.6-10.6 1.5 7.7 7.5-1.8 10.6L41 42l2.8 25.1h-1.3c-1.6-7.3-5.6-13-10.3-16.3l4.2-2.1-7.3-3.6-1.2-8.1-5.7 5.8-8-1.4 3.8 7.2-3.8 7.2 8-1.4 5.7 5.8.8-5.3c4.9 2.2 9.4 6.3 12.4 12.1h-3.4v2.8H36v2.8h17v-2.8h-1.7V67h-3.9c3-5.8 7.6-9.9 12.4-12.1l.8 5.3 5.7-5.8 8 1.4-3.8-7.2 3.9-7.1z"/><path class="st3" d="M74.2 41.2l-8 1.4-5.7-5.8-1.2 8.1-7.3 3.5 4.2 2.1c-4.7 3.4-8.7 9-10.3 16.3h-1.3l2.8-25.1 6.2 3.2-1.8-10.6 7.7-7.5-10.6-1.5-4.8-9.6-4.8 9.6-10.6 1.5 7.7 7.5L34.6 45l6.2-3.2 2.8 25.1h-1.3c-1.6-7.3-5.6-13-10.3-16.3l4.2-2.1-7.3-3.6-1.2-8.1-5.7 5.8-8-1.4 3.8 7.2-3.8 7.2 8-1.4 5.7 5.8.8-5.3c4.9 2.2 9.4 6.3 12.4 12.1h-3.4v2.8h-1.7v2.8h17v-2.8h-1.7v-2.8h-3.9c3-5.8 7.6-9.9 12.4-12.1l.8 5.3 5.7-5.8 8 1.4-3.8-7.2 3.9-7.2z"/><path class="st3" d="M73.9 41l-8 1.4-5.7-5.8-1.2 8.1-7.3 3.6 4.2 2.1c-4.7 3.4-8.7 9-10.3 16.3h-1.3l2.8-25.1 6.2 3.2-1.8-10.6 7.7-7.5-10.6-1.5-4.8-9.6-4.8 9.6-10.6 1.5 7.7 7.5-1.8 10.6 6.2-3.2 2.8 25.1H42c-1.6-7.3-5.6-13-10.3-16.3l4.2-2.1-7.3-3.6-1.2-8.1-5.7 5.8-8-1.4 3.8 7.2-3.8 7.2 8-1.4 5.7 5.8.8-5.3c4.9 2.2 9.4 6.3 12.4 12.1h-3.4v2.8h-1.7v2.8h17v-2.8h-1.7v-2.8H47c3-5.8 7.6-9.9 12.4-12.1l.8 5.3 5.7-5.8 8 1.4-3.8-7.2 3.8-7.2z"/><path class="st3" d="M73.7 40.8l-8 1.4-5.7-5.9-1.2 8.1-7.3 3.6 4.2 2.1c-4.7 3.4-8.7 9-10.3 16.3h-1.3L47 41.3l6.2 3.2L51.3 34l7.7-7.5L48.4 25l-4.8-9.6-4.8 9.6-10.6 1.5 7.7 7.5-1.8 10.6 6.2-3.2 2.8 25.1h-1.3c-1.6-7.3-5.6-13-10.3-16.3l4.2-2.1-7.3-3.6-1.2-8.1-5.7 5.8-8-1.4 3.8 7.2-3.8 7.2 8-1.4 5.7 5.8.8-5.3c4.9 2.2 9.4 6.3 12.4 12.1H37v2.8h-1.7V72h17v-2.8h-1.7v-2.8h-3.9c3-5.8 7.6-9.9 12.4-12.1l.8 5.3 5.7-5.8 8 1.4-3.7-7.2 3.8-7.2z"/><path class="st3" d="M73.5 40.6l-8 1.4-5.7-5.8-1.2 8.1-7.3 3.6 4.2 2.1c-4.7 3.4-8.7 9-10.3 16.3h-1.3l2.8-25.1 6.2 3.2-1.8-10.6 7.7-7.5-10.6-1.5-4.8-9.6-4.8 9.6L28 26.3l7.7 7.5-1.8 10.6 6.2-3.2 2.8 25.1h-1.3C40 59 36 53.3 31.3 50l4.2-2.1-7.3-3.6-1.2-8.2-5.7 5.8-8-1.4 3.8 7.2-3.8 7.3 8-1.4 5.7 5.8.8-5.3c4.9 2.2 9.4 6.3 12.4 12.1h-3.4V69h-1.7v2.8h17V69h-1.7v-2.8h-3.9c3-5.8 7.6-9.9 12.4-12.1l.8 5.3 5.7-5.8 8 1.4-3.8-7.2 3.9-7.2z"/><path class="st3" d="M73.2 40.3l-8 1.4-5.7-5.8-1.2 8.1-7.3 3.6 4.2 2.1C50.6 53 46.6 58.7 45 66h-1.3l2.8-25.1 6.2 3.2-1.8-10.6 7.7-7.5L48 24.5l-4.8-9.6-4.8 9.6L27.8 26l7.7 7.5-1.8 10.6 6.2-3.2L42.6 66h-1.3c-1.6-7.3-5.6-13-10.3-16.3l4.2-2.1-7.2-3.7-1.2-8.1-5.7 5.8-8-1.4 3.8 7.2-3.8 7.2 8-1.4 5.7 5.8.8-5.3C32.5 56.1 37 60.2 40 66h-3.4v2.8h-1.7v2.8h17v-2.8h-1.7V66h-3.9c3-5.8 7.6-9.9 12.4-12.1l.8 5.3 5.7-5.8 8 1.4-3.8-7.2 3.8-7.3z"/><path class="st3" d="M73 40.1l-8 1.4-5.7-5.8-1.2 8.1-7.3 3.6 4.2 2.1c-4.7 3.4-8.7 9-10.3 16.3h-1.3l2.8-25.1 6.2 3.2-1.8-10.6 7.7-7.5-10.6-1.5-4.8-9.6-4.8 9.6-10.6 1.5 7.7 7.5-1.8 10.6 6.2-3.2 2.8 25.1h-1.3c-1.6-7.3-5.6-13-10.3-16.3l4.2-2.1-7.3-3.6-1.2-8.1-5.7 5.8-8-1.4 3.8 7.2-3.8 7.2 8-1.4 5.7 5.8.8-5.3c4.9 2.2 9.4 6.3 12.4 12.1h-3.4v2.8h-1.7v2.8h17.1v-2.8H50v-2.8h-3.9c3-5.8 7.6-9.9 12.4-12.1l.8 5.3 5.7-5.8 8 1.4-3.8-7.2 3.8-7.2z"/><path class="st3" d="M72.8 39.9l-8 1.4-5.7-5.8-1.2 8.1-7.3 3.6 4.2 2.1c-4.7 3.4-8.7 9-10.3 16.3h-1.3L46 40.5l6.2 3.2-1.8-10.6 7.7-7.5L47.5 24l-4.8-9.6L38 24l-10.6 1.5 7.7 7.5-1.8 10.6 6.2-3.2 2.8 25.1H41c-1.6-7.3-5.6-13-10.3-16.3l4.2-2.1-7.3-3.6-1.2-8.1-5.7 5.8-8-1.4 3.8 7.2-3.8 7.2 8-1.4 5.7 5.8.8-5.3c4.9 2.2 9.4 6.3 12.4 12.1h-3.4v2.8h-1.7V71h17v-2.8h-1.7v-2.8h-3.9c3-5.8 7.6-9.9 12.4-12.1l.8 5.3 5.7-5.8 8 1.4-3.8-7.1 3.8-7.2z"/><path class="st3" d="M72.6 39.7l-8 1.4-5.7-5.8-1.2 8.1-7.3 3.6 4.2 2.1c-4.7 3.4-8.7 9-10.3 16.3H43l2.8-25.1 6.2 3.2-1.8-10.6 7.7-7.5-10.6-1.5-4.8-9.6-4.8 9.6-10.6 1.5 7.7 7.5L33 43.4l6.2-3.2L42 65.3h-1.3c-1.6-7.3-5.6-13-10.3-16.3l4.2-2.1-7.3-3.6-1.2-8.1-5.7 5.8-8-1.4 3.8 7.2-3.8 7.2 8-1.4 5.7 5.8.8-5.3c4.9 2.2 9.4 6.3 12.4 12.1h-3.4V68h-1.7v2.8h17V68h-1.7v-2.8h-3.9c3-5.8 7.6-9.9 12.4-12.1l.8 5.3 5.7-5.8 8 1.4-3.8-7.2 3.9-7.1z"/><path class="st3" d="M72.3 39.4l-8 1.4-5.7-5.8-1.1 8-7.3 3.6 4.2 2.1c-4.7 3.4-8.7 9-10.3 16.3h-1.3l2.8-25 6.2 3.2L50 32.6l7.7-7.5L47 23.6 42.2 14l-4.8 9.6-10.6 1.5 7.7 7.5-1.8 10.6 6.2-3.2 2.8 25.1h-1.3c-1.6-7.3-5.6-13-10.3-16.3l4.2-2.1-7.2-3.7-1.2-8-5.7 5.8-8-1.4 3.8 7.2-3.8 7.2 8-1.4 5.7 5.8.8-5.3c4.9 2.2 9.4 6.3 12.4 12.1h-3.4v2.8H34v2.8h17v-2.8h-1.7V65h-3.9c3-5.8 7.6-9.9 12.4-12.1l.8 5.3 5.7-5.8 8 1.4-3.8-7.2 3.8-7.2z"/><path class="st3" d="M72.1 39.2l-8 1.4-5.7-5.8-1.2 8.1-7.3 3.6 4.2 2.1c-4.7 3.4-8.7 9-10.3 16.3h-1.3l2.8-25.1 6.2 3.2-1.8-10.6 7.7-7.5-10.6-1.5-4.8-9.7-4.8 9.6-10.6 1.5 7.7 7.5L32.5 43l6.2-3.2 2.8 25.1h-1.3c-1.6-7.3-5.6-13-10.3-16.3l4.2-2.1-7.3-3.6-1.2-8.1-5.6 5.8-8-1.4 3.8 7.2-3.8 7.2 8-1.4 5.7 5.8.8-5.3c4.9 2.2 9.4 6.3 12.4 12.1h-3.4v2.8h-1.7v2.8h17v-2.8h-1.7v-2.8h-3.9c3-5.8 7.6-9.9 12.4-12.1l.8 5.3 5.7-5.8 8 1.4-3.8-7.2 3.8-7.2z"/><path class="st3" d="M71.9 39l-8 1.4-5.7-5.8-1.2 8-7.3 3.6 4.2 2.1c-4.7 3.4-8.7 9-10.3 16.3h-1.3l2.8-25.1 6.2 3.2-1.8-10.6 7.7-7.5-10.6-1.5-4.8-9.6-4.8 9.6-10.6 1.5 7.7 7.5-1.8 10.6 6.2-3.2 2.8 25.1H40c-1.6-7.3-5.6-13-10.3-16.3l4.2-2.1-7.3-3.6-1.2-8.1-5.7 5.8-8-1.4 3.8 7.2-3.8 7.2 8-1.4 5.7 5.8.8-5.3c4.9 2.2 9.4 6.3 12.4 12.1h-3.4v2.8h-1.7v2.8h17v-2.8h-1.7v-2.8H45c3-5.8 7.6-9.9 12.4-12.1l.8 5.3 5.7-5.8 8 1.4-3.8-7.2 3.8-7.1z"/><path class="st3" d="M71.7 38.7l-8 1.4-5.7-5.8-1.2 8.1-7.3 3.6 4.2 2.1c-4.7 3.4-8.7 9-10.3 16.3h-1.3l2.8-25.1 6.2 3.2-1.8-10.6 7.7-7.5-10.6-1.5-4.8-9.6-4.8 9.6-10.6 1.5 7.7 7.5-1.8 10.6 6.2-3.2L41 64.4h-1.3c-1.6-7.3-5.6-13-10.3-16.3l4.2-2.1-7.3-3.6-1.2-8.1-5.7 5.8-8-1.4 3.8 7.2-3.8 7.2 8-1.4 5.7 5.8.8-5.3c4.9 2.2 9.4 6.3 12.4 12.1H35v2.8h-1.7v2.8h17v-2.8h-1.7v-2.8h-3.9c3-5.8 7.6-9.9 12.4-12.1l.8 5.3 5.7-5.8 8 1.4-3.8-7.2 3.9-7.2z"/><path class="st3" d="M71.4 38.5l-8 1.4-5.7-5.8-1.2 8.1-7.3 3.6 4.2 2.1c-4.7 3.4-8.7 9-10.3 16.3h-1.3l2.8-25.1 6.2 3.2L49 31.7l7.7-7.5-10.6-1.5-4.7-9.7-4.8 9.6L26 24.2l7.7 7.5-1.8 10.6 6.2-3.2 2.8 25.1h-1.3c-1.6-7.3-5.6-13-10.3-16.3l4.2-2.1-7.3-3.6-1.2-8.1-5.7 5.8-8-1.4 3.8 7.2-3.8 7.2 8-1.4 5.7 5.8.8-5.3c4.9 2.2 9.4 6.3 12.4 12.1h-3.4v2.8h-1.7v2.8h17v-2.8h-1.7v-2.8h-3.9c3-5.8 7.6-9.9 12.4-12.1l.8 5.3 5.7-5.8 8 1.4-3.8-7.2 3.8-7.2z"/><path class="st3" d="M71.2 38.3l-8 1.4-5.7-5.8-1.2 8.1-7.3 3.5 4.2 2.1c-4.7 3.4-8.7 9-10.3 16.3h-1.3l2.8-25.1 6.2 3.2-1.8-10.6 7.7-7.5-10.6-1.5-4.8-9.6-4.8 9.6L25.7 24l7.7 7.5-1.8 10.6 6.2-3.2L40.6 64h-1.3c-1.6-7.3-5.6-13-10.3-16.3l4.2-2.1-7.3-3.6-1.2-8.1-5.7 5.8-8-1.4 3.8 7.2-3.8 7.2 8-1.4 5.7 5.8.8-5.3c4.9 2.2 9.4 6.3 12.4 12.1h-3.4v2.8h-1.7v2.8h17v-2.8h-1.7v-2.8h-3.9c3-5.8 7.6-9.9 12.4-12.1l.8 5.3 5.7-5.8 8 1.4-3.8-7.2 3.9-7.2z"/><path class="st3" d="M71 38.1l-8 1.4-5.7-5.8-1.2 8.1-7.3 3.6 4.2 2.1c-4.7 3.4-8.7 9-10.3 16.3h-1.3l2.8-25.1 6.2 3.2-1.8-10.6 7.7-7.5-10.6-1.5-4.8-9.6-4.8 9.6-10.6 1.5 7.7 7.5-1.8 10.6 6.2-3.2 2.8 25.1h-1.3c-1.6-7.3-5.6-13-10.3-16.3l4.2-2.1-7.3-3.6-1.2-8.1-5.7 5.8-8-1.4 3.8 7.2-3.8 7.2 8-1.4 5.7 5.8.8-5.3c4.9 2.2 9.4 6.3 12.4 12.1h-3.4v2.8h-1.7v2.8h17v-2.8h-1.7v-2.8H44c3-5.8 7.6-9.9 12.4-12.1l.8 5.3 5.7-5.8 8 1.4-3.8-7.2 3.9-7.2z"/><path class="st3" d="M70.8 37.8l-8 1.4-5.7-5.8-1.2 8.1-7.3 3.5 4.2 2.1c-4.7 3.4-8.7 9-10.3 16.3h-1.3l2.8-25 6.2 3.2L48.4 31l7.7-7.5L45.4 22l-4.8-9.6-4.7 9.6-10.6 1.5L33 31l-1.8 10.6 6.2-3.2 2.8 25.1h-1.3c-1.6-7.3-5.6-13-10.3-16.3l4.2-2.1-7.3-3.6-1.2-8.1-5.7 5.8-8-1.4 3.8 7.2-3.8 7.2 8-1.4 5.7 5.8.8-5.3c4.9 2.2 9.4 6.3 12.4 12.1h-3.4v2.8h-1.7V69h17v-2.8h-1.7v-2.8h-3.9c3-5.8 7.6-9.9 12.4-12.1l.8 5.3 5.7-5.8 8 1.4L67 45l3.8-7.2z"/><path class="st3" d="M70.5 37.6l-8 1.4-5.7-5.8-1.2 8.1-7.3 3.6 4.2 2.1c-4.7 3.4-8.7 9-10.3 16.3H41l2.8-25.1 6.2 3.2-1.8-10.6 7.7-7.5-10.6-1.5-4.8-9.6-4.8 9.6-10.6 1.5 7.7 7.5L31 41.4l6.2-3.2L40 63.3h-1.3c-1.6-7.3-5.6-13-10.3-16.3l4.2-2.1-7.3-3.6-1.2-8.1-5.7 5.8-8-1.4 3.8 7.2-3.8 7.2 8-1.4 5.7 5.8.8-5.3c4.9 2.2 9.4 6.3 12.4 12.1h-3.4V66h-1.7v2.8h17V66h-1.7v-2.8h-3.9c3-5.8 7.6-9.9 12.4-12.1l.8 5.3 5.7-5.8 8 1.4-3.8-7.2 3.8-7.2z"/><path class="st3" d="M70.3 37.4l-8 1.4-5.7-5.8-1.2 8-7.3 3.6 4.2 2.1c-4.7 3.4-8.7 9-10.3 16.3h-1.3l2.8-25.1 6.2 3.2-1.8-10.6 7.7-7.5L45 21.5l-4.8-9.6-4.8 9.6L24.8 23l7.7 7.5-1.8 10.6 6.2-3.2L39.7 63h-1.3c-1.6-7.3-5.6-13-10.3-16.3l4.2-2.1L25 41l-1.2-8.1-5.7 5.8-8-1.4 3.8 7.2-3.8 7.2 8-1.4 5.7 5.8.8-5.3C29.5 53 34 57.1 37 62.9h-3.4v2.8H32v2.8h17v-2.8h-1.7V63h-3.9c3-5.8 7.6-9.9 12.4-12.1l.8 5.3 5.7-5.8 8 1.4-3.8-7.2 3.8-7.2z"/><path class="st3" d="M70.1 37.2l-8 1.4-5.7-5.8-1.2 8.1-7.3 3.6 4.2 2.1c-4.7 3.4-8.7 9-10.3 16.3h-1.3l2.8-25.1 6.2 3.2-1.8-10.6 7.7-7.5-10.6-1.5-4.8-9.7-4.8 9.6-10.6 1.5 7.7 7.5L30.5 41l6.2-3.2 2.8 25.1h-1.3c-1.6-7.3-5.6-13-10.3-16.3l4.2-2.1-7.3-3.6-1.2-8.1-5.7 5.8-8-1.4 3.8 7.2-3.8 7.2 8-1.4 5.7 5.8.8-5.3c4.9 2.2 9.4 6.3 12.4 12.1h-3.4v2.8h-1.7v2.8h17v-2.8H47v-2.8h-3.9c3-5.8 7.6-9.9 12.4-12.1l.8 5.3 5.7-5.8 8 1.4-3.8-7.2 3.9-7.2z"/></g></g><path class="st4" d="M36.2 33.7L40 67.6l3.8-33.9zm19.7 10.6c-7.3 3.2-14 11.6-14.8 23.3 3.1-9.1 9.5-15.3 16.4-17.6-.8-1.7-1.4-3.6-1.6-5.7zm-31.8 0c7.3 3.2 14 11.6 14.8 23.3-3.1-9.1-9.5-15.3-16.4-17.6.8-1.7 1.4-3.6 1.6-5.7z"/><path class="st5" d="M62.1 38.5l8-1.3-9.9 7.1z"/><path class="st6" d="M70.1 37.2l-3.8 7.2-6.1-.1z"/><path class="st5" d="M66.3 44.4l3.8 7.2-9.9-7.3zm-11.1-3.6l1.2-8.1 3.8 11.6z"/><path class="st6" d="M56.4 32.7l5.7 5.8-1.9 5.8zm0 23.3l-1.2-8 5-3.7z"/><path class="st6" d="M60.2 44.3H47.9l7.3-3.5zm9.9 7.3L62 50.2l-1.8-5.9z"/><path class="st5" d="M55.2 48l-7.3-3.7h12.3z"/><path class="st5" d="M62 50.2L56.4 56l3.8-11.7zM17.9 38.5l-8-1.3 9.9 7.1z"/><path class="st6" d="M9.9 37.2l3.8 7.2 6.1-.1z"/><path class="st5" d="M13.7 44.4l-3.8 7.2 9.9-7.3zm11.1-3.6l-1.2-8.1-3.8 11.6z"/><path class="st6" d="M23.6 32.7l-5.7 5.8 1.9 5.8zm0 23.3l1.2-8-5-3.7zm-3.8-11.7h12.3l-7.3-3.5zm-9.9 7.3l8.1-1.4 1.8-5.9z"/><path class="st5" d="M24.8 48l7.3-3.7H19.8zM18 50.2l5.6 5.8-3.8-11.7z"/><g class="st7"><path class="st8" d="M36.2 33.7L40 67.6V33.7z"/></g><path class="st5" d="M44.8 21.3L40 11.7v16.1z"/><path class="st6" d="M40 11.7l-4.8 9.6 4.8 6.5z"/><path class="st5" d="M35.2 21.3l-10.6 1.6L40 27.8zm12.5 9.1l7.7-7.5L40 27.8z"/><path class="st6" d="M55.4 22.9l-10.6-1.6-4.8 6.5zM30.5 41l9.5-5.1v-8.1zM40 27.8L49.5 41l-1.8-10.6z"/><path class="st6" d="M24.6 22.9l7.7 7.5 7.7-2.6z"/><path class="st5" d="M40 35.9l9.5 5.1L40 27.8zm-7.7-5.5L30.5 41 40 27.8z"/><path class="st4" d="M33.4 62.8H47v5.5H33.4z"/><path class="st5" d="M31.8 65.6h16.9v2.8H31.8z"/></svg>