<svg id="objects" xmlns="http://www.w3.org/2000/svg" xmlns:xlink="http://www.w3.org/1999/xlink" viewBox="0 0 80 80"><style>.st0{fill:#fbc02d}.st1{clip-path:url(#SVGID_2_)}.st2{opacity:.5;fill:#fbc02d}.st3{fill:#00acc1}.st4{fill:#fdd835;stroke:#00acc1;stroke-width:8.7553;stroke-miterlimit:10}.st5{fill:#4dd0e1}.st6{fill:#26c6da}.st7{fill:#e53935}.st8{fill:#ef5350}</style><circle class="st0" cx="40" cy="40" r="40"/><defs><circle id="SVGID_1_" cx="40" cy="40" r="40"/></defs><clipPath id="SVGID_2_"><use xlink:href="#SVGID_1_" overflow="visible"/></clipPath><g class="st1"><path class="st2" d="M54.2 52.9l-2.7-15.8L62.9 26l-15.8-2.3L40 9.3l-7.1 14.4L17.1 26l11.5 11.2L25.9 53l12.9-6.8v3.3c0 1.5-.2 2.9-.6 4.3-.5 1.6-1.3 3-2.5 4.2l-.7.7v1.7h-3.8v4h-2.3l-1.2 2.9h24.6l-1.5-2.9h-2v-4H45v-1.7l-.6-.7c-1.2-1.2-2-2.6-2.5-4.2-.4-1.4-.6-2.9-.6-4.3v-3.3l12.9 6.7z"/><path class="st2" d="M54.4 53.2l-2.7-15.8 11.5-11.2-15.8-2.3-7.2-14.3L33.1 24l-15.8 2.3 11.5 11.2-2.7 15.8L39 46.5v3.3c0 1.5-.2 2.9-.6 4.3-.5 1.6-1.3 3-2.5 4.2l-.6.6v1.7h-3.8v4h-2.3L28 67.5h24.6L51 64.6h-2v-4h-3.8v-1.7l-.6-.6c-1.2-1.2-2-2.6-2.5-4.2-.4-1.4-.6-2.9-.6-4.3v-3.3l12.9 6.7z"/><path class="st2" d="M54.6 53.4l-2.7-15.8 11.5-11.2-15.8-2.3-7.1-14.3-7.1 14.4-15.8 2.3L29 37.6l-2.7 15.8 12.9-6.8v3.3c0 1.5-.2 2.9-.6 4.3-.5 1.6-1.3 3-2.5 4.2l-.6.6v1.7h-3.8v4h-2.3l-1.2 2.9h24.6l-1.5-2.9h-2v-4h-3.8V59l-.6-.6c-1.2-1.2-2-2.6-2.5-4.2-.4-1.4-.6-2.9-.6-4.3v-3.3l12.8 6.8z"/><path class="st2" d="M54.9 53.6l-2.7-15.8 11.5-11.2-15.8-2.3L40.7 10l-7.1 14.4-15.8 2.3 11.5 11.2-2.7 15.8 12.9-6.8v3.3c0 1.5-.2 2.9-.6 4.3-.5 1.6-1.3 3-2.5 4.2l-.6.6V61H32v4h-2.3l-1.3 3H53l-1.5-2.9h-2v-4h-3.8v-1.7l-.6-.6c-1.2-1.2-2-2.6-2.5-4.2-.4-1.4-.6-2.9-.6-4.3V47l12.9 6.6z"/><path class="st2" d="M55.1 53.9l-2.7-15.8 11.5-11.2L48 24.6l-7-14.3-7.1 14.4L18 26.9l11.5 11.2-2.7 15.8 12.9-6.8v3.3c0 1.5-.2 2.9-.6 4.3-.5 1.6-1.3 3-2.5 4.2l-.6.7v1.7h-3.8v4h-2.3l-1.2 2.9h24.6l-1.5-2.9h-2v-4H46v-1.7l-.7-.6c-1.2-1.2-2-2.6-2.5-4.2-.4-1.4-.6-2.9-.6-4.3v-3.3l12.9 6.7z"/><path class="st2" d="M55.4 54.1l-2.7-15.8 11.5-11.2-15.8-2.3-7.1-14.4-7.1 14.4-15.8 2.3 11.5 11.2L27 54.1l12.9-6.8v3.3c0 1.5-.2 2.9-.6 4.3-.5 1.6-1.3 3-2.5 4.2l-.6.6v1.7h-3.8v4h-2.3l-1.2 2.9h24.6L52 65.6h-2v-4h-3.8v-1.7l-.6-.6c-1.2-1.2-2-2.6-2.5-4.2-.4-1.4-.6-2.9-.6-4.3v-3.3l12.9 6.6z"/><path class="st2" d="M55.6 54.4l-2.7-15.8 11.5-11.2-15.8-2.3-7.1-14.4-7.1 14.4-15.8 2.3L30 38.6l-2.7 15.8 12.9-6.8v3.3c0 1.5-.2 2.9-.6 4.3-.5 1.6-1.3 3-2.5 4.2l-.6.6v1.7h-3.8v4h-2.3l-1.2 2.9h24.6l-1.5-2.9h-2v-4h-3.8V60l-.6-.6c-1.2-1.2-2-2.6-2.5-4.2-.4-1.4-.6-2.9-.6-4.3v-3.3l12.8 6.8z"/><path class="st2" d="M55.8 54.6l-2.7-15.8 11.5-11.2-15.8-2.3L41.7 11l-7.1 14.4-15.8 2.3 11.5 11.2-2.7 15.8 12.9-6.8v3.3c0 1.5-.2 2.9-.6 4.3-.5 1.6-1.3 3-2.5 4.2l-.6.6V62H33v4h-2.3l-1.2 2.9H54L52.4 66h-2v-4h-3.8v-1.7l-.6-.6c-1.2-1.2-2-2.6-2.5-4.2-.3-1.5-.5-2.9-.5-4.4v-3.3l12.8 6.8z"/><path class="st2" d="M56.1 54.8L53.4 39l11.5-11.2L49 25.6l-7.1-14.4-7.1 14.4L19 27.9l11.5 11.2-2.7 15.8 12.9-6.8v3.3c0 1.5-.2 2.9-.6 4.3-.5 1.6-1.3 3-2.5 4.2l-.6.6v1.7h-3.8v4h-2.3l-1.2 2.9h24.6l-1.5-2.9h-2v-4H47v-1.7l-.6-.6c-1.2-1.2-2-2.6-2.5-4.2-.4-1.4-.6-2.9-.6-4.3v-3.3l12.8 6.7z"/><path class="st2" d="M56.3 55.1l-2.7-15.8 11.5-11.2-15.8-2.3-7.1-14.4-7.1 14.4-15.8 2.3 11.5 11.2L28 55.1l12.9-6.8v3.3c0 1.5-.2 2.9-.6 4.3-.5 1.6-1.3 3-2.5 4.2l-.6.6v1.7h-3.8v4h-2.3l-1.2 2.9h24.6L53 66.4h-2v-4h-3.8v-1.7l-.6-.6c-1.2-1.2-2-2.6-2.5-4.2-.4-1.4-.6-2.9-.6-4.3v-3.3l12.8 6.8z"/><path class="st2" d="M56.5 55.3l-2.7-15.8 11.5-11.2L49.5 26l-7.1-14.4L35.3 26l-15.8 2.3L31 39.5l-2.7 15.8 12.9-6.8v3.3c0 1.5-.2 2.9-.6 4.3-.5 1.6-1.3 3-2.5 4.2l-.7.7v1.7h-3.8v4h-2.3l-1.2 2.9h24.6l-1.5-2.9h-2v-4h-3.8V61l-.6-.6c-1.2-1.2-2-2.6-2.5-4.2-.4-1.4-.6-2.9-.6-4.3v-3.3l12.8 6.7z"/><path class="st2" d="M56.8 55.5l-2.7-15.8 11.5-11.2-15.8-2.3-7.1-14.4-7.1 14.4-15.8 2.3 11.5 11.2-2.7 15.8 12.9-6.8V52c0 1.5-.2 2.9-.6 4.3-.5 1.6-1.3 3-2.5 4.2l-.6.6V63H34v4h-2.3l-1.2 2.9h24.6L53.4 67h-2v-4h-3.8v-1.7l-.6-.6c-1.2-1.2-2-2.6-2.5-4.2-.4-1.4-.6-2.9-.6-4.3v-3.3l12.9 6.6z"/><path class="st2" d="M57 55.8L54.3 40l11.5-11.2L50 26.5l-7.1-14.4-7.1 14.4L20 28.8 31.4 40l-2.7 15.8L41.6 49v3.3c0 1.5-.2 2.9-.6 4.3-.5 1.6-1.3 3-2.5 4.2l-.6.6v1.7h-3.8v4h-2.3L30.6 70h24.6l-1.5-2.9h-2v-4h-3.8v-1.7l-.6-.6c-1.2-1.2-2-2.6-2.5-4.2-.4-1.4-.6-2.9-.6-4.3V49L57 55.8z"/><path class="st2" d="M57.3 56l-2.7-15.8L66 29.1l-15.8-2.3-7.1-14.4L36 26.8l-15.8 2.3 11.5 11.2L28.9 56l12.9-6.8v3.3c0 1.5-.2 2.9-.6 4.3-.5 1.6-1.3 3-2.5 4.2l-.6.6v1.7h-3.8v4H32l-1.2 2.9h24.6l-1.5-2.9h-2v-4h-3.8v-1.7l-.6-.6c-1.2-1.2-2-2.6-2.5-4.2-.4-1.4-.6-2.9-.6-4.3v-3.3L57.3 56z"/><path class="st2" d="M57.5 56.3l-2.7-15.8 11.5-11.2L50.4 27l-7.1-14.4L36.2 27l-15.8 2.3 11.5 11.2-2.7 15.8L42 49.5v3.3c0 1.5-.2 2.9-.6 4.3-.5 1.6-1.3 3-2.5 4.2l-.5.7v1.7h-3.8v4h-2.3L31 70.6h24.6l-1.5-2.9h-2v-4h-3.8V62l-.6-.6c-1.2-1.2-2-2.6-2.5-4.2-.4-1.4-.6-2.9-.6-4.3v-3.3l12.9 6.7z"/><path class="st2" d="M57.7 56.5L55 40.7l11.5-11.2-15.8-2.3-7.1-14.4-7.1 14.4-15.8 2.3 11.5 11.2-2.7 15.8 12.9-6.8V53c0 1.5-.2 2.9-.6 4.3-.5 1.6-1.3 3-2.5 4.2l-.6.6v1.7h-3.8v4h-2.3l-1.2 2.9H56l-1.5-2.9h-2v-4h-3.8v-1.7l-.6-.6c-1.2-1.2-2-2.6-2.5-4.2-.4-1.4-.6-2.9-.6-4.3v-3.3l12.7 6.8z"/><path class="st2" d="M58 56.7L55.3 41l11.5-11.2L51 27.5l-7.1-14.4-7.1 14.4L21 29.8 32.3 41l-2.7 15.8L42.5 50v3.3c0 1.5-.2 2.9-.6 4.3-.5 1.6-1.3 3-2.5 4.2l-.6.6v1.7H35v4h-2.3L31.5 71h24.6l-1.5-2.9h-2v-4h-3.8v-1.7l-.6-.6c-1.2-1.2-2-2.6-2.5-4.2-.4-1.4-.6-2.9-.6-4.3V50L58 56.7z"/><path class="st2" d="M58.2 57l-2.7-15.8L67 30l-15.8-2.3L44 13.4l-7 14.3L21.1 30l11.5 11.2L29.9 57l12.9-6.8v3.3c0 1.5-.2 2.9-.6 4.3-.5 1.6-1.3 3-2.5 4.2l-.6.6v1.7h-3.8v4H33l-1.2 2.9h24.6l-1.5-2.9h-2v-4H49v-1.7l-.6-.6c-1.2-1.2-2-2.6-2.5-4.2-.4-1.4-.6-2.9-.6-4.3v-3.3L58.2 57z"/><path class="st2" d="M58.4 57.2l-2.7-15.8 11.5-11.2L51.4 28l-7.1-14.4L37.2 28l-15.8 2.3 11.5 11.2-2.7 15.8L43 50.4v3.3c0 1.5-.2 2.9-.6 4.3-.5 1.6-1.3 3-2.5 4.2l-.6.6v1.7h-3.8v4h-2.3l-1.2 3h24.6l-1.5-2.9h-2v-4h-3.8v-1.7l-.6-.6c-1.2-1.2-2-2.6-2.5-4.2-.4-1.4-.6-2.9-.6-4.3v-3.3l12.8 6.7z"/><path class="st2" d="M58.7 57.4L56 41.7l11.5-11.2-15.8-2.3-7.1-14.4-7.1 14.4-15.8 2.3 11.5 11.2-2.7 15.8 12.9-6.8V54c0 1.5-.2 2.9-.6 4.3-.5 1.6-1.3 3-2.5 4.2l-.6.6v1.7h-3.8v4h-2.3l-1.2 2.9H57l-1.5-2.9h-2v-4h-3.8v-1.7l-.6-.6c-1.2-1.2-2-2.6-2.5-4.2-.4-1.4-.6-2.9-.6-4.3v-3.3l12.7 6.7z"/><path class="st2" d="M58.9 57.7l-2.7-15.8 11.5-11.2-15.8-2.3L44.8 14l-7.1 14.4-15.8 2.3 11.5 11.2-2.7 15.8 12.9-6.8v3.3c0 1.5-.2 2.9-.6 4.3-.5 1.6-1.3 3-2.5 4.2l-.6.6V65H36v4h-2.3l-1.2 3H57l-1.5-2.9h-2v-4h-3.8v-1.7l-.6-.6c-1.2-1.2-2-2.6-2.5-4.2-.4-1.4-.6-2.9-.6-4.3V51l12.9 6.7z"/><path class="st2" d="M59.2 57.9l-2.7-15.8L67.9 31l-15.8-2.3L45 14.3l-7.1 14.4L22.1 31l11.5 11.2L30.9 58l12.9-6.8v3.3c0 1.5-.2 2.9-.6 4.3-.5 1.6-1.3 3-2.5 4.2l-.7.7v1.7h-3.8v4h-2.3l-1.2 2.9h24.6l-1.5-2.9h-2v-4H50v-1.7l-.6-.7c-1.2-1.2-2-2.6-2.5-4.2-.4-1.4-.6-2.9-.6-4.3v-3.3l12.9 6.7z"/><path class="st2" d="M59.4 58.2l-2.7-15.8 11.5-11.2-15.8-2.3-7.1-14.4-7.1 14.4-15.8 2.3 11.5 11.2-2.7 15.8 12.9-6.8v3.3c0 1.5-.2 2.9-.6 4.3-.5 1.6-1.3 3-2.5 4.2l-.6.6v1.7h-3.8v4h-2.3l-1.2 2.9h24.6L56 69.6h-2v-4h-3.8v-1.7l-.6-.6c-1.2-1.2-2-2.6-2.5-4.2-.4-1.4-.6-2.9-.6-4.3v-3.3l12.9 6.7z"/><path class="st2" d="M59.6 58.4l-2.7-15.8 11.5-11.2-15.8-2.3-7.1-14.4-7.1 14.4-15.8 2.3L34 42.6l-2.7 15.8 12.9-6.8v3.3c0 1.5-.2 2.9-.6 4.3-.5 1.6-1.3 3-2.5 4.2l-.6.6v1.7h-3.8v4h-2.3l-1.2 2.9h24.6l-1.5-2.9h-2v-4h-3.8V64l-.6-.6c-1.2-1.2-2-2.6-2.5-4.2-.4-1.4-.6-2.9-.6-4.3v-3.3l12.8 6.8z"/><path class="st2" d="M59.9 58.6l-2.7-15.8 11.5-11.2-15.8-2.3L45.7 15l-7.1 14.4-15.8 2.3 11.5 11.2-2.7 15.8 12.9-6.8v3.3c0 1.5-.2 2.9-.6 4.3-.5 1.6-1.3 3-2.5 4.2l-.6.6V66H37v4h-2.3l-1.3 3H58l-1.5-2.9h-2v-4h-3.8v-1.7l-.6-.6c-1.2-1.2-2-2.6-2.5-4.2-.4-1.4-.6-2.9-.6-4.3V52l12.9 6.6z"/><path class="st2" d="M60.1 58.9l-2.7-15.8 11.5-11.2L53 29.6l-7.1-14.4-7.1 14.4L23 31.9l11.5 11.2-2.7 15.8 12.9-6.8v3.3c0 1.5-.2 2.9-.6 4.3-.5 1.6-1.3 3-2.5 4.2l-.6.7v1.7h-3.8v4h-2.3l-1.2 2.9h24.6l-1.5-2.9h-2v-4H51v-1.7l-.7-.6c-1.2-1.2-2-2.6-2.5-4.2-.4-1.4-.6-2.9-.6-4.3v-3.3l12.9 6.7z"/><path class="st2" d="M60.3 59.1l-2.7-15.8 11.5-11.2-15.8-2.3-7.1-14.4-7.1 14.4-15.8 2.3 11.5 11.2L32 59.1l12.9-6.8v3.3c0 1.5-.2 2.9-.6 4.3-.5 1.6-1.3 3-2.5 4.2l-.6.6v1.7h-3.8v4h-2.3l-1.2 2.9h24.6L57 70.6h-2v-4h-3.8v-1.7l-.6-.6c-1.2-1.2-2-2.6-2.5-4.2-.4-1.4-.6-2.9-.6-4.3v-3.3l12.8 6.6z"/><path class="st2" d="M60.6 59.3l-2.7-15.8 11.5-11.2L53.6 30l-7.1-14.4L39.4 30l-15.8 2.3L35 43.6l-2.7 15.8 12.9-6.8v3.3c0 1.5-.2 2.9-.6 4.3-.5 1.6-1.3 3-2.5 4.2l-.6.6v1.7h-3.8v4h-2.3l-1.2 2.9h24.6l-1.5-2.9h-2v-4h-3.8V65l-.6-.6c-1.2-1.2-2-2.6-2.5-4.2-.4-1.4-.6-2.9-.6-4.3v-3.3l12.8 6.7z"/><path class="st2" d="M60.8 59.6l-2.7-15.8 11.5-11.2-15.8-2.3L46.7 16l-7.1 14.4-15.8 2.3 11.5 11.2-2.7 15.8 12.9-6.8v3.3c0 1.5-.2 2.9-.6 4.3-.5 1.6-1.3 3-2.5 4.2l-.6.6V67H38v4h-2.3l-1.2 2.9h24.6L57.4 71h-2v-4h-3.8v-1.7l-.6-.6c-1.2-1.2-2-2.6-2.5-4.2-.4-1.4-.6-2.9-.6-4.3v-3.3l12.9 6.7z"/><path class="st2" d="M61.1 59.8L58.4 44l11.5-11.2L54 30.6l-7.1-14.4-7.1 14.4L24 32.9 35.4 44l-2.7 15.8L45.6 53v3.3c0 1.5-.2 2.9-.6 4.3-.5 1.6-1.3 3-2.5 4.2l-.6.6v1.7h-3.8v4h-2.3L34.6 74h24.6l-1.5-2.9h-2v-4h-3.8v-1.7l-.6-.6c-1.2-1.2-2-2.6-2.5-4.2-.4-1.4-.6-2.9-.6-4.3V53l12.9 6.8z"/><path class="st2" d="M61.3 60.1l-2.7-15.8 11.5-11.2-15.8-2.3-7.1-14.4L40 30.8l-15.8 2.3 11.5 11.2L33 60.1l12.9-6.8v3.3c0 1.5-.2 2.9-.6 4.3-.5 1.6-1.3 3-2.5 4.2l-.6.6v1.7h-3.8v4H36l-1.2 2.9h24.6l-1.5-2.9h-2v-4h-3.8v-1.7l-.6-.6c-1.2-1.2-2-2.6-2.5-4.2-.4-1.4-.6-2.9-.6-4.3v-3.3l12.9 6.8z"/><path class="st2" d="M61.5 60.3l-2.7-15.8 11.5-11.2L54.4 31l-7.1-14.4-7 14.4-15.8 2.3L36 44.5l-2.7 15.8 12.9-6.8v3.3c0 1.5-.2 2.9-.6 4.3-.5 1.6-1.3 3-2.5 4.2l-.7.7v1.7h-3.8v4h-2.3l-1.2 2.9h24.6l-1.5-2.9h-2v-4h-3.8V66l-.6-.6c-1.2-1.2-2-2.6-2.5-4.2-.4-1.4-.6-2.9-.6-4.3v-3.3l12.8 6.7z"/><path class="st2" d="M61.8 60.5l-2.7-15.8 11.5-11.2-15.8-2.3-7.1-14.4-7.1 14.4-15.8 2.3 11.5 11.2-2.7 15.8 12.9-6.8V57c0 1.5-.2 2.9-.6 4.3-.5 1.6-1.3 3-2.5 4.2l-.6.6V68H39v4h-2.3l-1.2 2.9h24.6L58.4 72h-2v-4h-3.8v-1.7l-.6-.7c-1.2-1.2-2-2.6-2.5-4.2-.4-1.4-.6-2.9-.6-4.3v-3.3l12.9 6.7z"/><path class="st2" d="M62 60.8L59.3 45l11.5-11.2L55 31.5l-7.1-14.4-7.1 14.4L25 33.8 36.4 45l-2.7 15.8L46.5 54v3.3c0 1.5-.2 2.9-.6 4.3-.5 1.6-1.3 3-2.5 4.2l-.6.6v1.7H39v4h-2.3L35.5 75h24.6l-1.5-2.9h-2v-4h-3.8v-1.7l-.6-.6c-1.2-1.2-2-2.6-2.5-4.2-.4-1.4-.6-2.9-.6-4.3V54L62 60.8z"/><path class="st2" d="M62.2 61l-2.7-15.8L71 34.1l-15.8-2.3-7.1-14.4L41 31.8l-15.8 2.3 11.5 11.2L33.9 61l12.9-6.8v3.3c0 1.5-.2 2.9-.6 4.3-.5 1.6-1.3 3-2.5 4.2l-.6.6v1.7h-3.8v4H37l-1.2 2.9h24.6l-1.5-2.9h-2v-4h-3.8v-1.7l-.6-.6c-1.2-1.2-2-2.6-2.5-4.2-.4-1.4-.6-2.9-.6-4.3v-3.3L62.2 61z"/><path class="st2" d="M62.5 61.2l-2.7-15.8 11.5-11.2L55.4 32l-7.1-14.4L41.2 32l-15.8 2.3 11.5 11.2-2.7 15.8L47 54.5v3.3c0 1.5-.2 2.9-.6 4.3-.5 1.6-1.3 3-2.5 4.2l-.6.7v1.7h-3.8v4h-2.3L36 75.6h24.6l-1.5-2.9h-2v-4h-3.8V67l-.6-.6c-1.2-1.2-2-2.6-2.5-4.2-.4-1.4-.6-2.9-.6-4.3v-3.3l12.9 6.6z"/><path class="st2" d="M62.7 61.5L60 45.7l11.5-11.2-15.8-2.3-7.1-14.4-7.1 14.4-15.8 2.3 11.5 11.2-2.7 15.8 12.9-6.8V58c0 1.5-.2 2.9-.6 4.3-.5 1.6-1.3 3-2.5 4.2l-.6.6v1.7h-3.8v4h-2.3l-1.2 2.9H61l-1.5-2.9h-2v-4h-3.8v-1.7l-.6-.6c-1.2-1.2-2-2.6-2.5-4.2-.4-1.4-.6-2.9-.6-4.3v-3.3l12.7 6.8z"/><path class="st2" d="M63 61.7l-2.7-15.8 11.5-11.2L56 32.4 48.9 18l-7.1 14.4L26 34.7l11.5 11.2-2.7 15.8L47.5 55v3.3c0 1.5-.2 2.9-.6 4.3-.5 1.6-1.3 3-2.5 4.2l-.6.6v1.7H40v4h-2.3L36.5 76h24.6l-1.5-2.9h-2v-4h-3.8v-1.7l-.6-.6c-1.2-1.2-2-2.6-2.5-4.2-.4-1.4-.6-2.9-.6-4.3V55L63 61.7z"/><path class="st2" d="M63.2 62l-2.7-15.8L72 35l-15.8-2.3L49 18.4l-7.1 14.4L26.1 35l11.5 11.2L34.9 62l12.9-6.8v3.3c0 1.5-.2 2.9-.6 4.3-.5 1.6-1.3 3-2.5 4.2l-.6.6v1.7h-3.8v4H38l-1.2 2.9h24.6l-1.5-2.9h-2v-4H54v-1.7l-.6-.6c-1.2-1.2-2-2.6-2.5-4.2-.4-1.4-.6-2.9-.6-4.3v-3.3L63.2 62z"/><path class="st2" d="M63.4 62.2l-2.7-15.8 11.5-11.2-15.8-2.3-7.1-14.4-7.1 14.4-15.8 2.3 11.5 11.2-2.7 15.8L48 55.4v3.3c0 1.5-.2 2.9-.6 4.3-.5 1.6-1.3 3-2.5 4.2l-.6.6v1.7h-3.8v4h-2.3l-1.2 3h24.6L60 73.7h-2v-4h-3.8V68l-.6-.6c-1.2-1.2-2-2.6-2.5-4.2-.4-1.4-.6-2.9-.6-4.3v-3.3l12.9 6.6z"/><path class="st2" d="M63.7 62.4L61 46.7l11.5-11.2-15.8-2.3-7.1-14.4-7.1 14.4-15.8 2.3L38 46.7l-2.7 15.8 12.9-6.8V59c0 1.5-.2 2.9-.6 4.3-.5 1.6-1.3 3-2.5 4.2l-.6.6v1.7h-3.8v4h-2.3l-1.2 2.9h24.6l-1.5-2.9h-2v-4h-3.8v-1.7l-.6-.6c-1.2-1.2-2-2.6-2.5-4.2-.4-1.4-.6-2.9-.6-4.3v-3.3l12.9 6.7z"/><path class="st2" d="M63.9 62.7l-2.7-15.8 11.5-11.2-15.8-2.3L49.8 19l-7.1 14.4-15.8 2.3 11.5 11.2-2.7 15.8 12.9-6.8v3.3c0 1.5-.2 2.9-.6 4.3-.5 1.6-1.3 3-2.5 4.2l-.6.6V70H41v4h-2.3l-1.3 3H62l-1.5-2.9h-2v-4h-3.8v-1.7l-.6-.6c-1.2-1.2-2-2.6-2.5-4.2-.4-1.4-.6-2.9-.6-4.3V56l12.9 6.7z"/><path class="st2" d="M64.1 62.9l-2.7-15.8L72.9 36l-15.8-2.3L50 19.3l-7.1 14.4L27.1 36l11.5 11.2L35.9 63l12.9-6.8v3.3c0 1.5-.2 2.9-.6 4.3-.5 1.6-1.3 3-2.5 4.2l-.7.7v1.7h-3.8v4h-2.3l-1.2 2.9h24.6l-1.5-2.9h-2v-4H55v-1.7l-.7-.7c-1.2-1.2-2-2.6-2.5-4.2-.4-1.4-.6-2.9-.6-4.3v-3.3l12.9 6.7z"/><path class="st2" d="M64.4 63.1l-2.7-15.8 11.5-11.2-15.8-2.3-7.1-14.4-7.1 14.4-15.8 2.3 11.5 11.2L36 63.1l12.9-6.8v3.3c0 1.5-.2 2.9-.6 4.3-.5 1.6-1.3 3-2.5 4.2l-.6.6v1.7h-3.8v4h-2.3l-1.2 2.9h24.6L61 74.6h-2v-4h-3.8v-1.7l-.6-.6c-1.2-1.2-2-2.6-2.5-4.2-.4-1.4-.6-2.9-.6-4.3v-3.3l12.9 6.6z"/><path class="st2" d="M64.6 63.4l-2.7-15.8 11.5-11.2-15.8-2.3-7.1-14.4-7.1 14.4-15.8 2.3L39 47.6l-2.7 15.8 12.9-6.8v3.3c0 1.5-.2 2.9-.6 4.3-.5 1.6-1.3 3-2.5 4.2l-.6.6v1.7h-3.8v4h-2.3l-1.2 2.9h24.6l-1.5-2.9h-2v-4h-3.8V69l-.6-.6c-1.2-1.2-2-2.6-2.5-4.2-.4-1.4-.6-2.9-.6-4.3v-3.3l12.8 6.8z"/><path class="st2" d="M64.9 63.6l-2.7-15.8 11.5-11.2-15.8-2.3L50.7 20l-7.1 14.4-15.8 2.3 11.5 11.2-2.7 15.8 12.9-6.8v3.3c0 1.5-.2 2.9-.6 4.3-.5 1.6-1.3 3-2.5 4.2l-.6.6V71H42v4h-2.3l-1.2 2.9H63L61.5 75h-2v-4h-3.8v-1.7l-.6-.6c-1.2-1.2-2-2.6-2.5-4.2-.4-1.4-.6-2.9-.6-4.3v-3.3l12.9 6.7z"/><path class="st2" d="M65.1 63.9l-2.7-15.8 11.5-11.2L58 34.6l-7.1-14.4-7.1 14.4L28 36.9l11.5 11.2-2.7 15.8 12.9-6.8v3.3c0 1.5-.2 2.9-.6 4.3-.5 1.6-1.3 3-2.5 4.2l-.6.7v1.7h-3.8v4h-2.3l-1.2 2.9h24.6l-1.5-2.9h-2v-4H56v-1.7l-.7-.6c-1.2-1.2-2-2.6-2.5-4.2-.4-1.4-.6-2.9-.6-4.3v-3.3l12.9 6.7z"/><path class="st2" d="M65.3 64.1l-2.7-15.8 11.5-11.2-15.8-2.3-7.1-14.4-7.1 14.4-15.8 2.3 11.5 11.2L37 64.1l12.9-6.8v3.3c0 1.5-.2 2.9-.6 4.3-.5 1.6-1.3 3-2.5 4.2l-.6.6v1.7h-3.8v4h-2.3l-1.2 2.9h24.6L62 75.4h-2v-4h-3.8v-1.7l-.6-.6c-1.2-1.2-2-2.6-2.5-4.2-.4-1.4-.6-2.9-.6-4.3v-3.3l12.8 6.8z"/><path class="st2" d="M65.6 64.3l-2.7-15.8 11.5-11.2L58.6 35l-7.1-14.4L44.4 35l-15.8 2.3 11.5 11.2-2.7 15.8 12.9-6.8v3.3c0 1.5-.2 2.9-.6 4.3-.5 1.6-1.3 3-2.5 4.2l-.6.6v1.7h-3.8v4h-2.3l-1.2 2.9h24.6l-1.5-2.9h-2v-4h-3.8v-1.7l-.6-.6c-1.2-1.2-2-2.6-2.5-4.2-.4-1.4-.6-2.9-.6-4.3v-3.3l12.7 6.8z"/><path class="st2" d="M65.8 64.6l-2.7-15.8 11.5-11.2-15.8-2.3L51.6 21l-7.1 14.4-15.8 2.3 11.5 11.2-2.7 15.8 12.9-6.8v3.3c0 1.5-.2 2.9-.6 4.3-.5 1.6-1.3 3-2.5 4.2l-.6.6V72h-3.8v4h-2.3l-1.2 2.9H64L62.4 76h-2v-4h-3.8v-1.7l-.6-.6c-1.2-1.2-2-2.6-2.5-4.2-.4-1.4-.6-2.9-.6-4.3v-3.3l12.9 6.7z"/><path class="st2" d="M66 64.8L63.3 49l11.5-11.2L59 35.6l-7.1-14.4-7.1 14.4L29 37.9 40.4 49l-2.7 15.8L50.6 58v3.3c0 1.5-.2 2.9-.6 4.3-.5 1.6-1.3 3-2.5 4.2l-.6.6v1.7h-3.8v4h-2.3L39.6 79h24.6l-1.5-2.9h-2v-4h-3.8v-1.7l-.6-.6c-1.2-1.2-2-2.6-2.5-4.2-.4-1.4-.6-2.9-.6-4.3V58L66 64.8z"/><path class="st2" d="M66.3 65l-2.7-15.8L75 38.1l-15.8-2.3-7.1-14.4L45 35.8l-15.8 2.3 11.5 11.2L37.9 65l12.9-6.8v3.3c0 1.5-.2 2.9-.6 4.3-.5 1.6-1.3 3-2.5 4.2l-.6.6v1.7h-3.8v4H41l-1.2 2.9h24.6l-1.5-2.9h-2v-4h-3.8v-1.7l-.6-.6c-1.2-1.2-2-2.6-2.5-4.2-.4-1.4-.6-2.9-.6-4.3v-3.3L66.3 65z"/><path class="st2" d="M66.5 65.3l-2.7-15.8 11.5-11.2L59.4 36l-7.1-14.4-7 14.4-15.8 2.3L41 49.5l-2.7 15.8 12.9-6.8v3.3c0 1.5-.2 2.9-.6 4.3-.5 1.6-1.3 3-2.5 4.2l-.7.7v1.7h-3.8v4h-2.3l-1.2 2.9h24.6l-1.5-2.9h-2v-4h-3.8V71l-.6-.6c-1.2-1.2-2-2.6-2.5-4.2-.4-1.4-.6-2.9-.6-4.3v-3.3l12.8 6.7z"/><path class="st2" d="M66.8 65.5l-2.7-15.8 11.5-11.2-15.8-2.3-7.1-14.4-7.1 14.4-15.8 2.3 11.5 11.2-2.7 15.8 12.9-6.8V62c0 1.5-.2 2.9-.6 4.3-.5 1.6-1.3 3-2.5 4.2l-.6.6V73H44v4h-2.3l-1.2 2.9h24.6L63.4 77h-2v-4h-3.8v-1.7l-.6-.7c-1.2-1.2-2-2.6-2.5-4.2-.4-1.4-.6-2.9-.6-4.3v-3.3l12.9 6.7z"/><path class="st2" d="M67 65.8L64.3 50l11.5-11.2L60 36.5l-7.1-14.4-7.1 14.4L30 38.8 41.4 50l-2.7 15.8L51.5 59v3.3c0 1.5-.2 2.9-.6 4.3-.5 1.6-1.3 3-2.5 4.2l-.6.6v1.7H44v4h-2.3L40.5 80h24.6l-1.5-2.9h-2v-4h-3.8v-1.7l-.6-.6c-1.2-1.2-2-2.6-2.5-4.2-.4-1.4-.6-2.9-.6-4.3V59L67 65.8z"/><path class="st2" d="M67.2 66l-2.7-15.8L76 39.1l-15.8-2.3-7.1-14.4L46 36.7 30.2 39l11.5 11.2L38.9 66l12.9-6.8v3.3c0 1.5-.2 2.9-.6 4.3-.5 1.6-1.3 3-2.5 4.2l-.6.6v1.7h-3.8v4H42l-1.2 2.9h24.6l-1.5-2.9h-2v-4H58v-1.7l-.6-.6c-1.2-1.2-2-2.6-2.5-4.2-.4-1.4-.6-2.9-.6-4.3v-3.3L67.2 66z"/><path class="st2" d="M67.5 66.2l-2.7-15.8 11.5-11.2L60.4 37l-7.1-14.4L46.2 37l-15.8 2.3 11.5 11.2-2.7 15.8L52 59.5v3.3c0 1.5-.2 2.9-.6 4.3-.5 1.6-1.3 3-2.5 4.2l-.6.7v1.7h-3.8v4h-2.3L41 80.6h24.6l-1.5-2.9h-2v-4h-3.8V72l-.6-.6c-1.2-1.2-2-2.6-2.5-4.2-.4-1.4-.6-2.9-.6-4.3v-3.3l12.9 6.6z"/><path class="st2" d="M67.7 66.5L65 50.7l11.5-11.2-15.8-2.3-7.1-14.4-7.1 14.4-15.8 2.3 11.5 11.2-2.7 15.8 12.9-6.8V63c0 1.5-.2 2.9-.6 4.3-.5 1.6-1.3 3-2.5 4.2l-.6.6v1.7h-3.8v4h-2.3l-1.2 2.9H66l-1.5-2.9h-2v-4h-3.8v-1.7l-.6-.6c-1.2-1.2-2-2.6-2.5-4.2-.4-1.4-.6-2.9-.6-4.3v-3.3l12.7 6.8z"/><path class="st2" d="M67.9 66.7l-2.7-15.8 11.5-11.2-15.8-2.3L53.8 23l-7.1 14.4-15.8 2.3 11.5 11.2-2.7 15.8 12.9-6.8v3.3c0 1.5-.2 2.9-.6 4.3-.5 1.6-1.3 3-2.5 4.2l-.6.6V74H45v4h-2.3l-1.2 3h24.6l-1.5-2.9h-2v-4h-3.8v-1.7l-.6-.6c-1.2-1.2-2-2.6-2.5-4.2-.4-1.4-.6-2.9-.6-4.3V60l12.8 6.7z"/><path class="st2" d="M68.2 66.9l-2.7-15.8L76.9 40l-15.8-2.3L54 23.3l-7.1 14.4L31.1 40l11.5 11.2L39.9 67l12.9-6.8v3.3c0 1.5-.2 2.9-.6 4.3-.5 1.6-1.3 3-2.5 4.2l-.7.7v1.7h-3.8v4h-2.3l-1.2 2.9h24.6l-1.5-2.9h-2v-4H59v-1.7l-.6-.6c-1.2-1.2-2-2.6-2.5-4.2-.4-1.4-.6-2.9-.6-4.3v-3.3l12.9 6.6z"/><path class="st2" d="M68.4 67.2l-2.7-15.8 11.5-11.2-15.8-2.3-7.1-14.4-7.1 14.4-15.8 2.3 11.5 11.2-2.7 15.8L53 60.4v3.3c0 1.5-.2 2.9-.6 4.3-.5 1.6-1.3 3-2.5 4.2l-.6.6v1.7h-3.8v4h-2.3l-1.2 3h24.6L65 78.6h-2v-4h-3.8v-1.7l-.6-.6c-1.2-1.2-2-2.6-2.5-4.2-.4-1.4-.6-2.9-.6-4.3v-3.3l12.9 6.7z"/><path class="st2" d="M68.7 67.4L66 51.6l11.5-11.2-15.8-2.3-7.1-14.4-7.1 14.4-15.8 2.3L43 51.6l-2.7 15.8 12.9-6.8v3.3c0 1.5-.2 2.9-.6 4.3-.5 1.6-1.3 3-2.5 4.2l-.6.6v1.7h-3.8v4h-2.3l-1.2 2.9h24.6l-1.5-2.9h-2v-4h-3.8V73l-.6-.6c-1.2-1.2-2-2.6-2.5-4.2-.4-1.4-.6-2.9-.6-4.3v-3.3l12.9 6.8z"/><path class="st2" d="M68.9 67.7l-2.7-15.8 11.5-11.2-15.8-2.3L54.8 24l-7.1 14.4-15.8 2.3 11.5 11.2-2.7 15.8 12.9-6.8v3.3c0 1.5-.2 2.9-.6 4.3-.5 1.6-1.3 3-2.5 4.2l-.6.6V75H46v4h-2.3l-1.3 3H67l-1.5-2.9h-2v-4h-3.8v-1.7l-.6-.6c-1.2-1.2-2-2.6-2.5-4.2-.4-1.4-.6-2.9-.6-4.3V61l12.9 6.7z"/><path class="st2" d="M69.1 67.9l-2.7-15.8L77.9 41l-15.8-2.3L55 24.3l-7.1 14.4L32 41l11.5 11.2L40.8 68l12.9-6.8v3.3c0 1.5-.2 2.9-.6 4.3-.5 1.6-1.3 3-2.5 4.2l-.6.6v1.7h-3.8v4h-2.3l-1.2 2.9h24.6l-1.5-2.9h-2v-4H60v-1.7l-.7-.6c-1.2-1.2-2-2.6-2.5-4.2-.4-1.4-.6-2.9-.6-4.3v-3.3l12.9 6.7z"/><path class="st2" d="M69.4 68.1l-2.7-15.8 11.5-11.2-15.8-2.3-7.1-14.4-7.1 14.4-15.8 2.3 11.5 11.2L41 68.1l12.9-6.8v3.3c0 1.5-.2 2.9-.6 4.3-.5 1.6-1.3 3-2.5 4.2l-.6.6v1.7h-3.8v4h-2.3l-1.2 2.9h24.6L66 79.6h-2v-4h-3.8v-1.7l-.6-.6c-1.2-1.2-2-2.6-2.5-4.2-.4-1.4-.6-2.9-.6-4.3v-3.3l12.9 6.6z"/><path class="st2" d="M69.6 68.4l-2.7-15.8 11.5-11.2-15.8-2.3-7.1-14.4-7.1 14.4-15.8 2.3L44 52.6l-2.7 15.8 12.9-6.8v3.3c0 1.5-.2 2.9-.6 4.3-.5 1.6-1.3 3-2.5 4.2l-.6.6v1.7h-3.8v4h-2.3l-1.2 2.9h24.6l-1.5-2.9h-2v-4h-3.8V74l-.6-.6c-1.2-1.2-2-2.6-2.5-4.2-.4-1.4-.6-2.9-.6-4.3v-3.3l12.8 6.8z"/><path class="st2" d="M69.8 68.6l-2.7-15.8 11.5-11.2-15.8-2.3L55.7 25l-7.1 14.4-15.8 2.3 11.5 11.2-2.7 15.8 12.9-6.8v3.3c0 1.5-.2 2.9-.6 4.3-.5 1.6-1.3 3-2.5 4.2l-.6.6V76H47v4h-2.3l-1.2 2.9H68L66.5 80h-2v-4h-3.8v-1.7l-.7-.6c-1.2-1.2-2-2.6-2.5-4.2-.4-1.4-.6-2.9-.6-4.3v-3.3l12.9 6.7z"/><path class="st2" d="M70.1 68.9l-2.7-15.8 11.5-11.2L63 39.6l-7.1-14.4-7.1 14.4L33 41.9l11.5 11.2-2.7 15.8 12.9-6.8v3.3c0 1.5-.2 2.9-.6 4.3-.5 1.6-1.3 3-2.5 4.2l-.6.6v1.7h-3.8v4h-2.3l-1.2 2.9h24.6l-1.5-2.9h-2v-4H61v-1.7l-.7-.5c-1.2-1.2-2-2.6-2.5-4.2-.4-1.4-.6-2.9-.6-4.3v-3.3l12.9 6.7z"/><path class="st2" d="M70.3 69.1l-2.7-15.8 11.5-11.2-15.8-2.3-7.1-14.4-7.1 14.4-15.8 2.3 11.5 11.2L42 69.1l12.9-6.8v3.3c0 1.5-.2 2.9-.6 4.3-.5 1.6-1.3 3-2.5 4.2l-.6.6v1.7h-3.8v4h-2.3l-1.2 2.9h24.6L67 80.4h-2v-4h-3.8v-1.7l-.6-.6c-1.2-1.2-2-2.6-2.5-4.2-.4-1.4-.6-2.9-.6-4.3v-3.3l12.8 6.8z"/><path class="st2" d="M70.6 69.3l-2.7-15.8 11.5-11.2L63.6 40l-7.1-14.4L49.4 40l-15.8 2.3 11.5 11.2-2.7 15.8 12.9-6.8v3.3c0 1.5-.2 2.9-.6 4.3-.5 1.6-1.3 3-2.5 4.2l-.6.6v1.7h-3.8v4h-2.3l-1.2 2.9h24.6l-1.5-2.9h-2v-4h-3.8v-1.7l-.6-.6c-1.2-1.2-2-2.6-2.5-4.2-.4-1.4-.6-2.9-.6-4.3v-3.3l12.7 6.8z"/><path class="st2" d="M70.8 69.6l-2.7-15.8 11.5-11.2-15.8-2.3L56.6 26l-7.1 14.4-15.8 2.3 11.5 11.2-2.7 15.8 12.9-6.8v3.3c0 1.5-.2 2.9-.6 4.3-.5 1.6-1.3 3-2.5 4.2l-.6.6V77h-3.8v4h-2.3l-1.2 2.9H69L67.4 81h-2v-4h-3.8v-1.7l-.6-.6c-1.2-1.2-2-2.6-2.5-4.2-.4-1.4-.6-2.9-.6-4.3v-3.3l12.9 6.7z"/><path class="st2" d="M71 69.8L68.3 54l11.5-11.2L64 40.6l-7.1-14.4-7.1 14.4L34 42.9 45.4 54l-2.7 15.8L55.6 63v3.3c0 1.5-.2 2.9-.6 4.3-.5 1.6-1.3 3-2.5 4.2l-.6.6v1.7h-3.8v4h-2.3L44.6 84h24.6l-1.5-2.9h-2v-4h-3.8v-1.7l-.6-.6c-1.2-1.2-2-2.6-2.5-4.2-.4-1.4-.6-2.9-.6-4.3V63L71 69.8z"/><path class="st2" d="M71.3 70l-2.7-15.8L80 43.1l-15.8-2.3-7.1-14.4L50 40.8l-15.8 2.3 11.5 11.2L42.9 70l12.9-6.8v3.3c0 1.5-.2 2.9-.6 4.3-.5 1.6-1.3 3-2.5 4.2l-.6.6v1.7h-3.8v4H46l-1.2 2.9h24.6l-1.5-2.9h-2v-4h-3.8v-1.7l-.6-.6c-1.2-1.2-2-2.6-2.5-4.2-.4-1.4-.6-2.9-.6-4.3v-3.3L71.3 70z"/><path class="st2" d="M71.5 70.3l-2.7-15.8 11.5-11.2L64.4 41l-7.1-14.4-7 14.4-15.8 2.3L46 54.5l-2.7 15.8 12.9-6.8v3.3c0 1.5-.2 2.9-.6 4.3-.5 1.6-1.3 3-2.5 4.2l-.7.7v1.7h-3.8v4h-2.3l-1.2 2.9h24.6l-1.5-2.9h-2v-4h-3.8V76l-.6-.6c-1.2-1.2-2-2.6-2.5-4.2-.4-1.4-.6-2.9-.6-4.3v-3.3l12.8 6.7z"/><path class="st2" d="M71.7 70.5L69 54.7l11.5-11.2-15.8-2.3-7.1-14.4-7.1 14.4-15.8 2.3 11.5 11.2-2.7 15.8 12.9-6.8V67c0 1.5-.2 2.9-.6 4.3-.5 1.6-1.3 3-2.5 4.2l-.6.6v1.7h-3.8v4h-2.3l-1.2 2.9H70L68.4 82h-2v-4h-3.8v-1.7l-.6-.6c-1.2-1.2-2-2.6-2.5-4.2-.4-1.4-.6-2.9-.6-4.3v-3.3l12.8 6.6z"/><path class="st2" d="M72 70.8L69.3 55l11.5-11.2L65 41.5l-7.1-14.4-7.1 14.4L35 43.8 46.4 55l-2.7 15.8L56.5 64v3.3c0 1.5-.2 2.9-.6 4.3-.5 1.6-1.3 3-2.5 4.2l-.6.6v1.7H49v4h-2.3L45.5 85h24.6l-1.5-2.9h-2v-4h-3.8v-1.7l-.6-.6c-1.2-1.2-2-2.6-2.5-4.2-.4-1.4-.6-2.9-.6-4.3V64L72 70.8z"/><path class="st2" d="M72.2 71l-2.7-15.8L81 44l-15.8-2.3-7.1-14.4L51 41.7 35.1 44l11.5 11.2L43.9 71l12.9-6.8v3.3c0 1.5-.2 2.9-.6 4.3-.5 1.6-1.3 3-2.5 4.2l-.6.6v1.7h-3.8v4H47l-1.2 2.9h24.6l-1.5-2.9h-2v-4H63v-1.7l-.6-.6c-1.2-1.2-2-2.6-2.5-4.2-.4-1.4-.6-2.9-.6-4.3v-3.3L72.2 71z"/><path class="st2" d="M72.5 71.2l-2.7-15.8 11.5-11.2L65.4 42l-7.1-14.4L51.2 42l-15.8 2.3 11.5 11.2-2.7 15.8L57 64.5v3.3c0 1.5-.2 2.9-.6 4.3-.5 1.6-1.3 3-2.5 4.2l-.6.7v1.7h-3.8v4h-2.3L46 85.6h24.6l-1.5-2.9h-2v-4h-3.8V77l-.6-.6c-1.2-1.2-2-2.6-2.5-4.2-.4-1.4-.6-2.9-.6-4.3v-3.3l12.9 6.6z"/><path class="st2" d="M72.7 71.5L70 55.7l11.5-11.2-15.8-2.3-7.1-14.4-7.1 14.4-15.8 2.3 11.5 11.2-2.7 15.8 12.9-6.8V68c0 1.5-.2 2.9-.6 4.3-.5 1.6-1.3 3-2.5 4.2l-.6.6v1.7h-3.8v4h-2.3l-1.2 2.9H71l-1.5-2.9h-2v-4h-3.8v-1.7l-.6-.6c-1.2-1.2-2-2.6-2.5-4.2-.4-1.4-.6-2.9-.6-4.3v-3.3l12.7 6.8z"/><path class="st2" d="M72.9 71.7l-2.7-15.8 11.5-11.2-15.8-2.3L58.8 28l-7.1 14.4-15.8 2.3 11.5 11.2-2.7 15.8 12.9-6.8v3.3c0 1.5-.2 2.9-.6 4.3-.5 1.6-1.3 3-2.5 4.2l-.6.6V79H50v4h-2.3l-1.2 3h24.6l-1.5-2.9h-2v-4h-3.8v-1.7l-.6-.6c-1.2-1.2-2-2.6-2.5-4.2-.4-1.4-.6-2.9-.6-4.3V65l12.8 6.7z"/><path class="st2" d="M73.2 71.9l-2.7-15.8L81.9 45l-15.8-2.3L59 28.3l-7.1 14.4L36.1 45l11.5 11.2L44.9 72l12.9-6.8v3.3c0 1.5-.2 2.9-.6 4.3-.5 1.6-1.3 3-2.5 4.2l-.7.7v1.7h-3.8v4h-2.3l-1.2 2.9h24.6l-1.5-2.9h-2v-4H64v-1.7l-.6-.7c-1.2-1.2-2-2.6-2.5-4.2-.4-1.4-.6-2.9-.6-4.3v-3.3l12.9 6.7z"/><path class="st2" d="M73.4 72.2l-2.7-15.8 11.5-11.2-15.8-2.3-7.1-14.4-7.1 14.4-15.8 2.3 11.5 11.2-2.7 15.8L58 65.4v3.3c0 1.5-.2 2.9-.6 4.3-.5 1.6-1.3 3-2.5 4.2l-.6.6v1.7h-3.8v4h-2.3l-1.2 3h24.6L70 83.6h-2v-4h-3.8v-1.7l-.6-.6c-1.2-1.2-2-2.6-2.5-4.2-.4-1.4-.6-2.9-.6-4.3v-3.3l12.9 6.7z"/><path class="st2" d="M73.7 72.4L71 56.6l11.5-11.2-15.8-2.3-7.1-14.4-7.1 14.4-15.8 2.3L48 56.6l-2.7 15.8 12.9-6.8v3.3c0 1.5-.2 2.9-.6 4.3-.5 1.6-1.3 3-2.5 4.2l-.6.6v1.7h-3.8v4h-2.3l-1.2 2.9h24.6l-1.5-2.9h-2v-4h-3.8V78l-.6-.6c-1.2-1.2-2-2.6-2.5-4.2-.4-1.4-.6-2.9-.6-4.3v-3.3l12.9 6.8z"/><path class="st2" d="M73.9 72.7l-2.7-15.8 11.5-11.2-15.8-2.3L59.7 29l-7.1 14.4-15.8 2.3 11.5 11.2-2.7 15.8 12.9-6.8v3.3c0 1.5-.2 2.9-.6 4.3-.5 1.6-1.3 3-2.5 4.2l-.6.6V80H51v4h-2.3l-1.3 3H72l-1.5-2.9h-2v-4h-3.8v-1.7l-.6-.6c-1.2-1.2-2-2.6-2.5-4.2-.4-1.4-.6-2.9-.6-4.3V66l12.9 6.7z"/><path class="st2" d="M74.1 72.9l-2.7-15.8 11.5-11.2L67 43.6l-7-14.3-7.1 14.4L37 45.9l11.5 11.2-2.7 15.8 12.9-6.8v3.3c0 1.5-.2 2.9-.6 4.3-.5 1.6-1.3 3-2.5 4.2l-.6.7v1.7h-3.8v4h-2.3l-1.2 2.9h24.6l-1.5-2.9h-2v-4H65v-1.7l-.7-.6c-1.2-1.2-2-2.6-2.5-4.2-.4-1.4-.6-2.9-.6-4.3v-3.3l12.9 6.7z"/><path class="st2" d="M74.4 73.1l-2.7-15.8 11.5-11.2-15.8-2.3-7.1-14.4-7.1 14.4-15.8 2.3 11.5 11.2L46 73.1l12.9-6.8v3.3c0 1.5-.2 2.9-.6 4.3-.5 1.6-1.3 3-2.5 4.2l-.6.6v1.7h-3.8v4h-2.3l-1.2 2.9h24.6L71 84.6h-2v-4h-3.8v-1.7l-.6-.6c-1.2-1.2-2-2.6-2.5-4.2-.4-1.4-.6-2.9-.6-4.3v-3.3l12.9 6.6z"/><path class="st2" d="M74.6 73.4l-2.7-15.8 11.5-11.2-15.8-2.3-7.1-14.4-7.1 14.4-15.8 2.3L49 57.6l-2.7 15.8 12.9-6.8v3.3c0 1.5-.2 2.9-.6 4.3-.5 1.6-1.3 3-2.5 4.2l-.6.6v1.7h-3.8v4h-2.3l-1.2 2.9h24.6l-1.5-2.9h-2v-4h-3.8V79l-.6-.6c-1.2-1.2-2-2.6-2.5-4.2-.4-1.4-.6-2.9-.6-4.3v-3.3l12.8 6.8z"/><path class="st2" d="M74.8 73.6l-2.7-15.8 11.5-11.2-15.8-2.3L60.7 30l-7.1 14.4-15.8 2.3 11.5 11.2-2.7 15.8 12.9-6.8v3.3c0 1.5-.2 2.9-.6 4.3-.5 1.6-1.3 3-2.5 4.2l-.6.6V81H52v4h-2.3l-1.2 2.9H73L71.5 85h-2v-4h-3.8v-1.7l-.7-.6c-1.2-1.2-2-2.6-2.5-4.2-.4-1.4-.6-2.9-.6-4.3v-3.3l12.9 6.7z"/><path class="st2" d="M75.1 73.8L72.4 58l11.5-11.2L68 44.6l-7.1-14.4-7.1 14.4L38 46.9l11.5 11.2-2.7 15.8 12.9-6.8v3.3c0 1.5-.2 2.9-.6 4.3-.5 1.6-1.3 3-2.5 4.2l-.6.6v1.7h-3.8v4h-2.3l-1.2 2.9h24.6l-1.5-2.9h-2v-4H66v-1.7l-.6-.6c-1.2-1.2-2-2.6-2.5-4.2-.4-1.4-.6-2.9-.6-4.3v-3.3l12.8 6.7z"/><path class="st2" d="M75.3 74.1l-2.7-15.8 11.5-11.2-15.8-2.3-7.1-14.4-7.1 14.4-15.8 2.3 11.5 11.2L47 74.1l12.9-6.8v3.3c0 1.5-.2 2.9-.6 4.3-.5 1.6-1.3 3-2.5 4.2l-.6.6v1.7h-3.8v4h-2.3l-1.2 2.9h24.6L72 85.4h-2v-4h-3.8v-1.7l-.6-.6c-1.2-1.2-2-2.6-2.5-4.2-.4-1.4-.6-2.9-.6-4.3v-3.3l12.8 6.8z"/><path class="st2" d="M75.6 74.3l-2.7-15.8 11.5-11.2L68.6 45l-7.1-14.4L54.4 45l-15.8 2.3 11.5 11.2-2.7 15.8 12.9-6.8v3.3c0 1.5-.2 2.9-.6 4.3-.5 1.6-1.3 3-2.5 4.2l-.6.6v1.7h-3.8v4h-2.3l-1.2 2.9h24.6l-1.5-2.9h-2v-4h-3.8v-1.7l-.6-.6c-1.2-1.2-2-2.6-2.5-4.2-.4-1.4-.6-2.9-.6-4.3v-3.3l12.7 6.8z"/><path class="st2" d="M75.8 74.6l-2.7-15.8 11.5-11.2-15.8-2.3-7.1-14.4-7.1 14.4-15.8 2.3 11.5 11.2-2.7 15.8 12.9-6.8v3.3c0 1.5-.2 2.9-.6 4.3-.5 1.6-1.3 3-2.5 4.2l-.6.6V82H53v4h-2.3l-1.2 2.9h24.6L72.4 86h-2v-4h-3.8v-1.7l-.6-.6c-1.2-1.2-2-2.6-2.5-4.2-.4-1.4-.6-2.9-.6-4.3v-3.3l12.9 6.7z"/><path class="st2" d="M76 74.8L73.3 59l11.5-11.2L69 45.5l-7.1-14.4-7.1 14.4L39 47.8 50.4 59l-2.7 15.8L60.6 68v3.3c0 1.5-.2 2.9-.6 4.3-.5 1.6-1.3 3-2.5 4.2l-.6.6v1.7h-3.8v4h-2.3L49.6 89h24.6l-1.5-2.9h-2v-4h-3.8v-1.7l-.6-.6c-1.2-1.2-2-2.6-2.5-4.2-.4-1.4-.6-2.9-.6-4.3V68L76 74.8z"/><path class="st2" d="M76.3 75l-2.7-15.8L85 48.1l-15.8-2.3-7.1-14.4L55 45.8l-15.8 2.3 11.5 11.2L47.9 75l12.9-6.8v3.3c0 1.5-.2 2.9-.6 4.3-.5 1.6-1.3 3-2.5 4.2l-.6.6v1.7h-3.8v4H51l-1.2 2.9h24.6l-1.5-2.9h-2v-4h-3.8v-1.7l-.6-.6c-1.2-1.2-2-2.6-2.5-4.2-.4-1.4-.6-2.9-.6-4.3v-3.3L76.3 75z"/><path class="st2" d="M76.5 75.3l-2.7-15.8 11.5-11.2L69.4 46l-7.1-14.4L55.2 46l-15.8 2.3 11.5 11.2-2.7 15.8L61 68.5v3.3c0 1.5-.2 2.9-.6 4.3-.5 1.6-1.3 3-2.5 4.2l-.5.7v1.7h-3.8v4h-2.3L50 89.6h24.6l-1.5-2.9h-2v-4h-3.8V81l-.6-.6c-1.2-1.2-2-2.6-2.5-4.2-.4-1.4-.6-2.9-.6-4.3v-3.3l12.9 6.7z"/><path class="st2" d="M76.7 75.5L74 59.7l11.5-11.2-15.8-2.3-7.1-14.4-7.1 14.4-15.8 2.3 11.5 11.2-2.7 15.8 12.9-6.8V72c0 1.5-.2 2.9-.6 4.3-.5 1.6-1.3 3-2.5 4.2l-.6.6v1.7h-3.8v4h-2.3l-1.2 2.9H75L73.4 87h-2v-4h-3.8v-1.7l-.6-.6c-1.2-1.2-2-2.6-2.5-4.2-.4-1.4-.6-2.9-.6-4.3v-3.3l12.8 6.6z"/><path class="st2" d="M77 75.7L74.3 60l11.5-11.2L70 46.5l-7.1-14.4-7.1 14.4L40 48.8 51.3 60l-2.7 15.8L61.5 69v3.3c0 1.5-.2 2.9-.6 4.3-.5 1.6-1.3 3-2.5 4.2l-.6.6v1.7H54v4h-2.3L50.5 90h24.6l-1.5-2.9h-2v-4h-3.8v-1.7l-.6-.6c-1.2-1.2-2-2.6-2.5-4.2-.4-1.4-.6-2.9-.6-4.3V69L77 75.7z"/><path class="st2" d="M77.2 76l-2.7-15.8L86 49l-15.8-2.3L63 32.4l-7 14.3L40.1 49l11.5 11.2L48.9 76l12.9-6.8v3.3c0 1.5-.2 2.9-.6 4.3-.5 1.6-1.3 3-2.5 4.2l-.6.6v1.7h-3.8v4H52l-1.2 2.9h24.6l-1.5-2.9h-2v-4H68v-1.7l-.6-.6c-1.2-1.2-2-2.6-2.5-4.2-.4-1.4-.6-2.9-.6-4.3v-3.3L77.2 76z"/><path class="st2" d="M77.5 76.2l-2.7-15.8 11.5-11.2L70.4 47l-7.1-14.4L56.2 47l-15.8 2.3 11.5 11.2-2.7 15.8L62 69.4v3.3c0 1.5-.2 2.9-.6 4.3-.5 1.6-1.3 3-2.5 4.2l-.6.8v1.7h-3.8v4h-2.3L51 90.5h24.6l-1.5-2.9h-2v-4h-3.8V82l-.6-.6c-1.2-1.2-2-2.6-2.5-4.2-.4-1.4-.6-2.9-.6-4.3v-3.3l12.9 6.6z"/><path class="st2" d="M77.7 76.5L75 60.7l11.5-11.2-15.8-2.3-7.1-14.4-7.1 14.4-15.8 2.3 11.5 11.2-2.7 15.8 12.9-6.8V73c0 1.5-.2 2.9-.6 4.3-.5 1.6-1.3 3-2.5 4.2l-.6.6v1.7h-3.8v4h-2.3l-1.2 2.9H76l-1.5-2.9h-2v-4h-3.8v-1.7l-.6-.6c-1.2-1.2-2-2.6-2.5-4.2-.4-1.4-.6-2.9-.6-4.3v-3.3l12.7 6.8z"/><path class="st2" d="M77.9 76.7l-2.7-15.8 11.5-11.2-15.8-2.3L63.8 33l-7.1 14.4-15.8 2.3 11.5 11.2-2.7 15.8 12.9-6.8v3.3c0 1.5-.2 2.9-.6 4.3-.5 1.6-1.3 3-2.5 4.2l-.6.6V84H55v4h-2.3l-1.2 3h24.6l-1.5-2.9h-2v-4h-3.8v-1.7l-.6-.6c-1.2-1.2-2-2.6-2.5-4.2-.4-1.4-.6-2.9-.6-4.3V70l12.8 6.7z"/><path class="st2" d="M78.2 76.9l-2.7-15.8L86.9 50l-15.8-2.3L64 33.3l-7.1 14.4L41.1 50l11.5 11.2L49.9 77l12.9-6.8v3.3c0 1.5-.2 2.9-.6 4.3-.5 1.6-1.3 3-2.5 4.2l-.7.7v1.7h-3.8v4h-2.3l-1.2 2.9h24.6l-1.5-2.9h-2v-4H69v-1.7l-.6-.7c-1.2-1.2-2-2.6-2.5-4.2-.4-1.4-.6-2.9-.6-4.3v-3.3l12.9 6.7z"/><path class="st2" d="M78.4 77.2l-2.7-15.8 11.5-11.2-15.8-2.3-7.1-14.4-7.1 14.4-15.8 2.3 11.5 11.2-2.7 15.8 12.9-6.8v3.3c0 1.5-.2 2.9-.6 4.3-.5 1.6-1.3 3-2.5 4.2l-.6.6v1.7h-3.8v4h-2.3l-1.2 2.9h24.6L75 88.6h-2v-4h-3.8v-1.7l-.6-.6c-1.2-1.2-2-2.6-2.5-4.2-.4-1.4-.6-2.9-.6-4.3v-3.3l12.9 6.7z"/><path class="st2" d="M78.6 77.4l-2.7-15.8 11.5-11.2-15.8-2.3-7.1-14.4-7.1 14.4-15.8 2.3L53 61.6l-2.7 15.8 12.9-6.8v3.3c0 1.5-.2 2.9-.6 4.3-.5 1.6-1.3 3-2.5 4.2l-.6.6v1.7h-3.8v4h-2.3l-1.2 2.9h24.6l-1.5-2.9h-2v-4h-3.8V83l-.6-.6c-1.2-1.2-2-2.6-2.5-4.2-.4-1.4-.6-2.9-.6-4.3v-3.3l12.8 6.8z"/><path class="st2" d="M78.9 77.6l-2.7-15.8 11.5-11.2-15.8-2.3L64.7 34l-7.1 14.4-15.8 2.3 11.5 11.2-2.7 15.8 12.9-6.8v3.3c0 1.5-.2 2.9-.6 4.3-.5 1.6-1.3 3-2.5 4.2l-.6.6V85H56v4h-2.3l-1.3 3H77l-1.5-2.9h-2v-4h-3.8v-1.7l-.6-.6c-1.2-1.2-2-2.6-2.5-4.2-.4-1.4-.6-2.9-.6-4.3V71l12.9 6.6z"/><path class="st2" d="M79.1 77.9l-2.7-15.8 11.5-11.2L72 48.6l-7.1-14.4-7.1 14.4L42 50.9l11.5 11.2-2.7 15.8 12.9-6.8v3.3c0 1.5-.2 2.9-.6 4.3-.5 1.6-1.3 3-2.5 4.2l-.6.7v1.7h-3.8v4h-2.3l-1.2 2.9h24.6l-1.5-2.9h-2v-4H70v-1.7l-.7-.6c-1.2-1.2-2-2.6-2.5-4.2-.4-1.4-.6-2.9-.6-4.3v-3.3l12.9 6.7z"/><path class="st2" d="M79.4 78.1l-2.7-15.8 11.5-11.2-15.8-2.3-7.1-14.4-7.1 14.4-15.8 2.3 11.5 11.2L51 78.1l12.9-6.8v3.3c0 1.5-.2 2.9-.6 4.3-.5 1.6-1.3 3-2.5 4.2l-.6.6v1.7h-3.8v4h-2.3l-1.2 2.9h24.6L76 89.6h-2v-4h-3.8v-1.7l-.6-.6c-1.2-1.2-2-2.6-2.5-4.2-.4-1.4-.6-2.9-.6-4.3v-3.3l12.9 6.6z"/><path class="st2" d="M79.6 78.4l-2.7-15.8 11.5-11.2-15.8-2.3-7.1-14.4-7.1 14.4-15.8 2.3L54 62.6l-2.7 15.8 12.9-6.8v3.3c0 1.5-.2 2.9-.6 4.3-.5 1.6-1.3 3-2.5 4.2l-.6.6v1.7h-3.8v4h-2.3l-1.2 2.9h24.6l-1.5-2.9h-2v-4h-3.8V84l-.6-.6c-1.2-1.2-2-2.6-2.5-4.2-.4-1.4-.6-2.9-.6-4.3v-3.3l12.8 6.8z"/><path class="st2" d="M79.8 78.6l-2.7-15.8 11.5-11.2-15.8-2.3L65.7 35l-7.1 14.4-15.8 2.3 11.5 11.2-2.7 15.8 12.9-6.8v3.3c0 1.5-.2 2.9-.6 4.3-.5 1.6-1.3 3-2.5 4.2l-.6.6V86H57v4h-2.3l-1.2 2.9H78L76.4 90h-2v-4h-3.8v-1.7l-.6-.6c-1.2-1.2-2-2.6-2.5-4.2-.3-1.5-.5-2.9-.5-4.4v-3.3l12.8 6.8z"/><path class="st2" d="M80.1 78.8L77.4 63l11.5-11.2L73 49.6l-7.1-14.4-7.1 14.4L43 51.9l11.5 11.2-2.7 15.8 12.9-6.8v3.3c0 1.5-.2 2.9-.6 4.3-.5 1.6-1.3 3-2.5 4.2l-.6.6v1.7h-3.8v4h-2.3l-1.2 2.9h24.6l-1.5-2.9h-2v-4H71v-1.7l-.6-.6c-1.2-1.2-2-2.6-2.5-4.2-.4-1.4-.6-2.9-.6-4.3v-3.3l12.8 6.7z"/><path class="st2" d="M80.3 79.1l-2.7-15.8 11.5-11.2-15.8-2.3-7.1-14.4-7.1 14.4-15.8 2.3 11.5 11.2L52 79.1l12.9-6.8v3.3c0 1.5-.2 2.9-.6 4.3-.5 1.6-1.3 3-2.5 4.2l-.6.6v1.7h-3.8v4h-2.3l-1.2 2.9h24.6L77 90.4h-2v-4h-3.8v-1.7l-.6-.6c-1.2-1.2-2-2.6-2.5-4.2-.4-1.4-.6-2.9-.6-4.3v-3.3l12.8 6.8z"/><path class="st2" d="M80.5 79.3l-2.7-15.8 11.5-11.2L73.5 50l-7.1-14.4L59.3 50l-15.8 2.3L55 63.5l-2.7 15.8 12.9-6.8v3.3c0 1.5-.2 2.9-.6 4.3-.5 1.6-1.3 3-2.5 4.2l-.7.7v1.7h-3.8v4h-2.3l-1.2 2.9h24.6l-1.5-2.9h-2v-4h-3.8V85l-.6-.6c-1.2-1.2-2-2.6-2.5-4.2-.4-1.4-.6-2.9-.6-4.3v-3.3l12.8 6.7z"/><path class="st2" d="M80.8 79.5l-2.7-15.8 11.5-11.2-15.8-2.3-7.1-14.4-7.1 14.4-15.8 2.3 11.5 11.2-2.7 15.8 12.9-6.8V76c0 1.5-.2 2.9-.6 4.3-.5 1.6-1.3 3-2.5 4.2l-.6.6V87H58v4h-2.3l-1.2 2.9h24.6L77.4 91h-2v-4h-3.8v-1.7l-.6-.7c-1.2-1.2-2-2.6-2.5-4.2-.4-1.4-.6-2.9-.6-4.3v-3.3l12.9 6.7z"/><path class="st2" d="M81 79.8L78.3 64l11.5-11.2L74 50.5l-7.1-14.4-7.1 14.4L44 52.8 55.4 64l-2.7 15.8L65.6 73v3.3c0 1.5-.2 2.9-.6 4.3-.5 1.6-1.3 3-2.5 4.2l-.6.6v1.7h-3.8v4h-2.3L54.6 94h24.6l-1.5-2.9h-2v-4h-3.8v-1.7l-.6-.6c-1.2-1.2-2-2.6-2.5-4.2-.4-1.4-.6-2.9-.6-4.3V73L81 79.8z"/><path class="st2" d="M81.3 80l-2.7-15.8L90 53.1l-15.8-2.3-7.1-14.4L60 50.8l-15.8 2.3 11.5 11.2L52.9 80l12.9-6.8v3.3c0 1.5-.2 2.9-.6 4.3-.5 1.6-1.3 3-2.5 4.2l-.6.6v1.7h-3.8v4H56l-1.2 2.9h24.6l-1.5-2.9h-2v-4h-3.8v-1.7l-.6-.6c-1.2-1.2-2-2.6-2.5-4.2-.4-1.4-.6-2.9-.6-4.3v-3.3L81.3 80z"/><path class="st2" d="M81.5 80.3l-2.7-15.8 11.5-11.2L74.4 51l-7.1-14.4L60.2 51l-15.8 2.3 11.5 11.2-2.7 15.8L66 73.5v3.3c0 1.5-.2 2.9-.6 4.3-.5 1.6-1.3 3-2.5 4.2l-.6.7v1.7h-3.8v4h-2.3L55 94.6h24.6l-1.5-2.9h-2v-4h-3.8V86l-.6-.6c-1.2-1.2-2-2.6-2.5-4.2-.4-1.4-.6-2.9-.6-4.3v-3.3l12.9 6.7z"/><path class="st2" d="M81.7 80.5L79 64.7l11.5-11.2-15.8-2.3-7.1-14.4-7.1 14.4-15.8 2.3 11.5 11.2-2.7 15.8 12.9-6.8V77c0 1.5-.2 2.9-.6 4.3-.5 1.6-1.3 3-2.5 4.2l-.6.6v1.7h-3.8v4h-2.3l-1.2 2.9H80l-1.5-2.9h-2v-4h-3.8v-1.7l-.6-.6c-1.2-1.2-2-2.6-2.5-4.2-.4-1.4-.6-2.9-.6-4.3v-3.3l12.7 6.8z"/><path class="st2" d="M82 80.7L79.3 65l11.5-11.2L75 51.5l-7.1-14.4-7.1 14.4L45 53.8 56.3 65l-2.7 15.8L66.5 74v3.3c0 1.5-.2 2.9-.6 4.3-.5 1.6-1.3 3-2.5 4.2l-.6.6v1.7H59v4h-2.3L55.5 95h24.6l-1.5-2.9h-2v-4h-3.8v-1.7l-.6-.6c-1.2-1.2-2-2.6-2.5-4.2-.4-1.4-.6-2.9-.6-4.3V74L82 80.7z"/><path class="st2" d="M82.2 81l-2.7-15.8L91 54l-15.8-2.3L68 37.4l-7 14.3L45.1 54l11.5 11.2L53.9 81l12.9-6.8v3.3c0 1.5-.2 2.9-.6 4.3-.5 1.6-1.3 3-2.5 4.2l-.6.6v1.7h-3.8v4H57l-1.2 2.9h24.6l-1.5-2.9h-2v-4H73v-1.7l-.6-.6c-1.2-1.2-2-2.6-2.5-4.2-.4-1.4-.6-2.9-.6-4.3v-3.3L82.2 81z"/><path class="st2" d="M82.4 81.2l-2.7-15.8 11.5-11.2L75.4 52l-7.1-14.4L61.2 52l-15.8 2.3 11.5 11.2-2.7 15.8L67 74.4v3.3c0 1.5-.2 2.9-.6 4.3-.5 1.6-1.3 3-2.5 4.2l-.6.6v1.7h-3.8v4h-2.3l-1.2 3h24.6l-1.5-2.9h-2v-4h-3.8v-1.7l-.6-.6c-1.2-1.2-2-2.6-2.5-4.2-.4-1.4-.6-2.9-.6-4.3v-3.3l12.8 6.7z"/><path class="st2" d="M82.7 81.4L80 65.7l11.5-11.2-15.8-2.3-7.1-14.4-7.1 14.4-15.8 2.3L57 65.7l-2.7 15.8 12.9-6.8V78c0 1.5-.2 2.9-.6 4.3-.5 1.6-1.3 3-2.5 4.2l-.6.6v1.7h-3.8v4h-2.3l-1.2 2.9h24.6l-1.5-2.9h-2v-4h-3.8v-1.7l-.6-.6c-1.2-1.2-2-2.6-2.5-4.2-.4-1.4-.6-2.9-.6-4.3v-3.3l12.9 6.7z"/><path class="st2" d="M82.9 81.7l-2.7-15.8 11.5-11.2-15.8-2.3L68.8 38l-7.1 14.4-15.8 2.3 11.5 11.2-2.7 15.8 12.9-6.8v3.3c0 1.5-.2 2.9-.6 4.3-.5 1.6-1.3 3-2.5 4.2l-.6.6V89H60v4h-2.3l-1.2 3H81l-1.5-2.9h-2v-4h-3.8v-1.7l-.6-.6c-1.2-1.2-2-2.6-2.5-4.2-.4-1.4-.6-2.9-.6-4.3V75l12.9 6.7z"/><path class="st2" d="M83.2 81.9l-2.7-15.8L91.9 55l-15.8-2.3L69 38.3l-7.1 14.4L46.1 55l11.5 11.2L54.9 82l12.9-6.8v3.3c0 1.5-.2 2.9-.6 4.3-.5 1.6-1.3 3-2.5 4.2l-.7.7v1.7h-3.8v4h-2.3l-1.2 2.9h24.6l-1.5-2.9h-2v-4H74v-1.7l-.7-.7c-1.2-1.2-2-2.6-2.5-4.2-.4-1.4-.6-2.9-.6-4.3v-3.3l13 6.7z"/><path class="st2" d="M83.4 82.2l-2.7-15.8 11.5-11.2-15.8-2.3-7.1-14.4-7.1 14.4-15.8 2.3 11.5 11.2-2.7 15.8 12.9-6.8v3.3c0 1.5-.2 2.9-.6 4.3-.5 1.6-1.3 3-2.5 4.2l-.6.6v1.7h-3.8v4h-2.3l-1.2 2.9h24.6L80 93.6h-2v-4h-3.8v-1.7l-.6-.6c-1.2-1.2-2-2.6-2.5-4.2-.4-1.4-.6-2.9-.6-4.3v-3.3l12.9 6.7z"/><path class="st2" d="M83.6 82.4l-2.7-15.8 11.5-11.2-15.8-2.3-7.1-14.4-7.1 14.4-15.8 2.3L58 66.6l-2.7 15.8 12.9-6.8v3.3c0 1.5-.2 2.9-.6 4.3-.5 1.6-1.3 3-2.5 4.2l-.6.6v1.7h-3.8v4h-2.3l-1.2 2.9h24.6l-1.5-2.9h-2v-4h-3.8V88l-.6-.6c-1.2-1.2-2-2.6-2.5-4.2-.4-1.4-.6-2.9-.6-4.3v-3.3l12.8 6.8z"/><path class="st2" d="M83.9 82.6l-2.7-15.8 11.5-11.2-15.8-2.3L69.7 39l-7.1 14.4-15.8 2.3 11.5 11.2-2.7 15.8 12.9-6.8v3.3c0 1.5-.2 2.9-.6 4.3-.5 1.6-1.3 3-2.5 4.2l-.6.6V90H61v4h-2.3l-1.3 3H82l-1.5-2.9h-2v-4h-3.8v-1.7l-.6-.6c-1.2-1.2-2-2.6-2.5-4.2-.4-1.4-.6-2.9-.6-4.3V76l12.9 6.6z"/><path class="st2" d="M84.1 82.9l-2.7-15.8 11.5-11.2L77 53.6l-7.1-14.4-7.1 14.4L47 55.9l11.5 11.2-2.7 15.8 12.9-6.8v3.3c0 1.5-.2 2.9-.6 4.3-.5 1.6-1.3 3-2.5 4.2l-.6.7v1.7h-3.8v4h-2.3l-1.2 2.9h24.6l-1.5-2.9h-2v-4H75v-1.7l-.7-.6c-1.2-1.2-2-2.6-2.5-4.2-.4-1.4-.6-2.9-.6-4.3v-3.3l12.9 6.7z"/><path class="st2" d="M84.3 83.1l-2.7-15.8 11.5-11.2-15.8-2.3-7.1-14.4-7.1 14.4-15.8 2.3 11.5 11.2L56 83.1l12.9-6.8v3.3c0 1.5-.2 2.9-.6 4.3-.5 1.6-1.3 3-2.5 4.2l-.6.6v1.7h-3.8v4h-2.3l-1.2 2.9h24.6L81 94.6h-2v-4h-3.8v-1.7l-.6-.6c-1.2-1.2-2-2.6-2.5-4.2-.4-1.4-.6-2.9-.6-4.3v-3.3l12.8 6.6z"/><path class="st2" d="M84.6 83.3l-2.7-15.8 11.5-11.2L77.6 54l-7.1-14.4L63.4 54l-15.8 2.3 11.5 11.2-2.7 15.8 12.9-6.8v3.3c0 1.5-.2 2.9-.6 4.3-.5 1.6-1.3 3-2.5 4.2l-.6.6v1.7h-3.8v4h-2.3l-1.2 2.9h24.6l-1.5-2.9h-2v-4h-3.8v-1.7l-.6-.6c-1.2-1.2-2-2.6-2.5-4.2-.4-1.4-.6-2.9-.6-4.3v-3.3l12.7 6.8z"/><path class="st2" d="M84.8 83.6l-2.7-15.8 11.5-11.2-15.8-2.3L70.6 40l-7.1 14.4-15.8 2.3 11.5 11.2-2.7 15.8 12.9-6.8v3.3c0 1.5-.2 2.9-.6 4.3-.5 1.6-1.3 3-2.5 4.2l-.6.6V91h-3.8v4h-2.3l-1.2 2.9H83L81.4 95h-2v-4h-3.8v-1.7l-.6-.6c-1.2-1.2-2-2.6-2.5-4.2-.4-1.4-.6-2.9-.6-4.3v-3.3l12.9 6.7z"/><path class="st2" d="M85.1 83.8L82.3 68l11.5-11.2L78 54.6l-7.1-14.4-7.1 14.4L48 56.9 59.4 68l-2.7 15.8L69.6 77v3.3c0 1.5-.2 2.9-.6 4.3-.5 1.6-1.3 3-2.5 4.2l-.6.6v1.7h-3.8v4h-2.3L58.6 98h24.6l-1.5-2.9h-2v-4h-3.8v-1.7l-.6-.6c-1.2-1.2-2-2.6-2.5-4.2-.4-1.4-.6-2.9-.6-4.3V77l12.9 6.8z"/><path class="st2" d="M85.3 84.1l-2.7-15.8L94 57.1l-15.8-2.3-7.1-14.4L64 54.8l-15.8 2.3 11.5 11.2L57 84.1l12.9-6.8v3.3c0 1.5-.2 2.9-.6 4.3-.5 1.6-1.3 3-2.5 4.2l-.6.6v1.7h-3.8v4H60l-1.2 2.9h24.6l-1.5-2.9h-2v-4h-3.8v-1.7l-.6-.6c-1.2-1.2-2-2.6-2.5-4.2-.4-1.4-.6-2.9-.6-4.3v-3.3l12.9 6.8z"/><path class="st2" d="M85.5 84.3l-2.7-15.8 11.5-11.2L78.4 55l-7.1-14.4-7 14.4-15.8 2.3L60 68.5l-2.7 15.8 12.9-6.8v3.3c0 1.5-.2 2.9-.6 4.3-.5 1.6-1.3 3-2.5 4.2l-.7.7v1.7h-3.8v4h-2.3l-1.2 2.9h24.6l-1.5-2.9h-2v-4h-3.8V90l-.6-.6c-1.2-1.2-2-2.6-2.5-4.2-.4-1.4-.6-2.9-.6-4.3v-3.3l12.8 6.7z"/><path class="st2" d="M85.8 84.5l-2.7-15.8 11.5-11.2-15.8-2.3-7.1-14.4-7.1 14.4-15.8 2.3 11.5 11.2-2.7 15.8 12.9-6.8V81c0 1.5-.2 2.9-.6 4.3-.5 1.6-1.3 3-2.5 4.2l-.6.6V92H63v4h-2.3l-1.2 2.9h24.6L82.4 96h-2v-4h-3.8v-1.7l-.6-.7c-1.2-1.2-2-2.6-2.5-4.2-.4-1.4-.6-2.9-.6-4.3v-3.3l12.9 6.7z"/><path class="st2" d="M86 84.8L83.3 69l11.5-11.2L79 55.5l-7.1-14.4-7.1 14.4L49 57.8 60.4 69l-2.7 15.8L70.5 78v3.3c0 1.5-.2 2.9-.6 4.3-.5 1.6-1.3 3-2.5 4.2l-.6.6v1.7H63v4h-2.3L59.5 99h24.6l-1.5-2.9h-2v-4h-3.8v-1.7l-.6-.6c-1.2-1.2-2-2.6-2.5-4.2-.4-1.4-.6-2.9-.6-4.3V78L86 84.8z"/><path class="st2" d="M86.2 85l-2.7-15.8L95 58.1l-15.8-2.3-7.1-14.4L65 55.8l-15.8 2.3 11.5 11.2L57.9 85l12.9-6.8v3.3c0 1.5-.2 2.9-.6 4.3-.5 1.6-1.3 3-2.5 4.2l-.6.6v1.7h-3.8v4H61l-1.2 2.9h24.6l-1.5-2.9h-2v-4H77v-1.7l-.6-.6c-1.2-1.2-2-2.6-2.5-4.2-.4-1.4-.6-2.9-.6-4.3v-3.3L86.2 85z"/><path class="st2" d="M86.5 85.2l-2.7-15.8 11.5-11.2L79.4 56l-7.1-14.4L65.2 56l-15.8 2.3 11.5 11.2-2.7 15.8L71 78.5v3.3c0 1.5-.2 2.9-.6 4.3-.5 1.6-1.3 3-2.5 4.2l-.6.7v1.7h-3.8v4h-2.3L60 99.6h24.6l-1.5-2.9h-2v-4h-3.8V91l-.6-.6c-1.2-1.2-2-2.6-2.5-4.2-.4-1.4-.6-2.9-.6-4.3v-3.3l12.9 6.6z"/><path class="st2" d="M86.7 85.5L84 69.7l11.5-11.2-15.8-2.3-7.1-14.4-7.1 14.4-15.8 2.3 11.5 11.2-2.7 15.8 12.9-6.8V82c0 1.5-.2 2.9-.6 4.3-.5 1.6-1.3 3-2.5 4.2l-.6.6v1.7h-3.8v4h-2.3l-1.2 2.9H85l-1.5-2.9h-2v-4h-3.8v-1.7l-.6-.6c-1.2-1.2-2-2.6-2.5-4.2-.4-1.4-.6-2.9-.6-4.3v-3.3l12.7 6.8z"/><path class="st2" d="M87 85.7l-2.7-15.8 11.5-11.2L80 56.4 72.9 42l-7.1 14.4L50 58.7l11.5 11.2-2.7 15.8 12.9-6.8v3.3c0 1.5-.2 2.9-.6 4.3-.5 1.6-1.3 3-2.5 4.2l-.6.6V93h-4v4h-2.3l-1.2 2.9h24.6L83.6 97h-2v-4h-3.8v-1.7l-.6-.6c-1.2-1.2-2-2.6-2.5-4.2-.4-1.4-.6-2.9-.6-4.3v-3.3L87 85.7z"/><path class="st2" d="M87.2 86l-2.7-15.8L95.9 59l-15.8-2.3L73 42.4l-7.1 14.4L50.1 59l11.5 11.2L58.9 86l12.9-6.8v3.3c0 1.5-.2 2.9-.6 4.3-.5 1.6-1.3 3-2.5 4.2l-.6.6v1.7h-3.8v4H62l-1.2 2.9h24.6l-1.5-2.9h-2v-4H78v-1.7l-.6-.6c-1.2-1.2-2-2.6-2.5-4.2-.4-1.4-.6-2.9-.6-4.3v-3.3L87.2 86z"/><path class="st2" d="M87.4 86.2l-2.7-15.8 11.5-11.2-15.8-2.3-7.1-14.4-7.1 14.4-15.8 2.3 11.5 11.2-2.7 15.8L72 79.4v3.3c0 1.5-.2 2.9-.6 4.3-.5 1.6-1.3 3-2.5 4.2l-.6.6v1.7h-3.8v4h-2.3l-1.2 2.9h24.6L84 97.6h-2v-4h-3.8v-1.7l-.6-.6c-1.2-1.2-2-2.6-2.5-4.2-.4-1.4-.6-2.9-.6-4.3v-3.3l12.9 6.7z"/><path class="st2" d="M87.7 86.4L85 70.7l11.5-11.2-15.8-2.3-7.1-14.4-7.1 14.4-15.8 2.3L62 70.7l-2.7 15.8 12.9-6.8V83c0 1.5-.2 2.9-.6 4.3-.5 1.6-1.3 3-2.5 4.2l-.6.6v1.7h-3.8v4h-2.3l-1.2 2.9h24.6l-1.5-2.9h-2v-4h-3.8v-1.7l-.6-.6c-1.2-1.2-2-2.6-2.5-4.2-.4-1.4-.6-2.9-.6-4.3v-3.3l12.9 6.7z"/><path class="st2" d="M87.9 86.7l-2.7-15.8 11.5-11.2-15.8-2.3L73.8 43l-7.1 14.4-15.8 2.3 11.5 11.2-2.7 15.8 12.9-6.8v3.3c0 1.5-.2 2.9-.6 4.3-.5 1.6-1.3 3-2.5 4.2l-.6.6V94H65v4h-2.3l-1.2 2.9H86L84.5 98h-2v-4h-3.8v-1.7l-.6-.6c-1.2-1.2-2-2.6-2.5-4.2-.4-1.4-.6-2.9-.6-4.3v-3.3l12.9 6.8z"/><path class="st2" d="M88.1 86.9l-2.7-15.8L96.9 60l-15.8-2.3L74 43.3l-7.1 14.4L51.1 60l11.5 11.2L59.9 87l12.9-6.8v3.3c0 1.5-.2 2.9-.6 4.3-.5 1.6-1.3 3-2.5 4.2l-.7.6v1.7h-3.8v4h-2.3l-1.2 2.9h24.6l-1.5-2.9h-2v-4H79v-1.7l-.7-.6c-1.2-1.2-2-2.6-2.5-4.2-.4-1.4-.6-2.9-.6-4.3v-3.3l12.9 6.7z"/><path class="st2" d="M88.4 87.1l-2.7-15.8 11.5-11.2-15.8-2.3-7.1-14.4-7.1 14.4-15.8 2.3 11.5 11.2L60 87.1l12.9-6.8v3.3c0 1.5-.2 2.9-.6 4.3-.5 1.6-1.3 3-2.5 4.2l-.6.6v1.7h-3.8v4h-2.3l-1.2 2.9h24.6L85 98.6h-2v-4h-3.8v-1.7l-.6-.6c-1.2-1.2-2-2.6-2.5-4.2-.4-1.4-.6-2.9-.6-4.3v-3.3l12.9 6.6z"/><path class="st2" d="M88.6 87.4l-2.7-15.8 11.5-11.2-15.8-2.3-7.1-14.4-7.1 14.4-15.8 2.3L63 71.6l-2.7 15.8 12.9-6.8v3.3c0 1.5-.2 2.9-.6 4.3-.5 1.6-1.3 3-2.5 4.2l-.6.6v1.7h-3.8v4h-2.3l-1.2 2.9h24.6l-1.5-2.9h-2v-4h-3.8V93l-.6-.6c-1.2-1.2-2-2.6-2.5-4.2-.4-1.4-.6-2.9-.6-4.3v-3.3l12.8 6.8z"/><path class="st2" d="M88.9 87.6l-2.7-15.8 11.5-11.2-15.8-2.3L74.7 44l-7.1 14.4-15.8 2.3 11.5 11.2-2.7 15.8 12.9-6.8v3.3c0 1.5-.2 2.9-.6 4.3-.5 1.6-1.3 3-2.5 4.2l-.6.6V95H66v4h-2.3l-1.2 2.9H87L85.5 99h-2v-4h-3.8v-1.7l-.6-.6c-1.2-1.2-2-2.6-2.5-4.2-.4-1.4-.6-2.9-.6-4.3v-3.3l12.9 6.7z"/><path class="st2" d="M89.1 87.9l-2.7-15.8 11.5-11.2L82 58.6l-7.1-14.4-7.1 14.4L52 60.9l11.5 11.2-2.7 15.8 12.9-6.8v3.3c0 1.5-.2 2.9-.6 4.3-.5 1.6-1.3 3-2.5 4.2l-.6.7v1.7h-3.8v4h-2.3l-1.2 2.9h24.6l-1.5-2.9h-2v-4H80v-1.7l-.7-.6c-1.2-1.2-2-2.6-2.5-4.2-.4-1.4-.6-2.9-.6-4.3v-3.3l12.9 6.7z"/><path class="st2" d="M89.3 88.1l-2.7-15.8 11.5-11.2-15.8-2.3-7.1-14.4-7.1 14.4-15.8 2.3 11.5 11.2L61 88.1l12.9-6.8v3.3c0 1.5-.2 2.9-.6 4.3-.5 1.6-1.3 3-2.5 4.2l-.6.6v1.7h-3.8v4h-2.3l-1.2 2.9h24.6L86 99.4h-2v-4h-3.8v-1.7l-.6-.6c-1.2-1.2-2-2.6-2.5-4.2-.4-1.4-.6-2.9-.6-4.3v-3.3l12.8 6.8z"/><path class="st2" d="M89.6 88.3l-2.7-15.8 11.5-11.2L82.6 59l-7.1-14.4L68.4 59l-15.8 2.3 11.5 11.2-2.7 15.8 12.9-6.8v3.3c0 1.5-.2 2.9-.6 4.3-.5 1.6-1.3 3-2.5 4.2l-.6.6v1.7h-3.8v4h-2.3l-1.2 2.9h24.6l-1.5-2.9h-2v-4h-3.8v-1.7l-.6-.6c-1.2-1.2-2-2.6-2.5-4.2-.4-1.4-.6-2.9-.6-4.3v-3.3l12.7 6.8z"/><path class="st2" d="M89.8 88.6l-2.7-15.8 11.5-11.2-15.8-2.3L75.6 45l-7.1 14.4-15.8 2.3 11.5 11.2-2.7 15.8 12.9-6.8v3.3c0 1.5-.2 2.9-.6 4.3-.5 1.6-1.3 3-2.5 4.2l-.6.6V96h-3.8v4h-2.3l-1.2 2.9H88l-1.5-2.9h-2v-4h-3.8v-1.7l-.7-.6c-1.2-1.2-2-2.6-2.5-4.2-.4-1.4-.6-2.9-.6-4.3v-3.3l12.9 6.7z"/><path class="st2" d="M90 88.8L87.3 73l11.5-11.2L83 59.6l-7.1-14.4-7.1 14.4L53 61.9 64.4 73l-2.7 15.8L74.6 82v3.3c0 1.5-.2 2.9-.6 4.3-.5 1.6-1.3 3-2.5 4.2l-.6.6v1.7h-3.8v4h-2.3l-1.2 2.9h24.6l-1.5-2.9h-2v-4h-3.8v-1.7l-.6-.6c-1.2-1.2-2-2.6-2.5-4.2-.4-1.4-.6-2.9-.6-4.3V82L90 88.8z"/><path class="st2" d="M90.3 89l-2.7-15.8L99 62.1l-15.8-2.3-7.1-14.4L69 59.8l-15.8 2.3 11.5 11.2L61.9 89l12.9-6.8v3.3c0 1.5-.2 2.9-.6 4.3-.5 1.6-1.3 3-2.5 4.2l-.6.6v1.7h-3.8v4H65l-1.2 2.9h24.6l-1.5-2.9h-2v-4h-3.8v-1.7l-.6-.6c-1.2-1.2-2-2.6-2.5-4.2-.4-1.4-.6-2.9-.6-4.3v-3.3L90.3 89z"/><path class="st2" d="M90.5 89.3l-2.7-15.8 11.5-11.2L83.4 60l-7.1-14.4-7 14.4-15.8 2.3L65 73.5l-2.7 15.8 12.9-6.8v3.3c0 1.5-.2 2.9-.6 4.3-.5 1.6-1.3 3-2.5 4.2l-.7.7v1.7h-3.8v4h-2.3l-1.2 2.9h24.6l-1.5-2.9h-2v-4h-3.8V95l-.6-.6c-1.2-1.2-2-2.6-2.5-4.2-.4-1.4-.6-2.9-.6-4.3v-3.3l12.8 6.7z"/><path class="st2" d="M90.8 89.5l-2.7-15.8 11.5-11.2-15.8-2.3-7.1-14.4-7.1 14.4-15.8 2.3 11.5 11.2-2.7 15.8 12.9-6.8V86c0 1.5-.2 2.9-.6 4.3-.5 1.6-1.3 3-2.5 4.2l-.6.6V97H68v4h-2.3l-1.2 2.9h24.6l-1.5-2.9h-2v-4h-3.8v-1.7l-.8-.7c-1.2-1.2-2-2.6-2.5-4.2-.4-1.4-.6-2.9-.6-4.3v-3.3l12.9 6.7z"/><path class="st2" d="M91 89.8L88.3 74l11.5-11.2L84 60.5l-7.1-14.4-7.1 14.4L54 62.8 65.4 74l-2.7 15.8L75.5 83v3.3c0 1.5-.2 2.9-.6 4.3-.5 1.6-1.3 3-2.5 4.2l-.6.6v1.7H68v4h-2.3l-1.2 2.9h24.6l-1.5-2.9h-2v-4h-3.8v-1.7l-.6-.6c-1.2-1.2-2-2.6-2.5-4.2-.4-1.4-.6-2.9-.6-4.3V83L91 89.8z"/><path class="st2" d="M91.2 90l-2.7-15.8L100 63l-15.8-2.3-7.1-14.4L70 60.7 54.1 63l11.5 11.2L62.9 90l12.9-6.8v3.3c0 1.5-.2 2.9-.6 4.3-.5 1.6-1.3 3-2.5 4.2l-.6.6v1.7h-3.8v4H66l-1.2 2.9h24.6l-1.5-2.9h-2v-4H82v-1.7l-.6-.6c-1.2-1.2-2-2.6-2.5-4.2-.4-1.4-.6-2.9-.6-4.3v-3.3L91.2 90z"/><path class="st2" d="M91.5 90.2l-2.7-15.8 11.5-11.2L84.4 61l-7.1-14.4L70.2 61l-15.8 2.3 11.5 11.2-2.7 15.8L76 83.5v3.3c0 1.5-.2 2.9-.6 4.3-.5 1.6-1.3 3-2.5 4.2l-.6.7v1.7h-3.8v4h-2.3l-1.2 2.9h24.6l-1.5-2.9h-2v-4h-3.8V96l-.6-.6c-1.2-1.2-2-2.6-2.5-4.2-.4-1.4-.6-2.9-.6-4.3v-3.3l12.9 6.6z"/><path class="st2" d="M91.7 90.5L89 74.7l11.5-11.2-15.8-2.3-7.1-14.4-7.1 14.4-15.8 2.3 11.5 11.2-2.7 15.8 12.9-6.8V87c0 1.5-.2 2.9-.6 4.3-.5 1.6-1.3 3-2.5 4.2l-.6.6v1.7h-3.8v4h-2.3l-1.2 2.9H90l-1.5-2.9h-2v-4h-3.8v-1.7l-.6-.6c-1.2-1.2-2-2.6-2.5-4.2-.4-1.4-.6-2.9-.6-4.3v-3.3l12.7 6.8z"/><path class="st2" d="M91.9 90.7l-2.7-15.8 11.5-11.2-15.8-2.3L77.8 47l-7.1 14.4-15.8 2.3 11.5 11.2-2.7 15.8 12.9-6.8v3.3c0 1.5-.2 2.9-.6 4.3-.5 1.6-1.3 3-2.5 4.2l-.6.6V98H69v4h-2.3l-1.2 2.9h24.6l-1.5-2.9h-2v-4h-3.8v-1.7l-.6-.6c-1.2-1.2-2-2.6-2.5-4.2-.4-1.4-.6-2.9-.6-4.3v-3.3l12.8 6.8z"/><path class="st2" d="M92.2 90.9l-2.7-15.8L100.9 64l-15.8-2.3L78 47.3l-7.1 14.4L55.1 64l11.5 11.2L63.9 91l12.9-6.8v3.3c0 1.5-.2 2.9-.6 4.3-.5 1.6-1.3 3-2.5 4.2l-.7.7v1.7h-3.8v4h-2.3l-1.2 2.9h24.6l-1.5-2.9h-2v-4H83v-1.7l-.6-.6c-1.2-1.2-2-2.6-2.5-4.2-.4-1.4-.6-2.9-.6-4.3v-3.3l12.9 6.6z"/><path class="st2" d="M92.4 91.2l-2.7-15.8 11.5-11.2-15.8-2.3-7.1-14.4-7.1 14.4-15.8 2.3 11.5 11.2-2.7 15.8L77 84.4v3.3c0 1.5-.2 2.9-.6 4.3-.5 1.6-1.3 3-2.5 4.2l-.6.6v1.7h-3.8v4h-2.3l-1.2 2.9h24.6l-1.5-2.9h-2v-4h-3.8v-1.7l-.6-.6c-1.2-1.2-2-2.6-2.5-4.2-.4-1.4-.6-2.9-.6-4.3v-3.3l12.8 6.8z"/><path class="st2" d="M92.7 91.4L90 75.6l11.5-11.2-15.8-2.3-7.1-14.4-7.1 14.4-15.8 2.3L67 75.6l-2.7 15.8 12.9-6.8v3.3c0 1.5-.2 2.9-.6 4.3-.5 1.6-1.3 3-2.5 4.2l-.6.6v1.7h-3.8v4h-2.3l-1.2 2.9h24.6l-1.5-2.9h-2v-4h-3.8V97l-.6-.6c-1.2-1.2-2-2.6-2.5-4.2-.4-1.4-.6-2.9-.6-4.3v-3.3l12.9 6.8z"/><path class="st2" d="M92.9 91.7l-2.7-15.8 11.5-11.2-15.8-2.3L78.8 48l-7.1 14.4-15.8 2.3 11.5 11.2-2.7 15.8 12.9-6.8v3.3c0 1.5-.2 2.9-.6 4.3-.5 1.6-1.3 3-2.5 4.2l-.6.6V99h-3.8v4h-2.3l-1.2 2.9H91l-1.5-2.9h-2v-4h-3.8v-1.7l-.6-.6c-1.2-1.2-2-2.6-2.5-4.2-.4-1.4-.6-2.9-.6-4.3v-3.3l12.9 6.8z"/><path class="st2" d="M93.1 91.9l-2.7-15.8 11.5-11.2L86 62.6l-7-14.3-7.1 14.4L56 64.9l11.5 11.2-2.7 15.8 12.9-6.8v3.3c0 1.5-.2 2.9-.6 4.3-.5 1.6-1.3 3-2.5 4.2l-.6.7v1.7h-3.8v4h-2.3l-1.2 2.9h24.6l-1.5-2.9h-2v-4H84v-1.7l-.7-.6c-1.2-1.2-2-2.6-2.5-4.2-.4-1.4-.6-2.9-.6-4.3v-3.3l12.9 6.7z"/><path class="st2" d="M93.4 92.1l-2.7-15.8 11.5-11.2-15.8-2.3-7.1-14.4-7.1 14.4-15.8 2.3 11.5 11.2L65 92.1l12.9-6.8v3.3c0 1.5-.2 2.9-.6 4.3-.5 1.6-1.3 3-2.5 4.2l-.6.6v1.7h-3.8v4h-2.3l-1.2 2.9h24.6l-1.5-2.9h-2v-4h-3.8v-1.7l-.6-.6c-1.2-1.2-2-2.6-2.5-4.2-.4-1.4-.6-2.9-.6-4.3v-3.3l12.9 6.8z"/><path class="st2" d="M93.6 92.4l-2.7-15.8 11.5-11.2-15.8-2.3-7.1-14.4-7.1 14.4-15.8 2.3L68 76.6l-2.7 15.8 12.9-6.8v3.3c0 1.5-.2 2.9-.6 4.3-.5 1.6-1.3 3-2.5 4.2l-.6.6v1.7h-3.8v4h-2.3l-1.2 2.9h24.6l-1.5-2.9h-2v-4h-3.8V98l-.6-.6c-1.2-1.2-2-2.6-2.5-4.2-.4-1.4-.6-2.9-.6-4.3v-3.3l12.8 6.8z"/><path class="st2" d="M93.8 92.6l-2.7-15.8 11.5-11.2-15.8-2.3L79.7 49l-7.1 14.4-15.8 2.3 11.5 11.2-2.7 15.8 12.9-6.8v3.3c0 1.5-.2 2.9-.6 4.3-.5 1.6-1.3 3-2.5 4.2l-.6.6v1.7H71v4h-2.3l-1.2 2.9H92l-1.5-2.9h-2v-4h-3.8v-1.7l-.7-.6c-1.2-1.2-2-2.6-2.5-4.2-.4-1.4-.6-2.9-.6-4.3v-3.3l12.9 6.7z"/><path class="st2" d="M94.1 92.8L91.4 77l11.5-11.2L87 63.6l-7.1-14.4-7.1 14.4L57 65.9l11.5 11.2-2.7 15.8 12.9-6.8v3.3c0 1.5-.2 2.9-.6 4.3-.5 1.6-1.3 3-2.5 4.2l-.6.6v1.7h-3.8v4h-2.3l-1.2 2.9h24.6l-1.5-2.9h-2v-4H85v-1.7l-.7-.5c-1.2-1.2-2-2.6-2.5-4.2-.4-1.4-.6-2.9-.6-4.3v-3.3l12.9 6.6z"/><path class="st2" d="M94.3 93.1l-2.7-15.8 11.5-11.2-15.8-2.3-7.1-14.4-7.1 14.4-15.8 2.3 11.5 11.2L66 93.1l12.9-6.8v3.3c0 1.5-.2 2.9-.6 4.3-.5 1.6-1.3 3-2.5 4.2l-.6.6v1.7h-3.8v4h-2.3l-1.2 2.9h24.6l-1.5-2.9h-2v-4h-3.8v-1.7l-.6-.6c-1.2-1.2-2-2.6-2.5-4.2-.4-1.4-.6-2.9-.6-4.3v-3.3l12.8 6.8z"/><path class="st2" d="M94.6 93.3l-2.7-15.8 11.5-11.2L87.6 64l-7.1-14.4L73.4 64l-15.8 2.3 11.5 11.2-2.7 15.8 12.9-6.8v3.3c0 1.5-.2 2.9-.6 4.3-.5 1.6-1.3 3-2.5 4.2l-.6.6v1.7h-3.8v4h-2.3l-1.2 2.9h24.6l-1.5-2.9h-2v-4h-3.8v-1.7l-.6-.6c-1.2-1.2-2-2.6-2.5-4.2-.4-1.4-.6-2.9-.6-4.3v-3.3l12.7 6.8z"/><path class="st2" d="M94.8 93.6l-2.7-15.8 11.5-11.2-15.8-2.3L80.6 50l-7.1 14.4-15.8 2.3 11.5 11.2-2.7 15.8 12.9-6.8v3.3c0 1.5-.2 2.9-.6 4.3-.5 1.6-1.3 3-2.5 4.2l-.6.6v1.7h-3.8v4h-2.3l-1.2 2.9H93l-1.5-2.9h-2v-4h-3.8v-1.7l-.7-.6c-1.2-1.2-2-2.6-2.5-4.2-.4-1.4-.6-2.9-.6-4.3v-3.3l12.9 6.7z"/><path class="st2" d="M95 93.8L92.3 78l11.5-11.2L88 64.5l-7.1-14.4-7.1 14.4L58 66.8 69.4 78l-2.7 15.8L79.6 87v3.3c0 1.5-.2 2.9-.6 4.3-.5 1.6-1.3 3-2.5 4.2l-.6.6v1.7h-3.8v4h-2.3l-1.2 2.9h24.6l-1.5-2.9h-2v-4h-3.8v-1.7l-.6-.6c-1.2-1.2-2-2.6-2.5-4.2-.4-1.4-.6-2.9-.6-4.3V87L95 93.8z"/><path class="st2" d="M95.3 94l-2.7-15.8L104 67.1l-15.8-2.3-7.1-14.4L74 64.8l-15.8 2.3 11.5 11.2L66.9 94l12.9-6.8v3.3c0 1.5-.2 2.9-.6 4.3-.5 1.6-1.3 3-2.5 4.2l-.6.6v1.7h-3.8v4H70l-1.2 2.9h24.6l-1.5-2.9h-2v-4h-3.8v-1.7l-.6-.6c-1.2-1.2-2-2.6-2.5-4.2-.4-1.4-.6-2.9-.6-4.3v-3.3L95.3 94z"/><path class="st2" d="M95.5 94.3l-2.7-15.8 11.5-11.2L88.4 65l-7.1-14.4-7 14.4-15.8 2.3L70 78.5l-2.7 15.8L80 87.5v3.3c0 1.5-.2 2.9-.6 4.3-.5 1.6-1.3 3-2.5 4.2l-.6.6v1.7h-3.8v4h-2.3l-1.2 2.9h24.6l-1.5-2.9h-2v-4h-3.8V100l-.6-.6c-1.2-1.2-2-2.6-2.5-4.2-.4-1.4-.6-2.9-.6-4.3v-3.3l12.9 6.7z"/><path class="st2" d="M95.7 94.5L93 78.7l11.5-11.2-15.8-2.3-7.1-14.4-7.1 14.4-15.8 2.3 11.5 11.2-2.7 15.8 12.9-6.8V91c0 1.5-.2 2.9-.6 4.3-.5 1.6-1.3 3-2.5 4.2l-.6.6v1.7h-3.8v4h-2.3l-1.2 2.9H94l-1.5-2.9h-2v-4h-3.8v-1.7l-.6-.6c-1.2-1.2-2-2.6-2.5-4.2-.4-1.4-.6-2.9-.6-4.3v-3.3l12.7 6.8z"/><path class="st2" d="M96 94.7L93.3 79l11.5-11.2L89 65.5l-7.1-14.4-7.1 14.4L59 67.8 70.4 79l-2.7 15.8L80.5 88v3.3c0 1.5-.2 2.9-.6 4.3-.5 1.6-1.3 3-2.5 4.2l-.6.6v1.7H73v4h-2.3l-1.2 2.9h24.6l-1.5-2.9h-2v-4h-3.8v-1.7l-.6-.6c-1.2-1.2-2-2.6-2.5-4.2-.4-1.4-.6-2.9-.6-4.3V88L96 94.7z"/><path class="st2" d="M96.2 95l-2.7-15.8L105 68l-15.8-2.3-7.1-14.4L75 65.7 59.1 68l11.5 11.2L67.9 95l12.9-6.8v3.3c0 1.5-.2 2.9-.6 4.3-.5 1.6-1.3 3-2.5 4.2l-.6.6v1.7h-3.8v4H71l-1.2 2.9h24.6l-1.5-2.9h-2v-4H87v-1.7l-.6-.6c-1.2-1.2-2-2.6-2.5-4.2-.4-1.4-.6-2.9-.6-4.3v-3.3L96.2 95z"/><path class="st2" d="M96.5 95.2l-2.7-15.8 11.5-11.2L89.4 66l-7.1-14.4L75.2 66l-15.8 2.3 11.5 11.2-2.7 15.8L81 88.5v3.3c0 1.5-.2 2.9-.6 4.3-.5 1.6-1.3 3-2.5 4.2l-.6.6v1.7h-3.8v4h-2.3l-1.2 2.9h24.6l-1.5-2.9h-2v-4h-3.8V101l-.6-.6c-1.2-1.2-2-2.6-2.5-4.2-.4-1.4-.6-2.9-.6-4.3v-3.3l12.9 6.6z"/><path class="st2" d="M96.7 95.5L94 79.7l11.5-11.2-15.8-2.3-7.1-14.4-7.1 14.4-15.8 2.3 11.5 11.2-2.7 15.8 12.9-6.8V92c0 1.5-.2 2.9-.6 4.3-.5 1.6-1.3 3-2.5 4.2l-.6.6v1.7h-3.8v4h-2.3l-1.2 2.9H95l-1.5-2.9h-2v-4h-3.8v-1.7l-.6-.6c-1.2-1.2-2-2.6-2.5-4.2-.4-1.4-.6-2.9-.6-4.3v-3.3l12.7 6.8z"/><path class="st2" d="M96.9 95.7l-2.7-15.8 11.5-11.2-15.8-2.3L82.8 52l-7.1 14.4-15.8 2.3 11.5 11.2-2.7 15.8 12.9-6.8v3.3c0 1.5-.2 2.9-.6 4.3-.5 1.6-1.3 3-2.5 4.2l-.6.6v1.7H74v4h-2.3l-1.2 2.9h24.6l-1.5-2.9h-2v-4h-3.8v-1.7l-.6-.6c-1.2-1.2-2-2.6-2.5-4.2-.4-1.4-.6-2.9-.6-4.3v-3.3l12.8 6.8z"/><path class="st2" d="M97.2 95.9l-2.7-15.8L105.9 69l-15.8-2.3L83 52.3l-7.1 14.4L60.1 69l11.5 11.2L68.9 96l12.9-6.8v3.3c0 1.5-.2 2.9-.6 4.3-.5 1.6-1.3 3-2.5 4.2l-.6.6v1.7h-3.8v4H72l-1.2 2.9h24.6l-1.5-2.9h-2v-4H88v-1.7l-.6-.6c-1.2-1.2-2-2.6-2.5-4.2-.4-1.4-.6-2.9-.6-4.3v-3.3l12.9 6.7z"/><path class="st2" d="M97.4 96.2l-2.7-15.8 11.5-11.2-15.8-2.3-7.1-14.4-7.1 14.4-15.8 2.3 11.5 11.2-2.7 15.8 12.9-6.8v3.3c0 1.5-.2 2.9-.6 4.3-.5 1.6-1.3 3-2.5 4.2l-.6.6v1.7h-3.8v4h-2.3l-1.2 2.9h24.6l-1.5-2.9h-2v-4h-3.8v-1.7l-.6-.6c-1.2-1.2-2-2.6-2.5-4.2-.4-1.4-.6-2.9-.6-4.3v-3.3l12.7 6.8z"/><path class="st2" d="M97.6 96.4l-2.7-15.8 11.5-11.2-15.8-2.3-7.1-14.4-7.1 14.4-15.8 2.3L72 80.6l-2.7 15.8 12.9-6.8v3.3c0 1.5-.2 2.9-.6 4.3-.5 1.6-1.3 3-2.5 4.2l-.6.6v1.7h-3.8v4h-2.3l-1.2 2.9h24.6l-1.5-2.9h-2v-4h-3.8V102l-.6-.6c-1.2-1.2-2-2.6-2.5-4.2-.4-1.4-.6-2.9-.6-4.3v-3.3l12.8 6.8z"/><path class="st2" d="M97.9 96.6l-2.7-15.8 11.5-11.2-15.8-2.3L83.7 53l-7.1 14.4-15.8 2.3 11.5 11.2-2.7 15.8 12.9-6.8v3.3c0 1.5-.2 2.9-.6 4.3-.5 1.6-1.3 3-2.5 4.2l-.6.6v1.7H75v4h-2.3l-1.2 2.9H96l-1.5-2.9h-2v-4h-3.8v-1.7l-.6-.6c-1.2-1.2-2-2.6-2.5-4.2-.4-1.4-.6-2.9-.6-4.3v-3.3l12.9 6.7z"/><path class="st2" d="M98.1 96.9l-2.7-15.8 11.5-11.2L91 67.6l-7-14.3-7.1 14.4L61 69.9l11.5 11.2-2.7 15.8 12.9-6.8v3.3c0 1.5-.2 2.9-.6 4.3-.5 1.6-1.3 3-2.5 4.2l-.6.6v1.7h-3.8v4h-2.3l-1.2 2.9h24.6l-1.5-2.9h-2v-4H89v-1.7l-.6-.6c-1.2-1.2-2-2.6-2.5-4.2-.4-1.4-.6-2.9-.6-4.3v-3.3l12.8 6.8z"/><path class="st2" d="M98.4 97.1l-2.7-15.8 11.5-11.2-15.8-2.3-7.1-14.4-7.1 14.4-15.8 2.3 11.5 11.2L70 97.1l12.9-6.8v3.3c0 1.5-.2 2.9-.6 4.3-.5 1.6-1.3 3-2.5 4.2l-.6.6v1.7h-3.8v4h-2.3l-1.2 2.9h24.6l-1.5-2.9h-2v-4h-3.8v-1.7l-.6-.6c-1.2-1.2-2-2.6-2.5-4.2-.4-1.4-.6-2.9-.6-4.3v-3.3l12.9 6.8z"/><path class="st2" d="M98.6 97.4l-2.7-15.8 11.5-11.2-15.8-2.3-7.1-14.4-7.1 14.4-15.8 2.3L73 81.6l-2.7 15.8 12.9-6.8v3.3c0 1.5-.2 2.9-.6 4.3-.5 1.6-1.3 3-2.5 4.2l-.6.6v1.7h-3.8v4h-2.3l-1.2 2.9h24.6l-1.5-2.9h-2v-4h-3.8V103l-.6-.6c-1.2-1.2-2-2.6-2.5-4.2-.4-1.4-.6-2.9-.6-4.3v-3.3l12.8 6.8z"/><path class="st2" d="M98.8 97.6l-2.7-15.8 11.5-11.2-15.8-2.3L84.7 54l-7.1 14.4-15.8 2.3 11.5 11.2-2.7 15.8 12.9-6.8v3.3c0 1.5-.2 2.9-.6 4.3-.5 1.6-1.3 3-2.5 4.2l-.6.6v1.7H76v4h-2.3l-1.2 2.9H97l-1.5-2.9h-2v-4h-3.8v-1.7l-.6-.6c-1.2-1.2-2-2.6-2.5-4.2-.4-1.4-.6-2.9-.6-4.3v-3.3l12.8 6.7z"/><path class="st2" d="M99.1 97.8L96.4 82l11.5-11.2L92 68.6l-7.1-14.4-7.1 14.4L62 70.9l11.5 11.2-2.7 15.8 12.9-6.8v3.3c0 1.5-.2 2.9-.6 4.3-.5 1.6-1.3 3-2.5 4.2l-.6.6v1.7h-3.8v4h-2.3l-1.2 2.9h24.6l-1.5-2.9h-2v-4H90v-1.7l-.6-.6c-1.2-1.2-2-2.6-2.5-4.2-.4-1.4-.6-2.9-.6-4.3v-3.3l12.8 6.7z"/><path class="st2" d="M99.3 98.1l-2.7-15.8 11.5-11.2-15.8-2.3-7.1-14.4-7.1 14.4-15.8 2.3 11.5 11.2L71 98.1l12.9-6.8v3.3c0 1.5-.2 2.9-.6 4.3-.5 1.6-1.3 3-2.5 4.2l-.6.6v1.7h-3.8v4h-2.3l-1.2 2.9h24.6l-1.5-2.9h-2v-4h-3.8v-1.7l-.6-.6c-1.2-1.2-2-2.6-2.5-4.2-.4-1.4-.6-2.9-.6-4.3v-3.3l12.8 6.8z"/><path class="st2" d="M99.5 98.3l-2.7-15.8 11.5-11.2L92.5 69l-7.1-14.4L78.3 69l-15.8 2.3L74 82.5l-2.7 15.8 12.9-6.8v3.3c0 1.5-.2 2.9-.6 4.3-.5 1.6-1.3 3-2.5 4.2l-.6.6v1.7h-3.8v4h-2.3l-1.2 2.9h24.6l-1.5-2.9h-2v-4h-3.8v-1.7l-.6-.6c-1.2-1.2-2-2.6-2.5-4.2-.4-1.4-.6-2.9-.6-4.3v-3.3l12.7 6.8z"/><path class="st2" d="M99.8 98.5l-2.7-15.8 11.5-11.2-15.8-2.3-7.1-14.4-7.1 14.4-15.8 2.3 11.5 11.2-2.7 15.8 12.9-6.8V95c0 1.5-.2 2.9-.6 4.3-.5 1.6-1.3 3-2.5 4.2l-.6.6v1.7H77v4h-2.3l-1.2 2.9h24.6l-1.5-2.9h-2v-4h-3.8v-1.7l-.6-.6c-1.2-1.2-2-2.6-2.5-4.2-.4-1.4-.6-2.9-.6-4.3v-3.3l12.7 6.8z"/><path class="st2" d="M100 98.8L97.3 83l11.5-11.2L93 69.5l-7.1-14.4-7.1 14.4L63 71.8 74.4 83l-2.7 15.8L84.6 92v3.3c0 1.5-.2 2.9-.6 4.3-.5 1.6-1.3 3-2.5 4.2l-.6.6v1.7h-3.8v4h-2.3l-1.2 2.9h24.6l-1.5-2.9h-2v-4h-3.8v-1.7l-.6-.6c-1.2-1.2-2-2.6-2.5-4.2-.4-1.4-.6-2.9-.6-4.3V92l12.8 6.8z"/><path class="st2" d="M100.3 99l-2.7-15.8L109 72.1l-15.8-2.3-7.1-14.4L79 69.8l-15.8 2.3 11.5 11.2L71.9 99l12.9-6.8v3.3c0 1.5-.2 2.9-.6 4.3-.5 1.6-1.3 3-2.5 4.2l-.6.6v1.7h-3.8v4H75l-1.2 2.9h24.6l-1.5-2.9h-2v-4h-3.8v-1.7l-.6-.6c-1.2-1.2-2-2.6-2.5-4.2-.4-1.4-.6-2.9-.6-4.3v-3.3l12.9 6.8z"/><path class="st2" d="M100.5 99.3l-2.7-15.8 11.5-11.2L93.4 70l-7.1-14.4L79.2 70l-15.8 2.3 11.5 11.2-2.7 15.8L85 92.5v3.3c0 1.5-.2 2.9-.6 4.3-.5 1.6-1.3 3-2.5 4.2l-.6.6v1.7h-3.8v4h-2.3l-1.2 2.9h24.6l-1.5-2.9h-2v-4h-3.8V105l-.6-.6c-1.2-1.2-2-2.6-2.5-4.2-.4-1.4-.6-2.9-.6-4.3v-3.3l12.9 6.7z"/><path class="st2" d="M100.7 99.5L98 83.7l11.5-11.2-15.8-2.3-7.1-14.4-7.1 14.4-15.8 2.3 11.5 11.2-2.7 15.8 12.9-6.8V96c0 1.5-.2 2.9-.6 4.3-.5 1.6-1.3 3-2.5 4.2l-.6.6v1.7h-3.8v4h-2.3l-1.2 2.9H99l-1.5-2.9h-2v-4h-3.8v-1.7l-.6-.6c-1.2-1.2-2-2.6-2.5-4.2-.4-1.4-.6-2.9-.6-4.3v-3.3l12.7 6.8z"/><path class="st2" d="M101 99.7L98.3 84l11.5-11.2L94 70.5l-7.1-14.4-7.1 14.4L64 72.8 75.3 84l-2.7 15.8L85.5 93v3.3c0 1.5-.2 2.9-.6 4.3-.5 1.6-1.3 3-2.5 4.2l-.6.6v1.7H78v4h-2.3l-1.2 2.9h24.6l-1.5-2.9h-2v-4h-3.8v-1.7l-.6-.6c-1.2-1.2-2-2.6-2.5-4.2-.4-1.4-.6-2.9-.6-4.3V93l12.9 6.7z"/><path class="st2" d="M101.2 100l-2.7-15.8L110 73l-15.8-2.3L87 56.4l-7 14.3L64.1 73l11.5 11.2-2.7 15.8 12.9-6.8v3.3c0 1.5-.2 2.9-.6 4.3-.5 1.6-1.3 3-2.5 4.2l-.6.6v1.7h-3.8v4H76l-1.2 2.9h24.6l-1.5-2.9h-2v-4H92v-1.7l-.6-.6c-1.2-1.2-2-2.6-2.5-4.2-.4-1.4-.6-2.9-.6-4.3v-3.3l12.9 6.8z"/><path class="st2" d="M101.4 100.2l-2.7-15.8 11.5-11.2L94.4 71l-7.1-14.4L80.2 71l-15.8 2.3 11.5 11.2-2.7 15.8L86 93.4v3.3c0 1.5-.2 2.9-.6 4.3-.5 1.6-1.3 3-2.5 4.2l-.6.6v1.7h-3.8v4h-2.3l-1.2 2.9h24.6l-1.5-2.9h-2v-4h-3.8V106l-.6-.6c-1.2-1.2-2-2.6-2.5-4.2-.4-1.4-.6-2.9-.6-4.3v-3.3l12.8 6.6z"/><path class="st2" d="M101.7 100.4L99 84.7l11.5-11.2-15.8-2.3-7.1-14.4-7.1 14.4-15.8 2.3 11.5 11.2-2.7 15.8 12.9-6.8V97c0 1.5-.2 2.9-.6 4.3-.5 1.6-1.3 3-2.5 4.2l-.6.6v1.7h-3.8v4h-2.3l-1.2 2.9H100l-1.5-2.9h-2v-4h-3.8v-1.7l-.6-.6c-1.2-1.2-2-2.6-2.5-4.2-.4-1.4-.6-2.9-.6-4.3v-3.3l12.7 6.7z"/><path class="st2" d="M101.9 100.7l-2.7-15.8 11.5-11.2-15.8-2.3L87.8 57l-7.1 14.4-15.8 2.3 11.5 11.2-2.7 15.8 12.9-6.8v3.3c0 1.5-.2 2.9-.6 4.3-.5 1.6-1.3 3-2.5 4.2l-.6.6v1.7H79v4h-2.3l-1.2 2.9H100l-1.5-2.9h-2v-4h-3.8v-1.7l-.6-.6c-1.2-1.2-2-2.6-2.5-4.2-.4-1.4-.6-2.9-.6-4.3v-3.3l12.9 6.8z"/></g><path class="st3" d="M41.3 49.5v-6.1h-2.6v6.1c0 1.5-.2 2.9-.6 4.3-.5 1.6-1.3 3-2.5 4.2l-.6.7h10l-.6-.7c-1.2-1.2-2-2.6-2.5-4.2-.4-1.4-.6-2.9-.6-4.3z"/><path class="st4" d="M59.7 27l-13.6-1.9L40 12.7l-6.1 12.4L20.3 27l9.9 9.6-2.4 13.6L40 43.8l12.2 6.4-2.4-13.6z"/><path class="st5" d="M33.9 25.1L40 12.7v20.6z"/><path class="st6" d="M40 12.7l6.1 12.4-6.1 8.2z"/><path class="st5" d="M46.1 25.1L59.7 27 40 33.3zM30.2 36.6L20.3 27 40 33.3z"/><path class="st6" d="M20.3 27l13.6-1.9 6.1 8.2zm31.9 23.2L40 43.8V33.3zM40 33.3L27.8 50.2l2.4-13.6z"/><path class="st6" d="M59.7 27l-9.9 9.6-9.8-3.3z"/><path class="st5" d="M40 43.8l-12.2 6.4L40 33.3zm9.8-7.2l2.4 13.6L40 33.3z"/><path class="st6" d="M35 58.7h9.9v1.7H35z"/><path class="st7" d="M31.2 60.4h17.6v4H31.2z"/><path class="st8" d="M27.7 67.3h24.6l-1.5-2.9H28.9z"/></svg>