<svg id="Layer_1" xmlns="http://www.w3.org/2000/svg" viewBox="0 0 61.2 84"><style>.st0{fill:#1ba7a5}.st1{fill:#afa3b5}.st2{fill:#99909e}.st3{fill:#88818c}.st4{fill-rule:evenodd;clip-rule:evenodd;fill:#f4f4f4}.st5{fill:#fff}.st6{font-family:&apos;Arial-BoldMT&apos;}.st7{font-size:7.2027px}</style><path class="st0" d="M23.4 5.5zM11.3 3.6c0-.1-.1-.2-.1-.3.1.2.1.2.1.3zm38.3-1.1zm-12 2c-.1-.1-.1-.2-.2-.3.1.1.1.2.2.3z"/><path d="M13.2 77.3h-1.8v-4.6c0-.7-.6-1.2-1.2-1.2H8.6c-.7 0-1.2.5-1.2 1.2v10c0 .7.6 1.3 1.2 1.3h1.7c.7 0 1.2-.6 1.2-1.3v-4.4h1.8c.3 0 .5-.3.5-.6s-.3-.4-.6-.4zm34.8 0h1.8v-4.6c0-.7.6-1.2 1.2-1.2h1.7c.7 0 1.2.5 1.2 1.2v10c0 .7-.6 1.3-1.2 1.3H51c-.7 0-1.2-.6-1.2-1.3v-4.4H48c-.3 0-.6-.3-.6-.6.1-.3.3-.4.6-.4z"/><path class="st1" d="M30.6 0H1.2C.5 0 0 .6 0 1.3v4.2c0 .7.5 1.2 1.2 1.2h29.4V0z"/><path class="st2" d="M61.2 5.4V1.3c0-.7-.5-1.3-1.1-1.3H30.6v6.6h29.5c.6 0 1.1-.5 1.1-1.2zM30.6 9.1V6.6H2.3l.1 1.8c6 0 16.9 0 28.2.7z"/><path class="st1" d="M2.3 8.4l2.4 59c0 2.3 1.6 4.2 3.7 4.2h3.9v7.9c0 1.5 1.9 2.8 4.2 2.8h14.1V9c-11.3-.7-22.2-.7-28.3-.6z"/><path class="st3" d="M58.7 13.1l.3-6.5H30.6v2.5c10 .6 20.1 1.8 28.1 4z"/><path class="st2" d="M30.6 9v73.3h14.2c2.3 0 4.2-1.2 4.2-2.8v-7.9h3.9c2 0 3.6-1.9 3.6-4.2L58.7 13c-8-2.1-18.1-3.3-28.1-4z"/><path id="XMLID_15_" class="st4" d="M22 36.6c-.9 0-1.7-.2-2.4-.6-.7-.4-1.1-.8-1.3-1.3-.1-.2-.2-.4-.2-.6 0-.2-.1-.4-.1-.7 0-.4 0-.8.2-1.2.1-.4.2-.7.4-.9.2-.3.3-.5.4-.6l.3-.3-1.9-1.1 6.2-.2 2.9 5.4-1.8-1-.3.3c-.1.1-.2.3-.4.4-.1.2-.3.3-.4.5-.1.2-.2.3-.3.4-.1.2-.2.4-.2.6 0 .3.1.5.3.7.2.1.4.2.5.3l-1.9-.1zm17.9.9c.6 0 1.2-.2 1.7-.4s.9-.5 1.3-.8c.4-.3.6-.6.8-.8.2-.2.3-.4.4-.5-.1.4-.3.7-.4 1.1-.2.3-.4.7-.7 1.2-.2.3-.3.5-.4.7-.1.3-.3.6-.4.9-.4.8-.7 1.5-.9 2-.2.5-.5.9-.8 1.4-.3.4-.6.8-.9 1.1-.3.3-.6.4-1 .4h-3.2V46l-3.3-5.3 3.3-5.2v2.1c2.8-.1 4.4-.1 4.5-.1zM27.8 19.3h3.5c1.7 0 3 0 3.8.1.8.1 1.3.3 1.5.7 0 .1.1.2.3.5.2.3.3.6.5.9.2.3.4.6.5.8.1.2.2.4.3.5l1.9-1.1-2.6 5.8L31 27l1.8-1.1-2.3-3.8c-.3-.6-.7-1.1-1.2-1.5-.4-.4-.9-.6-1.3-.8-.4-.2-.8-.3-1.1-.3-.3 0-.5-.1-.7-.1.5 0 1-.1 1.6-.1zm-8.4 17.3c-.7-.3-1.1-.7-1.4-1.2.1.1.2.3.3.6.2.3.4.6.6 1.1.3.5.5.9.8 1.5.3.5.5.9.6 1.1.1.1.1.2.1.3.2.5.4.9.6 1.2.2.4.4.7.7 1.1.2.4.5.7.8 1 .3.2.5.4.7.4l7-.1V37c-4.1 0-6.9.1-8.5.1-.8 0-1.6-.2-2.3-.5zm19.8-.2c-.3-.5-1-1.5-2-3.1s-1.6-2.5-1.8-2.8l5.5-3.3c.1.1.2.3.4.7l.7 1.4c.6 1.1 1 1.9 1.3 2.5.3.5.5.9.6 1.1.1.2.1.4.1.6 0 .3-.1.7-.2 1.1-.1.1-.2.3-.4.5s-.4.5-.8.8c-.3.3-.8.6-1.3.9-.5.3-1.1.4-1.6.4 0-.1-.2-.3-.5-.8zm-12.8-7.2l-5.4-3c.1-.1.3-.5.7-1.2.1-.1.3-.5.7-1.1.4-.6.7-1.1 1-1.6.3-.5.5-.8.7-1.1.2-.3.3-.5.4-.6.1-.2.3-.4.5-.5.2-.1.6-.2 1-.3.2 0 .4 0 .7.1.3 0 .7.1 1.1.3.4.2.9.4 1.3.8s.8.8 1.1 1.4l.1.1c.1.1.2.3.2.4l-4.1 6.3z"/><text transform="translate(10.435 60.41)" class="st5 st6 st7">Batteries</text></svg>