<svg id="Layer_1" xmlns="http://www.w3.org/2000/svg" viewBox="0 0 64 101.4"><style>.st0{fill:#25bfe8}.st1{fill:#c2c3c4}.st2{fill:#8d8f91}.st3{fill:#ea4924}.st4{fill:#dd3e24}.st5{fill:#314c60}.st6{fill:#456277}.st7{fill:#478970}.st8{fill:#3d7a61}.st9{fill:#9fa2a5}.st10{fill:#53809b}.st11{fill:#e29a0a}.st12{fill:#f4aa08}.st13{fill:#e5c028}.st14{fill:#d3b226}.st15{fill:#1ba7a5}.st16{fill:#afa3b5}.st17{fill:#99909e}.st18{fill:#88818c}.st19{fill-rule:evenodd;clip-rule:evenodd;fill:#f4f4f4}.st20{fill:#fff}.st21{font-family:&apos;Arial-BoldMT&apos;}.st22{font-size:7.2027px}</style><path class="st0" d="M22.4 3.9c.1.3 0 .7-.3.8l-1 .3c-.3.1-.6-.1-.7-.4-.1-.3 0-.7.3-.8l.9-.3c.3-.1.7.1.8.4zM32.3.4c.1.3 0 .7-.3.8l-1 .3c-.3.1-.6-.1-.7-.4-.1-.3 0-.7.3-.8l.9-.3c.3-.1.7.1.8.4z"/><path transform="rotate(-19.361 25.668 11.744)" class="st1" d="M21.9 3.3h7.6v16.9h-7.6z"/><path transform="rotate(-19.361 32.838 9.224)" class="st2" d="M29 .8h7.6v16.9H29z"/><path transform="rotate(-19.361 26.366 11.415)" class="st3" d="M23.3 4.5h6.1v13.9h-6.1z"/><path transform="rotate(-19.361 32.087 9.404)" class="st4" d="M29.1 2.5h6v13.9h-6z"/><path class="st0" d="M23.7 6.3l-.6.3-.3-.7-.3.1.2.7-.6.2.1.4.6-.3.3.7.3-.1-.2-.7.6-.2z"/><path transform="rotate(-19.361 31.794 3.697)" class="st0" d="M30.9 3.5h1.7v.4h-1.7z"/><path class="st5" d="M25.2 11.7l1.5.5.3-1-11.4-3.8-.4 1z"/><path class="st6" d="M15.6 7.4L4.2 3.7l-.4 1 1.5.5 9.9 3.2zM2.1 15.1l-1.5-.5-.6 1.8 11.4 3.7.6-1.8z"/><path class="st5" d="M11.4 20.1l11.5 3.7.6-1.8-1.6-.5-9.9-3.2z"/><path transform="rotate(-72.031 8.687 11.771)" class="st7" d="M3.5 6.6h10.4V17H3.5z"/><path transform="rotate(-72.031 18.585 14.981)" class="st8" d="M13.4 9.8h10.4v10.4H13.4z"/><path transform="rotate(-72.031 8.174 4.34)" class="st9" d="M7.5 3.7h1.3V5H7.5z"/><path transform="rotate(-72.031 23.06 9.167)" class="st2" d="M22.4 8.5h1.3v1.3h-1.3z"/><path class="st3" d="M8.1 7.9l-.8-.3.3-.8-.4-.1-.2.8-.8-.3-.2.4.8.3-.2.8.3.1.3-.8.8.3z"/><path transform="rotate(-72.031 21.94 12.534)" class="st3" d="M21.8 11.5h.4v2.1h-.4z"/><path class="st10" d="M36.3 12.9l-.6.4-.7-1 10-6.8.6.9z"/><path class="st6" d="M45 5.5l9.9-7.1.7 1-.7.5-9.3 6.5zm16.4 3.7l1.4-1L64 9.9l-10.7 7.5-1.2-1.7z"/><path class="st10" d="M53.3 17.4l-10.8 7.5-1.2-1.7 1.5-1 9.3-6.5z"/><path transform="rotate(-34.955 53.484 7.79)" class="st11" d="M47.8 2.1h11.3v11.3H47.8z"/><path transform="rotate(-34.955 44.204 14.277)" class="st12" d="M38.5 8.6h11.4v11.3H38.5z"/><path transform="rotate(-34.955 51.656 -.105)" class="st9" d="M50.9-.8h1.4V.6h-1.4z"/><path transform="rotate(-34.955 37.7 9.649)" class="st1" d="M37 8.9h1.4v1.4H37z"/><path class="st3" d="M52.8 3.5l.8-.5-.5-.7.3-.2.5.7.8-.6.2.4-.7.6.5.7-.3.2-.5-.7-.8.5z"/><path transform="rotate(-34.955 39.935 12.796)" class="st3" d="M38.8 12.6H41v.4h-2.2z"/><path class="st2" d="M19.5 13.5c.1.1.2.2.1.4l-.5.9c-.1.1-.2.2-.4.1l-.6-.3c-.1-.1-.2-.2-.1-.4l.5-.9c.1-.1.2-.2.4-.1l.6.3z"/><path class="st13" d="M18.4 15c-.2.3-.1.7.3.9l7.3 3.5c.3.2.7 0 .9-.3l.5-1-8.6-4.1-.4 1z"/><path class="st14" d="M19.3 13l-.5 1 8.5 4.1.5-1c.2-.3 0-.8-.3-.9l-7.3-3.5c-.3-.2-.7 0-.9.3z"/><path class="st2" d="M45.6 13.2c-.1.1-.3.1-.4 0l-.6-.8c-.1-.1-.1-.3 0-.4l.5-.4c.1-.1.3-.1.4 0l.6.8c.1.1.1.3 0 .4l-.5.4z"/><path class="st3" d="M44.7 11.5c-.2-.3-.6-.4-.9-.1l-6.4 4.9c-.3.2-.3.6-.1.9l.7.8 7.4-5.7-.7-.8z"/><path class="st4" d="M46 13.2l-.7-.9L38 18l.7.9c.2.3.7.4.9.1l6.4-4.9c.3-.1.3-.6 0-.9z"/><path class="st15" d="M22.9 21.8s0 .1 0 0c0 .1 0 0 0 0zM11.2 20c0-.1-.1-.2-.1-.3 0 .1 0 .2.1.3zm37.3-1.1zm-11.8 1.9c-.1-.1-.1-.2-.2-.2l.2.2zm-11.9 2.1s-.1 0 0 0c-.1 0 0 0 0 0zm-12.1-1.8c0-.1-.1-.2-.1-.3.1.1.1.2.1.3zM51 19.9zm-12 2c-.1-.1-.1-.2-.2-.3.1.1.1.2.2.3z"/><path d="M14.6 94.7h-1.8v-4.6c0-.7-.6-1.2-1.2-1.2H10c-.7 0-1.2.5-1.2 1.2v10c0 .7.6 1.3 1.2 1.3h1.7c.7 0 1.2-.6 1.2-1.3v-4.4h1.8c.3 0 .5-.3.5-.6-.1-.3-.3-.4-.6-.4zm34.8 0h1.8v-4.6c0-.7.6-1.2 1.2-1.2h1.7c.7 0 1.2.5 1.2 1.2v10c0 .7-.6 1.3-1.2 1.3h-1.7c-.7 0-1.2-.6-1.2-1.3v-4.4h-1.8c-.3 0-.6-.3-.6-.6.1-.3.3-.4.6-.4z"/><path class="st16" d="M32 17.4H2.6c-.7 0-1.2.6-1.2 1.3v4.2c0 .7.5 1.2 1.2 1.2H32v-6.7z"/><path class="st17" d="M62.6 22.8v-4.2c0-.7-.5-1.3-1.1-1.3H32V24h29.5c.6 0 1.1-.5 1.1-1.2zM32 26.5V24H3.7l.1 1.8c6 0 16.9 0 28.2.7z"/><path class="st16" d="M3.7 25.8l2.4 59c0 2.3 1.6 4.2 3.7 4.2h3.9v8c0 1.5 1.9 2.8 4.2 2.8H32V26.4c-11.3-.7-22.2-.7-28.3-.6z"/><path class="st18" d="M60.1 30.5l.3-6.5H32v2.5c9.9.6 20.1 1.8 28.1 4z"/><path class="st17" d="M32 26.4v73.3h14.2c2.3 0 4.2-1.2 4.2-2.8V89h3.9c2 0 3.6-1.9 3.6-4.2L60 30.4c-7.9-2.1-18.1-3.3-28-4z"/><path id="XMLID_15_" class="st19" d="M23.3 54.1c-.9 0-1.7-.2-2.4-.6-.7-.4-1.1-.8-1.3-1.3-.1-.2-.2-.4-.2-.6 0-.2-.1-.4-.1-.7 0-.4 0-.8.2-1.2.1-.4.2-.7.4-.9.2-.3.3-.5.4-.6l.3-.3-1.9-1.1 6.2-.2 2.9 5.4-1.8-1-.3.3c-.1.1-.2.3-.4.4-.1.2-.3.3-.4.5-.1.2-.2.3-.3.4-.1.2-.2.4-.2.6 0 .3.1.5.3.7.2.1.4.2.5.3l-1.9-.1zm18 .8c.6 0 1.2-.2 1.7-.4s.9-.5 1.3-.8c.4-.3.6-.6.8-.8.2-.2.3-.4.4-.5-.1.4-.3.7-.4 1.1-.2.3-.4.7-.7 1.2-.2.3-.3.5-.4.7-.1.3-.3.6-.4.9-.4.8-.7 1.5-.9 2-.2.5-.5.9-.8 1.4-.3.4-.6.8-.9 1.1-.3.3-.6.4-1 .4h-3.2v2.2L33.3 58l3.3-5.2v2.1h4.7zM29.1 36.7h3.5c1.7 0 3 0 3.8.1.8.1 1.3.3 1.5.7 0 .1.1.2.3.5.2.3.3.6.5.9.2.3.4.6.5.8.1.2.2.4.3.5l1.9-1.1-2.6 5.8-6.4-.5 1.8-1.1-2.3-3.8c-.3-.6-.7-1.1-1.2-1.5-.4-.4-.9-.6-1.3-.8-.4-.2-.8-.3-1.1-.3-.3 0-.5-.1-.7-.1.4 0 .9-.1 1.5-.1zm-8.3 17.4c-.7-.3-1.1-.7-1.4-1.2.1.1.2.3.3.6.2.3.4.6.6 1.1.3.5.5.9.8 1.5.3.5.5.9.6 1.1.1.1.1.2.1.3.2.5.4.9.6 1.2.2.4.4.7.7 1.1.2.4.5.7.8 1 .3.2.5.4.7.4l7-.1-.1-6.7c-4.1 0-6.9.1-8.5.1-.7 0-1.5-.1-2.2-.4zm19.8-.3c-.3-.5-1-1.5-2-3.1s-1.6-2.5-1.8-2.8l5.5-3.3c.1.1.2.3.4.7l.7 1.4c.6 1.1 1 1.9 1.3 2.5.3.5.5.9.6 1.1.1.2.1.4.1.6 0 .3-.1.7-.2 1.1-.1.1-.2.3-.4.5s-.4.5-.8.8c-.3.3-.8.6-1.3.9-.5.3-1.1.4-1.6.4-.1 0-.2-.3-.5-.8zm-12.8-7.2l-5.4-3c.1-.1.3-.5.7-1.2.1-.1.3-.5.7-1.1.4-.6.7-1.1 1-1.6.3-.5.5-.8.7-1.1.2-.3.3-.5.4-.6.1-.2.3-.4.5-.5.2-.1.6-.2 1-.3.2 0 .4 0 .7.1.3 0 .7.1 1.1.3.4.2.9.4 1.3.8s.8.8 1.1 1.4l.1.1c.1.1.2.3.2.4l-4.1 6.3z"/><text transform="translate(11.825 77.825)" class="st20 st21 st22">Batteries</text></svg>