<svg width="62" height="85" viewBox="0 0 62 85" xmlns="http://www.w3.org/2000/svg"><title>glass2</title><g fill="none" fill-rule="evenodd"><path d="M13.5 77.7h-1.8v-4.6c0-.7-.6-1.2-1.2-1.2H8.8c-.7 0-1.2.5-1.2 1.2v10c0 .7.6 1.3 1.2 1.3h1.7c.7 0 1.2-.6 1.2-1.3v-4.4h1.8c.3 0 .5-.3.5-.6 0-.2-.2-.4-.5-.4zm34.8 0h1.8v-4.6c0-.7.6-1.2 1.2-1.2H53c.7 0 1.2.5 1.2 1.2v10c0 .7-.6 1.3-1.2 1.3h-1.7c-.7 0-1.2-.6-1.2-1.3v-4.4h-1.8c-.3 0-.6-.3-.6-.6 0-.2.3-.4.6-.4z" fill="#000" fill-rule="nonzero"/><g fill-rule="nonzero"><path d="M30.9.5H1.5C.8.5.3 1.1.3 1.8V6c0 .7.5 1.2 1.2 1.2h29.4V.5z" fill="#2E6B11"/><path d="M61.5 5.9V1.7c0-.7-.5-1.3-1.1-1.3H30.9V7h29.5c.6.1 1.1-.4 1.1-1.1z" fill="#2A5B10"/></g><g fill-rule="nonzero"><path d="M30.9 9.6V7.1H2.6V9c6.1-.1 17-.2 28.3.6z" fill="#2A5B10"/><path d="M2.6 8.9l2.4 59c0 2.3 1.6 4.2 3.7 4.2h3.9V80c0 1.5 1.9 2.8 4.2 2.8h14.1V9.5c-11.3-.7-22.2-.7-28.3-.6z" fill="#2E6B11"/><path d="M59 13.6l.3-6.5H30.9v2.5c9.9.6 20.1 1.8 28.1 4z" fill="#264F0E"/><path d="M30.9 9.5v73.3H45c2.3 0 4.2-1.2 4.2-2.8v-7.9h3.9c2 0 3.6-1.9 3.6-4.2L59 13.5c-8-2.2-18.2-3.4-28.1-4z" fill="#2A5B10"/></g><path d="M22.2 37.1c-.9 0-1.7-.2-2.4-.6-.7-.4-1.1-.8-1.3-1.3-.1-.2-.2-.4-.2-.6 0-.2-.1-.4-.1-.7 0-.4 0-.8.2-1.2.1-.4.2-.7.4-.9.2-.3.3-.5.4-.6l.3-.3-1.9-1.1 6.2-.2 2.9 5.4-1.8-1-.3.3c-.1.1-.2.3-.4.4-.1.2-.3.3-.4.5-.1.2-.2.3-.3.4-.1.2-.2.4-.2.6 0 .3.1.5.3.7.2.1.4.2.5.3l-1.9-.1zm17.9.8c.6 0 1.2-.2 1.7-.4s.9-.5 1.3-.8c.4-.3.6-.6.8-.8.2-.2.3-.4.4-.5-.1.4-.3.7-.4 1.1-.2.3-.4.7-.7 1.2-.2.3-.3.5-.4.7-.1.3-.3.6-.4.9-.4.8-.7 1.5-.9 2-.2.5-.5.9-.8 1.4-.3.4-.6.8-.9 1.1-.3.3-.6.4-1 .4h-3.2v2.2l-3.3-5.3 3.3-5.2V38c2.9-.1 4.5-.1 4.5-.1zM28 19.8h3.5c1.7 0 3 0 3.8.1.8.1 1.3.3 1.5.7 0 .1.1.2.3.5.2.3.3.6.5.9.2.3.4.6.5.8.1.2.2.4.3.5l1.9-1.1-2.6 5.8-6.4-.5 1.8-1.1-2.3-3.8c-.3-.6-.7-1.1-1.2-1.5-.4-.4-.9-.6-1.3-.8-.4-.2-.8-.3-1.1-.3-.3 0-.5-.1-.7-.1.4-.1.9-.1 1.5-.1zm-8.3 17.3c-.7-.3-1.1-.7-1.4-1.2.1.1.2.3.3.6.2.3.4.6.6 1.1.3.5.5.9.8 1.5.3.5.5.9.6 1.1.1.1.1.2.1.3.2.5.4.9.6 1.2.2.4.4.7.7 1.1.2.4.5.7.8 1 .3.2.5.4.7.4l7-.1-.1-6.7c-4.1 0-6.9.1-8.5.1-.8 0-1.5-.1-2.2-.4zm19.7-.2c-.3-.5-1-1.5-2-3.1s-1.6-2.5-1.8-2.8l5.5-3.3c.1.1.2.3.4.7l.7 1.4c.6 1.1 1 1.9 1.3 2.5.3.5.5.9.6 1.1.1.2.1.4.1.6 0 .3-.1.7-.2 1.1-.1.1-.2.3-.4.5s-.4.5-.8.8c-.3.3-.8.6-1.3.9-.5.3-1.1.4-1.6.4 0-.1-.1-.3-.5-.8zm-12.8-7.3l-5.4-3c.1-.1.3-.5.7-1.2.1-.1.3-.5.7-1.1.4-.6.7-1.1 1-1.6.3-.5.5-.8.7-1.1.2-.3.3-.5.4-.6.1-.2.3-.4.5-.5.2-.1.6-.2 1-.3.2 0 .4 0 .7.1.3 0 .7.1 1.1.3.4.2.9.4 1.3.8s.8.8 1.1 1.4l.1.1c.1.1.2.3.2.4l-4.1 6.3z" fill="#F4F4F4"/><text fill="#FFF" font-family="Helvetica" font-size="7.217"><tspan x="18.482" y="60.839">GLASS</tspan></text></g></svg>