<svg id="Layer_1" xmlns="http://www.w3.org/2000/svg" viewBox="0 0 63.7 107.5"><style>.st0{fill:#b4cbd1}.st1{fill:#1ba7a5}.st2{fill:#d6eef2}.st3{fill:#bfd5dd}.st4{fill:#e5e3e3}.st5{fill:#2e6b11}.st6{fill:#2a5b10}.st7{fill:#264f0e}.st8{fill-rule:evenodd;clip-rule:evenodd;fill:#f4f4f4}.st9{fill:#fff}.st10{font-family:&apos;Arial-BoldMT&apos;}.st11{font-size:7.2167px}</style><path transform="rotate(-80.427 20.01 10.196)" class="st0" d="M19 5.8h1.9v8.7H19z"/><path class="st1" d="M24.1 10.2l-.2 1.3-8-1.4.2-1.3 8 1.4m.4-.2l-8.6-1.4-.3 1.9 8.6 1.4.3-1.9z"/><path class="st0" d="M25.1 9.4c-.1.4-.4.7-.8.6l-8.4-1.4c-.4-.1-.6-.4-.5-.8l9.7 1.6z"/><path class="st1" d="M24.3 10.2l-8.4-1.4c-.4-.1-.7-.5-.6-1v-.1l9.9 1.7v.1c-.1.4-.5.8-.9.7zM15.5 8c0 .2.2.5.4.5l8.4 1.4c.2 0 .5-.1.6-.3L15.5 8z"/><path class="st0" d="M23.8 23.4c-.2 1.4-1.5 2.7-2.8 2.4l-7.1-1.2c-1.3-.2-2.1-1.8-1.9-3.2l1.6-8.7c.2-1.4 1.5-2.4 2.8-2.2l6.9 1.2c1.3.2 2.1 1.5 1.9 2.9l-1.4 8.8z"/><path class="st1" d="M19.9 10.6l-4.5-1.4c-.1 0-.1-.1-.1-.2s.1-.1.2-.1l4.5 1.4c.1 0 .1.1.1.2s-.1.1-.2.1z"/><ellipse transform="rotate(-69.439 16.16 14.015)" class="st2" cx="16.2" cy="14" rx="2.8" ry="1.4"/><path class="st2" d="M15.2 20.5c-.1.5-.5.9-.9.9-.4-.1-.6-.6-.5-1.1l.3-1.5c.1-.5.5-.9.9-.9.4.1.6.6.5 1.1l-.3 1.5z"/><path class="st1" d="M24.5 11.4L20 10c-.1 0-.1-.1-.1-.2s.1-.1.2-.1l4.5 1.4c.1 0 .1.1.1.2-.1 0-.1.1-.2.1zm-.4 12.1l1.4-8.8c.1-.4.1-.8 0-1.1-.1-.4-.2-.7-.4-1-.2-.3-.4-.6-.7-.7-.3-.2-.6-.3-1-.4l-6.9-1.2c-.3-.1-.7 0-1 .1-.3.1-.6.2-.9.5-.3.2-.5.5-.7.8-.2.3-.3.7-.4 1.1l-1.6 8.7c-.1.8 0 1.6.4 2.3.2.3.4.6.7.8.3.2.6.4 1 .4l7.1 1.2c.4.1.7 0 1.1-.1.3-.1.6-.3.9-.6.4-.5.8-1.3 1-2zM13.6 12.7c.2-1.4 1.5-2.4 2.8-2.2l6.9 1.2c1.3.2 2.1 1.5 1.9 2.9l-1.3 8.2-.2.4h-.1.1c-.2.3-.4.8-.6 1.1-.5.7-1.2 1.1-2 1.1l-3.6-.6-3.5-.6c-.8-.3-1.3-.8-1.5-1.7-.1-.4-.2-.9-.2-1.2h.1-.1v-.4l1.3-8.2zm9.7 12zM12.2 23c0-.1-.1-.2-.1-.3 0 .1.1.2.1.3z"/><path transform="rotate(-8.204 39.944 9.17)" class="st0" d="M35.6 8.2h8.7v1.9h-8.7z"/><path class="st1" d="M43.9 7.9l.2 1.3-8.1 1.2-.2-1.3 8.1-1.2m.2-.3l-8.6 1.2.3 1.9 8.6-1.2-.3-1.9z"/><path class="st0" d="M44.5 6.9c.1.4-.2.8-.5.8l-8.4 1.2c-.4.1-.7-.2-.7-.6l9.6-1.4z"/><path class="st1" d="M44 7.9l-8.4 1.2c-.4.1-.8-.3-.9-.8v-.1l9.9-1.4v.1c.1.5-.2.9-.6 1zm-9 .5c.1.2.3.4.5.3L44 7.6c.2 0 .4-.2.4-.5L35 8.4z"/><path class="st0" d="M47.6 20.6c.2 1.4-.6 3-1.9 3.2l-7.1 1c-1.3.2-2.5-1.1-2.7-2.5l-1.2-8.8c-.2-1.4.7-2.7 2-2.9l6.9-1c1.3-.2 2.5.8 2.7 2.2l1.3 8.8z"/><path class="st1" d="M40 9.6h-4.7c-.1 0-.1-.1-.1-.1 0-.1.1-.2.1-.2H40c.1 0 .1.1.1.1 0 .1 0 .2-.1.2z"/><ellipse transform="matrix(.04866 -.9988 .9988 .04866 21.666 50.711)" class="st2" cx="37.5" cy="14" rx="2.8" ry="1.4"/><path class="st2" d="M38.5 20.4c.1.5-.2 1-.6 1.1-.4.1-.8-.3-.9-.9l-.2-1.5c-.1-.5.2-1 .6-1.1.4-.1.8.3.9.9l.2 1.5z"/><path class="st1" d="M44.6 8.9h-4.7c-.1 0-.1-.1-.1-.1 0-.1.1-.2.1-.2h4.7c.1 0 .1.1.1.1 0 .1-.1.2-.1.2zm3.3 11.7l-1.4-8.8c-.1-.4-.2-.8-.4-1.1-.2-.3-.4-.6-.7-.8-.3-.2-.6-.4-.9-.5-.3-.1-.7-.1-1-.1l-6.9 1c-.4.1-.7.2-1 .4-.3.2-.5.4-.7.7-.2.3-.3.6-.4 1-.1.4-.1.8 0 1.1l1.2 8.8c.1.8.5 1.5 1.1 2 .3.3.6.5.9.6.4.1.7.2 1.1.1l7.1-1c.4-.1.7-.2 1-.4.3-.2.5-.5.7-.8.2-.6.4-1.5.3-2.2zm-13.2-7.1c-.2-1.4.7-2.7 2-2.9l6.9-1c1.3-.2 2.5.8 2.7 2.2l1.3 8.2s0 .2-.1.4h-.1.1c-.1.3-.1.9-.3 1.2-.2.8-.8 1.4-1.6 1.6l-3.6.6-3.6.5c-.8 0-1.5-.4-2-1.1-.2-.3-.4-.8-.6-1.1h.1-.1l-.2-.4-.9-8.2zm12.8 8.4c0 .1 0 .1 0 0 0 .1 0 .1 0 0zm-11.1 1.8c-.1-.1-.1-.2-.2-.2l.2.2z"/><path class="st3" d="M55.8 17.6l5.7-2.8c.3.5.6.3 1.2 0l.2-.1c.9-.4.9-.8.5-1.6l-.3-.7-.3-.7c-.4-.9-.8-1.2-1.7-.7l-.5.2c-.6.3-.6.3-.4.9l-5.7 2.8c-1.3-1.3-3.3-1.6-5.1-.8l-12.5 6c-2.3 1.1-.8 2.7.2 4.9 1.1 2.3 1.4 4.3 3.7 3.2l12.5-6c1.7-1 2.7-2.8 2.5-4.6z"/><path class="st1" d="M61.8 10.7c.4 0 .7.3 1 .9l.3.7.3.7c.4.9.4 1.2-.5 1.6l-.2.1c-.4.2-.6.3-.8.3-.1 0-.3-.1-.4-.3l-5.7 2.8c.2 1.8-.8 3.6-2.6 4.5l-12.5 6c-.4.2-.8.3-1.1.3-1.3 0-1.7-1.7-2.6-3.5-1.1-2.3-2.5-3.8-.2-4.9l12.5-6c.6-.3 1.3-.5 2-.5 1.2 0 2.3.4 3.1 1.3l5.7-2.8c-.2-.6-.2-.6.4-.9l.5-.2c.3-.1.6-.1.8-.1m0-.3c-.2 0-.5.1-.8.2l-.5.2c-.3.2-.5.3-.6.5-.1.2-.1.3 0 .6l-5.3 2.6c-.4-.4-.9-.6-1.4-.9-.6-.2-1.2-.3-1.8-.3-.7 0-1.4.2-2.1.5l-12.5 6c-.7.3-1.1.7-1.3 1.2-.3.9.2 1.8.8 3 .2.3.4.7.5 1.1.2.4.3.7.5 1.1.3.7.6 1.3.9 1.8.4.6.9.8 1.5.8.4 0 .8-.1 1.2-.3l12.5-6c.9-.4 1.6-1.1 2.1-2 .2-.4.4-.9.5-1.3.1-.4.1-.8.1-1.2l5.3-2.6c.1.1.3.2.5.2s.5-.1.7-.3c.1 0 .1-.1.2-.1l.2-.1c.4-.2.8-.4.9-.8.1-.3 0-.7-.3-1.2l-.3-.7-.3-.9c-.2-.4-.3-.6-.5-.8-.2-.2-.5-.3-.7-.3z"/><path transform="rotate(-25.435 58.426 15.575)" class="st4" d="M55.3 15.3h6.3v.5h-6.3z"/><path class="st4" d="M40.4 26.4l12.4-5.9s1.2-.5 1.6-1.3c.4-.7.4-1.9.4-1.9l.4.4s.1.9-.4 1.8-1.7 1.4-1.8 1.5l-12.4 5.9-.2-.5z"/><path class="st3" d="M6.9 10.3L4.4 4.5c.5-.3.3-.6 0-1.2v-.2c-.4-1-.7-1-1.6-.6l-.8.3-.7.3c-.9.4-1.2.7-.9 1.6l.2.5c.3.7.3.6.9.5l2.4 5.9c-1.3 1.2-1.8 3.2-1.1 5l5.3 12.8c1 2.3 2.6 1 4.9 0 2.3-1 4.4-1.2 3.4-3.5l-5.3-12.8c-.6-1.8-2.4-2.8-4.2-2.8z"/><path class="st1" d="M3.6 2.3c.4 0 .6.2.8.8l.1.2c.3.7.5.9 0 1.2l2.4 5.9h.2c1.8 0 3.4 1.1 4.2 2.8L16.6 26c1 2.3-1.1 2.5-3.4 3.5-1.4.6-2.5 1.3-3.4 1.3-.6 0-1.1-.3-1.5-1.3L2.9 16.6c-.7-1.8-.3-3.8 1.1-5L1.5 5.7c-.2 0-.3.1-.4.1-.2 0-.3-.1-.4-.5l-.3-.6c-.3-.9 0-1.2.9-1.6l.7-.3.7-.3c.4-.2.7-.2.9-.2m0-.3c-.3 0-.5 0-1 .2l-.7.3-.7.3c-.5.2-.9.4-1.1.8-.2.4-.1.9.1 1.2l.2.5c.2.4.3.7.7.7h.3l2.3 5.5c-.3.3-.5.6-.7 1-.2.4-.4.9-.5 1.3-.2 1-.1 2 .3 2.9l5.3 12.8c.2.5.5.9.8 1.1.1.2.4.4.8.4.7 0 1.5-.4 2.4-.8.3-.2.7-.3 1.1-.5.4-.2.8-.3 1.1-.4.6-.2 1.1-.4 1.6-.7.5-.3.9-.6 1-1 .2-.5.2-1.1-.1-1.8L11.5 13c-.4-.9-1-1.7-1.8-2.2-.8-.5-1.7-.8-2.6-.8L4.8 4.6c.1-.1.2-.3.2-.5s-.1-.4-.2-.7c0-.1-.1-.1-.1-.2l-.1-.3c-.2-.5-.5-.9-1-.9z"/><path transform="rotate(-22.317 5.008 7.627)" class="st4" d="M4.8 4.5h.5v6.3h-.5z"/><path class="st4" d="M14.8 26.2L9.6 13.5s-.5-1.2-1.2-1.7-1.9-.5-1.9-.5l.4-.4s.9-.1 1.8.5c.8.6 1.3 1.8 1.4 1.9L15.2 26l-.4.2z"/><path class="st3" d="M34.6 9.6L37 3.7c.6.1.6-.2.9-.9l.1-.1c.4-.9.2-1.2-.7-1.5l-.7-.3-.7-.3c-.9-.4-1.4-.3-1.7.6l-.2.5c-.3.7-.2.6.3.9l-2.4 5.9c-1.8-.1-3.6 1-4.3 2.8L22 23.9c-1 2.3 1.1 2.5 3.4 3.5s3.9 2.3 4.9 0l5.3-12.8c.8-1.8.3-3.8-1-5z"/><path class="st1" d="M34.9.3c.2 0 .5.1.9.2l.7.3.7.3c.9.4 1.1.6.7 1.5l-.1.2c-.2.6-.3.9-.7.9h-.2l-2.4 5.9c1.3 1.2 1.8 3.2 1.1 5l-5.3 12.8c-.4 1-.9 1.3-1.5 1.3-.9 0-2-.7-3.4-1.2-2.3-1-4.4-1.2-3.4-3.5l5.3-12.8c.7-1.7 2.4-2.8 4.2-2.8h.2l2.4-5.9c-.5-.3-.6-.3-.3-.9l.2-.5c.3-.6.6-.8.9-.8m0-.3c-.3 0-.5.1-.7.3-.2.2-.3.4-.5.7l-.2.5c-.1.3-.2.6-.2.8 0 .2.2.3.4.4l-2.3 5.5c-.9 0-1.8.3-2.6.8s-1.4 1.3-1.8 2.2L21.7 24c-.3.7-.3 1.3-.1 1.8.4.8 1.4 1.2 2.6 1.7.4.1.7.3 1.1.4.4.2.7.3 1.1.5.9.4 1.7.8 2.4.8.4 0 .7-.1 1-.4.3-.2.6-.6.8-1.1l5.4-13c.4-.9.5-1.9.3-2.9-.1-.5-.3-.9-.5-1.3s-.5-.7-.7-1L37.2 4c.2 0 .4-.1.6-.3.2-.1.2-.3.3-.5 0-.1.1-.1.1-.2l.1-.2c.2-.4.3-.8.1-1.2-.2-.3-.5-.5-1-.7l-.7-.3-.7-.3c-.5-.2-.8-.3-1.1-.3z"/><path transform="rotate(-67.181 35.218 6.358)" class="st4" d="M32.1 6.1h6.3v.5h-6.3z"/><path class="st4" d="M29 26.4l5.3-12.7s.5-1.2.4-2c-.2-.8-1-1.7-1-1.7h.6s.7.6.9 1.6c.2 1-.4 2.2-.4 2.3l-5.3 12.7-.5-.2z"/><path d="M14.5 100.7h-1.8v-4.6c0-.7-.6-1.2-1.2-1.2H9.8c-.7 0-1.2.5-1.2 1.2v10c0 .7.6 1.3 1.2 1.3h1.7c.7 0 1.2-.6 1.2-1.3v-4.4h1.8c.3 0 .5-.3.5-.6 0-.2-.2-.4-.5-.4zm34.8 0h1.8v-4.6c0-.7.6-1.2 1.2-1.2H54c.7 0 1.2.5 1.2 1.2v10c0 .7-.6 1.3-1.2 1.3h-1.7c-.7 0-1.2-.6-1.2-1.3v-4.4h-1.8c-.3 0-.6-.3-.6-.6 0-.2.3-.4.6-.4z"/><path class="st5" d="M31.9 23.5H2.5c-.7 0-1.2.6-1.2 1.3V29c0 .7.5 1.2 1.2 1.2h29.4v-6.7z"/><path class="st6" d="M62.5 28.9v-4.2c0-.7-.5-1.3-1.1-1.3H31.9V30h29.5c.6.1 1.1-.4 1.1-1.1zm-30.6 3.7v-2.5H3.6V32c6.1-.1 17-.2 28.3.6z"/><path class="st5" d="M3.6 31.9l2.4 59c0 2.3 1.6 4.2 3.7 4.2h3.9v7.9c0 1.5 1.9 2.8 4.2 2.8h14.1V32.5c-11.3-.7-22.2-.7-28.3-.6z"/><path class="st7" d="M60 36.6l.3-6.5H31.9v2.5c9.9.6 20.1 1.8 28.1 4z"/><path class="st6" d="M31.9 32.5v73.3H46c2.3 0 4.2-1.2 4.2-2.8v-7.9h3.9c2 0 3.6-1.9 3.6-4.2L60 36.5c-8-2.2-18.2-3.4-28.1-4z"/><path id="XMLID_125_" class="st8" d="M23.2 60.1c-.9 0-1.7-.2-2.4-.6-.7-.4-1.1-.8-1.3-1.3-.1-.2-.2-.4-.2-.6 0-.2-.1-.4-.1-.7 0-.4 0-.8.2-1.2.1-.4.2-.7.4-.9.2-.3.3-.5.4-.6l.3-.3-1.9-1.1 6.2-.2 2.9 5.4-1.8-1-.3.3c-.1.1-.2.3-.4.4-.1.2-.3.3-.4.5-.1.2-.2.3-.3.4-.1.2-.2.4-.2.6 0 .3.1.5.3.7.2.1.4.2.5.3l-1.9-.1zm17.9.8c.6 0 1.2-.2 1.7-.4s.9-.5 1.3-.8c.4-.3.6-.6.8-.8.2-.2.3-.4.4-.5-.1.4-.3.7-.4 1.1-.2.3-.4.7-.7 1.2-.2.3-.3.5-.4.7-.1.3-.3.6-.4.9-.4.8-.7 1.5-.9 2-.2.5-.5.9-.8 1.4-.3.4-.6.8-.9 1.1-.3.3-.6.4-1 .4h-3.2v2.2l-3.3-5.3 3.3-5.2V61c2.9-.1 4.5-.1 4.5-.1zM29 42.8h3.5c1.7 0 3 0 3.8.1.8.1 1.3.3 1.5.7 0 .1.1.2.3.5.2.3.3.6.5.9.2.3.4.6.5.8.1.2.2.4.3.5l1.9-1.1-2.6 5.8-6.4-.5 1.8-1.1-2.3-3.8c-.3-.6-.7-1.1-1.2-1.5-.4-.4-.9-.6-1.3-.8-.4-.2-.8-.3-1.1-.3-.3 0-.5-.1-.7-.1.4-.1.9-.1 1.5-.1zm-8.3 17.3c-.7-.3-1.1-.7-1.4-1.2.1.1.2.3.3.6.2.3.4.6.6 1.1.3.5.5.9.8 1.5.3.5.5.9.6 1.1.1.1.1.2.1.3.2.5.4.9.6 1.2.2.4.4.7.7 1.1.2.4.5.7.8 1 .3.2.5.4.7.4l7-.1-.1-6.7c-4.1 0-6.9.1-8.5.1-.8 0-1.5-.1-2.2-.4zm19.7-.2c-.3-.5-1-1.5-2-3.1s-1.6-2.5-1.8-2.8l5.5-3.3c.1.1.2.3.4.7l.7 1.4c.6 1.1 1 1.9 1.3 2.5.3.5.5.9.6 1.1.1.2.1.4.1.6 0 .3-.1.7-.2 1.1-.1.1-.2.3-.4.5s-.4.5-.8.8c-.3.3-.8.6-1.3.9-.5.3-1.1.4-1.6.4 0-.1-.1-.3-.5-.8zm-12.8-7.3l-5.4-3c.1-.1.3-.5.7-1.2.1-.1.3-.5.7-1.1.4-.6.7-1.1 1-1.6.3-.5.5-.8.7-1.1.2-.3.3-.5.4-.6.1-.2.3-.4.5-.5.2-.1.6-.2 1-.3.2 0 .4 0 .7.1.3 0 .7.1 1.1.3.4.2.9.4 1.3.8s.8.8 1.1 1.4l.1.1c.1.1.2.3.2.4l-4.1 6.3z"/><text transform="translate(19.482 83.84)" class="st9 st10 st11">GLASS</text></svg>