<svg id="Layer_1" xmlns="http://www.w3.org/2000/svg" viewBox="0 0 61.3 111.1"><style>.st0{fill:#9b943d}.st1{fill:#557489}.st2{fill:#877f36}.st3{fill:#3c525e}.st4{fill:#6786a0}.st5{fill:#c4110c}.st5,.st6,.st7,.st8{fill-rule:evenodd;clip-rule:evenodd}.st6{fill:#7183b5}.st7{fill:#5c6f9b}.st8{fill:#444343}.st9{fill:#b7b3b3}.st10{fill:#4f8dc6}.st11{fill:#4385b5}.st12{fill:#3c7aa0}.st13{fill-rule:evenodd;clip-rule:evenodd;fill:#f4f4f4}.st14{fill:#fff}.st15{font-family:&apos;Arial-BoldMT&apos;}.st16{font-size:7.1934px}</style><path class="st0" d="M32.4 17.4l-14-5.3L13 26.3c-.4 1 2.5 2.9 6.3 4.4 3.9 1.5 7.3 1.9 7.7.9l5.4-14.2z"/><ellipse transform="rotate(-69.305 25.362 14.83)" class="st1" cx="25.4" cy="14.8" rx="1.9" ry="7.5"/><path class="st2" d="M22.7 21.8c-1.9-.7-3.6-1.6-4.8-2.4-.9-.6-1.9-1.5-1.6-2.2 0-.1.1-.1.2-.1s.1.1.1.2c-.1.4.4 1.1 1.5 1.9 1.2.8 2.9 1.7 4.7 2.4 1.9.7 3.7 1.2 5.1 1.4 1.3.2 2.2 0 2.4-.4 0-.1.1-.1.2-.1s.1.1.1.2c-.3.7-1.6.7-2.7.5-1.5-.2-3.3-.7-5.2-1.4z"/><path class="st2" d="M22.3 22.9c-1.9-.7-3.6-1.6-4.8-2.4-.9-.6-1.9-1.5-1.6-2.2 0-.1.1-.1.2-.1s.1.1.1.2c-.1.4.4 1.1 1.5 1.9 1.2.8 2.9 1.7 4.7 2.4s3.7 1.2 5.1 1.4c1.3.2 2.2 0 2.4-.4 0-.1.1-.1.2-.1s.1.1.1.2c-.3.7-1.6.7-2.7.5-1.5-.2-3.3-.7-5.2-1.4z"/><path class="st2" d="M21.9 23.9c-1.9-.7-3.6-1.6-4.8-2.4-.9-.6-1.9-1.5-1.6-2.2 0-.1.1-.1.2-.1s.1.1.1.2c-.1.4.4 1.1 1.5 1.9 1.2.8 2.9 1.7 4.7 2.4 1.9.7 3.7 1.2 5.1 1.4 1.3.2 2.2 0 2.4-.4 0-.1.1-.1.2-.1s.1.1.1.2c-.3.7-1.6.7-2.7.5-1.5-.2-3.3-.7-5.2-1.4z"/><path class="st2" d="M21.5 25.1c-1.9-.7-3.6-1.6-4.8-2.4-.9-.6-1.9-1.5-1.6-2.2 0-.1.1-.1.2-.1s.1.1.1.2c-.1.4.4 1.1 1.5 1.9 1.2.8 2.9 1.7 4.7 2.4 1.9.7 3.7 1.2 5.1 1.4 1.3.2 2.2 0 2.4-.4 0-.1.1-.1.2-.1s.1.1.1.2c-.3.7-1.6.7-2.7.5-1.5-.2-3.3-.7-5.2-1.4z"/><path class="st2" d="M21.1 26.1c-1.9-.7-3.6-1.6-4.8-2.4-.9-.6-1.9-1.5-1.6-2.2 0-.1.1-.1.2-.1s.1.1.1.2c-.1.4.4 1.1 1.5 1.9 1.2.8 2.9 1.7 4.7 2.4 1.9.7 3.7 1.2 5.1 1.4 1.3.2 2.2 0 2.4-.4 0-.1.1-.1.2-.1s.1.1.1.2c-.3.7-1.6.7-2.7.5-1.5-.2-3.3-.7-5.2-1.4z"/><path class="st2" d="M20.7 27.2c-1.9-.7-3.6-1.6-4.8-2.4-.9-.6-1.9-1.5-1.6-2.2 0-.1.1-.1.2-.1s.1.1.1.2c-.1.4.4 1.1 1.5 1.9 1.2.8 2.9 1.7 4.7 2.4 1.9.7 3.7 1.2 5.1 1.4 1.3.2 2.2 0 2.4-.4 0-.1.1-.1.2-.1s.1.1.1.2c-.3.7-1.6.7-2.7.5-1.5-.2-3.3-.7-5.2-1.4z"/><ellipse transform="rotate(-69.305 25.28 15.048)" class="st3" cx="25.3" cy="15" rx="1.6" ry="6.5"/><path class="st4" d="M33.4 8.8s-.3-.4-.2-.9c.1-.4.5-.6.5-.6s-.3-.3-.3-.8.4-.7.4-.7-.4-.4-.5-.8c-.1-.4.2-.8.2-.8s-.5-.1-.6-.5c-.1-.3.1-.6.1-.6s-.6-.3-.8-.6c-.2-.2.1-.7 0-.6-.1.1-.5 0-.8-.3-.3-.2-.2-.6-.2-.6s-.5.1-.8-.1c-.3-.2-.3-.6-.3-.6-.3.3-.8.1-.8.1l-.4-.4c-.7.6-1-.1-1-.1l-.4.4c-.2 0-.5.1-.7.1-.2-.1-.3-.3-.3-.3 0 .2-.2.3-.4.5-.2.1-.5.2-.7.3-.4.1-.6-.1-.6-.1 0 .3-.5.8-.8 1.1-.1 0-.1.1-.1.1-.4.3-.8 0-.8 0s.1.5-.1 1c-.1.1-.1.2-.2.3-.4.4-.9.5-.9.5s.4.5.2 1-.7.8-.7.8.3.4.3.8c0 .5-.4 1.1-.4 1.1s.4.3.5.7c.1.5-.3 1-.3 1s.5.1.7.5c.2.5-.1.8-.1.8.2 0 .6.2.9.5v.1c.3.3.3.7.3.7s.3-.1.7.2h.1c.4.3.3.5.3.5l2.8 1c.1-.2.8-.4.8-.4l.1-.1h.2c.2 0 .5.2.5.2s0-.3.5-.5h.1c.6-.2.8 0 .8 0s0-.4.4-.7h.1c.5-.3.8-.2.8-.2s.1-.5.5-.9l.1-.1c.4-.4.8-.5.8-.5s-.1-.6.2-1c-.1-.4.3-.5.3-.5z"/><path class="st1" d="M25.4 12.1c-1.3-.5-2.3-1.5-2.9-2.9-.5-1.4-.5-3 0-4.4.6-1.5 1.6-2.7 2.9-3.3 1.3-.7 2.8-.8 4.1-.3 1.3.5 2.3 1.5 2.9 2.9.5 1.4.5 3 0 4.4-.6 1.5-1.6 2.7-2.9 3.3-1.3.7-2.7.8-4.1.3zm4-10.5C26.9.7 24 2.1 23 4.9s.1 5.8 2.6 6.7c2.5.9 5.4-.5 6.4-3.3 1.1-2.7-.1-5.7-2.6-6.7z"/><path class="st0" d="M56.9 16.1l-10.6 4 4.1 10.8c.3.7 2.9.4 5.8-.7s5.1-2.6 4.8-3.3l-4.1-10.8z"/><ellipse transform="rotate(-20.691 51.612 18.126)" class="st1" cx="51.6" cy="18.1" rx="5.7" ry="1.4"/><path class="st2" d="M53.6 23.4c-1.4.5-2.8.9-3.9 1-.8.1-1.8.1-2-.4 0-.1 0-.1.1-.1s.1 0 .1.1c.1.3.8.4 1.8.3 1.1-.1 2.5-.5 3.9-1s2.7-1.2 3.6-1.8c.8-.6 1.3-1.1 1.2-1.4 0-.1 0-.1.1-.1s.1 0 .1.1c.2.5-.6 1.2-1.2 1.6-1.1.6-2.3 1.2-3.8 1.7z"/><path class="st2" d="M53.9 24.2c-1.4.5-2.8.9-3.9 1-.8.1-1.8.1-2-.4 0-.1 0-.1.1-.1s.1 0 .1.1c.1.3.8.4 1.8.3 1.1-.1 2.5-.5 3.9-1s2.7-1.2 3.6-1.8c.8-.6 1.3-1.1 1.2-1.4 0-.1 0-.1.1-.1s.1 0 .1.1c.2.5-.6 1.2-1.2 1.6-1.1.5-2.3 1.2-3.8 1.7z"/><path class="st2" d="M54.2 25c-1.4.5-2.8.9-3.9 1-.8.1-1.8.1-2-.4 0-.1 0-.1.1-.1s.1 0 .1.1c.1.3.8.4 1.8.3 1.1-.1 2.5-.5 3.9-1s2.7-1.2 3.6-1.8c.8-.6 1.3-1.1 1.2-1.4 0-.1 0-.1.1-.1s.1 0 .1.1c.2.5-.6 1.2-1.2 1.6-1.1.6-2.3 1.2-3.8 1.7z"/><path class="st2" d="M54.6 25.9c-1.4.5-2.8.9-3.9 1-.8.1-1.8.1-2-.4 0-.1 0-.1.1-.1s.1 0 .1.1c.1.3.8.4 1.8.3 1.1-.1 2.5-.5 3.9-1s2.7-1.2 3.6-1.8c.8-.6 1.3-1.1 1.2-1.4 0-.1 0-.1.1-.1s.1 0 .1.1c.2.5-.6 1.2-1.2 1.6-1.1.5-2.4 1.2-3.8 1.7z"/><path class="st2" d="M54.9 26.7c-1.4.5-2.8.9-3.9 1-.8.1-1.8.1-2-.4 0-.1 0-.1.1-.1s.1 0 .1.1c.1.3.8.4 1.8.3 1.1-.1 2.5-.5 3.9-1s2.7-1.2 3.6-1.8c.8-.6 1.3-1.1 1.2-1.4 0-.1 0-.1.1-.1s.1 0 .1.1c.2.5-.6 1.2-1.2 1.6-1.1.5-2.4 1.1-3.8 1.7z"/><path class="st2" d="M55.2 27.5c-1.4.5-2.8.9-3.9 1-.8.1-1.8.1-2-.4 0-.1 0-.1.1-.1s.1 0 .1.1c.1.3.8.4 1.8.3 1.1-.1 2.5-.5 3.9-1s2.7-1.2 3.6-1.8c.8-.6 1.3-1.1 1.2-1.4 0-.1 0-.1.1-.1L60 24c.2.5-.6 1.2-1.2 1.6-.9.7-2.2 1.4-3.6 1.9z"/><path class="st3" d="M56.3 16.5c.2.6-1.6 1.9-4.2 2.9s-4.8 1.2-5.1.6c-.2-.6 1.6-1.9 4.2-2.9 2.6-.9 4.9-1.2 5.1-.6z"/><path class="st5" d="M12.2 28.4c-1.9 1.8-3.4 3.2-6.7-.2l-3.7-4c-2.2-2.4-.9-4.1 1-5.8 1.9-1.8 3.7-3 5.9-.6l3.7 4c3.2 3.4 1.7 4.8-.2 6.6z"/><ellipse transform="rotate(-43.038 3.527 19.128)" class="st6" cx="3.5" cy="19.1" rx="4.1" ry="1.8"/><ellipse transform="rotate(-43.038 3.493 19.118)" class="st7" cx="3.5" cy="19.1" rx="3.5" ry="1.5"/><path class="st8" d="M4.8 18.5c-.2.2-.5.2-.7-.1-.2-.2-.2-.6 0-.8l1.1-1.1c.2-.2.5-.1.7.1.2.2.2.6 0 .7l-1.1 1.2z"/><path class="st9" d="M11.9 22.2v.5c0 .1 0 .2-.1.3v.1c0 .1 0 .1-.1.2-.1.2-.2.4-.4.7-.2.2-.4.5-.7.7-.3.2-.7.3-1 .4-.4.1-.8.1-1.2.1-.4 0-.8-.1-1.1-.2-.1-.1-.3-.1-.4-.2-.1 0-.1 0-.2-.1h-.2c-.2-.1-.5-.1-.7-.1h-.7c-.2.1-.3.1-.5.3-.2.1-.3.3-.4.4-.1.1-.2.3-.3.4 0 0 0 .1-.1.1 0 0 0 .1-.1.1l-.1.1c0 .1-.1.1-.1.1V25c0-.2.1-.5.2-.8.1-.3.3-.6.6-.8.3-.2.7-.4 1.1-.5.4-.1.8-.1 1.2 0h.2c.1 0 .2 0 .3.1h.8c.3.1.5.2.8.2.2.1.5.1.7.1.2 0 .4 0 .6-.1.2 0 .4-.1.6-.2.2-.1.4-.2.5-.3.2-.1.3-.2.4-.3 0 0 .1 0 .1-.1l.1-.1c0 .1.1.1.2 0z"/><path class="st5" d="M30.8 26.5c-1.1-2.7-2-4.9 2.9-6.9l5.7-2.4c3.4-1.4 4.6.6 5.8 3.4 1.1 2.7 1.7 5-1.7 6.4l-5.7 2.4c-5 2-5.9-.2-7-2.9z"/><ellipse transform="rotate(-22.527 43.957 21.047)" class="st6" cx="44" cy="21" rx="2" ry="4.6"/><ellipse transform="rotate(-22.527 43.98 21.015)" class="st7" cx="44" cy="21" rx="1.7" ry="3.9"/><path class="st8" d="M44.1 22.6c-.1-.3 0-.6.4-.8.3-.1.7 0 .8.3l.7 1.6c.1.3-.1.6-.4.8-.3.1-.7 0-.8-.3l-.7-1.6z"/><path class="st9" d="M37.4 28.7h-.1s-.1 0-.2-.1c-.1 0-.1-.1-.2-.1s-.2-.1-.3-.2l-.1-.1-.1-.1c-.2-.2-.4-.4-.6-.7-.2-.3-.3-.6-.4-1-.1-.4-.1-.8 0-1.3.1-.4.2-.9.4-1.3s.4-.8.7-1.1c.1-.1.2-.3.3-.4 0-.1.1-.1.1-.2s.1-.1.1-.2c.2-.2.3-.4.4-.7 0-.1.1-.2.1-.3v-.4c0-.2 0-.4-.1-.6-.1-.2-.1-.4-.2-.6-.1-.2-.2-.4-.3-.5 0 0 0-.1-.1-.1 0 0 0-.1-.1-.1 0-.1-.1-.1-.1-.1l-.1-.1h.3c.1 0 .1 0 .2.1.2 0 .4.1.6.2.2.1.5.3.7.5.2.2.5.6.6 1 .1.4.2.9.1 1.3-.1.5-.2.9-.4 1.3l-.1.1-.1.1c-.1.1-.1.2-.2.3v.1l-.1.1-.2.2c-.2.2-.4.5-.5.7-.2.2-.3.5-.4.7-.1.2-.2.5-.2.7v.7c0 .2.1.5.1.7 0 .2.1.4.2.5v.2c0 .1 0 .1.1.2.2.5.2.6.2.6z"/><path d="M13.2 104.4h-1.8v-4.6c0-.7-.5-1.2-1.2-1.2H8.6c-.7 0-1.3.5-1.3 1.2v10c0 .7.6 1.2 1.3 1.2h1.7c.7 0 1.2-.6 1.2-1.2v-4.4h1.8c.3 0 .6-.3.6-.6-.1-.2-.4-.4-.7-.4zm34.9 0h1.8v-4.6c0-.7.6-1.2 1.2-1.2h1.7c.7 0 1.3.5 1.3 1.2v10c0 .7-.6 1.2-1.3 1.2h-1.7c-.7 0-1.2-.6-1.2-1.2v-4.4h-1.8c-.3 0-.6-.3-.6-.6 0-.2.3-.4.6-.4z"/><path class="st10" d="M30.7 27.1H1.2c-.7 0-1.2.5-1.2 1.2v4.2c0 .7.5 1.3 1.2 1.3h29.5v-6.7z"/><path class="st11" d="M61.3 32.5v-4.2c0-.7-.5-1.2-1.2-1.2H30.7v6.6h29.5c.6 0 1.1-.5 1.1-1.2zm-30.6 3.6v-2.4H2.3l.1 1.8c6.1 0 16.9-.1 28.3.6z"/><path class="st10" d="M2.4 35.5l2.3 59.1c0 2.3 1.6 4.2 3.7 4.2h4v8c0 1.5 1.9 2.7 4.2 2.7h14.2V36.1c-11.5-.8-22.3-.7-28.4-.6z"/><path class="st12" d="M58.8 40.2l.3-6.4H30.7v2.4c9.8.6 20.1 1.8 28.1 4z"/><path class="st11" d="M30.7 36.1v73.4h14.2c2.3 0 4.2-1.2 4.2-2.7v-8H53c2 0 3.7-1.9 3.7-4.2l2.2-54.5c-8.1-2.2-18.4-3.4-28.2-4z"/><path id="XMLID_2_" class="st13" d="M22 63.8c-.9 0-1.7-.2-2.4-.6-.7-.4-1.1-.8-1.3-1.3-.1-.2-.2-.4-.2-.6 0-.2-.1-.4-.1-.7 0-.4 0-.8.2-1.2.1-.4.2-.7.4-1 .2-.3.3-.5.4-.6l.3-.3-1.9-1.1 6.2-.2 2.9 5.4-1.8-1-.3.3c-.1.1-.2.3-.4.4-.1.2-.3.3-.4.5-.1.2-.2.3-.3.4-.1.2-.2.4-.2.6 0 .3.1.5.3.7.2.1.4.3.5.3H22zm17.9.8c.6 0 1.2-.2 1.7-.4s.9-.5 1.3-.8c.4-.3.6-.6.8-.8.2-.2.3-.4.4-.5-.1.4-.3.7-.4 1.1-.2.3-.4.8-.7 1.2-.2.3-.3.5-.4.7-.1.3-.3.6-.4.9-.4.8-.7 1.5-.9 2-.2.5-.5 1-.8 1.4-.3.4-.6.8-.9 1.1-.3.3-.6.4-1 .4h-3.2v2.2L32 67.8l3.3-5.2v2.1c3-.1 4.6-.1 4.6-.1zM27.8 46.4h3.5c1.7 0 3 0 3.8.1.8.1 1.3.3 1.5.7 0 .1.1.2.3.5.2.3.3.6.5.9.2.3.4.6.5.8.1.2.2.4.3.5l1.9-1.1-2.6 5.8-6.4-.5 1.8-1.1-2.3-3.8c-.3-.6-.7-1.1-1.2-1.5-.4-.4-.9-.6-1.3-.8-.4-.2-.8-.3-1.1-.3-.3 0-.5-.1-.7-.1.4 0 .9-.1 1.5-.1zm-8.4 17.4c-.7-.3-1.1-.7-1.4-1.2.1.1.2.3.3.6.2.3.4.6.6 1.1.3.5.5.9.8 1.5.3.5.5.9.6 1.1.1.1.1.2.1.3.2.5.4.9.6 1.2.2.4.4.7.7 1.1.2.4.5.7.8 1 .3.2.5.4.7.4l7-.1-.1-6.7c-4.1 0-6.9.1-8.5.1-.7 0-1.5-.1-2.2-.4zm19.8-.3c-.3-.5-1-1.5-2-3.1s-1.6-2.5-1.8-2.8l5.5-3.3c.1.1.2.3.4.7l.7 1.4c.6 1.1 1 1.9 1.3 2.5.3.5.5.9.6 1.1.1.2.1.4.1.6 0 .3-.1.7-.2 1.1-.1.1-.2.3-.4.5s-.4.5-.8.8c-.3.3-.8.6-1.3.9-.5.3-1.1.4-1.7.4.1 0-.1-.3-.4-.8zm-12.8-7.2l-5.4-3c.1-.1.3-.5.7-1.2.1-.1.3-.5.7-1.1.4-.6.7-1.1 1-1.6.3-.5.5-.8.7-1.1.2-.3.3-.5.4-.6.1-.2.3-.4.5-.5.2-.1.6-.2 1.1-.3.2 0 .4 0 .7.1.3 0 .7.1 1.1.3.4.2.9.4 1.3.8s.8.8 1.1 1.4l.1.1c.1.1.2.3.2.4l-4.2 6.3z"/><text transform="translate(18.215 87.565)" class="st14 st15 st16">Metal</text></svg>