<svg id="Layer_1" xmlns="http://www.w3.org/2000/svg" viewBox="0 0 61.3 84"><style>.st0{fill:#4f8dc6}.st1{fill:#4385b5}.st2{fill:#3c7aa0}.st3{fill-rule:evenodd;clip-rule:evenodd;fill:#f4f4f4}.st4{fill:#fff}.st5{font-family:&apos;Arial-BoldMT&apos;}.st6{font-size:7.1934px}</style><path d="M13.2 77.3h-1.8v-4.6c0-.7-.5-1.2-1.2-1.2H8.6c-.7 0-1.3.5-1.3 1.2v10c0 .7.6 1.2 1.3 1.2h1.7c.7 0 1.2-.6 1.2-1.2v-4.4h1.8c.3 0 .6-.3.6-.6-.1-.2-.4-.4-.7-.4zm34.9 0h1.8v-4.6c0-.7.6-1.2 1.2-1.2h1.7c.7 0 1.3.5 1.3 1.2v10c0 .7-.6 1.2-1.3 1.2h-1.7c-.7 0-1.2-.6-1.2-1.2v-4.4h-1.8c-.3 0-.6-.3-.6-.6 0-.2.3-.4.6-.4z"/><path class="st0" d="M30.7 0H1.2C.5 0 0 .5 0 1.2v4.2c0 .6.5 1.2 1.2 1.2h29.5V0z"/><path class="st1" d="M61.3 5.4V1.2c0-.7-.5-1.2-1.2-1.2H30.7v6.6h29.5c.6 0 1.1-.6 1.1-1.2zM30.7 9V6.6H2.3l.1 1.8c6.1-.1 16.9-.1 28.3.6z"/><path class="st0" d="M2.4 8.3l2.3 59.1c0 2.3 1.6 4.2 3.7 4.2h4v8c0 1.5 1.9 2.7 4.2 2.7h14.2V9c-11.5-.8-22.3-.8-28.4-.7z"/><path class="st2" d="M58.8 13.1l.3-6.4H30.7V9c9.8.7 20.1 1.9 28.1 4.1z"/><path class="st1" d="M30.7 9v73.4h14.2c2.3 0 4.2-1.2 4.2-2.7v-8H53c2 0 3.7-1.9 3.7-4.2L58.8 13c-8-2.2-18.3-3.4-28.1-4z"/><path id="XMLID_2_" class="st3" d="M22 36.7c-.9 0-1.7-.2-2.4-.6-.7-.4-1.1-.8-1.3-1.3-.1-.2-.2-.4-.2-.6 0-.2-.1-.4-.1-.7 0-.4 0-.8.2-1.2.1-.4.2-.7.4-1 .2-.3.3-.5.4-.6l.3-.3-1.9-1.1 6.2-.2 2.9 5.4-1.8-1-.3.3c-.1.1-.2.3-.4.4-.1.2-.3.3-.4.5-.1.2-.2.3-.3.4-.1.2-.2.4-.2.6 0 .3.1.5.3.7.2.1.4.3.5.3H22zm17.9.8c.6 0 1.2-.2 1.7-.4s.9-.5 1.3-.8c.4-.3.6-.6.8-.8.2-.2.3-.4.4-.5-.1.4-.3.7-.4 1.1-.2.3-.4.8-.7 1.2-.2.3-.3.5-.4.7-.1.3-.3.6-.4.9-.4.8-.7 1.5-.9 2-.2.5-.5 1-.8 1.4-.3.4-.6.8-.9 1.1-.3.3-.6.4-1 .4h-3.2V46L32 40.6l3.3-5.2v2.1h4.6zM27.8 19.3h3.5c1.7 0 3 0 3.8.1.8.1 1.3.3 1.5.7 0 .1.1.2.3.5.2.3.3.6.5.9.2.3.4.6.5.8.1.2.2.4.3.5l1.9-1.1-2.6 5.8-6.4-.5 1.8-1.1-2.3-3.9c-.3-.6-.7-1.1-1.2-1.5-.4-.4-.9-.6-1.3-.8-.4-.2-.8-.3-1.1-.3-.3 0-.5-.1-.7-.1h1.5zm-8.4 17.3c-.7-.3-1.1-.7-1.4-1.2.1.1.2.3.3.6.2.3.4.6.6 1.1.3.5.5.9.8 1.5.3.5.5.9.6 1.1.1.1.1.2.1.3.2.5.4.9.6 1.2.2.4.4.7.7 1.1.2.4.5.7.8 1 .3.2.5.4.7.4l7-.1.1-6.6c-4.1 0-6.9.1-8.5.1-.9 0-1.7-.2-2.4-.5zm19.8-.2c-.3-.5-1-1.5-2-3.1s-1.6-2.5-1.8-2.8l5.5-3.3c.1.1.2.3.4.7l.7 1.4c.6 1.1 1 1.9 1.3 2.5.3.5.5.9.6 1.1.1.1.1.3.1.5 0 .3-.1.7-.2 1.1-.1.1-.2.3-.4.5s-.4.5-.8.8c-.3.3-.8.6-1.3.9-.5.3-1.1.4-1.7.4.1.1-.1-.2-.4-.7zm-12.8-7.2l-5.4-3c.1-.1.3-.5.7-1.2.1-.1.3-.5.7-1.1.4-.6.7-1.1 1-1.6.3-.5.5-.8.7-1.1.2-.3.3-.5.4-.6.1-.2.3-.4.5-.5.2-.1.6-.2 1.1-.3.2 0 .4 0 .7.1.3 0 .7.1 1.1.3.4.2.9.4 1.3.8s.8.8 1.1 1.4l.1.1c.1.1.2.3.2.4l-4.2 6.3z"/><text transform="translate(18.215 60.44)" class="st4 st5 st6">Metal</text></svg>