<svg id="Layer_1" xmlns="http://www.w3.org/2000/svg" viewBox="0 0 63.8 103.7"><style>.st0{fill:#85b23f}.st1{fill:#75b531}.st2{fill:#5f6b89}.st3{fill:#dce0e2}.st4{fill:#7d8caa}.st5{fill:#070707}.st6{fill:#8fb4bc}.st7{fill:#afa3b5}.st8{fill:none}.st9{fill:#eae4c7}.st10{fill:#e5dcb5}.st11{fill:#514610}.st12{fill:#d33218}.st13{fill:#bfd5dd}.st14{fill:#1ba7a5}.st15{fill:#e8c73d}.st16{fill:#d3b537}.st17{fill:#bfa32e}.st18{fill:#776415}.st19{fill:#f4aa08}.st20{fill:#e29a0a}.st21{fill:#ce890d}.st22{fill-rule:evenodd;clip-rule:evenodd;fill:#f4f4f4}.st23{fill:#fff}.st24{font-family:&apos;Arial-BoldMT&apos;}.st25{font-size:7.165px}</style><path class="st0" d="M41.4 18.6l-.2-.1s.6-1.6 2-3.6c.8-1.2 1.7-2.3 2.7-3.2 1.2-1.2 2.6-2.2 4.1-3l.1.2c-3.3 1.8-5.4 4.4-6.7 6.2-1.4 1.9-2 3.5-2 3.5z"/><path class="st1" d="M49.8 8.8s.3-.5-.5-.9c0 0-.2-.3.2-.2 0 0-.2-.1-.1-.4 0 0 .2-.2.3 0 0 0 0-.1-.1-.4 0 0-.1-.3.1-.5 0 0 .4.1.5.4 0 0 .2-.1.2-.2 0-.2.5.3.4.7-.1.4-.2.3-.2.3s.4.1.5-.6c0 0 .3-.7.7-.6 0 0-.1.1.1.4 0 0 .2-.4.7-.5 0 0-.1.2-.1.3 0 0 .6-.5.9-.3 0 0-.2.6-.5.7-.3.1.4.1.4.1s-.1.3-.4.4c-.3.1.1.2.1.3 0 .1-.8.4-1 .3-.2-.1-.7.1-.7.1s.9 0 1 .2l-.6.1s.5 0 .6.1l.2.2s-.3.1-.4 0c0 0 .2.3.2.4v.5s-.6-.2-.7-.4c-.1-.2 0 .1-.1.3 0 0-.5-.3-.5-.5 0 0-.1.3-.2.3 0 0-.1-.6-.4-.7-.2.1-.4.3-.4.3l-.2-.2zm-1.7 5.7s.6 0 .6-.9c0 0 .2-.3.3 0 0 0 0-.3.3-.3 0 0 .3 0 .1.3 0 0 .1-.1.3-.4 0 0 .2-.2.5-.2 0 0 .1.4-.1.6 0 0 .2.2.3 0 .1-.1 0 .6-.4.8-.4.2-.4 0-.4 0s.1.4.7.1c0 0 .7-.2.9.2 0 0-.2 0-.3.3 0 0 .5-.1.8.3 0 0-.2 0-.3.1 0 0 .7.2.7.6 0 0-.6.2-.9.1-.2-.2.1.4.1.4s-.3.1-.5-.1-.1.2-.2.3c-.1.1-.7-.4-.7-.7 0-.3-.4-.5-.4-.5s.5.7.4 1l-.4-.4s.2.4.2.6c-.1.2-.1.3-.1.3s-.2-.2-.2-.4c0 0-.1.3-.3.5-.1.1-.4.3-.4.3s-.2-.6 0-.8c.1-.2-.1.1-.3.1 0 0 0-.6.2-.7 0 0-.3.1-.4 0 0 0 .4-.4.3-.8-.1-.3-.3-.5-.3-.5l-.1-.2zm-6.5-1.2s-.2-.5.7-.8c0 0 .2-.2-.1-.2 0 0 .3-.1.2-.4 0 0-.1-.2-.3 0 0 0 .1-.1.3-.4 0 0 .2-.3 0-.5 0 0-.4.1-.6.3 0 0-.2-.1-.1-.3.1-.2-.6.2-.6.7 0 .4.1.3.1.3s-.4.1-.3-.6c0 0-.1-.7-.4-.8 0 0 .1.2-.2.3 0 0-.1-.4-.5-.6v.4s-.5-.6-.8-.5c0 0 0 .6.2.8.2.2-.4 0-.4 0s0 .3.3.4c.2.1-.1.2-.2.3-.1.1.6.5.9.4.3-.1.6.2.6.2s-.8-.2-1.1 0l.5.2s-.5-.1-.6 0c-.1.1-.3.2-.3.2s.3.1.4.1c0 0-.3.2-.4.4-.1.2-.2.5-.2.5s.7-.1.8-.2c.1-.2 0 .1 0 .3 0 0 .6-.2.6-.4 0 0 0 .3.1.4 0 0 .3-.5.6-.6s.6.1.6.1h.2zm6.1-4.9s-.2-.4-.8 0c0 0-.2 0-.1-.2 0 0-.2.1-.3-.1 0 0-.1-.2.1-.2h-.3s-.2 0-.3-.2c0 0 .2-.2.4-.2 0 0 0-.2-.1-.2s.4-.2.6 0c.2.2.1.2.1.2s.2-.2-.2-.5c0 0-.3-.4-.2-.6 0 0 0 .1.3.1 0 0-.2-.3-.1-.6l.2.2s-.1-.6.1-.7c0 0 .3.3.3.5s.2-.2.2-.2.4.1.3.3c0 .2.2 0 .2 0 .1 0 0 .6-.2.8-.2.1-.2.5-.2.5s.3-.6.5-.6V7s.2-.3.3-.4c.1 0 .2-.1.2-.1s-.1.2-.2.3c0 0 .3-.1.4 0s.4.2.4.2-.3.4-.5.3c-.2 0 .1 0 .2.1 0 0-.4.2-.5.2 0 0 .2.1.2.2 0 0-.4-.1-.6.1-.2.2-.2.4-.2.4l-.2.1zm-2.8 2.3s.3-.2.5.2c0 0 .1.1.1-.1 0 0 0 .1.2 0 0 0 .1-.1 0-.2 0 0 .1 0 .2.1 0 0 .1 0 .2-.1 0 0 0-.2-.2-.2l.1-.1c.1 0-.1-.2-.4-.2l-.2.1s-.1-.2.3-.3c0 0 .3-.2.4-.3 0 0-.1.1-.2 0 0 0 .2-.1.3-.3 0 0-.1.1-.2 0 0 0 .3-.3.2-.4 0 0-.3.1-.4.2.1.2.2-.1.2-.1s-.2 0-.2.2c-.1.1-.1 0-.1-.1s-.3.4-.2.5c.1.1-.1.3-.1.3s.1-.4 0-.5l-.1.3v-.3c-.1 0-.1-.1-.1-.1v.2s-.1-.1-.2-.1h-.3s0 .3.1.3h-.2s.1.2.2.2c0 0-.1 0-.2.1 0 0 .3.1.3.2 0 .3-.1.4 0 .5zm1.8 3.5s.1-.3.5-.2c0 0 .1-.1 0-.1 0 0 .1 0 .2-.1 0 0 0-.1-.1-.1 0 0 .1 0 .2-.1 0 0 .1-.1.1-.2 0 0-.2-.1-.3 0 0 0-.1-.1 0-.2s-.3 0-.4.2c-.1.2 0 .2 0 .2s-.2-.1 0-.4c0 0 .1-.4 0-.5 0 0 0 .1-.1.1 0 0 .1-.2-.1-.4 0 0 0 .1-.1.2 0 0 0-.4-.2-.4 0 0-.1.3-.1.5.1.1-.2-.1-.2-.1s-.1.2 0 .3-.1 0-.1.1c0 0 .1.4.2.5.1 0 .2.3.2.3s-.3-.3-.4-.3l.1.2-.2-.2h-.1l.2.2s-.2 0-.2.1l-.2.2s.3.1.4.1 0 .1-.1.2h.3s-.1.1-.1.2c0 0 .2-.2.4-.1l.2.2v-.4z"/><path class="st1" d="M44.2 13.6s-.2-.2.1-.5c0 0 0-.1-.1-.1 0 0 .1-.1 0-.2 0 0-.1-.1-.1 0v-.2s0-.1-.1-.2c0 0-.2.1-.2.2 0 0-.1 0-.1-.1s-.2.2-.1.4.1.1.1.1-.2.1-.3-.2c0 0-.2-.3-.4-.3 0 0 .1.1 0 .2 0 0-.1-.2-.4-.2 0 0 .1.1.1.2 0 0-.4-.2-.5-.1 0 0 .2.3.3.3.2 0-.2.1-.2.1s.1.1.2.1 0 .1 0 .2.4.1.5 0c.1-.1.3 0 .3 0s-.4.1-.5.2h.3s-.2 0-.3.1c0 .1-.1.1-.1.1h.2l-.1.2v.3s.3-.1.3-.2 0 .1.1.2c0 0 .2-.2.2-.3 0 0 .1.1.1.2 0 0 0-.3.1-.4.4 0 .6 0 .6-.1zm-.1-4.4s-.2-.4.6-.7c0 0 .2-.2-.1-.2 0 0 .2-.1.2-.3 0 0-.1-.2-.3 0 0 0 0-.1.2-.3 0 0 .1-.2 0-.4 0 0-.4.1-.5.3 0 0-.2-.1-.1-.2s-.5.2-.5.6c0 .4.1.3.1.3s-.4.1-.3-.5c0 0-.1-.6-.4-.6 0 0 .1.1-.1.3 0 0-.1-.4-.5-.5 0 0 .1.1 0 .3 0 0-.4-.5-.7-.4 0 0 0 .5.2.7.2.1-.4 0-.4 0s0 .3.3.4c.2.1-.1.2-.2.2-.1.1.6.4.8.4.2-.1.5.2.5.2s-.7-.1-.9 0l.5.2s-.4-.1-.5 0l-.2.2s.2.1.4.1c0 0-.3.2-.3.3-.1.1-.1.4-.1.4s.6-.1.7-.2c.1-.2 0 .1 0 .3 0 0 .5-.2.5-.4 0 0 0 .2.1.3 0 0 .2-.5.5-.5s.5.1.5.1v-.4zm5.8 2.2s.3.2-.1.8c0 0 0 .2.2.1 0 0-.1.1 0 .3 0 0 .2.1.2-.1v.3s0 .2.2.3c0 0 .2-.2.2-.4 0 0 .2 0 .2.1s.3-.4.1-.6l-.2-.2s.2-.2.5.2c0 0 .4.4.6.2 0 0-.1-.1 0-.3 0 0 .2.2.6.1 0 0-.1-.1-.1-.2 0 0 .6.1.7-.1 0 0-.3-.4-.5-.4s.3-.2.3-.2-.2-.2-.4-.1c-.2 0 0-.2 0-.2 0-.1-.7 0-.8.1-.1.2-.5.1-.5.1s.6-.3.7-.5l-.5.3s.3-.2.4-.3c0-.1.1-.2.1-.2s-.2 0-.3.1c0 0 .1-.3.1-.4 0-.1-.1-.4-.1-.4s-.4.3-.4.5 0-.1-.1-.2c0 0-.3.4-.2.5 0 0-.1-.2-.2-.2 0 0 .1.4-.1.6-.2.2-.4.2-.4.2l-.2.2zm-2.1-1.1c-.1-.1-.1-.2-.1-.2.4-.6-.2-1.7-.2-1.7v-.2h.1c.2.1.8 1.3.2 2.1.1-.1.1 0 0 0z"/><path class="st1" d="M50 11.5s-.6-.2-1.4-.2c-1-.1-1.7 0-2.2.3 0 0-.1 0-.1-.1v-.2c.5-.3 1.3-.4 2.3-.3.8.1 1.4.2 1.4.2 0 .1.1.2 0 .3.1 0 0 0 0 0zM44.9 13c.1 0 .1-.1.1-.2.4-.9.2-1.8-.4-2.8-.3-.5-.6-.7-.6-1 0-.2-.3-.2-.4-.1-.1.1.1.2.2.3l.2.2s.2.3.6 1c.4.8.6 1.2.2 2.6 0 .1 0 0 .1 0zm3.3 1.7s-.7-.2-1.7-.3c-.9 0-2.1 0-3.2.7 0 0-.1 0-.1-.1v-.2c.5-.3 1.1-.5 1.7-.6.5-.1 1-.1 1.6-.1 1 0 1.6.2 1.7.3.1.1.1.1 0 .3.1 0 .1 0 0 0zm-6.1 2.5c-.1-.1-.1-.1-.1-.2.2-2.2-.3-3.4-.7-4.1-.5-.7-1-.9-1-.9l-.1-.1c0-.1.1-.1.1-.1s.6.2 1.1 1c.3.4.5 1 .6 1.6.2.8.2 1.7.1 2.7.1 0 0 0 0 .1z"/><path class="st2" d="M37.5 8.9c-1.3 1.2-2.4 3.5-2.4 4.4v.3h1.1l.1 1.3s1.9 3.2 10.6 3.4c-.8-.6 1.3-1.1 1.3-1.1-.3-4.2-3.2-7.6-7.1-10-1.1.4-2.8 1-3.6 1.7z"/><ellipse transform="rotate(-75.948 43.15 13.742)" class="st3" cx="43.2" cy="13.7" rx=".9" ry="1.1"/><path class="st4" d="M47.3 18.4c-.1-.1-.2-.1-.3-.2-8.7-.2-10.6-3.4-10.6-3.4l-.1-1.3h-1.1c.1 1.1.9 4 3.4 6.4 1.1.1 1.8.2 1.8.2 3.1.7 5.9-.5 5.9-.5 1.9-.8 1-1.2 1-1.2z"/><path class="st5" d="M43.7 14c-.1.2-.3.4-.6.3s-.4-.3-.4-.5c.1-.2.3-.4.6-.3.3.1.5.3.4.5z"/><path class="st6" d="M41 9.2s-.1 0 0 0h-.1c-.1 0-.2.1-.3.1-.1.1-.3.1-.5.2-.1 0-.2.1-.3.2-.1.1-.2.1-.3.2-.2.1-.5.3-.7.5 0 0-.1 0-.1.1 0 0-.1 0-.1.1 0 0-.1 0-.1.1 0 0-.1 0-.1.1l-.1.1-.1.1-.7.7c-.2.3-.4.5-.5.9l-.1.1v1c-.1.3-.1.7-.1 1 0 .3.1.6.2.9 0 .1 0 .1.1.2 0 .1 0 .1.1.2v.4c0 .1.1.1.1.2s.1.1.1.2v.2c0 .1.1.1.1.2.1.2.2.4.3.5.1.1.2.2.2.3 0 .1.1.1.1.1L38 18c-.1-.1-.1-.2-.2-.3-.1-.1-.2-.3-.4-.5l-.1-.1-.1-.1s0-.1-.1-.1c0-.1-.1-.1-.1-.2s-.1-.1-.1-.2c0 0 0-.1-.1-.1 0 0 0-.1-.1-.1 0 0 0-.1-.1-.1v-.1c0-.1-.1-.1-.1-.2s-.1-.1-.1-.2c-.1-.3-.2-.6-.3-1-.1-.4-.1-.7-.1-1.1v-1.1c.1-.4.3-.7.5-1.1.2-.3.4-.6.7-.9l.1-.1v-.1l.1-.1.1-.1.1-.1.1-.1.1-.1c.2-.2.5-.4.7-.6.1-.1.2-.2.3-.2.1-.1.2-.1.3-.2.2-.1.4-.2.5-.3.5-.4.6-.5.7-.5h.1c.3-.2.8 0 1 .3.2.3 0 .7-.4.9z"/><path class="st6" d="M38.2 11.6s0 .1 0 0l-.2.2-.1.1s-.1.1-.1.2-.1.1-.1.2c-.1.1-.2.3-.2.5v2.8c.1.3.2.5.3.8 0 .1.1.1.1.2v.1s0 .1.1.1c0 0 0 .1.1.1 0 0 0 .1.1.1 0 0 0 .1.1.1 0 .1.1.1.1.2s.1.1.1.2.1.1.1.2c0 0 0 .1.1.1l.1.1.1.1.1.1.1.1.1.1.1.1.1.1.1.1.3.3c.1.1.1.2.2.2 0 .1.1.1.1.1l-.1-.1s-.1 0-.1-.1l-.1-.1-.3-.3-.1-.1-.1-.1-.1-.1-.1-.1-.1-.1-.1-.1c-.1-.1-.2-.2-.2-.3l-.1-.1c0-.1-.1-.1-.1-.2s-.1-.1-.1-.2-.1-.1-.1-.2c0 0 0-.1-.1-.1 0 0 0-.1-.1-.1 0 0 0-.1-.1-.1 0 0 0-.1-.1-.1 0 0 0-.1-.1-.1 0-.1-.1-.1-.1-.2-.1-.3-.3-.5-.4-.8-.1-.3-.2-.6-.2-.8v-2c0-.1 0-.1.1-.2 0-.1.1-.2.1-.3.1-.2.2-.4.3-.5.1-.1.1-.1.1-.2s.1-.1.1-.2c.2.5.3.4.4.3zm8.4 5.3l-.3.3-.1.1c-.1 0-.1.1-.2.2 0 0 0 .1-.1.1 0 0 0 .1-.1.1 0 .1-.1.1-.1.2v.2c0 .1.1.1.1.1l.1.1.1.1s.1 0 .1.1h-.4c-.1 0-.1-.1-.2-.1s-.1-.1-.2-.1v-.1l-.1-.1v-.4c0-.1.1-.2.1-.3l.1-.1.1-.1c.1-.1.1-.1.2-.1s.1-.1.2-.1c.1-.1.2-.1.3-.1h.4z"/><path class="st2" d="M14.2 7.9c0-.1 0-.2.1-.3.3-1 .3-1.3.7-1.9-.2-.6-1-1.7-1-1.7C12.5 1.2 9.9-.1 9.9-.1 7.8-.9 8.6 1.6 8.6 1.6s.8 2.1.9 3.6c.1 1.6-.8 2.4-.8 2.4s-.3.7-2.3 2.3c-2 1.5-.3 2.5-.3 2.5 1.9.8 6.4-1.5 6.4-1.5.8-.4 1.4-.7 1.7-1.1 0 0 0-.1.1-.1-.2-.4-.3-.7-.1-1.8z"/><path class="st6" d="M14.8 5.6s0-.1 0 0c-.1-.1-.1-.2-.2-.3l-.1-.1c0-.1-.1-.1-.1-.2-.1-.1-.2-.3-.3-.4-.1-.1-.1-.2-.2-.2l-.1-.1-.1-.1c0-.2-.1-.2-.1-.3-.1-.1-.1-.2-.2-.3-.1-.2-.3-.4-.4-.5l-.1-.1-.1-.1-.1-.1-.1-.1-.1-.1-.1-.1-.1-.1c-.2-.2-.2-.3-.3-.4l-.1-.1-.1-.1-.1-.1-.1-.1-.1-.1-.1-.1-.2-.2c-.1-.1-.2-.1-.2-.2-.2-.1-.3-.3-.4-.4l-.2-.2c-.1-.1-.1-.1-.2-.1 0 0-.1 0-.1-.1 0 0-.1 0-.1-.1-.1 0-.1-.1-.1-.1-.1.1-.2.1-.2 0h-.1.2s.1 0 .1.1c0 0 .1.1.2.1 0 0 .1 0 .1.1 0 0 .1 0 .1.1.1 0 .1.1.2.1s.1.1.2.2.3.2.5.4c.1.1.2.1.2.2.1.1.2.1.3.2l.5.5.1.1.1.1.1.1.1.1.1.1.1.1c.2.2.3.4.5.5l.1.1.1.1.1.1.1.1.1.1.1.1.1.1c.1.1.1.2.2.3.1.2.2.3.3.5 0 0 0 .1.1.1 0 0 0 .1.1.1 0 .1.1.1.1.2.1.1.1.2.2.3-.3.1-.3.1-.2.3-.1-.1 0-.1 0 0zm-.2.2c-.1-.1-.1-.2-.2-.3-.1-.1-.1-.2-.2-.3-.2-.1-.3-.2-.4-.4l-.2-.2-.1-.1-.1-.1c-.1-.2-.3-.4-.4-.5l-.1-.1-.1-.1c-.1-.1-.2-.2-.2-.3l-.1-.1-.1-.1-.4-.4-.1-.1-.1-.1-.1-.1-.3-.3-.3-.3-.1-.1-.1-.1-.1-.1-.1-.1-.1-.1-.1-.1-.1-.1-.1-.1c-.2-.1-.2-.1-.3-.2-.1-.1-.2-.1-.2-.2L9.7.6s-.1 0-.1-.1c0 0-.1 0-.1-.1 0 0-.1 0-.1-.1-.1 0-.1-.1-.2-.1h-.1S9 .2 9 .1h-.1.1s.1 0 .1.1h.1s.1.1.2.1c0 0 .1 0 .1.1 0 0 .1 0 .1.1 0 0 .1 0 .1.1 0 0 .1 0 .1.1.1 0 .1.1.2.2s.2.1.2.2l.1.1.1.1.1.1.1.1.1.1.1.1.1.1.1.1.1.1.1.1.3.3.1.1.1.1.1.1.1.1.1.1.3.3.1.1.1.1c.2.2.3.4.5.5.1.2.3.4.4.5.1.2.3.3.4.5l.1.1c.1-.1.1 0 .2 0 0 .1.1.1.1.2.1.1.2.2.2.3.1.1.1.2.2.3zm-.3.3s-.1 0 0 0c-.1-.1-.1-.2-.2-.2-.1-.1-.2-.2-.2-.3-.1-.1-.2-.2-.3-.4l-.1-.1-.1-.1-.2-.2c-.2 0-.2-.1-.3-.2-.1-.1-.1-.2-.2-.2l-.5-.5-.2-.2c-.1-.1-.2-.2-.3-.2l-.1-.1-.1-.1c-.1-.1-.2-.2-.3-.2-.1-.1-.2-.2-.3-.2l-.1-.1-.1-.1-.1-.1-.1-.1-.1-.1-.1-.1c-.2-.3-.2-.3-.3-.3l-.1-.1-.1-.1h-.2c0-.1 0-.2-.1-.2s-.1-.1-.2-.1-.1-.1-.2-.1c0-.1-.1-.1-.1-.2-.1 0-.2-.1-.2-.1h-.1.2s.1 0 .1.1c0 0 .1.1.2.1s.1.1.2.1.1.1.2.1.1.1.2.1h.2l.1.1.1.1.1.1.1.1.1.1.1.1.1.1.1.1.1.1.1.1.1.1.1.1.1.1.1.1.1.1.1.1c.1.1.2.2.3.2l.1.1.1.1.1.1.1.1.1.1.1.1.1.1.1.1.1.1.1.1.1.1c.1.2.3.3.4.4l.1.1.1.1c0 .1.1.1.1.2.1.1.2.2.2.3.2.3.3.4.4.5-.1 0-.1 0 0 0zm-.1.4s0-.1 0 0l-.2-.2-.2-.2-.1-.1-.2-.2c-.1-.1-.2-.2-.4-.3-.1-.2-.3-.4-.4-.5l-.1-.1-.1-.1-.2-.2-.1-.1-.1-.1c-.1-.1-.2-.1-.2-.2l-.1-.1-.1-.1c-.1-.1-.2-.1-.2-.2-.1-.1-.2-.1-.2-.2-.1-.1-.2-.1-.2-.2-.1-.1-.2-.1-.2-.2l-.2-.2c-.4.1-.4 0-.5 0 0 0-.1 0-.1-.1 0 0-.1 0-.1-.1 0 0-.1 0-.1-.1 0 0-.1 0-.1-.1-.1 0-.1-.1-.2-.1s-.1-.1-.1-.1l-.1-.1c-.1 0-.1-.1-.2-.1h-.1.1s.1.1.2.1.2.1.3.2c.1 0 .1.1.2.1 0 0 .1 0 .1.1 0 0 .1 0 .1.1 0 0 .1 0 .1.1 0 0 .1 0 .1.1.1 0 .1.1.2.1.1.1.2.1.2.2.1.1.2.1.2.2.1.1.2.1.2.2.1.1.2.1.2.2.1.1.2.1.2.2l.1.1.1.1c.1.1.2.1.2.2l.1.1.1.1.2.2.2.2c.5-.1.6.1.7.2.1.1.2.3.3.4l.3.3.2.2c.1.1.1.2.2.3 0-.1 0 0 0 0zm-.3 3.2c-.1.1-.2.1-.3.2-.1.1-.2.1-.3.2-.1 0-.1.1-.2.1 0 0-.1 0-.1.1 0 0-.1 0-.1.1-.2.1-.3.2-.5.3-.1 0-.2.1-.3.1 0 0-.1 0-.1.1 0 0-.1 0-.2.1-.1 0-.1 0-.2.1h-.2c-.1 0-.1 0-.2.1-.1 0-.1 0-.2.1-.1 0-.1 0-.2.1-.1 0-.1 0-.2.1h-.2c-.1 0-.1 0-.2.1-.1 0-.1 0-.2.1-.1 0-.1 0-.2.1-.1 0-.1 0-.2.1-.1 0-.1 0-.2.1-.2.1-.5.1-.7.2H6h1.2c.2 0 .4-.1.6-.1.1 0 .2-.1.3-.1.1 0 .2-.1.3-.1h.4c.1 0 .1 0 .2-.1.1 0 .1 0 .2-.1.1 0 .2-.1.3-.1.1 0 .1 0 .2-.1.1 0 .1 0 .2-.1.1 0 .1 0 .2-.1h.2c.1 0 .1 0 .2-.1.1 0 .1 0 .2-.1l.6-.3c.1 0 .2-.1.3-.1.1 0 .2-.1.3-.1 0 0 .1 0 .1-.1 0 0 .1 0 .1-.1.1 0 .2-.1.3-.1.2-.1.3-.1.4-.2.1 0 .1-.1.2-.1s.1-.1.2-.1c.5-.1.6-.1.7-.2z"/><path class="st6" d="M13.8 9.4s0 .1 0 0c-.1.1-.2.1-.3.2-.1.1-.2.1-.3.2-.1 0-.1.1-.2.1 0 0-.1 0-.1.1 0 0-.1 0-.1.1-.2.1-.3.2-.5.3l-.6.3c-.1 0-.2.1-.3.1-.1 0-.2.1-.3.1-.1 0-.1 0-.2.1-.1 0-.1 0-.2.1-.1 0-.2.1-.4.1h-.2c-.1 0-.1 0-.2.1-.1 0-.1 0-.2.1-.1 0-.1 0-.2.1-.1 0-.2.1-.4.1H6h1.2c.1 0 .2 0 .3-.1h2c.1 0 .2-.1.4-.1.1 0 .1 0 .2-.1h.2c.1 0 .2-.1.4-.1.1 0 .1 0 .2-.1.1 0 .1 0 .2-.1.1 0 .2-.1.3-.1.1 0 .1 0 .2-.1.1 0 .1 0 .2-.1.2-.1.4-.2.6-.2 0 0 .1 0 .1-.1 0 0 .1 0 .1-.1.1 0 .2-.1.3-.1.2-.1.3-.1.5-.2.1-.1.3-.1.4-.2-.2-.3-.1-.3 0-.4 0 .1 0 0 0 0zm-.3-.3s0 .1 0 0c0 .1 0 .1 0 0-.1.1-.2.1-.3.1-.1 0-.2.1-.3.1-.1 0-.1.1-.2.1s-.1.1-.2.1c-.2.1-.3.1-.5.2s-.4.1-.6.2c-.1 0-.1 0-.2.1H11c-.1 0-.2.1-.3.1h-.8c-.1 0-.2.1-.3.1H6h3.4c.1 0 .2-.1.3-.1h.4c.1 0 .2-.1.3-.1.2-.1.4-.1.6-.2.2-.1.4-.1.6-.2.1 0 .2-.1.3-.1h.2c.2-.1.3-.1.4-.1.1 0 .2-.1.3-.1.5-.1.6-.1.7-.2 0 .1 0 0 0 0z"/><path class="st6" d="M13.6 8.8c-.1 0-.2.1-.2.1-.1 0-.2.1-.3.1-.1 0-.2.1-.4.1-.1 0-.3.1-.5.2-.1 0-.2.1-.3.1h-.2c-.1 0-.2 0-.3.1h-.2c-.1 0-.2 0-.3.1-.1 0-.2 0-.3.1-.1 0-.2 0-.3.1h-.2c-.2 0-.4.1-.6.1h-2H10c.1 0 .2 0 .3-.1.1 0 .2 0 .3-.1.2 0 .4-.1.6-.1.2 0 .4-.1.6-.1.1 0 .2 0 .3-.1.1 0 .2 0 .3-.1h.2c.1 0 .2 0 .2-.1.1 0 .1 0 .2-.1h.2c.1 0 .2-.1.3-.1-.1-.2 0-.2.1-.2zm.5-1.9s0-.1 0 0l-.2-.2-.2-.2-.3-.3s-.1 0-.1-.1c0 0-.1 0-.1-.1 0 0-.1 0-.2-.1s-.3-.2-.4-.3l-.2-.2-.1-.1-.1-.1L12 5h-.1l-.1-.1-.2-.2-.1-.1-.1-.1-.1-.1-.1-.1-.1-.1-.1-.1-.1-.1-.1-.1c-.1 0-.1-.1-.2-.1s-.1-.1-.2-.1-.1-.1-.2-.1c-.2 0-.2 0-.3-.1-.1 0-.1-.1-.2-.1l-.1-.1-.1-.1c-.1 0-.1-.1-.2-.1h-.1.1s.1 0 .2.1c.1 0 .2.1.3.1.1 0 .1.1.2.1h.1s.1 0 .1.1c.1 0 .1.1.2.1s.1.1.2.1.1.1.2.1c0 0 .1 0 .1.1 0 0 .1 0 .1.1 0 0 .1 0 .1.1l.1.1.1.1.1.1.1.1.1.1c.1.1.2.1.2.2l.1.1.1.1.1.1.1.1.2.2.1.1.1.1c.1.1.3.2.4.3l.3.3c0 .1.1.1.1.1l.1.1c.1.1.1.2.2.2.3.1.3.2.4.3 0-.1 0 0 0 0z"/><path class="st6" d="M14 7.3s-.1 0 0 0c-.1-.1-.1-.1-.2-.1 0 0-.1 0-.1-.1l-.1-.1h-.1l-.1-.1-.1-.1c-.1-.1-.2-.2-.3-.2 0 0-.1 0-.1-.1-.1 0-.1-.1-.2-.1-.1-.1-.2-.2-.4-.3-.1 0-.1-.1-.2-.1 0 0-.1 0-.1-.1h-.1c-.1 0-.1-.1-.2-.1s-.1-.1-.2-.1c-.1-.1-.3-.2-.4-.3-.1-.3-.2-.4-.3-.4-.1-.1-.2-.1-.3-.2-.1 0-.1-.1-.1-.1l-.1-.1c-.2-.1-.3-.1-.4-.2-.1 0-.1-.1-.1-.1h.1s.1 0 .2.1c.1 0 .1.1.2.1h.2s.1.1.2.1c.1.1.2.1.3.2.1.1.3.1.4.2 0 0 .1 0 .1.1.1 0 .1.1.2.1s.1.1.2.1.1.1.2.1h.1s.1 0 .1.1c.1 0 .1.1.2.1s.1.1.2.1.1.1.2.1.1.1.2.1c0 0 .1 0 .1.1 0 0 .1 0 .1.1l.1.1.1.1.1.1.1.1.1.1.1.1.1.1c-.2.4-.1.4 0 .5-.1-.1-.1-.1 0 0zm-.3.2c-.1 0-.1-.1-.2-.1s-.1-.1-.2-.1-.2-.1-.3-.1c-.2-.1-.4-.2-.7-.3-.1 0-.1-.1-.2-.1s-.1-.1-.2-.1c-.1-.1-.3-.1-.4-.2-.1-.1-.3-.1-.4-.2-.1 0-.1-.1-.2-.1.1-.1.1-.1 0-.2s-.2-.1-.3-.2c-.1-.1-.2-.1-.3-.2-.1-.1-.2-.1-.3-.2-.1 0-.1-.1-.2-.1s-.1-.1-.1-.1.1 0 .1.1c.1 0 .1.1.2.1s.2.1.3.1c.1 0 .2.1.3.2.1.1.2.1.3.2.1 0 .1.1.2.1s.1.1.2.1c.1.1.3.1.4.2.1.1.3.1.4.2.1 0 .1.1.2.1s.1.1.2.1c.2.1.5.3.6.4.1.1.2.1.3.2.1 0 .1.1.2.1 0 0 .1 0 .1.1zm-.1.4h-3.1c-.1 0-.3-.1-.4-.1-.1 0-.2-.1-.3-.1h-.3c-.1 0-.2-.1-.2-.1h-.1.6c.1 0 .2 0 .3.1.1 0 .2 0 .4.1.1 0 .3 0 .4.1h2.7zm0 .3s-.1 0 0 0c-.1 0-.1.1-.2.1s-.1 0-.2.1c-.1 0-.2.1-.3.1h-2.5c-.1 0-.3 0-.4-.1H8.9c-.1 0-.1 0-.1-.1h-.1 4.9c-.2-.1-.1-.1 0-.1-.1 0 0 0 0 0z"/><path class="st6" d="M13.5 8.4c-.1 0-.1.1-.2.1s-.2.1-.2.1c-.1 0-.2.1-.3.1-.1 0-.3.1-.4.1-.1 0-.3.1-.5.1H8.6c-.4.1-.5.1-.5.1H8h3.3c.2 0 .3-.1.5-.1h.8c.1 0 .2-.1.3-.1.1 0 .2-.1.3-.1.1-.2.2-.3.3-.3zm.2-.7h-.2c-.1 0-.3-.1-.5-.1h-.3c-.1 0-.2-.1-.3-.1-.1 0-.1 0-.2-.1-.1 0-.1 0-.2-.1-.1 0-.2-.1-.4-.1-.1 0-.2-.1-.4-.1-.1 0-.1 0-.2-.1-.1 0-.1 0-.2-.1-.1 0-.2-.1-.3-.1-.1 0-.2-.1-.3-.1-.1-.1-.2-.1-.3-.2-.1 0-.1 0-.1-.1h.1c.1 0 .3.1.5.1.1 0 .2.1.3.1.1 0 .2.1.3.1.1 0 .1 0 .2.1.1 0 .1 0 .2.1.1 0 .2.1.4.1.1 0 .2.1.4.1.1 0 .1 0 .2.1.1 0 .1 0 .2.1.1 0 .2.1.3.1.1 0 .2.1.3.1.2.1.3.1.4.2 0-.1 0 0 .1 0z"/><path class="st7" d="M34.4 12.9l.8.2.2-.6-.7-.2c-.1-.2-.3-.3-.5-.4v-.2c0-.1 0-.2.1-.4 0-.1 0-.2.1-.4.1-.5.1-.9.1-1.4V7c-.1-.4-.1-.7-.2-1-.3-.1-.3-.4-.4-.6 0-.1-.1-.2-.1-.3 0-.1-.1-.1-.1-.2s0-.1-.1-.1v.5c0 .2 0 .5.1.7v2.2c0 .4-.1.8-.1 1.2 0 .4-.1.9-.2 1.3 0 .2-.1.4-.1.7v.2c-.3 0-.5 0-.7.1l-.3-.1c-.1-.1-.3-.3-.5-.4v-.1c0-.1 0-.2.1-.3 0-.1 0-.2.1-.3.1-.4.1-.9.1-1.3V6.8c0-.3-.1-.6-.2-.9-.1-.3-.1-.5-.2-.7 0-.1-.1-.2-.1-.3 0-.1-.1-.1-.1-.2v-.1.5c0 .2 0 .4.1.7V9c0 .4-.1.8-.2 1.2 0 .2-.1.5-.1.7-.2 0-.5 0-.6.1l-.4-.1c-.1-.2-.3-.3-.6-.4v-.2c0-.1 0-.2.1-.3.1-.4.1-.8.1-1.2V6.5c0-.3-.1-.6-.2-.9-.1-.3-.1-.5-.2-.7 0-.1-.1-.2-.1-.2 0-.1-.1-.1-.1-.2v-.1.5c0 .2 0 .4.1.7v3c0 .4-.1.8-.2 1.2 0 .2-.1.4-.1.5-.2 0-.4 0-.5.1l-.6.2c-.1-.2-.4-.3-.6-.4 0-.1 0-.2.1-.3v-.3c.1-.4.1-.8.1-1.2V7.3c0-.3-.1-.7-.1-1 0-.3-.1-.6-.2-.8-.1-.2-.1-.5-.2-.6 0-.1-.1-.2-.1-.2 0-.1 0-.1-.1-.2v-.1 2.8c0 .3 0 .7-.1 1 0 .4-.1.7-.2 1.1 0 .2-.1.4-.1.6-.2 0-.3 0-.5.1l-.4-.1c-.1-.2-.3-.3-.5-.4 0-.2.1-.4.1-.5.1-.4.1-.8.1-1.1V6.8c0-.3-.1-.7-.1-.9 0-.3-.1-.6-.2-.8-.1-.2-.1-.4-.2-.6 0-.1-.1-.2-.1-.2 0-.1 0-.1-.1-.2V4v2.8c0 .3 0 .7-.1 1 0 .3-.1.7-.2 1.1 0 .2-.1.3-.1.5-.3 0-.5 0-.7.1l-.4-.1c-.1-.2-.4-.4-.7-.5 0-.2.1-.3.1-.5.5-.2.5-.5.6-.9v-1c-.1-.3-.1-.6-.1-.9 0-.3-.1-.5-.2-.7-.1-.2-.1-.4-.2-.6 0-.1-.1-.1-.1-.2s0-.1-.1-.1v-.1 2.7c0 .3 0 .6-.1.9 0 .3-.1.7-.2 1 0 .2-.1.3-.1.5-.2 0-.3 0-.4.1l-.2-.1c-.1-.2-.4-.4-.8-.5v-.2c0-.3.1-.7.1-1 0-.6 0-1.2-.1-1.7 0-.3-.1-.5-.1-.7-.1-.2-.1-.4-.2-.5 0-.1-.1-.1-.1-.2s0-.1-.1-.1V4v2.4c0 .3 0 .6-.1.9 0 .3-.1.6-.1.9 0 .1 0 .2-.1.3-.1 0-.2 0-.3.1l-.3-.1c-.1-.3-.5-.4-.9-.5V4.6c0-.1-.1-.1-.1-.2s0-.1-.1-.2c0 0 0-.1-.1-.1v-.2V7c0 .1 0 .3-.1.4v.4c0 .1 0 .2-.1.3-.1 0-.2.1-.3.1l-.3-.1c-.1-.2-.3-.3-.5-.4V4.8c0-.1 0-.2-.1-.2 0-.1 0-.1-.1-.2 0-.1 0-.1-.1-.1 0 0 0-.1-.1-.1v-.1 2.7c0 .1 0 .2-.1.3v.5c-.3 0-.5 0-.7.1l-.9-.2-.2.6.9.2c.1.1.3.3.5.4 0 .1 0 .1-.1.2 0 .1 0 .1-.1.2 0 .1 0 .1-.1.2 0 .1 0 .1-.1.2 0 .1 0 .1-.1.2 0 .1 0 .1-.1.2v.1c0 .1-.1.2-.1.3 0 .1-.1.2-.1.3 0 .1-.1.2-.1.3 0 0 0 .1-.1.1 0 0 0 .1-.1.1 0 0 0 .1-.1.1v.2s0 .1-.1.1c0 0 0 .1-.1.1v.2c-.1.2-.2.3-.2.3l.1-.1s.1 0 .1-.1h.1l.1-.1.1-.1.1-.1s.1 0 .1-.1l.1-.1.1-.1.1-.1.2-.2c.1-.1.1-.2.2-.2.1-.1.1-.2.2-.3.1-.1.1-.2.2-.3-.1-.4 0-.5 0-.6v-.2c0-.1 0-.1.1-.2 0-.1 0-.1.1-.2 0-.1 0-.1.1-.2 0-.1 0-.1.1-.2.2 0 .4 0 .5-.1l.3.1.2.2c0 .1-.1.3-.1.4 0 .1 0 .1-.1.2 0 .1 0 .1-.1.2 0 .1 0 .1-.1.2 0 .1 0 .1-.1.2 0 .1 0 .1-.1.2v.1c0 .1-.1.2-.1.3 0 .1-.1.2-.1.3 0 .1-.1.2-.1.3 0 0 0 .1-.1.1v.1s0 .1-.1.1v.2s0 .1-.1.1c0 0 0 .1-.1.1 0 0 0 .1-.1.1 0 0 0 .1-.1.1-.1.1-.1.2-.2.2 0 .1-.1.1-.1.1l.1-.1s.1 0 .1-.1l.1-.1.1-.1s.1 0 .1-.1l.1-.1.1-.1.1-.1.1-.1.1-.1c.1-.1.1-.2.2-.2.1-.1.1-.2.2-.3.1-.1.1-.2.2-.3.1-.1.1-.2.2-.3.1-.1.1-.2.2-.4v-.2c0-.1.1-.1.1-.2s.1-.1.1-.2c.2.2.2.2.2.1s0-.1.1-.2v-.1c.4.1.7.1 1 0l.3.1c.1.1.2.2.3.2v.1c0 .2-.1.3-.1.5l-.3.9c-.1.3-.2.6-.3.8-.1.3-.2.5-.3.7-.1.1-.1.2-.2.3l-.1.1-.1.1c-.1.2-.2.3-.3.4 0 .1-.1.1-.1.2v.2s0 .1-.1.1l.1-.1.1-.1s.1-.1.2-.1l.4-.4c.1-.1.1-.2.2-.2.1-.1.2-.2.2-.3.2-.2.3-.4.5-.7.2-.2.3-.5.4-.8.1-.3.3-.6.4-.9V10c0-.1.1-.2.1-.2v-.1c.3.1.7 0 .9-.1l.4.1.3.3c0 .2-.1.3-.1.5-.1.3-.2.7-.3 1-.1.3-.2.6-.4.9-.1.3-.2.5-.4.8-.1.1-.1.2-.2.3 0 .1-.1.1-.1.2l-.1.1c-.1.2-.2.3-.3.5 0 .1-.1.1-.1.2v.2s0 .1-.1.1l.1-.1.1-.1c.1 0 .1-.1.2-.1.1-.1.3-.2.4-.4.1-.1.2-.2.2-.3l.3-.3c.2-.2.3-.5.5-.7.2-.3.3-.6.5-.9.1-.3.3-.6.4-1v-.2c0-.1 0-.1.1-.2.3.1.6 0 .8-.1l.4.1c.1.2.3.3.5.4 0 .1 0 .2-.1.3 0 .1-.1.2-.1.3-.1.4-.2.7-.4 1-.1.3-.3.6-.4.9-.1.3-.3.6-.4.8-.1.1-.1.2-.2.4 0 .1-.1.1-.1.2s-.1.1-.1.2c-.1.2-.2.4-.3.5 0 .1-.1.1-.1.2 0 0 0 .1-.1.1v.1s0 .1-.1.1l.1-.1.1-.1c.1 0 .1-.1.2-.2l.4-.4.3-.3.3-.3c.2-.2.4-.5.5-.8.2-.3.3-.6.5-.9.2-.3.3-.7.4-1v-.2c0-.1.1-.2.1-.3v-.1c.2 0 .4 0 .6-.1l.4.1c.1.1.2.2.4.3v.1c0 .1-.1.2-.1.3 0 .1-.1.2-.1.3-.1.4-.2.7-.4 1.1-.1.3-.3.7-.4 1-.1.3-.3.6-.4.8-.1.1-.1.3-.2.4 0 .1-.1.1-.1.2s-.1.1-.1.2c-.1.2-.2.4-.3.5 0 .1-.1.1-.1.2 0 0 0 .1-.1.1v.1l-.1.1s.1 0 .1-.1l.1-.1c.1 0 .1-.1.2-.2l.5-.5.3-.3.3-.3c.2-.2.4-.5.6-.8.2-.3.4-.6.5-1 .2-.3.3-.7.4-1.1v-.2c0-.1.1-.2.1-.3.3 0 .6 0 .8-.1l.3.1c.1.1.2.3.4.4v.1c0 .1-.1.2-.1.3v.2c-.1.4-.3.8-.4 1.1-.1.4-.3.7-.4 1 0 .1-.1.2-.1.2 0 .1-.1.2-.1.2-.1.1-.1.3-.2.4-.1.1-.1.3-.2.4 0 .1-.1.1-.1.2s-.1.1-.1.2c-.1.2-.3.4-.4.6-.1.1-.1.1-.1.2 0 0 0 .1-.1.1l-.1.1-.1.1s.1 0 .1-.1l.1-.1c.1 0 .1-.1.2-.2l.5-.5.3-.3c.1-.1.2-.2.3-.4 0-.1.1-.1.1-.2s.1-.1.1-.2.1-.1.1-.2.1-.2.1-.2c.2-.3.4-.7.5-1 .2-.4.3-.7.5-1.1 0 0 0-.1.1-.1v-.2c0-.1.1-.2.1-.3v-.2c.3 0 .6 0 .7-.1l.3.1c.1.2.3.3.6.4v.1c0 .1-.1.2-.1.3v.4c-.1.4-.3.8-.4 1.2-.1.4-.3.7-.5 1.1 0 .1-.1.2-.1.3 0 .1-.1.2-.1.2-.1.2-.2.3-.2.5-.1.1-.2.3-.2.4 0 .1-.1.1-.1.2s-.1.1-.1.2c-.1.2-.3.4-.4.6l-.2.2s0 .1-.1.1l-.1.1-.1.1s.1 0 .1-.1c0 0 .1-.1.2-.1s.1-.1.2-.2l.5-.5.3-.3c.1-.1.2-.2.3-.4l.2-.2.2-.2c.1-.1.1-.2.2-.2 0-.1.1-.2.2-.2.2-.3.4-.7.6-1.1.2-.4.3-.8.5-1.2 0-.1 0-.1.1-.2 0-.1 0-.1.1-.2 0-.1.1-.2.1-.3v-.1c.2 0 .5 0 .6-.1l.3.1c.1.1.3.3.5.4 0 .1-.1.2-.1.3v.2c0 .1 0 .1-.1.2 0 .1-.1.2-.1.3 0 .1-.1.2-.1.3 0 .1-.1.2-.1.3 0 .1-.1.2-.1.3-.2.4-.3.8-.5 1.1 0 .1-.1.2-.1.3 0 .1-.1.2-.1.3-.1.2-.2.3-.3.5-.1.2-.2.3-.2.4 0 .1-.1.1-.1.2s-.1.1-.1.2c-.2.2-.3.4-.4.6-.1.1-.1.2-.2.2 0 0 0 .1-.1.1 0 0 0 .1-.1.1l-.1.1s.1 0 .1-.1c0 0 .1-.1.2-.1l.2-.2c.2-.1.3-.3.5-.5.1-.1.2-.2.3-.4.1-.1.2-.3.3-.4l.2-.2c.1-.1.1-.2.2-.2.1-.1.1-.2.2-.2.1-.1.1-.2.2-.3.2-.4.4-.7.6-1.1.2-.4.4-.8.5-1.3 0-.1 0-.1.1-.2 0-.1 0-.1.1-.2 0-.1 0-.1.1-.2 0-.1 0-.1.1-.2V14c-.2-1 0-1 .2-1.1z"/><path class="st8" d="M16.1 21h.2c-.1-.2-.2 0-.2 0z"/><path class="st9" d="M3.3 16.5c-1.2.6-1.4 1.7-1.4 1.7-.9.5-1.4 1.7-1.8 2.6.7-1 1.3-1.7 2.3-2.1 2-.8 3.3-.2 3.6 0 .3.2.8 1.4 1.4 2 .6.5 2.2.6 3 1.2.8.6 1.8 2.2 1 4-.3.7-1.2 1.5-1.8 1.8.6-.2 2-.7 2.5-1.7 0 0 1.6-.6 1.5-1.9 0 0 1.1-.9.9-1.6h.1L4.6 15c-.8.4-1.3 1.5-1.3 1.5z"/><path class="st10" d="M16.8 18.7c-1.5 1.2-3.4.7-4.1.1-.8-.6-1.2-2.2-1.9-2.6-.7-.5-2-.6-2.3-.9-.3-.2-1.3-1.3-1-3.5.1-1 .7-2 1.5-2.9-1.6.9-1.8 1.6-1.8 1.6-1.5.7-1.4 2-1.4 2-1 .8-.8 2.3-.8 2.3-.1 0-.3.1-.4.2l10 7.7c.3 0 1.4-.1 1.6-1 .1-.4.1-.6.1-.7h-.2s.1-.2.2 0c.3-.1.9-.3 1-1 0-.9.9-.8.7-1.5 0 0 .3-1.4.2-2.1-.3.9-.7 1.8-1.4 2.3z"/><path class="st11" d="M5 14.8h-.3c-.2 0-.4-.1-.7-.2-.1-.1-.3-.1-.5-.2s-.3-.2-.5-.3c-.2-.1-.3-.2-.5-.4-.1-.1-.3-.3-.4-.5l-.1-.1c-.1-.1-.1-.2-.2-.3-.1-.1-.1-.2-.1-.3 0-.1-.1-.2-.1-.3 0-.1-.1-.2-.1-.3 0-.1 0-.2-.1-.3 0-.1 0-.2-.1-.3v-2h1.1l-.1.7v1.9c0 .1 0 .2.1.3 0 .1 0 .2.1.3 0 .1.1.2.1.3l.1.1s0 .1.1.1c.1.2.2.3.3.5.1.1.2.3.4.4.1.1.3.2.4.3.1.1.3.2.4.3.3.1.5.2.6.3H5z"/><path class="st12" d="M1.9 18.2s.2-1.1 1.4-1.7c0 0 .7-1.5 1.7-1.7 0 0-.1-1.4.9-2.2 0 0 0-1.2 1.5-1.9 0 0 .1-.9 1.6-1.7v-.1c-1.9.2-3.4.8-4.7 2.3-.7.8-1.1 1.6-1.4 2.6-.8.5-1.5 1.2-2 1.9C-.3 17.4-.4 19.1 0 21c0 0 0-.1.1-.1.4-1 .9-2.2 1.8-2.7z"/><path class="st13" d="M16.1 21h.2c-.1-.2-.2 0-.2 0z"/><path class="st12" d="M17 19.8c.1.7-1 .6-1.4.7 0 .1.3.5.2.9-.1 1.1-1.7 1-1.7 1 .5 1.4-1 2-1 2-.1 1.3-1.3 1.6-1.3 1.6-.5 1-1.5 1.6-2.2 1.9h-.1c2-.2 3.7-1.1 4.8-2.6.4-.6.7-1.2.9-1.9.6-.3 1.1-.7 1.5-1.3 1.3-1.5 1.7-3.6 1.3-5.7v.1c.1.9-.5 1.9-.5 1.9.5.7-.6.8-.5 1.4z"/><path class="st11" d="M8.6 19.2c.5.4.8.8.6 1-.1.2-.6 0-1.1-.4-.5-.4-.8-.8-.6-1 .2-.2.7 0 1.1.4zm1.4-1.9c.5.4.8.8.6 1-.1.2-.6 0-1.1-.3s-.8-.8-.6-1c.2-.2.6 0 1.1.3z"/><path class="st8" d="M51.4 18.4s-.1 0-.2.1c0-.1.2-.1.2-.1z"/><path class="st9" d="M58.3 6.8c1.3-.3 2.1.4 2.1.4 1-.2 2.2.4 3.1.8-1.2-.3-2.1-.4-3.1-.1-2.1.6-2.6 2-2.7 2.3-.1.4.3 1.6.2 2.5-.1.8-1.3 1.9-1.6 2.8-.3 1 .1 2.8 1.8 3.7.7.3 1.8.4 2.5.2-.6.2-2 .7-3 .3 0 0-1.6.6-2.3-.5 0 0-1.4 0-1.7-.7l2.8-12.3c.9.1 1.9.6 1.9.6z"/><path class="st10" d="M49.4 17.2c2-.1 3-1.6 3.2-2.6.2-1-.5-2.4-.2-3.2.2-.8 1.1-1.8 1.2-2.2.1-.4.1-1.8-1.5-3.3-.8-.7-1.8-1-3-1.3 1.8-.4 2.4.1 2.4.1 1.6-.4 2.4.6 2.4.6 1.2-.1 2.1 1.2 2.1 1.2.1-.1.3-.1.4-.1l-2.8 12.3c-.2.2-1.1.8-1.9.2-.3-.2-.4-.4-.5-.5.1-.1.2-.1.2-.1s-.2 0-.2.1c-.3.1-.9.4-1.4-.1-.6-.7-1.2 0-1.5-.7 0 0-1.1-.8-1.5-1.5.8.6 1.8 1.1 2.6 1.1z"/><path class="st11" d="M56 6.5l.2-.2c.1-.1.3-.3.4-.6.1-.1.2-.3.2-.4.1-.1.1-.3.2-.5s.1-.4.1-.6v-1c0-.1 0-.2-.1-.3 0-.1-.1-.2-.1-.3 0-.1-.1-.2-.1-.3 0-.1-.1-.2-.1-.3 0-.1-.1-.2-.1-.3 0-.1-.1-.2-.1-.2 0-.1-.1-.2-.1-.2-.1-.1-.2-.3-.3-.4-.1-.1-.2-.2-.2-.3l-.2-.2-.4-.4-.9.7.4.4.2.2.2.2.3.3c.2.1.2.2.3.2 0 .1.1.1.1.2s.1.1.1.2.1.1.1.2.1.2.1.2c0 .1.1.2.1.3 0 .1.1.2.1.3v.2c0 .2.1.4.1.6v.5c0 .2 0 .3-.1.5 0 .2-.1.3-.1.4-.1.3-.2.5-.3.6v.3z"/><path class="st12" d="M60.5 7.2s-.8-.7-2.1-.4c0 0-1.5-.7-2.4-.2 0 0-.8-1.2-2.1-1.1 0 0-.7-.9-2.4-.5 0 0-.6-.6-2.4-.3H49c1.6-1 3.2-1.6 5.1-1.2 1 .2 1.9.5 2.7 1.1.9-.1 1.9-.1 2.8.2 2 .5 3.1 1.8 4.1 3.5-.1 0-.1 0-.2-.1-.8-.6-2-1.2-3-1z"/><path class="st13" d="M51.4 18.4s-.1 0-.2.1c0-.1.2-.1.2-.1z"/><path class="st12" d="M50 18.1c.4.6 1.2-.1 1.5-.4 0 .1.1.5.4.8.8.8 1.9-.3 1.9-.3.5 1.4 2 .9 2 .9.9.9 2 .4 2 .4 1 .5 2.2.2 2.8 0h.1c-1.7 1.1-3.5 1.5-5.3 1.1-.7-.2-1.3-.5-1.9-.9-.7.1-1.3.1-2 0-2-.3-3.6-1.6-4.7-3.5h.1c.5.8 1.6 1.1 1.6 1.1.3.9 1.1.3 1.5.8z"/><path class="st11" d="M55.9 12.2c-.1.6-.1 1.1.1 1.1s.5-.4.6-1c.1-.6.1-1.1-.1-1.1s-.4.4-.6 1zm-2.2-.5c-.1.6-.1 1.1.2 1.1.2 0 .5-.4.6-1 .1-.6.1-1.1-.2-1.1-.2 0-.5.4-.6 1z"/><path class="st14" d="M24.8 24.8s0 .1 0 0c0 .1 0 0 0 0zM13 23c0-.1-.1-.2-.1-.3.1.1.1.2.1.3zm37.3-1.1zm-11.7 1.9c-.1-.1-.1-.2-.2-.2.1 0 .2.1.2.2z"/><path class="st9" d="M25.8 13.3V13v.3z"/><path class="st15" d="M21.7.3h-.4s-2.2 1.3-3 3.6c-.8 2.3-.7 5.9-1.5 7.5-.9 1.6-.4 3.9-3.6 2.8-3.1-1-3.9-1.4-5.1-1.2-1.3.2-2.7 1.4-3 1.9 0 0 2.6-.4 4.5.9s3.9 3.9 6.8 2.5c1.9-.9 2.8-2.6 3.2-3.8.1-1.6-.2-4 0-7 .3-1.9 1.3-5 2.1-7.2z"/><path class="st16" d="M22.6.4c-.5-.1-.8-.1-.9-.1-.8 2.2-1.8 5.2-2 7.2-.2 2.1-.1 4.5-.1 7 .1-.3-.4 4.3 1.8 5.1 2.5.9 3-.9 4-.4 1.1.6.2 2.2.9 2.7 2.2 1.5 2 .2 2 .2s-1-.2-.9-3.2c0-2.3-2.6-1.5-2.6-1.5s-2.5.1-1.2-3.2c-.5-1.8-1.2-5.1-1-7.3.2-2.3.1-5.1 0-6.5z"/><path class="st17" d="M32.4 15c-2.5-.2-2.5.8-4.4-1.2-1.8-2-2.8-3.5-3.3-5.1-.5-1.6-.9-5.7-.9-5.7s0-2.4-1.2-2.6c.1 1.4.1 4.2-.1 6.5-.2 2.2.5 5.5 1 7.3v-.1s2 3.4 6.2 3.8 3.5-1.6 6.5.3c0-.1-1.3-3-3.8-3.2z"/><path class="st18" d="M22.5.2l-1-.1-.2.2 1.3.1z"/><path class="st14" d="M24.6 25.2c-.1 0-.1.1 0 0-.1.1-.1 0 0 0zm-12.1-1.8c0-.1-.1-.2-.1-.3 0 .1.1.2.1.3zm38.3-1.1zm-12 1.9c-.1-.1-.1-.2-.2-.3 0 .1.1.2.2.3z"/><path d="M14.4 97h-1.8v-4.6c0-.7-.6-1.2-1.2-1.2H9.7c-.7 0-1.2.5-1.2 1.2v10c0 .7.6 1.3 1.2 1.3h1.7c.7 0 1.2-.6 1.2-1.3V98h1.8c.3 0 .5-.3.5-.6 0-.2-.2-.4-.5-.4zm34.8 0H51v-4.6c0-.7.6-1.2 1.2-1.2h1.7c.7 0 1.2.5 1.2 1.2v10c0 .7-.6 1.3-1.2 1.3h-1.7c-.7 0-1.2-.6-1.2-1.3V98h-1.8c-.3 0-.6-.3-.6-.6 0-.2.3-.4.6-.4z"/><path class="st19" d="M31.8 19.7H2.4c-.7 0-1.2.6-1.2 1.3v4.2c0 .7.5 1.2 1.2 1.2h29.4v-6.7z"/><path class="st20" d="M62.4 25.2V21c0-.7-.5-1.3-1.1-1.3H31.8v6.6h29.5c.6.1 1.1-.5 1.1-1.1zm-30.6 3.6v-2.5H3.5l.1 1.8c6 0 16.9 0 28.2.7z"/><path class="st19" d="M3.5 28.2l2.4 59c0 2.3 1.6 4.2 3.7 4.2h3.9v7.9c0 1.5 1.9 2.8 4.2 2.8h14.1V28.8c-11.3-.8-22.2-.7-28.3-.6z"/><path class="st21" d="M59.9 32.8l.3-6.5H31.8v2.5c9.9.7 20.1 1.9 28.1 4z"/><path class="st20" d="M31.8 28.8v73.3H46c2.3 0 4.2-1.2 4.2-2.8v-7.9h3.9c2 0 3.6-1.9 3.6-4.2l2.1-54.4c-7.9-2.2-18.1-3.4-28-4z"/><path id="XMLID_4_" class="st22" d="M23.1 56.4c-.9 0-1.7-.2-2.4-.6-.7-.4-1.1-.8-1.3-1.3-.1-.2-.2-.4-.2-.6 0-.2-.1-.4-.1-.7 0-.4 0-.8.2-1.2.1-.4.2-.7.4-.9.2-.3.3-.5.4-.6l.3-.3-1.9-1.1 6.2-.2 2.9 5.4-1.8-1-.3.3c-.1.1-.2.3-.4.4-.1.2-.3.3-.4.5-.1.2-.2.3-.3.4-.1.2-.2.4-.2.6 0 .3.1.5.3.7.2.1.4.2.5.3l-1.9-.1zm17.9.9c.6 0 1.2-.2 1.7-.4s.9-.5 1.3-.8c.4-.3.6-.6.8-.8.2-.2.3-.4.4-.5-.1.4-.3.7-.4 1.1-.2.3-.4.7-.7 1.2-.2.3-.3.5-.4.7-.1.3-.3.6-.4.9-.4.8-.7 1.5-.9 2-.2.5-.5.9-.8 1.4-.3.4-.6.8-.9 1.1-.3.3-.6.4-1 .4h-3.2v2.2l-3.3-5.3 3.3-5.2v2.1c2.9-.1 4.5-.1 4.5-.1zM28.9 39.1h3.5c1.7 0 3 0 3.8.1.8.1 1.3.3 1.5.7 0 .1.1.2.3.5.2.3.3.6.5.9.2.3.4.6.5.8.1.2.2.4.3.5l1.9-1.1-2.6 5.8-6.4-.5 1.8-1.1-2.3-3.8c-.3-.6-.7-1.1-1.2-1.5-.4-.4-.9-.6-1.3-.8-.4-.2-.8-.3-1.1-.3-.3 0-.5-.1-.7-.1.4 0 .9-.1 1.5-.1zm-8.3 17.3c-.7-.3-1.1-.7-1.4-1.2.1.1.2.3.3.6.2.3.4.6.6 1.1.3.5.5.9.8 1.5.3.5.5.9.6 1.1.1.1.1.2.1.3.2.5.4.9.6 1.2.2.4.4.7.7 1.1.2.4.5.7.8 1 .3.2.5.4.7.4l7-.1-.1-6.7c-4.1 0-6.9.1-8.5.1-.8.1-1.5-.1-2.2-.4zm19.7-.2c-.3-.5-1-1.5-2-3.1s-1.6-2.5-1.8-2.8L42 47c.1.1.2.3.4.7l.7 1.4c.6 1.1 1 1.9 1.3 2.5.3.5.5.9.6 1.1.1.2.1.4.1.6 0 .3-.1.7-.2 1.1-.1.1-.2.3-.4.5s-.4.5-.8.8c-.3.3-.8.6-1.3.9-.5.3-1.1.4-1.6.4 0-.1-.1-.3-.5-.8zM27.6 49l-5.4-3c.1-.1.3-.5.7-1.2.1-.1.3-.5.7-1.1.4-.6.7-1.1 1-1.6.3-.5.5-.8.7-1.1.2-.3.3-.5.4-.6.1-.2.3-.4.5-.5.2-.1.6-.2 1-.3.2 0 .4 0 .7.1.3 0 .7.1 1.1.3.4.2.9.4 1.3.8s.8.8 1.1 1.4l.1.1c.1.1.2.3.2.4L27.6 49z"/><text transform="translate(14.83 80.279)" class="st23 st24 st25">Organic</text></svg>