<svg id="Layer_1" xmlns="http://www.w3.org/2000/svg" viewBox="0 0 64 109"><style>.st0{fill:#685918}.st1{fill:#635311}.st2{fill:#897619}.st3{fill:#776415}.st4{fill:#bcbbbb}.st5{fill:#ccc}.st6{fill:#e0dfde}.st7{fill:#efefed}.st8{fill:#4385b5}.st9{fill:#0e3049}.st10{fill:#e54833}.st11{fill:#afaeae}.st12{fill:#e5bc0e}.st13{fill:#d3ad0f}.st14{fill:#c19f10}.st15{fill-rule:evenodd;clip-rule:evenodd;fill:#f4f4f4}.st16{fill:#fff}.st17{font-family:&apos;Arial-BoldMT&apos;}.st18{font-size:7.2495px}</style><path class="st0" d="M24.2 18l-7.7 2.9L20.9 8l7.8-2.9z"/><path transform="rotate(-71.096 35.471 14.676)" class="st1" d="M28.7 5.1h13.6v19.1H28.7z"/><path transform="rotate(-71.096 27.752 17.54)" class="st2" d="M20.9 7.9h13.7v19.2H20.9z"/><path class="st3" d="M42.3 24.2l-7.7 2.9L39 14.2l7.7-2.9z"/><path class="st3" d="M52.8 6.2L34.7 0l-6.1 5.1 18.1 6.2z"/><path class="st2" d="M18.3 3.2L26 .3l2.6 4.8L20.9 8zm20.7 11l7.7-2.9 6.5.7-7.7 2.9z"/><path class="st3" d="M31.6 14.6L13.5 8.4l7.4-.4L39 14.2z"/><path class="st4" d="M30.9 18.6l-9.5 14.9c-.3.7-.1 1.2.3 1.6L.6 21.6c-.6-.4-.8-1.1-.5-1.7L9.7 5l21.2 13.6z"/><path class="st5" d="M32.1 18.2l-9.7 15.2c-.3.8-.2 1.2.3 1.6L1.6 21.6c-.6-.4-.8-1.1-.6-1.8l9.7-15.2 21.4 13.6z"/><path class="st6" d="M33.1 18l-9.7 15.2c-.3.8-1.3.5-.8 1L2.5 21.3c-.6-.4-.8-1.2-.4-1.7l9.7-15.2L33.1 18z"/><path class="st7" d="M12.7 4.7L2.2 21.1c-.6.6-1.1.7-1.7.5L21.7 35c.6.4 1.4.2 1.8-.4l10.4-16.4L12.7 4.7z"/><path transform="rotate(-57.48 21.203 15.092)" class="st8" d="M18.9 4.4h4.6v21.4h-4.6z"/><path class="st9" d="M15.4 9.8l.5.3c.3.2.5.3.6.4.1.1.1.2.2.3v.3c0 .1-.1.2-.3.5l-.5.8c-.1.2-.2.3-.3.4-.1.1-.1.1-.2.1h-.2c-.1 0-.2-.1-.3-.2l-.8-.5 1.3-2.4zm.4.8l-1 1.6c.1.1.2.1.2.1s.1-.1.2-.3l.6-.9c.1-.1.1-.2.1-.2v-.1c0-.1-.1-.2-.1-.2zm2.3.9L17 14.1l-.6-.4.2-.4-.2-.1-.4.3-.6-.4 1.8-2.2.9.6zm-1.3 1.3c.1-.3.3-.6.5-1.1-.4.4-.6.7-.8.9l.3.2zm2.4-.6l-1.5 2.4-.6-.4 1.5-2.4.6.4zm.9.6l-1.2 1.9.4.2-.3.5-1-.6 1.5-2.4.6.4zm1.6 1L20.3 15l-.5.9-.6-.4.5-.9.5-1.8.6.4c-.2.5-.4.9-.4 1l.8-.8.5.4zm2 1.3l-1.5 2.4-.5-.3.4-1.3-.7 1.1-.5-.3 1.5-2.4.5.3-.3 1.3.7-1.1.4.3zm.3.1l1 .7-.3.5-.4-.3-.3.5.4.2-.3.5-.4-.3-.3.5.5.3-.3.5-1.1-.7 1.5-2.4zm3.5 2.3l-1.8 2.2-.7-.5c.2-.4.4-.9.6-1.4-.2.2-.5.6-1 1.1l-.8-.5 1.2-2.5.6.4-.5.9-.4.8c.3-.4.7-.9 1.2-1.5l.6.4c0 .1-.2.3-.4.8l-.5.9c.4-.6.8-1.1 1.2-1.6l.7.5zm1 1.6l-.6-.4.1-.2c.1-.1.1-.1.1-.2 0 0 0-.1-.1-.1h-.1l-.1.1c-.1.1-.1.1-.1.2s0 .1.1.3c.2.3.3.6.3.7 0 .1-.1.3-.2.6-.1.2-.2.3-.3.3-.1.1-.2.1-.4.1-.1 0-.3-.1-.4-.2-.2-.1-.3-.2-.4-.4-.1-.1-.1-.3-.1-.4 0-.1.1-.3.2-.4l.1-.2.6.4-.2.5c-.1.1-.1.2-.1.2s0 .1.1.1h.1l.1-.1c.1-.1.1-.2.1-.3 0-.1-.1-.2-.2-.4s-.1-.3-.2-.4v-.3c0-.1.1-.2.1-.3.1-.2.2-.3.3-.4.1-.1.2-.1.4-.1.1 0 .3.1.4.2.2.1.3.2.4.3.1.1.1.2.1.3.1.1.1.3-.1.5z"/><path transform="rotate(-57.48 11.837 18.875)" class="st10" d="M8.3 14h7.1v9.7H8.3z"/><path transform="rotate(-57.48 23.154 22.171)" class="st11" d="M22.9 16.9h.5v10.5h-.5z"/><path transform="rotate(-57.48 22.609 23.027)" class="st11" d="M22.4 17.8h.5v10.5h-.5z"/><path transform="rotate(-57.48 22.102 23.823)" class="st11" d="M21.9 18.6h.5v10.5h-.5z"/><path transform="rotate(-57.48 21.505 24.758)" class="st11" d="M21.3 19.5h.5V30h-.5z"/><path transform="rotate(-57.48 20.947 25.634)" class="st11" d="M20.7 20.4h.5v10.5h-.5z"/><path transform="rotate(-57.48 20.376 26.53)" class="st11" d="M20.1 21.3h.5v10.5h-.5z"/><path transform="rotate(-57.48 19.856 27.345)" class="st11" d="M19.6 22.1h.5v10.5h-.5z"/><path transform="rotate(-57.48 19.266 28.27)" class="st11" d="M19 23h.5v10.5H19z"/><path transform="rotate(-57.48 14.105 26.226)" class="st11" d="M13.9 15.5h.5v21.4h-.5z"/><path transform="rotate(-57.48 13.547 27.101)" class="st11" d="M13.3 16.4h.5v21.4h-.5z"/><path transform="rotate(-57.48 12.951 28.036)" class="st11" d="M12.7 17.3h.5v21.4h-.5z"/><path class="st4" d="M54.6 31.1l-13.3-6c-.6-.1-1 0-1.3.5l8.6-19c.2-.5.8-.8 1.3-.6l13.3 6-8.6 19.1z"/><path class="st5" d="M55 32.1l-13.6-6.2c-.7-.2-1 0-1.3.5l8.6-19c.2-.5.8-.8 1.4-.7l13.6 6.2L55 32.1z"/><path class="st6" d="M55.4 32.8l-13.6-6.2c-.7-.1-.6-1-.9-.5l8.1-18c.2-.5.9-.8 1.4-.6L64 13.7l-8.6 19.1z"/><path class="st7" d="M63.9 14.5L49.2 7.9c-.6-.4-.7-.8-.6-1.3l-8.6 19c-.2.5 0 1.2.5 1.4l14.7 6.6 8.7-19.1z"/><path transform="rotate(-65.726 56.34 22.74)" class="st8" d="M47.5 20.8h17.7v3.8H47.5z"/><path class="st9" d="M60 17.3l-.2.4c-.1.3-.2.4-.3.5l-.2.2h-.2c-.1 0-.2-.1-.4-.2l-.8-.2c-.2-.1-.3-.2-.4-.2-.1 0-.1-.1-.1-.2v-.2c0-.1.1-.2.1-.3l.3-.7 2.2.9zm-.6.4l-1.4-.6v.2s.1.1.2.1l.8.4c.1 0 .2.1.2.1h.1c0-.1.1-.1.1-.2z"/><path class="st9" d="M58.9 19.8l-2.3-.6.3-.6.4.1.1-.2-.4-.2.3-.6 2 1.2-.4.9zm-1.2-.9l.9.3c-.4-.2-.7-.4-.8-.5l-.1.2z"/><path class="st9" d="M58.5 20.7l-2.1-1 .2-.6 2.1 1-.2.6zm-.4.8l-1.7-.8-.2.3-.4-.2.4-.9 2.1 1-.2.6zm-.6 1.5l-1.2-1-.8-.3.2-.5.8.3 1.5.2-.2.5c-.5-.1-.7-.2-.9-.2.2.1.5.3.8.5l-.2.5zm-.9 1.8l-2.1-1 .2-.5 1.1.1-1-.4.2-.5 2.1 1-.1.5-1.1-.1 1 .4-.3.5zm-.1.2l-.4.9-.4-.2.2-.4-.4-.2-.2.3-.4-.2.2-.3-.5-.2-.2.4-.4-.1.4-1 2.1 1zm-1.4 3.2l-2-1.2.3-.7 1.2.3c-.2-.1-.5-.3-1-.7l.3-.7 2.2.7-.2.5-.8-.3-.8-.1c.4.2.8.5 1.4.8l-.3.6c-.1 0-.3-.1-.7-.3l-.8-.3c.5.3 1 .5 1.4.8l-.2.6zm-1.2 1l.2-.5.2.1h.1l.1-.1v-.1l-.1-.1h-.2s-.1 0-.2.1c-.3.2-.4.3-.6.3-.1 0-.3 0-.5-.1s-.3-.1-.3-.2c-.1-.1-.1-.2-.1-.3 0-.1 0-.3.1-.4.1-.1.2-.3.3-.3.1-.1.2-.1.3-.1.1 0 .2 0 .4.1l.1.1-.2.5-.3-.1c-.1 0-.1-.1-.2 0 0 0-.1 0-.1.1v.1l.1.1c.1.1.2.1.3.1.1 0 .2-.1.3-.2.2-.1.3-.2.3-.2h.2c.1 0 .2 0 .3.1.2.1.3.1.3.2.1.1.1.2.1.3 0 .1 0 .2-.1.4-.1.1-.1.3-.2.3-.1.1-.2.1-.3.1.1-.1-.1-.2-.3-.3z"/><path transform="rotate(-65.726 52.122 15.504)" class="st10" d="M48.1 12.6h8v5.9h-8z"/><path transform="rotate(-65.726 50.763 25.184)" class="st11" d="M46.4 25h8.7v.4h-8.7z"/><path transform="rotate(-65.726 49.996 24.838)" class="st11" d="M45.6 24.6h8.7v.4h-8.7z"/><path transform="rotate(-65.726 49.283 24.516)" class="st11" d="M44.9 24.3h8.7v.4h-8.7z"/><path transform="rotate(-65.726 48.444 24.138)" class="st11" d="M44.1 23.9h8.7v.4h-8.7z"/><path transform="rotate(-65.726 47.66 23.784)" class="st11" d="M43.3 23.6H52v.4h-8.7z"/><path transform="rotate(-65.726 46.856 23.422)" class="st11" d="M42.5 23.2h8.7v.4h-8.7z"/><path transform="rotate(-65.726 46.125 23.093)" class="st11" d="M41.8 22.9h8.7v.4h-8.7z"/><path transform="rotate(-65.726 45.296 22.719)" class="st11" d="M40.9 22.5h8.7v.4h-8.7z"/><path transform="rotate(-65.726 46.36 18.24)" class="st11" d="M37.5 18h17.7v.4H37.5z"/><path transform="rotate(-65.726 45.575 17.886)" class="st11" d="M36.7 17.7h17.7v.4H36.7z"/><path transform="rotate(-65.726 44.736 17.508)" class="st11" d="M35.9 17.3h17.7v.4H35.9z"/><path d="M15.7 102.2h-1.8v-4.5c0-.7-.5-1.1-1.2-1.1H11c-.7 0-1.2.5-1.2 1.1v10c0 .7.5 1.2 1.2 1.2h1.7c.7 0 1.2-.6 1.2-1.2v-4.5h1.8c.3 0 .6-.2.6-.5 0-.2-.2-.5-.6-.5zm34.9 0h1.8v-4.5c0-.7.5-1.1 1.2-1.1h1.7c.7 0 1.2.5 1.2 1.1v10c0 .7-.5 1.2-1.2 1.2h-1.7c-.7 0-1.2-.6-1.2-1.2v-4.5h-1.8c-.3 0-.5-.2-.5-.5-.1-.2.2-.5.5-.5z"/><path class="st12" d="M33.2 25H3.7c-.7 0-1.2.6-1.2 1.2v4.2c0 .7.6 1.2 1.2 1.2h29.5V25z"/><path class="st13" d="M63.8 30.4v-4.2c0-.7-.5-1.2-1.2-1.2H33.2v6.6h29.4c.7 0 1.2-.5 1.2-1.2zm-30.6 3.7v-2.5H4.8l.1 1.9c6.1-.1 16.8-.1 28.3.6z"/><path class="st12" d="M4.9 33.4l2.3 59c0 2.3 1.6 4.2 3.6 4.2h3.9v8c0 1.5 1.9 2.7 4.3 2.7h14.2V34c-11.5-.7-22.2-.7-28.3-.6z"/><path class="st14" d="M61.3 38.1l.2-6.5H33.2v2.5c9.7.6 20.1 1.8 28.1 4z"/><path class="st13" d="M33.2 34v73.3h14.1c2.3 0 4.3-1.2 4.3-2.7v-8h3.9c2 0 3.7-1.9 3.7-4.2L61.3 38c-8-2.2-18.4-3.4-28.1-4z"/><path id="XMLID_3_" class="st15" d="M24.5 61.6c-.9 0-1.7-.2-2.4-.6-.7-.4-1.1-.8-1.3-1.3-.1-.2-.2-.4-.2-.6 0-.2-.1-.4-.1-.7 0-.4 0-.8.2-1.2.1-.4.2-.7.4-.9.2-.3.3-.5.4-.6l.3-.3-1.9-1.1L26 54l2.9 5.4-1.8-1-.3.3c-.1.1-.2.3-.4.4-.1.2-.3.3-.4.5-.1.2-.2.3-.3.4-.1.2-.2.4-.2.6 0 .3.1.5.3.7.2.1.4.2.5.3h-1.8zm17.9.8c.6 0 1.2-.2 1.7-.4s.9-.5 1.3-.8c.4-.3.6-.6.8-.8.2-.2.3-.4.4-.5-.1.4-.3.7-.4 1.1-.2.3-.4.8-.7 1.2-.2.3-.3.5-.4.7-.1.3-.3.6-.4.9-.4.8-.7 1.5-.9 2-.2.5-.5 1-.8 1.4-.3.4-.6.8-.9 1.1-.3.3-.6.4-1 .4h-3.2v2.2l-3.3-5.3 3.3-5.2v2.1c2.9-.1 4.4-.1 4.5-.1zM30.3 44.2h3.5c1.7 0 3 0 3.8.1.8.1 1.3.3 1.5.7 0 .1.1.2.3.5.2.3.3.6.5.9.2.3.4.6.5.8.1.2.2.4.3.5l1.9-1.1-2.6 5.8-6.4-.5 1.8-1.1L33 47c-.3-.6-.7-1.1-1.2-1.5-.4-.4-.9-.6-1.3-.8-.4-.2-.8-.3-1.1-.3-.3 0-.5-.1-.7-.1.5 0 1 0 1.6-.1zm-8.4 17.4c-.7-.3-1.1-.7-1.4-1.2.1.1.2.3.3.6.2.3.4.6.6 1.1.3.5.5.9.8 1.5.3.5.5.9.6 1.1.1.1.1.2.1.3.2.5.4.9.6 1.2.2.4.4.7.7 1.1.2.4.5.7.8 1 .3.2.5.4.7.4l7-.1.1-6.6c-4.1 0-6.9.1-8.5.1-.9-.1-1.7-.2-2.4-.5zm19.8-.2c-.3-.5-1-1.5-2-3.1s-1.6-2.5-1.8-2.8l5.5-3.3c.1.1.2.3.4.7l.7 1.4c.6 1.1 1 1.9 1.3 2.5.3.5.5.9.6 1.1.1.2.1.4.1.6 0 .3-.1.7-.2 1.1-.1.1-.2.3-.4.5s-.4.5-.8.8c-.3.3-.8.6-1.3.9-.5.3-1.1.4-1.7.4.1-.1-.1-.3-.4-.8zm-12.8-7.3l-5.4-3c.1-.1.3-.5.7-1.2.1-.1.3-.5.7-1.1.4-.6.7-1.1 1-1.6.3-.5.5-.8.7-1.1.2-.3.3-.5.4-.6.1-.2.3-.4.5-.5.2-.1.6-.2 1.1-.3.2 0 .4 0 .7.1.3 0 .7.1 1.1.3.4.2.9.4 1.3.8s.8.8 1.1 1.4l.1.1c.1.1.2.3.2.4l-4.2 6.3z"/><text transform="translate(20.62 85.258)" class="st16 st17 st18">Paper</text></svg>