<svg id="Layer_1" xmlns="http://www.w3.org/2000/svg" viewBox="0 0 64 104.8"><style>.st0{fill:#334b63}.st1{fill:#9ab3c1}.st2{fill:#fff}.st3{fill:#8aa0aa}.st4{fill:#e0d251}.st5{fill:#bfb147}.st6{fill:#e23513}.st7{fill:#d3260f}.st8{fill:#bf1c10}.st9{fill-rule:evenodd;clip-rule:evenodd;fill:#f4f4f4}.st10{font-family:&apos;Arial-BoldMT&apos;}.st11{font-size:7.212px}</style><path class="st0" d="M4.3 1.5c-.1-.3-.4-.4-.6-.4l-3.3 1c-.3.1-.5.4-.4.6L.4 4l4.2-1.3-.3-1.2z"/><path class="st1" d="M10.8 17.2l-1.2-3.9c.4-1.2 0-2.5-.4-3.8C8.5 7 6.7 5.4 4.8 5.1l-.6-2.2-3.2 1L1.6 6C.2 7.3-.4 9.7.3 12.1c.4 1.4.8 2.7 1.7 3.5l1.2 3.9c-.7 1.5-.4 3.3.2 5.3.4 1.5 1.2 2.7 2.2 3.6h.8c1.4-.4.9-1.7.8-1.9.1.2 1.1 2.3 2.8 1.8 1.8-.5 1.4-2.8 1.4-3 0 .2.3 1.7 1.7 1.2.3-.1.5-.2.7-.4.3-1.3.3-2.8-.2-4.2-.6-2.2-1.3-3.8-2.8-4.7z"/><path class="st2" d="M8.4 13c-.1 0-.1 0-.2-.1s-.1-.2 0-.3c.4-.4.1-1.9-.6-3.8-.5-1.3-2.2-2-2.3-2-.1 0-.2-.2-.1-.3 0-.1.2-.2.3-.1.1 0 1.9.8 2.5 2.3.2.5.6 1.4.7 2.4.2 1 .1 1.6-.2 1.9h-.1z"/><path class="st0" d="M19.1 4.4c0-.3-.1-.5-.4-.5l-3.4-.5c-.3 0-.5.1-.5.4L14.6 5l4.4.7.1-1.3z"/><path class="st1" d="M18.3 21.4l.6-4.1c.8-.9 1.1-2.2 1.3-3.6.4-2.4-.6-4.7-2.1-5.8l.3-2.3-3.3-.5-.3 2.2c-1.8.6-3.4 2.5-3.8 4.9-.2 1.4-.5 2.8.1 3.9l-.6 4C9.2 21.2 8.7 23 8.4 25c-.2 1.5-.1 3 .4 4.2.2.1.4.3.7.3 1.4.3 1.5-1.2 1.5-1.4 0 .3 0 2.5 1.8 2.8 1.8.3 2.5-1.9 2.6-2.1-.1.2-.4 1.6 1 1.8.3 0 .6 0 .8-.1.8-1 1.4-2.4 1.7-3.9.3-2 .3-3.8-.6-5.2z"/><path class="st2" d="M19 16c-.1 0-.1-.1-.1-.1-.1-.1 0-.3.1-.3.5-.3.7-1.8.5-3.8-.1-1.4-1.6-2.6-1.6-2.6-.1-.1-.1-.2 0-.3.1-.1.2-.1.3 0 .1.1 1.6 1.3 1.8 2.9 0 .5.1 1.5 0 2.5s-.3 1.5-.8 1.8c-.1-.1-.2-.1-.2-.1z"/><path class="st0" d="M49.1.9c0-.3-.1-.5-.4-.5l-3.4-.5c-.3 0-.5.1-.5.4l-.2 1.3 4.4.7.1-1.4z"/><path class="st3" d="M48.3 17.9l.6-4.1c.8-.9 1.1-2.2 1.3-3.6.4-2.4-.6-4.7-2.1-5.8l.3-2.3-3.3-.5-.3 2.2c-1.8.6-3.4 2.5-3.8 4.9-.2 1.4-.5 2.8.1 3.9l-.6 4c-1.3 1.1-1.8 2.9-2.1 4.9-.2 1.5-.1 3 .4 4.2.2.1.4.3.7.3 1.4.3 1.5-1.2 1.5-1.4 0 .3 0 2.5 1.8 2.8 1.8.3 2.5-1.9 2.6-2.1-.1.2-.4 1.6 1 1.8.3 0 .6 0 .8-.1.8-1 1.4-2.4 1.7-3.9.3-1.9.3-3.8-.6-5.2z"/><path class="st2" d="M48.5 12.4c-.1 0-.1-.1-.1-.1-.1-.1 0-.3.1-.3.5-.3.7-1.8.5-3.8-.1-1.4-1.6-2.6-1.6-2.6-.1-.1-.1-.2 0-.3.1-.1.2-.1.3 0 .1.1 1.6 1.3 1.8 2.9 0 .5.1 1.5 0 2.5s-.3 1.5-.8 1.8c0-.1-.1-.1-.2-.1z"/><path class="st0" d="M63.8 7.9c.2-.2.2-.5 0-.7l-2.4-2.5c-.2-.2-.5-.2-.7 0l-1 .9 3 3.2 1.1-.9z"/><path class="st1" d="M52.7 20.8l3-2.8c1.2-.2 2.2-1.1 3.3-2.1 1.8-1.7 2.5-4.1 1.9-5.9l1.7-1.6-2.3-2.5-1.7 1.6c-1.8-.7-4.2-.1-6 1.6-1.1 1-2.1 1.9-2.3 3.1l-3 2.8c-1.7.1-3.2 1.2-4.7 2.6-1.1 1.1-1.9 2.3-2.3 3.6.1.2.2.5.4.7 1 1.1 1.9 0 2.1-.2-.2.2-1.6 2-.3 3.3 1.3 1.3 3.1 0 3.4-.1-.2.1-1.3 1-.3 2.1.2.2.4.3.7.4 1.3-.3 2.6-1 3.7-2 1.4-1.5 2.5-3 2.7-4.6z"/><path class="st2" d="M56.9 15.9s-.1-.1 0-.2c0-.1.1-.2.3-.2.5.1 1.6-1.1 2.5-2.8.7-1.2.2-3 .2-3 0-.1 0-.3.2-.3.1 0 .3 0 .3.2 0 .1.6 2-.2 3.4-.3.5-.8 1.3-1.4 2.1-.6.7-1.2 1.1-1.6 1-.2-.1-.3-.1-.3-.2z"/><path class="st4" d="M40.1 14.8c.9-1.4 2.3-3.6 2.7-4.2.3-.4.4-.9.2-1.4-.1-.6-.5-1.1-1.2-1.7-.3-.3-.6-.5-.8-.6L36.5 4c-1.4-.9-2.8-.5-3-.5h-.1l-1.3.6L30.4.2l-3.6 1.6L28.2 5c-.9-.5-2.1-.2-2.6.7l-7.3 11.5c-.6.9-.3 2.2.6 2.8L30 27c.9.6 2.2.3 2.7-.6l7.4-11.6c0 .1 0 0 0 0zm-6-9.1c.2 0 .7-.1 1.1.2l4.6 2.9s.2.1.5.3c.2.1.3.3.4.4-.3.5-.9 1.5-1.5 2.4L34 8.6l-1-2.4 1.1-.5z"/><path class="st0" d="M31.1.2c-.1-.2-.3-.3-.5-.2l-4 1.7c-.2.1-.3.3-.2.6l.4.9 4.8-2.1-.5-.9z"/><path class="st5" d="M36.9 13.7l-6.2 9.8-9-5.7L27.9 8l9 5.7m.6-.5l-9.3-5.9c-.2-.2-.5-.1-.7.2L21 17.6c-.2.2-.1.6.2.7l9.3 5.9c.2.2.6.1.7-.2l6.4-10.1c.2-.2.1-.5-.1-.7z"/><path class="st5" d="M29.2 11.3c.4.3.7.7.8 1.2.1.5-.1 1.1-.5 1.7-.5.8-1.1 1.3-1.9 1.7-.8.4-1.4.6-1.8.6l1.6 1-.8 1.3-3.1-1.9.8-1.3c.2.1.8 0 1.8-.4s1.7-.7 2-.9c.3-.2.5-.6.6-.9.1-.4-.1-.7-.4-.9-.4-.2-.8-.2-1.2 0v-1.3c.4-.2.7-.3 1-.3.3 0 .7.1 1.1.4zm-.7 7.5c.1-.8.4-1.7 1-2.6.6-.9 1.2-1.6 1.9-2.1.7-.4 1.3-.5 1.8-.2s.7.9.6 1.7c-.1.8-.4 1.7-1 2.6-.6.9-1.2 1.6-1.9 2.1-.7.4-1.3.5-1.8.2-.5-.4-.7-.9-.6-1.7zm1.4.4c.2.1.5 0 .9-.3s.8-.7 1.2-1.3c.4-.6.6-1.1.7-1.6.1-.5 0-.8-.2-.9-.2-.1-.5 0-.9.3s-.8.7-1.2 1.3c-.4.6-.6 1.1-.7 1.6 0 .5 0 .8.2.9z"/><path d="M14.6 98h-1.8v-4.5c0-.7-.5-1.3-1.2-1.3H9.9c-.7 0-1.2.6-1.2 1.3v10c0 .7.6 1.2 1.2 1.2h1.7c.7 0 1.2-.6 1.2-1.2V99h1.8c.3 0 .5-.2.5-.5 0-.2-.2-.5-.5-.5zm34.8 0h1.8v-4.5c0-.7.6-1.3 1.2-1.3h1.7c.7 0 1.2.6 1.2 1.3v10c0 .7-.5 1.2-1.2 1.2h-1.7c-.7 0-1.2-.6-1.2-1.2V99h-1.8c-.3 0-.5-.2-.5-.5 0-.2.2-.5.5-.5z"/><path class="st6" d="M32 20.8H2.5c-.7 0-1.2.5-1.2 1.2v4.2c0 .7.5 1.2 1.2 1.2H32v-6.6z"/><path class="st7" d="M62.7 26.2V22c0-.7-.5-1.2-1.2-1.2H32v6.6h29.5c.6 0 1.2-.5 1.2-1.2zM32 29.9v-2.5H3.6l.1 1.9c6.1-.1 17-.1 28.3.6z"/><path class="st6" d="M3.7 29.2l2.3 59c0 2.3 1.6 4.2 3.6 4.2h3.9v8c0 1.5 1.9 2.8 4.2 2.8H32V29.8c-11.3-.7-22.2-.7-28.3-.6z"/><path class="st8" d="M60.1 33.9l.2-6.5H32v2.5c9.8.6 20.1 1.8 28.1 4z"/><path class="st7" d="M32 29.8v73.4h14.1c2.3 0 4.2-1.2 4.2-2.8v-8h3.9c2 0 3.7-1.9 3.7-4.2l2.2-54.4c-8-2.2-18.3-3.4-28.1-4z"/><path id="XMLID_1_" class="st9" d="M23.3 57.5c-.9 0-1.7-.2-2.4-.6-.7-.4-1.1-.8-1.3-1.3-.1-.2-.2-.4-.2-.6 0-.2-.1-.4-.1-.7 0-.4 0-.8.2-1.2.1-.4.2-.7.4-1 .2-.3.3-.5.4-.6l.3-.3-1.9-1.1 6.2-.2 2.9 5.4-1.8-1-.3.3c-.1.1-.2.3-.4.4-.1.2-.3.3-.4.5-.1.2-.2.3-.3.4-.1.2-.2.4-.2.6 0 .3.1.5.3.7.2.1.4.2.5.3h-1.9zm17.9.8c.6 0 1.2-.2 1.7-.4s.9-.5 1.3-.8c.4-.3.6-.6.8-.8.2-.2.3-.4.4-.5-.1.4-.3.7-.4 1.1-.2.3-.4.8-.7 1.2-.2.3-.3.5-.4.7-.1.3-.3.6-.4.9-.4.8-.7 1.5-.9 2-.2.5-.5 1-.8 1.4-.3.4-.6.8-.9 1.1-.3.3-.6.4-1 .4h-3.2v2.2l-3.3-5.3 3.3-5.2v2.1c2.9-.1 4.5-.1 4.5-.1zM29.1 40.1h3.5c1.7 0 3 0 3.8.1.8.1 1.3.3 1.5.7 0 .1.1.2.3.5.2.3.3.6.5.9.2.3.4.6.5.8.1.2.2.4.3.5l1.9-1.1-2.6 5.8-6.4-.5 1.8-1.1-2.3-3.8c-.3-.6-.7-1.1-1.2-1.5-.4-.4-.9-.6-1.3-.8-.4-.2-.8-.3-1.1-.3-.3 0-.5-.1-.7-.1.4 0 .9-.1 1.5-.1zm-8.4 17.4c-.7-.3-1.1-.7-1.4-1.2.1.1.2.3.3.6.2.3.4.6.6 1.1.3.5.5.9.8 1.5.3.5.5.9.6 1.1.1.1.1.2.1.3.2.5.4.9.6 1.2.2.4.4.7.7 1.1.2.4.5.7.8 1 .3.2.5.4.7.4l7-.1-.1-6.7c-4.1 0-6.9.1-8.5.1-.7 0-1.5-.1-2.2-.4zm19.8-.3c-.3-.5-1-1.5-2-3.1s-1.6-2.5-1.8-2.8l5.5-3.3c.1.1.2.3.4.7l.7 1.4c.6 1.1 1 1.9 1.3 2.5.3.5.5.9.6 1.1.1.2.1.4.1.6 0 .3-.1.7-.2 1.1-.1.1-.2.3-.4.5s-.4.5-.8.8c-.3.3-.8.6-1.3.9-.5.3-1.1.4-1.7.4.1 0-.1-.3-.4-.8zM27.7 50l-5.4-3c.1-.1.3-.5.7-1.2.1-.1.3-.5.7-1.1.4-.6.7-1.1 1-1.6.3-.5.5-.8.7-1.1.2-.3.3-.5.4-.6.1-.2.3-.4.5-.5.2-.1.6-.2 1.1-.3.2 0 .4 0 .7.1.3 0 .7.1 1.1.3.4.2.9.4 1.3.8s.8.8 1.1 1.4l.1.1c.1.1.2.3.2.4L27.7 50z"/><text transform="translate(16.508 81.214)" class="st2 st10 st11">Plastic</text></svg>