<svg id="OBJECTS" xmlns="http://www.w3.org/2000/svg" viewBox="0 0 99 84"><style>.st0{fill:#cbcbcb}</style><g id="XMLID_1575_"><g id="XMLID_1524_"><path id="XMLID_1527_" class="st0" d="M46.9 65.3c.2-.6.4-1.1.7-1.7.2-.6.5-1.1.7-1.7.2-.5.5-1.1.8-1.6.2-.4.4-.8.7-1.1-4-6.3-8.4-8.5-8.4-8.5 3.2 5.6 4.7 10.2 5.5 14.7-.1 0 0-.1 0-.1z"/><path id="XMLID_1526_" class="st0" d="M50.4 60.2s-.3.6-.5.9c-.5 1-1 2.1-1.4 3.2-.2.6-.5 1.1-.7 1.7-.1.4-.3.8-.4 1.1.7 5 .2 9.3-.9 12.9.1-.1.3-.2.4-.3.5-.5.9-1 1.4-1.5l1.2-1.8.6-.9c.2-.3.4-.6.5-1 .3-.6.7-1.3 1-1.9.3-.6.6-1.2.8-1.8.2-.4.4-.8.5-1.2.1-.1.1-.3.2-.4.3-.6.5-1.1.7-1.6.1-.2.2-.4.2-.6-.3-4 .4-9.9 5.7-14.5-.3.1-6.3 2.5-9.3 7.7z"/><path id="XMLID_1469_" class="st0" d="M55.1 84H44.9c.4-.8.7-1.6 1-2.4.6-.3 1.1-.6 1.6-1.1.5-.5 1.1-1 1.6-1.6.5-.6.9-1.2 1.3-1.9.2-.3.4-.7.6-1 .2-.3.4-.7.5-1 .3-.7.6-1.3.9-2 .4-1 .7-1.9 1-2.8l.3-.9c.1-.3.2-.7.3-1 0-.1.1-.3.1-.4.1.7.2 1.2.3 1.7v.1c.9 4.1 1.3 8.8.7 14.3z"/></g><path id="XMLID_1529_" class="st0" d="M46.2 37.7c.6 1.8.5 3.7-.2 5.4-1.6-.9-2.8-2.3-3.4-4.2-.6-1.8-.5-3.7.2-5.4 1.6.9 2.8 2.3 3.4 4.2zm-10.8.6c.2 1.8 1.1 3.5 2.5 4.8 1.4 1.3 3.2 1.9 5 1.9-.2-1.8-1.1-3.5-2.5-4.8-1.4-1.3-3.2-1.9-5-1.9zm-4 7.8c1.1 1.4 2.7 2.5 4.6 2.9 1.9.4 3.8 0 5.3-.9-1.1-1.4-2.7-2.5-4.6-2.9-1.9-.3-3.8 0-5.3.9zm17.7-8.4c-.6 1.8-.5 3.7.2 5.4 1.6-.9 2.8-2.3 3.4-4.2.6-1.8.5-3.7-.2-5.4-1.5.9-2.7 2.3-3.4 4.2zm5.8 2.5c-1.4 1.3-2.3 3-2.5 4.8 1.8 0 3.6-.6 5-1.9 1.4-1.3 2.3-3 2.5-4.8-1.7 0-3.5.6-5 1.9zm3.8 5.1c-1.9.4-3.5 1.4-4.6 2.9 1.6.9 3.4 1.3 5.3.9s3.5-1.4 4.6-2.9c-1.6-1-3.4-1.3-5.3-.9zm-47.1-4.7c1.1 1.4 2.7 2.5 4.6 2.8 1.9.4 3.8 0 5.3-1-1.1-1.4-2.7-2.5-4.6-2.8-1.9-.3-3.8.1-5.3 1zm9.3-17.9c.1 1.8.9 3.5 2.3 4.9 1.4 1.3 3.2 2 5 2.1-.1-1.8-.9-3.5-2.3-4.9-1.5-1.3-3.3-2-5-2.1zm16.7-11c-.8 1.6-1 3.5-.5 5.4.5 1.9 1.7 3.4 3.2 4.3.8-1.6 1-3.5.5-5.4-.5-1.8-1.7-3.3-3.2-4.3zM4.3 30.1c.1 1.8.9 3.5 2.3 4.9 1.4 1.3 3.2 2 5 2.1-.1-1.8-.9-3.5-2.3-4.9-1.4-1.3-3.2-2-5-2.1zM0 37.8c1 1.5 2.6 2.6 4.4 3.1 1.9.5 3.8.2 5.4-.6-1-1.5-2.6-2.6-4.4-3.1-1.9-.5-3.8-.2-5.4.6zm.1 8.8c1.6.8 3.5 1 5.4.4 1.9-.5 3.4-1.7 4.3-3.2-1.6-.8-3.5-1-5.4-.4-1.9.5-3.4 1.7-4.3 3.2zM19.8 10c-.7 1.6-.9 3.5-.3 5.4.6 1.8 1.8 3.3 3.3 4.2.7-1.6.9-3.5.3-5.4-.6-1.8-1.8-3.2-3.3-4.2zm-7.5 4.7c.2 1.8 1 3.5 2.4 4.8 1.4 1.3 3.2 2 5 2-.2-1.8-1-3.5-2.4-4.8s-3.2-2-5-2zm-4.2 7.8c1.1 1.5 2.6 2.5 4.5 3 1.9.4 3.8.1 5.3-.8-1.1-1.5-2.6-2.5-4.5-3-1.8-.4-3.7-.1-5.3.8zM43.3 0c-1.5 1-2.6 2.5-3.1 4.4-.5 1.9-.2 3.8.6 5.4 1.5-1 2.6-2.5 3.1-4.4.4-1.9.2-3.8-.6-5.4zm-8.9 0c-.8 1.6-1 3.5-.5 5.4.5 1.9 1.7 3.4 3.2 4.3.8-1.6 1-3.5.5-5.4-.5-1.8-1.7-3.3-3.2-4.3zm-7.6 4.4c.1 1.8.9 3.5 2.3 4.9 1.4 1.3 3.2 2.1 4.9 2.1-.1-1.8-.9-3.5-2.3-4.9-1.3-1.3-3.1-2-4.9-2.1zm51.8 35.2c-1.9.4-3.5 1.4-4.6 2.8 1.5.9 3.4 1.3 5.3 1 1.9-.4 3.5-1.4 4.6-2.8-1.6-.9-3.4-1.3-5.3-1zm-9-14.8a7.29 7.29 0 0 0-2.3 4.9c1.8-.1 3.6-.8 5-2.1s2.2-3.1 2.3-4.9c-1.8.1-3.6.8-5 2.1zm-15-8.7c-.5 1.9-.3 3.8.5 5.4 1.5-1 2.7-2.5 3.2-4.3.5-1.9.3-3.8-.5-5.4-1.5.9-2.7 2.4-3.2 4.3zm31.5 16.2a7.29 7.29 0 0 0-2.3 4.9c1.8-.1 3.6-.8 5-2.1s2.2-3.1 2.3-4.9c-1.8 0-3.6.7-5 2.1zm4 4.9c-1.9.5-3.4 1.6-4.4 3.1 1.6.8 3.5 1.1 5.4.6 1.9-.5 3.4-1.6 4.4-3.1-1.7-.8-3.6-1.1-5.4-.6zm.9 6.2c-1.9-.5-3.8-.3-5.4.4 1 1.5 2.5 2.7 4.3 3.2 1.9.5 3.8.3 5.4-.4-.9-1.5-2.4-2.7-4.3-3.2zM72.3 14.3c-.6 1.8-.4 3.7.3 5.4 1.5-.9 2.8-2.4 3.3-4.2.6-1.8.4-3.7-.3-5.4-1.5.9-2.7 2.3-3.3 4.2zm5.8 2.4c-1.4 1.3-2.2 3-2.4 4.8 1.8 0 3.6-.7 5-2s2.2-3 2.4-4.8c-1.8 0-3.5.7-5 2zm3.9 5c-1.9.4-3.5 1.5-4.5 3 1.6.9 3.4 1.2 5.3.8 1.9-.4 3.5-1.5 4.5-3-1.6-.9-3.4-1.2-5.3-.8zM51.6 5.4c.5 1.9 1.6 3.4 3.1 4.4.8-1.6 1.1-3.5.6-5.4-.5-1.9-1.6-3.4-3.1-4.4-.9 1.6-1.1 3.5-.6 5.4zm6.2-1.1c-.5 1.9-.3 3.8.5 5.4 1.5-1 2.7-2.5 3.2-4.3.5-1.9.3-3.8-.5-5.4-1.5 1-2.7 2.5-3.2 4.3zm5.9 2.3c-1.4 1.3-2.1 3.1-2.3 4.9 1.8-.1 3.6-.8 4.9-2.1 1.4-1.3 2.1-3.1 2.3-4.9-1.8 0-3.5.7-4.9 2.1zM47.6 4.5c-3.3 3.7-5.3 8.6-5.3 14s2 10.3 5.3 14c3.3-3.7 5.3-8.6 5.3-14s-2-10.3-5.3-14zm-21.7 6.8c-1 4.9-.3 10.1 2.4 14.8s6.9 7.9 11.6 9.5c1-4.9.3-10.1-2.4-14.8-2.7-4.7-6.9-7.9-11.6-9.5zM10.5 28.1c1.6 4.7 4.8 8.9 9.5 11.6 4.7 2.7 9.9 3.4 14.8 2.4-1.6-4.7-4.8-8.9-9.5-11.6-4.7-2.7-9.9-3.4-14.8-2.4zM5.6 50.3c3.7 3.3 8.6 5.3 14 5.3s10.3-2 14-5.3C29.9 47 25 45 19.6 45s-10.3 2-14 5.3zm52.5-29.5c-2.7 4.7-3.4 9.9-2.4 14.8 4.7-1.6 8.9-4.8 11.6-9.5s3.4-9.9 2.4-14.8c-4.7 1.6-8.9 4.8-11.6 9.5zm12.2 9.7c-4.7 2.7-7.9 6.9-9.5 11.6 4.9 1 10.1.3 14.8-2.4s7.9-6.9 9.5-11.6c-4.9-1-10.2-.3-14.8 2.4zM76 45c-5.4 0-10.3 2-14 5.3 3.7 3.3 8.6 5.3 14 5.3s10.3-2 14-5.3C86.3 47 81.4 45 76 45z"/></g></svg>