<svg xmlns="http://www.w3.org/2000/svg" width="22" height="22" viewBox="0 0 22 22"><defs><style>.cls-1{fill:#212121;fill-rule:evenodd}</style></defs><path id="Objectives_ic" data-name="Objectives ic" class="cls-1" d="M13148.9 4711a9.961 9.961 0 0 0 10-9.89 9.233 9.233 0 0 0-1.2-4.65 1.162 1.162 0 0 1-.2.02h-.2l-1.2-.1-1 .9a7.258 7.258 0 0 1-6.2 11.1 7.27 7.27 0 1 1 0-14.54 7.471 7.471 0 0 1 3.9 1.09l.8-.82-.1-1.44v-.35a10.071 10.071 0 0 0-4.6-1.1 9.89 9.89 0 1 0 0 19.78zm0-12.44h.2l1.9-1.82v-.04a4.641 4.641 0 0 0-2.1-.46 4.87 4.87 0 1 0 4.9 4.87 4.711 4.711 0 0 0-.4-2.06l-.1.04-1.8 1.83v.19a2.55 2.55 0 1 1-5.1 0 2.512 2.512 0 0 1 2.5-2.55zm10.3-6.27l.6-.58a.859.859 0 0 0 0-.97l-.4-.41a1.129 1.129 0 0 0-.5-.2.64.64 0 0 0-.5.2l-.7.67-.1-1.79c0-.13-.1-.21-.3-.21a.126.126 0 0 0-.1.07l-2.7 2.64a1.424 1.424 0 0 0-.3.91v.1l.1 1.65-.9.96-1.8 1.72v.04l-1.7 1.66-.7.74a.573.573 0 0 0-.2.36v.58a.509.509 0 0 0 .5.63h.1l.6-.03a.773.773 0 0 0 .4-.17l.7-.73 1.7-1.67v-.04l1.7-1.72 1.1-1.03 1.5.11h.1c0 .01 0 .01.1.01a1.088 1.088 0 0 0 .8-.34l2.6-2.64a.207.207 0 0 0-.1-.39z" transform="translate(-13139 -4689)"/></svg>