<svg id="Layer_1" xmlns="http://www.w3.org/2000/svg" viewBox="0 0 35.5 37"><style>.st0{fill:none}.st1{fill:#ffde5d}.st2{fill:#ff6427}.st3{fill:#e5b92e}.st4{fill:#b54624}</style><path class="st0" d="M2.1 2c.2 3.7 1.2 9.8 4.1 12.7.6.6 1.3 1.1 2 1.4C7.1 11.5 6.9 5.2 6.9 2H2.1z"/><path class="st1" d="M17.8 26.7c-.4 0-.9-.1-1.2-.2-.8 2.9-2.7 6-3.4 7.1h4.6v-6.9zm0-1.8V0H0s-.3 16.7 8.9 18.5c.7 1.8 1.6 3 2.8 3.3-.3.2-.4.5-.4.8 0 .6.5 1 1 1h.6v.2c0 .6.5 1 1 1h3.9zM6.2 14.8C3.3 11.8 2.3 5.7 2.1 2H7c0 3.2.1 9.5 1.3 14.1-.8-.3-1.5-.7-2.1-1.3z"/><path class="st2" d="M15.1 24.9c0 .7.6 1.3 1.4 1.6.1-.6.3-1.1.3-1.6h-1.7zm2.7 0h-.9c0 .5-.2 1.1-.3 1.6.4.1.8.2 1.2.2v-1.8zM8.6 35.3h9.1V34h-4.9s.1-.1.3-.4H8.6c-.9 0-1.7.8-1.7 1.7 0 .9.8 1.7 1.7 1.7h9.1v-1.7H8.6z"/><path class="st2" d="M17.7 34l.1-.4h-4.6c-.2.2-.3.4-.3.4h4.8z"/><path class="st3" d="M17.8 33.6h4.6c-.7-1.1-2.6-4.2-3.4-7.1-.4.1-.8.2-1.2.2v6.9zm.9-8.7h2.9c.6 0 1-.5 1-1v-.2h.6c.6 0 1-.5 1-1 0-.3-.2-.6-.4-.8 1.2-.3 2.1-1.6 2.8-3.3C35.8 16.7 35.5 0 35.5 0H17.7v24.9h1zM28.6 2h4.9c-.2 3.7-1.2 9.8-4.1 12.7-.6.6-1.3 1.1-2 1.4 1-4.6 1.2-10.9 1.2-14.1z"/><path class="st4" d="M20.4 24.9h-2.6v1.9c.4 0 .9-.1 1.2-.2.8-.4 1.4-1 1.4-1.7zm6.5 8.7h-9.2V37h9.1c.9 0 1.7-.8 1.7-1.7.1-.9-.7-1.7-1.6-1.7z"/></svg>