<svg id="OBJECTS" xmlns="http://www.w3.org/2000/svg" viewBox="0 0 79.9 130"><style>.st0{fill-rule:evenodd;clip-rule:evenodd;fill:#402412}.st1{fill:#9b5538}.st1,.st2,.st3,.st4,.st5,.st6,.st7,.st8{fill-rule:evenodd;clip-rule:evenodd}.st2{fill:#f5b67e}.st3{fill:#ed8322}.st4{fill:#f6c085}.st5{fill:#f8c997}.st6{fill:#3e3b3a}.st7{fill:#e5b17d}.st8{fill:#d6825b}</style><path class="st0" d="M76.6 68.4c0 10.2 7.2 18.4 2.8 29.5-6.7 17.3-21.9 13.5-33.1 13.5H31.7c-11.5 0-25.1 1.4-30-15.3-3.4-11.5 2.6-17.5 2.6-26.7l-.5-25.9C4.7 9.1 17 3.8 40.5 3.8 68.1.1 75.6 14.6 77.2 43.5l-.6 24.9z"/><path class="st1" d="M54.2 110.6c.7-.5 16-12.1 16-12.1 7 2.3 9 22.2 9.8 31.5H63.2l-9-19.4z"/><path class="st2" d="M39.8 85.3h-7.4V90c0 2.9-.5 2.3-3.2 3.8 0 0-2.6 2.1-3.4 2.4 3.3 10.6 5.7 24.2 12.1 33.8h3.8c6.4-9.6 8.8-23.2 12.1-33.8-.8-.3-3.4-2.4-3.4-2.4-2.7-1.5-3.2-.9-3.2-3.8v-4.7h-7.4z"/><path class="st1" d="M25.8 110.6c-.7-.5-16-12.1-16-12.1-7 2.3-9 22.2-9.8 31.5h16.8l9-19.4z"/><path class="st3" d="M35.2 104.3c-6.5-2.4-7.3-9.4-6-10.4-2.9 1.3-11.5 2.6-16.5 3.8H11l.1.3H9.9l-.2.1h-.2s-.1 0-.1.1c0 0-.1 0-.1.1 0 0-.1 0-.1.1 0 0-.1 0-.1.1 0 0-.1 0-.1.1.7 1.5 1.7 6.8 2.6 13.4-1 6.7-4.9 11.5-2.1 17.8h60.8c2.8-6.3-1.1-11.1-2.1-17.8 1-6.5 1.9-11.8 2.6-13.4 0 0-.1 0-.1-.1 0 0-.1 0-.1-.1 0 0-.1 0-.1-.1 0 0-.1 0-.1-.1l-.1-.1h-.2l-.2-.1h-3c-5-1.2-13.6-2.5-16.5-3.8 1.3 1 .5 8-6 10.4l-4.6 7.7-.2-.3-.2.3-4.2-8z"/><path class="st4" d="M18 48.8c1.2 5.5-1.2 10.1-5.4 11.1s-8.5-2-9.7-7.5C1.7 46.9 4 41.6 8.2 40.6c4.2-.9 8.6 2.7 9.8 8.2zm45.2 0c-1.2 5.5 1.2 10.1 5.4 11.1s8.5-2 9.7-7.5c1.2-5.5-1.2-10.8-5.3-11.8-4.2-.9-8.6 2.7-9.8 8.2z"/><path class="st5" d="M40.6 3.9c-2.3-.1-4.4-.2-4.4-.2V4h-.5c-8.8.4-17.2 5.1-22.5 12.4-5.3 7.3-6.1 16.4-5.6 25.2 1.1 22.5 13.7 47.7 33 47.9 19.3-.2 31.9-25.4 33-47.9.4-8.8-.3-17.9-5.6-25.2C62.7 9.1 54.3 4.4 45.5 4H45v-.3c0 .1-2.1.2-4.4.2z"/><path class="st0" d="M54.3 12.7c-.3 1.2 0 7.9 7.6 18s8.2 11 8.2 11 .4 17.1 1.3 15.1c1-2 2.4-16.8 2.4-16.8s1.8-7.7-.1-15.6c-1.9-7.9-4.4-10.9-7.8-12.3-3.4-1.3-11.6.6-11.6.6zM11.9 34.1c-1.3 1.5-5.6 1.7-5.6 1.7.2 1.4 2 22.3 3.8 20.8l1.8-22.5z"/><path class="st0" d="M70.1 41.7c.3-5.8 3.3-19 1.9-22.7C67.8 8.6 60.1 4.4 47.2 3.1c-4-.4-7.3 0-7.3 0 7.4 12.2 13.7 28.5 30.2 38.6z"/><path class="st0" d="M57.7 15.8C55 32.2 20.5 26.9 9.2 46.6-3.5 27.4 15.9-11.7 49.6 3.4l8.1 12.4z"/><path class="st6" d="M25.4 55.8c1.4 0 2.6-1.1 2.6-2.6 0-1.4-1.1-2.6-2.6-2.6-1.4 0-2.6 1.1-2.6 2.6 0 1.4 1.2 2.6 2.6 2.6zm31.9 0c1.4 0 2.6-1.1 2.6-2.6 0-1.4-1.1-2.6-2.6-2.6s-2.6 1.1-2.6 2.6c.1 1.4 1.2 2.6 2.6 2.6z"/><path class="st7" d="M36.5 66.3c-.1-.1-.1-.1 0 0 0-.2.1-.3.2-.5 1.1-2 3.1-7.9 4.1-14.4 1 .1-1 11.1-1.9 13.7.9-.2 2-.2 3.2-.2 3.1 0 5.5.6 5.5 1.4 0 .8-2.5 1.4-5.5 1.4-3.1-.2-5.5-.7-5.6-1.4z"/><path class="st0" d="M48.1 47c-1.5.6 1-3.5 8.5-3.6 8.7-.2 11.3 4 7.9 2.8-7.4-2.6-13.9-.2-16.4.8zM33 47c1.5.6-1-3.5-8.5-3.6-8.7-.2-11.3 4-7.9 2.8 7.4-2.6 14-.2 16.4.8z"/><path class="st8" d="M49.3 72.5c-1.6 6.9-15.7 6.9-17.3 0 4.7 4.9 12.6 4.9 17.3 0z"/></svg>