<svg width="558" height="558" viewBox="0 0 558 558" xmlns="http://www.w3.org/2000/svg"><title>iStock-872947326</title><g fill="none" fill-rule="evenodd"><path d="M500.928 528H54.072C28.074 528 7 506.903 7 480.88V206.12C7 180.097 28.074 159 54.072 159h446.856C526.926 159 548 180.097 548 206.12v274.76c0 26.023-21.074 47.12-47.072 47.12" fill="#E6B827"/><path d="M548 205.944a48.128 48.128 0 0 0-24.17-41.739L300.942 36.25a47.085 47.085 0 0 0-46.882 0L31.169 164.205A48.127 48.127 0 0 0 7 205.943C7 231.934 28.074 253 54.072 253h446.856C526.926 253 548 231.933 548 205.944" fill="#E0912F"/><path d="M480.905 70H73.095C50.952 70 33 87.946 33 110.082V354h488V110.082C521 87.946 503.048 70 480.905 70" fill="#FEF9EB"/><path d="M548 479.943a48.129 48.129 0 0 0-24.17-41.738L300.942 310.25a47.085 47.085 0 0 0-46.882 0L31.169 438.205A48.129 48.129 0 0 0 7 479.943C7 505.932 28.074 527 54.072 527h446.856C526.926 527 548 505.932 548 479.943" fill="#F7B826"/><path d="M196 343L30.12 438.328C15.203 446.888 6 462.796 6 480V206c0 .794.021 1.608.063 2.402v.04a44.18 44.18 0 0 0 .479 4.678l.022.125a48 48 0 0 0 23.557 34.427L196 343" fill="#F9CA5E"/><path d="M547 206v274c0-17.204-9.202-33.113-24.118-41.672L357 343l165.861-95.328c10.182-5.866 17.733-15.136 21.447-25.909.188-.585.397-1.19.585-1.795.229-.73.438-1.462.627-2.213.186-.752.375-1.503.52-2.255a20.47 20.47 0 0 0 .272-1.565c.083-.46.166-.92.228-1.4.168-1.085.271-2.192.334-3.32.042-.542.063-1.064.084-1.607.02-.271.02-.522.02-.793.022-.272.022-.543.022-.815" fill="#F8C54E"/><path d="M301.535 175.911c-.671-5.241-2.986-9.375-6.938-12.399-3.957-3.024-8.617-4.536-13.976-4.536-4.56 0-8.717 1.21-12.469 3.629-3.754 2.42-7.007 5.478-9.754 9.172a43.045 43.045 0 0 0-6.334 12.2c-1.477 4.434-2.213 8.737-2.213 12.902 0 2.823.434 5.479 1.308 7.964.87 2.489 2.142 4.672 3.82 6.552 1.675 1.884 3.687 3.362 6.033 4.435 2.345 1.078 4.928 1.614 7.743 1.614 5.631 0 10.457-1.411 14.48-4.234 4.021-2.823 7.17-6.72 9.452-11.693a473.465 473.465 0 0 0 4.323-12.3 2456.32 2456.32 0 0 1 4.525-13.306zM350 173.09c0 9.678-1.945 18.617-5.831 26.814-2.28 5.11-5.465 9.914-9.551 14.415-4.094 4.505-8.82 8.302-14.18 11.392a47.744 47.744 0 0 1-9.25 4.234c-3.218 1.077-6.435 1.613-9.653 1.613-2.95 0-5.6-.738-7.945-2.218-2.346-1.478-3.72-3.761-4.122-6.855-.134-.807-.134-1.679 0-2.621-2.95 4.303-6.536 7.327-10.759 9.072-4.223 1.749-8.748 2.622-13.574 2.622-4.694 0-8.95-.873-12.77-2.622-3.82-1.745-7.073-4.132-9.753-7.157-2.684-3.024-4.76-6.518-6.235-10.484-1.477-3.962-2.213-8.231-2.213-12.802 0-6.316 1.072-12.667 3.22-19.053 2.141-6.382 5.228-12.128 9.25-17.238a49.727 49.727 0 0 1 14.48-12.499c5.63-3.226 11.865-4.839 18.7-4.839 5.363 0 10.49 1.21 15.386 3.63 4.892 2.419 8.546 6.183 10.96 11.289l3.62-11.29h11.665l-15.084 48.186a135.667 135.667 0 0 0-2.212 7.863 33.184 33.184 0 0 0-1.005 8.064c0 1.883.468 3.463 1.408 4.737.936 1.28 2.344 1.916 4.222 1.916 2.144 0 4.156-.404 6.034-1.21a25.298 25.298 0 0 0 5.228-3.024 36.416 36.416 0 0 0 7.744-7.661 42.651 42.651 0 0 0 5.428-9.678 55.148 55.148 0 0 0 3.119-10.786c.668-3.695 1.004-7.29 1.004-10.786 0-8.467-1.477-15.928-4.424-22.38-2.95-6.45-7.006-11.86-12.166-16.229-5.164-4.366-11.196-7.661-18.1-9.88-6.907-2.216-14.312-3.326-22.223-3.326-8.848 0-17.162 1.582-24.936 4.739-7.776 3.159-14.547 7.494-20.31 13.003-5.767 5.513-10.327 12.097-13.676 19.759-3.353 7.661-5.028 15.996-5.028 25 0 9.274 1.575 17.776 4.726 25.503 3.149 7.731 7.542 14.384 13.172 19.96 5.632 5.58 12.334 9.88 20.11 12.904 7.775 3.024 16.29 4.536 25.54 4.536 9.785 0 19.006-1.882 27.652-5.646 8.648-3.761 16.19-9.274 22.625-16.532h13.876c-7.24 11.291-16.46 19.859-27.651 25.706-11.197 5.847-23.363 8.77-36.501 8.77-10.994 0-21.15-1.815-30.467-5.444-9.32-3.629-17.33-8.77-24.032-15.423-6.706-6.653-11.966-14.582-15.787-23.79-3.821-9.205-5.731-19.386-5.731-30.545 0-11.019 1.94-21.134 5.831-30.343 3.888-9.204 9.283-17.101 16.19-23.69 6.903-6.582 15.012-11.692 24.333-15.321 9.316-3.63 19.406-5.444 30.267-5.444 9.114 0 17.862 1.345 26.243 4.033 8.377 2.69 15.752 6.62 22.121 11.794 6.368 5.175 11.463 11.56 15.286 19.152 3.82 7.596 5.729 16.3 5.729 26.11z" fill="#4C4B47"/></g></svg>