<svg id="OBJECTS" xmlns="http://www.w3.org/2000/svg" viewBox="0 0 80 130"><style>.st0{fill:#9f2025}.st0,.st1,.st2,.st3{fill-rule:evenodd;clip-rule:evenodd}.st1{fill:#f5b67e}.st2{fill:#841b21}.st3{fill:#f6c085}.st10{fill-rule:evenodd;clip-rule:evenodd}.st4{fill:#f8c997}.st4,.st5,.st6,.st7,.st8,.st9{fill-rule:evenodd;clip-rule:evenodd}.st5{fill:#d6825b}.st6{fill:#59341a}.st7{fill:#402412}.st8{fill:#5d331a}.st9{fill:#3e3b3a}.st10{fill:#e5b17d}</style><path class="st0" d="M25.9 110.5c-.7-.5-16.6-8-16.6-8-7 2.3-8.6 18.2-9.3 27.5h16.9l9-19.5zm28.2 0c.7-.5 16.6-8 16.6-8 7.1 2.3 8.6 18.2 9.4 27.5h-17l-9-19.5z"/><path class="st1" d="M40 85.1h-7.4v4.7c0 2.9-.5 2.3-3.2 3.8 0 0-2.6 2.2-3.4 2.4 3.3 10.7 5.7 24.4 12.2 34h3.7c6.5-9.6 8.9-23.3 12.2-34-.8-.3-3.4-2.4-3.4-2.4-2.7-1.5-3.2-.9-3.2-3.8v-4.7H40z"/><path class="st2" d="M35.4 104.1c-6.6-2.4-7.4-9.4-6-10.5-4 1.8-18.4 7.5-20.1 8.9 1.3 2.9 3.3 14.7 5 27.5h51.4c1.7-12.7 3.7-24.6 5-27.5-1.6-1.4-16.1-7.1-20.1-8.9 1.3 1 .5 8.1-6 10.5l-4.6 7.7-4.6-7.7z"/><path class="st3" d="M59.9 51c-1.1 5.5 2.5 10.2 8 11.2s10.8-2 11.9-7.6c1.1-5.6-2.5-10.9-8-11.9-5.5-.9-10.8 2.8-11.9 8.3zm-38.3 0c1.1 5.5-2.5 10.2-8 11.2s-10.8-2-11.9-7.6C.6 49 4.2 43.7 9.7 42.7c5.5-.9 10.8 2.8 11.9 8.3z"/><path class="st4" d="M68.2 15.8C62.8 8.5 54.5 3.7 45.6 3.4h-.5v-.3l-4.4.2c-2.2-.2-4.3-.3-4.3-.3v.3h-.5c-8.9.4-17.3 5.2-22.6 12.5-5.4 7.3-6.1 16.5-5.7 25.3 1.1 22.6 3.1 48 33.2 48.2 30.2.3 31.9-25.8 33-48.2.5-8.8-.2-18-5.6-25.3z"/><path class="st5" d="M49.6 70.4c-1.6 8.8-15.8 8.8-17.4 0 4.2 1 12.2 1 17.4 0z"/><path class="st6" d="M9.3 48c.4-8.3.5-23.4 7.8-23.4 5.4 0 6.9 1.2 23.3 1.2 14.5 0 18.8-1.7 24.2-1.7 5.8 0 7.3 7.9 7.4 18.8 0 2.2.2 4.5.3 6.7.1 1.3.2 2.6.2 3.9 0 .5.2 2 .9 1.8.8-.2.9-3 .9-3.7.6-4.3.7-8.8.7-13.2 0-8.1 2.3-23.6-12.2-33.3-8.9-6-27.3-6.6-37.6-3.2-7.1 2.4-14 8.5-16.5 15.6C5.9 25.3 6 31.5 6.9 47c.1 1.7.3 3.4.5 5 .2 1.1.3 2.2.6 3.3.6 2.4 1.4.7 1.4-.8-.1-2-.2-4.3-.1-6.5z"/><path class="st7" d="M26.9 70.8c-1.3.2-2.5.4-3.8.4-4.5 0-8.3-1.7-10.8-4.7-.9-1-1.5-3-1.7-4.2-.1-1.1-.8-4-.9-5-.5-5.8-1.7-1.7-1.8 2.7 0 1 .3 2.1.5 3.2-.2 1.9-.7 6.9-.5 8.5C9.2 88.3 30.5 92.6 41 94.2c5.1-.8 19.3-4.2 22.6-6.5 8.5-5.9 11.2-12.5 10-24.5.2-1.1.5-2.2.5-3.2-.1-4.4-1.3-8.5-1.8-2.8-.1 1-.7 3.9-.9 5-.2 1.2-.8 3.2-1.7 4.2-2.5 3-6.3 4.7-10.8 4.7-1.3 0-2.5-.2-3.8-.4.6 1 .9 2.1.9 3.2 0 4.2-4.4 7.8-10.5 9-.4-.1-.8-.3-1.2-.6-1.5-1-2.5-2.3-3.1-3.1-.5.8-1.6 2.1-3.1 3.1-.5.3-.9.5-1.3.6C30.6 81.8 26 78.2 26 74c0-1.1.3-2.2.9-3.2z"/><path class="st8" d="M41 63.8C37.6 61 29.4 68 27.6 68.7c-5.2 2.2-8.4-2.2-8.4-2.2s.7 3.2 3.2 5.9c4.4 5 13.8 3.7 18.6-.6 4.8 4.3 14.2 5.6 18.6.6 2.5-2.8 3.2-5.9 3.2-5.9s-3.2 4.4-8.4 2.2c-1.8-.7-10-7.7-13.4-4.9z"/><path class="st9" d="M23.6 58.4c1.4 0 2.6-1.2 2.6-2.6s-1.2-2.6-2.6-2.6c-1.4 0-2.6 1.2-2.6 2.6s1.2 2.6 2.6 2.6zm34.2 0c1.4 0 2.6-1.2 2.6-2.6s-1.2-2.6-2.6-2.6c-1.4 0-2.6 1.2-2.6 2.6s1.2 2.6 2.6 2.6z"/><path class="st6" d="M15.4 48c-.9-1.4 3.6-2.2 8.1-2.2 7.6-.1 11.7 3.6 8.1 3.5-2.7-.1-15.9-.9-16.2-1.3zm50.6-.2c.8-1.4-3.6-2.1-8.1-2.1-7.6 0-11.7 3.7-8 3.6 2.7-.2 15.9-1.1 16.1-1.5z"/><path class="st10" d="M37.4 62.2s0-.1 0 0c0-.2.1-.3.2-.4.9-1.7 2.6-6.6 3.4-12 .9.1-.9 9.2-1.6 11.4.7-.2 1.6-.2 2.6-.2 2.5 0 4.6.5 4.6 1.1 0 .6-2.1 1.1-4.6 1.1-2.4 0-4.5-.4-4.6-1z"/></svg>