<svg id="OBJECTS" xmlns="http://www.w3.org/2000/svg" viewBox="0 0 110.8 180"><style>.st0{fill:#b24d26}.st0,.st1,.st2,.st3{fill-rule:evenodd;clip-rule:evenodd}.st1{fill:#f5b67e}.st2{fill:#d8465e}.st3{fill:#e8556b}.st10{fill-rule:evenodd;clip-rule:evenodd}.st4{fill:#f8c997}.st4,.st5,.st6,.st7,.st8,.st9{fill-rule:evenodd;clip-rule:evenodd}.st5{fill:#cc5827}.st6{fill:#3e3b3a}.st7{fill:#e5b17d}.st8{fill:#913e22}.st9{fill:#d6825b}.st10{fill:#fff}</style><path class="st0" d="M96 112c-.6.3-8.5 9.5-8.5 9.5s-10.5-6.9-32.3-6.7c-21.8.2-31 6.5-31 6.5s-6-4.5-8.4-12.9c-2.4-8.4-4.5-33.1-3.3-33.4 1.2-.3 89.9-1.1 89.9-1.1L96 112z"/><path class="st1" d="M75 153.1c1-.7 22.2-16.8 22.2-16.8 9.7 3.2 12.5 30.8 13.5 43.7H87.5L75 153.1z"/><path class="st2" d="M85.1 145.4l12.1-9.2c8.6 2.8 11.8 24.5 13.1 38.5H85.1v-29.3z"/><path class="st1" d="M55.1 118.1H44.8v6.5c0 4-.7 3.2-4.4 5.3 0 0-3.6 3-4.7 3.3 4.6 14.7 7.9 33.6 16.8 46.8h5.2c8.9-13.2 12.2-32.1 16.8-46.8-1.1-.4-4.7-3.3-4.7-3.3-3.8-2.1-4.4-1.3-4.4-5.3v-6.5H55.1zm-19.4 35c-1-.7-22.2-16.8-22.2-16.8C3.8 139.5 1 167.1 0 180h23.2l12.5-26.9z"/><path class="st2" d="M25.7 145.5l-12.1-9.2C5 139.1 1.8 160.9.4 174.8h25.2v-29.3z"/><path class="st3" d="M48.8 144.3c-9-3.3-10.2-13-8.3-14.4-4 1.8-16 3.7-22.9 5.3H17l-.2.1h-.9l-.3.1h-1.1l-.2.1h-.1l-.2.1-.1.1h-.2l-.2.1h-.1c-.1 0-.1.1-.2.1s-.1.1-.2.1-.1.1-.1.1l-.1.1-.1.1c1 2.1 2.3 9.5 3.7 18.5-1.4 9.2-6.8 15.9-2.9 24.6h84.2c3.9-8.8-1.5-15.4-2.9-24.6 1.4-9.1 2.7-16.4 3.7-18.5l-.1-.1-.1-.1-.1-.1c-.1 0-.1-.1-.2-.1l-.2-.1h-.1l-.2-.1h-.2l-.1-.1-.2-.1h-.1l-.2-.1h-1.1l-.3-.1h-.9l-.2-.1h-.6c-6.9-1.6-18.9-3.4-22.9-5.3 1.8 1.4.7 11.1-8.3 14.4L58.2 157 55 168.5l-6.2-24.2z"/><path class="st4" d="M56.2 5.3h-.1c-3.1-.1-6-.2-6-.2v.5h-.6c-12.2.5-23.8 7.1-31.2 17.1-7.4 10.1-8.4 22.7-7.8 34.9 1.5 31.2 19 66.2 45.8 66.4 26.8-.3 44.3-35.3 45.8-66.4.6-12.1-.4-24.8-7.8-34.9-7.5-10-19-16.6-31.3-17.1h-.6v-.5l-6 .2h-.2z"/><path class="st5" d="M77.1 17.4c-.4 1.7 0 10.9 10.5 25C98.2 56.4 99 57.7 99 57.7s-1.1 21.6-1 20.5c.1-1.1 5.8-21.7 5.8-21.7s2.7-11.8 0-22.8-6.1-15.2-10.8-17c-4.5-1.9-15.9.7-15.9.7zM12.6 49.3c-1.8 2.1-6.1 6.4-6.1 6.4l4.8 21.7 1.3-28.1z"/><path class="st5" d="M98.6 65.7c.5-8 5.2-34 3.2-39-9.3-23-47.9-36.2-57-12.5-2.7 7.1 20.2 0 21.8 9.5 2.1 12.3 17.5 33.4 32 42z"/><path class="st5" d="M79.2 20.1C89.5 29.8 57.5 51.4 15.4 61-6.1 40.3 22-16.4 68.8 4.6l10.4 15.5z"/><path class="st5" d="M7.4 41.8c-2.7 18.8-7 77.3 18.2 81.8-9.5-13.1-10.1-42.4-10.3-65.3-.2-15.8-1-25.2-1.2-37.8-3.5 4.6-5.9 15.8-6.7 21.3zm95.9 0c2.7 18.8 7 77.3-18.2 81.8 15.9-22.3 11-72.3 11.5-103.1 3.6 4.6 6 15.8 6.7 21.3z"/><circle class="st6" cx="37.3" cy="74.5" r="3.5"/><circle class="st6" cx="75.2" cy="74.5" r="3.5"/><path class="st7" d="M49.5 92.6v-.1c0-.2.1-.4.3-.5 1.5-2.8 4.3-11 5.6-20 1.4.1-1.4 15.3-2.7 18.9 1.2-.2 2.8-.3 4.4-.3 4.2 0 7.7.8 7.7 1.9 0 1-3.4 1.9-7.7 1.9-4.1 0-7.4-.8-7.6-1.8z"/><path class="st8" d="M64.6 65.9c-2.1.9 1.4-4.8 11.7-5 12-.3 15.7 5.5 11 3.9-10.3-3.6-19.4-.3-22.7 1.1zm-16.7 0c2.1.9-1.4-4.8-11.7-5-12-.3-15.7 5.5-11 3.9 10.2-3.6 19.3-.3 22.7 1.1z"/><path class="st9" d="M44.4 100.8c4.5 3 19.6 3.1 24.1 0 3.2 12.6-27.3 12.6-24.1 0z"/><path class="st10" d="M39.1 129.5l3.4-1 6.3 15.9s-6 5.5-11.1 5.9c-5.1.4-5.9-10.3-3.7-15.2 2.1-4.9 5.1-5.6 5.1-5.6zm32.5 0l-3.4-1-6.2 15.8s6 5.5 11.1 5.9c5.1.4 5.9-10.3 3.7-15.2-2.1-4.8-5.2-5.5-5.2-5.5z"/><path class="st5" d="M54.6 31.6c1.7.4 17 1.8 17 1.8s-3.8 7.9-17.9 16.7c-14.1 8.7-30 11.9-29.5 11.5.4-.4 13.3-5.3 19.9-11.1 6.7-5.8 9.4-10.9 9.4-10.9l1.1-8z"/><path class="st5" d="M75.7 19.2c-1.6-.5-15.5-7.2-15.5-7.2s-.8 8.8 6.8 23.5 19.5 25.7 19.4 25.1c-.1-.6-8.7-11.4-11.4-19.8-2.7-8.4-2.4-14.2-2.4-14.2l3.1-7.4z"/></svg>