<svg id="Layer_1" xmlns="http://www.w3.org/2000/svg" viewBox="0 0 47.9 60"><style>.st0{fill:#cccaca}</style><path class="st0" d="M42.7 7.8c-3.2-.1-6.4 1.1-8.8 3.5-2.4 2.4-3.6 5.6-3.5 8.8 3.2.1 6.4-1.1 8.8-3.5 2.4-2.4 3.5-5.6 3.5-8.8zM31.2 26.7c2.1 2.2 5.1 3.6 8.4 3.6 3.3 0 6.3-1.4 8.4-3.6-2.1-2.2-5.1-3.6-8.4-3.6-3.3 0-6.3 1.4-8.4 3.6zm-15.6 8.4c.1-3.6-1.2-7.2-3.9-9.9s-6.3-4-9.9-3.9c-.1 3.6 1.2 7.2 3.9 9.9 2.8 2.7 6.4 4 9.9 3.9zm10.2-24.9c0-4-1.7-7.7-4.4-10.2C18.7 2.6 17 6.2 17 10.2c0 4 1.7 7.7 4.4 10.2 2.7-2.5 4.4-6.1 4.4-10.2z"/><path class="st0" d="M22.3 47.4V29.6l1.9-1.9h5.1c.5 0 1-.4 1-1 0-.5-.4-1-1-1h-3.1l3.8-3.8c.4-.4.4-1 0-1.4-.4-.4-1-.4-1.4 0l-6.3 6.3V22c0-.5-.4-1-1-1-.5 0-1 .4-1 1v16.3l-2.6-2.6c-.4-.4-1-.4-1.4 0-.4.4-.4 1 0 1.4l4 4v6.3c-2.5.2-5 1.1-7.1 2.6L0 60h42.6l-13.3-9.9c-2-1.6-4.5-2.5-7-2.7z"/></svg>