<svg id="Layer_1" xmlns="http://www.w3.org/2000/svg" viewBox="0 0 47.9 60"><style>.st0{fill:#997554}.st1{fill:#738f57}.st2{fill:#998675}</style><path class="st0" d="M20.4 41.1v11.3c0 .5.4 1 1 1 .5 0 1-.4 1-1V29.6l1.9-1.9h5.1c.5 0 1-.4 1-1 0-.5-.4-1-1-1h-3.1l3.8-3.8c.4-.4.4-1 0-1.4-.4-.4-1-.4-1.4 0l-6.3 6.3V22c0-.5-.4-1-1-1-.5 0-1 .4-1 1v16.3l-2.6-2.6c-.4-.4-1-.4-1.4 0-.4.4-.4 1 0 1.4l4 4z"/><path class="st1" d="M33.9 11.3c-2.4 2.4-3.6 5.6-3.5 8.8 3.2.1 6.4-1.1 8.8-3.5 2.4-2.4 3.6-5.6 3.5-8.8-3.2-.1-6.4 1.1-8.8 3.5zm5.7 11.8c-3.3 0-6.3 1.4-8.4 3.6 2.1 2.2 5.1 3.6 8.4 3.6 3.3 0 6.3-1.4 8.4-3.6-2.2-2.2-5.1-3.6-8.4-3.6zm-27.9 2.1c-2.7-2.7-6.3-4-9.9-3.9-.1 3.6 1.2 7.2 3.9 9.9s6.3 4 9.9 3.9c.1-3.6-1.2-7.2-3.9-9.9zm5.2-15c0 4 1.7 7.7 4.4 10.2 2.7-2.6 4.4-6.2 4.4-10.2 0-4-1.7-7.7-4.4-10.2-2.7 2.6-4.4 6.2-4.4 10.2z"/><path class="st2" d="M0 60l13.3-9.9c4.8-3.6 11.3-3.6 16.1 0L42.6 60H0z"/></svg>