<svg id="OBJECTS" xmlns="http://www.w3.org/2000/svg" viewBox="0 0 80.4 130"><style>.st0{fill-rule:evenodd;clip-rule:evenodd;fill:#443d47}.st1{fill:#f5b67e}.st1,.st2,.st3,.st4,.st5,.st6,.st7,.st8{fill-rule:evenodd;clip-rule:evenodd}.st2{fill:#4d4351}.st3{fill:#f6c085}.st4{fill:#f8c997}.st5{fill:#a95c40}.st6{fill:#3e3b3a}.st7{fill:#d6825b}.st8{fill:#e5b17d}</style><path class="st0" d="M26.1 110.4c-.7-.5-16.7-8-16.7-8C2.3 104.7.7 120.6 0 130h17l9.1-19.6zm28.2 0c.7-.5 16.7-8 16.7-8 7.1 2.3 8.7 18.3 9.4 27.7h-17l-9.1-19.7z"/><path class="st1" d="M40.2 84.9h-7.5v4.7c0 2.9-.5 2.3-3.2 3.9 0 0-2.6 2.2-3.5 2.4 3.3 10.7 5.7 24.5 12.2 34.1H42c6.5-9.7 8.9-23.4 12.2-34.1-.8-.3-3.4-2.4-3.4-2.4-2.7-1.5-3.2-.9-3.2-3.9v-4.7h-7.4z"/><path class="st2" d="M40.2 110.6c-12.4-1-10.6-17-10.7-17.1-4 1.8-18.5 7.5-20.2 8.9 1.3 2.9 3.3 14.8 5.1 27.6H66c1.7-12.8 3.7-24.7 5.1-27.6-1.6-1.4-16.2-7.1-20.2-8.9-.1.1 1.6 16.1-10.7 17.1z"/><path class="st3" d="M60.2 51.6c-1.1 6.1 2.5 11.2 8.1 12.2 5.5 1.1 10.9-2.2 11.9-8.3 1.1-6.1-2.5-11.9-8.1-13-5.5-1.1-10.8 3-11.9 9.1zm-38.5 0c1.1 6.1-2.5 11.2-8.1 12.2-5.5 1.1-10.9-2.2-11.9-8.3-1.1-6.1 2.5-11.9 8.1-13 5.5-1.1 10.8 3 11.9 9.1z"/><path class="st4" d="M68.5 15.3C63.1 8 54.7 3.2 45.8 2.8h-.5v-.3l-4.4.2-4.4-.2v.3H36c-8.9.4-17.3 5.2-22.7 12.5-5.4 7.3-6.1 16.6-5.7 25.4.4 6.7 1.5 17.5 1.9 24.2 8.6 32.1 54.9 32.6 62.9 0 .3-6.7 1.5-17.5 1.8-24.2.4-8.8-.3-18-5.7-25.4z"/><path class="st5" d="M13.6 27.6c-.4.9 2-8.3 7.4-8.5 5.6-.2 40.6 2 42.4-.4C69.3 26.2 73.7 56 74 55.9c.8-.2.9-3.1 1-3.7.6-4.4.7-8.9.7-13.3 0-8.2 2.4-23.9-12.4-33.6-9.1-6-27.8-6.6-38.3-3.2-7.3 2.4-14.2 8.6-16.8 15.8C5.4 25.8 5.4 32 6.4 47.7c.1 1.7.3 3.4.5 5.1.1 1 .2 2.2.5 3.3C8.9 62 9 34.7 13.6 27.6z"/><path class="st5" d="M68.8 12.6c-1.1 11.4-16 20.3-27 20.3l3.2-3C32.7 33.6 25.8 31 25.8 31c.4.1 5.1-2.1 5.1-2.1-7 .2-14.1.3-19.6-4.8l7.9-14 49.6 2.5z"/><path class="st6" d="M24 56.6c1.4 0 2.6-1.2 2.6-2.6 0-1.4-1.2-2.6-2.6-2.6s-2.6 1.2-2.6 2.6c0 1.4 1.2 2.6 2.6 2.6zm33.8 0c1.4 0 2.6-1.2 2.6-2.6 0-1.4-1.2-2.6-2.6-2.6-1.4 0-2.6 1.2-2.6 2.6 0 1.4 1.2 2.6 2.6 2.6z"/><path class="st5" d="M15.1 46.7c-.9-1.4 3.5-2.4 8-2.7 7.6-.5 12 2.9 8.3 3-2.7.1-16 .1-16.3-.3zm50.1.2c1-1.3-3.4-2.5-7.9-3-7.6-.8-12.1 2.4-8.4 2.7 2.7.2 16 .7 16.3.3z"/><path class="st7" d="M49.5 72.3c-1.6 8.9-15.9 8.9-17.5 0 4.3 1 12.3 1 17.5 0z"/><path class="st8" d="M35.2 67.1c-.1 0-.1-.1 0 0 0-.2.1-.3.2-.5 1.1-2 3.2-8 4.1-14.6 1 .1-1 11.2-1.9 13.8.9-.2 2-.3 3.2-.3 3.1 0 5.6.6 5.6 1.4 0 .8-2.5 1.4-5.6 1.4-3 .1-5.5-.5-5.6-1.2z"/></svg>