<svg id="Layer_1" xmlns="http://www.w3.org/2000/svg" viewBox="0 0 51 70"><style>.st0{fill:#2e6b11}.st1{fill:#2a5b10}.st2{fill:#264f0e}.st3{fill-rule:evenodd;clip-rule:evenodd;fill:#f4f4f4}</style><path d="M11 64.4H9.6v-3.8c0-.6-.5-1-1-1H7.1c-.6 0-1 .4-1 1V69c0 .6.5 1.1 1 1.1h1.4c.6 0 1-.5 1-1.1v-3.6H11c.3 0 .4-.2.4-.5.1-.4-.1-.5-.4-.5zm29 0h1.5v-3.8c0-.6.5-1 1-1h1.4c.6 0 1 .4 1 1V69c0 .6-.5 1.1-1 1.1h-1.4c-.6 0-1-.5-1-1.1v-3.6H40c-.3 0-.5-.2-.5-.5.1-.4.3-.5.5-.5z"/><path class="st0" d="M25.5 0H1C.4 0 0 .5 0 1v3.5c0 .6.4 1 1 1h24.5V0z"/><path class="st1" d="M51 4.5V1c0-.6-.4-1-1-1H25.5v5.5h24.6c.5 0 .9-.4.9-1zM25.5 7.6V5.5H1.9V7c5.1 0 14.2 0 23.6.6z"/><path class="st0" d="M2 7l2 49.2c0 1.9 1.4 3.5 3 3.5h3.3v6.6c0 1.3 1.6 2.3 3.5 2.3h11.8V7.5C16.1 6.9 7 6.9 2 7z"/><path class="st2" d="M48.9 10.9l.2-5.4H25.5v2.1c8.3.5 16.7 1.5 23.4 3.3z"/><path class="st1" d="M25.5 7.5v61.1h11.8c1.9 0 3.5-1 3.5-2.3v-6.6h3.3c1.7 0 3-1.6 3-3.5l1.8-45.3C42.2 9 33.8 8 25.5 7.5z"/><path id="XMLID_125_" class="st3" d="M18.3 38.8c-.8 0-1.4-.2-2-.5-.6-.3-1-.7-1.1-1.1-.1-.2-.1-.4-.2-.5 0-.2 0-.4-.1-.6 0-.4 0-.7.1-1 .1-.3.2-.6.3-.8.1-.2.2-.4.3-.5l.2-.2-1.6-.9 5.2-.2L22 37l-1.5-.9-.2.2c-.1.1-.2.2-.3.4-.1.1-.2.3-.4.4-.1.1-.2.3-.2.3-.1.2-.2.3-.2.5s.1.4.3.5c.2.1.3.2.4.3l-1.6.1zm14.9.7c.5 0 1-.1 1.4-.3.4-.2.8-.4 1.1-.7l.7-.7c.1-.2.2-.3.3-.4-.1.3-.2.6-.4.9-.1.3-.3.6-.6 1-.1.3-.2.5-.3.6-.1.3-.2.5-.4.8-.3.7-.6 1.2-.8 1.6-.2.4-.4.8-.7 1.2-.2.4-.5.7-.8.9-.3.2-.5.3-.8.3h-2.6v1.8l-2.7-4.4 2.7-4.3v1.7h3.9zM23.1 24.3H26c1.4 0 2.5 0 3.2.1.7.1 1.1.3 1.3.6 0 .1.1.2.2.4s.3.5.5.8c.2.3.3.5.4.7.1.2.2.3.2.4l1.6-.9-2.2 4.8-5.4-.4 1.5-.9-1.9-3.2c-.3-.5-.6-.9-1-1.2-.4-.3-.7-.5-1.1-.7-.4-.1-.7-.2-.9-.3-.2 0-.4-.1-.5-.1.3 0 .7 0 1.2-.1zm-6.9 14.5c-.6-.3-.9-.6-1.1-1 .1.1.2.3.3.5.1.2.3.5.5.9s.4.8.7 1.2c.2.4.4.7.5.9.1.1.1.2.1.2.2.4.4.7.5 1 .2.3.3.6.5.9.2.3.4.6.6.8.2.2.4.3.6.3l5.8-.1-.1-5.6c-3.4 0-5.8.1-7.1.1-.6.3-1.3.1-1.8-.1zm16.4-.2c-.3-.4-.8-1.3-1.7-2.6-.9-1.3-1.4-2.1-1.5-2.4l4.5-2.8c0 .1.2.3.3.6.2.3.4.7.6 1.1.5.9.9 1.6 1.1 2.1.2.4.4.8.5.9.1.1.1.3.1.5 0 .3-.1.6-.2 1 0 .1-.1.2-.3.4l-.7.7c-.3.3-.6.5-1.1.7-.4.2-.9.3-1.4.3.2.1.1-.1-.2-.5zM22 32.5L17.5 30c0-.1.2-.4.6-1 .1-.1.3-.4.6-.9s.6-.9.8-1.3c.2-.4.4-.7.6-1 .1-.3.2-.4.3-.5.1-.2.3-.3.5-.4.2-.1.5-.2.9-.3h.6c.3 0 .6.1.9.3.4.1.7.4 1.1.7.4.3.7.7 1 1.2l.1.1c.1.1.1.2.2.3L22 32.5z"/></svg>