<svg id="OBJECTS" xmlns="http://www.w3.org/2000/svg" viewBox="0 0 69.9 70"><style>.st0{fill:#fbb03b}.st1{fill:#c12b48}.st2{fill:#e1435a}.st3{opacity:.3;fill:#8d294f}.st4{fill:#2c2324}.st5{fill:#faf4e4}.st6{fill:#7b8793}</style><path class="st0" d="M31.1 9.2h8.5v6.6h-8.5z"/><path class="st1" d="M63.9 10h-58L2.4 3.1h65.2z"/><path class="st2" d="M0 0h69.9v3.1H0z"/><path class="st3" d="M37.8 0c.6 1.1.9 2.4.9 3.6 0 2.1-.9 4.2-2.3 5.7-1.4 1.4-3.3 2.2-5.2 2.3v4.1h8.5V10h24.4l3.7-6.9h2.3V0H37.8z"/><path class="st2" d="M61.7 64.4V40.3c0-14.6-11.8-26.4-26.4-26.4-14.6 0-26.4 11.8-26.4 26.4v24.1h-3V70h58.8v-5.6h-3z"/><path class="st3" d="M61.7 64.4V40.3c0-13.6-10.4-24.9-23.7-26.2 5.8 3.7 8.3 11.3 7.4 18.3C44.3 41.3 40.8 49 35 55.9 29.2 62.7 21.7 67.2 13.6 70h51.1v-5.6h-3z"/><circle class="st4" cx="34.7" cy="42" r="18.2"/><circle class="st5" cx="34.7" cy="42" r="17.4"/><path class="st0" d="M28.2 42c0-3.6 2.9-6.5 6.5-6.5s6.5 2.9 6.5 6.5-2.9 6.5-6.5 6.5c-3.6-.1-6.5-3-6.5-6.5z"/><path class="st6" d="M31.8 42c0-1.6 1.3-2.9 2.9-2.9 1.6 0 2.9 1.3 2.9 2.9s-1.3 2.9-2.9 2.9c-1.6 0-2.9-1.3-2.9-2.9z"/><path transform="rotate(-48.402 39.064 46.412)" class="st4" d="M38.8 41.2h.6v10.5h-.6z"/><path class="st6" d="M34.7 25h.6v3.9h-.6zm0 30.2h.6v3.9h-.6zM17.6 42.1h3.9v.6h-3.9zm30.1 0h3.9v.6h-3.9z"/></svg>