<?xml version="1.0" encoding="utf-8"?>
<!-- Generator: Adobe Illustrator 22.1.0, SVG Export Plug-In . SVG Version: 6.00 Build 0)  -->
<svg version="1.1" id="OBJECTS" xmlns="http://www.w3.org/2000/svg" xmlns:xlink="http://www.w3.org/1999/xlink" x="0px" y="0px"
	 viewBox="0 0 99 84" style="enable-background:new 0 0 99 84;" xml:space="preserve">
<style type="text/css">
	.st0{fill:#CBCBCB;}
</style>
<g>
	<g id="XMLID_1575_">
		<g id="XMLID_1524_">
			<path id="XMLID_1527_" class="st0" d="M46.9,65.3c0.2-0.6,0.4-1.1,0.7-1.7c0.2-0.6,0.5-1.1,0.7-1.7c0.2-0.5,0.5-1.1,0.8-1.6
				c0.2-0.4,0.4-0.8,0.7-1.1c-4-6.3-8.4-8.5-8.4-8.5c3.2,5.6,4.7,10.2,5.5,14.7C46.8,65.4,46.9,65.3,46.9,65.3z"/>
			<path id="XMLID_1526_" class="st0" d="M50.4,60.2c0,0-0.3,0.6-0.5,0.9c-0.5,1-1,2.1-1.4,3.2c-0.2,0.6-0.5,1.1-0.7,1.7
				c-0.1,0.4-0.3,0.8-0.4,1.1c0.7,5,0.2,9.3-0.9,12.9c0.1-0.1,0.3-0.2,0.4-0.3c0.5-0.5,0.9-1,1.4-1.5c0.4-0.6,0.8-1.2,1.2-1.8
				c0.2-0.3,0.4-0.6,0.6-0.9c0.2-0.3,0.4-0.6,0.5-1c0.3-0.6,0.7-1.3,1-1.9c0.3-0.6,0.6-1.2,0.8-1.8c0.2-0.4,0.4-0.8,0.5-1.2
				c0.1-0.1,0.1-0.3,0.2-0.4c0.3-0.6,0.5-1.1,0.7-1.6c0.1-0.2,0.2-0.4,0.2-0.6c-0.3-4,0.4-9.9,5.7-14.5C59.4,52.6,53.4,55,50.4,60.2
				z"/>
			<path id="XMLID_1469_" class="st0" d="M55.1,84H44.9c0.4-0.8,0.7-1.6,1-2.4c0.6-0.3,1.1-0.6,1.6-1.1c0.5-0.5,1.1-1,1.6-1.6
				c0.5-0.6,0.9-1.2,1.3-1.9c0.2-0.3,0.4-0.7,0.6-1c0.2-0.3,0.4-0.7,0.5-1c0.3-0.7,0.6-1.3,0.9-2c0.4-1,0.7-1.9,1-2.8
				c0.1-0.3,0.2-0.6,0.3-0.9c0.1-0.3,0.2-0.7,0.3-1c0-0.1,0.1-0.3,0.1-0.4c0.1,0.7,0.2,1.2,0.3,1.7c0,0,0,0.1,0,0.1
				C55.3,73.8,55.7,78.5,55.1,84z"/>
		</g>
		<path id="XMLID_1529_" class="st0" d="M46.2,37.7c0.6,1.8,0.5,3.7-0.2,5.4c-1.6-0.9-2.8-2.3-3.4-4.2c-0.6-1.8-0.5-3.7,0.2-5.4
			C44.4,34.4,45.6,35.8,46.2,37.7z M35.4,38.3c0.2,1.8,1.1,3.5,2.5,4.8c1.4,1.3,3.2,1.9,5,1.9c-0.2-1.8-1.1-3.5-2.5-4.8
			C39,38.9,37.2,38.3,35.4,38.3z M31.4,46.1c1.1,1.4,2.7,2.5,4.6,2.9c1.9,0.4,3.8,0,5.3-0.9c-1.1-1.4-2.7-2.5-4.6-2.9
			C34.8,44.9,32.9,45.2,31.4,46.1z M49.1,37.7c-0.6,1.8-0.5,3.7,0.2,5.4c1.6-0.9,2.8-2.3,3.4-4.2c0.6-1.8,0.5-3.7-0.2-5.4
			C51,34.4,49.8,35.8,49.1,37.7z M54.9,40.2c-1.4,1.3-2.3,3-2.5,4.8c1.8,0,3.6-0.6,5-1.9c1.4-1.3,2.3-3,2.5-4.8
			C58.2,38.3,56.4,38.9,54.9,40.2z M58.7,45.3c-1.9,0.4-3.5,1.4-4.6,2.9c1.6,0.9,3.4,1.3,5.3,0.9c1.9-0.4,3.5-1.4,4.6-2.9
			C62.4,45.2,60.6,44.9,58.7,45.3z M11.6,40.6c1.1,1.4,2.7,2.5,4.6,2.8c1.9,0.4,3.8,0,5.3-1c-1.1-1.4-2.7-2.5-4.6-2.8
			C15,39.3,13.1,39.7,11.6,40.6z M20.9,22.7c0.1,1.8,0.9,3.5,2.3,4.9c1.4,1.3,3.2,2,5,2.1c-0.1-1.8-0.9-3.5-2.3-4.9
			C24.4,23.5,22.6,22.8,20.9,22.7z M37.6,11.7c-0.8,1.6-1,3.5-0.5,5.4c0.5,1.9,1.7,3.4,3.2,4.3c0.8-1.6,1-3.5,0.5-5.4
			C40.3,14.2,39.1,12.7,37.6,11.7z M4.3,30.1c0.1,1.8,0.9,3.5,2.3,4.9c1.4,1.3,3.2,2,5,2.1c-0.1-1.8-0.9-3.5-2.3-4.9
			C7.9,30.9,6.1,30.2,4.3,30.1z M0,37.8c1,1.5,2.6,2.6,4.4,3.1c1.9,0.5,3.8,0.2,5.4-0.6c-1-1.5-2.6-2.6-4.4-3.1
			C3.5,36.7,1.6,37,0,37.8z M0.1,46.6c1.6,0.8,3.5,1,5.4,0.4c1.9-0.5,3.4-1.7,4.3-3.2c-1.6-0.8-3.5-1-5.4-0.4
			C2.5,43.9,1,45.1,0.1,46.6z M19.8,10c-0.7,1.6-0.9,3.5-0.3,5.4c0.6,1.8,1.8,3.3,3.3,4.2c0.7-1.6,0.9-3.5,0.3-5.4
			C22.5,12.4,21.3,11,19.8,10z M12.3,14.7c0.2,1.8,1,3.5,2.4,4.8c1.4,1.3,3.2,2,5,2c-0.2-1.8-1-3.5-2.4-4.8S14.1,14.7,12.3,14.7z
			 M8.1,22.5c1.1,1.5,2.6,2.5,4.5,3c1.9,0.4,3.8,0.1,5.3-0.8c-1.1-1.5-2.6-2.5-4.5-3C11.6,21.3,9.7,21.6,8.1,22.5z M43.3,0
			c-1.5,1-2.6,2.5-3.1,4.4c-0.5,1.9-0.2,3.8,0.6,5.4c1.5-1,2.6-2.5,3.1-4.4C44.3,3.5,44.1,1.6,43.3,0z M34.4,0
			c-0.8,1.6-1,3.5-0.5,5.4c0.5,1.9,1.7,3.4,3.2,4.3c0.8-1.6,1-3.5,0.5-5.4C37.1,2.5,35.9,1,34.4,0z M26.8,4.4
			c0.1,1.8,0.9,3.5,2.3,4.9c1.4,1.3,3.2,2.1,4.9,2.1c-0.1-1.8-0.9-3.5-2.3-4.9C30.4,5.2,28.6,4.5,26.8,4.4z M78.6,39.6
			C76.7,40,75.1,41,74,42.4c1.5,0.9,3.4,1.3,5.3,1c1.9-0.4,3.5-1.4,4.6-2.8C82.3,39.7,80.5,39.3,78.6,39.6z M69.6,24.8
			c-1.4,1.3-2.2,3.1-2.3,4.9c1.8-0.1,3.6-0.8,5-2.1c1.4-1.3,2.2-3.1,2.3-4.9C72.8,22.8,71,23.5,69.6,24.8z M54.6,16.1
			c-0.5,1.9-0.3,3.8,0.5,5.4c1.5-1,2.7-2.5,3.2-4.3c0.5-1.9,0.3-3.8-0.5-5.4C56.3,12.7,55.1,14.2,54.6,16.1z M86.1,32.3
			c-1.4,1.3-2.2,3.1-2.3,4.9c1.8-0.1,3.6-0.8,5-2.1c1.4-1.3,2.2-3.1,2.3-4.9C89.3,30.2,87.5,30.9,86.1,32.3z M90.1,37.2
			c-1.9,0.5-3.4,1.6-4.4,3.1c1.6,0.8,3.5,1.1,5.4,0.6c1.9-0.5,3.4-1.6,4.4-3.1C93.8,37,91.9,36.7,90.1,37.2z M91,43.4
			c-1.9-0.5-3.8-0.3-5.4,0.4c1,1.5,2.5,2.7,4.3,3.2c1.9,0.5,3.8,0.3,5.4-0.4C94.4,45.1,92.9,43.9,91,43.4z M72.3,14.3
			c-0.6,1.8-0.4,3.7,0.3,5.4c1.5-0.9,2.8-2.4,3.3-4.2c0.6-1.8,0.4-3.7-0.3-5.4C74.1,11,72.9,12.4,72.3,14.3z M78.1,16.7
			c-1.4,1.3-2.2,3-2.4,4.8c1.8,0,3.6-0.7,5-2c1.4-1.3,2.2-3,2.4-4.8C81.3,14.7,79.6,15.4,78.1,16.7z M82,21.7
			c-1.9,0.4-3.5,1.5-4.5,3c1.6,0.9,3.4,1.2,5.3,0.8c1.9-0.4,3.5-1.5,4.5-3C85.7,21.6,83.9,21.3,82,21.7z M51.6,5.4
			c0.5,1.9,1.6,3.4,3.1,4.4c0.8-1.6,1.1-3.5,0.6-5.4C54.8,2.5,53.7,1,52.2,0C51.3,1.6,51.1,3.5,51.6,5.4z M57.8,4.3
			c-0.5,1.9-0.3,3.8,0.5,5.4c1.5-1,2.7-2.5,3.2-4.3C62,3.5,61.8,1.6,61,0C59.5,1,58.3,2.5,57.8,4.3z M63.7,6.6
			c-1.4,1.3-2.1,3.1-2.3,4.9c1.8-0.1,3.6-0.8,4.9-2.1c1.4-1.3,2.1-3.1,2.3-4.9C66.8,4.5,65.1,5.2,63.7,6.6z M47.6,4.5
			c-3.3,3.7-5.3,8.6-5.3,14c0,5.4,2,10.3,5.3,14c3.3-3.7,5.3-8.6,5.3-14C52.9,13.1,50.9,8.2,47.6,4.5z M25.9,11.3
			c-1,4.9-0.3,10.1,2.4,14.8s6.9,7.9,11.6,9.5c1-4.9,0.3-10.1-2.4-14.8C34.8,16.1,30.6,12.9,25.9,11.3z M10.5,28.1
			c1.6,4.7,4.8,8.9,9.5,11.6c4.7,2.7,9.9,3.4,14.8,2.4c-1.6-4.7-4.8-8.9-9.5-11.6C20.6,27.8,15.4,27.1,10.5,28.1z M5.6,50.3
			c3.7,3.3,8.6,5.3,14,5.3c5.4,0,10.3-2,14-5.3C29.9,47,25,45,19.6,45C14.2,45,9.3,47,5.6,50.3z M58.1,20.8
			c-2.7,4.7-3.4,9.9-2.4,14.8c4.7-1.6,8.9-4.8,11.6-9.5s3.4-9.9,2.4-14.8C65,12.9,60.8,16.1,58.1,20.8z M70.3,30.5
			c-4.7,2.7-7.9,6.9-9.5,11.6c4.9,1,10.1,0.3,14.8-2.4s7.9-6.9,9.5-11.6C80.2,27.1,74.9,27.8,70.3,30.5z M76,45
			c-5.4,0-10.3,2-14,5.3c3.7,3.3,8.6,5.3,14,5.3c5.4,0,10.3-2,14-5.3C86.3,47,81.4,45,76,45z"/>
	</g>
</g>
</svg>
