<svg xmlns="http://www.w3.org/2000/svg" width="22" height="22" viewBox="0 0 22 22">
  <metadata><?xpacket begin="﻿" id="W5M0MpCehiHzreSzNTczkc9d"?>
<x:xmpmeta xmlns:x="adobe:ns:meta/" x:xmptk="Adobe XMP Core 5.6-c138 79.159824, 2016/09/14-01:09:01        ">
   <rdf:RDF xmlns:rdf="http://www.w3.org/1999/02/22-rdf-syntax-ns#">
      <rdf:Description rdf:about=""/>
   </rdf:RDF>
</x:xmpmeta>
                                                                                                    
                                                                                                    
                                                                                                    
                                                                                                    
                                                                                                    
                                                                                                    
                                                                                                    
                                                                                                    
                                                                                                    
                                                                                                    
                                                                                                    
                                                                                                    
                                                                                                    
                                                                                                    
                                                                                                    
                                                                                                    
                                                                                                    
                                                                                                    
                                                                                                    
                                                                                                    
                           
<?xpacket end="w"?></metadata>
<defs>
    <style>
      .cls-1 {
        fill: #212121;
        fill-rule: evenodd;
      }
    </style>
  </defs>
  <path id="Objectives_ic" data-name="Objectives ic" class="cls-1" d="M13148.9,4711a9.961,9.961,0,0,0,10-9.89,9.233,9.233,0,0,0-1.2-4.65,1.162,1.162,0,0,1-.2.02h-0.2l-1.2-.1-1,.9a7.258,7.258,0,0,1-6.2,11.1,7.27,7.27,0,1,1,0-14.54,7.471,7.471,0,0,1,3.9,1.09l0.8-.82-0.1-1.44v-0.35a10.071,10.071,0,0,0-4.6-1.1A9.89,9.89,0,1,0,13148.9,4711Zm0-12.44h0.2l1.9-1.82v-0.04a4.641,4.641,0,0,0-2.1-.46,4.87,4.87,0,1,0,4.9,4.87,4.711,4.711,0,0,0-.4-2.06l-0.1.04-1.8,1.83v0.19a2.55,2.55,0,1,1-5.1,0A2.512,2.512,0,0,1,13148.9,4698.56Zm10.3-6.27,0.6-.58a0.859,0.859,0,0,0,0-.97l-0.4-.41a1.129,1.129,0,0,0-.5-0.2,0.64,0.64,0,0,0-.5.2l-0.7.67-0.1-1.79c0-.13-0.1-0.21-0.3-0.21a0.126,0.126,0,0,0-.1.07l-2.7,2.64a1.424,1.424,0,0,0-.3.91v0.1l0.1,1.65-0.9.96-1.8,1.72v0.04l-1.7,1.66-0.7.74a0.573,0.573,0,0,0-.2.36v0.58a0.509,0.509,0,0,0,.5.63h0.1l0.6-.03a0.773,0.773,0,0,0,.4-0.17l0.7-.73,1.7-1.67v-0.04l1.7-1.72,1.1-1.03,1.5,0.11h0.1c0,0.01,0,.01.1,0.01a1.088,1.088,0,0,0,.8-0.34l2.6-2.64a0.207,0.207,0,0,0-.1-0.39Z" transform="translate(-13139 -4689)"/>
</svg>
