<?xml version="1.0" encoding="utf-8"?>
<!-- Generator: Adobe Illustrator 22.1.0, SVG Export Plug-In . SVG Version: 6.00 Build 0)  -->
<svg version="1.1" id="Layer_1" xmlns="http://www.w3.org/2000/svg" xmlns:xlink="http://www.w3.org/1999/xlink" x="0px" y="0px"
	 viewBox="0 0 35.5 37" style="enable-background:new 0 0 35.5 37;" xml:space="preserve">
<style type="text/css">
	.st0{fill:none;}
	.st1{fill:#FFDE5D;}
	.st2{fill:#FF6427;}
	.st3{fill:#E5B92E;}
	.st4{fill:#B54624;}
</style>
<g>
	<path class="st0" d="M2.1,2c0.2,3.7,1.2,9.8,4.1,12.7c0.6,0.6,1.3,1.1,2,1.4C7.1,11.5,6.9,5.2,6.9,2H2.1z"/>
	<path class="st1" d="M17.8,26.7c-0.4,0-0.9-0.1-1.2-0.2c-0.8,2.9-2.7,6-3.4,7.1h4.6V26.7z"/>
	<path class="st1" d="M17.8,24.9V0h0H8.8H7H0c0,0-0.3,16.7,8.9,18.5c0.7,1.8,1.6,3,2.8,3.3c-0.3,0.2-0.4,0.5-0.4,0.8
		c0,0.6,0.5,1,1,1h0.6c0,0.1,0,0.1,0,0.2c0,0.6,0.5,1,1,1h1.2h1.7H17.8z M6.2,14.8C3.3,11.8,2.3,5.7,2.1,2h4.9
		c0,3.2,0.1,9.5,1.3,14.1C7.5,15.8,6.8,15.4,6.2,14.8z"/>
	<path class="st2" d="M15.1,24.9c0,0.7,0.6,1.3,1.4,1.6c0.1-0.6,0.3-1.1,0.3-1.6H15.1z"/>
	<path class="st2" d="M17.8,24.9h-0.9c0,0.5-0.2,1.1-0.3,1.6c0.4,0.1,0.8,0.2,1.2,0.2V24.9z"/>
	<path class="st2" d="M8.6,35.3h9.1V34h-0.1h-4.8c0,0,0.1-0.1,0.3-0.4H8.6c-0.9,0-1.7,0.8-1.7,1.7c0,0.9,0.8,1.7,1.7,1.7h9.1v-1.7
		H8.6z"/>
	<path class="st2" d="M17.7,34L17.7,34l0.1-0.4h-4.6C13,33.8,12.9,34,12.9,34H17.7z"/>
	<path class="st3" d="M17.8,33.6h4.6c-0.7-1.1-2.6-4.2-3.4-7.1c-0.4,0.1-0.8,0.2-1.2,0.2V33.6z"/>
	<path class="st3" d="M18.7,24.9h1.7h1.2c0.6,0,1-0.5,1-1c0-0.1,0-0.2,0-0.2h0.6c0.6,0,1-0.5,1-1c0-0.3-0.2-0.6-0.4-0.8
		c1.2-0.3,2.1-1.6,2.8-3.3C35.8,16.7,35.5,0,35.5,0h-7h-1.9h-8.9h0v24.9H18.7z M28.6,2h4.9c-0.2,3.7-1.2,9.8-4.1,12.7
		c-0.6,0.6-1.3,1.1-2,1.4C28.4,11.5,28.6,5.2,28.6,2z"/>
	<g>
		<path class="st4" d="M20.4,24.9h-1.7h-0.9v1.9c0.4,0,0.9-0.1,1.2-0.2C19.8,26.2,20.4,25.6,20.4,24.9z"/>
		<path class="st4" d="M26.9,33.6h-4.6h-4.6V34v1.3V37h9.1c0.9,0,1.7-0.8,1.7-1.7C28.6,34.4,27.8,33.6,26.9,33.6z"/>
	</g>
</g>
</svg>
