<?xml version="1.0" encoding="utf-8"?>
<!-- Generator: Adobe Illustrator 22.1.0, SVG Export Plug-In . SVG Version: 6.00 Build 0)  -->
<svg version="1.1" id="OBJECTS" xmlns="http://www.w3.org/2000/svg" xmlns:xlink="http://www.w3.org/1999/xlink" x="0px" y="0px"
	 viewBox="0 0 79.9 130" style="enable-background:new 0 0 79.9 130;" xml:space="preserve">
<style type="text/css">
	.st0{fill-rule:evenodd;clip-rule:evenodd;fill:#402412;}
	.st1{fill-rule:evenodd;clip-rule:evenodd;fill:#9B5538;}
	.st2{fill-rule:evenodd;clip-rule:evenodd;fill:#F5B67E;}
	.st3{fill-rule:evenodd;clip-rule:evenodd;fill:#ED8322;}
	.st4{fill-rule:evenodd;clip-rule:evenodd;fill:#F6C085;}
	.st5{fill-rule:evenodd;clip-rule:evenodd;fill:#F8C997;}
	.st6{fill-rule:evenodd;clip-rule:evenodd;fill:#3E3B3A;}
	.st7{fill-rule:evenodd;clip-rule:evenodd;fill:#E5B17D;}
	.st8{fill-rule:evenodd;clip-rule:evenodd;fill:#D6825B;}
</style>
<g>
	<path class="st0" d="M76.6,68.4c0,10.2,7.2,18.4,2.8,29.5c-6.7,17.3-21.9,13.5-33.1,13.5H31.7c-11.5,0-25.1,1.4-30-15.3
		c-3.4-11.5,2.6-17.5,2.6-26.7L3.8,43.5C4.7,9.1,17,3.8,40.5,3.8c27.6-3.7,35.1,10.8,36.7,39.7L76.6,68.4z"/>
	<path class="st1" d="M54.2,110.6c0.7-0.5,16-12.1,16-12.1c7,2.3,9,22.2,9.8,31.5H63.2L54.2,110.6z"/>
	<path class="st2" d="M39.8,85.3h-7.4V90c0,2.9-0.5,2.3-3.2,3.8c0,0-2.6,2.1-3.4,2.4c3.3,10.6,5.7,24.2,12.1,33.8h1.9h1.9
		c6.4-9.6,8.8-23.2,12.1-33.8c-0.8-0.3-3.4-2.4-3.4-2.4c-2.7-1.5-3.2-0.9-3.2-3.8v-4.7H39.8z"/>
	<path class="st1" d="M25.8,110.6c-0.7-0.5-16-12.1-16-12.1c-7,2.3-9,22.2-9.8,31.5h16.8L25.8,110.6z"/>
	<path class="st3" d="M35.2,104.3c-6.5-2.4-7.3-9.4-6-10.4c-2.9,1.3-11.5,2.6-16.5,3.8l-0.1,0l-0.1,0l-0.1,0l-0.1,0l-0.1,0l-0.1,0
		l-0.2,0l-0.1,0l-0.1,0l-0.1,0l0,0l-0.1,0l-0.1,0l-0.1,0l-0.1,0l-0.1,0l-0.1,0L11.1,98l0,0l-0.1,0l-0.1,0l-0.1,0l-0.1,0l-0.1,0
		l-0.1,0l-0.1,0l0,0l-0.1,0l-0.1,0l-0.1,0l0,0l-0.1,0l-0.1,0l0,0l0,0l-0.2,0.1l0,0l0,0l-0.1,0l0,0l0,0l-0.1,0l0,0c0,0-0.1,0-0.1,0.1
		l0,0l0,0c0,0-0.1,0-0.1,0.1l0,0c0,0-0.1,0-0.1,0.1l0,0l0,0c0,0-0.1,0-0.1,0.1l0,0l0,0c0,0-0.1,0-0.1,0.1c0.7,1.5,1.7,6.8,2.6,13.4
		c-1,6.7-4.9,11.5-2.1,17.8h4.6h25.5H40h0.2h25.5h4.6c2.8-6.3-1.1-11.1-2.1-17.8c1-6.5,1.9-11.8,2.6-13.4c0,0-0.1,0-0.1-0.1l0,0l0,0
		c0,0-0.1,0-0.1-0.1l0,0l0,0c0,0-0.1,0-0.1-0.1l0,0c0,0-0.1,0-0.1-0.1l0,0l0,0l-0.1-0.1l0,0l-0.1,0l0,0l0,0l-0.1,0l0,0l0,0l-0.2-0.1
		l0,0l0,0l-0.1,0l-0.1,0l0,0l-0.1,0l-0.1,0l-0.1,0l0,0l-0.1,0l-0.1,0l-0.1,0l-0.1,0l-0.1,0l-0.1,0l-0.1,0l0,0L68.6,98l-0.1,0l-0.1,0
		l-0.1,0l-0.1,0l-0.1,0l-0.1,0l0,0l-0.1,0l-0.1,0l-0.1,0l-0.2,0l-0.1,0l-0.1,0l-0.1,0l-0.1,0l-0.1,0l-0.1,0
		c-5-1.2-13.6-2.5-16.5-3.8c1.3,1,0.5,8-6,10.4l0,0l-4.6,7.7l-0.2-0.3l-0.2,0.3L35.2,104.3L35.2,104.3z"/>
	<g>
		<path class="st4" d="M18,48.8c1.2,5.5-1.2,10.1-5.4,11.1c-4.2,1-8.5-2-9.7-7.5C1.7,46.9,4,41.6,8.2,40.6
			C12.4,39.7,16.8,43.3,18,48.8z"/>
		<path class="st4" d="M63.2,48.8c-1.2,5.5,1.2,10.1,5.4,11.1c4.2,1,8.5-2,9.7-7.5c1.2-5.5-1.2-10.8-5.3-11.8
			C68.8,39.7,64.4,43.3,63.2,48.8z"/>
	</g>
	<path class="st5" d="M40.6,3.9L40.6,3.9c-2.3-0.1-4.4-0.2-4.4-0.2l0,0.3c-0.3,0-0.5,0-0.5,0c-8.8,0.4-17.2,5.1-22.5,12.4
		c-5.3,7.3-6.1,16.4-5.6,25.2c1.1,22.5,13.7,47.7,33,47.9c19.3-0.2,31.9-25.4,33-47.9c0.4-8.8-0.3-17.9-5.6-25.2
		c-5.3-7.3-13.7-12-22.5-12.4c0,0-0.2,0-0.5,0l0-0.3C45,3.8,42.9,3.9,40.6,3.9L40.6,3.9z"/>
	<path class="st0" d="M54.3,12.7c-0.3,1.2,0,7.9,7.6,18c7.6,10.1,8.2,11,8.2,11s0.4,17.1,1.3,15.1c1-2,2.4-16.8,2.4-16.8
		s1.8-7.7-0.1-15.6c-1.9-7.9-4.4-10.9-7.8-12.3C62.5,10.8,54.3,12.7,54.3,12.7z"/>
	<path class="st0" d="M11.9,34.1c-1.3,1.5-5.6,1.7-5.6,1.7c0.2,1.4,2,22.3,3.8,20.8L11.9,34.1z"/>
	<path class="st0" d="M70.1,41.7c0.3-5.8,3.3-19,1.9-22.7C67.8,8.6,60.1,4.4,47.2,3.1c-4-0.4-7.3,0-7.3,0
		C47.3,15.3,53.6,31.6,70.1,41.7z"/>
	<path class="st0" d="M57.7,15.8C55,32.2,20.5,26.9,9.2,46.6C-3.5,27.4,15.9-11.7,49.6,3.4L57.7,15.8z"/>
	<g>
		<path class="st6" d="M25.4,55.8c1.4,0,2.6-1.1,2.6-2.6c0-1.4-1.1-2.6-2.6-2.6c-1.4,0-2.6,1.1-2.6,2.6C22.8,54.6,24,55.8,25.4,55.8
			z"/>
		<path class="st6" d="M57.3,55.8c1.4,0,2.6-1.1,2.6-2.6c0-1.4-1.1-2.6-2.6-2.6s-2.6,1.1-2.6,2.6C54.8,54.6,55.9,55.8,57.3,55.8z"/>
	</g>
	<path class="st7" d="M36.5,66.3C36.4,66.2,36.4,66.2,36.5,66.3c0-0.2,0.1-0.3,0.2-0.5c1.1-2,3.1-7.9,4.1-14.4
		c1,0.1-1,11.1-1.9,13.7c0.9-0.2,2-0.2,3.2-0.2c3.1,0,5.5,0.6,5.5,1.4c0,0.8-2.5,1.4-5.5,1.4C39,67.5,36.6,67,36.5,66.3z"/>
	<g>
		<path class="st0" d="M48.1,47c-1.5,0.6,1-3.5,8.5-3.6c8.7-0.2,11.3,4,7.9,2.8C57.1,43.6,50.6,46,48.1,47z"/>
		<path class="st0" d="M33,47c1.5,0.6-1-3.5-8.5-3.6c-8.7-0.2-11.3,4-7.9,2.8C24,43.6,30.6,46,33,47z"/>
	</g>
	<path class="st8" d="M49.3,72.5c-1.6,6.9-15.7,6.9-17.3,0C36.7,77.4,44.6,77.4,49.3,72.5z"/>
</g>
</svg>
