<?xml version="1.0" encoding="UTF-8"?>
<svg width="558px" height="558px" viewBox="0 0 558 558" version="1.1" xmlns="http://www.w3.org/2000/svg" xmlns:xlink="http://www.w3.org/1999/xlink">
    <!-- Generator: Sketch 50.2 (55047) - http://www.bohemiancoding.com/sketch -->
    <title>iStock-872947326</title>
    <desc>Created with Sketch.</desc>
    <defs></defs>
    <g id="iStock-872947326" stroke="none" stroke-width="1" fill="none" fill-rule="evenodd">
        <path d="M500.92813,528 L54.0718701,528 C28.0743895,528 7,506.903103 7,480.879091 L7,206.119908 C7,180.096897 28.0743895,159 54.0718701,159 L500.92813,159 C526.92561,159 548,180.096897 548,206.119908 L548,480.879091 C548,506.903103 526.92561,528 500.92813,528" id="Fill-4" fill="#E6B827"></path>
        <path d="M548,205.94356 C548,188.707893 538.78083,172.787819 523.830553,164.205475 L300.941433,36.2500661 C286.426165,27.9166446 268.573835,27.9166446 254.058567,36.2500661 L31.1694468,164.205475 C16.2191704,172.787819 7,188.707893 7,205.94256 L7,205.94356 C7,231.932519 28.0743895,253 54.0718701,253 L500.92813,253 C526.92561,253 548,231.932519 548,205.94356" id="Fill-5" fill="#E0912F"></path>
        <path d="M480.904743,70 L73.0952572,70 C50.9516834,70 33,87.9457273 33,110.081954 L33,354 L521,354 L521,110.081954 C521,87.9457273 503.048317,70 480.904743,70" id="Fill-6" fill="#FEF9EB"></path>
        <path d="M548,479.942771 C548,462.707182 538.78083,446.788179 523.830553,438.204873 L300.941433,310.250038 C286.426165,301.916654 268.573835,301.916654 254.058567,310.250038 L31.1694468,438.204873 C16.2191704,446.788179 7,462.707182 7,479.942771 C7,505.931613 28.0743895,527 54.0718701,527 L500.92813,527 C526.92561,527 548,505.931613 548,479.942771" id="Fill-7" fill="#F7B826"></path>
        <path d="M196,343 L30.1206495,438.327873 C15.2018841,446.887316 6,462.796259 6,480 L6,206 C6,206.79365 6.02095192,207.608265 6.06285576,208.401915 L6.06285576,208.442845 C6.14666345,210.009181 6.29232918,211.574519 6.54175681,213.119891 L6.56370644,213.244679 C8.73272911,227.588284 17.3300006,240.323625 30.1206495,247.672127 L196,343" id="Fill-8" fill="#F9CA5E"></path>
        <path d="M547,206 L547,480 C547,462.796259 537.798133,446.887316 522.88201,438.327873 L357,343 L522.861061,247.672127 C533.042571,241.806103 540.594407,232.53587 544.308474,221.763191 C544.496023,221.178186 544.704521,220.573215 544.893068,219.968244 C545.121518,219.237487 545.331014,218.505731 545.519561,217.755008 C545.706112,217.003286 545.894659,216.251565 546.040308,215.499843 C546.145056,214.977731 546.248807,214.455619 546.311656,213.934506 C546.395454,213.474288 546.478255,213.015069 546.540106,212.534886 C546.707703,211.449731 546.811454,210.342614 546.874302,209.215531 C546.916202,208.673453 546.937151,208.151341 546.958101,207.608265 C546.978053,207.336727 546.978053,207.086153 546.978053,206.814615 C547,206.543076 547,206.271538 547,206" id="Fill-9" fill="#F8C54E"></path>
        <path d="M301.534768,175.911197 C300.863541,170.669965 298.549204,166.53626 294.596752,163.512087 C290.640304,160.487913 285.979667,158.975827 280.620834,158.975827 C276.06108,158.975827 271.903864,160.185496 268.152181,162.604835 C264.397502,165.024173 261.145244,168.083395 258.398405,171.777493 C255.648569,175.476598 253.536999,179.540205 252.063694,183.976327 C250.587393,188.411448 249.85124,192.714386 249.85124,196.879133 C249.85124,199.702029 250.284741,202.357694 251.158735,204.843124 C252.028734,207.331558 253.30127,209.51457 254.979339,211.395165 C256.654411,213.278765 258.666097,214.756804 261.012397,215.830286 C263.356699,216.907773 265.939727,217.443512 268.755487,217.443512 C274.386008,217.443512 279.212454,216.032565 283.234826,213.209669 C287.256198,210.386774 290.404576,206.490397 292.686949,201.516533 C294.025409,197.887525 295.466751,193.788869 297.009975,189.21756 C298.549204,184.649256 300.057468,180.214136 301.534768,175.911197 Z M350,173.089303 C350,182.766658 348.055238,191.705994 344.16871,199.903307 C341.888334,205.012357 338.703998,209.816987 334.6177,214.318199 C330.52441,218.823416 325.798848,222.619655 320.438017,225.70992 C317.488411,227.458332 314.405958,228.86928 311.187661,229.943762 C307.970363,231.021249 304.753065,231.556989 301.534768,231.556989 C298.584163,231.556989 295.935212,230.81897 293.58991,229.338928 C291.24361,227.860888 289.87019,225.577737 289.467654,222.484469 C289.333808,221.677355 289.333808,220.805151 289.467654,219.862851 C286.518048,224.165789 282.932174,227.189962 278.709033,228.935371 C274.485893,230.683784 269.9611,231.556989 265.134653,231.556989 C260.441054,231.556989 256.18595,230.683784 252.365347,228.935371 C248.544743,227.189962 245.292485,224.802668 242.61157,221.778494 C239.927659,218.754321 237.852047,215.260499 236.376745,211.294026 C234.900443,207.331558 234.16429,203.062666 234.16429,198.492359 C234.16429,192.175642 235.236057,185.824878 237.383586,179.439066 C239.525122,173.057259 242.61157,167.31133 246.633942,162.201278 C250.655314,157.095231 255.481761,152.92748 261.113281,149.702029 C266.743802,146.475576 272.978627,144.863351 279.814761,144.863351 C285.176591,144.863351 290.30469,146.073021 295.200057,148.492359 C300.092428,150.911698 303.746224,154.675893 306.159447,159.781939 L309.78028,148.492359 L321.444858,148.492359 L306.361214,196.677855 C305.55714,199.232381 304.819988,201.852997 304.14876,204.540706 C303.477533,207.230418 303.143917,209.917126 303.143917,212.604835 C303.143917,214.488434 303.612378,216.067613 304.552296,217.342372 C305.488219,218.622139 306.8956,219.258016 308.774438,219.258016 C310.917971,219.258016 312.929656,218.854459 314.808494,218.048347 C316.683337,217.242234 318.42733,216.233843 320.036479,215.024173 C322.984087,212.875208 325.567115,210.320683 327.779569,207.3626 C329.992023,204.407522 331.799943,201.182071 333.208322,197.685246 C334.6177,194.191424 335.653508,190.597465 336.326734,186.899361 C336.994965,183.204262 337.330579,179.609301 337.330579,176.113477 C337.330579,167.645791 335.854277,160.185496 332.906669,153.733592 C329.957063,147.28269 325.900731,141.873225 320.740668,137.504196 C315.57661,133.138171 309.544551,129.842623 302.640496,127.624562 C295.734443,125.407502 288.328964,124.297971 280.418067,124.297971 C271.570248,124.297971 263.255815,125.880155 255.481761,129.03651 C247.705708,132.19587 240.9345,136.530853 235.171132,142.040456 C229.404767,147.553063 224.845014,154.137149 221.495868,161.798722 C218.142726,169.460295 216.467654,177.794797 216.467654,186.798222 C216.467654,196.073021 218.042841,204.574753 221.194215,212.302417 C224.342592,220.033086 228.735537,226.686267 234.366058,232.261962 C239.997578,237.841661 246.699866,242.141595 254.476917,245.165769 C262.250971,248.189942 270.766173,249.702029 280.016529,249.702029 C289.80127,249.702029 299.02166,247.820432 307.667711,244.056238 C316.31576,240.295047 323.858081,234.78244 330.292677,227.524424 L344.16871,227.524424 C336.929041,238.815005 327.709649,247.382828 316.517528,253.229897 C305.321411,259.076966 293.15541,262 280.016529,262 C269.023179,262 258.866866,260.185496 249.549587,256.556488 C240.23031,252.92748 232.219528,247.786385 225.518239,241.133204 C218.811956,234.480022 213.552009,226.55108 209.731405,217.342372 C205.909802,208.13767 204,197.95662 204,186.798222 C204,175.779015 205.940767,165.664056 209.83129,156.455348 C213.718817,147.250646 219.113609,139.353748 226.020661,132.765657 C232.923718,126.182572 241.033386,121.07252 250.353662,117.443512 C259.669941,113.814504 269.760331,112 280.620834,112 C289.735346,112 298.48328,113.344856 306.863636,116.032565 C315.240997,118.722277 322.615511,122.653702 328.985181,127.826841 C335.352854,133.001983 340.447991,139.387795 344.270593,146.979271 C348.090198,154.574753 350,163.278765 350,173.089303 Z" id="Fill-10" fill="#4C4B47"></path>
    </g>
</svg>