<?xml version="1.0" encoding="utf-8"?>
<!-- Generator: Adobe Illustrator 22.1.0, SVG Export Plug-In . SVG Version: 6.00 Build 0)  -->
<svg version="1.1" id="OBJECTS" xmlns="http://www.w3.org/2000/svg" xmlns:xlink="http://www.w3.org/1999/xlink" x="0px" y="0px"
	 viewBox="0 0 80 130" style="enable-background:new 0 0 80 130;" xml:space="preserve">
<style type="text/css">
	.st0{fill-rule:evenodd;clip-rule:evenodd;fill:#9F2025;}
	.st1{fill-rule:evenodd;clip-rule:evenodd;fill:#F5B67E;}
	.st2{fill-rule:evenodd;clip-rule:evenodd;fill:#841B21;}
	.st3{fill-rule:evenodd;clip-rule:evenodd;fill:#F6C085;}
	.st4{fill-rule:evenodd;clip-rule:evenodd;fill:#F8C997;}
	.st5{fill-rule:evenodd;clip-rule:evenodd;fill:#D6825B;}
	.st6{fill-rule:evenodd;clip-rule:evenodd;fill:#59341A;}
	.st7{fill-rule:evenodd;clip-rule:evenodd;fill:#402412;}
	.st8{fill-rule:evenodd;clip-rule:evenodd;fill:#5D331A;}
	.st9{fill-rule:evenodd;clip-rule:evenodd;fill:#3E3B3A;}
	.st10{fill-rule:evenodd;clip-rule:evenodd;fill:#E5B17D;}
</style>
<g>
	<path class="st0" d="M25.9,110.5c-0.7-0.5-16.6-8-16.6-8C2.3,104.8,0.7,120.7,0,130h16.9L25.9,110.5z"/>
	<path class="st0" d="M54.1,110.5c0.7-0.5,16.6-8,16.6-8c7.1,2.3,8.6,18.2,9.4,27.5H63.1L54.1,110.5z"/>
	<path class="st1" d="M40,85.1h-7.4v4.7c0,2.9-0.5,2.3-3.2,3.8c0,0-2.6,2.2-3.4,2.4c3.3,10.7,5.7,24.4,12.2,34H40h1.9
		c6.5-9.6,8.9-23.3,12.2-34c-0.8-0.3-3.4-2.4-3.4-2.4c-2.7-1.5-3.2-0.9-3.2-3.8v-4.7H40z"/>
	<path class="st2" d="M35.4,104.1c-6.6-2.4-7.4-9.4-6-10.5c-4,1.8-18.4,7.5-20.1,8.9c1.3,2.9,3.3,14.7,5,27.5H40h25.7
		c1.7-12.7,3.7-24.6,5-27.5c-1.6-1.4-16.1-7.1-20.1-8.9c1.3,1,0.5,8.1-6,10.5l0,0l-4.6,7.7L35.4,104.1L35.4,104.1z"/>
	<path class="st3" d="M59.9,51c-1.1,5.5,2.5,10.2,8,11.2c5.5,1,10.8-2,11.9-7.6c1.1-5.6-2.5-10.9-8-11.9C66.3,41.8,61,45.5,59.9,51z
		"/>
	<path class="st3" d="M21.6,51c1.1,5.5-2.5,10.2-8,11.2c-5.5,1-10.8-2-11.9-7.6c-1.1-5.6,2.5-10.9,8-11.9
		C15.2,41.8,20.5,45.5,21.6,51z"/>
	<path class="st4" d="M68.2,15.8C62.8,8.5,54.5,3.7,45.6,3.4c0,0-0.2,0-0.5,0l0-0.3c0,0-2.2,0.1-4.4,0.2C38.5,3.1,36.4,3,36.4,3
		l0,0.3c-0.3,0-0.5,0-0.5,0C27,3.7,18.6,8.5,13.3,15.8c-5.4,7.3-6.1,16.5-5.7,25.3c1.1,22.6,3.1,48,33.2,48.2
		c30.2,0.3,31.9-25.8,33-48.2C74.3,32.3,73.6,23.1,68.2,15.8z"/>
	<path class="st5" d="M49.6,70.4c-1.6,8.8-15.8,8.8-17.4,0C36.4,71.4,44.4,71.4,49.6,70.4z"/>
	<path class="st6" d="M9.3,48c0.4-8.3,0.5-23.4,7.8-23.4c5.4,0,6.9,1.2,23.3,1.2c14.5,0,18.8-1.7,24.2-1.7c5.8,0,7.3,7.9,7.4,18.8
		c0,2.2,0.2,4.5,0.3,6.7c0.1,1.3,0.2,2.6,0.2,3.9c0,0.5,0.2,2,0.9,1.8c0.8-0.2,0.9-3,0.9-3.7c0.6-4.3,0.7-8.8,0.7-13.2
		c0-8.1,2.3-23.6-12.2-33.3c-8.9-6-27.3-6.6-37.6-3.2c-7.1,2.4-14,8.5-16.5,15.6c-2.8,7.8-2.7,14-1.8,29.5c0.1,1.7,0.3,3.4,0.5,5
		c0.2,1.1,0.3,2.2,0.6,3.3c0.6,2.4,1.4,0.7,1.4-0.8C9.3,52.5,9.2,50.2,9.3,48z"/>
	<path class="st7" d="M26.9,70.8c-1.3,0.2-2.5,0.4-3.8,0.4c-4.5,0-8.3-1.7-10.8-4.7c-0.9-1-1.5-3-1.7-4.2c-0.1-1.1-0.8-4-0.9-5
		C9.2,51.5,8,55.6,7.9,60c0,1,0.3,2.1,0.5,3.2c-0.2,1.9-0.7,6.9-0.5,8.5C9.2,88.3,30.5,92.6,41,94.2c5.1-0.8,19.3-4.2,22.6-6.5
		c8.5-5.9,11.2-12.5,10-24.5c0.2-1.1,0.5-2.2,0.5-3.2c-0.1-4.4-1.3-8.5-1.8-2.8c-0.1,1-0.7,3.9-0.9,5c-0.2,1.2-0.8,3.2-1.7,4.2
		c-2.5,3-6.3,4.7-10.8,4.7c-1.3,0-2.5-0.2-3.8-0.4c0.6,1,0.9,2.1,0.9,3.2c0,4.2-4.4,7.8-10.5,9c-0.4-0.1-0.8-0.3-1.2-0.6
		c-1.5-1-2.5-2.3-3.1-3.1c-0.5,0.8-1.6,2.1-3.1,3.1c-0.5,0.3-0.9,0.5-1.3,0.6C30.6,81.8,26,78.2,26,74C26,72.9,26.3,71.8,26.9,70.8z
		"/>
	<path class="st8" d="M41,63.8C37.6,61,29.4,68,27.6,68.7c-5.2,2.2-8.4-2.2-8.4-2.2s0.7,3.2,3.2,5.9c4.4,5,13.8,3.7,18.6-0.6
		c4.8,4.3,14.2,5.6,18.6,0.6c2.5-2.8,3.2-5.9,3.2-5.9s-3.2,4.4-8.4,2.2C52.6,68,44.4,61,41,63.8z"/>
	<g>
		<path class="st9" d="M23.6,58.4c1.4,0,2.6-1.2,2.6-2.6s-1.2-2.6-2.6-2.6c-1.4,0-2.6,1.2-2.6,2.6S22.2,58.4,23.6,58.4z"/>
		<path class="st9" d="M57.8,58.4c1.4,0,2.6-1.2,2.6-2.6s-1.2-2.6-2.6-2.6c-1.4,0-2.6,1.2-2.6,2.6S56.4,58.4,57.8,58.4z"/>
	</g>
	<g>
		<path class="st6" d="M15.4,48c-0.9-1.4,3.6-2.2,8.1-2.2c7.6-0.1,11.7,3.6,8.1,3.5C28.9,49.2,15.7,48.4,15.4,48z"/>
		<path class="st6" d="M66,47.8c0.8-1.4-3.6-2.1-8.1-2.1c-7.6,0-11.7,3.7-8,3.6C52.6,49.1,65.8,48.2,66,47.8z"/>
	</g>
	<path class="st10" d="M37.4,62.2C37.4,62.2,37.4,62.1,37.4,62.2c0-0.2,0.1-0.3,0.2-0.4c0.9-1.7,2.6-6.6,3.4-12
		c0.9,0.1-0.9,9.2-1.6,11.4C40.1,61,41,61,42,61c2.5,0,4.6,0.5,4.6,1.1c0,0.6-2.1,1.1-4.6,1.1C39.6,63.2,37.5,62.8,37.4,62.2z"/>
</g>
</svg>
