<?xml version="1.0" encoding="utf-8"?>
<!-- Generator: Adobe Illustrator 22.1.0, SVG Export Plug-In . SVG Version: 6.00 Build 0)  -->
<svg version="1.1" id="OBJECTS" xmlns="http://www.w3.org/2000/svg" xmlns:xlink="http://www.w3.org/1999/xlink" x="0px" y="0px"
	 viewBox="0 0 110.8 180" style="enable-background:new 0 0 110.8 180;" xml:space="preserve">
<style type="text/css">
	.st0{fill-rule:evenodd;clip-rule:evenodd;fill:#B24D26;}
	.st1{fill-rule:evenodd;clip-rule:evenodd;fill:#F5B67E;}
	.st2{fill-rule:evenodd;clip-rule:evenodd;fill:#D8465E;}
	.st3{fill-rule:evenodd;clip-rule:evenodd;fill:#E8556B;}
	.st4{fill-rule:evenodd;clip-rule:evenodd;fill:#F8C997;}
	.st5{fill-rule:evenodd;clip-rule:evenodd;fill:#CC5827;}
	.st6{fill-rule:evenodd;clip-rule:evenodd;fill:#3E3B3A;}
	.st7{fill-rule:evenodd;clip-rule:evenodd;fill:#E5B17D;}
	.st8{fill-rule:evenodd;clip-rule:evenodd;fill:#913E22;}
	.st9{fill-rule:evenodd;clip-rule:evenodd;fill:#D6825B;}
	.st10{fill-rule:evenodd;clip-rule:evenodd;fill:#FFFFFF;}
</style>
<g>
	<path class="st0" d="M96,112c-0.6,0.3-8.5,9.5-8.5,9.5s-10.5-6.9-32.3-6.7c-21.8,0.2-31,6.5-31,6.5s-6-4.5-8.4-12.9
		c-2.4-8.4-4.5-33.1-3.3-33.4c1.2-0.3,89.9-1.1,89.9-1.1L96,112z"/>
	<path class="st1" d="M75,153.1c1-0.7,22.2-16.8,22.2-16.8c9.7,3.2,12.5,30.8,13.5,43.7H87.5L75,153.1z"/>
	<path class="st2" d="M85.1,145.4l12.1-9.2c8.6,2.8,11.8,24.5,13.1,38.5H85.1V145.4z"/>
	<path class="st1" d="M55.1,118.1H44.8v6.5c0,4-0.7,3.2-4.4,5.3c0,0-3.6,3-4.7,3.3c4.6,14.7,7.9,33.6,16.8,46.8h2.6h2.6
		c8.9-13.2,12.2-32.1,16.8-46.8c-1.1-0.4-4.7-3.3-4.7-3.3c-3.8-2.1-4.4-1.3-4.4-5.3v-6.5H55.1z"/>
	<path class="st1" d="M35.7,153.1c-1-0.7-22.2-16.8-22.2-16.8C3.8,139.5,1,167.1,0,180h23.2L35.7,153.1z"/>
	<path class="st2" d="M25.7,145.5l-12.1-9.2C5,139.1,1.8,160.9,0.4,174.8h25.2V145.5z"/>
	<path class="st3" d="M48.8,144.3c-9-3.3-10.2-13-8.3-14.4c-4,1.8-16,3.7-22.9,5.3l-0.1,0l-0.1,0l-0.1,0l-0.1,0l-0.1,0l-0.1,0
		l-0.2,0.1l-0.1,0l-0.1,0l-0.1,0l0,0l-0.1,0l-0.1,0l-0.1,0l-0.1,0l-0.1,0l-0.1,0l-0.3,0.1l0,0l-0.1,0l-0.1,0l-0.1,0l-0.1,0l-0.1,0
		l-0.1,0l-0.1,0l0,0l-0.1,0l-0.1,0l-0.1,0l0,0l-0.1,0l-0.2,0.1l-0.1,0l0,0l-0.2,0.1l0,0l0,0l-0.1,0.1l-0.1,0l-0.1,0l-0.2,0.1l-0.1,0
		c-0.1,0-0.1,0.1-0.2,0.1l0,0l0,0c-0.1,0-0.1,0.1-0.2,0.1l0,0c-0.1,0-0.1,0.1-0.1,0.1l0,0l0,0c0,0-0.1,0.1-0.1,0.1l0,0l0,0
		c0,0-0.1,0.1-0.1,0.1c1,2.1,2.3,9.5,3.7,18.5c-1.4,9.2-6.8,15.9-2.9,24.6h6.4h35.4h0.3h0.3h35.4h6.4c3.9-8.8-1.5-15.4-2.9-24.6
		c1.4-9.1,2.7-16.4,3.7-18.5c0,0-0.1-0.1-0.1-0.1l0,0l0,0c0,0-0.1-0.1-0.1-0.1l0,0l0,0c0,0-0.1-0.1-0.1-0.1l0,0
		c-0.1,0-0.1-0.1-0.2-0.1l0,0l0,0l-0.2-0.1l-0.1,0l-0.2-0.1l-0.1,0l-0.1,0l-0.1-0.1l0,0l0,0l-0.2-0.1l0,0l-0.1,0l-0.2-0.1l-0.1,0
		l0,0l-0.1,0l-0.1,0l-0.1,0l0,0l-0.1,0l-0.1,0l-0.1,0l-0.1,0l-0.1,0l-0.1,0l-0.1,0l0,0l-0.3-0.1l-0.1,0l-0.1,0l-0.1,0l-0.1,0l-0.1,0
		l-0.1,0l0,0l-0.1,0l-0.1,0l-0.1,0l-0.2-0.1l-0.1,0l-0.1,0l-0.1,0l-0.1,0l-0.1,0l-0.1,0c-6.9-1.6-18.9-3.4-22.9-5.3
		c1.8,1.4,0.7,11.1-8.3,14.4l0,0L58.2,157l-3.2,11.5L48.8,144.3L48.8,144.3z"/>
	<path class="st4" d="M56.2,5.3l-0.1,0c-3.1-0.1-6-0.2-6-0.2l0,0.5c-0.4,0-0.6,0-0.6,0c-12.2,0.5-23.8,7.1-31.2,17.1
		c-7.4,10.1-8.4,22.7-7.8,34.9c1.5,31.2,19,66.2,45.8,66.4c26.8-0.3,44.3-35.3,45.8-66.4c0.6-12.1-0.4-24.8-7.8-34.9
		C86.8,12.7,75.3,6.1,63,5.6c0,0-0.2,0-0.6,0l0-0.5c0,0-3,0.1-6,0.2L56.2,5.3z"/>
	<path class="st5" d="M77.1,17.4c-0.4,1.7,0,10.9,10.5,25C98.2,56.4,99,57.7,99,57.7s-1.1,21.6-1,20.5c0.1-1.1,5.8-21.7,5.8-21.7
		s2.7-11.8,0-22.8c-2.7-11-6.1-15.2-10.8-17C88.5,14.8,77.1,17.4,77.1,17.4z"/>
	<path class="st5" d="M12.6,49.3c-1.8,2.1-6.1,6.4-6.1,6.4l4.8,21.7L12.6,49.3z"/>
	<path class="st5" d="M98.6,65.7c0.5-8,5.2-34,3.2-39c-9.3-23-47.9-36.2-57-12.5c-2.7,7.1,20.2,0,21.8,9.5
		C68.7,36,84.1,57.1,98.6,65.7z"/>
	<path class="st5" d="M79.2,20.1C89.5,29.8,57.5,51.4,15.4,61C-6.1,40.3,22-16.4,68.8,4.6L79.2,20.1z"/>
	<path class="st5" d="M7.4,41.8c-2.7,18.8-7,77.3,18.2,81.8c-9.5-13.1-10.1-42.4-10.3-65.3c-0.2-15.8-1-25.2-1.2-37.8
		C10.6,25.1,8.2,36.3,7.4,41.8z"/>
	<path class="st5" d="M103.3,41.8c2.7,18.8,7,77.3-18.2,81.8c15.9-22.3,11-72.3,11.5-103.1C100.2,25.1,102.6,36.3,103.3,41.8z"/>
	<g>
		<circle class="st6" cx="37.3" cy="74.5" r="3.5"/>
		<circle class="st6" cx="75.2" cy="74.5" r="3.5"/>
	</g>
	<path class="st7" d="M49.5,92.6c0,0,0,0,0-0.1c0-0.2,0.1-0.4,0.3-0.5c1.5-2.8,4.3-11,5.6-20c1.4,0.1-1.4,15.3-2.7,18.9
		c1.2-0.2,2.8-0.3,4.4-0.3c4.2,0,7.7,0.8,7.7,1.9c0,1-3.4,1.9-7.7,1.9C53,94.4,49.7,93.6,49.5,92.6z"/>
	<g>
		<path class="st8" d="M64.6,65.9c-2.1,0.9,1.4-4.8,11.7-5c12-0.3,15.7,5.5,11,3.9C77,61.2,67.9,64.5,64.6,65.9z"/>
		<path class="st8" d="M47.9,65.9c2.1,0.9-1.4-4.8-11.7-5c-12-0.3-15.7,5.5-11,3.9C35.4,61.2,44.5,64.5,47.9,65.9z"/>
	</g>
	<path class="st9" d="M44.4,100.8c4.5,3,19.6,3.1,24.1,0C71.7,113.4,41.2,113.4,44.4,100.8z"/>
	<path class="st10" d="M39.1,129.5l3.4-1l6.3,15.9c0,0-6,5.5-11.1,5.9c-5.1,0.4-5.9-10.3-3.7-15.2C36.1,130.2,39.1,129.5,39.1,129.5
		z"/>
	<path class="st10" d="M71.6,129.5l-3.4-1L62,144.3c0,0,6,5.5,11.1,5.9c5.1,0.4,5.9-10.3,3.7-15.2C74.7,130.2,71.6,129.5,71.6,129.5
		z"/>
	<path class="st5" d="M54.6,31.6c1.7,0.4,17,1.8,17,1.8s-3.8,7.9-17.9,16.7c-14.1,8.7-30,11.9-29.5,11.5c0.4-0.4,13.3-5.3,19.9-11.1
		c6.7-5.8,9.4-10.9,9.4-10.9L54.6,31.6z"/>
	<path class="st5" d="M75.7,19.2C74.1,18.7,60.2,12,60.2,12s-0.8,8.8,6.8,23.5c7.6,14.7,19.5,25.7,19.4,25.1
		C86.3,60,77.7,49.2,75,40.8c-2.7-8.4-2.4-14.2-2.4-14.2L75.7,19.2z"/>
</g>
</svg>
