<?xml version="1.0" encoding="utf-8"?>
<!-- Generator: Adobe Illustrator 22.1.0, SVG Export Plug-In . SVG Version: 6.00 Build 0)  -->
<svg version="1.1" id="Layer_1" xmlns="http://www.w3.org/2000/svg" xmlns:xlink="http://www.w3.org/1999/xlink" x="0px" y="0px"
	 viewBox="0 0 47.9 60" style="enable-background:new 0 0 47.9 60;" xml:space="preserve">
<style type="text/css">
	.st0{fill:#CCCACA;}
</style>
<g>
	<path class="st0" d="M42.7,7.8c-3.2-0.1-6.4,1.1-8.8,3.5c-2.4,2.4-3.6,5.6-3.5,8.8c3.2,0.1,6.4-1.1,8.8-3.5
		C41.6,14.2,42.7,11,42.7,7.8z"/>
	<path class="st0" d="M31.2,26.7c2.1,2.2,5.1,3.6,8.4,3.6c3.3,0,6.3-1.4,8.4-3.6c-2.1-2.2-5.1-3.6-8.4-3.6
		C36.3,23.1,33.3,24.5,31.2,26.7z"/>
	<path class="st0" d="M15.6,35.1c0.1-3.6-1.2-7.2-3.9-9.9c-2.7-2.7-6.3-4-9.9-3.9c-0.1,3.6,1.2,7.2,3.9,9.9
		C8.5,33.9,12.1,35.2,15.6,35.1z"/>
	<path class="st0" d="M25.8,10.2c0-4-1.7-7.7-4.4-10.2c-2.7,2.6-4.4,6.2-4.4,10.2c0,4,1.7,7.7,4.4,10.2
		C24.1,17.9,25.8,14.3,25.8,10.2z"/>
	<path class="st0" d="M22.3,47.4V29.6l1.9-1.9h5.1c0.5,0,1-0.4,1-1c0-0.5-0.4-1-1-1h-3.1l3.8-3.8c0.4-0.4,0.4-1,0-1.4
		c-0.4-0.4-1-0.4-1.4,0l-6.3,6.3V22c0-0.5-0.4-1-1-1c-0.5,0-1,0.4-1,1v7.2c0,0,0,0,0,0v9.1l-2.6-2.6c-0.4-0.4-1-0.4-1.4,0
		c-0.4,0.4-0.4,1,0,1.4l4,4v6.3c-2.5,0.2-5,1.1-7.1,2.6L0,60h42.6l-13.3-9.9C27.3,48.5,24.8,47.6,22.3,47.4z"/>
</g>
</svg>
