<?xml version="1.0" encoding="utf-8"?>
<!-- Generator: Adobe Illustrator 22.1.0, SVG Export Plug-In . SVG Version: 6.00 Build 0)  -->
<svg version="1.1" id="Layer_1" xmlns="http://www.w3.org/2000/svg" xmlns:xlink="http://www.w3.org/1999/xlink" x="0px" y="0px"
	 viewBox="0 0 47.9 60" style="enable-background:new 0 0 47.9 60;" xml:space="preserve">
<style type="text/css">
	.st0{fill:#997554;}
	.st1{fill:#738F57;}
	.st2{fill:#998675;}
</style>
<g>
	<g>
		<path class="st0" d="M20.4,41.1v11.3c0,0.5,0.4,1,1,1c0.5,0,1-0.4,1-1V29.6l1.9-1.9h5.1c0.5,0,1-0.4,1-1c0-0.5-0.4-1-1-1h-3.1
			l3.8-3.8c0.4-0.4,0.4-1,0-1.4c-0.4-0.4-1-0.4-1.4,0l-6.3,6.3V22c0-0.5-0.4-1-1-1c-0.5,0-1,0.4-1,1v7.2c0,0,0,0,0,0v9.1l-2.6-2.6
			c-0.4-0.4-1-0.4-1.4,0c-0.4,0.4-0.4,1,0,1.4L20.4,41.1z"/>
		<path class="st1" d="M33.9,11.3c-2.4,2.4-3.6,5.6-3.5,8.8c3.2,0.1,6.4-1.1,8.8-3.5c2.4-2.4,3.6-5.6,3.5-8.8
			C39.5,7.7,36.3,8.9,33.9,11.3z"/>
		<path class="st1" d="M39.6,23.1c-3.3,0-6.3,1.4-8.4,3.6c2.1,2.2,5.1,3.6,8.4,3.6c3.3,0,6.3-1.4,8.4-3.6
			C45.8,24.5,42.9,23.1,39.6,23.1z"/>
		<path class="st1" d="M11.7,25.2c-2.7-2.7-6.3-4-9.9-3.9c-0.1,3.6,1.2,7.2,3.9,9.9c2.7,2.7,6.3,4,9.9,3.9
			C15.7,31.5,14.4,27.9,11.7,25.2z"/>
		<path class="st1" d="M16.9,10.2c0,4,1.7,7.7,4.4,10.2c2.7-2.6,4.4-6.2,4.4-10.2c0-4-1.7-7.7-4.4-10.2C18.6,2.6,16.9,6.2,16.9,10.2
			z"/>
	</g>
	<g>
		<path class="st2" d="M0,60l13.3-9.9c4.8-3.6,11.3-3.6,16.1,0L42.6,60H0z"/>
	</g>
</g>
</svg>
