<?xml version="1.0" encoding="utf-8"?>
<!-- Generator: Adobe Illustrator 22.1.0, SVG Export Plug-In . SVG Version: 6.00 Build 0)  -->
<svg version="1.1" id="OBJECTS" xmlns="http://www.w3.org/2000/svg" xmlns:xlink="http://www.w3.org/1999/xlink" x="0px" y="0px"
	 viewBox="0 0 80.4 130" style="enable-background:new 0 0 80.4 130;" xml:space="preserve">
<style type="text/css">
	.st0{fill-rule:evenodd;clip-rule:evenodd;fill:#443D47;}
	.st1{fill-rule:evenodd;clip-rule:evenodd;fill:#F5B67E;}
	.st2{fill-rule:evenodd;clip-rule:evenodd;fill:#4D4351;}
	.st3{fill-rule:evenodd;clip-rule:evenodd;fill:#F6C085;}
	.st4{fill-rule:evenodd;clip-rule:evenodd;fill:#F8C997;}
	.st5{fill-rule:evenodd;clip-rule:evenodd;fill:#A95C40;}
	.st6{fill-rule:evenodd;clip-rule:evenodd;fill:#3E3B3A;}
	.st7{fill-rule:evenodd;clip-rule:evenodd;fill:#D6825B;}
	.st8{fill-rule:evenodd;clip-rule:evenodd;fill:#E5B17D;}
</style>
<g>
	<path class="st0" d="M26.1,110.4c-0.7-0.5-16.7-8-16.7-8C2.3,104.7,0.7,120.6,0,130h17L26.1,110.4z"/>
	<path class="st0" d="M54.3,110.4c0.7-0.5,16.7-8,16.7-8c7.1,2.3,8.7,18.3,9.4,27.7h-17L54.3,110.4z"/>
	<path class="st1" d="M40.2,84.9h-7.5v4.7c0,2.9-0.5,2.3-3.2,3.9c0,0-2.6,2.2-3.5,2.4c3.3,10.7,5.7,24.5,12.2,34.1h1.9h1.9
		c6.5-9.7,8.9-23.4,12.2-34.1c-0.8-0.3-3.4-2.4-3.4-2.4c-2.7-1.5-3.2-0.9-3.2-3.9v-4.7H40.2z"/>
	<path class="st2" d="M40.2,110.6c-12.4-1-10.6-17-10.7-17.1c-4,1.8-18.5,7.5-20.2,8.9c1.3,2.9,3.3,14.8,5.1,27.6h25.8H66
		c1.7-12.8,3.7-24.7,5.1-27.6c-1.6-1.4-16.2-7.1-20.2-8.9C50.8,93.6,52.5,109.6,40.2,110.6z"/>
	<path class="st3" d="M60.2,51.6c-1.1,6.1,2.5,11.2,8.1,12.2c5.5,1.1,10.9-2.2,11.9-8.3c1.1-6.1-2.5-11.9-8.1-13
		C66.6,41.4,61.3,45.5,60.2,51.6z"/>
	<path class="st3" d="M21.7,51.6c1.1,6.1-2.5,11.2-8.1,12.2c-5.5,1.1-10.9-2.2-11.9-8.3c-1.1-6.1,2.5-11.9,8.1-13
		C15.3,41.4,20.6,45.5,21.7,51.6z"/>
	<path class="st4" d="M68.5,15.3C63.1,8,54.7,3.2,45.8,2.8c0,0-0.2,0-0.5,0l0-0.3c0,0-2.2,0.1-4.4,0.2c-2.2-0.1-4.4-0.2-4.4-0.2
		l0,0.3c-0.3,0-0.5,0-0.5,0C27.1,3.2,18.7,8,13.3,15.3c-5.4,7.3-6.1,16.6-5.7,25.4C8,47.4,9.1,58.2,9.5,64.9
		c8.6,32.1,54.9,32.6,62.9,0c0.3-6.7,1.5-17.5,1.8-24.2C74.6,31.9,73.9,22.7,68.5,15.3z"/>
	<path class="st5" d="M13.6,27.6c-0.4,0.9,2-8.3,7.4-8.5c5.6-0.2,40.6,2,42.4-0.4C69.3,26.2,73.7,56,74,55.9c0.8-0.2,0.9-3.1,1-3.7
		c0.6-4.4,0.7-8.9,0.7-13.3c0-8.2,2.4-23.9-12.4-33.6c-9.1-6-27.8-6.6-38.3-3.2c-7.3,2.4-14.2,8.6-16.8,15.8
		c-2.8,7.9-2.8,14.1-1.8,29.8c0.1,1.7,0.3,3.4,0.5,5.1C7,53.8,7.1,55,7.4,56.1C8.9,62,9,34.7,13.6,27.6z"/>
	<path class="st5" d="M68.8,12.6c-1.1,11.4-16,20.3-27,20.3l3.2-3C32.7,33.6,25.8,31,25.8,31c0.4,0.1,5.1-2.1,5.1-2.1
		c-7,0.2-14.1,0.3-19.6-4.8l7.9-14L68.8,12.6z"/>
	<g>
		<path class="st6" d="M24,56.6c1.4,0,2.6-1.2,2.6-2.6c0-1.4-1.2-2.6-2.6-2.6s-2.6,1.2-2.6,2.6C21.4,55.4,22.6,56.6,24,56.6z"/>
		<path class="st6" d="M57.8,56.6c1.4,0,2.6-1.2,2.6-2.6c0-1.4-1.2-2.6-2.6-2.6c-1.4,0-2.6,1.2-2.6,2.6
			C55.2,55.4,56.4,56.6,57.8,56.6z"/>
	</g>
	<path class="st5" d="M15.1,46.7c-0.9-1.4,3.5-2.4,8-2.7c7.6-0.5,12,2.9,8.3,3C28.7,47.1,15.4,47.1,15.1,46.7z"/>
	<path class="st5" d="M65.2,46.9c1-1.3-3.4-2.5-7.9-3c-7.6-0.8-12.1,2.4-8.4,2.7C51.6,46.8,64.9,47.3,65.2,46.9z"/>
	<path class="st7" d="M49.5,72.3c-1.6,8.9-15.9,8.9-17.5,0C36.3,73.3,44.3,73.3,49.5,72.3z"/>
	<path class="st8" d="M35.2,67.1C35.1,67.1,35.1,67,35.2,67.1c0-0.2,0.1-0.3,0.2-0.5c1.1-2,3.2-8,4.1-14.6c1,0.1-1,11.2-1.9,13.8
		c0.9-0.2,2-0.3,3.2-0.3c3.1,0,5.6,0.6,5.6,1.4c0,0.8-2.5,1.4-5.6,1.4C37.8,68.4,35.3,67.8,35.2,67.1z"/>
</g>
</svg>
