<?xml version="1.0" encoding="utf-8"?>
<!-- Generator: Adobe Illustrator 22.1.0, SVG Export Plug-In . SVG Version: 6.00 Build 0)  -->
<svg version="1.1" id="Layer_1" xmlns="http://www.w3.org/2000/svg" xmlns:xlink="http://www.w3.org/1999/xlink" x="0px" y="0px"
	 viewBox="0 0 51 70" style="enable-background:new 0 0 51 70;" xml:space="preserve">
<style type="text/css">
	.st0{fill:#2E6B11;}
	.st1{fill:#2A5B10;}
	.st2{fill:#264F0E;}
	.st3{fill-rule:evenodd;clip-rule:evenodd;fill:#F4F4F4;}
</style>
<g>
	<g>
		<path d="M11,64.4H9.6v-3.8c0-0.6-0.5-1-1-1H7.1c-0.6,0-1,0.4-1,1v8.4c0,0.6,0.5,1.1,1,1.1h1.4c0.6,0,1-0.5,1-1.1v-3.6H11
			c0.3,0,0.4-0.2,0.4-0.5v0C11.5,64.5,11.3,64.4,11,64.4z"/>
		<path d="M40,64.4h1.5v-3.8c0-0.6,0.5-1,1-1h1.4c0.6,0,1,0.4,1,1v8.4c0,0.6-0.5,1.1-1,1.1h-1.4c-0.6,0-1-0.5-1-1.1v-3.6H40
			c-0.3,0-0.5-0.2-0.5-0.5v0C39.6,64.5,39.8,64.4,40,64.4z"/>
		<g>
			<path class="st0" d="M25.5,0H1C0.4,0,0,0.5,0,1v3.5c0,0.6,0.4,1,1,1h0.9h23.6V0z"/>
			<path class="st1" d="M51,4.5V1c0-0.6-0.4-1-1-1H25.5v5.5h23.7h0.9C50.6,5.5,51,5.1,51,4.5z"/>
		</g>
		<g>
			<path class="st1" d="M25.5,7.6V5.5H1.9l0,1.5C7,7,16.1,7,25.5,7.6z"/>
			<path class="st0" d="M2,7l2,49.2c0,1.9,1.4,3.5,3,3.5h3.3v6.6c0,1.3,1.6,2.3,3.5,2.3h11.8V7.5C16.1,6.9,7,6.9,2,7z"/>
			<path class="st2" d="M48.9,10.9l0.2-5.4H25.5v2.1C33.8,8.1,42.2,9.1,48.9,10.9z"/>
			<path class="st1" d="M25.5,7.5v61.1h11.8c1.9,0,3.5-1,3.5-2.3v-6.6h3.3c1.7,0,3-1.6,3-3.5l1.8-45.3C42.2,9,33.8,8,25.5,7.5z"/>
		</g>
		<path id="XMLID_125_" class="st3" d="M18.3,38.8c-0.8,0-1.4-0.2-2-0.5c-0.6-0.3-1-0.7-1.1-1.1c-0.1-0.2-0.1-0.4-0.2-0.5
			c0-0.2,0-0.4-0.1-0.6c0-0.4,0-0.7,0.1-1c0.1-0.3,0.2-0.6,0.3-0.8c0.1-0.2,0.2-0.4,0.3-0.5c0.1-0.1,0.2-0.2,0.2-0.2l-1.6-0.9
			l5.2-0.2L22,37l-1.5-0.9c0,0-0.1,0.1-0.2,0.2c-0.1,0.1-0.2,0.2-0.3,0.4c-0.1,0.1-0.2,0.3-0.4,0.4c-0.1,0.1-0.2,0.3-0.2,0.3
			c-0.1,0.2-0.2,0.3-0.2,0.5c0,0.2,0.1,0.4,0.3,0.5c0.2,0.1,0.3,0.2,0.4,0.3L18.3,38.8z M33.2,39.5c0.5,0,1-0.1,1.4-0.3
			c0.4-0.2,0.8-0.4,1.1-0.7c0.3-0.3,0.5-0.5,0.7-0.7c0.1-0.2,0.2-0.3,0.3-0.4c-0.1,0.3-0.2,0.6-0.4,0.9c-0.1,0.3-0.3,0.6-0.6,1
			c-0.1,0.3-0.2,0.5-0.3,0.6c-0.1,0.3-0.2,0.5-0.4,0.8c-0.3,0.7-0.6,1.2-0.8,1.6c-0.2,0.4-0.4,0.8-0.7,1.2c-0.2,0.4-0.5,0.7-0.8,0.9
			c-0.3,0.2-0.5,0.3-0.8,0.3c-0.2,0-1.1,0-2.6,0l0,1.8l-2.7-4.4l2.7-4.3l0,1.7C31.9,39.5,33.2,39.5,33.2,39.5z M23.1,24.3
			c0.5,0,1.5,0,2.9,0c1.4,0,2.5,0,3.2,0.1c0.7,0.1,1.1,0.3,1.3,0.6c0,0.1,0.1,0.2,0.2,0.4c0.1,0.2,0.3,0.5,0.5,0.8
			c0.2,0.3,0.3,0.5,0.4,0.7c0.1,0.2,0.2,0.3,0.2,0.4l1.6-0.9l-2.2,4.8l-5.4-0.4l1.5-0.9l-1.9-3.2c-0.3-0.5-0.6-0.9-1-1.2
			c-0.4-0.3-0.7-0.5-1.1-0.7c-0.4-0.1-0.7-0.2-0.9-0.3c-0.2,0-0.4-0.1-0.5-0.1C22.2,24.4,22.6,24.4,23.1,24.3z M16.2,38.8
			c-0.6-0.3-0.9-0.6-1.1-1c0.1,0.1,0.2,0.3,0.3,0.5c0.1,0.2,0.3,0.5,0.5,0.9c0.2,0.4,0.4,0.8,0.7,1.2c0.2,0.4,0.4,0.7,0.5,0.9
			c0.1,0.1,0.1,0.2,0.1,0.2c0.2,0.4,0.4,0.7,0.5,1c0.2,0.3,0.3,0.6,0.5,0.9c0.2,0.3,0.4,0.6,0.6,0.8c0.2,0.2,0.4,0.3,0.6,0.3
			l5.8-0.1l-0.1-5.6c-3.4,0-5.8,0.1-7.1,0.1C17.4,39.2,16.7,39,16.2,38.8z M32.6,38.6c-0.3-0.4-0.8-1.3-1.7-2.6
			c-0.9-1.3-1.4-2.1-1.5-2.4l4.5-2.8c0,0.1,0.2,0.3,0.3,0.6c0.2,0.3,0.4,0.7,0.6,1.1c0.5,0.9,0.9,1.6,1.1,2.1
			c0.2,0.4,0.4,0.8,0.5,0.9c0.1,0.1,0.1,0.3,0.1,0.5c0,0.3-0.1,0.6-0.2,1c0,0.1-0.1,0.2-0.3,0.4c-0.2,0.2-0.4,0.4-0.7,0.7
			c-0.3,0.3-0.6,0.5-1.1,0.7c-0.4,0.2-0.9,0.3-1.4,0.3C33,39.2,32.9,39,32.6,38.6z M22,32.5l-4.5-2.5c0-0.1,0.2-0.4,0.6-1
			c0.1-0.1,0.3-0.4,0.6-0.9c0.3-0.5,0.6-0.9,0.8-1.3c0.2-0.4,0.4-0.7,0.6-1c0.1-0.3,0.2-0.4,0.3-0.5c0.1-0.2,0.3-0.3,0.5-0.4
			c0.2-0.1,0.5-0.2,0.9-0.3c0.1,0,0.3,0,0.6,0c0.3,0,0.6,0.1,0.9,0.3c0.4,0.1,0.7,0.4,1.1,0.7c0.4,0.3,0.7,0.7,1,1.2l0.1,0.1
			c0.1,0.1,0.1,0.2,0.2,0.3L22,32.5z"/>
	</g>
</g>
</svg>
