<?xml version="1.0" encoding="utf-8"?>
<!-- Generator: Adobe Illustrator 22.1.0, SVG Export Plug-In . SVG Version: 6.00 Build 0)  -->
<svg version="1.1" id="OBJECTS" xmlns="http://www.w3.org/2000/svg" xmlns:xlink="http://www.w3.org/1999/xlink" x="0px" y="0px"
	 viewBox="0 0 69.9 70" style="enable-background:new 0 0 69.9 70;" xml:space="preserve">
<style type="text/css">
	.st0{fill:#FBB03B;}
	.st1{fill:#C12B48;}
	.st2{fill:#E1435A;}
	.st3{opacity:0.3;fill:#8D294F;}
	.st4{fill:#2C2324;}
	.st5{fill:#FAF4E4;}
	.st6{fill:#7B8793;}
</style>
<g>
	<g>
		<rect x="31.1" y="9.2" class="st0" width="8.5" height="6.6"/>
		<polygon class="st1" points="63.9,10 5.9,10 2.4,3.1 67.6,3.1 		"/>
		<rect class="st2" width="69.9" height="3.1"/>
	</g>
	<path class="st3" d="M37.8,0c0.6,1.1,0.9,2.4,0.9,3.6c0,2.1-0.9,4.2-2.3,5.7c-1.4,1.4-3.3,2.2-5.2,2.3v4.1h8.5V10h24.4l3.7-6.9h2.3
		V0H37.8z"/>
	<g>
		<g>
			<path class="st2" d="M61.7,64.4V40.3c0-14.6-11.8-26.4-26.4-26.4c-14.6,0-26.4,11.8-26.4,26.4v24.1h-3V70h58.8v-5.6H61.7z"/>
		</g>
		<path class="st3" d="M61.7,64.4V40.3c0-13.6-10.4-24.9-23.7-26.2c5.8,3.7,8.3,11.3,7.4,18.3C44.3,41.3,40.8,49,35,55.9
			C29.2,62.7,21.7,67.2,13.6,70h51.1v-5.6H61.7z"/>
	</g>
	<g>
		<g>
			<circle class="st4" cx="34.7" cy="42" r="18.2"/>
			<circle class="st5" cx="34.7" cy="42" r="17.4"/>
			<path class="st0" d="M28.2,42c0-3.6,2.9-6.5,6.5-6.5c3.6,0,6.5,2.9,6.5,6.5s-2.9,6.5-6.5,6.5C31.1,48.4,28.2,45.5,28.2,42z"/>
			<path class="st6" d="M31.8,42c0-1.6,1.3-2.9,2.9-2.9c1.6,0,2.9,1.3,2.9,2.9s-1.3,2.9-2.9,2.9C33.1,44.9,31.8,43.6,31.8,42z"/>
		</g>
		<g>
			
				<rect x="38.8" y="41.2" transform="matrix(0.6639 -0.7478 0.7478 0.6639 -21.5773 44.8112)" class="st4" width="0.6" height="10.5"/>
			<g>
				<g>
					<rect x="34.7" y="25" class="st6" width="0.6" height="3.9"/>
					<rect x="34.7" y="55.2" class="st6" width="0.6" height="3.9"/>
					<rect x="17.6" y="42.1" class="st6" width="3.9" height="0.6"/>
					<rect x="47.7" y="42.1" class="st6" width="3.9" height="0.6"/>
				</g>
			</g>
		</g>
	</g>
</g>
</svg>
