<?xml version="1.0" encoding="utf-8"?>
<!-- Generator: Adobe Illustrator 22.1.0, SVG Export Plug-In . SVG Version: 6.00 Build 0)  -->
<svg version="1.1" id="Objects" xmlns="http://www.w3.org/2000/svg" xmlns:xlink="http://www.w3.org/1999/xlink" x="0px" y="0px"
	 viewBox="0 0 29.7 67.2" style="enable-background:new 0 0 29.7 67.2;" xml:space="preserve">
<style type="text/css">
	.st0{fill:#FFD3AD;}
	.st1{fill:#6E4315;}
	.st2{fill:#FFAB00;}
	.st3{fill:#AF6617;}
	.st4{fill:#454C53;}
	.st5{fill:#433934;}
</style>
<g>
	<path class="st0" d="M21.6,10c0,5.1-4.7,9.3-9.1,9.3c-4.4,0-9.1-4.2-9.1-9.3c0-5.1,4.1-9.3,9.1-9.3C17.6,0.7,21.6,4.8,21.6,10z"/>
	<rect x="9.5" y="18.5" class="st0" width="6" height="2.8"/>
	<path class="st0" d="M12.6,20.6L12.6,20.6C5.7,20.6,2.1,24,2.1,30.7L0,46.1v1.3v0.7c0,0.9,0.7,1.7,1.6,1.7c0.9,0,1.6-0.7,1.6-1.7
		V47H4l1.1-9l0.5-7.9c0-4.5,2.4-4.7,6.9-4.7l0.1,0.2c4.5,0,6.9-0.1,6.9,4.4L21,47h0.5v1.1c0,0.9,1,1.7,1.9,1.7
		c0.9,0,1.9-0.7,1.9-1.7v-0.7l-0.3-1.2l-2.4-15.4C22.7,24,19.3,20.6,12.6,20.6z"/>
	<path class="st1" d="M6.2,39.3L6,65.7h4c0,0,1-20.2,2.4-20.2c1.4,0,2.4,20.2,2.4,20.2h3.9l0.1-26.4H6.2z"/>
	<path class="st2" d="M12.6,22.3c-2,0-2.7-1.6-2.8-1.6c-4.1,0.7-6.7,3.2-7.4,7.2C2.2,28.8,0,45.2,0,45.2h4.3l1.8-13.6l0.1,10.9
		l12.6,0.2l0.3-10.8l1.8,13.3H25c0,0-2.3-17.4-2.7-18.6c-1-3.2-3.4-5.3-6.9-5.9C15.4,20.7,14.6,22.3,12.6,22.3z"/>
	<g>
		<path class="st3" d="M6.2,66c0,0-1.7,0.4-2.6,0.6c-0.9,0.2-1.4,1.4,0.3,1.5c1.6,0,6.3,0,6.3,0l0-2.2L6.2,66z"/>
		<path class="st4" d="M2.9,67.6C3.1,67.8,3.4,67.9,4,68c1.6,0,6.2,0,6.2,0v-0.4H2.9z"/>
	</g>
	<g>
		<path class="st3" d="M18.7,65.7c0,0,1.9,0.6,2.8,0.8c0.9,0.2,1.2,1.4-0.4,1.4c-1.6,0-5.9,0-5.9,0v-2.3H18.7z"/>
		<path class="st4" d="M22.2,67.6c-0.2,0.2-0.5,0.4-1.1,0.4c-1.6,0-6.1,0-6.1,0v-0.4H22.2z"/>
	</g>
	<path class="st5" d="M21.5,9.2c0,0-3.8-2.8-4.2-6c0,0-4,2-7.1,3.2c-3.1,1.2-6.7,4.5-6.7,4.5s-1.3-5.2,3-8.5c4.4-3.3,8.9-2.5,11.1-1
		C19.7,2.8,21.6,6.4,21.5,9.2z"/>
</g>
</svg>
