<?xml version="1.0" encoding="utf-8"?>
<!-- Generator: Adobe Illustrator 22.1.0, SVG Export Plug-In . SVG Version: 6.00 Build 0)  -->
<svg version="1.1" id="Objects" xmlns="http://www.w3.org/2000/svg" xmlns:xlink="http://www.w3.org/1999/xlink" x="0px" y="0px"
	 viewBox="0 0 22.8 59" style="enable-background:new 0 0 22.8 59;" xml:space="preserve">
<style type="text/css">
	.st0{fill:#6E4315;}
	.st1{fill:#FFD3AD;}
	.st2{fill:#FFAB00;}
	.st3{fill:none;stroke:#FFFFFF;stroke-width:2.6551;stroke-linecap:round;stroke-miterlimit:10;stroke-dasharray:0,2.2126;}
	.st4{fill:#AF6617;}
</style>
<g>
	<path class="st0" d="M7.8,2c0,0-1.3-2.6-4.2-1.9c-2.8,0.7-3.8,5-2.8,9.6c1,4.5-0.4,5.7-0.4,5.7s3.8,0.7,5.4-1.5
		C7.4,11.7,7.6,2.3,7.6,2.3"/>
	<path class="st0" d="M15.4,2c0,0,1.3-2.6,4.2-1.9c2.8,0.7,3.8,5,2.8,9.6c-1,4.5,0.4,5.7,0.4,5.7s-3.8,0.7-5.4-1.5
		c-1.6-2.2-1.8-11.6-1.8-11.6"/>
	<path class="st1" d="M19.5,27c0-4.5-1.5-7.1-5.8-7.8v-3.9H9.3v3.9C5,20,3.2,22.5,3.2,27L0.4,39.6l2.9,0.7l2.8-13.8
		c0-3.5,4.8-1.6,4.8-1.6c3.5,0,5.3-1.9,5.3,1.6l2.9,13.8l3-0.7L19.5,27z"/>
	<path class="st1" d="M11.4,39.9l4-0.1l-1.2,15.5c0,0,2.3,2.2,0.8,2.5c-2.6,0.4-3.4-2.4-3.4-2.4S11.7,45.5,11.4,39.9z"/>
	<path class="st2" d="M14,55.1c0,0,3,3,0.9,3.8c-1.6,0.6-3.6-0.8-3.6-3.5c0,0,2.4,2.6,3,2.2C14.9,57.2,14,55.1,14,55.1z"/>
	<path class="st1" d="M10.9,39.9l-4-0.1l1.2,15.5c0,0-2.3,2.2-0.8,2.5c2.6,0.4,3.4-2.4,3.4-2.4S10.6,45.5,10.9,39.9z"/>
	<path class="st2" d="M7.9,55.1c0,0-3,3-0.9,3.8c1.6,0.6,3.6-0.8,3.6-3.5c0,0-2.4,2.6-3,2.2C7,57.2,7.9,55.1,7.9,55.1z"/>
	<path class="st2" d="M18.1,43c-0.6-2.4-0.9-14.2-6.8-14.2S4.9,40.6,4.3,43H18.1z"/>
	<path class="st1" d="M19.9,9.5c0,4.9-4.5,9-8.7,9s-8.7-4-8.7-9c0-4.9,3.9-9,8.7-9S19.9,4.6,19.9,9.5z"/>
	<path class="st1" d="M2.6,41c-0.2,0.7-0.9,1.1-1.6,0.9l0,0C0.3,41.7-0.1,41,0,40.3l0.4-1.7C0.6,38,1.3,37.5,2,37.7l0,0
		c0.7,0.2,1.1,0.9,0.9,1.6L2.6,41z"/>
	<path class="st3" d="M4.1,38.5"/>
	<path class="st1" d="M19.8,41c0.2,0.7,0.9,1.1,1.6,0.9l0,0c0.7-0.2,1.1-0.9,0.9-1.6l-0.4-1.7c-0.2-0.7-0.9-1.1-1.6-0.9l0,0
		c-0.7,0.2-1.1,0.9-0.9,1.6L19.8,41z"/>
	<path class="st2" d="M19,23.5c-0.8-3.3-4.3-4-4.3-4l-3.5,4.9l-3.5-4.9c0,0-3.5,0.7-4.3,4c-0.5,2.2-0.9,5.1-0.9,5.1l3.6,0.1l0,7l5-2
		l5,2l0-7l3.6-0.1C19.8,28.6,19.5,25.7,19,23.5z"/>
	<line class="st3" x1="22" y1="37.5" x2="18.5" y2="38.2"/>
	<path class="st4" d="M11.6,5c-0.1-0.1-0.3-0.2-0.5,0.2C10,7,6.6,12,2.7,11.6c0,0-0.8-2.3,0-4.9c0.9-3,3.6-6.3,9-6.2
		c5.8,0.1,7.8,4.2,8.1,7.6c0.2,2.7-0.4,3.8-0.4,3.8S13.8,10.7,11.6,5z"/>
</g>
</svg>
