<?xml version="1.0" encoding="utf-8"?>
<!-- Generator: Adobe Illustrator 22.1.0, SVG Export Plug-In . SVG Version: 6.00 Build 0)  -->
<svg version="1.1" id="Objects" xmlns="http://www.w3.org/2000/svg" xmlns:xlink="http://www.w3.org/1999/xlink" x="0px" y="0px"
	 viewBox="0 0 29.8 80" style="enable-background:new 0 0 29.8 80;" xml:space="preserve">
<style type="text/css">
	.st0{fill:#FFD3AD;}
	.st1{fill:#433934;}
	.st2{fill:#89B9BB;}
	.st3{fill:#AF6617;}
	.st4{fill:#454C53;}
</style>
<g>
	<path class="st0" d="M25.1,12.5c0,6-5.5,10.8-10.5,10.8c-5.1,0-10.5-4.8-10.5-10.8c0-6,4.7-10.8,10.5-10.8
		C20.4,1.7,25.1,6.5,25.1,12.5z"/>
	<rect x="11.5" y="22.5" class="st0" width="7" height="3.1"/>
	<path class="st0" d="M14.6,24.8h-0.1c-7.9,0-12,4-12,11.9L0.2,54.5V56v0.9c0,1.1,0.9,1.9,1.9,1.9c1.1,0,1.9-0.9,1.9-1.9v-1h0.5
		l1.3-10.6L6.4,36c0-5.3,2.8-5.5,8.1-5.5l0.1,0.2c5.3,0,8.1,0,8.1,5.3l1.8,19.9h0.7v1c0,1.1,1.3,1.9,2.3,1.9c1.1,0,2.3-0.9,2.3-1.9
		V56l-0.4-1.4l-2.9-18C26.4,28.8,22.5,24.8,14.6,24.8z"/>
	<path class="st1" d="M7.3,46.6L7,77.3h4.6c0,0,1.2-23.5,2.8-23.5c1.6,0,2.8,23.5,2.8,23.5h4.5l0.1-30.7H7.3z"/>
	<path class="st2" d="M14.6,29.2c0,0-3.1-4.2-3.2-4.2c-4.8,0.8-7.8,3.7-8.6,8.4C2.5,34.4,0,53.6,0,53.6h5l2.1-15.9l0.1,12.7
		l14.7,0.2l0.4-12.5l2,15.5h4.8c0,0-2.6-20.2-3.1-21.6c-1.2-3.7-3.9-6.2-8.1-6.9L14.6,29.2z"/>
	<g>
		<path class="st3" d="M7.1,77.4c0,0-1.9,0.6-3,0.9C3,78.5,2.5,79.9,4.4,80c1.9,0.1,7.3,0,7.3,0l0-2.6L7.1,77.4z"/>
		<path class="st4" d="M3.4,79.5c0.2,0.2,0.6,0.4,1.3,0.5c1.9,0.1,7.2,0,7.2,0v-0.5H3.4z"/>
		<path class="st4" d="M6,79.2c0,0-0.1-0.5-0.1-0.5c0-0.1-0.2-0.6-0.2-0.5c0-0.1-0.1-0.2-0.2-0.3C5,78.1,4.4,78.3,4,78.3
			c-1.1,0.2-1.2,1.5,0.7,1.6c0.4,0,0.8,0,1.4,0C6.1,79.7,6.1,79.5,6,79.2z"/>
	</g>
	<g>
		<path class="st3" d="M21.7,77.3c0,0,2.2,0.7,3.3,0.9c1.1,0.2,1.5,1.6-0.5,1.6c-1.9,0.1-7.2,0-7.2,0v-2.6H21.7z"/>
		<path class="st4" d="M25.8,79.5c-0.2,0.2-0.6,0.4-1.3,0.5c-1.9,0.1-7.1,0-7.1,0v-0.5H25.8z"/>
		<path class="st4" d="M23.2,79.2c0,0,0.1-0.5,0.1-0.5c0-0.1,0.2-0.6,0.2-0.5c0-0.1,0.1-0.2,0.2-0.3c0.6,0.2,1.2,0.3,1.6,0.4
			c1.1,0.2,1.2,1.5-0.7,1.6c-0.4,0-0.8,0-1.4,0C23.1,79.7,23.1,79.5,23.2,79.2z"/>
	</g>
	<path class="st3" d="M22.6,17c-0.6,1.7-3.1,3.6-3.8,2.7c-0.6-1-1.7-3.4-4.4-3.4c-2.7,0-3.8,2.4-4.4,3.4c-0.6,1-3.1-1-3.8-2.7
		c-0.6-1.7-2.3-3.4-2.3-3.4s0.4,6.3,3.8,7.9c3.4,1.6,4,2.6,6.6,2.6c2.7,0,3.2-1,6.6-2.6c3.4-1.6,3.8-7.9,3.8-7.9S23.3,15.3,22.6,17z
		 M14.6,19.6c-1.6,0-2.3-1.2,0-1.2C17.7,18.4,16.2,19.6,14.6,19.6z"/>
	<path class="st3" d="M4.1,11.6c0,0,4.4-3.3,4.9-7c0,0,4.6,2.3,8.2,3.8c3.6,1.5,5,0.4,5,0.4l2.8,4.9c0,0,1.6-6.1-3.5-9.9
		c-5.1-3.9-8.4-2.5-8.4-2.5L13.2,0c0,0-3.5,0.7-4.6,2.4c0,0-2.1,0.8-3,2.1l0.6,0.4C6.2,4.8,3.9,8.4,4.1,11.6z"/>
</g>
</svg>
