<?xml version="1.0" encoding="utf-8"?>
<!-- Generator: Adobe Illustrator 22.1.0, SVG Export Plug-In . SVG Version: 6.00 Build 0)  -->
<svg version="1.1" id="Objects" xmlns="http://www.w3.org/2000/svg" xmlns:xlink="http://www.w3.org/1999/xlink" x="0px" y="0px"
	 viewBox="0 0 30.3 78" style="enable-background:new 0 0 30.3 78;" xml:space="preserve">
<style type="text/css">
	.st0{fill:#6E4315;}
	.st1{fill:#FFD3AD;}
	.st2{fill:#433934;}
	.st3{fill:none;stroke:#FFFFFF;stroke-width:3.6021;stroke-linecap:round;stroke-miterlimit:10;stroke-dasharray:0,3.0017;}
	.st4{fill:#89B9BB;}
	.st5{fill:#AF6617;}
</style>
<g>
	<polygon class="st0" points="6.2,25.4 6.3,14.1 15.8,13.6 25.2,16.9 24.3,25.4 	"/>
	<path class="st1" d="M26.3,34.6c0-6.1-2.2-9.6-8-10.5v-2.2h-5.8v2.2C6.5,25,4.2,28.5,4.2,34.6l-3.7,17l4,1l3.9-18.7
		c0-4.7,6.5-2.2,6.5-2.2c4.8,0,7.2-2.6,7.2,2.2l3.9,18.7l4-1L26.3,34.6z"/>
	<path class="st1" d="M15.4,52l5.5-0.1l-1.7,21c0,0,3.1,3,1,3.4c-3.5,0.5-4.6-3.2-4.6-3.2S15.8,59.7,15.4,52z"/>
	<path class="st2" d="M19,72.7c0,0,4.1,4,1.3,5.1c-2.2,0.9-4.9-1.1-4.8-4.7c0,0,3.2,3.5,4,3C20.2,75.6,19,72.7,19,72.7z"/>
	<path class="st1" d="M14.7,52l-5.5-0.1l1.7,21c0,0-3.1,3-1,3.4c3.5,0.5,4.6-3.2,4.6-3.2S14.3,59.7,14.7,52z"/>
	<path class="st2" d="M10.8,72.7c0,0-4.1,4-1.3,5.1c2.2,0.9,4.9-1.1,4.8-4.7c0,0-3.2,3.5-4,3C9.5,75.6,10.8,72.7,10.8,72.7z"/>
	<path class="st2" d="M26.8,56.3c-0.8-3.3-3.6-19.2-11.5-19.2C7.4,37.1,4.6,53,3.9,56.3H26.8z"/>
	<path class="st1" d="M25.3,12.9c0,5.8-5.3,10.5-10.2,10.5c-4.9,0-10.2-4.7-10.2-10.5c0-5.8,4.6-10.5,10.2-10.5
		C20.7,2.4,25.3,7.1,25.3,12.9z"/>
	<path class="st1" d="M3.5,53.5c-0.2,0.9-1.2,1.5-2.1,1.3l0,0c-0.9-0.2-1.5-1.2-1.3-2.1l0.6-2.3c0.2-0.9,1.2-1.5,2.1-1.3l0,0
		c0.9,0.2,1.5,1.2,1.3,2.1L3.5,53.5z"/>
	<path class="st3" d="M5.6,50.2"/>
	<path class="st1" d="M26.8,53.5c0.2,0.9,1.2,1.5,2.1,1.3l0,0c0.9-0.2,1.5-1.2,1.3-2.1l-0.6-2.3c-0.2-0.9-1.2-1.5-2.1-1.3l0,0
		c-0.9,0.2-1.5,1.2-1.3,2.1L26.8,53.5z"/>
	<path class="st4" d="M25.8,29.9c-1.1-4.4-5.8-5.4-5.8-5.4l-4.8,6.6l-4.8-6.6c0,0-4.7,1-5.8,5.4c-0.7,3-1.2,6.9-1.2,6.9L8.3,37l0,5
		l6.8,1.8L22,42l0-5l4.9-0.2C26.9,36.8,26.5,32.9,25.8,29.9z"/>
	<line class="st3" x1="29.9" y1="48.8" x2="25" y2="49.8"/>
	<path class="st5" d="M23.7,26.1c0,0,0.4-8-0.2-13.7c-0.3-3.1-2.2-5.6-2.2-5.6S19,8.9,12.5,9.7C9.9,10,7,10.2,7,10.2
		S6.8,24.4,7.2,26.1H5.3C1.8,12,5.8,0.2,13.3,0c4.6-0.1,6.4,1.9,6.4,1.9s3.4-0.9,5.5,4.9c2.1,5.9,0.4,19.3,0.4,19.3H23.7z"/>
</g>
</svg>
