<?xml version="1.0" encoding="utf-8"?>
<!-- Generator: Adobe Illustrator 22.1.0, SVG Export Plug-In . SVG Version: 6.00 Build 0)  -->
<svg version="1.1" id="objects" xmlns="http://www.w3.org/2000/svg" xmlns:xlink="http://www.w3.org/1999/xlink" x="0px" y="0px"
	 viewBox="0 0 80 80" style="enable-background:new 0 0 80 80;" xml:space="preserve">
<style type="text/css">
	.st0{fill:#43A047;}
	.st1{opacity:0.54;}
	.st2{clip-path:url(#SVGID_2_);}
	.st3{opacity:0.5;fill:#43A047;}
	.st4{fill:#F9A825;}
	.st5{fill:#4DD0E1;}
	.st6{fill:#26C6DA;}
	.st7{fill:#FDD835;}
	.st8{fill:#EF5350;}
	.st9{fill:#E53935;}
</style>
<g>
	<circle class="st0" cx="40" cy="40" r="40"/>
	<g class="st1">
		<defs>
			<circle id="SVGID_1_" class="st1" cx="40" cy="40" r="40"/>
		</defs>
		<clipPath id="SVGID_2_">
			<use xlink:href="#SVGID_1_"  style="overflow:visible;"/>
		</clipPath>
		<g class="st2">
			<path class="st3" d="M81.3,74.8l4.5-2.3l4.5,2.3l-4.5,7.9L81.3,74.8z M92.1,114.3v-1.6h-1l2.5-23.5h-3.9v-2.5L96.9,63l-5,8.8
				l-0.6-3.4l5.6-5.4l-7.7-1.1l-3.4-7l-3.4,7L74.6,63l5.6,5.4l-0.6,3.4l-5-8.8l7.3,23.8v2.5H78l0,0l2.5,23.5h-1v1.6h-1.3l-0.5,2.4
				h16.2l-0.5-2.4H92.1z"/>
			<path class="st3" d="M81.1,74.6l4.5-2.3l4.5,2.3l-4.5,7.9L81.1,74.6z M91.8,114.1v-1.6h-1l2.5-23.5h-3.9v-2.5l7.3-23.8l-5,8.8
				l-0.6-3.4l5.6-5.4L89,61.6l-3.4-7l-3.4,7l-7.7,1.1l5.6,5.4l-0.6,3.4l-5-8.8l7.3,23.8v2.5h-3.9l0,0l2.5,23.5h-1v1.6H78l-0.5,2.4
				h16.2l-0.5-2.4H91.8z"/>
			<path class="st3" d="M80.9,74.3l4.5-2.3l4.5,2.3l-4.5,7.9L80.9,74.3z M91.6,113.9v-1.6h-1l2.5-23.5h-3.9v-2.5l7.3-23.8l-5,8.8
				L90.9,68l5.6-5.4l-7.7-1.1l-3.4-7l-3.4,7l-7.7,1.1l5.6,5.4l-0.6,3.4l-5-8.8l7.3,23.8v2.5h-3.9l0,0l2.5,23.5h-1v1.6h-1.3l-0.5,2.4
				h16.2l-0.5-2.4H91.6z"/>
			<path class="st3" d="M80.6,74.1l4.5-2.3l4.5,2.3L85.1,82L80.6,74.1z M91.4,113.6v-1.6h-1l2.5-23.5H89v-2.5l7.3-23.8l-5,8.8
				l-0.6-3.4l5.6-5.4l-7.7-1.1l-3.4-7l-3.4,7l-7.7,1.1l5.6,5.4l-0.6,3.4l-5-8.8l7.3,23.8v2.5h-3.9l0,0l2.5,23.5h-1v1.6h-1.3L77,116
				h16.2l-0.5-2.4H91.4z"/>
			<path class="st3" d="M80.4,73.9l4.5-2.3l4.5,2.3l-4.5,7.9L80.4,73.9z M91.1,113.4v-1.6h-1l2.5-23.5h-3.9v-2.5L96,62.1l-5,8.8
				l-0.6-3.4l5.6-5.4l-7.7-1.1l-3.4-7l-3.4,7l-7.7,1.1l5.6,5.4l-0.6,3.4l-5-8.8L81,85.9v2.5h-3.9l0,0l2.5,23.5h-1v1.6h-1.3l-0.5,2.4
				H93l-0.5-2.4H91.1z"/>
			<path class="st3" d="M80.2,73.7l4.5-2.3l4.5,2.3l-4.5,7.9L80.2,73.7z M90.9,113.2v-1.6h-1l2.5-23.5h-3.9v-2.5l7.3-23.8l-5,8.8
				l-0.6-3.4l5.6-5.4l-7.7-1.1l-3.4-7l-3.4,7l-7.7,1.1l5.6,5.4l-0.6,3.4l-5-8.8l7.3,23.8v2.5h-3.9l0,0l2.5,23.5h-1v1.6h-1.3
				l-0.5,2.4h16.2l-0.5-2.4H90.9z"/>
			<path class="st3" d="M80,73.4l4.5-2.3l4.5,2.3l-4.5,7.9L80,73.4z M90.7,113v-1.6h-1l2.5-23.5h-3.9v-2.5l7.3-23.8l-5,8.8L90,67
				l5.6-5.4l-7.7-1.1l-3.4-7l-3.4,7l-7.7,1.1l5.6,5.4l-0.6,3.4l-5-8.8l7.3,23.8v2.5h-3.9l0,0l2.5,23.5h-1v1.6h-1.3l-0.5,2.4h16.2
				L92,113H90.7z"/>
			<path class="st3" d="M79.7,73.2l4.5-2.3l4.5,2.3l-4.5,7.9L79.7,73.2z M90.5,112.7v-1.6h-1l2.5-23.5h-3.9v-2.5l7.3-23.8l-5,8.8
				l-0.6-3.4l5.6-5.4l-7.7-1.1l-3.4-7l-3.4,7L73,61.4l5.6,5.4L78,70.2l-5-8.8l7.3,23.8v2.5h-3.9l0,0l2.5,23.5h-1v1.6h-1.3l-0.5,2.4
				h16.2l-0.5-2.4H90.5z"/>
			<path class="st3" d="M79.5,73l4.5-2.3l4.5,2.3L84,80.8L79.5,73z M90.2,112.5v-1.6h-1l2.5-23.5h-3.9V85l7.3-23.8l-5,8.8l-0.6-3.4
				l5.6-5.4L87.4,60L84,53l-3.4,7l-7.7,1.1l5.6,5.4L77.8,70l-5-8.8L80.1,85v2.5h-3.9l0,0l2.5,23.5h-1v1.6h-1.3l-0.5,2.4H92l-0.5-2.4
				H90.2z"/>
			<path class="st3" d="M79.3,72.8l4.5-2.3l4.5,2.3l-4.5,7.9L79.3,72.8z M90,112.3v-1.6h-1l2.5-23.5h-3.9v-2.5l7.3-23.8l-5,8.8
				l-0.6-3.4l5.6-5.4l-7.7-1.1l-3.4-7l-3.4,7l-7.7,1.1l5.6,5.4l-0.6,3.4l-5-8.8l7.3,23.8v2.5H76l0,0l2.5,23.5h-1v1.6h-1.3l-0.5,2.4
				h16.2l-0.5-2.4H90z"/>
			<path class="st3" d="M79,72.5l4.5-2.3l4.5,2.3l-4.5,7.9L79,72.5z M89.8,112v-1.6h-1L91.3,87h-3.9v-2.5l7.3-23.8l-5,8.8l-0.6-3.4
				l5.6-5.4l-7.7-1.1l-3.4-7l-3.4,7l-7.7,1.1l5.6,5.4l-0.6,3.4l-5-8.8l7.3,23.8V87h-3.9l0,0l2.5,23.5h-1v1.6h-1.3l-0.5,2.4h16.2
				l-0.5-2.4H89.8z"/>
			<path class="st3" d="M78.8,72.3l4.5-2.3l4.5,2.3l-4.5,7.9L78.8,72.3z M89.5,111.8v-1.6h-1L91,86.8h-3.9v-2.5l7.3-23.8l-5,8.8
				l-0.6-3.4l5.6-5.4l-7.7-1.1l-3.4-7l-3.4,7l-7.7,1.1l5.6,5.4l-0.6,3.4l-5-8.8l7.3,23.8v2.5h-3.9l0,0l2.5,23.5h-1v1.6h-1.3
				l-0.5,2.4h16.2l-0.5-2.4H89.5z"/>
			<path class="st3" d="M78.6,72.1l4.5-2.3l4.5,2.3L83,79.9L78.6,72.1z M89.3,111.6V110h-1l2.5-23.5h-3.9v-2.5l7.3-23.8l-5,8.8
				l-0.6-3.4l5.6-5.4l-7.7-1.1l-3.4-7l-3.4,7l-7.7,1.1l5.6,5.4l-0.6,3.4l-5-8.8l7.3,23.8v2.5h-3.9l0,0l2.5,23.5h-1v1.6h-1.3
				l-0.5,2.4h16.2l-0.5-2.4H89.3z"/>
			<path class="st3" d="M78.4,71.8l4.5-2.3l4.5,2.3l-4.5,7.9L78.4,71.8z M89.1,111.4v-1.6h-1l2.5-23.5h-3.9v-2.5L94,60l-5,8.8
				l-0.6-3.4L94,60l-7.7-1.1l-3.4-7l-3.4,7L71.7,60l5.6,5.4l-0.6,3.4l-5-8.8l7.3,23.8v2.5h-3.9l0,0l2.5,23.5h-1v1.6h-1.3l-0.5,2.4
				h16.2l-0.5-2.4H89.1z"/>
			<path class="st3" d="M78.1,71.6l4.5-2.3l4.5,2.3l-4.5,7.9L78.1,71.6z M88.9,111.1v-1.6h-1l2.5-23.5h-3.9v-2.5l7.3-23.8l-5,8.8
				l-0.6-3.4l5.6-5.4L86,58.7l-3.4-7l-3.4,7l-7.7,1.1l5.6,5.4l-0.6,3.4l-5-8.8l7.3,23.8v2.5h-3.9l0,0l2.5,23.5h-1v1.6H75l-0.5,2.4
				h16.2l-0.5-2.4H88.9z"/>
			<path class="st3" d="M77.9,71.4l4.5-2.3l4.5,2.3l-4.5,7.9L77.9,71.4z M88.6,110.9v-1.6h-1l2.5-23.5h-3.9v-2.5l7.3-23.8l-5,8.8
				L87.9,65l5.6-5.4l-7.7-1.1l-3.4-7l-3.4,7l-7.7,1.1l5.6,5.4l-0.6,3.4l-5-8.8l7.3,23.8v2.5h-3.9l0,0l2.5,23.5h-1v1.6h-1.3l-0.5,2.4
				h16.2l-0.5-2.4H88.6z"/>
			<path class="st3" d="M77.7,71.2l4.5-2.3l4.5,2.3L82.1,79L77.7,71.2z M88.4,110.7v-1.6h-1l2.5-23.5H86v-2.5l7.3-23.8l-5,8.8
				l-0.6-3.4l5.6-5.4l-7.7-1.1l-3.4-7l-3.4,7L71,59.3l5.6,5.4L76,68.1l-5-8.8l7.3,23.8v2.5h-3.9l0,0l2.5,23.5h-1v1.6h-1.3L74,113
				h16.2l-0.5-2.4H88.4z"/>
			<path class="st3" d="M77.5,70.9l4.5-2.3l4.5,2.3l-4.5,7.9L77.5,70.9z M88.2,110.4v-1.6h-1l2.5-23.5h-3.9v-2.5l7.3-23.8l-5,8.8
				l-0.6-3.4l5.6-5.4L85.4,58l-3.4-7l-3.4,7l-7.7,1.1l5.6,5.4l-0.6,3.4l-5-8.8L78,82.9v2.5h-3.9l0,0l2.5,23.5h-1v1.6h-1.3l-0.5,2.4
				H90l-0.5-2.4H88.2z"/>
			<path class="st3" d="M77.2,70.7l4.5-2.3l4.5,2.3l-4.5,7.9L77.2,70.7z M88,110.2v-1.6h-1l2.5-23.5h-3.9v-2.5l7.3-23.8l-5,8.8
				l-0.6-3.4l5.6-5.4l-7.7-1.1l-3.4-7l-3.4,7l-7.7,1.1l5.6,5.4l-0.6,3.4l-5-8.8l7.3,23.8v2.5h-3.9l0,0l2.5,23.5h-1v1.6h-1.3
				l-0.5,2.4h16.2l-0.5-2.4H88z"/>
			<path class="st3" d="M77,70.5l4.5-2.3l4.5,2.3l-4.5,7.9L77,70.5z M87.7,110v-1.6h-1L89.2,85h-3.9v-2.5l7.3-23.8l-5,8.8L87,64.1
				l5.6-5.4l-7.7-1.1l-3.4-7l-3.4,7l-7.7,1.1l5.6,5.4l-0.6,3.4l-5-8.8l7.3,23.8V85h-3.9l0,0l2.5,23.5h-1v1.6h-1.3l-0.5,2.4h16.2
				L89,110H87.7z"/>
			<path class="st3" d="M76.8,70.2l4.5-2.3l4.5,2.3l-4.5,7.9L76.8,70.2z M87.5,109.8v-1.6h-1L89,84.7h-3.9v-2.5l7.3-23.8l-5,8.8
				l-0.6-3.4l5.6-5.4l-7.7-1.1l-3.4-7l-3.4,7l-7.7,1.1l5.6,5.4l-0.6,3.4l-5-8.8l7.3,23.8v2.5h-3.9l0,0l2.5,23.5h-1v1.6h-1.3
				l-0.5,2.4h16.2l-0.5-2.4H87.5z"/>
			<path class="st3" d="M76.5,70l4.5-2.3l4.5,2.3L81,77.9L76.5,70z M87.3,109.5V108h-1l2.5-23.5h-3.9V82l7.3-23.8l-5,8.8l-0.6-3.4
				l5.6-5.4l-7.7-1.1l-3.4-7l-3.4,7l-7.7,1.1l5.6,5.4L74.8,67l-5-8.8L77.1,82v2.5h-3.9l0,0l2.5,23.5h-1v1.6h-1.3l-0.5,2.4h16.2
				l-0.5-2.4H87.3z"/>
			<path class="st3" d="M76.3,69.8l4.5-2.3l4.5,2.3l-4.5,7.9L76.3,69.8z M87,109.3v-1.6h-1l2.5-23.5h-3.9v-2.5L91.9,58l-5,8.8
				l-0.6-3.4l5.6-5.4l-7.7-1.1l-3.4-7l-3.4,7L69.6,58l5.6,5.4l-0.6,3.4l-5-8.8l7.3,23.8v2.5H73l0,0l2.5,23.5h-1v1.6h-1.3l-0.5,2.4
				h16.2l-0.5-2.4H87z"/>
			<path class="st3" d="M76.1,69.6l4.5-2.3l4.5,2.3l-4.5,7.9L76.1,69.6z M86.8,109.1v-1.6h-1l2.5-23.5h-3.9v-2.5l7.3-23.8l-5,8.8
				l-0.6-3.4l5.6-5.4L84,56.6l-3.4-7l-3.4,7l-7.7,1.1l5.6,5.4l-0.6,3.4l-5-8.8l7.3,23.8v2.5h-3.9l0,0l2.5,23.5h-1v1.6H73l-0.5,2.4
				h16.2l-0.5-2.4H86.8z"/>
			<path class="st3" d="M75.9,69.3l4.5-2.3l4.5,2.3l-4.5,7.9L75.9,69.3z M86.6,108.9v-1.6h-1l2.5-23.5h-3.9v-2.5l7.3-23.8l-5,8.8
				l-0.6-3.4l5.6-5.4l-7.7-1.1l-3.4-7l-3.4,7l-7.7,1.1l5.6,5.4l-0.6,3.4l-5-8.8l7.3,23.8v2.5h-3.9l0,0l2.5,23.5h-1v1.6h-1.3
				l-0.5,2.4h16.2l-0.5-2.4H86.6z"/>
			<path class="st3" d="M75.6,69.1l4.5-2.3l4.5,2.3L80.1,77L75.6,69.1z M86.4,108.6v-1.6h-1l2.5-23.5H84v-2.5l7.3-23.8l-5,8.8
				l-0.6-3.4l5.6-5.4l-7.7-1.1l-3.4-7l-3.4,7l-7.7,1.1l5.6,5.4l-0.6,3.4l-5-8.8l7.3,23.8v2.5h-3.9l0,0l2.5,23.5h-1v1.6h-1.3L72,111
				h16.2l-0.5-2.4H86.4z"/>
			<path class="st3" d="M75.4,68.9l4.5-2.3l4.5,2.3l-4.5,7.9L75.4,68.9z M86.1,108.4v-1.6h-1l2.5-23.5h-3.9v-2.5L91,57.1l-5,8.8
				l-0.6-3.4l5.6-5.4l-7.7-1.1l-3.4-7l-3.4,7l-7.7,1.1l5.6,5.4l-0.6,3.4l-5-8.8L76,80.9v2.5h-3.9l0,0l2.5,23.5h-1v1.6h-1.3l-0.5,2.4
				h16.2l-0.5-2.4H86.1z"/>
			<path class="st3" d="M75.2,68.7l4.5-2.3l4.5,2.3l-4.5,7.9L75.2,68.7z M85.9,108.2v-1.6h-1l2.5-23.5h-3.9v-2.5l7.3-23.8l-5,8.8
				l-0.6-3.4l5.6-5.4l-7.7-1.1l-3.4-7l-3.4,7l-7.7,1.1l5.6,5.4l-0.6,3.4l-5-8.8l7.3,23.8v2.5h-3.9l0,0l2.5,23.5h-1v1.6h-1.3
				l-0.5,2.4h16.2l-0.5-2.4H85.9z"/>
			<path class="st3" d="M74.9,68.4l4.5-2.3l4.5,2.3l-4.5,7.9L74.9,68.4z M85.7,107.9v-1.6h-1l2.5-23.5h-3.9v-2.5l7.3-23.8l-5,8.8
				L85,62l5.6-5.4l-7.7-1.1l-3.4-7l-3.4,7l-7.7,1.1l5.6,5.4l-0.6,3.4l-5-8.8l7.3,23.8v2.5h-3.9l0,0l2.5,23.5h-1v1.6h-1.3l-0.5,2.4
				h16.2l-0.5-2.4H85.7z"/>
			<path class="st3" d="M74.7,68.2l4.5-2.3l4.5,2.3l-4.5,7.9L74.7,68.2z M85.4,107.7v-1.6h-1l2.5-23.5H83v-2.5l7.3-23.8l-5,8.8
				l-0.6-3.4l5.6-5.4l-7.7-1.1l-3.4-7l-3.4,7L68,56.4l5.6,5.4L73,65.2l-5-8.8l7.3,23.8v2.5h-3.9l0,0l2.5,23.5h-1v1.6h-1.3l-0.5,2.4
				h16.2l-0.5-2.4H85.4z"/>
			<path class="st3" d="M74.5,68l4.5-2.3l4.5,2.3l-4.5,7.9L74.5,68z M85.2,107.5v-1.6h-1l2.5-23.5h-3.9V80l7.3-23.8l-5,8.8l-0.6-3.4
				l5.6-5.4L82.4,55l-3.4-7l-3.4,7l-7.7,1.1l5.6,5.4L72.8,65l-5-8.8L75.1,80v2.5h-3.9l0,0l2.5,23.5h-1v1.6h-1.3l-0.5,2.4H87
				l-0.5-2.4H85.2z"/>
			<path class="st3" d="M74.3,67.7l4.5-2.3l4.5,2.3l-4.5,7.9L74.3,67.7z M85,107.3v-1.6h-1l2.5-23.5h-3.9v-2.5l7.3-23.8l-5,8.8
				l-0.6-3.4l5.6-5.4l-7.7-1.1l-3.4-7l-3.4,7l-7.7,1.1l5.6,5.4l-0.6,3.4l-5-8.8l7.3,23.8v2.5H71l0,0l2.5,23.5h-1v1.6h-1.3l-0.5,2.4
				h16.2l-0.5-2.4H85z"/>
			<path class="st3" d="M74,67.5l4.5-2.3l4.5,2.3l-4.5,7.9L74,67.5z M84.8,107v-1.6h-1L86.2,82h-3.9v-2.5l7.3-23.8l-5,8.8l-0.6-3.4
				l5.6-5.4l-7.7-1.1l-3.4-7l-3.4,7l-7.7,1.1l5.6,5.4l-0.6,3.4l-5-8.8l7.3,23.8V82h-3.9l0,0l2.5,23.5h-1v1.6h-1.3l-0.5,2.4h16.2
				l-0.5-2.4H84.8z"/>
			<path class="st3" d="M73.8,67.3l4.5-2.3l4.5,2.3l-4.5,7.9L73.8,67.3z M84.5,106.8v-1.6h-1L86,81.8h-3.9v-2.5l7.3-23.8l-5,8.8
				l-0.6-3.4l5.6-5.4l-7.7-1.1l-3.4-7l-3.4,7l-7.7,1.1l5.6,5.4l-0.6,3.4l-5-8.8l7.3,23.8v2.5h-3.9l0,0l2.5,23.5h-1v1.6h-1.3
				l-0.5,2.4h16.2l-0.5-2.4H84.5z"/>
			<path class="st3" d="M73.6,67.1l4.5-2.3l4.5,2.3L78,74.9L73.6,67.1z M84.3,106.6V105h-1l2.5-23.5h-3.9v-2.5l7.3-23.8l-5,8.8
				l-0.6-3.4l5.6-5.4l-7.7-1.1l-3.4-7l-3.4,7l-7.7,1.1l5.6,5.4L71.9,64l-5-8.8l7.3,23.8v2.5h-3.9l0,0l2.5,23.5h-1v1.6h-1.3l-0.5,2.4
				h16.2l-0.5-2.4H84.3z"/>
			<path class="st3" d="M73.4,66.8l4.5-2.3l4.5,2.3l-4.5,7.9L73.4,66.8z M84.1,106.3v-1.6h-1l2.5-23.5h-3.9v-2.5L89,55l-5,8.8
				l-0.6-3.4L89,55l-7.7-1.1l-3.4-7l-3.4,7L66.7,55l5.6,5.4l-0.6,3.4l-5-8.8l7.3,23.8v2.5H70l0,0l2.5,23.5h-1v1.6h-1.3l-0.5,2.4
				h16.2l-0.5-2.4H84.1z"/>
			<path class="st3" d="M73.1,66.6l4.5-2.3l4.5,2.3l-4.5,7.9L73.1,66.6z M83.9,106.1v-1.6h-1l2.5-23.5h-3.9v-2.5l7.3-23.8l-5,8.8
				l-0.6-3.4l5.6-5.4L81,53.7l-3.4-7l-3.4,7l-7.7,1.1l5.6,5.4l-0.6,3.4l-5-8.8l7.3,23.8v2.5h-3.9l0,0l2.5,23.5h-1v1.6H70l-0.5,2.4
				h16.2l-0.5-2.4H83.9z"/>
			<path class="st3" d="M72.9,66.4l4.5-2.3l4.5,2.3l-4.5,7.9L72.9,66.4z M83.6,105.9v-1.6h-1l2.5-23.5h-3.9v-2.5l7.3-23.8l-5,8.8
				L82.9,60l5.6-5.4l-7.7-1.1l-3.4-7l-3.4,7l-7.7,1.1l5.6,5.4l-0.6,3.4l-5-8.8l7.3,23.8v2.5h-3.9l0,0l2.5,23.5h-1v1.6h-1.3l-0.5,2.4
				h16.2l-0.5-2.4H83.6z"/>
			<path class="st3" d="M72.7,66.1l4.5-2.3l4.5,2.3L77.1,74L72.7,66.1z M83.4,105.7v-1.6h-1l2.5-23.5H81v-2.5l7.3-23.8l-5,8.8
				l-0.6-3.4l5.6-5.4l-7.7-1.1l-3.4-7l-3.4,7L66,54.3l5.6,5.4L71,63.1l-5-8.8l7.3,23.8v2.5h-3.9l0,0l2.5,23.5h-1v1.6h-1.3L69,108
				h16.2l-0.5-2.4H83.4z"/>
			<path class="st3" d="M72.4,65.9l4.5-2.3l4.5,2.3l-4.5,7.9L72.4,65.9z M83.2,105.4v-1.6h-1l2.5-23.5h-3.9v-2.5L88,54.1l-5,8.8
				l-0.6-3.4l5.6-5.4L80.3,53l-3.4-7l-3.4,7l-7.7,1.1l5.6,5.4l-0.6,3.4l-5-8.8L73,77.9v2.5h-3.9l0,0l2.5,23.5h-1v1.6h-1.3l-0.5,2.4
				H85l-0.5-2.4H83.2z"/>
			<path class="st3" d="M72.2,65.7l4.5-2.3l4.5,2.3l-4.5,7.9L72.2,65.7z M82.9,105.2v-1.6h-1l2.5-23.5h-3.9v-2.5l7.3-23.8l-5,8.8
				l-0.6-3.4l5.6-5.4l-7.7-1.1l-3.4-7l-3.4,7l-7.7,1.1l5.6,5.4l-0.6,3.4l-5-8.8l7.3,23.8v2.5h-3.9l0,0l2.5,23.5h-1v1.6h-1.3
				l-0.5,2.4h16.2l-0.5-2.4H82.9z"/>
			<path class="st3" d="M72,65.5l4.5-2.3l4.5,2.3l-4.5,7.9L72,65.5z M82.7,105v-1.6h-1L84.2,80h-3.9v-2.5l7.3-23.8l-5,8.8L82,59.1
				l5.6-5.4l-7.7-1.1l-3.4-7l-3.4,7l-7.7,1.1l5.6,5.4l-0.6,3.4l-5-8.8l7.3,23.8V80h-3.9l0,0l2.5,23.5h-1v1.6h-1.3l-0.5,2.4h16.2
				L84,105H82.7z"/>
			<path class="st3" d="M71.8,65.2l4.5-2.3l4.5,2.3l-4.5,7.9L71.8,65.2z M82.5,104.8v-1.6h-1L84,79.7h-3.9v-2.5l7.3-23.8l-5,8.8
				l-0.6-3.4l5.6-5.4l-7.7-1.1l-3.4-7l-3.4,7l-7.7,1.1l5.6,5.4l-0.6,3.4l-5-8.8l7.3,23.8v2.5h-3.9l0,0l2.5,23.5h-1v1.6h-1.3
				l-0.5,2.4h16.2l-0.5-2.4H82.5z"/>
			<path class="st3" d="M71.5,65l4.5-2.3l4.5,2.3L76,72.9L71.5,65z M82.3,104.5V103h-1l2.5-23.5h-3.9V77l7.3-23.8l-5,8.8l-0.6-3.4
				l5.6-5.4l-7.7-1.1l-3.4-7l-3.4,7l-7.7,1.1l5.6,5.4L69.8,62l-5-8.8L72.1,77v2.5h-3.9l0,0l2.5,23.5h-1v1.6h-1.3l-0.5,2.4h16.2
				l-0.5-2.4H82.3z"/>
			<path class="st3" d="M71.3,64.8l4.5-2.3l4.5,2.3l-4.5,7.9L71.3,64.8z M82,104.3v-1.6h-1l2.5-23.5h-3.9v-2.5L86.9,53l-5,8.8
				l-0.6-3.4l5.6-5.4l-7.7-1.1l-3.4-7l-3.4,7L64.6,53l5.6,5.4l-0.6,3.4l-5-8.8l7.3,23.8v2.5H68l0,0l2.5,23.5h-1v1.6h-1.3l-0.5,2.4
				h16.2l-0.5-2.4H82z"/>
			<path class="st3" d="M71.1,64.6l4.5-2.3l4.5,2.3l-4.5,7.9L71.1,64.6z M81.8,104.1v-1.6h-1L83.3,79h-3.9v-2.5l7.3-23.8l-5,8.8
				l-0.6-3.4l5.6-5.4L79,51.6l-3.4-7l-3.4,7l-7.7,1.1l5.6,5.4l-0.6,3.4l-5-8.8l7.3,23.8V79h-3.9l0,0l2.5,23.5h-1v1.6H68l-0.5,2.4
				h16.2l-0.5-2.4H81.8z"/>
			<path class="st3" d="M70.8,64.3l4.5-2.3l4.5,2.3l-4.5,7.9L70.8,64.3z M81.6,103.8v-1.6h-1l2.5-23.5h-3.9v-2.5l7.3-23.8l-5,8.8
				l-0.6-3.4l5.6-5.4l-7.7-1.1l-3.4-7l-3.4,7l-7.7,1.1l5.6,5.4l-0.6,3.4l-5-8.8l7.3,23.8v2.5h-3.9l0,0l2.5,23.5h-1v1.6h-1.3
				l-0.5,2.4h16.2l-0.5-2.4H81.6z"/>
			<path class="st3" d="M70.6,64.1l4.5-2.3l4.5,2.3L75.1,72L70.6,64.1z M81.3,103.6V102h-1l2.5-23.5H79v-2.5l7.3-23.8l-5,8.8
				l-0.6-3.4l5.6-5.4l-7.7-1.1l-3.4-7l-3.4,7l-7.7,1.1l5.6,5.4l-0.6,3.4l-5-8.8l7.3,23.8v2.5h-3.9l0,0l2.5,23.5h-1v1.6h-1.3L67,106
				h16.2l-0.5-2.4H81.3z"/>
			<path class="st3" d="M70.4,63.9l4.5-2.3l4.5,2.3l-4.5,7.9L70.4,63.9z M81.1,103.4v-1.6h-1l2.5-23.5h-3.9v-2.5L86,52l-5,8.8
				l-0.6-3.4L86,52l-7.7-1.1l-3.4-7l-3.4,7L63.7,52l5.6,5.4l-0.6,3.4l-5-8.8L71,75.9v2.5h-3.9l0,0l2.5,23.5h-1v1.6h-1.3l-0.5,2.4
				h16.2l-0.5-2.4H81.1z"/>
			<path class="st3" d="M70.2,63.6l4.5-2.3l4.5,2.3l-4.5,7.9L70.2,63.6z M80.9,103.2v-1.6h-1l2.5-23.5h-3.9v-2.5l7.3-23.8l-5,8.8
				l-0.6-3.4l5.6-5.4l-7.7-1.1l-3.4-7l-3.4,7l-7.7,1.1l5.6,5.4l-0.6,3.4l-5-8.8l7.3,23.8v2.5h-3.9l0,0l2.5,23.5h-1v1.6H67l-0.5,2.4
				h16.2l-0.5-2.4H80.9z"/>
			<path class="st3" d="M69.9,63.4l4.5-2.3l4.5,2.3l-4.5,7.9L69.9,63.4z M80.7,102.9v-1.6h-1l2.5-23.5h-3.9v-2.5l7.3-23.8l-5,8.8
				L80,57l5.6-5.4l-7.7-1.1l-3.4-7l-3.4,7l-7.7,1.1l5.6,5.4l-0.6,3.4l-5-8.8l7.3,23.8v2.5h-3.9l0,0l2.5,23.5h-1v1.6h-1.3l-0.5,2.4
				h16.2l-0.5-2.4H80.7z"/>
			<path class="st3" d="M69.7,63.2l4.5-2.3l4.5,2.3L74.2,71L69.7,63.2z M80.4,102.7v-1.6h-1l2.5-23.5H78v-2.5l7.3-23.8l-5,8.8
				l-0.6-3.4l5.6-5.4l-7.7-1.1l-3.4-7l-3.4,7L63,51.4l5.6,5.4L68,60.2l-5-8.8l7.3,23.8v2.5h-3.9l0,0l2.5,23.5h-1v1.6h-1.3l-0.5,2.4
				h16.2l-0.5-2.4H80.4z"/>
			<path class="st3" d="M69.5,63l4.5-2.3l4.5,2.3l-4.5,7.9L69.5,63z M80.2,102.5v-1.6h-1l2.5-23.5h-3.9V75l7.3-23.8l-5,8.8l-0.6-3.4
				l5.6-5.4L77.4,50l-3.4-7l-3.4,7l-7.7,1.1l5.6,5.4l-0.6,3.4l-5-8.8L70.1,75v2.5h-3.9l0,0l2.5,23.5h-1v1.6h-1.3l-0.5,2.4H82
				l-0.5-2.4H80.2z"/>
			<path class="st3" d="M69.3,62.7l4.5-2.3l4.5,2.3l-4.5,7.9L69.3,62.7z M80,102.2v-1.6h-1l2.5-23.5h-3.9v-2.5l7.3-23.8l-5,8.8
				l-0.6-3.4l5.6-5.4l-7.7-1.1l-3.4-7l-3.4,7l-7.7,1.1l5.6,5.4l-0.6,3.4l-5-8.8l7.3,23.8v2.5h-3.9l0,0l2.5,23.5h-1v1.6h-1.3
				l-0.5,2.4h16.2l-0.5-2.4H80z"/>
			<path class="st3" d="M69,62.5l4.5-2.3l4.5,2.3l-4.5,7.9L69,62.5z M79.8,102v-1.6h-1L81.2,77h-3.9v-2.5l7.3-23.8l-5,8.8l-0.6-3.4
				l5.6-5.4l-7.7-1.1l-3.4-7l-3.4,7l-7.7,1.1l5.6,5.4l-0.6,3.4l-5-8.8l7.3,23.8V77h-3.9l0,0l2.5,23.5h-1v1.6h-1.3l-0.5,2.4h16.2
				L81,102H79.8z"/>
			<path class="st3" d="M68.8,62.3l4.5-2.3l4.5,2.3l-4.5,7.9L68.8,62.3z M79.5,101.8v-1.6h-1L81,76.8h-3.9v-2.5l7.3-23.8l-5,8.8
				l-0.6-3.4l5.6-5.4l-7.7-1.1l-3.4-7l-3.4,7l-7.7,1.1l5.6,5.4l-0.6,3.4l-5-8.8l7.3,23.8v2.5h-3.9l0,0l2.5,23.5h-1v1.6h-1.3
				l-0.5,2.4h16.2l-0.5-2.4H79.5z"/>
			<path class="st3" d="M68.6,62l4.5-2.3l4.5,2.3L73,69.9L68.6,62z M79.3,101.6V100h-1l2.5-23.5h-3.9v-2.5l7.3-23.8l-5,8.8l-0.6-3.4
				l5.6-5.4l-7.7-1.1l-3.4-7l-3.4,7l-7.7,1.1l5.6,5.4L66.9,59l-5-8.8l7.3,23.8v2.5h-3.9l0,0l2.5,23.5h-1v1.6h-1.3l-0.5,2.4h16.2
				l-0.5-2.4H79.3z"/>
			<path class="st3" d="M68.3,61.8l4.5-2.3l4.5,2.3l-4.5,7.9L68.3,61.8z M79.1,101.3v-1.6h-1l2.5-23.5h-3.9v-2.5L83.9,50l-5,8.8
				l-0.6-3.4l5.6-5.4l-7.7-1.1l-3.4-7l-3.4,7L61.6,50l5.6,5.4l-0.6,3.4l-5-8.8l7.3,23.8v2.5H65l0,0l2.5,23.5h-1v1.6h-1.3l-0.5,2.4
				h16.2l-0.5-2.4H79.1z"/>
			<path class="st3" d="M68.1,61.6l4.5-2.3l4.5,2.3l-4.5,7.9L68.1,61.6z M78.8,101.1v-1.6h-1l2.5-23.5h-3.9v-2.5l7.3-23.8l-5,8.8
				l-0.6-3.4l5.6-5.4L76,48.6l-3.4-7l-3.4,7l-7.7,1.1l5.6,5.4l-0.6,3.4l-5-8.8l7.3,23.8v2.5h-3.9l0,0l2.5,23.5h-1v1.6H65l-0.5,2.4
				h16.2l-0.5-2.4H78.8z"/>
			<path class="st3" d="M67.9,61.4l4.5-2.3l4.5,2.3l-4.5,7.9L67.9,61.4z M78.6,100.9v-1.6h-1l2.5-23.5h-3.9v-2.5l7.3-23.8l-5,8.8
				L77.9,55l5.6-5.4l-7.7-1.1l-3.4-7l-3.4,7l-7.7,1.1l5.6,5.4l-0.6,3.4l-5-8.8l7.3,23.8v2.5h-3.9l0,0l2.5,23.5h-1v1.6h-1.3l-0.5,2.4
				h16.2l-0.5-2.4H78.6z"/>
			<path class="st3" d="M67.7,61.1l4.5-2.3l4.5,2.3L72.1,69L67.7,61.1z M78.4,100.7v-1.6h-1l2.5-23.5H76v-2.5l7.3-23.8l-5,8.8
				l-0.6-3.4l5.6-5.4l-7.7-1.1l-3.4-7l-3.4,7L61,49.3l5.6,5.4L66,58.1l-5-8.8l7.3,23.8v2.5h-3.9l0,0l2.5,23.5h-1v1.6h-1.3L64,103
				h16.2l-0.5-2.4H78.4z"/>
			<path class="st3" d="M67.4,60.9l4.5-2.3l4.5,2.3l-4.5,7.9L67.4,60.9z M78.2,100.4v-1.6h-1l2.5-23.5h-3.9v-2.5L83,49.1l-5,8.8
				l-0.6-3.4l5.6-5.4L75.3,48l-3.4-7l-3.4,7l-7.7,1.1l5.6,5.4l-0.6,3.4l-5-8.8L68,72.9v2.5h-3.9l0,0l2.5,23.5h-1v1.6h-1.3l-0.5,2.4
				H80l-0.5-2.4H78.2z"/>
			<path class="st3" d="M67.2,60.7l4.5-2.3l4.5,2.3l-4.5,7.9L67.2,60.7z M77.9,100.2v-1.6h-1l2.5-23.5h-3.9v-2.5l7.3-23.8l-5,8.8
				l-0.6-3.4l5.6-5.4l-7.7-1.1l-3.4-7l-3.4,7l-7.7,1.1l5.6,5.4l-0.6,3.4l-5-8.8l7.3,23.8v2.5h-3.9l0,0l2.5,23.5h-1v1.6h-1.3
				l-0.5,2.4h16.2l-0.5-2.4H77.9z"/>
			<path class="st3" d="M67,60.5l4.5-2.3l4.5,2.3l-4.5,7.9L67,60.5z M77.7,100v-1.6h-1l2.5-23.5h-3.9v-2.5l7.3-23.8l-5,8.8L77,54.1
				l5.6-5.4l-7.7-1.1l-3.4-7l-3.4,7l-7.7,1.1l5.6,5.4l-0.6,3.4l-5-8.8l7.3,23.8v2.5h-3.9l0,0l2.5,23.5h-1v1.6h-1.3l-0.5,2.4h16.2
				L79,100H77.7z"/>
			<path class="st3" d="M66.7,60.2l4.5-2.3l4.5,2.3l-4.5,7.9L66.7,60.2z M77.5,99.7v-1.6h-1L79,74.7h-3.9v-2.5l7.3-23.8l-5,8.8
				l-0.6-3.4l5.6-5.4l-7.7-1.1l-3.4-7l-3.4,7L60,48.4l5.6,5.4L65,57.2l-5-8.8l7.3,23.8v2.5h-3.9l0,0L66,98.2h-1v1.6h-1.3l-0.5,2.4
				h16.2l-0.5-2.4H77.5z"/>
			<path class="st3" d="M66.5,60l4.5-2.3l4.5,2.3L71,67.9L66.5,60z M77.2,99.5v-1.6h-1l2.5-23.5h-3.9V72l7.3-23.8l-5,8.8l-0.6-3.4
				l5.6-5.4l-7.7-1.1l-3.4-7l-3.4,7l-7.7,1.1l5.6,5.4L64.8,57l-5-8.8L67.1,72v2.5h-3.9l0,0l2.5,23.5h-1v1.6h-1.3l-0.5,2.4h16.2
				l-0.5-2.4H77.2z"/>
			<path class="st3" d="M66.3,59.8l4.5-2.3l4.5,2.3l-4.5,7.9L66.3,59.8z M77,99.3v-1.6h-1l2.5-23.5h-3.9v-2.5l7.3-23.8l-5,8.8
				l-0.6-3.4l5.6-5.4l-7.7-1.1l-3.4-7l-3.4,7l-7.7,1.1l5.6,5.4l-0.6,3.4l-5-8.8l7.3,23.8v2.5H63l0,0l2.5,23.5h-1v1.6h-1.3l-0.5,2.4
				h16.2l-0.5-2.4H77z"/>
			<path class="st3" d="M66.1,59.5l4.5-2.3l4.5,2.3l-4.5,7.9L66.1,59.5z M76.8,99.1v-1.6h-1L78.3,74h-3.9v-2.5l7.3-23.8l-5,8.8
				l-0.6-3.4l5.6-5.4L74,46.6l-3.4-7l-3.4,7l-7.7,1.1l5.6,5.4l-0.6,3.4l-5-8.8l7.3,23.8V74h-3.9l0,0l2.5,23.5h-1v1.6h-1.3l-0.5,2.4
				h16.2l-0.5-2.4H76.8z"/>
			<path class="st3" d="M65.8,59.3l4.5-2.3l4.5,2.3l-4.5,7.9L65.8,59.3z M76.6,98.8v-1.6h-1L78,73.8h-3.9v-2.5l7.3-23.8l-5,8.8
				l-0.6-3.4l5.6-5.4l-7.7-1.1l-3.4-7l-3.4,7l-7.7,1.1l5.6,5.4l-0.6,3.4l-5-8.8l7.3,23.8v2.5h-3.9l0,0L65,97.3h-1v1.6h-1.3l-0.5,2.4
				h16.2l-0.5-2.4H76.6z"/>
			<path class="st3" d="M65.6,59.1l4.5-2.3l4.5,2.3l-4.5,7.9L65.6,59.1z M76.3,98.6V97h-1l2.5-23.5h-3.9v-2.5l7.3-23.8l-5,8.8
				l-0.6-3.4l5.6-5.4l-7.7-1.1l-3.4-7l-3.4,7l-7.7,1.1l5.6,5.4l-0.6,3.4l-5-8.8l7.3,23.8v2.5h-3.9l0,0L64.8,97h-1v1.6h-1.3L62,101
				h16.2l-0.5-2.4H76.3z"/>
			<path class="st3" d="M65.4,58.9l4.5-2.3l4.5,2.3l-4.5,7.9L65.4,58.9z M76.1,98.4v-1.6h-1l2.5-23.5h-3.9v-2.5L81,47l-5,8.8
				l-0.6-3.4L81,47l-7.7-1.1l-3.4-7l-3.4,7L58.7,47l5.6,5.4l-0.6,3.4l-5-8.8L66,70.9v2.5h-3.9l0,0l2.5,23.5h-1v1.6h-1.3l-0.5,2.4
				h16.2l-0.5-2.4H76.1z"/>
			<path class="st3" d="M65.2,58.6l4.5-2.3l4.5,2.3l-4.5,7.9L65.2,58.6z M75.9,98.1v-1.6h-1l2.5-23.5h-3.9v-2.5l7.3-23.8l-5,8.8
				l-0.6-3.4l5.6-5.4l-7.7-1.1l-3.4-7l-3.4,7l-7.7,1.1l5.6,5.4l-0.6,3.4l-5-8.8l7.3,23.8v2.5h-3.9l0,0l2.5,23.5h-1v1.6H62l-0.5,2.4
				h16.2l-0.5-2.4H75.9z"/>
			<path class="st3" d="M64.9,58.4l4.5-2.3l4.5,2.3l-4.5,7.9L64.9,58.4z M75.7,97.9v-1.6h-1l2.5-23.5h-3.9v-2.5l7.3-23.8l-5,8.8
				L75,52l5.6-5.4l-7.7-1.1l-3.4-7l-3.4,7l-7.7,1.1l5.6,5.4l-0.6,3.4l-5-8.8l7.3,23.8v2.5h-3.9l0,0l2.5,23.5h-1v1.6h-1.3l-0.5,2.4
				h16.2l-0.5-2.4H75.7z"/>
			<path class="st3" d="M64.7,58.2l4.5-2.3l4.5,2.3L69.2,66L64.7,58.2z M75.4,97.7v-1.6h-1l2.5-23.5H73v-2.5l7.3-23.8l-5,8.8
				l-0.6-3.4l5.6-5.4l-7.7-1.1l-3.4-7l-3.4,7L58,46.3l5.6,5.4L63,55.2l-5-8.8l7.3,23.8v2.5h-3.9l0,0l2.5,23.5h-1v1.6h-1.3l-0.5,2.4
				h16.2l-0.5-2.4H75.4z"/>
			<path class="st3" d="M64.5,57.9l4.5-2.3l4.5,2.3l-4.5,7.9L64.5,57.9z M75.2,97.5v-1.6h-1l2.5-23.5h-3.9V70l7.3-23.8l-5,8.8
				l-0.6-3.4l5.6-5.4L72.4,45l-3.4-7l-3.4,7l-7.7,1.1l5.6,5.4l-0.6,3.4l-5-8.8L65,70v2.5h-3.9l0,0l2.5,23.5h-1v1.6h-1.3l-0.5,2.4H77
				l-0.5-2.4H75.2z"/>
			<path class="st3" d="M64.2,57.7l4.5-2.3l4.5,2.3l-4.5,7.9L64.2,57.7z M75,97.2v-1.6h-1l2.5-23.5h-3.9v-2.5l7.3-23.8l-5,8.8
				l-0.6-3.4l5.6-5.4l-7.7-1.1l-3.4-7l-3.4,7l-7.7,1.1l5.6,5.4l-0.6,3.4l-5-8.8l7.3,23.8v2.5h-3.9l0,0l2.5,23.5h-1v1.6h-1.3
				l-0.5,2.4h16.2l-0.5-2.4H75z"/>
			<path class="st3" d="M64,57.5l4.5-2.3l4.5,2.3l-4.5,7.9L64,57.5z M74.7,97v-1.6h-1L76.2,72h-3.9v-2.5l7.3-23.8l-5,8.8L74,51.1
				l5.6-5.4l-7.7-1.1l-3.4-7l-3.4,7l-7.7,1.1l5.6,5.4l-0.6,3.4l-5-8.8l7.3,23.8V72h-3.9l0,0l2.5,23.5h-1V97h-1.3l-0.5,2.4h16.2
				L76,97H74.7z"/>
			<path class="st3" d="M63.8,57.3l4.5-2.3l4.5,2.3l-4.5,7.9L63.8,57.3z M74.5,96.8v-1.6h-1L76,71.8h-3.9v-2.5l7.3-23.8l-5,8.8
				l-0.6-3.4l5.6-5.4l-7.7-1.1l-3.4-7l-3.4,7l-7.7,1.1l5.6,5.4l-0.6,3.4l-5-8.8l7.3,23.8v2.5h-3.9l0,0L63,95.2h-1v1.6h-1.3l-0.5,2.4
				h16.2l-0.5-2.4H74.5z"/>
			<path class="st3" d="M63.6,57l4.5-2.3l4.5,2.3L68,64.9L63.6,57z M74.3,96.6V95h-1l2.5-23.5h-3.9v-2.5l7.3-23.8l-5,8.8l-0.6-3.4
				l5.6-5.4l-7.7-1.1l-3.4-7l-3.4,7l-7.7,1.1l5.6,5.4L61.9,54l-5-8.8l7.3,23.8v2.5h-3.9l0,0L62.8,95h-1v1.6h-1.3l-0.5,2.4h16.2
				l-0.5-2.4H74.3z"/>
			<path class="st3" d="M63.3,56.8l4.5-2.3l4.5,2.3l-4.5,7.9L63.3,56.8z M74.1,96.3v-1.6h-1l2.5-23.5h-3.9v-2.5L78.9,45l-5,8.8
				l-0.6-3.4l5.6-5.4l-7.7-1.1l-3.4-7l-3.4,7L56.6,45l5.6,5.4l-0.6,3.4l-5-8.8l7.3,23.8v2.5H60l0,0l2.5,23.5h-1v1.6h-1.3l-0.5,2.4
				h16.2l-0.5-2.4H74.1z"/>
			<path class="st3" d="M63.1,56.6l4.5-2.3l4.5,2.3l-4.5,7.9L63.1,56.6z M73.8,96.1v-1.6h-1l2.5-23.5h-3.9v-2.5l7.3-23.8l-5,8.8
				l-0.6-3.4l5.6-5.4L71,43.6l-3.4-7l-3.4,7l-7.7,1.1l5.6,5.4l-0.6,3.4l-5-8.8l7.3,23.8v2.5h-3.9l0,0l2.5,23.5h-1v1.6H60l-0.5,2.4
				h16.2l-0.5-2.4H73.8z"/>
			<path class="st3" d="M62.9,56.4l4.5-2.3l4.5,2.3l-4.5,7.9L62.9,56.4z M73.6,95.9v-1.6h-1l2.5-23.5h-3.9v-2.5l7.3-23.8l-5,8.8
				L72.9,50l5.6-5.4l-7.7-1.1l-3.4-7l-3.4,7l-7.7,1.1l5.6,5.4l-0.6,3.4l-5-8.8l7.3,23.8v2.5h-3.9l0,0l2.5,23.5h-1v1.6h-1.3l-0.5,2.4
				h16.2l-0.5-2.4H73.6z"/>
			<path class="st3" d="M62.6,56.1l4.5-2.3l4.5,2.3L67.1,64L62.6,56.1z M73.4,95.6v-1.6h-1l2.5-23.5H71v-2.5l7.3-23.8l-5,8.8
				l-0.6-3.4l5.6-5.4l-7.7-1.1l-3.4-7l-3.4,7l-7.7,1.1l5.6,5.4l-0.6,3.4l-5-8.8l7.3,23.8v2.5h-3.9l0,0l2.5,23.5h-1v1.6h-1.3L59,98
				h16.2l-0.5-2.4H73.4z"/>
			<path class="st3" d="M62.4,55.9l4.5-2.3l4.5,2.3l-4.5,7.9L62.4,55.9z M73.1,95.4v-1.6h-1l2.5-23.5h-3.9v-2.5L78,44.1l-5,8.8
				l-0.6-3.4l5.6-5.4L70.3,43l-3.4-7l-3.4,7l-7.7,1.1l5.6,5.4l-0.6,3.4l-5-8.8L63,67.9v2.5h-3.9l0,0l2.5,23.5h-1v1.6h-1.3l-0.5,2.4
				H75l-0.5-2.4H73.1z"/>
			<path class="st3" d="M62.2,55.7l4.5-2.3l4.5,2.3l-4.5,7.9L62.2,55.7z M72.9,95.2v-1.6h-1l2.5-23.5h-3.9v-2.5l7.3-23.8l-5,8.8
				l-0.6-3.4l5.6-5.4l-7.7-1.1l-3.4-7l-3.4,7l-7.7,1.1l5.6,5.4l-0.6,3.4l-5-8.8l7.3,23.8v2.5h-3.9l0,0l2.5,23.5h-1v1.6h-1.3
				l-0.5,2.4h16.2l-0.5-2.4H72.9z"/>
			<path class="st3" d="M62,55.4l4.5-2.3l4.5,2.3l-4.5,7.9L62,55.4z M72.7,95v-1.6h-1l2.5-23.5h-3.9v-2.5l7.3-23.8l-5,8.8L72,49.1
				l5.6-5.4l-7.7-1.1l-3.4-7l-3.4,7l-7.7,1.1l5.6,5.4l-0.6,3.4l-5-8.8l7.3,23.8v2.5h-3.9l0,0l2.5,23.5h-1V95h-1.3l-0.5,2.4h16.2
				L74,95H72.7z"/>
			<path class="st3" d="M61.7,55.2l4.5-2.3l4.5,2.3l-4.5,7.9L61.7,55.2z M72.5,94.7v-1.6h-1l2.5-23.5h-3.9v-2.5l7.3-23.8l-5,8.8
				l-0.6-3.4l5.6-5.4l-7.7-1.1l-3.4-7l-3.4,7L55,43.4l5.6,5.4L60,52.2l-5-8.8l7.3,23.8v2.5h-3.9l0,0l2.5,23.5h-1v1.6h-1.3l-0.5,2.4
				h16.2l-0.5-2.4H72.5z"/>
			<path class="st3" d="M61.5,55l4.5-2.3l4.5,2.3L66,62.8L61.5,55z M72.2,94.5v-1.6h-1l2.5-23.5h-3.9V67l7.3-23.8l-5,8.8l-0.6-3.4
				l5.6-5.4L69.4,42l-3.4-7l-3.4,7l-7.7,1.1l5.6,5.4L59.8,52l-5-8.8L62.1,67v2.5h-3.9l0,0l2.5,23.5h-1v1.6h-1.3l-0.5,2.4h16.2
				l-0.5-2.4H72.2z"/>
			<path class="st3" d="M61.3,54.8l4.5-2.3l4.5,2.3l-4.5,7.9L61.3,54.8z M72,94.3v-1.6h-1l2.5-23.5h-3.9v-2.5l7.3-23.8l-5,8.8
				l-0.6-3.4l5.6-5.4l-7.7-1.1l-3.4-7l-3.4,7l-7.7,1.1l5.6,5.4l-0.6,3.4l-5-8.8l7.3,23.8v2.5H58l0,0l2.5,23.5h-1v1.6h-1.3l-0.5,2.4
				h16.2l-0.5-2.4H72z"/>
			<path class="st3" d="M61.1,54.5l4.5-2.3l4.5,2.3l-4.5,7.9L61.1,54.5z M71.8,94.1v-1.6h-1L73.3,69h-3.9v-2.5l7.3-23.8l-5,8.8
				l-0.6-3.4l5.6-5.4L69,41.6l-3.4-7l-3.4,7l-7.7,1.1l5.6,5.4l-0.6,3.4l-5-8.8l7.3,23.8V69h-3.9l0,0l2.5,23.5h-1v1.6h-1.3l-0.5,2.4
				h16.2l-0.5-2.4H71.8z"/>
			<path class="st3" d="M60.8,54.3l4.5-2.3l4.5,2.3l-4.5,7.9L60.8,54.3z M71.6,93.8v-1.6h-1L73,68.8h-3.9v-2.5l7.3-23.8l-5,8.8
				l-0.6-3.4l5.6-5.4l-7.7-1.1l-3.4-7l-3.4,7l-7.7,1.1l5.6,5.4l-0.6,3.4l-5-8.8l7.3,23.8v2.5h-3.9l0,0L60,92.2h-1v1.6h-1.3l-0.5,2.4
				h16.2l-0.5-2.4H71.6z"/>
			<path class="st3" d="M60.6,54.1l4.5-2.3l4.5,2.3l-4.5,7.9L60.6,54.1z M71.3,93.6V92h-1l2.5-23.5h-3.9v-2.5l7.3-23.8l-5,8.8
				l-0.6-3.4l5.6-5.4l-7.7-1.1l-3.4-7l-3.4,7l-7.7,1.1l5.6,5.4l-0.6,3.4l-5-8.8l7.3,23.8v2.5h-3.9l0,0L59.8,92h-1v1.6h-1.3L57,96
				h16.2l-0.5-2.4H71.3z"/>
			<path class="st3" d="M60.4,53.8l4.5-2.3l4.5,2.3l-4.5,7.9L60.4,53.8z M71.1,93.4v-1.6h-1l2.5-23.5h-3.9v-2.5L76,42l-5,8.8
				l-0.6-3.4L76,42l-7.7-1.1l-3.4-7l-3.4,7L53.7,42l5.6,5.4l-0.6,3.4l-5-8.8l7.3,23.8v2.5h-3.9l0,0l2.5,23.5h-1v1.6h-1.3l-0.5,2.4
				h16.2l-0.5-2.4H71.1z"/>
			<path class="st3" d="M60.1,53.6l4.5-2.3l4.5,2.3l-4.5,7.9L60.1,53.6z M70.9,93.1v-1.6h-1l2.5-23.5h-3.9v-2.5l7.3-23.8l-5,8.8
				l-0.6-3.4l5.6-5.4L68,40.7l-3.4-7l-3.4,7l-7.7,1.1l5.6,5.4l-0.6,3.4l-5-8.8l7.3,23.8v2.5h-3.9l0,0l2.5,23.5h-1v1.6H57l-0.5,2.4
				h16.2l-0.5-2.4H70.9z"/>
			<path class="st3" d="M59.9,53.4l4.5-2.3l4.5,2.3l-4.5,7.9L59.9,53.4z M70.6,92.9v-1.6h-1l2.5-23.5h-3.9v-2.5l7.3-23.8l-5,8.8
				L69.9,47l5.6-5.4l-7.7-1.1l-3.4-7l-3.4,7l-7.7,1.1l5.6,5.4l-0.6,3.4l-5-8.8l7.3,23.8v2.5h-3.9l0,0l2.5,23.5h-1v1.6h-1.3l-0.5,2.4
				h16.2l-0.5-2.4H70.6z"/>
			<path class="st3" d="M59.7,53.2l4.5-2.3l4.5,2.3L64.1,61L59.7,53.2z M70.4,92.7v-1.6h-1l2.5-23.5H68v-2.5l7.3-23.8l-5,8.8
				l-0.6-3.4l5.6-5.4l-7.7-1.1l-3.4-7l-3.4,7L53,41.3l5.6,5.4L58,50.2l-5-8.8l7.3,23.8v2.5h-3.9l0,0l2.5,23.5h-1v1.6h-1.3L56.1,95
				h16.2l-0.5-2.4H70.4z"/>
			<path class="st3" d="M59.5,52.9l4.5-2.3l4.5,2.3l-4.5,7.9L59.5,52.9z M70.2,92.5v-1.6h-1l2.5-23.5h-3.9V65l7.3-23.8l-5,8.8
				l-0.6-3.4l5.6-5.4L67.4,40l-3.4-7l-3.4,7l-7.7,1.1l5.6,5.4l-0.6,3.4l-5-8.8L60,65v2.5h-3.9l0,0l2.5,23.5h-1v1.6h-1.3l-0.5,2.4H72
				l-0.5-2.4H70.2z"/>
			<path class="st3" d="M59.2,52.7l4.5-2.3l4.5,2.3l-4.5,7.9L59.2,52.7z M70,92.2v-1.6h-1l2.5-23.5h-3.9v-2.5l7.3-23.8l-5,8.8
				l-0.6-3.4l5.6-5.4l-7.7-1.1l-3.4-7l-3.4,7l-7.7,1.1l5.6,5.4l-0.6,3.4l-5-8.8l7.3,23.8v2.5h-3.9l0,0l2.5,23.5h-1v1.6h-1.3
				l-0.5,2.4h16.2l-0.5-2.4H70z"/>
			<path class="st3" d="M59,52.5l4.5-2.3l4.5,2.3l-4.5,7.9L59,52.5z M69.7,92v-1.6h-1L71.2,67h-3.9v-2.5l7.3-23.8l-5,8.8L69,46.1
				l5.6-5.4l-7.7-1.1l-3.4-7l-3.4,7l-7.7,1.1l5.6,5.4l-0.6,3.4l-5-8.8l7.3,23.8V67h-3.9l0,0l2.5,23.5h-1V92h-1.3l-0.5,2.4h16.2
				L71,92H69.7z"/>
			<path class="st3" d="M58.8,52.3l4.5-2.3l4.5,2.3l-4.5,7.9L58.8,52.3z M69.5,91.8v-1.6h-1L71,66.7h-3.9v-2.5l7.3-23.8l-5,8.8
				l-0.6-3.4l5.6-5.4l-7.7-1.1l-3.4-7l-3.4,7l-7.7,1.1l5.6,5.4l-0.6,3.4l-5-8.8l7.3,23.8v2.5h-3.9l0,0L58,90.2h-1v1.6h-1.3l-0.5,2.4
				h16.2l-0.5-2.4H69.5z"/>
			<path class="st3" d="M58.6,52l4.5-2.3l4.5,2.3L63,59.9L58.6,52z M69.3,91.5V90h-1l2.5-23.5h-3.9V64l7.3-23.8l-5,8.8l-0.6-3.4
				l5.6-5.4l-7.7-1.1l-3.4-7l-3.4,7l-7.7,1.1l5.6,5.4L56.8,49l-5-8.8L59.1,64v2.5h-3.9l0,0L57.8,90h-1v1.6h-1.3l-0.5,2.4h16.2
				l-0.5-2.4H69.3z"/>
			<path class="st3" d="M58.3,51.8l4.5-2.3l4.5,2.3l-4.5,7.9L58.3,51.8z M69.1,91.3v-1.6h-1l2.5-23.5h-3.9v-2.5L73.9,40l-5,8.8
				l-0.6-3.4l5.6-5.4l-7.7-1.1l-3.4-7l-3.4,7L51.6,40l5.6,5.4l-0.6,3.4l-5-8.8l7.3,23.8v2.5H55l0,0l2.5,23.5h-1v1.6h-1.3l-0.5,2.4
				h16.2l-0.5-2.4H69.1z"/>
			<path class="st3" d="M58.1,51.6l4.5-2.3l4.5,2.3l-4.5,7.9L58.1,51.6z M68.8,91.1v-1.6h-1l2.5-23.5h-3.9v-2.5l7.3-23.8l-5,8.8
				l-0.6-3.4l5.6-5.4L66,38.6l-3.4-7l-3.4,7l-7.7,1.1l5.6,5.4l-0.6,3.4l-5-8.8l7.3,23.8v2.5h-3.9l0,0l2.5,23.5h-1v1.6H55l-0.5,2.4
				h16.2l-0.5-2.4H68.8z"/>
			<path class="st3" d="M57.9,51.3l4.5-2.3l4.5,2.3l-4.5,7.9L57.9,51.3z M68.6,90.9v-1.6h-1l2.5-23.5h-3.9v-2.5l7.3-23.8l-5,8.8
				L67.9,45l5.6-5.4l-7.7-1.1l-3.4-7l-3.4,7l-7.7,1.1l5.6,5.4l-0.6,3.4l-5-8.8l7.3,23.8v2.5h-3.9l0,0l2.5,23.5h-1v1.6h-1.3l-0.5,2.4
				h16.2l-0.5-2.4H68.6z"/>
			<path class="st3" d="M57.6,51.1l4.5-2.3l4.5,2.3L62.1,59L57.6,51.1z M68.4,90.6v-1.6h-1l2.5-23.5H66v-2.5l7.3-23.8l-5,8.8
				l-0.6-3.4l5.6-5.4l-7.7-1.1l-3.4-7l-3.4,7l-7.7,1.1l5.6,5.4l-0.6,3.4l-5-8.8l7.3,23.8v2.5h-3.9l0,0l2.5,23.5h-1v1.6h-1.3L54,93
				h16.2l-0.5-2.4H68.4z"/>
			<path class="st3" d="M57.4,50.9l4.5-2.3l4.5,2.3l-4.5,7.9L57.4,50.9z M68.1,90.4v-1.6h-1l2.5-23.5h-3.9v-2.5L73,39.1l-5,8.8
				l-0.6-3.4l5.6-5.4l-7.7-1.1l-3.4-7l-3.4,7l-7.7,1.1l5.6,5.4l-0.6,3.4l-5-8.8L58,62.9v2.5h-3.9l0,0l2.5,23.5h-1v1.6h-1.3l-0.5,2.4
				H70l-0.5-2.4H68.1z"/>
			<path class="st3" d="M57.2,50.7l4.5-2.3l4.5,2.3l-4.5,7.9L57.2,50.7z M67.9,90.2v-1.6h-1l2.5-23.5h-3.9v-2.5l7.3-23.8l-5,8.8
				l-0.6-3.4l5.6-5.4l-7.7-1.1l-3.4-7l-3.4,7l-7.7,1.1l5.6,5.4l-0.6,3.4l-5-8.8l7.3,23.8v2.5h-3.9l0,0l2.5,23.5h-1v1.6h-1.3
				l-0.5,2.4h16.2l-0.5-2.4H67.9z"/>
			<path class="st3" d="M57,50.4l4.5-2.3l4.5,2.3l-4.5,7.9L57,50.4z M67.7,90v-1.6h-1l2.5-23.5h-3.9v-2.5l7.3-23.8l-5,8.8L67,44
				l5.6-5.4l-7.7-1.1l-3.4-7l-3.4,7l-7.7,1.1l5.6,5.4l-0.6,3.4l-5-8.8l7.3,23.8v2.5h-3.9l0,0l2.5,23.5h-1V90h-1.3l-0.5,2.4h16.2
				L69,90H67.7z"/>
			<path class="st3" d="M56.7,50.2l4.5-2.3l4.5,2.3l-4.5,7.9L56.7,50.2z M67.5,89.7v-1.6h-1l2.5-23.5h-3.9v-2.5l7.3-23.8l-5,8.8
				l-0.6-3.4l5.6-5.4l-7.7-1.1l-3.4-7l-3.4,7L50,38.4l5.6,5.4L55,47.2l-5-8.8l7.3,23.8v2.5h-3.9l0,0l2.5,23.5h-1v1.6h-1.3l-0.5,2.4
				h16.2l-0.5-2.4H67.5z"/>
			<path class="st3" d="M56.5,50l4.5-2.3l4.5,2.3L61,57.8L56.5,50z M67.2,89.5v-1.6h-1l2.5-23.5h-3.9V62l7.3-23.8l-5,8.8l-0.6-3.4
				l5.6-5.4L64.4,37L61,30l-3.4,7l-7.7,1.1l5.6,5.4L54.8,47l-5-8.8L57.1,62v2.5h-3.9l0,0l2.5,23.5h-1v1.6h-1.3l-0.5,2.4H69l-0.5-2.4
				H67.2z"/>
			<path class="st3" d="M56.3,49.7l4.5-2.3l4.5,2.3l-4.5,7.9L56.3,49.7z M67,89.3v-1.6h-1l2.5-23.5h-3.9v-2.5l7.3-23.8l-5,8.8
				l-0.6-3.4l5.6-5.4l-7.7-1.1l-3.4-7l-3.4,7l-7.7,1.1l5.6,5.4l-0.6,3.4l-5-8.8l7.3,23.8v2.5H53l0,0l2.5,23.5h-1v1.6h-1.3l-0.5,2.4
				h16.2l-0.5-2.4H67z"/>
			<path class="st3" d="M56,49.5l4.5-2.3l4.5,2.3l-4.5,7.9L56,49.5z M66.8,89v-1.6h-1L68.3,64h-3.9v-2.5l7.3-23.8l-5,8.8l-0.6-3.4
				l5.6-5.4l-7.7-1.1l-3.4-7l-3.4,7l-7.7,1.1l5.6,5.4l-0.6,3.4l-5-8.8l7.3,23.8V64h-3.9l0,0l2.5,23.5h-1V89h-1.3l-0.5,2.4h16.2
				L68.1,89H66.8z"/>
			<path class="st3" d="M55.8,49.3l4.5-2.3l4.5,2.3l-4.5,7.9L55.8,49.3z M66.5,88.8v-1.6h-1L68,63.8h-3.9v-2.5l7.3-23.8l-5,8.8
				l-0.6-3.4l5.6-5.4l-7.7-1.1l-3.4-7l-3.4,7l-7.7,1.1l5.6,5.4l-0.6,3.4l-5-8.8l7.3,23.8v2.5h-3.9l0,0L55,87.2h-1v1.6h-1.3l-0.5,2.4
				h16.2l-0.5-2.4H66.5z"/>
			<path class="st3" d="M55.6,49.1l4.5-2.3l4.5,2.3L60,56.9L55.6,49.1z M66.3,88.6V87h-1l2.5-23.5h-3.9v-2.5l7.3-23.8l-5,8.8
				l-0.6-3.4l5.6-5.4l-7.7-1.1l-3.4-7l-3.4,7l-7.7,1.1l5.6,5.4l-0.6,3.4l-5-8.8l7.3,23.8v2.5h-3.9l0,0L54.8,87h-1v1.6h-1.3L52,90.9
				h16.2l-0.5-2.4H66.3z"/>
			<path class="st3" d="M55.4,48.8l4.5-2.3l4.5,2.3l-4.5,7.9L55.4,48.8z M66.1,88.4v-1.6h-1l2.5-23.5h-3.9v-2.5L71,37l-5,8.8
				l-0.6-3.4L71,37l-7.7-1.1l-3.4-7l-3.4,7L48.7,37l5.6,5.4l-0.6,3.4l-5-8.8l7.3,23.8v2.5h-3.9l0,0l2.5,23.5h-1v1.6h-1.3l-0.5,2.4
				h16.2l-0.5-2.4H66.1z"/>
			<path class="st3" d="M55.1,48.6l4.5-2.3l4.5,2.3l-4.5,7.9L55.1,48.6z M65.9,88.1v-1.6h-1l2.5-23.5h-3.9v-2.5l7.3-23.8l-5,8.8
				l-0.6-3.4l5.6-5.4L63,35.7l-3.4-7l-3.4,7l-7.7,1.1l5.6,5.4l-0.6,3.4l-5-8.8l7.3,23.8v2.5h-3.9l0,0l2.5,23.5h-1v1.6H52l-0.5,2.4
				h16.2l-0.5-2.4H65.9z"/>
			<path class="st3" d="M54.9,48.4l4.5-2.3l4.5,2.3l-4.5,7.9L54.9,48.4z M65.6,87.9v-1.6h-1l2.5-23.5h-3.9v-2.5l7.3-23.8l-5,8.8
				L64.9,42l5.6-5.4l-7.7-1.1l-3.4-7l-3.4,7l-7.7,1.1l5.6,5.4l-0.6,3.4l-5-8.8l7.3,23.8v2.5h-3.9l0,0l2.5,23.5h-1v1.6h-1.3l-0.5,2.4
				h16.2l-0.5-2.4H65.6z"/>
			<path class="st3" d="M54.7,48.2l4.5-2.3l4.5,2.3L59.1,56L54.7,48.2z M65.4,87.7v-1.6h-1l2.5-23.5H63v-2.5l7.3-23.8l-5,8.8
				l-0.6-3.4l5.6-5.4l-7.7-1.1l-3.4-7l-3.4,7L48,36.3l5.6,5.4L53,45.1l-5-8.8l7.3,23.8v2.5h-3.9l0,0l2.5,23.5h-1v1.6h-1.3L51,90
				h16.2l-0.5-2.4H65.4z"/>
			<path class="st3" d="M54.5,47.9l4.5-2.3l4.5,2.3l-4.5,7.9L54.5,47.9z M65.2,87.4v-1.6h-1l2.5-23.5h-3.9v-2.5l7.3-23.8l-5,8.8
				l-0.6-3.4l5.6-5.4L62.3,35l-3.4-7l-3.4,7l-7.7,1.1l5.6,5.4l-0.6,3.4l-5-8.8L55,59.9v2.5h-3.9l0,0l2.5,23.5h-1v1.6h-1.3l-0.5,2.4
				H67l-0.5-2.4H65.2z"/>
			<path class="st3" d="M54.2,47.7l4.5-2.3l4.5,2.3l-4.5,7.9L54.2,47.7z M65,87.2v-1.6h-1l2.5-23.5h-3.9v-2.5l7.3-23.8l-5,8.8
				l-0.6-3.4l5.6-5.4l-7.7-1.1l-3.4-7l-3.4,7l-7.7,1.1l5.6,5.4l-0.6,3.4l-5-8.8l7.3,23.8v2.5h-3.9l0,0l2.5,23.5h-1v1.6h-1.3
				l-0.5,2.4h16.2l-0.5-2.4H65z"/>
			<path class="st3" d="M54,47.5l4.5-2.3l4.5,2.3l-4.5,7.9L54,47.5z M64.7,87v-1.6h-1L66.2,62h-3.9v-2.5l7.3-23.8l-5,8.8L64,41.1
				l5.6-5.4l-7.7-1.1l-3.4-7l-3.4,7l-7.7,1.1l5.6,5.4l-0.6,3.4l-5-8.8l7.3,23.8V62h-3.9l0,0l2.5,23.5h-1V87h-1.3l-0.5,2.4h16.2
				L66,87H64.7z"/>
			<path class="st3" d="M53.8,47.2l4.5-2.3l4.5,2.3l-4.5,7.9L53.8,47.2z M64.5,86.8v-1.6h-1L66,61.7h-3.9v-2.5l7.3-23.8l-5,8.8
				l-0.6-3.4l5.6-5.4l-7.7-1.1l-3.4-7l-3.4,7l-7.7,1.1l5.6,5.4l-0.6,3.4l-5-8.8l7.3,23.8v2.5h-3.9l0,0L53,85.2h-1v1.6h-1.3l-0.5,2.4
				h16.2l-0.5-2.4H64.5z"/>
			<path class="st3" d="M53.5,47l4.5-2.3l4.5,2.3L58,54.9L53.5,47z M64.3,86.5V85h-1l2.5-23.5h-3.9V59l7.3-23.8l-5,8.8l-0.6-3.4
				l5.6-5.4l-7.7-1.1l-3.4-7l-3.4,7l-7.7,1.1l5.6,5.4L51.8,44l-5-8.8L54.1,59v2.5h-3.9l0,0L52.8,85h-1v1.6h-1.3l-0.5,2.4h16.2
				l-0.5-2.4H64.3z"/>
			<path class="st3" d="M53.3,46.8l4.5-2.3l4.5,2.3l-4.5,7.9L53.3,46.8z M64,86.3v-1.6h-1l2.5-23.5h-3.9v-2.5L68.9,35l-5,8.8
				l-0.6-3.4l5.6-5.4l-7.7-1.1l-3.4-7l-3.4,7L46.6,35l5.6,5.4l-0.6,3.4l-5-8.8l7.3,23.8v2.5H50l0,0l2.5,23.5h-1v1.6h-1.3l-0.5,2.4
				h16.2l-0.5-2.4H64z"/>
			<path class="st3" d="M53.1,46.6l4.5-2.3l4.5,2.3l-4.5,7.9L53.1,46.6z M63.8,86.1v-1.6h-1l2.5-23.5h-3.9v-2.5l7.3-23.8l-5,8.8
				l-0.6-3.4l5.6-5.4L61,33.6l-3.4-7l-3.4,7l-7.7,1.1l5.6,5.4l-0.6,3.4l-5-8.8l7.3,23.8v2.5h-3.9l0,0l2.5,23.5h-1v1.6H50l-0.5,2.4
				h16.2l-0.5-2.4H63.8z"/>
			<path class="st3" d="M52.9,46.3l4.5-2.3l4.5,2.3l-4.5,7.9L52.9,46.3z M63.6,85.9v-1.6h-1l2.5-23.5h-3.9v-2.5l7.3-23.8l-5,8.8
				l-0.6-3.4l5.6-5.4l-7.7-1.1l-3.4-7l-3.4,7l-7.7,1.1l5.6,5.4l-0.6,3.4l-5-8.8l7.3,23.8v2.5h-3.9l0,0l2.5,23.5h-1v1.6h-1.3
				l-0.5,2.4h16.2l-0.5-2.4H63.6z"/>
			<path class="st3" d="M52.6,46.1l4.5-2.3l4.5,2.3L57.1,54L52.6,46.1z M63.4,85.6v-1.6h-1l2.5-23.5H61v-2.5l7.3-23.8l-5,8.8
				l-0.6-3.4l5.6-5.4l-7.7-1.1l-3.4-7l-3.4,7l-7.7,1.1l5.6,5.4l-0.6,3.4l-5-8.8l7.3,23.8v2.5h-3.9l0,0l2.5,23.5h-1v1.6h-1.3L49,88
				h16.2l-0.5-2.4H63.4z"/>
			<path class="st3" d="M52.4,45.9l4.5-2.3l4.5,2.3l-4.5,7.9L52.4,45.9z M63.1,85.4v-1.6h-1l2.5-23.5h-3.9v-2.5L68,34.1l-5,8.8
				l-0.6-3.4l5.6-5.4l-7.7-1.1l-3.4-7l-3.4,7l-7.7,1.1l5.6,5.4l-0.6,3.4l-5-8.8L53,57.9v2.5h-3.9l0,0l2.5,23.5h-1v1.6h-1.3l-0.5,2.4
				h16.2l-0.5-2.4H63.1z"/>
			<path class="st3" d="M52.2,45.7l4.5-2.3l4.5,2.3l-4.5,7.9L52.2,45.7z M62.9,85.2v-1.6h-1l2.5-23.5h-3.9v-2.5l7.3-23.8l-5,8.8
				l-0.6-3.4l5.6-5.4l-7.7-1.1l-3.4-7l-3.4,7l-7.7,1.1l5.6,5.4l-0.6,3.4l-5-8.8l7.3,23.8v2.5h-3.9l0,0l2.5,23.5h-1v1.6h-1.3
				l-0.5,2.4h16.2l-0.5-2.4H62.9z"/>
			<path class="st3" d="M51.9,45.4l4.5-2.3l4.5,2.3l-4.5,7.9L51.9,45.4z M62.7,84.9v-1.6h-1l2.5-23.5h-3.9v-2.5l7.3-23.8l-5,8.8
				L62,39l5.6-5.4l-7.7-1.1l-3.4-7l-3.4,7l-7.7,1.1l5.6,5.4l-0.6,3.4l-5-8.8l7.3,23.8v2.5h-3.9l0,0l2.5,23.5h-1v1.6h-1.3l-0.5,2.4
				h16.2L64,84.9H62.7z"/>
			<path class="st3" d="M51.7,45.2l4.5-2.3l4.5,2.3l-4.5,7.9L51.7,45.2z M62.4,84.7v-1.6h-1l2.5-23.5H60v-2.5l7.3-23.8l-5,8.8
				l-0.6-3.4l5.6-5.4l-7.7-1.1l-3.4-7l-3.4,7L45,33.4l5.6,5.4L50,42.2l-5-8.8l7.3,23.8v2.5h-3.9l0,0l2.5,23.5h-1v1.6h-1.3l-0.5,2.4
				h16.2l-0.5-2.4H62.4z"/>
			<path class="st3" d="M51.5,45l4.5-2.3l4.5,2.3l-4.5,7.9L51.5,45z M62.2,84.5v-1.6h-1l2.5-23.5h-3.9V57l7.3-23.8l-5,8.8l-0.6-3.4
				l5.6-5.4L59.4,32l-3.4-7l-3.4,7l-7.7,1.1l5.6,5.4L49.8,42l-5-8.8L52.1,57v2.5h-3.9l0,0l2.5,23.5h-1v1.6h-1.3l-0.5,2.4H64
				l-0.5-2.4H62.2z"/>
			<path class="st3" d="M51.3,44.7l4.5-2.3l4.5,2.3l-4.5,7.9L51.3,44.7z M62,84.3v-1.6h-1l2.5-23.5h-3.9v-2.5l7.3-23.8l-5,8.8
				l-0.6-3.4l5.6-5.4l-7.7-1.1l-3.4-7l-3.4,7l-7.7,1.1l5.6,5.4l-0.6,3.4l-5-8.8l7.3,23.8v2.5H48l0,0l2.5,23.5h-1v1.6h-1.3l-0.5,2.4
				h16.2l-0.5-2.4H62z"/>
			<path class="st3" d="M51,44.5l4.5-2.3l4.5,2.3l-4.5,7.9L51,44.5z M61.8,84v-1.6h-1L63.2,59h-3.9v-2.5l7.3-23.8l-5,8.8l-0.6-3.4
				l5.6-5.4l-7.7-1.1l-3.4-7l-3.4,7l-7.7,1.1l5.6,5.4l-0.6,3.4l-5-8.8l7.3,23.8V59h-3.9l0,0l2.5,23.5h-1V84h-1.3l-0.5,2.4h16.2
				L63.1,84H61.8z"/>
			<path class="st3" d="M50.8,44.3l4.5-2.3l4.5,2.3l-4.5,7.9L50.8,44.3z M61.5,83.8v-1.6h-1L63,58.8h-3.9v-2.5l7.3-23.8l-5,8.8
				l-0.6-3.4l5.6-5.4l-7.7-1.1l-3.4-7l-3.4,7l-7.7,1.1l5.6,5.4l-0.6,3.4l-5-8.8l7.3,23.8v2.5h-3.9l0,0L50,82.2h-1v1.6h-1.3l-0.5,2.4
				h16.2l-0.5-2.4H61.5z"/>
			<path class="st3" d="M50.6,44.1l4.5-2.3l4.5,2.3L55,51.9L50.6,44.1z M61.3,83.6V82h-1l2.5-23.5h-3.9v-2.5l7.3-23.8l-5,8.8
				l-0.6-3.4l5.6-5.4l-7.7-1.1l-3.4-7l-3.4,7l-7.7,1.1l5.6,5.4L48.9,41l-5-8.8l7.3,23.8v2.5h-3.9l0,0L49.8,82h-1v1.6h-1.3l-0.5,2.4
				h16.2l-0.5-2.4H61.3z"/>
			<path class="st3" d="M50.4,43.8l4.5-2.3l4.5,2.3l-4.5,7.9L50.4,43.8z M61.1,83.3v-1.6h-1l2.5-23.5h-3.9v-2.5L66,32l-5,8.8
				l-0.6-3.4L66,32l-7.7-1.1l-3.4-7l-3.4,7L43.7,32l5.6,5.4l-0.6,3.4l-5-8.8l7.3,23.8v2.5H47l0,0l2.5,23.5h-1v1.6h-1.3l-0.5,2.4
				h16.2l-0.5-2.4H61.1z"/>
			<path class="st3" d="M50.1,43.6l4.5-2.3l4.5,2.3l-4.5,7.9L50.1,43.6z M60.9,83.1v-1.6h-1l2.5-23.5h-3.9v-2.5l7.3-23.8l-5,8.8
				l-0.6-3.4l5.6-5.4L58,30.7l-3.4-7l-3.4,7l-7.7,1.1l5.6,5.4l-0.6,3.4l-5-8.8l7.3,23.8v2.5h-3.9l0,0l2.5,23.5h-1v1.6H47l-0.5,2.4
				h16.2l-0.5-2.4H60.9z"/>
			<path class="st3" d="M49.9,43.4l4.5-2.3l4.5,2.3l-4.5,7.9L49.9,43.4z M60.6,82.9v-1.6h-1l2.5-23.5h-3.9v-2.5l7.3-23.8l-5,8.8
				L59.9,37l5.6-5.4l-7.7-1.1l-3.4-7l-3.4,7l-7.7,1.1l5.6,5.4l-0.6,3.4l-5-8.8l7.3,23.8v2.5h-3.9l0,0l2.5,23.5h-1v1.6h-1.3l-0.5,2.4
				h16.2l-0.5-2.4H60.6z"/>
			<path class="st3" d="M49.7,43.1l4.5-2.3l4.5,2.3L54.1,51L49.7,43.1z M60.4,82.7v-1.6h-1l2.5-23.5H58v-2.5l7.3-23.8l-5,8.8
				l-0.6-3.4l5.6-5.4l-7.7-1.1l-3.4-7l-3.4,7L43,31.3l5.6,5.4L48,40.1l-5-8.8l7.3,23.8v2.5h-3.9l0,0l2.5,23.5h-1v1.6h-1.3L46,85
				h16.2l-0.5-2.4H60.4z"/>
			<path class="st3" d="M49.4,42.9l4.5-2.3l4.5,2.3l-4.5,7.9L49.4,42.9z M60.2,82.4v-1.6h-1l2.5-23.5h-3.9v-2.5L65,31.1l-5,8.8
				l-0.6-3.4l5.6-5.4L57.3,30l-3.4-7l-3.4,7l-7.7,1.1l5.6,5.4l-0.6,3.4l-5-8.8L50,54.9v2.5h-3.9l0,0l2.5,23.5h-1v1.6h-1.3l-0.5,2.4
				H62l-0.5-2.4H60.2z"/>
			<path class="st3" d="M49.2,42.7l4.5-2.3l4.5,2.3l-4.5,7.9L49.2,42.7z M59.9,82.2v-1.6h-1l2.5-23.5h-3.9v-2.5l7.3-23.8l-5,8.8
				l-0.6-3.4l5.6-5.4l-7.7-1.1l-3.4-7l-3.4,7l-7.7,1.1l5.6,5.4l-0.6,3.4l-5-8.8l7.3,23.8v2.5h-3.9l0,0l2.5,23.5h-1v1.6h-1.3
				l-0.5,2.4h16.2l-0.5-2.4H59.9z"/>
			<path class="st3" d="M49,42.5l4.5-2.3l4.5,2.3l-4.5,7.9L49,42.5z M59.7,82v-1.6h-1L61.2,57h-3.9v-2.5l7.3-23.8l-5,8.8L59,36.1
				l5.6-5.4l-7.7-1.1l-3.4-7l-3.4,7l-7.7,1.1l5.6,5.4l-0.6,3.4l-5-8.8l7.3,23.8V57h-3.9l0,0l2.5,23.5h-1V82h-1.3l-0.5,2.4h16.2
				L61,82H59.7z"/>
			<path class="st3" d="M48.8,42.2l4.5-2.3l4.5,2.3l-4.5,7.9L48.8,42.2z M59.5,81.8v-1.6h-1L61,56.7h-3.9v-2.5l7.3-23.8l-5,8.8
				l-0.6-3.4l5.6-5.4l-7.7-1.1l-3.4-7l-3.4,7l-7.7,1.1l5.6,5.4l-0.6,3.4l-5-8.8l7.3,23.8v2.5h-3.9l0,0L48,80.2h-1v1.6h-1.3l-0.5,2.4
				h16.2l-0.5-2.4H59.5z"/>
			<path class="st3" d="M48.5,42l4.5-2.3l4.5,2.3L53,49.9L48.5,42z M59.3,81.5V80h-1l2.5-23.5h-3.9V54l7.3-23.8l-5,8.8l-0.6-3.4
				l5.6-5.4l-7.7-1.1l-3.4-7l-3.4,7l-7.7,1.1l5.6,5.4L46.8,39l-5-8.8L49.1,54v2.5h-3.9l0,0L47.7,80h-1v1.6h-1.3l-0.5,2.4h16.2
				l-0.5-2.4H59.3z"/>
			<path class="st3" d="M48.3,41.8l4.5-2.3l4.5,2.3l-4.5,7.9L48.3,41.8z M59,81.3v-1.6h-1l2.5-23.5h-3.9v-2.5L63.9,30l-5,8.8
				l-0.6-3.4l5.6-5.4l-7.7-1.1l-3.4-7l-3.4,7L41.6,30l5.6,5.4l-0.6,3.4l-5-8.8l7.3,23.8v2.5H45l0,0l2.5,23.5h-1v1.6h-1.3l-0.5,2.4
				h16.2l-0.5-2.4H59z"/>
			<path class="st3" d="M48.1,41.6l4.5-2.3l4.5,2.3l-4.5,7.9L48.1,41.6z M58.8,81.1v-1.6h-1L60.3,56h-3.9v-2.5l7.3-23.8l-5,8.8
				l-0.6-3.4l5.6-5.4L56,28.6l-3.4-7l-3.4,7l-7.7,1.1l5.6,5.4l-0.6,3.4l-5-8.8l7.3,23.8V56h-3.9l0,0l2.5,23.5h-1v1.6H45l-0.5,2.4
				h16.2l-0.5-2.4H58.8z"/>
			<path class="st3" d="M47.8,41.3l4.5-2.3l4.5,2.3l-4.5,7.9L47.8,41.3z M58.6,80.8v-1.6h-1l2.5-23.5h-3.9v-2.5l7.3-23.8l-5,8.8
				l-0.6-3.4l5.6-5.4l-7.7-1.1l-3.4-7l-3.4,7l-7.7,1.1l5.6,5.4l-0.6,3.4l-5-8.8l7.3,23.8v2.5h-3.9l0,0l2.5,23.5h-1v1.6h-1.3
				l-0.5,2.4h16.2l-0.5-2.4H58.6z"/>
			<path class="st3" d="M47.6,41.1l4.5-2.3l4.5,2.3L52.1,49L47.6,41.1z M58.3,80.6V79h-1l2.5-23.5h-3.9v-2.5l7.3-23.8l-5,8.8
				l-0.6-3.4l5.6-5.4l-7.7-1.1l-3.4-7l-3.4,7l-7.7,1.1l5.6,5.4l-0.6,3.4l-5-8.8l7.3,23.8v2.5h-3.9l0,0L46.8,79h-1v1.6h-1.3L44,83
				h16.2l-0.5-2.4H58.3z"/>
			<path class="st3" d="M47.4,40.9l4.5-2.3l4.5,2.3l-4.5,7.9L47.4,40.9z M58.1,80.4v-1.6h-1l2.5-23.5h-3.9v-2.5L63,29l-5,8.8
				l-0.6-3.4L63,29l-7.7-1.1l-3.4-7l-3.4,7L40.7,29l5.6,5.4l-0.6,3.4l-5-8.8L48,52.9v2.5h-3.9l0,0l2.5,23.5h-1v1.6h-1.3l-0.5,2.4
				h16.2l-0.5-2.4H58.1z"/>
			<path class="st3" d="M47.2,40.6l4.5-2.3l4.5,2.3l-4.5,7.9L47.2,40.6z M57.9,80.2v-1.6h-1l2.5-23.5h-3.9v-2.5l7.3-23.8l-5,8.8
				l-0.6-3.4l5.6-5.4l-7.7-1.1l-3.4-7l-3.4,7l-7.7,1.1l5.6,5.4l-0.6,3.4l-5-8.8l7.3,23.8v2.5h-3.9l0,0l2.5,23.5h-1v1.6H44l-0.5,2.4
				h16.2l-0.5-2.4H57.9z"/>
			<path class="st3" d="M46.9,40.4l4.5-2.3l4.5,2.3l-4.5,7.9L46.9,40.4z M57.7,79.9v-1.6h-1l2.5-23.5h-3.9v-2.5l7.3-23.8l-5,8.8
				L57,34l5.6-5.4l-7.7-1.1l-3.4-7l-3.4,7l-7.7,1.1l5.6,5.4l-0.6,3.4l-5-8.8l7.3,23.8v2.5h-3.9l0,0l2.5,23.5h-1v1.6h-1.3l-0.5,2.4
				h16.2L59,79.9H57.7z"/>
			<path class="st3" d="M46.7,40.2l4.5-2.3l4.5,2.3L51.2,48L46.7,40.2z M57.4,79.7v-1.6h-1l2.5-23.5H55v-2.5l7.3-23.8l-5,8.8
				l-0.6-3.4l5.6-5.4l-7.7-1.1l-3.4-7l-3.4,7L40,28.4l5.6,5.4L45,37.2l-5-8.8l7.3,23.8v2.5h-3.9l0,0l2.5,23.5h-1v1.6h-1.3l-0.5,2.4
				h16.2l-0.5-2.4H57.4z"/>
			<path class="st3" d="M46.5,40l4.5-2.3l4.5,2.3l-4.5,7.9L46.5,40z M57.2,79.5v-1.6h-1l2.5-23.5h-3.9V52l7.3-23.8l-5,8.8l-0.6-3.4
				l5.6-5.4L54.4,27l-3.4-7l-3.4,7l-7.7,1.1l5.6,5.4l-0.6,3.4l-5-8.8L47.1,52v2.5h-3.9l0,0l2.5,23.5h-1v1.6h-1.3l-0.5,2.4H59
				l-0.5-2.4H57.2z"/>
			<path class="st3" d="M46.3,39.7l4.5-2.3l4.5,2.3l-4.5,7.9L46.3,39.7z M57,79.2v-1.6h-1l2.5-23.5h-3.9v-2.5l7.3-23.8l-5,8.8
				l-0.6-3.4l5.6-5.4l-7.7-1.1l-3.4-7l-3.4,7l-7.7,1.1l5.6,5.4l-0.6,3.4l-5-8.8l7.3,23.8v2.5h-3.9l0,0l2.5,23.5h-1v1.6h-1.3
				l-0.5,2.4h16.2l-0.5-2.4H57z"/>
			<path class="st3" d="M46,39.5l4.5-2.3l4.5,2.3l-4.5,7.9L46,39.5z M56.8,79v-1.6h-1L58.2,54h-3.9v-2.5l7.3-23.8l-5,8.8l-0.6-3.4
				l5.6-5.4l-7.7-1.1l-3.4-7l-3.4,7l-7.7,1.1l5.6,5.4l-0.6,3.4l-5-8.8l7.3,23.8V54h-3.9l0,0l2.5,23.5h-1V79h-1.3l-0.5,2.4h16.2
				L58,79H56.8z"/>
			<path class="st3" d="M45.8,39.3l4.5-2.3l4.5,2.3l-4.5,7.9L45.8,39.3z M56.5,78.8v-1.6h-1L58,53.8h-3.9v-2.5l7.3-23.8l-5,8.8
				l-0.6-3.4l5.6-5.4l-7.7-1.1l-3.4-7l-3.4,7l-7.7,1.1l5.6,5.4l-0.6,3.4l-5-8.8l7.3,23.8v2.5h-3.9l0,0L45,77.2h-1v1.6h-1.3l-0.5,2.4
				h16.2l-0.5-2.4H56.5z"/>
			<path class="st3" d="M45.6,39l4.5-2.3l4.5,2.3L50,46.9L45.6,39z M56.3,78.6V77h-1l2.5-23.5h-3.9v-2.5l7.3-23.8l-5,8.8l-0.6-3.4
				l5.6-5.4l-7.7-1.1l-3.4-7l-3.4,7l-7.7,1.1l5.6,5.4L43.9,36l-5-8.8l7.3,23.8v2.5h-3.9l0,0L44.8,77h-1v1.6h-1.3l-0.5,2.4h16.2
				l-0.5-2.4H56.3z"/>
			<path class="st3" d="M45.3,38.8l4.5-2.3l4.5,2.3l-4.5,7.9L45.3,38.8z M56.1,78.3v-1.6h-1l2.5-23.5h-3.9v-2.5L60.9,27l-5,8.8
				l-0.6-3.4l5.6-5.4l-7.7-1.1l-3.4-7l-3.4,7L38.6,27l5.6,5.4l-0.6,3.4l-5-8.8l7.3,23.8v2.5H42l0,0l2.5,23.5h-1v1.6h-1.3l-0.5,2.4
				h16.2l-0.5-2.4H56.1z"/>
			<path class="st3" d="M45.1,38.6l4.5-2.3l4.5,2.3l-4.5,7.9L45.1,38.6z M55.8,78.1v-1.6h-1l2.5-23.5h-3.9v-2.5l7.3-23.8l-5,8.8
				l-0.6-3.4l5.6-5.4L53,25.6l-3.4-7l-3.4,7l-7.7,1.1l5.6,5.4l-0.6,3.4l-5-8.8l7.3,23.8v2.5h-3.9l0,0l2.5,23.5h-1v1.6H42l-0.5,2.4
				h16.2l-0.5-2.4H55.8z"/>
			<path class="st3" d="M44.9,38.4l4.5-2.3l4.5,2.3l-4.5,7.9L44.9,38.4z M55.6,77.9v-1.6h-1l2.5-23.5h-3.9v-2.5l7.3-23.8l-5,8.8
				L54.9,32l5.6-5.4l-7.7-1.1l-3.4-7l-3.4,7l-7.7,1.1l5.6,5.4l-0.6,3.4l-5-8.8l7.3,23.8v2.5h-3.9l0,0l2.5,23.5h-1v1.6h-1.3l-0.5,2.4
				h16.2l-0.5-2.4H55.6z"/>
			<path class="st3" d="M44.7,38.1l4.5-2.3l4.5,2.3L49.1,46L44.7,38.1z M55.4,77.7v-1.6h-1l2.5-23.5H53v-2.5l7.3-23.8l-5,8.8
				l-0.6-3.4l5.6-5.4l-7.7-1.1l-3.4-7l-3.4,7L38,26.3l5.6,5.4L43,35.1l-5-8.8l7.3,23.8v2.5h-3.9l0,0l2.5,23.5h-1v1.6h-1.3L41,80
				h16.2l-0.5-2.4H55.4z"/>
			<path class="st3" d="M44.4,37.9l4.5-2.3l4.5,2.3l-4.5,7.9L44.4,37.9z M55.2,77.4v-1.6h-1l2.5-23.5h-3.9v-2.5L60,26.1l-5,8.8
				l-0.6-3.4l5.6-5.4L52.3,25l-3.4-7l-3.4,7l-7.7,1.1l5.6,5.4l-0.6,3.4l-5-8.8L45,49.9v2.5h-3.9l0,0l2.5,23.5h-1v1.6h-1.3l-0.5,2.4
				H57l-0.5-2.4H55.2z"/>
			<path class="st3" d="M44.2,37.7l4.5-2.3l4.5,2.3l-4.5,7.9L44.2,37.7z M54.9,77.2v-1.6h-1l2.5-23.5h-3.9v-2.5l7.3-23.8l-5,8.8
				l-0.6-3.4l5.6-5.4l-7.7-1.1l-3.4-7l-3.4,7l-7.7,1.1l5.6,5.4l-0.6,3.4l-5-8.8l7.3,23.8v2.5h-3.9l0,0l2.5,23.5h-1v1.6h-1.3
				l-0.5,2.4h16.2l-0.5-2.4H54.9z"/>
			<path class="st3" d="M44,37.5l4.5-2.3l4.5,2.3l-4.5,7.9L44,37.5z M54.7,77v-1.6h-1l2.5-23.5h-3.9v-2.5l7.3-23.8l-5,8.8L54,31.1
				l5.6-5.4l-7.7-1.1l-3.4-7l-3.4,7l-7.7,1.1l5.6,5.4l-0.6,3.4l-5-8.8l7.3,23.8v2.5h-3.9l0,0l2.5,23.5h-1V77h-1.3l-0.5,2.4h16.2
				L56,77H54.7z"/>
			<path class="st3" d="M43.7,37.2l4.5-2.3l4.5,2.3l-4.5,7.9L43.7,37.2z M54.5,76.7v-1.6h-1L56,51.7h-3.9v-2.5l7.3-23.8l-5,8.8
				l-0.6-3.4l5.6-5.4l-7.7-1.1l-3.4-7l-3.4,7L37,25.4l5.6,5.4L42,34.2l-5-8.8l7.3,23.8v2.5h-3.9l0,0L43,75.2h-1v1.6h-1.3l-0.5,2.4
				h16.2l-0.5-2.4H54.5z"/>
			<path class="st3" d="M43.5,37l4.5-2.3l4.5,2.3L48,44.9L43.5,37z M54.2,76.5v-1.6h-1l2.5-23.5h-3.9V49l7.3-23.8l-5,8.8l-0.6-3.4
				l5.6-5.4L51.4,24l-3.4-7l-3.4,7l-7.7,1.1l5.6,5.4L41.8,34l-5-8.8L44.1,49v2.5h-3.9l0,0l2.5,23.5h-1v1.6h-1.3l-0.5,2.4h16.2
				l-0.5-2.4H54.2z"/>
			<path class="st3" d="M43.3,36.8l4.5-2.3l4.5,2.3l-4.5,7.9L43.3,36.8z M54,76.3v-1.6h-1l2.5-23.5h-3.9v-2.5l7.3-23.8l-5,8.8
				l-0.6-3.4l5.6-5.4l-7.7-1.1l-3.4-7l-3.4,7l-7.7,1.1l5.6,5.4l-0.6,3.4l-5-8.8l7.3,23.8v2.5H40l0,0l2.5,23.5h-1v1.6h-1.3l-0.5,2.4
				h16.2l-0.5-2.4H54z"/>
			<path class="st3" d="M43.1,36.5l4.5-2.3l4.5,2.3l-4.5,7.9L43.1,36.5z M53.8,76.1v-1.6h-1L55.3,51h-3.9v-2.5l7.3-23.8l-5,8.8
				l-0.6-3.4l5.6-5.4L51,23.6l-3.4-7l-3.4,7l-7.7,1.1l5.6,5.4l-0.6,3.4l-5-8.8l7.3,23.8V51h-3.9l0,0l2.5,23.5h-1v1.6h-1.3l-0.5,2.4
				h16.2l-0.5-2.4H53.8z"/>
			<path class="st3" d="M42.8,36.3l4.5-2.3l4.5,2.3l-4.5,7.9L42.8,36.3z M53.6,75.8v-1.6h-1L55,50.8h-3.9v-2.5l7.3-23.8l-5,8.8
				l-0.6-3.4l5.6-5.4l-7.7-1.1l-3.4-7l-3.4,7l-7.7,1.1l5.6,5.4l-0.6,3.4l-5-8.8l7.3,23.8v2.5h-3.9l0,0L42,74.3h-1v1.6h-1.3l-0.5,2.4
				h16.2l-0.5-2.4H53.6z"/>
			<path class="st3" d="M42.6,36.1l4.5-2.3l4.5,2.3l-4.5,7.9L42.6,36.1z M53.3,75.6V74h-1l2.5-23.5h-3.9v-2.5l7.3-23.8l-5,8.8
				l-0.6-3.4l5.6-5.4l-7.7-1.1l-3.4-7l-3.4,7l-7.7,1.1l5.6,5.4l-0.6,3.4l-5-8.8l7.3,23.8v2.5h-3.9l0,0L41.8,74h-1v1.6h-1.3L39,78
				h16.2l-0.5-2.4H53.3z"/>
			<path class="st3" d="M42.4,35.9l4.5-2.3l4.5,2.3l-4.5,7.9L42.4,35.9z M53.1,75.4v-1.6h-1l2.5-23.5h-3.9v-2.5L58,24l-5,8.8
				l-0.6-3.4L58,24l-7.7-1.1l-3.4-7l-3.4,7L35.7,24l5.6,5.4l-0.6,3.4l-5-8.8L43,47.9v2.5h-3.9l0,0l2.5,23.5h-1v1.6h-1.3l-0.5,2.4
				h16.2l-0.5-2.4H53.1z"/>
			<path class="st3" d="M42.2,35.6l4.5-2.3l4.5,2.3l-4.5,7.9L42.2,35.6z M52.9,75.1v-1.6h-1l2.5-23.5h-3.9v-2.5l7.3-23.8l-5,8.8
				l-0.6-3.4l5.6-5.4l-7.7-1.1l-3.4-7l-3.4,7l-7.7,1.1l5.6,5.4l-0.6,3.4l-5-8.8l7.3,23.8v2.5h-3.9l0,0l2.5,23.5h-1v1.6H39l-0.5,2.4
				h16.2l-0.5-2.4H52.9z"/>
			<path class="st3" d="M41.9,35.4l4.5-2.3l4.5,2.3l-4.5,7.9L41.9,35.4z M52.7,74.9v-1.6h-1l2.5-23.5h-3.9v-2.5l7.3-23.8l-5,8.8
				L52,29l5.6-5.4l-7.7-1.1l-3.4-7l-3.4,7l-7.7,1.1l5.6,5.4l-0.6,3.4l-5-8.8l7.3,23.8v2.5h-3.9l0,0l2.5,23.5h-1v1.6h-1.3l-0.5,2.4
				h16.2l-0.5-2.4H52.7z"/>
			<path class="st3" d="M41.7,35.2l4.5-2.3l4.5,2.3L46.1,43L41.7,35.2z M52.4,74.7v-1.6h-1l2.5-23.5H50v-2.5l7.3-23.8l-5,8.8
				l-0.6-3.4l5.6-5.4l-7.7-1.1l-3.4-7l-3.4,7L35,23.3l5.6,5.4L40,32.2l-5-8.8l7.3,23.8v2.5h-3.9l0,0l2.5,23.5h-1v1.6h-1.3l-0.5,2.4
				h16.2l-0.5-2.4H52.4z"/>
			<path class="st3" d="M41.5,34.9l4.5-2.3l4.5,2.3l-4.5,7.9L41.5,34.9z M52.2,74.5v-1.6h-1l2.5-23.5h-3.9V47l7.3-23.8l-5,8.8
				l-0.6-3.4l5.6-5.4L49.4,22l-3.4-7l-3.4,7l-7.7,1.1l5.6,5.4l-0.6,3.4l-5-8.8L42,47v2.5h-3.9l0,0l2.5,23.5h-1v1.6h-1.3l-0.5,2.4H54
				l-0.5-2.4H52.2z"/>
			<path class="st3" d="M41.2,34.7l4.5-2.3l4.5,2.3l-4.5,7.9L41.2,34.7z M52,74.2v-1.6h-1l2.5-23.5h-3.9v-2.5l7.3-23.8l-5,8.8
				l-0.6-3.4l5.6-5.4l-7.7-1.1l-3.4-7l-3.4,7l-7.7,1.1l5.6,5.4l-0.6,3.4l-5-8.8l7.3,23.8v2.5h-3.9l0,0l2.5,23.5h-1v1.6h-1.3
				l-0.5,2.4h16.2l-0.5-2.4H52z"/>
			<path class="st3" d="M41,34.5l4.5-2.3l4.5,2.3l-4.5,7.9L41,34.5z M51.7,74v-1.6h-1L53.2,49h-3.9v-2.5l7.3-23.8l-5,8.8L51,28.1
				l5.6-5.4l-7.7-1.1l-3.4-7l-3.4,7l-7.7,1.1l5.6,5.4l-0.6,3.4l-5-8.8l7.3,23.8V49h-3.9l0,0l2.5,23.5h-1V74h-1.3l-0.5,2.4h16.2
				L53,74H51.7z"/>
			<path class="st3" d="M40.8,34.3l4.5-2.3l4.5,2.3l-4.5,7.9L40.8,34.3z M51.5,73.8v-1.6h-1L53,48.8h-3.9v-2.5l7.3-23.8l-5,8.8
				l-0.6-3.4l5.6-5.4l-7.7-1.1l-3.4-7l-3.4,7l-7.7,1.1l5.6,5.4l-0.6,3.4l-5-8.8l7.3,23.8v2.5h-3.9l0,0L40,72.2h-1v1.6h-1.3l-0.5,2.4
				h16.2l-0.5-2.4H51.5z"/>
			<path class="st3" d="M40.6,34l4.5-2.3l4.5,2.3L45,41.9L40.6,34z M51.3,73.6V72h-1l2.5-23.5h-3.9v-2.5l7.3-23.8l-5,8.8l-0.6-3.4
				l5.6-5.4l-7.7-1.1l-3.4-7l-3.4,7l-7.7,1.1l5.6,5.4L38.9,31l-5-8.8l7.3,23.8v2.5h-3.9l0,0L39.8,72h-1v1.6h-1.3l-0.5,2.4h16.2
				l-0.5-2.4H51.3z"/>
			<path class="st3" d="M40.3,33.8l4.5-2.3l4.5,2.3l-4.5,7.9L40.3,33.8z M51.1,73.3v-1.6h-1l2.5-23.5h-3.9v-2.5L55.9,22l-5,8.8
				l-0.6-3.4l5.6-5.4l-7.7-1.1l-3.4-7l-3.4,7L33.6,22l5.6,5.4l-0.6,3.4l-5-8.8l7.3,23.8v2.5H37l0,0l2.5,23.5h-1v1.6h-1.3l-0.5,2.4
				h16.2l-0.5-2.4H51.1z"/>
			<path class="st3" d="M40.1,33.6l4.5-2.3l4.5,2.3l-4.5,7.9L40.1,33.6z M50.8,73.1v-1.6h-1l2.5-23.5h-3.9v-2.5l7.3-23.8l-5,8.8
				l-0.6-3.4l5.6-5.4L48,20.6l-3.4-7l-3.4,7l-7.7,1.1l5.6,5.4l-0.6,3.4l-5-8.8l7.3,23.8v2.5h-3.9l0,0l2.5,23.5h-1v1.6H37l-0.5,2.4
				h16.2l-0.5-2.4H50.8z"/>
			<path class="st3" d="M39.9,33.4l4.5-2.3l4.5,2.3l-4.5,7.9L39.9,33.4z M50.6,72.9v-1.6h-1l2.5-23.5h-3.9v-2.5l7.3-23.8l-5,8.8
				L49.9,27l5.6-5.4l-7.7-1.1l-3.4-7l-3.4,7l-7.7,1.1l5.6,5.4l-0.6,3.4l-5-8.8l7.3,23.8v2.5h-3.9l0,0l2.5,23.5h-1v1.6h-1.3l-0.5,2.4
				h16.2l-0.5-2.4H50.6z"/>
			<path class="st3" d="M39.6,33.1l4.5-2.3l4.5,2.3L44.1,41L39.6,33.1z M50.4,72.6v-1.6h-1l2.5-23.5H48v-2.5l7.3-23.8l-5,8.8
				l-0.6-3.4l5.6-5.4l-7.7-1.1l-3.4-7l-3.4,7l-7.7,1.1l5.6,5.4l-0.6,3.4l-5-8.8l7.3,23.8v2.5h-3.9l0,0l2.5,23.5h-1v1.6h-1.3L36,75
				h16.2l-0.5-2.4H50.4z"/>
			<path class="st3" d="M39.4,32.9l4.5-2.3l4.5,2.3l-4.5,7.9L39.4,32.9z M50.1,72.4v-1.6h-1l2.5-23.5h-3.9v-2.5L55,21.1l-5,8.8
				l-0.6-3.4l5.6-5.4l-7.7-1.1l-3.4-7l-3.4,7l-7.7,1.1l5.6,5.4l-0.6,3.4l-5-8.8L40,44.9v2.5h-3.9l0,0l2.5,23.5h-1v1.6h-1.3l-0.5,2.4
				H52l-0.5-2.4H50.1z"/>
			<path class="st3" d="M39.2,32.7l4.5-2.3l4.5,2.3l-4.5,7.9L39.2,32.7z M49.9,72.2v-1.6h-1l2.5-23.5h-3.9v-2.5l7.3-23.8l-5,8.8
				l-0.6-3.4l5.6-5.4l-7.7-1.1l-3.4-7l-3.4,7l-7.7,1.1l5.6,5.4l-0.6,3.4l-5-8.8l7.3,23.8v2.5h-3.9l0,0l2.5,23.5h-1v1.6h-1.3
				l-0.5,2.4h16.2l-0.5-2.4H49.9z"/>
			<path class="st3" d="M39,32.4l4.5-2.3l4.5,2.3l-4.5,7.9L39,32.4z M49.7,72v-1.6h-1l2.5-23.5h-3.9v-2.5l7.3-23.8l-5,8.8L49,26
				l5.6-5.4l-7.7-1.1l-3.4-7l-3.4,7l-7.7,1.1l5.6,5.4l-0.6,3.4l-5-8.8l7.3,23.8v2.5h-3.9l0,0l2.5,23.5h-1V72h-1.3l-0.5,2.4h16.2
				L51,72H49.7z"/>
			<path class="st3" d="M38.7,32.2l4.5-2.3l4.5,2.3l-4.5,7.9L38.7,32.2z M49.5,71.7v-1.6h-1l2.5-23.5h-3.9v-2.5l7.3-23.8l-5,8.8
				l-0.6-3.4l5.6-5.4l-7.7-1.1l-3.4-7l-3.4,7L32,20.4l5.6,5.4L37,29.2l-5-8.8l7.3,23.8v2.5h-3.9l0,0l2.5,23.5h-1v1.6h-1.3l-0.5,2.4
				h16.2l-0.5-2.4H49.5z"/>
			<path class="st3" d="M38.5,32l4.5-2.3l4.5,2.3L43,39.8L38.5,32z M49.2,71.5v-1.6h-1l2.5-23.5h-3.9V44l7.3-23.8l-5,8.8l-0.6-3.4
				l5.6-5.4L46.4,19l-3.4-7l-3.4,7l-7.7,1.1l5.6,5.4L36.8,29l-5-8.8L39.1,44v2.5h-3.9l0,0l2.5,23.5h-1v1.6h-1.3l-0.5,2.4H51
				l-0.5-2.4H49.2z"/>
			<path class="st3" d="M38.3,31.8l4.5-2.3l4.5,2.3l-4.5,7.9L38.3,31.8z M49,71.3v-1.6h-1l2.5-23.5h-3.9v-2.5l7.3-23.8l-5,8.8
				l-0.6-3.4l5.6-5.4l-7.7-1.1l-3.4-7l-3.4,7l-7.7,1.1l5.6,5.4l-0.6,3.4l-5-8.8l7.3,23.8v2.5H35l0,0l2.5,23.5h-1v1.6h-1.3l-0.5,2.4
				h16.2l-0.5-2.4H49z"/>
			<path class="st3" d="M38.1,31.5l4.5-2.3l4.5,2.3l-4.5,7.9L38.1,31.5z M48.8,71v-1.6h-1L50.3,46h-3.9v-2.5l7.3-23.8l-5,8.8
				l-0.6-3.4l5.6-5.4L46,18.6l-3.4-7l-3.4,7l-7.7,1.1l5.6,5.4l-0.6,3.4l-5-8.8l7.3,23.8V46h-3.9l0,0l2.5,23.5h-1V71h-1.3l-0.5,2.4
				h16.2L50.1,71H48.8z"/>
			<path class="st3" d="M37.8,31.3l4.5-2.3l4.5,2.3l-4.5,7.9L37.8,31.3z M48.6,70.8v-1.6h-1L50,45.8h-3.9v-2.5l7.3-23.8l-5,8.8
				l-0.6-3.4l5.6-5.4l-7.7-1.1l-3.4-7l-3.4,7l-7.7,1.1l5.6,5.4l-0.6,3.4l-5-8.8l7.3,23.8v2.5h-3.9l0,0L37,69.2h-1v1.6h-1.3l-0.5,2.4
				h16.2l-0.5-2.4H48.6z"/>
			<path class="st3" d="M37.6,31.1l4.5-2.3l4.5,2.3L42,38.9L37.6,31.1z M48.3,70.6V69h-1l2.5-23.5h-3.9v-2.5l7.3-23.8l-5,8.8
				l-0.6-3.4l5.6-5.4l-7.7-1.1l-3.4-7l-3.4,7l-7.7,1.1l5.6,5.4l-0.6,3.4l-5-8.8l7.3,23.8v2.5h-3.9l0,0L36.8,69h-1v1.6h-1.3L34,73
				h16.2l-0.5-2.4H48.3z"/>
			<path class="st3" d="M37.4,30.8l4.5-2.3l4.5,2.3l-4.5,7.9L37.4,30.8z M48.1,70.4v-1.6h-1l2.5-23.5h-3.9v-2.5L53,19l-5,8.8
				l-0.6-3.4L53,19l-7.7-1.1l-3.4-7l-3.4,7L30.7,19l5.6,5.4l-0.6,3.4l-5-8.8l7.3,23.8v2.5h-3.9l0,0l2.5,23.5h-1v1.6h-1.3l-0.5,2.4
				h16.2l-0.5-2.4H48.1z"/>
			<path class="st3" d="M37.1,30.6l4.5-2.3l4.5,2.3l-4.5,7.9L37.1,30.6z M47.9,70.1v-1.6h-1l2.5-23.5h-3.9v-2.5l7.3-23.8l-5,8.8
				l-0.6-3.4l5.6-5.4L45,17.7l-3.4-7l-3.4,7l-7.7,1.1l5.6,5.4l-0.6,3.4l-5-8.8l7.3,23.8v2.5h-3.9l0,0l2.5,23.5h-1v1.6H34l-0.5,2.4
				h16.2l-0.5-2.4H47.9z"/>
			<path class="st3" d="M36.9,30.4l4.5-2.3l4.5,2.3l-4.5,7.9L36.9,30.4z M47.6,69.9v-1.6h-1l2.5-23.5h-3.9v-2.5l7.3-23.8l-5,8.8
				L46.9,24l5.6-5.4l-7.7-1.1l-3.4-7l-3.4,7l-7.7,1.1l5.6,5.4l-0.6,3.4l-5-8.8l7.3,23.8v2.5h-3.9l0,0l2.5,23.5h-1v1.6h-1.3l-0.5,2.4
				h16.2l-0.5-2.4H47.6z"/>
			<path class="st3" d="M36.7,30.2l4.5-2.3l4.5,2.3L41.1,38L36.7,30.2z M47.4,69.7v-1.6h-1l2.5-23.5H45v-2.5l7.3-23.8l-5,8.8
				l-0.6-3.4l5.6-5.4l-7.7-1.1l-3.4-7l-3.4,7L30,18.3l5.6,5.4L35,27.2l-5-8.8l7.3,23.8v2.5h-3.9l0,0l2.5,23.5h-1v1.6h-1.3L33.1,72
				h16.2l-0.5-2.4H47.4z"/>
			<path class="st3" d="M36.5,29.9l4.5-2.3l4.5,2.3l-4.5,7.9L36.5,29.9z M47.2,69.5v-1.6h-1l2.5-23.5h-3.9V42l7.3-23.8l-5,8.8
				l-0.6-3.4l5.6-5.4L44.4,17l-3.4-7l-3.4,7l-7.7,1.1l5.6,5.4l-0.6,3.4l-5-8.8L37,42v2.5h-3.9l0,0l2.5,23.5h-1v1.6h-1.3l-0.5,2.4H49
				l-0.5-2.4H47.2z"/>
			<path class="st3" d="M36.2,29.7l4.5-2.3l4.5,2.3l-4.5,7.9L36.2,29.7z M47,69.2v-1.6h-1l2.5-23.5h-3.9v-2.5l7.3-23.8l-5,8.8
				l-0.6-3.4l5.6-5.4l-7.7-1.1l-3.4-7l-3.4,7l-7.7,1.1l5.6,5.4l-0.6,3.4l-5-8.8l7.3,23.8v2.5h-3.9l0,0l2.5,23.5h-1v1.6h-1.3
				l-0.5,2.4h16.2l-0.5-2.4H47z"/>
			<path class="st3" d="M36,29.5l4.5-2.3l4.5,2.3l-4.5,7.9L36,29.5z M46.7,69v-1.6h-1L48.2,44h-3.9v-2.5l7.3-23.8l-5,8.8L46,23.1
				l5.6-5.4l-7.7-1.1l-3.4-7l-3.4,7l-7.7,1.1l5.6,5.4l-0.6,3.4l-5-8.8l7.3,23.8V44h-3.9l0,0l2.5,23.5h-1V69h-1.3l-0.5,2.4h16.2
				L48,69H46.7z"/>
			<path class="st3" d="M35.8,29.3l4.5-2.3l4.5,2.3l-4.5,7.9L35.8,29.3z M46.5,68.8v-1.6h-1L48,43.7h-3.9v-2.5l7.3-23.8l-5,8.8
				l-0.6-3.4l5.6-5.4l-7.7-1.1l-3.4-7l-3.4,7l-7.7,1.1l5.6,5.4l-0.6,3.4l-5-8.8l7.3,23.8v2.5h-3.9l0,0L35,67.2h-1v1.6h-1.3l-0.5,2.4
				h16.2l-0.5-2.4H46.5z"/>
			<path class="st3" d="M35.5,29l4.5-2.3l4.5,2.3L40,36.9L35.5,29z M46.3,68.5V67h-1l2.5-23.5h-3.9V41l7.3-23.8l-5,8.8l-0.6-3.4
				l5.6-5.4l-7.7-1.1l-3.4-7l-3.4,7l-7.7,1.1l5.6,5.4L33.8,26l-5-8.8L36.1,41v2.5h-3.9l0,0L34.8,67h-1v1.6h-1.3l-0.5,2.4h16.2
				l-0.5-2.4H46.3z"/>
		</g>
	</g>
	<g>
		<rect x="36.1" y="41" class="st4" width="7.8" height="4.9"/>
		<g>
			<polygon class="st5" points="45.2,67.7 34.8,67.7 32.2,43.5 47.8,43.5 			"/>
			<g>
				<polygon class="st6" points="47.8,43.5 45.2,67.7 40,67.7 40,43.5 				"/>
				<polygon class="st5" points="32.2,43.5 40,43.5 40,67.7 34.8,67.7 				"/>
			</g>
			<rect x="33.7" y="67" class="st4" width="12.6" height="1.6"/>
			<polygon class="st6" points="47.6,68.5 32.4,68.5 31.9,70.9 48.1,70.9 			"/>
		</g>
		<polygon class="st7" points="28.8,17.2 36.1,41 43.9,41 51.2,17.2 40,36.9 		"/>
		<g>
			<polygon class="st8" points="36.6,16.1 40,9.1 40,20.8 			"/>
			<polygon class="st9" points="40,9.1 43.4,16.1 40,20.8 			"/>
			<polygon class="st8" points="43.4,16.1 51.2,17.2 40,20.8 			"/>
			<polygon class="st8" points="34.4,22.6 28.8,17.2 40,20.8 			"/>
			<polygon class="st9" points="28.8,17.2 36.6,16.1 40,20.8 			"/>
			<polygon class="st9" points="46.9,30.3 40,26.7 40,20.8 			"/>
			<polygon class="st9" points="40,20.8 33.1,30.3 34.4,22.6 			"/>
			<polygon class="st9" points="51.2,17.2 45.6,22.6 40,20.8 			"/>
			<polygon class="st8" points="40,26.7 33.1,30.3 40,20.8 			"/>
			<polygon class="st8" points="45.6,22.6 46.9,30.3 40,20.8 			"/>
		</g>
	</g>
</g>
</svg>
